M48
;DRILL file {KiCad 4.0.3+e1-6302~38~ubuntu14.04.1-stable} date Wed Sep  7 14:23:02 2016
;FORMAT={-:-/ absolute / inch / decimal}
FMAT,2
INCH,TZ
T1C0.012
T2C0.031
T3C0.040
%
G90
G05
M72
T1
X5.0049Y-3.2283
X5.0522Y-3.0039
X5.0837Y-3.4291
X5.0994Y-3.2559
X5.1033Y-2.9291
X5.1033Y-3.126
X5.1191Y-3.2087
X5.127Y-3.1024
X5.1457Y-3.4006
X5.1467Y-3.1772
X5.1949Y-3.1526
X5.2766Y-3.2047
X5.2805Y-2.9764
X5.2805Y-3.4016
X5.3081Y-3.
X5.3238Y-3.5709
X5.3278Y-3.0512
X5.3278Y-3.2913
X5.3868Y-3.2323
X5.4341Y-3.1929
X5.4341Y-3.2756
X5.4616Y-3.5197
X5.4852Y-3.1417
X5.5089Y-3.1654
X5.5148Y-3.561
X5.5285Y-2.8031
X5.5364Y-3.189
X5.5404Y-3.0276
X5.5482Y-3.5276
X5.5482Y-3.561
X5.564Y-3.2126
X5.5659Y-3.3209
X5.5679Y-2.8031
X5.5679Y-3.3661
X5.5719Y-3.5
X5.5955Y-3.5256
X5.6073Y-2.8031
X5.6348Y-3.374
X5.6388Y-3.5276
X5.6467Y-2.8031
X5.6467Y-3.2736
X5.6663Y-3.374
X5.6663Y-3.5118
X5.686Y-2.8031
X5.686Y-3.2343
X5.688Y-3.4449
X5.688Y-3.4764
X5.6939Y-3.3583
X5.7215Y-3.439
X5.7254Y-2.8031
X5.7648Y-2.8031
X5.7707Y-3.3081
X5.8041Y-2.8031
X5.812Y-2.9921
X5.8159Y-3.0512
X5.8159Y-3.2106
X5.8159Y-3.2402
X5.8159Y-3.2697
X5.8199Y-3.3937
X5.8435Y-2.8031
X5.8671Y-2.9016
X5.8829Y-2.8031
X5.8986Y-3.563
X5.9262Y-3.0866
X5.938Y-3.563
X5.9449Y-3.1496
X5.9449Y-3.2283
X5.9449Y-3.3071
X5.9774Y-3.563
X5.9843Y-3.189
X5.9843Y-3.2677
X6.0236Y-3.1496
X6.0236Y-3.2283
X6.0236Y-3.3071
X6.0955Y-3.4528
X6.123Y-3.689
X6.123Y-3.7264
X6.123Y-3.7677
X6.123Y-3.8091
X6.1506Y-3.3602
X6.1535Y-3.1388
X6.1545Y-3.1083
X6.1555Y-3.3179
X6.1604Y-3.7264
X6.1604Y-3.7677
X6.1604Y-3.8091
X6.1624Y-3.689
X6.186Y-3.2165
X6.249Y-3.2992
X6.2608Y-3.2402
X6.2726Y-3.1575
T2
X5.0287Y-2.8096
X5.0287Y-2.8596
X5.0787Y-2.8096
X5.0787Y-2.8596
X5.1287Y-2.8096
X5.1287Y-2.8596
X5.3437Y-2.8096
X5.3437Y-2.8596
X5.3937Y-2.8096
X5.3937Y-2.8596
X5.4437Y-2.8096
X5.4437Y-2.8596
T3
X6.5748Y-3.0783
X6.5748Y-3.1783
X6.5748Y-3.2783
X6.5748Y-3.3783
T0
M30
