G04 #@! TF.FileFunction,Paste,Bot*
%FSLAX46Y46*%
G04 Gerber Fmt 4.6, Leading zero omitted, Abs format (unit mm)*
G04 Created by KiCad (PCBNEW 4.0.3+e1-6302~38~ubuntu14.04.1-stable) date Wed Sep  7 14:23:00 2016*
%MOMM*%
%LPD*%
G01*
G04 APERTURE LIST*
%ADD10C,0.100000*%
%ADD11R,1.550000X0.350000*%
%ADD12R,3.100000X5.180000*%
%ADD13R,0.750000X0.800000*%
%ADD14R,0.800000X0.750000*%
%ADD15R,3.200000X1.000000*%
%ADD16R,0.350000X0.350000*%
%ADD17R,0.900000X0.300000*%
%ADD18R,0.300000X0.900000*%
%ADD19R,1.080000X1.080000*%
%ADD20R,4.000500X1.600200*%
G04 APERTURE END LIST*
D10*
D11*
X154800000Y-77775000D03*
X154800000Y-78425000D03*
X154800000Y-79075000D03*
X154800000Y-79725000D03*
X154800000Y-80375000D03*
X154800000Y-81025000D03*
X154800000Y-81675000D03*
X154800000Y-82325000D03*
X154800000Y-82975000D03*
X154800000Y-83625000D03*
X154800000Y-84275000D03*
X154800000Y-84925000D03*
X154800000Y-85575000D03*
X154800000Y-86225000D03*
X149200000Y-86225000D03*
X149200000Y-85575000D03*
X149200000Y-84925000D03*
X149200000Y-84275000D03*
X149200000Y-83625000D03*
X149200000Y-82975000D03*
X149200000Y-82325000D03*
X149200000Y-81675000D03*
X149200000Y-81025000D03*
X149200000Y-80375000D03*
X149200000Y-79725000D03*
X149200000Y-79075000D03*
X149200000Y-78425000D03*
X149200000Y-77775000D03*
D12*
X152000000Y-82000000D03*
D13*
X157625000Y-84350000D03*
X157625000Y-85850000D03*
D14*
X140175000Y-82300000D03*
X138675000Y-82300000D03*
D13*
X157625000Y-79425000D03*
X157625000Y-77925000D03*
D14*
X156375000Y-76200000D03*
X154875000Y-76200000D03*
D15*
X162000000Y-82900000D03*
X162000000Y-89100000D03*
X162000000Y-81100000D03*
X162000000Y-74900000D03*
D16*
X142675000Y-83900000D03*
D17*
X142375000Y-83400000D03*
X142375000Y-82900000D03*
X142375000Y-82400000D03*
X142375000Y-81900000D03*
D16*
X142675000Y-81400000D03*
D18*
X143175000Y-81100000D03*
X143675000Y-81100000D03*
X144175000Y-81100000D03*
X144675000Y-81100000D03*
D16*
X145175000Y-81400000D03*
D17*
X145475000Y-81900000D03*
X145475000Y-82400000D03*
X145475000Y-82900000D03*
X145475000Y-83400000D03*
D16*
X145175000Y-83900000D03*
D18*
X144675000Y-84200000D03*
X144175000Y-84200000D03*
X143675000Y-84200000D03*
X143175000Y-84200000D03*
D19*
X143925000Y-82650000D03*
D20*
X134975540Y-88500000D03*
X128874460Y-88500000D03*
M02*
