G04 #@! TF.FileFunction,Soldermask,Top*
%FSLAX46Y46*%
G04 Gerber Fmt 4.6, Leading zero omitted, Abs format (unit mm)*
G04 Created by KiCad (PCBNEW 4.0.6-e0-6349~53~ubuntu14.04.1) date Fri Apr 14 13:42:04 2017*
%MOMM*%
%LPD*%
G01*
G04 APERTURE LIST*
%ADD10C,0.100000*%
%ADD11R,0.650240X3.599180*%
%ADD12R,0.650240X4.599940*%
%ADD13O,0.650240X0.650240*%
%ADD14C,1.100000*%
%ADD15R,1.700000X0.900000*%
%ADD16R,0.864000X0.787000*%
%ADD17R,0.800100X0.800100*%
%ADD18R,0.787000X0.864000*%
%ADD19R,1.200000X0.400000*%
%ADD20C,2.540000*%
%ADD21R,2.032000X1.727200*%
%ADD22O,2.032000X1.727200*%
%ADD23C,1.524000*%
%ADD24C,0.254000*%
G04 APERTURE END LIST*
D10*
D11*
X159499600Y-99499620D03*
D12*
X158498840Y-100000000D03*
X157500620Y-100000000D03*
X156499860Y-100000000D03*
X155499100Y-100000000D03*
X154500880Y-100000000D03*
X153500120Y-100000000D03*
X152499360Y-100000000D03*
X151501140Y-100000000D03*
X150500380Y-100000000D03*
X149499620Y-100000000D03*
X144500900Y-100000000D03*
X143500140Y-100000000D03*
X142499380Y-100000000D03*
X141501160Y-100000000D03*
X140500400Y-100000000D03*
X146499880Y-100000000D03*
X145499120Y-100000000D03*
D13*
X156499860Y-102301240D03*
X155499100Y-102301240D03*
X154500880Y-102301240D03*
X153500120Y-102301240D03*
X152499360Y-102301240D03*
X151501140Y-102301240D03*
X150500380Y-102301240D03*
X144500900Y-102301240D03*
X143500140Y-102301240D03*
X157500620Y-102301240D03*
X145499120Y-102301240D03*
X142499380Y-102301240D03*
X149499620Y-102301240D03*
X146499880Y-102301240D03*
X141501160Y-102301240D03*
X140500400Y-102301240D03*
X158498840Y-102301240D03*
D14*
X138270000Y-72635000D03*
X138270000Y-71365000D03*
X137000000Y-72635000D03*
X137000000Y-71365000D03*
X135730000Y-72635000D03*
X135730000Y-71365000D03*
X130270000Y-72635000D03*
X130270000Y-71365000D03*
X129000000Y-72635000D03*
X129000000Y-71365000D03*
X127730000Y-72635000D03*
X127730000Y-71365000D03*
D15*
X157325000Y-90950000D03*
X157325000Y-88050000D03*
D16*
X151425000Y-89474500D03*
X151425000Y-87925500D03*
D17*
X155025760Y-90450000D03*
X155025760Y-88550000D03*
X153026780Y-89500000D03*
D16*
X155125000Y-80074500D03*
X155125000Y-78525500D03*
X147000000Y-87725500D03*
X147000000Y-89274500D03*
X144625000Y-79325500D03*
X144625000Y-80874500D03*
X157625000Y-80074500D03*
X157625000Y-78525500D03*
X133000000Y-71325500D03*
X133000000Y-72874500D03*
X142925000Y-78725500D03*
X142925000Y-80274500D03*
D18*
X143350500Y-75700000D03*
X144899500Y-75700000D03*
D16*
X138625000Y-90925500D03*
X138625000Y-92474500D03*
X139525000Y-77225500D03*
X139525000Y-78774500D03*
X146325000Y-78625500D03*
X146325000Y-80174500D03*
X141225000Y-78125500D03*
X141225000Y-79674500D03*
D18*
X139050500Y-86500000D03*
X140599500Y-86500000D03*
X139050500Y-88200000D03*
X140599500Y-88200000D03*
X139050500Y-84800000D03*
X140599500Y-84800000D03*
X139050500Y-83100000D03*
X140599500Y-83100000D03*
D19*
X128375000Y-78125000D03*
X128375000Y-78775000D03*
X128375000Y-79425000D03*
X128375000Y-80075000D03*
X128375000Y-80725000D03*
X128375000Y-81375000D03*
X128375000Y-82025000D03*
X128375000Y-82675000D03*
X135275000Y-82675000D03*
X135275000Y-82025000D03*
X135275000Y-81375000D03*
X135275000Y-80725000D03*
X135275000Y-80075000D03*
X135275000Y-79425000D03*
X135275000Y-78775000D03*
X135275000Y-78125000D03*
D20*
X126600000Y-75500000D03*
X173600000Y-91200000D03*
X173600000Y-72400000D03*
D21*
X167000000Y-78190000D03*
D22*
X167000000Y-80730000D03*
X167000000Y-83270000D03*
X167000000Y-85810000D03*
D23*
X148000000Y-91700000D03*
X162300000Y-91700000D03*
X132000000Y-91700000D03*
X129000000Y-91700000D03*
D16*
X149400000Y-86674500D03*
X149400000Y-85125500D03*
X149400000Y-89474500D03*
X149400000Y-87925500D03*
D18*
X134125500Y-74800000D03*
X135674500Y-74800000D03*
D24*
G36*
X160023000Y-103298000D02*
X139977000Y-103298000D01*
X139977000Y-97602000D01*
X160023000Y-97602000D01*
X160023000Y-103298000D01*
X160023000Y-103298000D01*
G37*
X160023000Y-103298000D02*
X139977000Y-103298000D01*
X139977000Y-97602000D01*
X160023000Y-97602000D01*
X160023000Y-103298000D01*
M02*
