G04 #@! TF.FileFunction,Legend,Top*
%FSLAX46Y46*%
G04 Gerber Fmt 4.6, Leading zero omitted, Abs format (unit mm)*
G04 Created by KiCad (PCBNEW 4.0.6-e0-6349~53~ubuntu14.04.1) date Fri Apr 14 13:42:04 2017*
%MOMM*%
%LPD*%
G01*
G04 APERTURE LIST*
%ADD10C,0.100000*%
%ADD11C,0.200000*%
%ADD12C,0.150000*%
%ADD13C,0.152400*%
%ADD14C,0.010000*%
G04 APERTURE END LIST*
D10*
D11*
X139085714Y-72052381D02*
X139085714Y-71052381D01*
X139419048Y-71766667D01*
X139752381Y-71052381D01*
X139752381Y-72052381D01*
X140657143Y-72052381D02*
X140657143Y-71528571D01*
X140609524Y-71433333D01*
X140514286Y-71385714D01*
X140323809Y-71385714D01*
X140228571Y-71433333D01*
X140657143Y-72004762D02*
X140561905Y-72052381D01*
X140323809Y-72052381D01*
X140228571Y-72004762D01*
X140180952Y-71909524D01*
X140180952Y-71814286D01*
X140228571Y-71719048D01*
X140323809Y-71671429D01*
X140561905Y-71671429D01*
X140657143Y-71623810D01*
X141085714Y-72004762D02*
X141180952Y-72052381D01*
X141371428Y-72052381D01*
X141466667Y-72004762D01*
X141514286Y-71909524D01*
X141514286Y-71861905D01*
X141466667Y-71766667D01*
X141371428Y-71719048D01*
X141228571Y-71719048D01*
X141133333Y-71671429D01*
X141085714Y-71576190D01*
X141085714Y-71528571D01*
X141133333Y-71433333D01*
X141228571Y-71385714D01*
X141371428Y-71385714D01*
X141466667Y-71433333D01*
X141800000Y-71385714D02*
X142180952Y-71385714D01*
X141942857Y-71052381D02*
X141942857Y-71909524D01*
X141990476Y-72004762D01*
X142085714Y-72052381D01*
X142180952Y-72052381D01*
X142895239Y-72004762D02*
X142800001Y-72052381D01*
X142609524Y-72052381D01*
X142514286Y-72004762D01*
X142466667Y-71909524D01*
X142466667Y-71528571D01*
X142514286Y-71433333D01*
X142609524Y-71385714D01*
X142800001Y-71385714D01*
X142895239Y-71433333D01*
X142942858Y-71528571D01*
X142942858Y-71623810D01*
X142466667Y-71719048D01*
X143371429Y-72052381D02*
X143371429Y-71385714D01*
X143371429Y-71576190D02*
X143419048Y-71480952D01*
X143466667Y-71433333D01*
X143561905Y-71385714D01*
X143657144Y-71385714D01*
X129090476Y-74504762D02*
X129233333Y-74552381D01*
X129471429Y-74552381D01*
X129566667Y-74504762D01*
X129614286Y-74457143D01*
X129661905Y-74361905D01*
X129661905Y-74266667D01*
X129614286Y-74171429D01*
X129566667Y-74123810D01*
X129471429Y-74076190D01*
X129280952Y-74028571D01*
X129185714Y-73980952D01*
X129138095Y-73933333D01*
X129090476Y-73838095D01*
X129090476Y-73742857D01*
X129138095Y-73647619D01*
X129185714Y-73600000D01*
X129280952Y-73552381D01*
X129519048Y-73552381D01*
X129661905Y-73600000D01*
X130233333Y-74552381D02*
X130138095Y-74504762D01*
X130090476Y-74409524D01*
X130090476Y-73552381D01*
X131042858Y-74552381D02*
X131042858Y-74028571D01*
X130995239Y-73933333D01*
X130900001Y-73885714D01*
X130709524Y-73885714D01*
X130614286Y-73933333D01*
X131042858Y-74504762D02*
X130947620Y-74552381D01*
X130709524Y-74552381D01*
X130614286Y-74504762D01*
X130566667Y-74409524D01*
X130566667Y-74314286D01*
X130614286Y-74219048D01*
X130709524Y-74171429D01*
X130947620Y-74171429D01*
X131042858Y-74123810D01*
X131423810Y-73885714D02*
X131661905Y-74552381D01*
X131900001Y-73885714D01*
X132661906Y-74504762D02*
X132566668Y-74552381D01*
X132376191Y-74552381D01*
X132280953Y-74504762D01*
X132233334Y-74409524D01*
X132233334Y-74028571D01*
X132280953Y-73933333D01*
X132376191Y-73885714D01*
X132566668Y-73885714D01*
X132661906Y-73933333D01*
X132709525Y-74028571D01*
X132709525Y-74123810D01*
X132233334Y-74219048D01*
D12*
X164033333Y-91350000D02*
X163966667Y-91316667D01*
X163866667Y-91316667D01*
X163766667Y-91350000D01*
X163700000Y-91416667D01*
X163666667Y-91483333D01*
X163633333Y-91616667D01*
X163633333Y-91716667D01*
X163666667Y-91850000D01*
X163700000Y-91916667D01*
X163766667Y-91983333D01*
X163866667Y-92016667D01*
X163933333Y-92016667D01*
X164033333Y-91983333D01*
X164066667Y-91950000D01*
X164066667Y-91716667D01*
X163933333Y-91716667D01*
X164366667Y-92016667D02*
X164366667Y-91316667D01*
X164766667Y-92016667D01*
X164766667Y-91316667D01*
X165100000Y-92016667D02*
X165100000Y-91316667D01*
X165266666Y-91316667D01*
X165366666Y-91350000D01*
X165433333Y-91416667D01*
X165466666Y-91483333D01*
X165500000Y-91616667D01*
X165500000Y-91716667D01*
X165466666Y-91850000D01*
X165433333Y-91916667D01*
X165366666Y-91983333D01*
X165266666Y-92016667D01*
X165100000Y-92016667D01*
X144800000Y-91416667D02*
X145233333Y-91416667D01*
X145000000Y-91683333D01*
X145100000Y-91683333D01*
X145166667Y-91716667D01*
X145200000Y-91750000D01*
X145233333Y-91816667D01*
X145233333Y-91983333D01*
X145200000Y-92050000D01*
X145166667Y-92083333D01*
X145100000Y-92116667D01*
X144900000Y-92116667D01*
X144833333Y-92083333D01*
X144800000Y-92050000D01*
X145533334Y-92050000D02*
X145566667Y-92083333D01*
X145533334Y-92116667D01*
X145500000Y-92083333D01*
X145533334Y-92050000D01*
X145533334Y-92116667D01*
X145800000Y-91416667D02*
X146233333Y-91416667D01*
X146000000Y-91683333D01*
X146100000Y-91683333D01*
X146166667Y-91716667D01*
X146200000Y-91750000D01*
X146233333Y-91816667D01*
X146233333Y-91983333D01*
X146200000Y-92050000D01*
X146166667Y-92083333D01*
X146100000Y-92116667D01*
X145900000Y-92116667D01*
X145833333Y-92083333D01*
X145800000Y-92050000D01*
X146433334Y-91416667D02*
X146666667Y-92116667D01*
X146900000Y-91416667D01*
X132866667Y-90916667D02*
X132866667Y-90216667D01*
X133100000Y-90716667D01*
X133333333Y-90216667D01*
X133333333Y-90916667D01*
X134066667Y-90916667D02*
X133833333Y-90583333D01*
X133666667Y-90916667D02*
X133666667Y-90216667D01*
X133933333Y-90216667D01*
X134000000Y-90250000D01*
X134033333Y-90283333D01*
X134066667Y-90350000D01*
X134066667Y-90450000D01*
X134033333Y-90516667D01*
X134000000Y-90550000D01*
X133933333Y-90583333D01*
X133666667Y-90583333D01*
X134366667Y-90550000D02*
X134600000Y-90550000D01*
X134700000Y-90916667D02*
X134366667Y-90916667D01*
X134366667Y-90216667D01*
X134700000Y-90216667D01*
X134966666Y-90883333D02*
X135066666Y-90916667D01*
X135233333Y-90916667D01*
X135300000Y-90883333D01*
X135333333Y-90850000D01*
X135366666Y-90783333D01*
X135366666Y-90716667D01*
X135333333Y-90650000D01*
X135300000Y-90616667D01*
X135233333Y-90583333D01*
X135100000Y-90550000D01*
X135033333Y-90516667D01*
X135000000Y-90483333D01*
X134966666Y-90416667D01*
X134966666Y-90350000D01*
X135000000Y-90283333D01*
X135033333Y-90250000D01*
X135100000Y-90216667D01*
X135266666Y-90216667D01*
X135366666Y-90250000D01*
X135666667Y-90550000D02*
X135900000Y-90550000D01*
X136000000Y-90916667D02*
X135666667Y-90916667D01*
X135666667Y-90216667D01*
X136000000Y-90216667D01*
X136200000Y-90216667D02*
X136600000Y-90216667D01*
X136400000Y-90916667D02*
X136400000Y-90216667D01*
X132700000Y-90096000D02*
X136666666Y-90096000D01*
X126966667Y-90750000D02*
X126933333Y-90783333D01*
X126833333Y-90816667D01*
X126766667Y-90816667D01*
X126666667Y-90783333D01*
X126600000Y-90716667D01*
X126566667Y-90650000D01*
X126533333Y-90516667D01*
X126533333Y-90416667D01*
X126566667Y-90283333D01*
X126600000Y-90216667D01*
X126666667Y-90150000D01*
X126766667Y-90116667D01*
X126833333Y-90116667D01*
X126933333Y-90150000D01*
X126966667Y-90183333D01*
X127233333Y-90183333D02*
X127266667Y-90150000D01*
X127333333Y-90116667D01*
X127500000Y-90116667D01*
X127566667Y-90150000D01*
X127600000Y-90183333D01*
X127633333Y-90250000D01*
X127633333Y-90316667D01*
X127600000Y-90416667D01*
X127200000Y-90816667D01*
X127633333Y-90816667D01*
X127933334Y-90816667D02*
X127933334Y-90116667D01*
X128100000Y-90116667D01*
X128200000Y-90150000D01*
X128266667Y-90216667D01*
X128300000Y-90283333D01*
X128333334Y-90416667D01*
X128333334Y-90516667D01*
X128300000Y-90650000D01*
X128266667Y-90716667D01*
X128200000Y-90783333D01*
X128100000Y-90816667D01*
X127933334Y-90816667D01*
D11*
X169761905Y-85728571D02*
X169904762Y-85776190D01*
X169952381Y-85823810D01*
X170000000Y-85919048D01*
X170000000Y-86061905D01*
X169952381Y-86157143D01*
X169904762Y-86204762D01*
X169809524Y-86252381D01*
X169428571Y-86252381D01*
X169428571Y-85252381D01*
X169761905Y-85252381D01*
X169857143Y-85300000D01*
X169904762Y-85347619D01*
X169952381Y-85442857D01*
X169952381Y-85538095D01*
X169904762Y-85633333D01*
X169857143Y-85680952D01*
X169761905Y-85728571D01*
X169428571Y-85728571D01*
X170619047Y-85252381D02*
X170809524Y-85252381D01*
X170904762Y-85300000D01*
X171000000Y-85395238D01*
X171047619Y-85585714D01*
X171047619Y-85919048D01*
X171000000Y-86109524D01*
X170904762Y-86204762D01*
X170809524Y-86252381D01*
X170619047Y-86252381D01*
X170523809Y-86204762D01*
X170428571Y-86109524D01*
X170380952Y-85919048D01*
X170380952Y-85585714D01*
X170428571Y-85395238D01*
X170523809Y-85300000D01*
X170619047Y-85252381D01*
X171476190Y-85252381D02*
X171476190Y-86061905D01*
X171523809Y-86157143D01*
X171571428Y-86204762D01*
X171666666Y-86252381D01*
X171857143Y-86252381D01*
X171952381Y-86204762D01*
X172000000Y-86157143D01*
X172047619Y-86061905D01*
X172047619Y-85252381D01*
X172380952Y-85252381D02*
X172952381Y-85252381D01*
X172666666Y-86252381D02*
X172666666Y-85252381D01*
X173809524Y-86252381D02*
X173238095Y-86252381D01*
X173523809Y-86252381D02*
X173523809Y-85252381D01*
X173428571Y-85395238D01*
X173333333Y-85490476D01*
X173238095Y-85538095D01*
X169761905Y-83228571D02*
X169904762Y-83276190D01*
X169952381Y-83323810D01*
X170000000Y-83419048D01*
X170000000Y-83561905D01*
X169952381Y-83657143D01*
X169904762Y-83704762D01*
X169809524Y-83752381D01*
X169428571Y-83752381D01*
X169428571Y-82752381D01*
X169761905Y-82752381D01*
X169857143Y-82800000D01*
X169904762Y-82847619D01*
X169952381Y-82942857D01*
X169952381Y-83038095D01*
X169904762Y-83133333D01*
X169857143Y-83180952D01*
X169761905Y-83228571D01*
X169428571Y-83228571D01*
X170619047Y-82752381D02*
X170809524Y-82752381D01*
X170904762Y-82800000D01*
X171000000Y-82895238D01*
X171047619Y-83085714D01*
X171047619Y-83419048D01*
X171000000Y-83609524D01*
X170904762Y-83704762D01*
X170809524Y-83752381D01*
X170619047Y-83752381D01*
X170523809Y-83704762D01*
X170428571Y-83609524D01*
X170380952Y-83419048D01*
X170380952Y-83085714D01*
X170428571Y-82895238D01*
X170523809Y-82800000D01*
X170619047Y-82752381D01*
X171476190Y-82752381D02*
X171476190Y-83561905D01*
X171523809Y-83657143D01*
X171571428Y-83704762D01*
X171666666Y-83752381D01*
X171857143Y-83752381D01*
X171952381Y-83704762D01*
X172000000Y-83657143D01*
X172047619Y-83561905D01*
X172047619Y-82752381D01*
X172380952Y-82752381D02*
X172952381Y-82752381D01*
X172666666Y-83752381D02*
X172666666Y-82752381D01*
X173238095Y-82847619D02*
X173285714Y-82800000D01*
X173380952Y-82752381D01*
X173619048Y-82752381D01*
X173714286Y-82800000D01*
X173761905Y-82847619D01*
X173809524Y-82942857D01*
X173809524Y-83038095D01*
X173761905Y-83180952D01*
X173190476Y-83752381D01*
X173809524Y-83752381D01*
X169523809Y-80866667D02*
X170000000Y-80866667D01*
X169428571Y-81152381D02*
X169761904Y-80152381D01*
X170095238Y-81152381D01*
X170619047Y-80152381D02*
X170809524Y-80152381D01*
X170904762Y-80200000D01*
X171000000Y-80295238D01*
X171047619Y-80485714D01*
X171047619Y-80819048D01*
X171000000Y-81009524D01*
X170904762Y-81104762D01*
X170809524Y-81152381D01*
X170619047Y-81152381D01*
X170523809Y-81104762D01*
X170428571Y-81009524D01*
X170380952Y-80819048D01*
X170380952Y-80485714D01*
X170428571Y-80295238D01*
X170523809Y-80200000D01*
X170619047Y-80152381D01*
X171476190Y-80152381D02*
X171476190Y-80961905D01*
X171523809Y-81057143D01*
X171571428Y-81104762D01*
X171666666Y-81152381D01*
X171857143Y-81152381D01*
X171952381Y-81104762D01*
X172000000Y-81057143D01*
X172047619Y-80961905D01*
X172047619Y-80152381D01*
X172380952Y-80152381D02*
X172952381Y-80152381D01*
X172666666Y-81152381D02*
X172666666Y-80152381D01*
X173238095Y-80247619D02*
X173285714Y-80200000D01*
X173380952Y-80152381D01*
X173619048Y-80152381D01*
X173714286Y-80200000D01*
X173761905Y-80247619D01*
X173809524Y-80342857D01*
X173809524Y-80438095D01*
X173761905Y-80580952D01*
X173190476Y-81152381D01*
X173809524Y-81152381D01*
X169523809Y-78366667D02*
X170000000Y-78366667D01*
X169428571Y-78652381D02*
X169761904Y-77652381D01*
X170095238Y-78652381D01*
X170619047Y-77652381D02*
X170809524Y-77652381D01*
X170904762Y-77700000D01*
X171000000Y-77795238D01*
X171047619Y-77985714D01*
X171047619Y-78319048D01*
X171000000Y-78509524D01*
X170904762Y-78604762D01*
X170809524Y-78652381D01*
X170619047Y-78652381D01*
X170523809Y-78604762D01*
X170428571Y-78509524D01*
X170380952Y-78319048D01*
X170380952Y-77985714D01*
X170428571Y-77795238D01*
X170523809Y-77700000D01*
X170619047Y-77652381D01*
X171476190Y-77652381D02*
X171476190Y-78461905D01*
X171523809Y-78557143D01*
X171571428Y-78604762D01*
X171666666Y-78652381D01*
X171857143Y-78652381D01*
X171952381Y-78604762D01*
X172000000Y-78557143D01*
X172047619Y-78461905D01*
X172047619Y-77652381D01*
X172380952Y-77652381D02*
X172952381Y-77652381D01*
X172666666Y-78652381D02*
X172666666Y-77652381D01*
X173809524Y-78652381D02*
X173238095Y-78652381D01*
X173523809Y-78652381D02*
X173523809Y-77652381D01*
X173428571Y-77795238D01*
X173333333Y-77890476D01*
X173238095Y-77938095D01*
D12*
X158766667Y-71416667D02*
X158533333Y-71083333D01*
X158366667Y-71416667D02*
X158366667Y-70716667D01*
X158633333Y-70716667D01*
X158700000Y-70750000D01*
X158733333Y-70783333D01*
X158766667Y-70850000D01*
X158766667Y-70950000D01*
X158733333Y-71016667D01*
X158700000Y-71050000D01*
X158633333Y-71083333D01*
X158366667Y-71083333D01*
X159433333Y-71416667D02*
X159033333Y-71416667D01*
X159233333Y-71416667D02*
X159233333Y-70716667D01*
X159166667Y-70816667D01*
X159100000Y-70883333D01*
X159033333Y-70916667D01*
X159866667Y-70716667D02*
X159933334Y-70716667D01*
X160000000Y-70750000D01*
X160033334Y-70783333D01*
X160066667Y-70850000D01*
X160100000Y-70983333D01*
X160100000Y-71150000D01*
X160066667Y-71283333D01*
X160033334Y-71350000D01*
X160000000Y-71383333D01*
X159933334Y-71416667D01*
X159866667Y-71416667D01*
X159800000Y-71383333D01*
X159766667Y-71350000D01*
X159733334Y-71283333D01*
X159700000Y-71150000D01*
X159700000Y-70983333D01*
X159733334Y-70850000D01*
X159766667Y-70783333D01*
X159800000Y-70750000D01*
X159866667Y-70716667D01*
X160533334Y-70716667D02*
X160600001Y-70716667D01*
X160666667Y-70750000D01*
X160700001Y-70783333D01*
X160733334Y-70850000D01*
X160766667Y-70983333D01*
X160766667Y-71150000D01*
X160733334Y-71283333D01*
X160700001Y-71350000D01*
X160666667Y-71383333D01*
X160600001Y-71416667D01*
X160533334Y-71416667D01*
X160466667Y-71383333D01*
X160433334Y-71350000D01*
X160400001Y-71283333D01*
X160366667Y-71150000D01*
X160366667Y-70983333D01*
X160400001Y-70850000D01*
X160433334Y-70783333D01*
X160466667Y-70750000D01*
X160533334Y-70716667D01*
X161433334Y-71416667D02*
X161033334Y-71416667D01*
X161233334Y-71416667D02*
X161233334Y-70716667D01*
X161166668Y-70816667D01*
X161100001Y-70883333D01*
X161033334Y-70916667D01*
X162200001Y-70950000D02*
X162366668Y-71416667D01*
X162533334Y-70950000D01*
X163166667Y-71416667D02*
X162766667Y-71416667D01*
X162966667Y-71416667D02*
X162966667Y-70716667D01*
X162900001Y-70816667D01*
X162833334Y-70883333D01*
X162766667Y-70916667D01*
X163466668Y-71350000D02*
X163500001Y-71383333D01*
X163466668Y-71416667D01*
X163433334Y-71383333D01*
X163466668Y-71350000D01*
X163466668Y-71416667D01*
X164166667Y-71416667D02*
X163766667Y-71416667D01*
X163966667Y-71416667D02*
X163966667Y-70716667D01*
X163900001Y-70816667D01*
X163833334Y-70883333D01*
X163766667Y-70916667D01*
X164466668Y-71350000D02*
X164500001Y-71383333D01*
X164466668Y-71416667D01*
X164433334Y-71383333D01*
X164466668Y-71350000D01*
X164466668Y-71416667D01*
X164766667Y-70783333D02*
X164800001Y-70750000D01*
X164866667Y-70716667D01*
X165033334Y-70716667D01*
X165100001Y-70750000D01*
X165133334Y-70783333D01*
X165166667Y-70850000D01*
X165166667Y-70916667D01*
X165133334Y-71016667D01*
X164733334Y-71416667D01*
X165166667Y-71416667D01*
X158333333Y-72583333D02*
X158433333Y-72616667D01*
X158600000Y-72616667D01*
X158666667Y-72583333D01*
X158700000Y-72550000D01*
X158733333Y-72483333D01*
X158733333Y-72416667D01*
X158700000Y-72350000D01*
X158666667Y-72316667D01*
X158600000Y-72283333D01*
X158466667Y-72250000D01*
X158400000Y-72216667D01*
X158366667Y-72183333D01*
X158333333Y-72116667D01*
X158333333Y-72050000D01*
X158366667Y-71983333D01*
X158400000Y-71950000D01*
X158466667Y-71916667D01*
X158633333Y-71916667D01*
X158733333Y-71950000D01*
X158933334Y-72150000D02*
X159200000Y-72150000D01*
X159033334Y-71916667D02*
X159033334Y-72516667D01*
X159066667Y-72583333D01*
X159133334Y-72616667D01*
X159200000Y-72616667D01*
X159700000Y-72583333D02*
X159633334Y-72616667D01*
X159500000Y-72616667D01*
X159433334Y-72583333D01*
X159400000Y-72516667D01*
X159400000Y-72250000D01*
X159433334Y-72183333D01*
X159500000Y-72150000D01*
X159633334Y-72150000D01*
X159700000Y-72183333D01*
X159733334Y-72250000D01*
X159733334Y-72316667D01*
X159400000Y-72383333D01*
X160033334Y-72150000D02*
X160033334Y-72850000D01*
X160033334Y-72183333D02*
X160100000Y-72150000D01*
X160233334Y-72150000D01*
X160300000Y-72183333D01*
X160333334Y-72216667D01*
X160366667Y-72283333D01*
X160366667Y-72483333D01*
X160333334Y-72550000D01*
X160300000Y-72583333D01*
X160233334Y-72616667D01*
X160100000Y-72616667D01*
X160033334Y-72583333D01*
X160666667Y-72150000D02*
X160666667Y-72850000D01*
X160666667Y-72183333D02*
X160733333Y-72150000D01*
X160866667Y-72150000D01*
X160933333Y-72183333D01*
X160966667Y-72216667D01*
X161000000Y-72283333D01*
X161000000Y-72483333D01*
X160966667Y-72550000D01*
X160933333Y-72583333D01*
X160866667Y-72616667D01*
X160733333Y-72616667D01*
X160666667Y-72583333D01*
X161566666Y-72583333D02*
X161500000Y-72616667D01*
X161366666Y-72616667D01*
X161300000Y-72583333D01*
X161266666Y-72516667D01*
X161266666Y-72250000D01*
X161300000Y-72183333D01*
X161366666Y-72150000D01*
X161500000Y-72150000D01*
X161566666Y-72183333D01*
X161600000Y-72250000D01*
X161600000Y-72316667D01*
X161266666Y-72383333D01*
X161900000Y-72616667D02*
X161900000Y-72150000D01*
X161900000Y-72283333D02*
X161933333Y-72216667D01*
X161966666Y-72183333D01*
X162033333Y-72150000D01*
X162100000Y-72150000D01*
X162866666Y-72616667D02*
X162866666Y-71916667D01*
X163099999Y-72416667D01*
X163333332Y-71916667D01*
X163333332Y-72616667D01*
X163766666Y-72616667D02*
X163699999Y-72583333D01*
X163666666Y-72550000D01*
X163633332Y-72483333D01*
X163633332Y-72283333D01*
X163666666Y-72216667D01*
X163699999Y-72183333D01*
X163766666Y-72150000D01*
X163866666Y-72150000D01*
X163933332Y-72183333D01*
X163966666Y-72216667D01*
X163999999Y-72283333D01*
X163999999Y-72483333D01*
X163966666Y-72550000D01*
X163933332Y-72583333D01*
X163866666Y-72616667D01*
X163766666Y-72616667D01*
X164199999Y-72150000D02*
X164466665Y-72150000D01*
X164299999Y-71916667D02*
X164299999Y-72516667D01*
X164333332Y-72583333D01*
X164399999Y-72616667D01*
X164466665Y-72616667D01*
X164799999Y-72616667D02*
X164733332Y-72583333D01*
X164699999Y-72550000D01*
X164666665Y-72483333D01*
X164666665Y-72283333D01*
X164699999Y-72216667D01*
X164733332Y-72183333D01*
X164799999Y-72150000D01*
X164899999Y-72150000D01*
X164966665Y-72183333D01*
X164999999Y-72216667D01*
X165033332Y-72283333D01*
X165033332Y-72483333D01*
X164999999Y-72550000D01*
X164966665Y-72583333D01*
X164899999Y-72616667D01*
X164799999Y-72616667D01*
X165333332Y-72616667D02*
X165333332Y-72150000D01*
X165333332Y-72283333D02*
X165366665Y-72216667D01*
X165399998Y-72183333D01*
X165466665Y-72150000D01*
X165533332Y-72150000D01*
X166299998Y-72616667D02*
X166299998Y-71916667D01*
X166466664Y-71916667D01*
X166566664Y-71950000D01*
X166633331Y-72016667D01*
X166666664Y-72083333D01*
X166699998Y-72216667D01*
X166699998Y-72316667D01*
X166666664Y-72450000D01*
X166633331Y-72516667D01*
X166566664Y-72583333D01*
X166466664Y-72616667D01*
X166299998Y-72616667D01*
X166999998Y-72616667D02*
X166999998Y-72150000D01*
X166999998Y-72283333D02*
X167033331Y-72216667D01*
X167066664Y-72183333D01*
X167133331Y-72150000D01*
X167199998Y-72150000D01*
X167433331Y-72616667D02*
X167433331Y-72150000D01*
X167433331Y-71916667D02*
X167399997Y-71950000D01*
X167433331Y-71983333D01*
X167466664Y-71950000D01*
X167433331Y-71916667D01*
X167433331Y-71983333D01*
X167699997Y-72150000D02*
X167866664Y-72616667D01*
X168033330Y-72150000D01*
X168566663Y-72583333D02*
X168499997Y-72616667D01*
X168366663Y-72616667D01*
X168299997Y-72583333D01*
X168266663Y-72516667D01*
X168266663Y-72250000D01*
X168299997Y-72183333D01*
X168366663Y-72150000D01*
X168499997Y-72150000D01*
X168566663Y-72183333D01*
X168599997Y-72250000D01*
X168599997Y-72316667D01*
X168266663Y-72383333D01*
X168899997Y-72616667D02*
X168899997Y-72150000D01*
X168899997Y-72283333D02*
X168933330Y-72216667D01*
X168966663Y-72183333D01*
X169033330Y-72150000D01*
X169099997Y-72150000D01*
X158366667Y-73816667D02*
X158366667Y-73116667D01*
X158666667Y-73816667D02*
X158666667Y-73450000D01*
X158633333Y-73383333D01*
X158566667Y-73350000D01*
X158466667Y-73350000D01*
X158400000Y-73383333D01*
X158366667Y-73416667D01*
X158900000Y-73350000D02*
X159166666Y-73350000D01*
X159000000Y-73116667D02*
X159000000Y-73716667D01*
X159033333Y-73783333D01*
X159100000Y-73816667D01*
X159166666Y-73816667D01*
X159300000Y-73350000D02*
X159566666Y-73350000D01*
X159400000Y-73116667D02*
X159400000Y-73716667D01*
X159433333Y-73783333D01*
X159500000Y-73816667D01*
X159566666Y-73816667D01*
X159800000Y-73350000D02*
X159800000Y-74050000D01*
X159800000Y-73383333D02*
X159866666Y-73350000D01*
X160000000Y-73350000D01*
X160066666Y-73383333D01*
X160100000Y-73416667D01*
X160133333Y-73483333D01*
X160133333Y-73683333D01*
X160100000Y-73750000D01*
X160066666Y-73783333D01*
X160000000Y-73816667D01*
X159866666Y-73816667D01*
X159800000Y-73783333D01*
X160433333Y-73750000D02*
X160466666Y-73783333D01*
X160433333Y-73816667D01*
X160399999Y-73783333D01*
X160433333Y-73750000D01*
X160433333Y-73816667D01*
X160433333Y-73383333D02*
X160466666Y-73416667D01*
X160433333Y-73450000D01*
X160399999Y-73416667D01*
X160433333Y-73383333D01*
X160433333Y-73450000D01*
X161266666Y-73083333D02*
X160666666Y-73983333D01*
X161999999Y-73083333D02*
X161399999Y-73983333D01*
X162233332Y-73350000D02*
X162233332Y-74050000D01*
X162233332Y-73383333D02*
X162299998Y-73350000D01*
X162433332Y-73350000D01*
X162499998Y-73383333D01*
X162533332Y-73416667D01*
X162566665Y-73483333D01*
X162566665Y-73683333D01*
X162533332Y-73750000D01*
X162499998Y-73783333D01*
X162433332Y-73816667D01*
X162299998Y-73816667D01*
X162233332Y-73783333D01*
X162966665Y-73816667D02*
X162899998Y-73783333D01*
X162866665Y-73716667D01*
X162866665Y-73116667D01*
X163533332Y-73350000D02*
X163533332Y-73816667D01*
X163233332Y-73350000D02*
X163233332Y-73716667D01*
X163266665Y-73783333D01*
X163333332Y-73816667D01*
X163433332Y-73816667D01*
X163499998Y-73783333D01*
X163533332Y-73750000D01*
X164166665Y-73350000D02*
X164166665Y-73916667D01*
X164133331Y-73983333D01*
X164099998Y-74016667D01*
X164033331Y-74050000D01*
X163933331Y-74050000D01*
X163866665Y-74016667D01*
X164166665Y-73783333D02*
X164099998Y-73816667D01*
X163966665Y-73816667D01*
X163899998Y-73783333D01*
X163866665Y-73750000D01*
X163833331Y-73683333D01*
X163833331Y-73483333D01*
X163866665Y-73416667D01*
X163899998Y-73383333D01*
X163966665Y-73350000D01*
X164099998Y-73350000D01*
X164166665Y-73383333D01*
X164799998Y-73350000D02*
X164799998Y-73916667D01*
X164766664Y-73983333D01*
X164733331Y-74016667D01*
X164666664Y-74050000D01*
X164566664Y-74050000D01*
X164499998Y-74016667D01*
X164799998Y-73783333D02*
X164733331Y-73816667D01*
X164599998Y-73816667D01*
X164533331Y-73783333D01*
X164499998Y-73750000D01*
X164466664Y-73683333D01*
X164466664Y-73483333D01*
X164499998Y-73416667D01*
X164533331Y-73383333D01*
X164599998Y-73350000D01*
X164733331Y-73350000D01*
X164799998Y-73383333D01*
X165133331Y-73750000D02*
X165166664Y-73783333D01*
X165133331Y-73816667D01*
X165099997Y-73783333D01*
X165133331Y-73750000D01*
X165133331Y-73816667D01*
X165733330Y-73783333D02*
X165666664Y-73816667D01*
X165533330Y-73816667D01*
X165466664Y-73783333D01*
X165433330Y-73716667D01*
X165433330Y-73450000D01*
X165466664Y-73383333D01*
X165533330Y-73350000D01*
X165666664Y-73350000D01*
X165733330Y-73383333D01*
X165766664Y-73450000D01*
X165766664Y-73516667D01*
X165433330Y-73583333D01*
X166333330Y-73783333D02*
X166266664Y-73816667D01*
X166133330Y-73816667D01*
X166066664Y-73783333D01*
X166033330Y-73716667D01*
X166033330Y-73450000D01*
X166066664Y-73383333D01*
X166133330Y-73350000D01*
X166266664Y-73350000D01*
X166333330Y-73383333D01*
X166366664Y-73450000D01*
X166366664Y-73516667D01*
X166033330Y-73583333D01*
X158366667Y-74550000D02*
X158366667Y-75250000D01*
X158366667Y-74583333D02*
X158433333Y-74550000D01*
X158566667Y-74550000D01*
X158633333Y-74583333D01*
X158666667Y-74616667D01*
X158700000Y-74683333D01*
X158700000Y-74883333D01*
X158666667Y-74950000D01*
X158633333Y-74983333D01*
X158566667Y-75016667D01*
X158433333Y-75016667D01*
X158366667Y-74983333D01*
X159100000Y-75016667D02*
X159033333Y-74983333D01*
X159000000Y-74916667D01*
X159000000Y-74316667D01*
X159666667Y-74550000D02*
X159666667Y-75016667D01*
X159366667Y-74550000D02*
X159366667Y-74916667D01*
X159400000Y-74983333D01*
X159466667Y-75016667D01*
X159566667Y-75016667D01*
X159633333Y-74983333D01*
X159666667Y-74950000D01*
X160300000Y-74550000D02*
X160300000Y-75116667D01*
X160266666Y-75183333D01*
X160233333Y-75216667D01*
X160166666Y-75250000D01*
X160066666Y-75250000D01*
X160000000Y-75216667D01*
X160300000Y-74983333D02*
X160233333Y-75016667D01*
X160100000Y-75016667D01*
X160033333Y-74983333D01*
X160000000Y-74950000D01*
X159966666Y-74883333D01*
X159966666Y-74683333D01*
X160000000Y-74616667D01*
X160033333Y-74583333D01*
X160100000Y-74550000D01*
X160233333Y-74550000D01*
X160300000Y-74583333D01*
X160933333Y-74550000D02*
X160933333Y-75116667D01*
X160899999Y-75183333D01*
X160866666Y-75216667D01*
X160799999Y-75250000D01*
X160699999Y-75250000D01*
X160633333Y-75216667D01*
X160933333Y-74983333D02*
X160866666Y-75016667D01*
X160733333Y-75016667D01*
X160666666Y-74983333D01*
X160633333Y-74950000D01*
X160599999Y-74883333D01*
X160599999Y-74683333D01*
X160633333Y-74616667D01*
X160666666Y-74583333D01*
X160733333Y-74550000D01*
X160866666Y-74550000D01*
X160933333Y-74583333D01*
X161266666Y-74950000D02*
X161299999Y-74983333D01*
X161266666Y-75016667D01*
X161233332Y-74983333D01*
X161266666Y-74950000D01*
X161266666Y-75016667D01*
X161866665Y-74983333D02*
X161799999Y-75016667D01*
X161666665Y-75016667D01*
X161599999Y-74983333D01*
X161566665Y-74916667D01*
X161566665Y-74650000D01*
X161599999Y-74583333D01*
X161666665Y-74550000D01*
X161799999Y-74550000D01*
X161866665Y-74583333D01*
X161899999Y-74650000D01*
X161899999Y-74716667D01*
X161566665Y-74783333D01*
X162466665Y-74983333D02*
X162399999Y-75016667D01*
X162266665Y-75016667D01*
X162199999Y-74983333D01*
X162166665Y-74916667D01*
X162166665Y-74650000D01*
X162199999Y-74583333D01*
X162266665Y-74550000D01*
X162399999Y-74550000D01*
X162466665Y-74583333D01*
X162499999Y-74650000D01*
X162499999Y-74716667D01*
X162166665Y-74783333D01*
X163666665Y-75016667D02*
X163333332Y-75016667D01*
X163333332Y-74316667D01*
X164199999Y-75016667D02*
X164199999Y-74650000D01*
X164166665Y-74583333D01*
X164099999Y-74550000D01*
X163966665Y-74550000D01*
X163899999Y-74583333D01*
X164199999Y-74983333D02*
X164133332Y-75016667D01*
X163966665Y-75016667D01*
X163899999Y-74983333D01*
X163866665Y-74916667D01*
X163866665Y-74850000D01*
X163899999Y-74783333D01*
X163966665Y-74750000D01*
X164133332Y-74750000D01*
X164199999Y-74716667D01*
X164533332Y-75016667D02*
X164533332Y-74316667D01*
X164533332Y-74583333D02*
X164599998Y-74550000D01*
X164733332Y-74550000D01*
X164799998Y-74583333D01*
X164833332Y-74616667D01*
X164866665Y-74683333D01*
X164866665Y-74883333D01*
X164833332Y-74950000D01*
X164799998Y-74983333D01*
X164733332Y-75016667D01*
X164599998Y-75016667D01*
X164533332Y-74983333D01*
X165133331Y-74983333D02*
X165199998Y-75016667D01*
X165333331Y-75016667D01*
X165399998Y-74983333D01*
X165433331Y-74916667D01*
X165433331Y-74883333D01*
X165399998Y-74816667D01*
X165333331Y-74783333D01*
X165233331Y-74783333D01*
X165166665Y-74750000D01*
X165133331Y-74683333D01*
X165133331Y-74650000D01*
X165166665Y-74583333D01*
X165233331Y-74550000D01*
X165333331Y-74550000D01*
X165399998Y-74583333D01*
X166599998Y-75016667D02*
X166266665Y-75016667D01*
X166266665Y-74316667D01*
X167166665Y-75016667D02*
X166833332Y-75016667D01*
X166833332Y-74316667D01*
X167799999Y-74950000D02*
X167766665Y-74983333D01*
X167666665Y-75016667D01*
X167599999Y-75016667D01*
X167499999Y-74983333D01*
X167433332Y-74916667D01*
X167399999Y-74850000D01*
X167366665Y-74716667D01*
X167366665Y-74616667D01*
X167399999Y-74483333D01*
X167433332Y-74416667D01*
X167499999Y-74350000D01*
X167599999Y-74316667D01*
X167666665Y-74316667D01*
X167766665Y-74350000D01*
X167799999Y-74383333D01*
X168133332Y-74983333D02*
X168133332Y-75016667D01*
X168099999Y-75083333D01*
X168066665Y-75116667D01*
X168933331Y-74383333D02*
X168966665Y-74350000D01*
X169033331Y-74316667D01*
X169199998Y-74316667D01*
X169266665Y-74350000D01*
X169299998Y-74383333D01*
X169333331Y-74450000D01*
X169333331Y-74516667D01*
X169299998Y-74616667D01*
X168899998Y-75016667D01*
X169333331Y-75016667D01*
X169766665Y-74316667D02*
X169833332Y-74316667D01*
X169899998Y-74350000D01*
X169933332Y-74383333D01*
X169966665Y-74450000D01*
X169999998Y-74583333D01*
X169999998Y-74750000D01*
X169966665Y-74883333D01*
X169933332Y-74950000D01*
X169899998Y-74983333D01*
X169833332Y-75016667D01*
X169766665Y-75016667D01*
X169699998Y-74983333D01*
X169666665Y-74950000D01*
X169633332Y-74883333D01*
X169599998Y-74750000D01*
X169599998Y-74583333D01*
X169633332Y-74450000D01*
X169666665Y-74383333D01*
X169699998Y-74350000D01*
X169766665Y-74316667D01*
X170666665Y-75016667D02*
X170266665Y-75016667D01*
X170466665Y-75016667D02*
X170466665Y-74316667D01*
X170399999Y-74416667D01*
X170333332Y-74483333D01*
X170266665Y-74516667D01*
X170899999Y-74316667D02*
X171366666Y-74316667D01*
X171066666Y-75016667D01*
X158333333Y-76183333D02*
X158433333Y-76216667D01*
X158600000Y-76216667D01*
X158666667Y-76183333D01*
X158700000Y-76150000D01*
X158733333Y-76083333D01*
X158733333Y-76016667D01*
X158700000Y-75950000D01*
X158666667Y-75916667D01*
X158600000Y-75883333D01*
X158466667Y-75850000D01*
X158400000Y-75816667D01*
X158366667Y-75783333D01*
X158333333Y-75716667D01*
X158333333Y-75650000D01*
X158366667Y-75583333D01*
X158400000Y-75550000D01*
X158466667Y-75516667D01*
X158633333Y-75516667D01*
X158733333Y-75550000D01*
X159333334Y-76216667D02*
X159333334Y-75850000D01*
X159300000Y-75783333D01*
X159233334Y-75750000D01*
X159100000Y-75750000D01*
X159033334Y-75783333D01*
X159333334Y-76183333D02*
X159266667Y-76216667D01*
X159100000Y-76216667D01*
X159033334Y-76183333D01*
X159000000Y-76116667D01*
X159000000Y-76050000D01*
X159033334Y-75983333D01*
X159100000Y-75950000D01*
X159266667Y-75950000D01*
X159333334Y-75916667D01*
X159666667Y-75750000D02*
X159666667Y-76216667D01*
X159666667Y-75816667D02*
X159700000Y-75783333D01*
X159766667Y-75750000D01*
X159866667Y-75750000D01*
X159933333Y-75783333D01*
X159966667Y-75850000D01*
X159966667Y-76216667D01*
X161033333Y-75516667D02*
X161033333Y-76016667D01*
X160999999Y-76116667D01*
X160933333Y-76183333D01*
X160833333Y-76216667D01*
X160766666Y-76216667D01*
X161466666Y-76216667D02*
X161399999Y-76183333D01*
X161366666Y-76150000D01*
X161333332Y-76083333D01*
X161333332Y-75883333D01*
X161366666Y-75816667D01*
X161399999Y-75783333D01*
X161466666Y-75750000D01*
X161566666Y-75750000D01*
X161633332Y-75783333D01*
X161666666Y-75816667D01*
X161699999Y-75883333D01*
X161699999Y-76083333D01*
X161666666Y-76150000D01*
X161633332Y-76183333D01*
X161566666Y-76216667D01*
X161466666Y-76216667D01*
X161966665Y-76183333D02*
X162033332Y-76216667D01*
X162166665Y-76216667D01*
X162233332Y-76183333D01*
X162266665Y-76116667D01*
X162266665Y-76083333D01*
X162233332Y-76016667D01*
X162166665Y-75983333D01*
X162066665Y-75983333D01*
X161999999Y-75950000D01*
X161966665Y-75883333D01*
X161966665Y-75850000D01*
X161999999Y-75783333D01*
X162066665Y-75750000D01*
X162166665Y-75750000D01*
X162233332Y-75783333D01*
X162833332Y-76183333D02*
X162766666Y-76216667D01*
X162633332Y-76216667D01*
X162566666Y-76183333D01*
X162533332Y-76116667D01*
X162533332Y-75850000D01*
X162566666Y-75783333D01*
X162633332Y-75750000D01*
X162766666Y-75750000D01*
X162833332Y-75783333D01*
X162866666Y-75850000D01*
X162866666Y-75916667D01*
X162533332Y-75983333D01*
X163199999Y-76183333D02*
X163199999Y-76216667D01*
X163166666Y-76283333D01*
X163133332Y-76316667D01*
X164433332Y-76150000D02*
X164399998Y-76183333D01*
X164299998Y-76216667D01*
X164233332Y-76216667D01*
X164133332Y-76183333D01*
X164066665Y-76116667D01*
X164033332Y-76050000D01*
X163999998Y-75916667D01*
X163999998Y-75816667D01*
X164033332Y-75683333D01*
X164066665Y-75616667D01*
X164133332Y-75550000D01*
X164233332Y-75516667D01*
X164299998Y-75516667D01*
X164399998Y-75550000D01*
X164433332Y-75583333D01*
X164699998Y-76016667D02*
X165033332Y-76016667D01*
X164633332Y-76216667D02*
X164866665Y-75516667D01*
X165099998Y-76216667D01*
X165366665Y-76183333D02*
X165366665Y-76216667D01*
X165333332Y-76283333D01*
X165299998Y-76316667D01*
X166199998Y-75516667D02*
X166199998Y-76083333D01*
X166233331Y-76150000D01*
X166266664Y-76183333D01*
X166333331Y-76216667D01*
X166466664Y-76216667D01*
X166533331Y-76183333D01*
X166566664Y-76150000D01*
X166599998Y-76083333D01*
X166599998Y-75516667D01*
X166899997Y-76183333D02*
X166999997Y-76216667D01*
X167166664Y-76216667D01*
X167233331Y-76183333D01*
X167266664Y-76150000D01*
X167299997Y-76083333D01*
X167299997Y-76016667D01*
X167266664Y-75950000D01*
X167233331Y-75916667D01*
X167166664Y-75883333D01*
X167033331Y-75850000D01*
X166966664Y-75816667D01*
X166933331Y-75783333D01*
X166899997Y-75716667D01*
X166899997Y-75650000D01*
X166933331Y-75583333D01*
X166966664Y-75550000D01*
X167033331Y-75516667D01*
X167199997Y-75516667D01*
X167299997Y-75550000D01*
X167566664Y-76016667D02*
X167899998Y-76016667D01*
X167499998Y-76216667D02*
X167733331Y-75516667D01*
X167966664Y-76216667D01*
X158400000Y-88500000D02*
X158400000Y-90500000D01*
X156250000Y-90500000D02*
X156250000Y-88500000D01*
X152100000Y-88200000D02*
X152100000Y-89200000D01*
X150750000Y-89200000D02*
X150750000Y-88200000D01*
X153374760Y-88200840D02*
X153374760Y-88249100D01*
X154075800Y-90999820D02*
X153374760Y-90999820D01*
X153374760Y-90999820D02*
X153374760Y-90750900D01*
X153374760Y-88200840D02*
X153374760Y-88000180D01*
X153374760Y-88000180D02*
X154075800Y-88000180D01*
X155800000Y-78800000D02*
X155800000Y-79800000D01*
X154450000Y-79800000D02*
X154450000Y-78800000D01*
X146325000Y-89000000D02*
X146325000Y-88000000D01*
X147675000Y-88000000D02*
X147675000Y-89000000D01*
X143950000Y-80600000D02*
X143950000Y-79600000D01*
X145300000Y-79600000D02*
X145300000Y-80600000D01*
X158300000Y-78800000D02*
X158300000Y-79800000D01*
X156950000Y-79800000D02*
X156950000Y-78800000D01*
X132325000Y-72600000D02*
X132325000Y-71600000D01*
X133675000Y-71600000D02*
X133675000Y-72600000D01*
X142250000Y-80000000D02*
X142250000Y-79000000D01*
X143600000Y-79000000D02*
X143600000Y-80000000D01*
X144625000Y-76375000D02*
X143625000Y-76375000D01*
X143625000Y-75025000D02*
X144625000Y-75025000D01*
X137950000Y-92200000D02*
X137950000Y-91200000D01*
X139300000Y-91200000D02*
X139300000Y-92200000D01*
X138850000Y-78500000D02*
X138850000Y-77500000D01*
X140200000Y-77500000D02*
X140200000Y-78500000D01*
X145650000Y-79900000D02*
X145650000Y-78900000D01*
X147000000Y-78900000D02*
X147000000Y-79900000D01*
X140550000Y-79400000D02*
X140550000Y-78400000D01*
X141900000Y-78400000D02*
X141900000Y-79400000D01*
X140325000Y-87175000D02*
X139325000Y-87175000D01*
X139325000Y-85825000D02*
X140325000Y-85825000D01*
X140325000Y-88875000D02*
X139325000Y-88875000D01*
X139325000Y-87525000D02*
X140325000Y-87525000D01*
X140325000Y-85475000D02*
X139325000Y-85475000D01*
X139325000Y-84125000D02*
X140325000Y-84125000D01*
X140325000Y-83775000D02*
X139325000Y-83775000D01*
X139325000Y-82425000D02*
X140325000Y-82425000D01*
D13*
X128685555Y-77100000D02*
G75*
G03X128685555Y-77100000I-360555J0D01*
G01*
D12*
X129050000Y-77125000D02*
X129050000Y-77700000D01*
X134600000Y-77125000D02*
X134600000Y-77700000D01*
X134600000Y-83675000D02*
X134600000Y-83100000D01*
X129050000Y-83675000D02*
X129050000Y-83100000D01*
X129050000Y-77125000D02*
X134600000Y-77125000D01*
X129050000Y-83675000D02*
X134600000Y-83675000D01*
X129050000Y-77700000D02*
X127775000Y-77700000D01*
D14*
G36*
X157591667Y-71618369D02*
X157409782Y-71842434D01*
X157227898Y-72066500D01*
X154738348Y-72066500D01*
X154695386Y-71993684D01*
X154649981Y-71936049D01*
X154588125Y-71879575D01*
X154566661Y-71864114D01*
X154511011Y-71831529D01*
X154460383Y-71816244D01*
X154396029Y-71814084D01*
X154353248Y-71816592D01*
X154227768Y-71844460D01*
X154124556Y-71905768D01*
X154048379Y-71996374D01*
X154004002Y-72112136D01*
X154002077Y-72121782D01*
X153997459Y-72241908D01*
X154026859Y-72347264D01*
X154083877Y-72435267D01*
X154162112Y-72503336D01*
X154255164Y-72548889D01*
X154356631Y-72569344D01*
X154460115Y-72562120D01*
X154559214Y-72524635D01*
X154647528Y-72454307D01*
X154690088Y-72399306D01*
X154741259Y-72320500D01*
X155892546Y-72320500D01*
X156150983Y-72320678D01*
X156369845Y-72321257D01*
X156551891Y-72322300D01*
X156699876Y-72323872D01*
X156816558Y-72326037D01*
X156904695Y-72328859D01*
X156967044Y-72332402D01*
X157006362Y-72336732D01*
X157025407Y-72341911D01*
X157027759Y-72346958D01*
X157010515Y-72370273D01*
X156970580Y-72421755D01*
X156911771Y-72496565D01*
X156837905Y-72589862D01*
X156752797Y-72696808D01*
X156685634Y-72780875D01*
X156359582Y-73188333D01*
X155001833Y-73188199D01*
X153644084Y-73188066D01*
X153608280Y-73125141D01*
X153541120Y-73047050D01*
X153448373Y-72992525D01*
X153341893Y-72965373D01*
X153233533Y-72969404D01*
X153176858Y-72986529D01*
X153061699Y-73055549D01*
X152977732Y-73152838D01*
X152943204Y-73223369D01*
X152919561Y-73336833D01*
X152931803Y-73446005D01*
X152974414Y-73545165D01*
X153041877Y-73628593D01*
X153128675Y-73690571D01*
X153229292Y-73725378D01*
X153338213Y-73727295D01*
X153410818Y-73708207D01*
X153468338Y-73677515D01*
X153531628Y-73630798D01*
X153590522Y-73577377D01*
X153634854Y-73526575D01*
X153654457Y-73487713D01*
X153654667Y-73484606D01*
X153675743Y-73479891D01*
X153738617Y-73475754D01*
X153842757Y-73472204D01*
X153987633Y-73469248D01*
X154172711Y-73466894D01*
X154397461Y-73465150D01*
X154661350Y-73464025D01*
X154963849Y-73463526D01*
X155058117Y-73463500D01*
X156461568Y-73463500D01*
X157026617Y-72730902D01*
X157591667Y-71998303D01*
X157591667Y-74051584D01*
X157353542Y-74339161D01*
X157115417Y-74626737D01*
X154271783Y-74627667D01*
X154248486Y-74557075D01*
X154197159Y-74461671D01*
X154119905Y-74392083D01*
X154024745Y-74348842D01*
X153919702Y-74332477D01*
X153812798Y-74343516D01*
X153712058Y-74382490D01*
X153625503Y-74449928D01*
X153578520Y-74512861D01*
X153533503Y-74626536D01*
X153526611Y-74740126D01*
X153554185Y-74846754D01*
X153612564Y-74939544D01*
X153698089Y-75011620D01*
X153807100Y-75056105D01*
X153872990Y-75066133D01*
X153993948Y-75054905D01*
X154100671Y-75004857D01*
X154188395Y-74918430D01*
X154203255Y-74896973D01*
X154254426Y-74818167D01*
X155741930Y-74818167D01*
X156029087Y-74818126D01*
X156276875Y-74817954D01*
X156488255Y-74817574D01*
X156666191Y-74816911D01*
X156813646Y-74815888D01*
X156933583Y-74814428D01*
X157028966Y-74812457D01*
X157102757Y-74809897D01*
X157157919Y-74806673D01*
X157197415Y-74802708D01*
X157224209Y-74797927D01*
X157241264Y-74792253D01*
X157251542Y-74785611D01*
X157257092Y-74779249D01*
X157282614Y-74747883D01*
X157329599Y-74694043D01*
X157390589Y-74626172D01*
X157438209Y-74574199D01*
X157591667Y-74408065D01*
X157591667Y-76172833D01*
X147008334Y-76172833D01*
X147008334Y-75192131D01*
X147293530Y-74818167D01*
X148545841Y-74818167D01*
X149798152Y-74818166D01*
X149841114Y-74890982D01*
X149918905Y-74985234D01*
X150017838Y-75048142D01*
X150129405Y-75077309D01*
X150245099Y-75070337D01*
X150343317Y-75032545D01*
X150442721Y-74957012D01*
X150504753Y-74862082D01*
X150530811Y-74745361D01*
X150531859Y-74709590D01*
X150527673Y-74631440D01*
X150512004Y-74575686D01*
X150478481Y-74522698D01*
X150466115Y-74507028D01*
X150379104Y-74418744D01*
X150286862Y-74367529D01*
X150179515Y-74348375D01*
X150152525Y-74347969D01*
X150031441Y-74365533D01*
X149929552Y-74412947D01*
X149853476Y-74485764D01*
X149810162Y-74578189D01*
X149797744Y-74627667D01*
X148646456Y-74627667D01*
X148430115Y-74627433D01*
X148227025Y-74626763D01*
X148041027Y-74625698D01*
X147875963Y-74624284D01*
X147735677Y-74622563D01*
X147624010Y-74620580D01*
X147544804Y-74618377D01*
X147501903Y-74615999D01*
X147495167Y-74614584D01*
X147507215Y-74594751D01*
X147541201Y-74545419D01*
X147593882Y-74471118D01*
X147662019Y-74376383D01*
X147742371Y-74265746D01*
X147831698Y-74143739D01*
X147835671Y-74138334D01*
X148176174Y-73675167D01*
X150882741Y-73675167D01*
X150906502Y-73727317D01*
X150948175Y-73782436D01*
X151017177Y-73838408D01*
X151099835Y-73885557D01*
X151164443Y-73909834D01*
X151269513Y-73918656D01*
X151371306Y-73891645D01*
X151463306Y-73835175D01*
X151538999Y-73755624D01*
X151591869Y-73659365D01*
X151615403Y-73552777D01*
X151610533Y-73473263D01*
X151570529Y-73362151D01*
X151500389Y-73269453D01*
X151408181Y-73200377D01*
X151301975Y-73160128D01*
X151189837Y-73153913D01*
X151133441Y-73165383D01*
X151060427Y-73197945D01*
X150987343Y-73247554D01*
X150927179Y-73303794D01*
X150892926Y-73356248D01*
X150892003Y-73358970D01*
X150888391Y-73367104D01*
X150881080Y-73374085D01*
X150867042Y-73380002D01*
X150843245Y-73384943D01*
X150806658Y-73388995D01*
X150754252Y-73392247D01*
X150682996Y-73394787D01*
X150589859Y-73396701D01*
X150471811Y-73398080D01*
X150325822Y-73399009D01*
X150148860Y-73399578D01*
X149937896Y-73399874D01*
X149689899Y-73399985D01*
X149478063Y-73400000D01*
X148077146Y-73400000D01*
X147569198Y-74070494D01*
X147456831Y-74218801D01*
X147351797Y-74357395D01*
X147256997Y-74482451D01*
X147175330Y-74590144D01*
X147109698Y-74676650D01*
X147063001Y-74738145D01*
X147038140Y-74770802D01*
X147035465Y-74774286D01*
X147028423Y-74775369D01*
X147022687Y-74756486D01*
X147018138Y-74714403D01*
X147014656Y-74645888D01*
X147012120Y-74547707D01*
X147010411Y-74416628D01*
X147009408Y-74249417D01*
X147009007Y-74061458D01*
X147008334Y-73315333D01*
X147407574Y-73315333D01*
X148310084Y-72258449D01*
X149742034Y-72257725D01*
X151173985Y-72257000D01*
X151216948Y-72329815D01*
X151292220Y-72420296D01*
X151390676Y-72484489D01*
X151500703Y-72515624D01*
X151538943Y-72517474D01*
X151653606Y-72499093D01*
X151753379Y-72445336D01*
X151840408Y-72358375D01*
X151897068Y-72258292D01*
X151917303Y-72150892D01*
X151904437Y-72043428D01*
X151861793Y-71943152D01*
X151792694Y-71857315D01*
X151700465Y-71793171D01*
X151588426Y-71757971D01*
X151563938Y-71755042D01*
X151456130Y-71763577D01*
X151352273Y-71803288D01*
X151266375Y-71867563D01*
X151231084Y-71912226D01*
X151188750Y-71980202D01*
X149704164Y-71981018D01*
X148219578Y-71981833D01*
X147758718Y-72521583D01*
X147297857Y-73061333D01*
X147008334Y-73061333D01*
X147008334Y-70627167D01*
X157591667Y-70627167D01*
X157591667Y-71618369D01*
X157591667Y-71618369D01*
G37*
X157591667Y-71618369D02*
X157409782Y-71842434D01*
X157227898Y-72066500D01*
X154738348Y-72066500D01*
X154695386Y-71993684D01*
X154649981Y-71936049D01*
X154588125Y-71879575D01*
X154566661Y-71864114D01*
X154511011Y-71831529D01*
X154460383Y-71816244D01*
X154396029Y-71814084D01*
X154353248Y-71816592D01*
X154227768Y-71844460D01*
X154124556Y-71905768D01*
X154048379Y-71996374D01*
X154004002Y-72112136D01*
X154002077Y-72121782D01*
X153997459Y-72241908D01*
X154026859Y-72347264D01*
X154083877Y-72435267D01*
X154162112Y-72503336D01*
X154255164Y-72548889D01*
X154356631Y-72569344D01*
X154460115Y-72562120D01*
X154559214Y-72524635D01*
X154647528Y-72454307D01*
X154690088Y-72399306D01*
X154741259Y-72320500D01*
X155892546Y-72320500D01*
X156150983Y-72320678D01*
X156369845Y-72321257D01*
X156551891Y-72322300D01*
X156699876Y-72323872D01*
X156816558Y-72326037D01*
X156904695Y-72328859D01*
X156967044Y-72332402D01*
X157006362Y-72336732D01*
X157025407Y-72341911D01*
X157027759Y-72346958D01*
X157010515Y-72370273D01*
X156970580Y-72421755D01*
X156911771Y-72496565D01*
X156837905Y-72589862D01*
X156752797Y-72696808D01*
X156685634Y-72780875D01*
X156359582Y-73188333D01*
X155001833Y-73188199D01*
X153644084Y-73188066D01*
X153608280Y-73125141D01*
X153541120Y-73047050D01*
X153448373Y-72992525D01*
X153341893Y-72965373D01*
X153233533Y-72969404D01*
X153176858Y-72986529D01*
X153061699Y-73055549D01*
X152977732Y-73152838D01*
X152943204Y-73223369D01*
X152919561Y-73336833D01*
X152931803Y-73446005D01*
X152974414Y-73545165D01*
X153041877Y-73628593D01*
X153128675Y-73690571D01*
X153229292Y-73725378D01*
X153338213Y-73727295D01*
X153410818Y-73708207D01*
X153468338Y-73677515D01*
X153531628Y-73630798D01*
X153590522Y-73577377D01*
X153634854Y-73526575D01*
X153654457Y-73487713D01*
X153654667Y-73484606D01*
X153675743Y-73479891D01*
X153738617Y-73475754D01*
X153842757Y-73472204D01*
X153987633Y-73469248D01*
X154172711Y-73466894D01*
X154397461Y-73465150D01*
X154661350Y-73464025D01*
X154963849Y-73463526D01*
X155058117Y-73463500D01*
X156461568Y-73463500D01*
X157026617Y-72730902D01*
X157591667Y-71998303D01*
X157591667Y-74051584D01*
X157353542Y-74339161D01*
X157115417Y-74626737D01*
X154271783Y-74627667D01*
X154248486Y-74557075D01*
X154197159Y-74461671D01*
X154119905Y-74392083D01*
X154024745Y-74348842D01*
X153919702Y-74332477D01*
X153812798Y-74343516D01*
X153712058Y-74382490D01*
X153625503Y-74449928D01*
X153578520Y-74512861D01*
X153533503Y-74626536D01*
X153526611Y-74740126D01*
X153554185Y-74846754D01*
X153612564Y-74939544D01*
X153698089Y-75011620D01*
X153807100Y-75056105D01*
X153872990Y-75066133D01*
X153993948Y-75054905D01*
X154100671Y-75004857D01*
X154188395Y-74918430D01*
X154203255Y-74896973D01*
X154254426Y-74818167D01*
X155741930Y-74818167D01*
X156029087Y-74818126D01*
X156276875Y-74817954D01*
X156488255Y-74817574D01*
X156666191Y-74816911D01*
X156813646Y-74815888D01*
X156933583Y-74814428D01*
X157028966Y-74812457D01*
X157102757Y-74809897D01*
X157157919Y-74806673D01*
X157197415Y-74802708D01*
X157224209Y-74797927D01*
X157241264Y-74792253D01*
X157251542Y-74785611D01*
X157257092Y-74779249D01*
X157282614Y-74747883D01*
X157329599Y-74694043D01*
X157390589Y-74626172D01*
X157438209Y-74574199D01*
X157591667Y-74408065D01*
X157591667Y-76172833D01*
X147008334Y-76172833D01*
X147008334Y-75192131D01*
X147293530Y-74818167D01*
X148545841Y-74818167D01*
X149798152Y-74818166D01*
X149841114Y-74890982D01*
X149918905Y-74985234D01*
X150017838Y-75048142D01*
X150129405Y-75077309D01*
X150245099Y-75070337D01*
X150343317Y-75032545D01*
X150442721Y-74957012D01*
X150504753Y-74862082D01*
X150530811Y-74745361D01*
X150531859Y-74709590D01*
X150527673Y-74631440D01*
X150512004Y-74575686D01*
X150478481Y-74522698D01*
X150466115Y-74507028D01*
X150379104Y-74418744D01*
X150286862Y-74367529D01*
X150179515Y-74348375D01*
X150152525Y-74347969D01*
X150031441Y-74365533D01*
X149929552Y-74412947D01*
X149853476Y-74485764D01*
X149810162Y-74578189D01*
X149797744Y-74627667D01*
X148646456Y-74627667D01*
X148430115Y-74627433D01*
X148227025Y-74626763D01*
X148041027Y-74625698D01*
X147875963Y-74624284D01*
X147735677Y-74622563D01*
X147624010Y-74620580D01*
X147544804Y-74618377D01*
X147501903Y-74615999D01*
X147495167Y-74614584D01*
X147507215Y-74594751D01*
X147541201Y-74545419D01*
X147593882Y-74471118D01*
X147662019Y-74376383D01*
X147742371Y-74265746D01*
X147831698Y-74143739D01*
X147835671Y-74138334D01*
X148176174Y-73675167D01*
X150882741Y-73675167D01*
X150906502Y-73727317D01*
X150948175Y-73782436D01*
X151017177Y-73838408D01*
X151099835Y-73885557D01*
X151164443Y-73909834D01*
X151269513Y-73918656D01*
X151371306Y-73891645D01*
X151463306Y-73835175D01*
X151538999Y-73755624D01*
X151591869Y-73659365D01*
X151615403Y-73552777D01*
X151610533Y-73473263D01*
X151570529Y-73362151D01*
X151500389Y-73269453D01*
X151408181Y-73200377D01*
X151301975Y-73160128D01*
X151189837Y-73153913D01*
X151133441Y-73165383D01*
X151060427Y-73197945D01*
X150987343Y-73247554D01*
X150927179Y-73303794D01*
X150892926Y-73356248D01*
X150892003Y-73358970D01*
X150888391Y-73367104D01*
X150881080Y-73374085D01*
X150867042Y-73380002D01*
X150843245Y-73384943D01*
X150806658Y-73388995D01*
X150754252Y-73392247D01*
X150682996Y-73394787D01*
X150589859Y-73396701D01*
X150471811Y-73398080D01*
X150325822Y-73399009D01*
X150148860Y-73399578D01*
X149937896Y-73399874D01*
X149689899Y-73399985D01*
X149478063Y-73400000D01*
X148077146Y-73400000D01*
X147569198Y-74070494D01*
X147456831Y-74218801D01*
X147351797Y-74357395D01*
X147256997Y-74482451D01*
X147175330Y-74590144D01*
X147109698Y-74676650D01*
X147063001Y-74738145D01*
X147038140Y-74770802D01*
X147035465Y-74774286D01*
X147028423Y-74775369D01*
X147022687Y-74756486D01*
X147018138Y-74714403D01*
X147014656Y-74645888D01*
X147012120Y-74547707D01*
X147010411Y-74416628D01*
X147009408Y-74249417D01*
X147009007Y-74061458D01*
X147008334Y-73315333D01*
X147407574Y-73315333D01*
X148310084Y-72258449D01*
X149742034Y-72257725D01*
X151173985Y-72257000D01*
X151216948Y-72329815D01*
X151292220Y-72420296D01*
X151390676Y-72484489D01*
X151500703Y-72515624D01*
X151538943Y-72517474D01*
X151653606Y-72499093D01*
X151753379Y-72445336D01*
X151840408Y-72358375D01*
X151897068Y-72258292D01*
X151917303Y-72150892D01*
X151904437Y-72043428D01*
X151861793Y-71943152D01*
X151792694Y-71857315D01*
X151700465Y-71793171D01*
X151588426Y-71757971D01*
X151563938Y-71755042D01*
X151456130Y-71763577D01*
X151352273Y-71803288D01*
X151266375Y-71867563D01*
X151231084Y-71912226D01*
X151188750Y-71980202D01*
X149704164Y-71981018D01*
X148219578Y-71981833D01*
X147758718Y-72521583D01*
X147297857Y-73061333D01*
X147008334Y-73061333D01*
X147008334Y-70627167D01*
X157591667Y-70627167D01*
X157591667Y-71618369D01*
D12*
X150075000Y-85400000D02*
X150075000Y-86400000D01*
X148725000Y-86400000D02*
X148725000Y-85400000D01*
X150075000Y-88200000D02*
X150075000Y-89200000D01*
X148725000Y-89200000D02*
X148725000Y-88200000D01*
X135400000Y-75475000D02*
X134400000Y-75475000D01*
X134400000Y-74125000D02*
X135400000Y-74125000D01*
X157641667Y-93350000D02*
X157308333Y-93583334D01*
X157641667Y-93750000D02*
X156941667Y-93750000D01*
X156941667Y-93483334D01*
X156975000Y-93416667D01*
X157008333Y-93383334D01*
X157075000Y-93350000D01*
X157175000Y-93350000D01*
X157241667Y-93383334D01*
X157275000Y-93416667D01*
X157308333Y-93483334D01*
X157308333Y-93750000D01*
X157641667Y-92683334D02*
X157641667Y-93083334D01*
X157641667Y-92883334D02*
X156941667Y-92883334D01*
X157041667Y-92950000D01*
X157108333Y-93016667D01*
X157141667Y-93083334D01*
X156941667Y-92050000D02*
X156941667Y-92383333D01*
X157275000Y-92416667D01*
X157241667Y-92383333D01*
X157208333Y-92316667D01*
X157208333Y-92150000D01*
X157241667Y-92083333D01*
X157275000Y-92050000D01*
X157341667Y-92016667D01*
X157508333Y-92016667D01*
X157575000Y-92050000D01*
X157608333Y-92083333D01*
X157641667Y-92150000D01*
X157641667Y-92316667D01*
X157608333Y-92383333D01*
X157575000Y-92416667D01*
X151741667Y-91550000D02*
X151408333Y-91783334D01*
X151741667Y-91950000D02*
X151041667Y-91950000D01*
X151041667Y-91683334D01*
X151075000Y-91616667D01*
X151108333Y-91583334D01*
X151175000Y-91550000D01*
X151275000Y-91550000D01*
X151341667Y-91583334D01*
X151375000Y-91616667D01*
X151408333Y-91683334D01*
X151408333Y-91950000D01*
X151741667Y-90883334D02*
X151741667Y-91283334D01*
X151741667Y-91083334D02*
X151041667Y-91083334D01*
X151141667Y-91150000D01*
X151208333Y-91216667D01*
X151241667Y-91283334D01*
X151341667Y-90483333D02*
X151308333Y-90550000D01*
X151275000Y-90583333D01*
X151208333Y-90616667D01*
X151175000Y-90616667D01*
X151108333Y-90583333D01*
X151075000Y-90550000D01*
X151041667Y-90483333D01*
X151041667Y-90350000D01*
X151075000Y-90283333D01*
X151108333Y-90250000D01*
X151175000Y-90216667D01*
X151208333Y-90216667D01*
X151275000Y-90250000D01*
X151308333Y-90283333D01*
X151341667Y-90350000D01*
X151341667Y-90483333D01*
X151375000Y-90550000D01*
X151408333Y-90583333D01*
X151475000Y-90616667D01*
X151608333Y-90616667D01*
X151675000Y-90583333D01*
X151708333Y-90550000D01*
X151741667Y-90483333D01*
X151741667Y-90350000D01*
X151708333Y-90283333D01*
X151675000Y-90250000D01*
X151608333Y-90216667D01*
X151475000Y-90216667D01*
X151408333Y-90250000D01*
X151375000Y-90283333D01*
X151341667Y-90350000D01*
X153263095Y-91452381D02*
X153263095Y-92261905D01*
X153310714Y-92357143D01*
X153358333Y-92404762D01*
X153453571Y-92452381D01*
X153644048Y-92452381D01*
X153739286Y-92404762D01*
X153786905Y-92357143D01*
X153834524Y-92261905D01*
X153834524Y-91452381D01*
X154739286Y-91785714D02*
X154739286Y-92452381D01*
X154501190Y-91404762D02*
X154263095Y-92119048D01*
X154882143Y-92119048D01*
X155350000Y-82150000D02*
X155383333Y-82183334D01*
X155416667Y-82283334D01*
X155416667Y-82350000D01*
X155383333Y-82450000D01*
X155316667Y-82516667D01*
X155250000Y-82550000D01*
X155116667Y-82583334D01*
X155016667Y-82583334D01*
X154883333Y-82550000D01*
X154816667Y-82516667D01*
X154750000Y-82450000D01*
X154716667Y-82350000D01*
X154716667Y-82283334D01*
X154750000Y-82183334D01*
X154783333Y-82150000D01*
X155416667Y-81483334D02*
X155416667Y-81883334D01*
X155416667Y-81683334D02*
X154716667Y-81683334D01*
X154816667Y-81750000D01*
X154883333Y-81816667D01*
X154916667Y-81883334D01*
X154783333Y-81216667D02*
X154750000Y-81183333D01*
X154716667Y-81116667D01*
X154716667Y-80950000D01*
X154750000Y-80883333D01*
X154783333Y-80850000D01*
X154850000Y-80816667D01*
X154916667Y-80816667D01*
X155016667Y-80850000D01*
X155416667Y-81250000D01*
X155416667Y-80816667D01*
X147075000Y-86625000D02*
X147108333Y-86658334D01*
X147141667Y-86758334D01*
X147141667Y-86825000D01*
X147108333Y-86925000D01*
X147041667Y-86991667D01*
X146975000Y-87025000D01*
X146841667Y-87058334D01*
X146741667Y-87058334D01*
X146608333Y-87025000D01*
X146541667Y-86991667D01*
X146475000Y-86925000D01*
X146441667Y-86825000D01*
X146441667Y-86758334D01*
X146475000Y-86658334D01*
X146508333Y-86625000D01*
X147141667Y-85958334D02*
X147141667Y-86358334D01*
X147141667Y-86158334D02*
X146441667Y-86158334D01*
X146541667Y-86225000D01*
X146608333Y-86291667D01*
X146641667Y-86358334D01*
X146675000Y-85358333D02*
X147141667Y-85358333D01*
X146408333Y-85525000D02*
X146908333Y-85691667D01*
X146908333Y-85258333D01*
X144941667Y-78116666D02*
X144608333Y-78350000D01*
X144941667Y-78516666D02*
X144241667Y-78516666D01*
X144241667Y-78250000D01*
X144275000Y-78183333D01*
X144308333Y-78150000D01*
X144375000Y-78116666D01*
X144475000Y-78116666D01*
X144541667Y-78150000D01*
X144575000Y-78183333D01*
X144608333Y-78250000D01*
X144608333Y-78516666D01*
X144941667Y-77450000D02*
X144941667Y-77850000D01*
X144941667Y-77650000D02*
X144241667Y-77650000D01*
X144341667Y-77716666D01*
X144408333Y-77783333D01*
X144441667Y-77850000D01*
X157916667Y-81516666D02*
X157583333Y-81750000D01*
X157916667Y-81916666D02*
X157216667Y-81916666D01*
X157216667Y-81650000D01*
X157250000Y-81583333D01*
X157283333Y-81550000D01*
X157350000Y-81516666D01*
X157450000Y-81516666D01*
X157516667Y-81550000D01*
X157550000Y-81583333D01*
X157583333Y-81650000D01*
X157583333Y-81916666D01*
X157216667Y-81283333D02*
X157216667Y-80850000D01*
X157483333Y-81083333D01*
X157483333Y-80983333D01*
X157516667Y-80916666D01*
X157550000Y-80883333D01*
X157616667Y-80850000D01*
X157783333Y-80850000D01*
X157850000Y-80883333D01*
X157883333Y-80916666D01*
X157916667Y-80983333D01*
X157916667Y-81183333D01*
X157883333Y-81250000D01*
X157850000Y-81283333D01*
X134616667Y-71416666D02*
X134283333Y-71650000D01*
X134616667Y-71816666D02*
X133916667Y-71816666D01*
X133916667Y-71550000D01*
X133950000Y-71483333D01*
X133983333Y-71450000D01*
X134050000Y-71416666D01*
X134150000Y-71416666D01*
X134216667Y-71450000D01*
X134250000Y-71483333D01*
X134283333Y-71550000D01*
X134283333Y-71816666D01*
X134150000Y-70816666D02*
X134616667Y-70816666D01*
X133883333Y-70983333D02*
X134383333Y-71150000D01*
X134383333Y-70716666D01*
X143241667Y-77516666D02*
X142908333Y-77750000D01*
X143241667Y-77916666D02*
X142541667Y-77916666D01*
X142541667Y-77650000D01*
X142575000Y-77583333D01*
X142608333Y-77550000D01*
X142675000Y-77516666D01*
X142775000Y-77516666D01*
X142841667Y-77550000D01*
X142875000Y-77583333D01*
X142908333Y-77650000D01*
X142908333Y-77916666D01*
X142541667Y-76916666D02*
X142541667Y-77050000D01*
X142575000Y-77116666D01*
X142608333Y-77150000D01*
X142708333Y-77216666D01*
X142841667Y-77250000D01*
X143108333Y-77250000D01*
X143175000Y-77216666D01*
X143208333Y-77183333D01*
X143241667Y-77116666D01*
X143241667Y-76983333D01*
X143208333Y-76916666D01*
X143175000Y-76883333D01*
X143108333Y-76850000D01*
X142941667Y-76850000D01*
X142875000Y-76883333D01*
X142841667Y-76916666D01*
X142808333Y-76983333D01*
X142808333Y-77116666D01*
X142841667Y-77183333D01*
X142875000Y-77216666D01*
X142941667Y-77250000D01*
X144008334Y-74746667D02*
X143775000Y-74413333D01*
X143608334Y-74746667D02*
X143608334Y-74046667D01*
X143875000Y-74046667D01*
X143941667Y-74080000D01*
X143975000Y-74113333D01*
X144008334Y-74180000D01*
X144008334Y-74280000D01*
X143975000Y-74346667D01*
X143941667Y-74380000D01*
X143875000Y-74413333D01*
X143608334Y-74413333D01*
X144241667Y-74046667D02*
X144708334Y-74046667D01*
X144408334Y-74746667D01*
X140211667Y-91816666D02*
X139878333Y-92050000D01*
X140211667Y-92216666D02*
X139511667Y-92216666D01*
X139511667Y-91950000D01*
X139545000Y-91883333D01*
X139578333Y-91850000D01*
X139645000Y-91816666D01*
X139745000Y-91816666D01*
X139811667Y-91850000D01*
X139845000Y-91883333D01*
X139878333Y-91950000D01*
X139878333Y-92216666D01*
X139811667Y-91416666D02*
X139778333Y-91483333D01*
X139745000Y-91516666D01*
X139678333Y-91550000D01*
X139645000Y-91550000D01*
X139578333Y-91516666D01*
X139545000Y-91483333D01*
X139511667Y-91416666D01*
X139511667Y-91283333D01*
X139545000Y-91216666D01*
X139578333Y-91183333D01*
X139645000Y-91150000D01*
X139678333Y-91150000D01*
X139745000Y-91183333D01*
X139778333Y-91216666D01*
X139811667Y-91283333D01*
X139811667Y-91416666D01*
X139845000Y-91483333D01*
X139878333Y-91516666D01*
X139945000Y-91550000D01*
X140078333Y-91550000D01*
X140145000Y-91516666D01*
X140178333Y-91483333D01*
X140211667Y-91416666D01*
X140211667Y-91283333D01*
X140178333Y-91216666D01*
X140145000Y-91183333D01*
X140078333Y-91150000D01*
X139945000Y-91150000D01*
X139878333Y-91183333D01*
X139845000Y-91216666D01*
X139811667Y-91283333D01*
X138516667Y-78450000D02*
X138183333Y-78683334D01*
X138516667Y-78850000D02*
X137816667Y-78850000D01*
X137816667Y-78583334D01*
X137850000Y-78516667D01*
X137883333Y-78483334D01*
X137950000Y-78450000D01*
X138050000Y-78450000D01*
X138116667Y-78483334D01*
X138150000Y-78516667D01*
X138183333Y-78583334D01*
X138183333Y-78850000D01*
X138516667Y-77783334D02*
X138516667Y-78183334D01*
X138516667Y-77983334D02*
X137816667Y-77983334D01*
X137916667Y-78050000D01*
X137983333Y-78116667D01*
X138016667Y-78183334D01*
X137816667Y-77350000D02*
X137816667Y-77283333D01*
X137850000Y-77216667D01*
X137883333Y-77183333D01*
X137950000Y-77150000D01*
X138083333Y-77116667D01*
X138250000Y-77116667D01*
X138383333Y-77150000D01*
X138450000Y-77183333D01*
X138483333Y-77216667D01*
X138516667Y-77283333D01*
X138516667Y-77350000D01*
X138483333Y-77416667D01*
X138450000Y-77450000D01*
X138383333Y-77483333D01*
X138250000Y-77516667D01*
X138083333Y-77516667D01*
X137950000Y-77483333D01*
X137883333Y-77450000D01*
X137850000Y-77416667D01*
X137816667Y-77350000D01*
X147911667Y-79850000D02*
X147578333Y-80083334D01*
X147911667Y-80250000D02*
X147211667Y-80250000D01*
X147211667Y-79983334D01*
X147245000Y-79916667D01*
X147278333Y-79883334D01*
X147345000Y-79850000D01*
X147445000Y-79850000D01*
X147511667Y-79883334D01*
X147545000Y-79916667D01*
X147578333Y-79983334D01*
X147578333Y-80250000D01*
X147911667Y-79183334D02*
X147911667Y-79583334D01*
X147911667Y-79383334D02*
X147211667Y-79383334D01*
X147311667Y-79450000D01*
X147378333Y-79516667D01*
X147411667Y-79583334D01*
X147911667Y-78516667D02*
X147911667Y-78916667D01*
X147911667Y-78716667D02*
X147211667Y-78716667D01*
X147311667Y-78783333D01*
X147378333Y-78850000D01*
X147411667Y-78916667D01*
X141541667Y-76850000D02*
X141208333Y-77083334D01*
X141541667Y-77250000D02*
X140841667Y-77250000D01*
X140841667Y-76983334D01*
X140875000Y-76916667D01*
X140908333Y-76883334D01*
X140975000Y-76850000D01*
X141075000Y-76850000D01*
X141141667Y-76883334D01*
X141175000Y-76916667D01*
X141208333Y-76983334D01*
X141208333Y-77250000D01*
X141541667Y-76183334D02*
X141541667Y-76583334D01*
X141541667Y-76383334D02*
X140841667Y-76383334D01*
X140941667Y-76450000D01*
X141008333Y-76516667D01*
X141041667Y-76583334D01*
X140908333Y-75916667D02*
X140875000Y-75883333D01*
X140841667Y-75816667D01*
X140841667Y-75650000D01*
X140875000Y-75583333D01*
X140908333Y-75550000D01*
X140975000Y-75516667D01*
X141041667Y-75516667D01*
X141141667Y-75550000D01*
X141541667Y-75950000D01*
X141541667Y-75516667D01*
X141750000Y-86916667D02*
X141516666Y-86583333D01*
X141350000Y-86916667D02*
X141350000Y-86216667D01*
X141616666Y-86216667D01*
X141683333Y-86250000D01*
X141716666Y-86283333D01*
X141750000Y-86350000D01*
X141750000Y-86450000D01*
X141716666Y-86516667D01*
X141683333Y-86550000D01*
X141616666Y-86583333D01*
X141350000Y-86583333D01*
X142416666Y-86916667D02*
X142016666Y-86916667D01*
X142216666Y-86916667D02*
X142216666Y-86216667D01*
X142150000Y-86316667D01*
X142083333Y-86383333D01*
X142016666Y-86416667D01*
X142650000Y-86216667D02*
X143083333Y-86216667D01*
X142850000Y-86483333D01*
X142950000Y-86483333D01*
X143016667Y-86516667D01*
X143050000Y-86550000D01*
X143083333Y-86616667D01*
X143083333Y-86783333D01*
X143050000Y-86850000D01*
X143016667Y-86883333D01*
X142950000Y-86916667D01*
X142750000Y-86916667D01*
X142683333Y-86883333D01*
X142650000Y-86850000D01*
X141750000Y-88516667D02*
X141516666Y-88183333D01*
X141350000Y-88516667D02*
X141350000Y-87816667D01*
X141616666Y-87816667D01*
X141683333Y-87850000D01*
X141716666Y-87883333D01*
X141750000Y-87950000D01*
X141750000Y-88050000D01*
X141716666Y-88116667D01*
X141683333Y-88150000D01*
X141616666Y-88183333D01*
X141350000Y-88183333D01*
X142416666Y-88516667D02*
X142016666Y-88516667D01*
X142216666Y-88516667D02*
X142216666Y-87816667D01*
X142150000Y-87916667D01*
X142083333Y-87983333D01*
X142016666Y-88016667D01*
X143016667Y-88050000D02*
X143016667Y-88516667D01*
X142850000Y-87783333D02*
X142683333Y-88283333D01*
X143116667Y-88283333D01*
X141750000Y-85116667D02*
X141516666Y-84783333D01*
X141350000Y-85116667D02*
X141350000Y-84416667D01*
X141616666Y-84416667D01*
X141683333Y-84450000D01*
X141716666Y-84483333D01*
X141750000Y-84550000D01*
X141750000Y-84650000D01*
X141716666Y-84716667D01*
X141683333Y-84750000D01*
X141616666Y-84783333D01*
X141350000Y-84783333D01*
X142416666Y-85116667D02*
X142016666Y-85116667D01*
X142216666Y-85116667D02*
X142216666Y-84416667D01*
X142150000Y-84516667D01*
X142083333Y-84583333D01*
X142016666Y-84616667D01*
X143016667Y-84416667D02*
X142883333Y-84416667D01*
X142816667Y-84450000D01*
X142783333Y-84483333D01*
X142716667Y-84583333D01*
X142683333Y-84716667D01*
X142683333Y-84983333D01*
X142716667Y-85050000D01*
X142750000Y-85083333D01*
X142816667Y-85116667D01*
X142950000Y-85116667D01*
X143016667Y-85083333D01*
X143050000Y-85050000D01*
X143083333Y-84983333D01*
X143083333Y-84816667D01*
X143050000Y-84750000D01*
X143016667Y-84716667D01*
X142950000Y-84683333D01*
X142816667Y-84683333D01*
X142750000Y-84716667D01*
X142716667Y-84750000D01*
X142683333Y-84816667D01*
X137050000Y-83416667D02*
X136816666Y-83083333D01*
X136650000Y-83416667D02*
X136650000Y-82716667D01*
X136916666Y-82716667D01*
X136983333Y-82750000D01*
X137016666Y-82783333D01*
X137050000Y-82850000D01*
X137050000Y-82950000D01*
X137016666Y-83016667D01*
X136983333Y-83050000D01*
X136916666Y-83083333D01*
X136650000Y-83083333D01*
X137716666Y-83416667D02*
X137316666Y-83416667D01*
X137516666Y-83416667D02*
X137516666Y-82716667D01*
X137450000Y-82816667D01*
X137383333Y-82883333D01*
X137316666Y-82916667D01*
X137950000Y-82716667D02*
X138416667Y-82716667D01*
X138116667Y-83416667D01*
X125738095Y-77152381D02*
X125738095Y-77961905D01*
X125785714Y-78057143D01*
X125833333Y-78104762D01*
X125928571Y-78152381D01*
X126119048Y-78152381D01*
X126214286Y-78104762D01*
X126261905Y-78057143D01*
X126309524Y-77961905D01*
X126309524Y-77152381D01*
X126738095Y-77247619D02*
X126785714Y-77200000D01*
X126880952Y-77152381D01*
X127119048Y-77152381D01*
X127214286Y-77200000D01*
X127261905Y-77247619D01*
X127309524Y-77342857D01*
X127309524Y-77438095D01*
X127261905Y-77580952D01*
X126690476Y-78152381D01*
X127309524Y-78152381D01*
X149650000Y-83783333D02*
X149683333Y-83816667D01*
X149716667Y-83916667D01*
X149716667Y-83983333D01*
X149683333Y-84083333D01*
X149616667Y-84150000D01*
X149550000Y-84183333D01*
X149416667Y-84216667D01*
X149316667Y-84216667D01*
X149183333Y-84183333D01*
X149116667Y-84150000D01*
X149050000Y-84083333D01*
X149016667Y-83983333D01*
X149016667Y-83916667D01*
X149050000Y-83816667D01*
X149083333Y-83783333D01*
X149716667Y-83116667D02*
X149716667Y-83516667D01*
X149716667Y-83316667D02*
X149016667Y-83316667D01*
X149116667Y-83383333D01*
X149183333Y-83450000D01*
X149216667Y-83516667D01*
X149716667Y-82450000D02*
X149716667Y-82850000D01*
X149716667Y-82650000D02*
X149016667Y-82650000D01*
X149116667Y-82716666D01*
X149183333Y-82783333D01*
X149216667Y-82850000D01*
X149083333Y-82183333D02*
X149050000Y-82149999D01*
X149016667Y-82083333D01*
X149016667Y-81916666D01*
X149050000Y-81849999D01*
X149083333Y-81816666D01*
X149150000Y-81783333D01*
X149216667Y-81783333D01*
X149316667Y-81816666D01*
X149716667Y-82216666D01*
X149716667Y-81783333D01*
X149716667Y-92183333D02*
X149383333Y-92416667D01*
X149716667Y-92583333D02*
X149016667Y-92583333D01*
X149016667Y-92316667D01*
X149050000Y-92250000D01*
X149083333Y-92216667D01*
X149150000Y-92183333D01*
X149250000Y-92183333D01*
X149316667Y-92216667D01*
X149350000Y-92250000D01*
X149383333Y-92316667D01*
X149383333Y-92583333D01*
X149716667Y-91516667D02*
X149716667Y-91916667D01*
X149716667Y-91716667D02*
X149016667Y-91716667D01*
X149116667Y-91783333D01*
X149183333Y-91850000D01*
X149216667Y-91916667D01*
X149083333Y-91250000D02*
X149050000Y-91216666D01*
X149016667Y-91150000D01*
X149016667Y-90983333D01*
X149050000Y-90916666D01*
X149083333Y-90883333D01*
X149150000Y-90850000D01*
X149216667Y-90850000D01*
X149316667Y-90883333D01*
X149716667Y-91283333D01*
X149716667Y-90850000D01*
X149016667Y-90416666D02*
X149016667Y-90349999D01*
X149050000Y-90283333D01*
X149083333Y-90249999D01*
X149150000Y-90216666D01*
X149283333Y-90183333D01*
X149450000Y-90183333D01*
X149583333Y-90216666D01*
X149650000Y-90249999D01*
X149683333Y-90283333D01*
X149716667Y-90349999D01*
X149716667Y-90416666D01*
X149683333Y-90483333D01*
X149650000Y-90516666D01*
X149583333Y-90549999D01*
X149450000Y-90583333D01*
X149283333Y-90583333D01*
X149150000Y-90549999D01*
X149083333Y-90516666D01*
X149050000Y-90483333D01*
X149016667Y-90416666D01*
X134116667Y-76416667D02*
X133883333Y-76083333D01*
X133716667Y-76416667D02*
X133716667Y-75716667D01*
X133983333Y-75716667D01*
X134050000Y-75750000D01*
X134083333Y-75783333D01*
X134116667Y-75850000D01*
X134116667Y-75950000D01*
X134083333Y-76016667D01*
X134050000Y-76050000D01*
X133983333Y-76083333D01*
X133716667Y-76083333D01*
X134783333Y-76416667D02*
X134383333Y-76416667D01*
X134583333Y-76416667D02*
X134583333Y-75716667D01*
X134516667Y-75816667D01*
X134450000Y-75883333D01*
X134383333Y-75916667D01*
X135050000Y-75783333D02*
X135083334Y-75750000D01*
X135150000Y-75716667D01*
X135316667Y-75716667D01*
X135383334Y-75750000D01*
X135416667Y-75783333D01*
X135450000Y-75850000D01*
X135450000Y-75916667D01*
X135416667Y-76016667D01*
X135016667Y-76416667D01*
X135450000Y-76416667D01*
X136116667Y-76416667D02*
X135716667Y-76416667D01*
X135916667Y-76416667D02*
X135916667Y-75716667D01*
X135850001Y-75816667D01*
X135783334Y-75883333D01*
X135716667Y-75916667D01*
M02*
