G04 #@! TF.FileFunction,Copper,L4,Bot,Plane*
%FSLAX46Y46*%
G04 Gerber Fmt 4.6, Leading zero omitted, Abs format (unit mm)*
G04 Created by KiCad (PCBNEW 4.0.6-e0-6349~53~ubuntu14.04.1) date Mon Mar 27 23:20:43 2017*
%MOMM*%
%LPD*%
G01*
G04 APERTURE LIST*
%ADD10C,0.100000*%
%ADD11R,1.550000X0.350000*%
%ADD12R,3.100000X5.180000*%
%ADD13C,0.600000*%
%ADD14C,0.650240*%
%ADD15R,0.650240X4.599940*%
%ADD16R,0.650240X3.599180*%
%ADD17R,2.032000X1.727200*%
%ADD18O,2.032000X1.727200*%
%ADD19R,0.350000X0.350000*%
%ADD20R,0.900000X0.300000*%
%ADD21R,0.300000X0.900000*%
%ADD22R,1.800000X1.800000*%
%ADD23R,4.000500X1.600200*%
%ADD24C,1.100000*%
%ADD25R,0.800100X0.800100*%
%ADD26R,0.787000X0.864000*%
%ADD27R,1.727200X2.032000*%
%ADD28O,1.727200X2.032000*%
%ADD29R,0.864000X0.787000*%
%ADD30R,3.200000X1.000000*%
%ADD31C,1.000000*%
%ADD32C,0.150000*%
%ADD33C,1.000000*%
%ADD34C,1.500000*%
%ADD35C,0.200000*%
%ADD36C,0.500000*%
%ADD37C,0.300000*%
%ADD38C,0.400000*%
G04 APERTURE END LIST*
D10*
D11*
X154800000Y-77775000D03*
X154800000Y-78425000D03*
X154800000Y-79075000D03*
X154800000Y-79725000D03*
X154800000Y-80375000D03*
X154800000Y-81025000D03*
X154800000Y-81675000D03*
X154800000Y-82325000D03*
X154800000Y-82975000D03*
X154800000Y-83625000D03*
X154800000Y-84275000D03*
X154800000Y-84925000D03*
X154800000Y-85575000D03*
X154800000Y-86225000D03*
X149200000Y-86225000D03*
X149200000Y-85575000D03*
X149200000Y-84925000D03*
X149200000Y-84275000D03*
X149200000Y-83625000D03*
X149200000Y-82975000D03*
X149200000Y-82325000D03*
X149200000Y-81675000D03*
X149200000Y-81025000D03*
X149200000Y-80375000D03*
X149200000Y-79725000D03*
X149200000Y-79075000D03*
X149200000Y-78425000D03*
X149200000Y-77775000D03*
D12*
X152000000Y-82000000D03*
D13*
X152000000Y-83000000D03*
X152000000Y-81000000D03*
X153000000Y-84000000D03*
X151000000Y-84000000D03*
X153000000Y-82000000D03*
X151000000Y-82000000D03*
X153000000Y-80000000D03*
X151000000Y-80000000D03*
D14*
X140500400Y-102301240D03*
D15*
X159499600Y-100000000D03*
X158498840Y-100000000D03*
X157500620Y-100000000D03*
X156499860Y-100000000D03*
X155499100Y-100000000D03*
X154500880Y-100000000D03*
X153500120Y-100000000D03*
X152499360Y-100000000D03*
X151501140Y-100000000D03*
X150500380Y-100000000D03*
X149499620Y-100000000D03*
X144500900Y-100000000D03*
X143500140Y-100000000D03*
X142499380Y-100000000D03*
D16*
X141501160Y-99499620D03*
D15*
X140500400Y-100000000D03*
X146499880Y-100000000D03*
X145499120Y-100000000D03*
D14*
X157500620Y-102301240D03*
X156499860Y-102301240D03*
X155499100Y-102301240D03*
X154500880Y-102301240D03*
X153500120Y-102301240D03*
X152499360Y-102301240D03*
X151501140Y-102301240D03*
X150500380Y-102301240D03*
X149499620Y-102301240D03*
X159499600Y-102301240D03*
X146499880Y-102301240D03*
X145499120Y-102301240D03*
X144500900Y-102301240D03*
X143500140Y-102301240D03*
X142499380Y-102301240D03*
X158498840Y-102301240D03*
D17*
X167000000Y-78190000D03*
D18*
X167000000Y-80730000D03*
X167000000Y-83270000D03*
X167000000Y-85810000D03*
D19*
X142675000Y-83900000D03*
D20*
X142375000Y-83400000D03*
X142375000Y-82900000D03*
X142375000Y-82400000D03*
X142375000Y-81900000D03*
D19*
X142675000Y-81400000D03*
D21*
X143175000Y-81100000D03*
X143675000Y-81100000D03*
X144175000Y-81100000D03*
X144675000Y-81100000D03*
D19*
X145175000Y-81400000D03*
D20*
X145475000Y-81900000D03*
X145475000Y-82400000D03*
X145475000Y-82900000D03*
X145475000Y-83400000D03*
D19*
X145175000Y-83900000D03*
D21*
X144675000Y-84200000D03*
X144175000Y-84200000D03*
X143675000Y-84200000D03*
X143175000Y-84200000D03*
D22*
X143925000Y-82650000D03*
D13*
X143425000Y-83150000D03*
X144425000Y-82150000D03*
D23*
X134975540Y-88500000D03*
X128874460Y-88500000D03*
D24*
X138270000Y-72635000D03*
X138270000Y-71365000D03*
X137000000Y-72635000D03*
X137000000Y-71365000D03*
X135730000Y-72635000D03*
X135730000Y-71365000D03*
X130270000Y-72635000D03*
X130270000Y-71365000D03*
X129000000Y-72635000D03*
X129000000Y-71365000D03*
X127730000Y-72635000D03*
X127730000Y-71365000D03*
D25*
X136875000Y-80500760D03*
X134975000Y-80500760D03*
X135925000Y-78501780D03*
D26*
X144199500Y-78500000D03*
X142650500Y-78500000D03*
X139999500Y-78500000D03*
X138450500Y-78500000D03*
D27*
X150865000Y-71700000D03*
D28*
X148325000Y-71700000D03*
X145785000Y-71700000D03*
D29*
X157625000Y-79449500D03*
X157625000Y-77900500D03*
X157625000Y-84325500D03*
X157625000Y-85874500D03*
X157625000Y-88874500D03*
X157625000Y-87325500D03*
D26*
X156399500Y-76200000D03*
X154850500Y-76200000D03*
X156199500Y-88300000D03*
X154650500Y-88300000D03*
D30*
X161000000Y-82900000D03*
X161000000Y-89100000D03*
X161000000Y-81100000D03*
X161000000Y-74900000D03*
D29*
X138625000Y-92474500D03*
X138625000Y-90925500D03*
D26*
X140199500Y-82300000D03*
X138650500Y-82300000D03*
D31*
X126600000Y-75500000D03*
X167600000Y-91200000D03*
D13*
X129525000Y-82700000D03*
X145275000Y-76950000D03*
X143325000Y-74400000D03*
X147450000Y-84625000D03*
X135325000Y-77500000D03*
X140725000Y-76900000D03*
X138025000Y-83200000D03*
X151825000Y-90500000D03*
X150825000Y-90500000D03*
X149825000Y-90500000D03*
X140925000Y-90450000D03*
X139925000Y-80400000D03*
X140075000Y-90450000D03*
X139325000Y-79800000D03*
X143925000Y-89200000D03*
X143925000Y-85700000D03*
X143225000Y-89600000D03*
X143125000Y-85700000D03*
X158650000Y-85525000D03*
X158650000Y-86300000D03*
X158650000Y-87050000D03*
X134225000Y-90175000D03*
X156350000Y-84275000D03*
X156300000Y-79725000D03*
X142125000Y-89550000D03*
X141450000Y-83075000D03*
X141525000Y-88900000D03*
X141425000Y-85500000D03*
X138725000Y-89400000D03*
X141325000Y-81600000D03*
X156325000Y-78950000D03*
X147825000Y-86200000D03*
X159225000Y-79900000D03*
X157125000Y-81700000D03*
X158450000Y-82325000D03*
X158725000Y-83800000D03*
X144625000Y-85300000D03*
X154825000Y-87125000D03*
X150525000Y-78400000D03*
X147625000Y-76000000D03*
X142475000Y-76875000D03*
X146575000Y-84025000D03*
X129475000Y-74950000D03*
X138025000Y-81100000D03*
X130025000Y-81500000D03*
X136825000Y-82100000D03*
X134825000Y-76200000D03*
X128325000Y-76300000D03*
X147725000Y-83050000D03*
X135325000Y-83600000D03*
X147725000Y-82300000D03*
X127125000Y-82000000D03*
X129675000Y-80075000D03*
X147725000Y-77500000D03*
X147725000Y-81550000D03*
X140925000Y-89600000D03*
X140625000Y-81000000D03*
X144225000Y-94225000D03*
X127025000Y-78775000D03*
X145325000Y-87350000D03*
X134125000Y-86400000D03*
X134025000Y-81400000D03*
X144825000Y-91375000D03*
X127025000Y-80725000D03*
X146050000Y-84775000D03*
X150125000Y-89325000D03*
D32*
X142375000Y-82900000D02*
X143675000Y-82900000D01*
X143675000Y-82900000D02*
X143925000Y-82650000D01*
D33*
X128874460Y-88500000D02*
X128874460Y-88449460D01*
X128874460Y-88449460D02*
X128125000Y-87700000D01*
X128125000Y-87700000D02*
X128125000Y-84700000D01*
D34*
X128125000Y-84700000D02*
X129525000Y-83300000D01*
X129525000Y-83300000D02*
X129525000Y-82700000D01*
D35*
X145475000Y-81900000D02*
X144675000Y-81900000D01*
X144675000Y-81900000D02*
X143925000Y-82650000D01*
D32*
X159499600Y-102301240D02*
X159499600Y-100000000D01*
X158498840Y-102301240D02*
X158498840Y-100000000D01*
X157500620Y-102301240D02*
X157500620Y-100000000D01*
X156499860Y-102301240D02*
X156499860Y-100000000D01*
X155499100Y-102301240D02*
X155499100Y-100000000D01*
X154500880Y-102301240D02*
X154500880Y-100000000D01*
X153500120Y-102301240D02*
X153500120Y-100000000D01*
X152499360Y-102301240D02*
X152499360Y-100000000D01*
X144199500Y-78500000D02*
X144199500Y-78025500D01*
X144199500Y-78025500D02*
X145275000Y-76950000D01*
X149200000Y-84925000D02*
X147750000Y-84925000D01*
X147750000Y-84925000D02*
X147450000Y-84625000D01*
D35*
X140175000Y-82300000D02*
X140175000Y-82850000D01*
X139825000Y-83200000D02*
X138025000Y-83200000D01*
X140175000Y-82850000D02*
X139825000Y-83200000D01*
D36*
X151501140Y-100000000D02*
X151501140Y-90823860D01*
X151501140Y-90823860D02*
X151825000Y-90500000D01*
X150500380Y-100000000D02*
X150500380Y-90824620D01*
X150500380Y-90824620D02*
X150825000Y-90500000D01*
X149499620Y-100000000D02*
X149499620Y-90825380D01*
X149499620Y-90825380D02*
X149825000Y-90500000D01*
D35*
X142375000Y-82400000D02*
X140275000Y-82400000D01*
X140275000Y-82400000D02*
X140175000Y-82300000D01*
X149499620Y-100000000D02*
X150500380Y-100000000D01*
X150500380Y-100000000D02*
X151501140Y-100000000D01*
D32*
X151501140Y-102301240D02*
X151501140Y-100000000D01*
X150500380Y-102301240D02*
X150500380Y-100000000D01*
X149499620Y-102301240D02*
X149499620Y-100000000D01*
D35*
X144500900Y-100000000D02*
X144500900Y-97175900D01*
X141425000Y-90450000D02*
X140925000Y-90450000D01*
X142225000Y-91250000D02*
X141425000Y-90450000D01*
X142225000Y-94900000D02*
X142225000Y-91250000D01*
X144500900Y-97175900D02*
X142225000Y-94900000D01*
D32*
X144500900Y-102301240D02*
X144500900Y-100000000D01*
D35*
X143175000Y-81050000D02*
X142625000Y-80500000D01*
X141125000Y-80400000D02*
X139925000Y-80400000D01*
X141225000Y-80500000D02*
X141125000Y-80400000D01*
X142625000Y-80500000D02*
X141225000Y-80500000D01*
X143175000Y-81100000D02*
X143175000Y-81050000D01*
X143500140Y-100000000D02*
X143500140Y-96775140D01*
X140075000Y-90950000D02*
X140075000Y-90450000D01*
X140325000Y-91200000D02*
X140075000Y-90950000D01*
X141275000Y-91200000D02*
X140325000Y-91200000D01*
X141775000Y-91700000D02*
X141275000Y-91200000D01*
X141775000Y-95050000D02*
X141775000Y-91700000D01*
X143500140Y-96775140D02*
X141775000Y-95050000D01*
D32*
X143500140Y-102301240D02*
X143500140Y-100000000D01*
D35*
X143675000Y-80450000D02*
X143325000Y-80100000D01*
X143675000Y-80450000D02*
X143675000Y-81100000D01*
X140125000Y-79800000D02*
X139325000Y-79800000D01*
X140325000Y-80000000D02*
X140125000Y-79800000D01*
X141325000Y-80000000D02*
X140325000Y-80000000D01*
X141425000Y-80100000D02*
X141325000Y-80000000D01*
X143325000Y-80100000D02*
X141425000Y-80100000D01*
X146499880Y-97574880D02*
X143125000Y-94200000D01*
X143125000Y-94200000D02*
X143125000Y-91800000D01*
X143125000Y-91800000D02*
X143425000Y-91500000D01*
X143425000Y-91500000D02*
X143425000Y-90700000D01*
X143425000Y-90700000D02*
X143925000Y-90200000D01*
X143925000Y-90200000D02*
X143925000Y-89200000D01*
X146499880Y-97574880D02*
X146499880Y-100000000D01*
X143675000Y-85450000D02*
X143925000Y-85700000D01*
X143675000Y-85450000D02*
X143675000Y-84200000D01*
D32*
X146499880Y-102301240D02*
X146499880Y-100000000D01*
D35*
X145499120Y-97474120D02*
X142725000Y-94700000D01*
X142725000Y-94700000D02*
X142725000Y-91600000D01*
X142725000Y-91600000D02*
X143025000Y-91300000D01*
X143025000Y-91300000D02*
X143025000Y-90600000D01*
X143025000Y-90600000D02*
X143225000Y-90400000D01*
X143225000Y-90400000D02*
X143225000Y-89600000D01*
X145499120Y-100000000D02*
X145499120Y-97474120D01*
X143175000Y-85650000D02*
X143125000Y-85700000D01*
X143175000Y-85650000D02*
X143175000Y-84200000D01*
D32*
X145499120Y-102301240D02*
X145499120Y-100000000D01*
D34*
X134975540Y-88500000D02*
X134975540Y-89424460D01*
X134975540Y-89424460D02*
X134225000Y-90175000D01*
D37*
X156300000Y-79725000D02*
X157325000Y-79725000D01*
X157325000Y-79725000D02*
X157625000Y-79425000D01*
X157625000Y-84350000D02*
X156425000Y-84350000D01*
X156425000Y-84350000D02*
X156350000Y-84275000D01*
X156350000Y-84275000D02*
X154800000Y-84275000D01*
X154800000Y-79725000D02*
X156300000Y-79725000D01*
X154900000Y-79725000D02*
X154925000Y-79750000D01*
D32*
X142375000Y-83400000D02*
X141775000Y-83400000D01*
X141775000Y-83400000D02*
X141450000Y-83075000D01*
D35*
X142375000Y-83400000D02*
X142325000Y-83400000D01*
X142375000Y-83400000D02*
X142375000Y-83450000D01*
X141425000Y-85500000D02*
X141575000Y-85500000D01*
X142675000Y-84400000D02*
X142675000Y-83900000D01*
X141575000Y-85500000D02*
X142675000Y-84400000D01*
X141625000Y-81900000D02*
X141325000Y-81600000D01*
X142375000Y-81900000D02*
X141625000Y-81900000D01*
D32*
X157625000Y-88850000D02*
X157225000Y-88850000D01*
X156675000Y-88300000D02*
X156175000Y-88300000D01*
X157225000Y-88850000D02*
X156675000Y-88300000D01*
X156175000Y-88300000D02*
X156175000Y-85825000D01*
X156175000Y-85825000D02*
X155925000Y-85575000D01*
X155925000Y-85575000D02*
X154800000Y-85575000D01*
D37*
X154800000Y-84925000D02*
X154800000Y-85575000D01*
D35*
X154800000Y-78425000D02*
X155850000Y-78425000D01*
X156300000Y-77975000D02*
X156300000Y-76275000D01*
X155850000Y-78425000D02*
X156300000Y-77975000D01*
X156300000Y-76275000D02*
X156375000Y-76200000D01*
X154800000Y-77775000D02*
X154800000Y-76275000D01*
X154800000Y-76275000D02*
X154875000Y-76200000D01*
D37*
X156200000Y-79075000D02*
X156325000Y-78950000D01*
X154800000Y-79075000D02*
X156200000Y-79075000D01*
D35*
X149200000Y-86225000D02*
X147850000Y-86225000D01*
X147850000Y-86225000D02*
X147825000Y-86200000D01*
D37*
X157800000Y-80375000D02*
X158025000Y-80600000D01*
X158025000Y-80600000D02*
X158525000Y-80600000D01*
X158525000Y-80600000D02*
X159225000Y-79900000D01*
X157800000Y-80375000D02*
X154800000Y-80375000D01*
X157100000Y-81675000D02*
X157125000Y-81700000D01*
X154800000Y-81675000D02*
X157100000Y-81675000D01*
X154800000Y-82325000D02*
X158450000Y-82325000D01*
X158550000Y-83625000D02*
X158725000Y-83800000D01*
X154800000Y-83625000D02*
X158550000Y-83625000D01*
D32*
X154825000Y-87300000D02*
X154675000Y-87450000D01*
X154675000Y-88300000D02*
X154675000Y-87450000D01*
D35*
X144175000Y-84850000D02*
X144175000Y-84200000D01*
X144175000Y-84850000D02*
X144625000Y-85300000D01*
D32*
X154825000Y-87125000D02*
X154825000Y-87300000D01*
D37*
X154800000Y-82975000D02*
X157625000Y-82975000D01*
X157750000Y-83100000D02*
X160800000Y-83100000D01*
X157625000Y-82975000D02*
X157750000Y-83100000D01*
X160800000Y-83100000D02*
X161000000Y-82900000D01*
D38*
X160925000Y-82975000D02*
X161000000Y-82900000D01*
D37*
X161925000Y-82975000D02*
X162000000Y-82900000D01*
D35*
X150500000Y-78425000D02*
X150525000Y-78400000D01*
X149200000Y-78425000D02*
X150500000Y-78425000D01*
X144175000Y-81100000D02*
X144175000Y-80550000D01*
X148200000Y-78425000D02*
X149200000Y-78425000D01*
X148000000Y-78625000D02*
X148200000Y-78425000D01*
X148000000Y-78980022D02*
X148000000Y-78625000D01*
X146630022Y-80350000D02*
X148000000Y-78980022D01*
X144375000Y-80350000D02*
X146630022Y-80350000D01*
X144175000Y-80550000D02*
X144375000Y-80350000D01*
D37*
X154800000Y-81025000D02*
X157650000Y-81025000D01*
X158025000Y-81400000D02*
X160700000Y-81400000D01*
X157650000Y-81025000D02*
X158025000Y-81400000D01*
X160700000Y-81400000D02*
X161000000Y-81100000D01*
D38*
X161100000Y-81500000D02*
X161500000Y-81100000D01*
D37*
X161925000Y-81025000D02*
X162000000Y-81100000D01*
D32*
X142650500Y-78500000D02*
X142475000Y-78324500D01*
X142475000Y-78324500D02*
X142475000Y-76875000D01*
X139999500Y-78500000D02*
X142650500Y-78500000D01*
X146575000Y-84025000D02*
X148025000Y-84025000D01*
X148275000Y-84275000D02*
X149200000Y-84275000D01*
X148025000Y-84025000D02*
X148275000Y-84275000D01*
D35*
X145950000Y-83400000D02*
X146575000Y-84025000D01*
X145950000Y-83400000D02*
X145475000Y-83400000D01*
D32*
X149200000Y-85575000D02*
X145550000Y-85575000D01*
X145175000Y-84700000D02*
X144675000Y-84200000D01*
X145175000Y-85200000D02*
X145175000Y-84700000D01*
X145550000Y-85575000D02*
X145175000Y-85200000D01*
D35*
X145475000Y-82900000D02*
X146750000Y-82900000D01*
X147475000Y-83625000D02*
X149200000Y-83625000D01*
X146750000Y-82900000D02*
X147475000Y-83625000D01*
X145475000Y-82400000D02*
X146875000Y-82400000D01*
X148150000Y-80375000D02*
X149200000Y-80375000D01*
X148000000Y-80525000D02*
X148150000Y-80375000D01*
X148000000Y-80825000D02*
X148000000Y-80525000D01*
X147850000Y-80975000D02*
X148000000Y-80825000D01*
X147500000Y-80975000D02*
X147850000Y-80975000D01*
X147150000Y-81325000D02*
X147500000Y-80975000D01*
X147150000Y-82125000D02*
X147150000Y-81325000D01*
X146875000Y-82400000D02*
X147150000Y-82125000D01*
X145175000Y-81400000D02*
X146580022Y-81400000D01*
X148255022Y-79725000D02*
X149200000Y-79725000D01*
X146580022Y-81400000D02*
X148255022Y-79725000D01*
X149200000Y-79075000D02*
X148400000Y-79075000D01*
X146525000Y-80950000D02*
X144825000Y-80950000D01*
X148400000Y-79075000D02*
X146525000Y-80950000D01*
X144825000Y-80950000D02*
X144675000Y-81100000D01*
X147800000Y-82975000D02*
X147725000Y-83050000D01*
X149200000Y-82975000D02*
X147800000Y-82975000D01*
X149200000Y-82325000D02*
X147750000Y-82325000D01*
X147750000Y-82325000D02*
X147725000Y-82300000D01*
X149200000Y-81675000D02*
X147850000Y-81675000D01*
X147850000Y-81675000D02*
X147725000Y-81550000D01*
D32*
X140625000Y-81000000D02*
X139275000Y-81000000D01*
X138775760Y-80500760D02*
X136875000Y-80500760D01*
X139275000Y-81000000D02*
X138775760Y-80500760D01*
X138625000Y-90950000D02*
X138625000Y-90600000D01*
X139625000Y-89600000D02*
X140925000Y-89600000D01*
X138625000Y-90600000D02*
X139625000Y-89600000D01*
D35*
X142225000Y-81400000D02*
X141825000Y-81000000D01*
X141825000Y-81000000D02*
X140625000Y-81000000D01*
X142675000Y-81400000D02*
X142225000Y-81400000D01*
D32*
X142499380Y-102301240D02*
X142499380Y-100000000D01*
X140500400Y-100000000D02*
X140500400Y-93775400D01*
X139175000Y-92450000D02*
X138625000Y-92450000D01*
X140500400Y-93775400D02*
X139175000Y-92450000D01*
X140500400Y-102301240D02*
X140500400Y-100000000D01*
X138450500Y-78500000D02*
X135926780Y-78500000D01*
X135926780Y-78500000D02*
X135925000Y-78501780D01*
X145175000Y-83900000D02*
X146050000Y-84775000D01*
D35*
G36*
X134775000Y-73800000D02*
X134781839Y-73836346D01*
X134803319Y-73869727D01*
X134836094Y-73892121D01*
X134875000Y-73900000D01*
X139125000Y-73900000D01*
X139161346Y-73893161D01*
X139194727Y-73871681D01*
X139217121Y-73838906D01*
X139225000Y-73800000D01*
X139225000Y-71725000D01*
X144821400Y-71725000D01*
X144821400Y-71877400D01*
X144904317Y-72244251D01*
X145121310Y-72551446D01*
X145439344Y-72752217D01*
X145609618Y-72799906D01*
X145760000Y-72790667D01*
X145760000Y-71725000D01*
X145810000Y-71725000D01*
X145810000Y-72790667D01*
X145960382Y-72799906D01*
X146130656Y-72752217D01*
X146448690Y-72551446D01*
X146665683Y-72244251D01*
X146748600Y-71877400D01*
X146748600Y-71725000D01*
X145810000Y-71725000D01*
X145760000Y-71725000D01*
X144821400Y-71725000D01*
X139225000Y-71725000D01*
X139225000Y-71522600D01*
X144821400Y-71522600D01*
X144821400Y-71675000D01*
X145760000Y-71675000D01*
X145760000Y-70609333D01*
X145810000Y-70609333D01*
X145810000Y-71675000D01*
X146748600Y-71675000D01*
X146748600Y-71522600D01*
X146665683Y-71155749D01*
X146448690Y-70848554D01*
X146130656Y-70647783D01*
X145960382Y-70600094D01*
X145810000Y-70609333D01*
X145760000Y-70609333D01*
X145609618Y-70600094D01*
X145439344Y-70647783D01*
X145121310Y-70848554D01*
X144904317Y-71155749D01*
X144821400Y-71522600D01*
X139225000Y-71522600D01*
X139225000Y-70395000D01*
X148037566Y-70395000D01*
X147872056Y-70427922D01*
X147488068Y-70684494D01*
X147231496Y-71068482D01*
X147141400Y-71521426D01*
X147141400Y-71878574D01*
X147231496Y-72331518D01*
X147488068Y-72715506D01*
X147872056Y-72972078D01*
X148325000Y-73062174D01*
X148777944Y-72972078D01*
X149161932Y-72715506D01*
X149418504Y-72331518D01*
X149508600Y-71878574D01*
X149508600Y-71521426D01*
X149418504Y-71068482D01*
X149161932Y-70684494D01*
X148777944Y-70427922D01*
X148612434Y-70395000D01*
X149859573Y-70395000D01*
X149773902Y-70450128D01*
X149700836Y-70557063D01*
X149675131Y-70684000D01*
X149675131Y-72716000D01*
X149697444Y-72834585D01*
X149767528Y-72943498D01*
X149874463Y-73016564D01*
X150001400Y-73042269D01*
X151728600Y-73042269D01*
X151847185Y-73019956D01*
X151956098Y-72949872D01*
X152029164Y-72842937D01*
X152054869Y-72716000D01*
X152054869Y-70684000D01*
X152032556Y-70565415D01*
X151962472Y-70456502D01*
X151872461Y-70395000D01*
X169561098Y-70395000D01*
X169597716Y-70402284D01*
X169605000Y-70438903D01*
X169605000Y-76979843D01*
X165725769Y-76950003D01*
X165686804Y-76957582D01*
X165653858Y-76979724D01*
X165632121Y-77012939D01*
X165625000Y-77050000D01*
X165625000Y-87100000D01*
X165632879Y-87138906D01*
X165655273Y-87171681D01*
X165688654Y-87193161D01*
X165725000Y-87200000D01*
X169605000Y-87200000D01*
X169605000Y-93061097D01*
X169597716Y-93097716D01*
X169586234Y-93100000D01*
X159800000Y-93100000D01*
X159761094Y-93107879D01*
X159728319Y-93130273D01*
X159706839Y-93163654D01*
X159700000Y-93200000D01*
X159700000Y-102200000D01*
X152152529Y-102200000D01*
X152152529Y-97700030D01*
X152130216Y-97581445D01*
X152071140Y-97489639D01*
X152071140Y-91471314D01*
X166229763Y-91471314D01*
X166437893Y-91975029D01*
X166822944Y-92360752D01*
X167326295Y-92569762D01*
X167871314Y-92570237D01*
X168375029Y-92362107D01*
X168760752Y-91977056D01*
X168969762Y-91473705D01*
X168970237Y-90928686D01*
X168762107Y-90424971D01*
X168377056Y-90039248D01*
X167873705Y-89830238D01*
X167328686Y-89829763D01*
X166824971Y-90037893D01*
X166439248Y-90422944D01*
X166230238Y-90926295D01*
X166229763Y-91471314D01*
X152071140Y-91471314D01*
X152071140Y-91069138D01*
X152175743Y-91025917D01*
X152350304Y-90851661D01*
X152444893Y-90623867D01*
X152445108Y-90377215D01*
X152350917Y-90149257D01*
X152176661Y-89974696D01*
X151948867Y-89880107D01*
X151702215Y-89879892D01*
X151474257Y-89974083D01*
X151324892Y-90123187D01*
X151176661Y-89974696D01*
X150948867Y-89880107D01*
X150702215Y-89879892D01*
X150474257Y-89974083D01*
X150324892Y-90123187D01*
X150176661Y-89974696D01*
X150105106Y-89944984D01*
X150247785Y-89945108D01*
X150475743Y-89850917D01*
X150650304Y-89676661D01*
X150744893Y-89448867D01*
X150745108Y-89202215D01*
X150650917Y-88974257D01*
X150476661Y-88799696D01*
X150248867Y-88705107D01*
X150002215Y-88704892D01*
X149774257Y-88799083D01*
X149599696Y-88973339D01*
X149505107Y-89201133D01*
X149504892Y-89447785D01*
X149599083Y-89675743D01*
X149773339Y-89850304D01*
X149844894Y-89880016D01*
X149702215Y-89879892D01*
X149474257Y-89974083D01*
X149299696Y-90148339D01*
X149249376Y-90269522D01*
X149096569Y-90422329D01*
X148973009Y-90607250D01*
X148929620Y-90825380D01*
X148929620Y-92900000D01*
X143545000Y-92900000D01*
X143545000Y-91973970D01*
X143721985Y-91796985D01*
X143813029Y-91660727D01*
X143845000Y-91500000D01*
X143845000Y-91497785D01*
X144204892Y-91497785D01*
X144299083Y-91725743D01*
X144473339Y-91900304D01*
X144701133Y-91994893D01*
X144947785Y-91995108D01*
X145175743Y-91900917D01*
X145350304Y-91726661D01*
X145444893Y-91498867D01*
X145445108Y-91252215D01*
X145350917Y-91024257D01*
X145176661Y-90849696D01*
X144948867Y-90755107D01*
X144702215Y-90754892D01*
X144474257Y-90849083D01*
X144299696Y-91023339D01*
X144205107Y-91251133D01*
X144204892Y-91497785D01*
X143845000Y-91497785D01*
X143845000Y-90873970D01*
X144221985Y-90496985D01*
X144313029Y-90360727D01*
X144345000Y-90200000D01*
X144345000Y-89656781D01*
X144450304Y-89551661D01*
X144544893Y-89323867D01*
X144545108Y-89077215D01*
X144450917Y-88849257D01*
X144276661Y-88674696D01*
X144048867Y-88580107D01*
X143802215Y-88579892D01*
X143574257Y-88674083D01*
X143399696Y-88848339D01*
X143344982Y-88980104D01*
X143102215Y-88979892D01*
X142874257Y-89074083D01*
X142699696Y-89248339D01*
X142685412Y-89282740D01*
X142650917Y-89199257D01*
X142476661Y-89024696D01*
X142248867Y-88930107D01*
X142144975Y-88930016D01*
X142145108Y-88777215D01*
X142050917Y-88549257D01*
X141876661Y-88374696D01*
X141648867Y-88280107D01*
X141402215Y-88279892D01*
X141174257Y-88374083D01*
X140999696Y-88548339D01*
X140905107Y-88776133D01*
X140904929Y-88979982D01*
X140802215Y-88979892D01*
X140574257Y-89074083D01*
X140443111Y-89205000D01*
X139625000Y-89205000D01*
X139473840Y-89235068D01*
X139376513Y-89300100D01*
X139345693Y-89320693D01*
X139345070Y-89321316D01*
X139345108Y-89277215D01*
X139250917Y-89049257D01*
X139076661Y-88874696D01*
X138848867Y-88780107D01*
X138602215Y-88779892D01*
X138374257Y-88874083D01*
X138199696Y-89048339D01*
X138105107Y-89276133D01*
X138104892Y-89522785D01*
X138199083Y-89750743D01*
X138373339Y-89925304D01*
X138601133Y-90019893D01*
X138646453Y-90019933D01*
X138460655Y-90205731D01*
X138193000Y-90205731D01*
X138074415Y-90228044D01*
X137965502Y-90298128D01*
X137892436Y-90405063D01*
X137866731Y-90532000D01*
X137866731Y-91319000D01*
X137889044Y-91437585D01*
X137959128Y-91546498D01*
X138066063Y-91619564D01*
X138193000Y-91645269D01*
X139057000Y-91645269D01*
X139175585Y-91622956D01*
X139284498Y-91552872D01*
X139357564Y-91445937D01*
X139383269Y-91319000D01*
X139383269Y-90532000D01*
X139362420Y-90421194D01*
X139455105Y-90328509D01*
X139454892Y-90572785D01*
X139549083Y-90800743D01*
X139655000Y-90906845D01*
X139655000Y-90950000D01*
X139686971Y-91110727D01*
X139778015Y-91246985D01*
X140028015Y-91496985D01*
X140164273Y-91588029D01*
X140325000Y-91620000D01*
X141101030Y-91620000D01*
X141355000Y-91873970D01*
X141355000Y-92900000D01*
X140183614Y-92900000D01*
X139454307Y-92170693D01*
X139383269Y-92123227D01*
X139383269Y-92081000D01*
X139360956Y-91962415D01*
X139290872Y-91853502D01*
X139183937Y-91780436D01*
X139057000Y-91754731D01*
X138193000Y-91754731D01*
X138074415Y-91777044D01*
X137965502Y-91847128D01*
X137892436Y-91954063D01*
X137866731Y-92081000D01*
X137866731Y-92868000D01*
X137872752Y-92900000D01*
X137525000Y-92900000D01*
X137525000Y-87472785D01*
X144704892Y-87472785D01*
X144799083Y-87700743D01*
X144973339Y-87875304D01*
X145201133Y-87969893D01*
X145447785Y-87970108D01*
X145675743Y-87875917D01*
X145683673Y-87868000D01*
X153930731Y-87868000D01*
X153930731Y-88732000D01*
X153953044Y-88850585D01*
X154023128Y-88959498D01*
X154130063Y-89032564D01*
X154257000Y-89058269D01*
X155044000Y-89058269D01*
X155162585Y-89035956D01*
X155271498Y-88965872D01*
X155344564Y-88858937D01*
X155370269Y-88732000D01*
X155370269Y-87868000D01*
X155347956Y-87749415D01*
X155277872Y-87640502D01*
X155223436Y-87603307D01*
X155350304Y-87476661D01*
X155444893Y-87248867D01*
X155445108Y-87002215D01*
X155350917Y-86774257D01*
X155176661Y-86599696D01*
X154948867Y-86505107D01*
X154702215Y-86504892D01*
X154474257Y-86599083D01*
X154299696Y-86773339D01*
X154205107Y-87001133D01*
X154204892Y-87247785D01*
X154282745Y-87436202D01*
X154280000Y-87450000D01*
X154280000Y-87541731D01*
X154257000Y-87541731D01*
X154138415Y-87564044D01*
X154029502Y-87634128D01*
X153956436Y-87741063D01*
X153930731Y-87868000D01*
X145683673Y-87868000D01*
X145850304Y-87701661D01*
X145944893Y-87473867D01*
X145945108Y-87227215D01*
X145850917Y-86999257D01*
X145676661Y-86824696D01*
X145448867Y-86730107D01*
X145202215Y-86729892D01*
X144974257Y-86824083D01*
X144799696Y-86998339D01*
X144705107Y-87226133D01*
X144704892Y-87472785D01*
X137525000Y-87472785D01*
X137525000Y-83900000D01*
X137517121Y-83861094D01*
X137494727Y-83828319D01*
X137461346Y-83806839D01*
X137425000Y-83800000D01*
X135913280Y-83800000D01*
X135944893Y-83723867D01*
X135945108Y-83477215D01*
X135850917Y-83249257D01*
X135676661Y-83074696D01*
X135448867Y-82980107D01*
X135202215Y-82979892D01*
X134974257Y-83074083D01*
X134799696Y-83248339D01*
X134705107Y-83476133D01*
X134704892Y-83722785D01*
X134736797Y-83800000D01*
X131250000Y-83800000D01*
X131211094Y-83807879D01*
X131178319Y-83830273D01*
X131156839Y-83863654D01*
X131150000Y-83900000D01*
X131150000Y-89775000D01*
X126575000Y-89775000D01*
X126575000Y-88550000D01*
X126774210Y-88550000D01*
X126774210Y-89319991D01*
X126789434Y-89356746D01*
X126817565Y-89384876D01*
X126854319Y-89400100D01*
X128824460Y-89400100D01*
X128849460Y-89375100D01*
X128849460Y-88525000D01*
X128899460Y-88525000D01*
X128899460Y-89375100D01*
X128924460Y-89400100D01*
X130894601Y-89400100D01*
X130931355Y-89384876D01*
X130959486Y-89356746D01*
X130974710Y-89319991D01*
X130974710Y-88550000D01*
X130949710Y-88525000D01*
X128899460Y-88525000D01*
X128849460Y-88525000D01*
X126799210Y-88525000D01*
X126774210Y-88550000D01*
X126575000Y-88550000D01*
X126575000Y-87680009D01*
X126774210Y-87680009D01*
X126774210Y-88450000D01*
X126799210Y-88475000D01*
X128849460Y-88475000D01*
X128849460Y-87624900D01*
X128899460Y-87624900D01*
X128899460Y-88475000D01*
X130949710Y-88475000D01*
X130974710Y-88450000D01*
X130974710Y-87680009D01*
X130959486Y-87643254D01*
X130931355Y-87615124D01*
X130894601Y-87599900D01*
X128924460Y-87599900D01*
X128899460Y-87624900D01*
X128849460Y-87624900D01*
X128824460Y-87599900D01*
X126854319Y-87599900D01*
X126817565Y-87615124D01*
X126789434Y-87643254D01*
X126774210Y-87680009D01*
X126575000Y-87680009D01*
X126575000Y-83900000D01*
X126567121Y-83861094D01*
X126544727Y-83828319D01*
X126511346Y-83806839D01*
X126475000Y-83800000D01*
X125395000Y-83800000D01*
X125395000Y-82122785D01*
X126504892Y-82122785D01*
X126599083Y-82350743D01*
X126773339Y-82525304D01*
X127001133Y-82619893D01*
X127247785Y-82620108D01*
X127475743Y-82525917D01*
X127650304Y-82351661D01*
X127703818Y-82222785D01*
X136204892Y-82222785D01*
X136299083Y-82450743D01*
X136473339Y-82625304D01*
X136701133Y-82719893D01*
X136947785Y-82720108D01*
X137175743Y-82625917D01*
X137350304Y-82451661D01*
X137444893Y-82223867D01*
X137445108Y-81977215D01*
X137391763Y-81848109D01*
X138157000Y-81848109D01*
X138157000Y-82250000D01*
X138182000Y-82275000D01*
X138625500Y-82275000D01*
X138625500Y-81793000D01*
X138675500Y-81793000D01*
X138675500Y-82275000D01*
X139119000Y-82275000D01*
X139144000Y-82250000D01*
X139144000Y-81848109D01*
X139128776Y-81811354D01*
X139100645Y-81783224D01*
X139063891Y-81768000D01*
X138700500Y-81768000D01*
X138675500Y-81793000D01*
X138625500Y-81793000D01*
X138600500Y-81768000D01*
X138237109Y-81768000D01*
X138200355Y-81783224D01*
X138172224Y-81811354D01*
X138157000Y-81848109D01*
X137391763Y-81848109D01*
X137350917Y-81749257D01*
X137176661Y-81574696D01*
X136948867Y-81480107D01*
X136702215Y-81479892D01*
X136474257Y-81574083D01*
X136299696Y-81748339D01*
X136205107Y-81976133D01*
X136204892Y-82222785D01*
X127703818Y-82222785D01*
X127744893Y-82123867D01*
X127745108Y-81877215D01*
X127650917Y-81649257D01*
X127624492Y-81622785D01*
X129404892Y-81622785D01*
X129499083Y-81850743D01*
X129673339Y-82025304D01*
X129901133Y-82119893D01*
X130147785Y-82120108D01*
X130375743Y-82025917D01*
X130550304Y-81851661D01*
X130644893Y-81623867D01*
X130644981Y-81522785D01*
X133404892Y-81522785D01*
X133499083Y-81750743D01*
X133673339Y-81925304D01*
X133901133Y-82019893D01*
X134147785Y-82020108D01*
X134375743Y-81925917D01*
X134550304Y-81751661D01*
X134644893Y-81523867D01*
X134645108Y-81277215D01*
X134550917Y-81049257D01*
X134376661Y-80874696D01*
X134148867Y-80780107D01*
X133902215Y-80779892D01*
X133674257Y-80874083D01*
X133499696Y-81048339D01*
X133405107Y-81276133D01*
X133404892Y-81522785D01*
X130644981Y-81522785D01*
X130645108Y-81377215D01*
X130550917Y-81149257D01*
X130376661Y-80974696D01*
X130148867Y-80880107D01*
X129902215Y-80879892D01*
X129674257Y-80974083D01*
X129499696Y-81148339D01*
X129405107Y-81376133D01*
X129404892Y-81622785D01*
X127624492Y-81622785D01*
X127476661Y-81474696D01*
X127248867Y-81380107D01*
X127002215Y-81379892D01*
X126774257Y-81474083D01*
X126599696Y-81648339D01*
X126505107Y-81876133D01*
X126504892Y-82122785D01*
X125395000Y-82122785D01*
X125395000Y-80847785D01*
X126404892Y-80847785D01*
X126499083Y-81075743D01*
X126673339Y-81250304D01*
X126901133Y-81344893D01*
X127147785Y-81345108D01*
X127375743Y-81250917D01*
X127550304Y-81076661D01*
X127644893Y-80848867D01*
X127645108Y-80602215D01*
X127550917Y-80374257D01*
X127376661Y-80199696D01*
X127372059Y-80197785D01*
X129054892Y-80197785D01*
X129149083Y-80425743D01*
X129323339Y-80600304D01*
X129551133Y-80694893D01*
X129797785Y-80695108D01*
X130025743Y-80600917D01*
X130075987Y-80550760D01*
X134474950Y-80550760D01*
X134474950Y-80920701D01*
X134490174Y-80957456D01*
X134518305Y-80985586D01*
X134555059Y-81000810D01*
X134925000Y-81000810D01*
X134950000Y-80975810D01*
X134950000Y-80525760D01*
X135000000Y-80525760D01*
X135000000Y-80975810D01*
X135025000Y-81000810D01*
X135394941Y-81000810D01*
X135431695Y-80985586D01*
X135459826Y-80957456D01*
X135475050Y-80920701D01*
X135475050Y-80550760D01*
X135450050Y-80525760D01*
X135000000Y-80525760D01*
X134950000Y-80525760D01*
X134499950Y-80525760D01*
X134474950Y-80550760D01*
X130075987Y-80550760D01*
X130200304Y-80426661D01*
X130294893Y-80198867D01*
X130294995Y-80080819D01*
X134474950Y-80080819D01*
X134474950Y-80450760D01*
X134499950Y-80475760D01*
X134950000Y-80475760D01*
X134950000Y-80025710D01*
X135000000Y-80025710D01*
X135000000Y-80475760D01*
X135450050Y-80475760D01*
X135475050Y-80450760D01*
X135475050Y-80100710D01*
X136148681Y-80100710D01*
X136148681Y-80900810D01*
X136170994Y-81019395D01*
X136241078Y-81128308D01*
X136348013Y-81201374D01*
X136474950Y-81227079D01*
X137275050Y-81227079D01*
X137393635Y-81204766D01*
X137404914Y-81197508D01*
X137404892Y-81222785D01*
X137499083Y-81450743D01*
X137673339Y-81625304D01*
X137901133Y-81719893D01*
X138147785Y-81720108D01*
X138375743Y-81625917D01*
X138550304Y-81451661D01*
X138644893Y-81223867D01*
X138645108Y-80977215D01*
X138611451Y-80895760D01*
X138612146Y-80895760D01*
X138995693Y-81279307D01*
X139123840Y-81364932D01*
X139275000Y-81395000D01*
X140143263Y-81395000D01*
X140273339Y-81525304D01*
X140312899Y-81541731D01*
X139806000Y-81541731D01*
X139687415Y-81564044D01*
X139578502Y-81634128D01*
X139505436Y-81741063D01*
X139479731Y-81868000D01*
X139479731Y-82732000D01*
X139488763Y-82780000D01*
X139132357Y-82780000D01*
X139144000Y-82751891D01*
X139144000Y-82350000D01*
X139119000Y-82325000D01*
X138675500Y-82325000D01*
X138675500Y-82345000D01*
X138625500Y-82345000D01*
X138625500Y-82325000D01*
X138182000Y-82325000D01*
X138157000Y-82350000D01*
X138157000Y-82583484D01*
X138148867Y-82580107D01*
X137902215Y-82579892D01*
X137674257Y-82674083D01*
X137499696Y-82848339D01*
X137405107Y-83076133D01*
X137404892Y-83322785D01*
X137499083Y-83550743D01*
X137673339Y-83725304D01*
X137901133Y-83819893D01*
X138147785Y-83820108D01*
X138375743Y-83725917D01*
X138481845Y-83620000D01*
X139825000Y-83620000D01*
X139985727Y-83588029D01*
X140121985Y-83496985D01*
X140471985Y-83146985D01*
X140531263Y-83058269D01*
X140593000Y-83058269D01*
X140711585Y-83035956D01*
X140820498Y-82965872D01*
X140830106Y-82951810D01*
X140829892Y-83197785D01*
X140924083Y-83425743D01*
X141098339Y-83600304D01*
X141326133Y-83694893D01*
X141519271Y-83695061D01*
X141623840Y-83764932D01*
X141692818Y-83778653D01*
X141798063Y-83850564D01*
X141925000Y-83876269D01*
X142173731Y-83876269D01*
X142173731Y-84075000D01*
X142196044Y-84193585D01*
X142231831Y-84249199D01*
X141585649Y-84895381D01*
X141548867Y-84880107D01*
X141302215Y-84879892D01*
X141074257Y-84974083D01*
X140899696Y-85148339D01*
X140805107Y-85376133D01*
X140804892Y-85622785D01*
X140899083Y-85850743D01*
X141073339Y-86025304D01*
X141301133Y-86119893D01*
X141547785Y-86120108D01*
X141775743Y-86025917D01*
X141950304Y-85851661D01*
X142044744Y-85624226D01*
X142755000Y-84913970D01*
X142755000Y-85193306D01*
X142599696Y-85348339D01*
X142505107Y-85576133D01*
X142504892Y-85822785D01*
X142599083Y-86050743D01*
X142773339Y-86225304D01*
X143001133Y-86319893D01*
X143247785Y-86320108D01*
X143475743Y-86225917D01*
X143524933Y-86176813D01*
X143573339Y-86225304D01*
X143801133Y-86319893D01*
X144047785Y-86320108D01*
X144275743Y-86225917D01*
X144450304Y-86051661D01*
X144505018Y-85919896D01*
X144747785Y-85920108D01*
X144975743Y-85825917D01*
X145109140Y-85692754D01*
X145270693Y-85854307D01*
X145398840Y-85939932D01*
X145550000Y-85970000D01*
X147249178Y-85970000D01*
X147205107Y-86076133D01*
X147204892Y-86322785D01*
X147299083Y-86550743D01*
X147473339Y-86725304D01*
X147701133Y-86819893D01*
X147947785Y-86820108D01*
X148175743Y-86725917D01*
X148240524Y-86661249D01*
X148298063Y-86700564D01*
X148425000Y-86726269D01*
X149975000Y-86726269D01*
X150093585Y-86703956D01*
X150202498Y-86633872D01*
X150275564Y-86526937D01*
X150301269Y-86400000D01*
X150301269Y-86275000D01*
X153925000Y-86275000D01*
X153925000Y-86419891D01*
X153940224Y-86456646D01*
X153968355Y-86484776D01*
X154005109Y-86500000D01*
X154750000Y-86500000D01*
X154775000Y-86475000D01*
X154775000Y-86250000D01*
X154825000Y-86250000D01*
X154825000Y-86475000D01*
X154850000Y-86500000D01*
X155594891Y-86500000D01*
X155631645Y-86484776D01*
X155659776Y-86456646D01*
X155675000Y-86419891D01*
X155675000Y-86275000D01*
X155650000Y-86250000D01*
X154825000Y-86250000D01*
X154775000Y-86250000D01*
X153950000Y-86250000D01*
X153925000Y-86275000D01*
X150301269Y-86275000D01*
X150301269Y-86050000D01*
X150278956Y-85931415D01*
X150259257Y-85900803D01*
X150275564Y-85876937D01*
X150301269Y-85750000D01*
X150301269Y-85400000D01*
X150278956Y-85281415D01*
X150259257Y-85250803D01*
X150275564Y-85226937D01*
X150301269Y-85100000D01*
X150301269Y-84750000D01*
X150278956Y-84631415D01*
X150259257Y-84600803D01*
X150275564Y-84576937D01*
X150301269Y-84450000D01*
X150301269Y-84100000D01*
X150278956Y-83981415D01*
X150259257Y-83950803D01*
X150275564Y-83926937D01*
X150301269Y-83800000D01*
X150301269Y-83450000D01*
X150278956Y-83331415D01*
X150259257Y-83300803D01*
X150275564Y-83276937D01*
X150301269Y-83150000D01*
X150301269Y-82800000D01*
X150278956Y-82681415D01*
X150259257Y-82650803D01*
X150275564Y-82626937D01*
X150301269Y-82500000D01*
X150301269Y-82150000D01*
X150278956Y-82031415D01*
X150259257Y-82000803D01*
X150275564Y-81976937D01*
X150301269Y-81850000D01*
X150301269Y-81500000D01*
X150278956Y-81381415D01*
X150259257Y-81350803D01*
X150275564Y-81326937D01*
X150301269Y-81200000D01*
X150301269Y-80850000D01*
X150278956Y-80731415D01*
X150259257Y-80700803D01*
X150275564Y-80676937D01*
X150301269Y-80550000D01*
X150301269Y-80200000D01*
X150278956Y-80081415D01*
X150259257Y-80050803D01*
X150275564Y-80026937D01*
X150301269Y-79900000D01*
X150301269Y-79550000D01*
X150278956Y-79431415D01*
X150259257Y-79400803D01*
X150266563Y-79390109D01*
X150350000Y-79390109D01*
X150350000Y-81950000D01*
X150375000Y-81975000D01*
X150599352Y-81975000D01*
X150600455Y-82025000D01*
X150375000Y-82025000D01*
X150350000Y-82050000D01*
X150350000Y-84609891D01*
X150365224Y-84646646D01*
X150393355Y-84674776D01*
X150430109Y-84690000D01*
X151950000Y-84690000D01*
X151975000Y-84665000D01*
X151975000Y-83400648D01*
X152025000Y-83399545D01*
X152025000Y-84665000D01*
X152050000Y-84690000D01*
X153569891Y-84690000D01*
X153606645Y-84674776D01*
X153634776Y-84646646D01*
X153650000Y-84609891D01*
X153650000Y-82050000D01*
X153625000Y-82025000D01*
X153400648Y-82025000D01*
X153399545Y-81975000D01*
X153625000Y-81975000D01*
X153650000Y-81950000D01*
X153650000Y-79390109D01*
X153634776Y-79353354D01*
X153606645Y-79325224D01*
X153569891Y-79310000D01*
X152050000Y-79310000D01*
X152025000Y-79335000D01*
X152025000Y-80599352D01*
X151975000Y-80600455D01*
X151975000Y-79335000D01*
X151950000Y-79310000D01*
X150430109Y-79310000D01*
X150393355Y-79325224D01*
X150365224Y-79353354D01*
X150350000Y-79390109D01*
X150266563Y-79390109D01*
X150275564Y-79376937D01*
X150301269Y-79250000D01*
X150301269Y-78978426D01*
X150401133Y-79019893D01*
X150647785Y-79020108D01*
X150875743Y-78925917D01*
X151050304Y-78751661D01*
X151144893Y-78523867D01*
X151145108Y-78277215D01*
X151050917Y-78049257D01*
X150876661Y-77874696D01*
X150648867Y-77780107D01*
X150402215Y-77779892D01*
X150174257Y-77874083D01*
X150099306Y-77948903D01*
X150075000Y-77943981D01*
X150075000Y-77825000D01*
X150050000Y-77800000D01*
X149225000Y-77800000D01*
X149225000Y-77820000D01*
X149175000Y-77820000D01*
X149175000Y-77800000D01*
X148350000Y-77800000D01*
X148325000Y-77825000D01*
X148325000Y-77942547D01*
X148306415Y-77946044D01*
X148214795Y-78005000D01*
X148200000Y-78005000D01*
X148058011Y-78033244D01*
X148075743Y-78025917D01*
X148250304Y-77851661D01*
X148325000Y-77671774D01*
X148325000Y-77725000D01*
X148350000Y-77750000D01*
X149175000Y-77750000D01*
X149175000Y-77525000D01*
X149225000Y-77525000D01*
X149225000Y-77750000D01*
X150050000Y-77750000D01*
X150075000Y-77725000D01*
X150075000Y-77600000D01*
X153698731Y-77600000D01*
X153698731Y-77950000D01*
X153721044Y-78068585D01*
X153740743Y-78099197D01*
X153724436Y-78123063D01*
X153698731Y-78250000D01*
X153698731Y-78600000D01*
X153721044Y-78718585D01*
X153740743Y-78749197D01*
X153724436Y-78773063D01*
X153698731Y-78900000D01*
X153698731Y-79250000D01*
X153721044Y-79368585D01*
X153740743Y-79399197D01*
X153724436Y-79423063D01*
X153698731Y-79550000D01*
X153698731Y-79900000D01*
X153721044Y-80018585D01*
X153740743Y-80049197D01*
X153724436Y-80073063D01*
X153698731Y-80200000D01*
X153698731Y-80550000D01*
X153721044Y-80668585D01*
X153740743Y-80699197D01*
X153724436Y-80723063D01*
X153698731Y-80850000D01*
X153698731Y-81200000D01*
X153721044Y-81318585D01*
X153740743Y-81349197D01*
X153724436Y-81373063D01*
X153698731Y-81500000D01*
X153698731Y-81850000D01*
X153721044Y-81968585D01*
X153740743Y-81999197D01*
X153724436Y-82023063D01*
X153698731Y-82150000D01*
X153698731Y-82500000D01*
X153721044Y-82618585D01*
X153740743Y-82649197D01*
X153724436Y-82673063D01*
X153698731Y-82800000D01*
X153698731Y-83150000D01*
X153721044Y-83268585D01*
X153740743Y-83299197D01*
X153724436Y-83323063D01*
X153698731Y-83450000D01*
X153698731Y-83800000D01*
X153721044Y-83918585D01*
X153740743Y-83949197D01*
X153724436Y-83973063D01*
X153698731Y-84100000D01*
X153698731Y-84450000D01*
X153721044Y-84568585D01*
X153740743Y-84599197D01*
X153724436Y-84623063D01*
X153698731Y-84750000D01*
X153698731Y-85100000D01*
X153721044Y-85218585D01*
X153740743Y-85249197D01*
X153724436Y-85273063D01*
X153698731Y-85400000D01*
X153698731Y-85750000D01*
X153721044Y-85868585D01*
X153791128Y-85977498D01*
X153898063Y-86050564D01*
X153925000Y-86056019D01*
X153925000Y-86175000D01*
X153950000Y-86200000D01*
X154775000Y-86200000D01*
X154775000Y-86180000D01*
X154825000Y-86180000D01*
X154825000Y-86200000D01*
X155650000Y-86200000D01*
X155675000Y-86175000D01*
X155675000Y-86057453D01*
X155693585Y-86053956D01*
X155780000Y-85998349D01*
X155780000Y-87546623D01*
X155687415Y-87564044D01*
X155578502Y-87634128D01*
X155505436Y-87741063D01*
X155479731Y-87868000D01*
X155479731Y-88732000D01*
X155502044Y-88850585D01*
X155572128Y-88959498D01*
X155679063Y-89032564D01*
X155806000Y-89058269D01*
X156593000Y-89058269D01*
X156711585Y-89035956D01*
X156797230Y-88980845D01*
X156866731Y-89050346D01*
X156866731Y-89268000D01*
X156889044Y-89386585D01*
X156959128Y-89495498D01*
X157066063Y-89568564D01*
X157193000Y-89594269D01*
X158057000Y-89594269D01*
X158175585Y-89571956D01*
X158284498Y-89501872D01*
X158357564Y-89394937D01*
X158383269Y-89268000D01*
X158383269Y-89150000D01*
X159300000Y-89150000D01*
X159300000Y-89619891D01*
X159315224Y-89656645D01*
X159343354Y-89684776D01*
X159380109Y-89700000D01*
X160950000Y-89700000D01*
X160975000Y-89675000D01*
X160975000Y-89125000D01*
X161025000Y-89125000D01*
X161025000Y-89675000D01*
X161050000Y-89700000D01*
X162619891Y-89700000D01*
X162656646Y-89684776D01*
X162684776Y-89656645D01*
X162700000Y-89619891D01*
X162700000Y-89150000D01*
X162675000Y-89125000D01*
X161025000Y-89125000D01*
X160975000Y-89125000D01*
X159325000Y-89125000D01*
X159300000Y-89150000D01*
X158383269Y-89150000D01*
X158383269Y-88580109D01*
X159300000Y-88580109D01*
X159300000Y-89050000D01*
X159325000Y-89075000D01*
X160975000Y-89075000D01*
X160975000Y-88525000D01*
X161025000Y-88525000D01*
X161025000Y-89075000D01*
X162675000Y-89075000D01*
X162700000Y-89050000D01*
X162700000Y-88580109D01*
X162684776Y-88543355D01*
X162656646Y-88515224D01*
X162619891Y-88500000D01*
X161050000Y-88500000D01*
X161025000Y-88525000D01*
X160975000Y-88525000D01*
X160950000Y-88500000D01*
X159380109Y-88500000D01*
X159343354Y-88515224D01*
X159315224Y-88543355D01*
X159300000Y-88580109D01*
X158383269Y-88580109D01*
X158383269Y-88481000D01*
X158360956Y-88362415D01*
X158290872Y-88253502D01*
X158183937Y-88180436D01*
X158057000Y-88154731D01*
X157193000Y-88154731D01*
X157104919Y-88171304D01*
X156954307Y-88020693D01*
X156919269Y-87997281D01*
X156919269Y-87868000D01*
X156896956Y-87749415D01*
X156826872Y-87640502D01*
X156719937Y-87567436D01*
X156593000Y-87541731D01*
X156570000Y-87541731D01*
X156570000Y-87375500D01*
X157093000Y-87375500D01*
X157093000Y-87738891D01*
X157108224Y-87775645D01*
X157136354Y-87803776D01*
X157173109Y-87819000D01*
X157575000Y-87819000D01*
X157600000Y-87794000D01*
X157600000Y-87350500D01*
X157118000Y-87350500D01*
X157093000Y-87375500D01*
X156570000Y-87375500D01*
X156570000Y-86912109D01*
X157093000Y-86912109D01*
X157093000Y-87275500D01*
X157118000Y-87300500D01*
X157600000Y-87300500D01*
X157600000Y-86857000D01*
X157575000Y-86832000D01*
X157173109Y-86832000D01*
X157136354Y-86847224D01*
X157108224Y-86875355D01*
X157093000Y-86912109D01*
X156570000Y-86912109D01*
X156570000Y-85924500D01*
X157093000Y-85924500D01*
X157093000Y-86287891D01*
X157108224Y-86324645D01*
X157136354Y-86352776D01*
X157173109Y-86368000D01*
X157575000Y-86368000D01*
X157600000Y-86343000D01*
X157600000Y-85899500D01*
X157118000Y-85899500D01*
X157093000Y-85924500D01*
X156570000Y-85924500D01*
X156570000Y-85825000D01*
X156539932Y-85673840D01*
X156454307Y-85545693D01*
X156369723Y-85461109D01*
X157093000Y-85461109D01*
X157093000Y-85824500D01*
X157118000Y-85849500D01*
X157600000Y-85849500D01*
X157600000Y-85406000D01*
X157650000Y-85406000D01*
X157650000Y-85849500D01*
X157670000Y-85849500D01*
X157670000Y-85899500D01*
X157650000Y-85899500D01*
X157650000Y-86343000D01*
X157675000Y-86368000D01*
X158029940Y-86368000D01*
X158029892Y-86422785D01*
X158124083Y-86650743D01*
X158148187Y-86674889D01*
X158124696Y-86698339D01*
X158069195Y-86832000D01*
X157675000Y-86832000D01*
X157650000Y-86857000D01*
X157650000Y-87300500D01*
X157670000Y-87300500D01*
X157670000Y-87350500D01*
X157650000Y-87350500D01*
X157650000Y-87794000D01*
X157675000Y-87819000D01*
X158076891Y-87819000D01*
X158113646Y-87803776D01*
X158141776Y-87775645D01*
X158157000Y-87738891D01*
X158157000Y-87433718D01*
X158298339Y-87575304D01*
X158526133Y-87669893D01*
X158772785Y-87670108D01*
X159000743Y-87575917D01*
X159175304Y-87401661D01*
X159269893Y-87173867D01*
X159270108Y-86927215D01*
X159175917Y-86699257D01*
X159151813Y-86675111D01*
X159175304Y-86651661D01*
X159269893Y-86423867D01*
X159270108Y-86177215D01*
X159175917Y-85949257D01*
X159139313Y-85912589D01*
X159175304Y-85876661D01*
X159269893Y-85648867D01*
X159270108Y-85402215D01*
X159175917Y-85174257D01*
X159001661Y-84999696D01*
X158773867Y-84905107D01*
X158527215Y-84904892D01*
X158299257Y-84999083D01*
X158124696Y-85173339D01*
X158038467Y-85381000D01*
X157675000Y-85381000D01*
X157650000Y-85406000D01*
X157600000Y-85406000D01*
X157575000Y-85381000D01*
X157173109Y-85381000D01*
X157136354Y-85396224D01*
X157108224Y-85424355D01*
X157093000Y-85461109D01*
X156369723Y-85461109D01*
X156204307Y-85295693D01*
X156076160Y-85210068D01*
X155925000Y-85180000D01*
X155885069Y-85180000D01*
X155901269Y-85100000D01*
X155901269Y-84750000D01*
X155900328Y-84745000D01*
X155943132Y-84745000D01*
X155998339Y-84800304D01*
X156226133Y-84894893D01*
X156472785Y-84895108D01*
X156654559Y-84820000D01*
X156885735Y-84820000D01*
X156889044Y-84837585D01*
X156959128Y-84946498D01*
X157066063Y-85019564D01*
X157193000Y-85045269D01*
X158057000Y-85045269D01*
X158175585Y-85022956D01*
X158284498Y-84952872D01*
X158357564Y-84845937D01*
X158383269Y-84719000D01*
X158383269Y-84329427D01*
X158601133Y-84419893D01*
X158847785Y-84420108D01*
X159075743Y-84325917D01*
X159250304Y-84151661D01*
X159344893Y-83923867D01*
X159345075Y-83715147D01*
X159400000Y-83726269D01*
X162600000Y-83726269D01*
X162718585Y-83703956D01*
X162827498Y-83633872D01*
X162900564Y-83526937D01*
X162926269Y-83400000D01*
X162926269Y-82400000D01*
X162903956Y-82281415D01*
X162833872Y-82172502D01*
X162726937Y-82099436D01*
X162600000Y-82073731D01*
X159400000Y-82073731D01*
X159281415Y-82096044D01*
X159172502Y-82166128D01*
X159099436Y-82273063D01*
X159073731Y-82400000D01*
X159073731Y-82630000D01*
X158994679Y-82630000D01*
X159069893Y-82448867D01*
X159070108Y-82202215D01*
X158975917Y-81974257D01*
X158871842Y-81870000D01*
X159228331Y-81870000D01*
X159273063Y-81900564D01*
X159400000Y-81926269D01*
X160819966Y-81926269D01*
X160901005Y-81980417D01*
X161100000Y-82020001D01*
X161298995Y-81980417D01*
X161380034Y-81926269D01*
X162600000Y-81926269D01*
X162718585Y-81903956D01*
X162827498Y-81833872D01*
X162900564Y-81726937D01*
X162926269Y-81600000D01*
X162926269Y-80600000D01*
X162903956Y-80481415D01*
X162833872Y-80372502D01*
X162726937Y-80299436D01*
X162600000Y-80273731D01*
X159728195Y-80273731D01*
X159750304Y-80251661D01*
X159844893Y-80023867D01*
X159845108Y-79777215D01*
X159750917Y-79549257D01*
X159576661Y-79374696D01*
X159348867Y-79280107D01*
X159102215Y-79279892D01*
X158874257Y-79374083D01*
X158699696Y-79548339D01*
X158605107Y-79776133D01*
X158605038Y-79855281D01*
X158330320Y-80130000D01*
X158219680Y-80130000D01*
X158212732Y-80123052D01*
X158284498Y-80076872D01*
X158357564Y-79969937D01*
X158383269Y-79843000D01*
X158383269Y-79056000D01*
X158360956Y-78937415D01*
X158290872Y-78828502D01*
X158183937Y-78755436D01*
X158057000Y-78729731D01*
X157193000Y-78729731D01*
X157074415Y-78752044D01*
X156965502Y-78822128D01*
X156945086Y-78852007D01*
X156945108Y-78827215D01*
X156850917Y-78599257D01*
X156676661Y-78424696D01*
X156512458Y-78356512D01*
X156596985Y-78271985D01*
X156688029Y-78135727D01*
X156720000Y-77975000D01*
X156720000Y-77950500D01*
X157093000Y-77950500D01*
X157093000Y-78313891D01*
X157108224Y-78350645D01*
X157136354Y-78378776D01*
X157173109Y-78394000D01*
X157575000Y-78394000D01*
X157600000Y-78369000D01*
X157600000Y-77925500D01*
X157650000Y-77925500D01*
X157650000Y-78369000D01*
X157675000Y-78394000D01*
X158076891Y-78394000D01*
X158113646Y-78378776D01*
X158141776Y-78350645D01*
X158157000Y-78313891D01*
X158157000Y-77950500D01*
X158132000Y-77925500D01*
X157650000Y-77925500D01*
X157600000Y-77925500D01*
X157118000Y-77925500D01*
X157093000Y-77950500D01*
X156720000Y-77950500D01*
X156720000Y-77487109D01*
X157093000Y-77487109D01*
X157093000Y-77850500D01*
X157118000Y-77875500D01*
X157600000Y-77875500D01*
X157600000Y-77432000D01*
X157650000Y-77432000D01*
X157650000Y-77875500D01*
X158132000Y-77875500D01*
X158157000Y-77850500D01*
X158157000Y-77487109D01*
X158141776Y-77450355D01*
X158113646Y-77422224D01*
X158076891Y-77407000D01*
X157675000Y-77407000D01*
X157650000Y-77432000D01*
X157600000Y-77432000D01*
X157575000Y-77407000D01*
X157173109Y-77407000D01*
X157136354Y-77422224D01*
X157108224Y-77450355D01*
X157093000Y-77487109D01*
X156720000Y-77487109D01*
X156720000Y-76958269D01*
X156793000Y-76958269D01*
X156911585Y-76935956D01*
X157020498Y-76865872D01*
X157093564Y-76758937D01*
X157119269Y-76632000D01*
X157119269Y-75768000D01*
X157096956Y-75649415D01*
X157026872Y-75540502D01*
X156919937Y-75467436D01*
X156793000Y-75441731D01*
X156006000Y-75441731D01*
X155887415Y-75464044D01*
X155778502Y-75534128D01*
X155705436Y-75641063D01*
X155679731Y-75768000D01*
X155679731Y-76632000D01*
X155702044Y-76750585D01*
X155772128Y-76859498D01*
X155879063Y-76932564D01*
X155880000Y-76932754D01*
X155880000Y-77486963D01*
X155878956Y-77481415D01*
X155808872Y-77372502D01*
X155701937Y-77299436D01*
X155575000Y-77273731D01*
X155220000Y-77273731D01*
X155220000Y-76958269D01*
X155244000Y-76958269D01*
X155362585Y-76935956D01*
X155471498Y-76865872D01*
X155544564Y-76758937D01*
X155570269Y-76632000D01*
X155570269Y-75768000D01*
X155547956Y-75649415D01*
X155477872Y-75540502D01*
X155370937Y-75467436D01*
X155244000Y-75441731D01*
X154457000Y-75441731D01*
X154338415Y-75464044D01*
X154229502Y-75534128D01*
X154156436Y-75641063D01*
X154130731Y-75768000D01*
X154130731Y-76632000D01*
X154153044Y-76750585D01*
X154223128Y-76859498D01*
X154330063Y-76932564D01*
X154380000Y-76942676D01*
X154380000Y-77273731D01*
X154025000Y-77273731D01*
X153906415Y-77296044D01*
X153797502Y-77366128D01*
X153724436Y-77473063D01*
X153698731Y-77600000D01*
X150075000Y-77600000D01*
X150075000Y-77580109D01*
X150059776Y-77543354D01*
X150031645Y-77515224D01*
X149994891Y-77500000D01*
X149250000Y-77500000D01*
X149225000Y-77525000D01*
X149175000Y-77525000D01*
X149150000Y-77500000D01*
X148405109Y-77500000D01*
X148368355Y-77515224D01*
X148344967Y-77538611D01*
X148345108Y-77377215D01*
X148250917Y-77149257D01*
X148076661Y-76974696D01*
X147848867Y-76880107D01*
X147602215Y-76879892D01*
X147374257Y-76974083D01*
X147199696Y-77148339D01*
X147105107Y-77376133D01*
X147104892Y-77622785D01*
X147199083Y-77850743D01*
X147373339Y-78025304D01*
X147601133Y-78119893D01*
X147847785Y-78120108D01*
X148023526Y-78047493D01*
X147903015Y-78128015D01*
X147703015Y-78328015D01*
X147611971Y-78464273D01*
X147580000Y-78625000D01*
X147580000Y-78806052D01*
X146456052Y-79930000D01*
X144375000Y-79930000D01*
X144214273Y-79961971D01*
X144078015Y-80053015D01*
X143974400Y-80156630D01*
X143971985Y-80153015D01*
X143621985Y-79803015D01*
X143485727Y-79711971D01*
X143325000Y-79680000D01*
X141587540Y-79680000D01*
X141485727Y-79611971D01*
X141325000Y-79580000D01*
X140498970Y-79580000D01*
X140421985Y-79503015D01*
X140285727Y-79411971D01*
X140125000Y-79380000D01*
X139781781Y-79380000D01*
X139676661Y-79274696D01*
X139637101Y-79258269D01*
X140393000Y-79258269D01*
X140511585Y-79235956D01*
X140620498Y-79165872D01*
X140693564Y-79058937D01*
X140719269Y-78932000D01*
X140719269Y-78895000D01*
X141930731Y-78895000D01*
X141930731Y-78932000D01*
X141953044Y-79050585D01*
X142023128Y-79159498D01*
X142130063Y-79232564D01*
X142257000Y-79258269D01*
X143044000Y-79258269D01*
X143162585Y-79235956D01*
X143271498Y-79165872D01*
X143344564Y-79058937D01*
X143370269Y-78932000D01*
X143370269Y-78068000D01*
X143479731Y-78068000D01*
X143479731Y-78932000D01*
X143502044Y-79050585D01*
X143572128Y-79159498D01*
X143679063Y-79232564D01*
X143806000Y-79258269D01*
X144593000Y-79258269D01*
X144711585Y-79235956D01*
X144820498Y-79165872D01*
X144893564Y-79058937D01*
X144919269Y-78932000D01*
X144919269Y-78068000D01*
X144896956Y-77949415D01*
X144872384Y-77911230D01*
X145213666Y-77569948D01*
X145397785Y-77570108D01*
X145625743Y-77475917D01*
X145800304Y-77301661D01*
X145894893Y-77073867D01*
X145895108Y-76827215D01*
X145800917Y-76599257D01*
X145626661Y-76424696D01*
X145398867Y-76330107D01*
X145152215Y-76329892D01*
X144924257Y-76424083D01*
X144749696Y-76598339D01*
X144655107Y-76826133D01*
X144654945Y-77011441D01*
X143924655Y-77741731D01*
X143806000Y-77741731D01*
X143687415Y-77764044D01*
X143578502Y-77834128D01*
X143505436Y-77941063D01*
X143479731Y-78068000D01*
X143370269Y-78068000D01*
X143347956Y-77949415D01*
X143277872Y-77840502D01*
X143170937Y-77767436D01*
X143044000Y-77741731D01*
X142870000Y-77741731D01*
X142870000Y-77356737D01*
X143000304Y-77226661D01*
X143094893Y-76998867D01*
X143095108Y-76752215D01*
X143000917Y-76524257D01*
X142826661Y-76349696D01*
X142598867Y-76255107D01*
X142352215Y-76254892D01*
X142124257Y-76349083D01*
X141949696Y-76523339D01*
X141855107Y-76751133D01*
X141854892Y-76997785D01*
X141949083Y-77225743D01*
X142080000Y-77356889D01*
X142080000Y-77801633D01*
X142029502Y-77834128D01*
X141956436Y-77941063D01*
X141930731Y-78068000D01*
X141930731Y-78105000D01*
X140719269Y-78105000D01*
X140719269Y-78068000D01*
X140696956Y-77949415D01*
X140626872Y-77840502D01*
X140519937Y-77767436D01*
X140393000Y-77741731D01*
X139606000Y-77741731D01*
X139487415Y-77764044D01*
X139378502Y-77834128D01*
X139305436Y-77941063D01*
X139279731Y-78068000D01*
X139279731Y-78932000D01*
X139302044Y-79050585D01*
X139372128Y-79159498D01*
X139402231Y-79180066D01*
X139202215Y-79179892D01*
X138974257Y-79274083D01*
X138799696Y-79448339D01*
X138705107Y-79676133D01*
X138704892Y-79922785D01*
X138780920Y-80106786D01*
X138775760Y-80105760D01*
X137601319Y-80105760D01*
X137601319Y-80100710D01*
X137579006Y-79982125D01*
X137508922Y-79873212D01*
X137401987Y-79800146D01*
X137275050Y-79774441D01*
X136474950Y-79774441D01*
X136356365Y-79796754D01*
X136247452Y-79866838D01*
X136174386Y-79973773D01*
X136148681Y-80100710D01*
X135475050Y-80100710D01*
X135475050Y-80080819D01*
X135459826Y-80044064D01*
X135431695Y-80015934D01*
X135394941Y-80000710D01*
X135025000Y-80000710D01*
X135000000Y-80025710D01*
X134950000Y-80025710D01*
X134925000Y-80000710D01*
X134555059Y-80000710D01*
X134518305Y-80015934D01*
X134490174Y-80044064D01*
X134474950Y-80080819D01*
X130294995Y-80080819D01*
X130295108Y-79952215D01*
X130200917Y-79724257D01*
X130026661Y-79549696D01*
X129798867Y-79455107D01*
X129552215Y-79454892D01*
X129324257Y-79549083D01*
X129149696Y-79723339D01*
X129055107Y-79951133D01*
X129054892Y-80197785D01*
X127372059Y-80197785D01*
X127148867Y-80105107D01*
X126902215Y-80104892D01*
X126674257Y-80199083D01*
X126499696Y-80373339D01*
X126405107Y-80601133D01*
X126404892Y-80847785D01*
X125395000Y-80847785D01*
X125395000Y-78897785D01*
X126404892Y-78897785D01*
X126499083Y-79125743D01*
X126673339Y-79300304D01*
X126901133Y-79394893D01*
X127147785Y-79395108D01*
X127375743Y-79300917D01*
X127550304Y-79126661D01*
X127644893Y-78898867D01*
X127645108Y-78652215D01*
X127550917Y-78424257D01*
X127376661Y-78249696D01*
X127148867Y-78155107D01*
X126902215Y-78154892D01*
X126674257Y-78249083D01*
X126499696Y-78423339D01*
X126405107Y-78651133D01*
X126404892Y-78897785D01*
X125395000Y-78897785D01*
X125395000Y-77622785D01*
X134704892Y-77622785D01*
X134799083Y-77850743D01*
X134973339Y-78025304D01*
X135198681Y-78118875D01*
X135198681Y-78901830D01*
X135220994Y-79020415D01*
X135291078Y-79129328D01*
X135398013Y-79202394D01*
X135524950Y-79228099D01*
X136325050Y-79228099D01*
X136443635Y-79205786D01*
X136552548Y-79135702D01*
X136625614Y-79028767D01*
X136651319Y-78901830D01*
X136651319Y-78895000D01*
X137730731Y-78895000D01*
X137730731Y-78932000D01*
X137753044Y-79050585D01*
X137823128Y-79159498D01*
X137930063Y-79232564D01*
X138057000Y-79258269D01*
X138844000Y-79258269D01*
X138962585Y-79235956D01*
X139071498Y-79165872D01*
X139144564Y-79058937D01*
X139170269Y-78932000D01*
X139170269Y-78068000D01*
X139147956Y-77949415D01*
X139077872Y-77840502D01*
X138970937Y-77767436D01*
X138844000Y-77741731D01*
X138057000Y-77741731D01*
X137938415Y-77764044D01*
X137829502Y-77834128D01*
X137756436Y-77941063D01*
X137730731Y-78068000D01*
X137730731Y-78105000D01*
X136651319Y-78105000D01*
X136651319Y-78101730D01*
X136629006Y-77983145D01*
X136558922Y-77874232D01*
X136451987Y-77801166D01*
X136325050Y-77775461D01*
X135881945Y-77775461D01*
X135944893Y-77623867D01*
X135945108Y-77377215D01*
X135850917Y-77149257D01*
X135724666Y-77022785D01*
X140104892Y-77022785D01*
X140199083Y-77250743D01*
X140373339Y-77425304D01*
X140601133Y-77519893D01*
X140847785Y-77520108D01*
X141075743Y-77425917D01*
X141250304Y-77251661D01*
X141344893Y-77023867D01*
X141345108Y-76777215D01*
X141250917Y-76549257D01*
X141076661Y-76374696D01*
X140848867Y-76280107D01*
X140602215Y-76279892D01*
X140374257Y-76374083D01*
X140199696Y-76548339D01*
X140105107Y-76776133D01*
X140104892Y-77022785D01*
X135724666Y-77022785D01*
X135676661Y-76974696D01*
X135448867Y-76880107D01*
X135202215Y-76879892D01*
X134974257Y-76974083D01*
X134799696Y-77148339D01*
X134705107Y-77376133D01*
X134704892Y-77622785D01*
X125395000Y-77622785D01*
X125395000Y-76171220D01*
X125437893Y-76275029D01*
X125822944Y-76660752D01*
X126326295Y-76869762D01*
X126871314Y-76870237D01*
X127375029Y-76662107D01*
X127704970Y-76332740D01*
X127704892Y-76422785D01*
X127799083Y-76650743D01*
X127973339Y-76825304D01*
X128201133Y-76919893D01*
X128447785Y-76920108D01*
X128675743Y-76825917D01*
X128850304Y-76651661D01*
X128944893Y-76423867D01*
X128944981Y-76322785D01*
X134204892Y-76322785D01*
X134299083Y-76550743D01*
X134473339Y-76725304D01*
X134701133Y-76819893D01*
X134947785Y-76820108D01*
X135175743Y-76725917D01*
X135350304Y-76551661D01*
X135444893Y-76323867D01*
X135445068Y-76122785D01*
X147004892Y-76122785D01*
X147099083Y-76350743D01*
X147273339Y-76525304D01*
X147501133Y-76619893D01*
X147747785Y-76620108D01*
X147975743Y-76525917D01*
X148150304Y-76351661D01*
X148244893Y-76123867D01*
X148245108Y-75877215D01*
X148150917Y-75649257D01*
X147976661Y-75474696D01*
X147748867Y-75380107D01*
X147502215Y-75379892D01*
X147274257Y-75474083D01*
X147099696Y-75648339D01*
X147005107Y-75876133D01*
X147004892Y-76122785D01*
X135445068Y-76122785D01*
X135445108Y-76077215D01*
X135350917Y-75849257D01*
X135176661Y-75674696D01*
X134948867Y-75580107D01*
X134702215Y-75579892D01*
X134474257Y-75674083D01*
X134299696Y-75848339D01*
X134205107Y-76076133D01*
X134204892Y-76322785D01*
X128944981Y-76322785D01*
X128945108Y-76177215D01*
X128850917Y-75949257D01*
X128676661Y-75774696D01*
X128448867Y-75680107D01*
X128202215Y-75679892D01*
X127974257Y-75774083D01*
X127966312Y-75782015D01*
X127969762Y-75773705D01*
X127970237Y-75228686D01*
X127905821Y-75072785D01*
X128854892Y-75072785D01*
X128949083Y-75300743D01*
X129123339Y-75475304D01*
X129351133Y-75569893D01*
X129597785Y-75570108D01*
X129825743Y-75475917D01*
X130000304Y-75301661D01*
X130094893Y-75073867D01*
X130095108Y-74827215D01*
X130000917Y-74599257D01*
X129924579Y-74522785D01*
X142704892Y-74522785D01*
X142799083Y-74750743D01*
X142973339Y-74925304D01*
X143201133Y-75019893D01*
X143447785Y-75020108D01*
X143617458Y-74950000D01*
X159300000Y-74950000D01*
X159300000Y-75419891D01*
X159315224Y-75456645D01*
X159343354Y-75484776D01*
X159380109Y-75500000D01*
X160950000Y-75500000D01*
X160975000Y-75475000D01*
X160975000Y-74925000D01*
X161025000Y-74925000D01*
X161025000Y-75475000D01*
X161050000Y-75500000D01*
X162619891Y-75500000D01*
X162656646Y-75484776D01*
X162684776Y-75456645D01*
X162700000Y-75419891D01*
X162700000Y-74950000D01*
X162675000Y-74925000D01*
X161025000Y-74925000D01*
X160975000Y-74925000D01*
X159325000Y-74925000D01*
X159300000Y-74950000D01*
X143617458Y-74950000D01*
X143675743Y-74925917D01*
X143850304Y-74751661D01*
X143944893Y-74523867D01*
X143945018Y-74380109D01*
X159300000Y-74380109D01*
X159300000Y-74850000D01*
X159325000Y-74875000D01*
X160975000Y-74875000D01*
X160975000Y-74325000D01*
X161025000Y-74325000D01*
X161025000Y-74875000D01*
X162675000Y-74875000D01*
X162700000Y-74850000D01*
X162700000Y-74380109D01*
X162684776Y-74343355D01*
X162656646Y-74315224D01*
X162619891Y-74300000D01*
X161050000Y-74300000D01*
X161025000Y-74325000D01*
X160975000Y-74325000D01*
X160950000Y-74300000D01*
X159380109Y-74300000D01*
X159343354Y-74315224D01*
X159315224Y-74343355D01*
X159300000Y-74380109D01*
X143945018Y-74380109D01*
X143945108Y-74277215D01*
X143850917Y-74049257D01*
X143676661Y-73874696D01*
X143448867Y-73780107D01*
X143202215Y-73779892D01*
X142974257Y-73874083D01*
X142799696Y-74048339D01*
X142705107Y-74276133D01*
X142704892Y-74522785D01*
X129924579Y-74522785D01*
X129826661Y-74424696D01*
X129598867Y-74330107D01*
X129352215Y-74329892D01*
X129124257Y-74424083D01*
X128949696Y-74598339D01*
X128855107Y-74826133D01*
X128854892Y-75072785D01*
X127905821Y-75072785D01*
X127762107Y-74724971D01*
X127377056Y-74339248D01*
X126873705Y-74130238D01*
X126328686Y-74129763D01*
X125824971Y-74337893D01*
X125439248Y-74722944D01*
X125395000Y-74829505D01*
X125395000Y-72038904D01*
X125524323Y-71388755D01*
X125870565Y-70870565D01*
X126388755Y-70524323D01*
X126775000Y-70447494D01*
X126775000Y-73800000D01*
X126781839Y-73836346D01*
X126803319Y-73869727D01*
X126836094Y-73892121D01*
X126875000Y-73900000D01*
X131125000Y-73900000D01*
X131161346Y-73893161D01*
X131194727Y-73871681D01*
X131217121Y-73838906D01*
X131225000Y-73800000D01*
X131225000Y-70395000D01*
X134775000Y-70395000D01*
X134775000Y-73800000D01*
X134775000Y-73800000D01*
G37*
X134775000Y-73800000D02*
X134781839Y-73836346D01*
X134803319Y-73869727D01*
X134836094Y-73892121D01*
X134875000Y-73900000D01*
X139125000Y-73900000D01*
X139161346Y-73893161D01*
X139194727Y-73871681D01*
X139217121Y-73838906D01*
X139225000Y-73800000D01*
X139225000Y-71725000D01*
X144821400Y-71725000D01*
X144821400Y-71877400D01*
X144904317Y-72244251D01*
X145121310Y-72551446D01*
X145439344Y-72752217D01*
X145609618Y-72799906D01*
X145760000Y-72790667D01*
X145760000Y-71725000D01*
X145810000Y-71725000D01*
X145810000Y-72790667D01*
X145960382Y-72799906D01*
X146130656Y-72752217D01*
X146448690Y-72551446D01*
X146665683Y-72244251D01*
X146748600Y-71877400D01*
X146748600Y-71725000D01*
X145810000Y-71725000D01*
X145760000Y-71725000D01*
X144821400Y-71725000D01*
X139225000Y-71725000D01*
X139225000Y-71522600D01*
X144821400Y-71522600D01*
X144821400Y-71675000D01*
X145760000Y-71675000D01*
X145760000Y-70609333D01*
X145810000Y-70609333D01*
X145810000Y-71675000D01*
X146748600Y-71675000D01*
X146748600Y-71522600D01*
X146665683Y-71155749D01*
X146448690Y-70848554D01*
X146130656Y-70647783D01*
X145960382Y-70600094D01*
X145810000Y-70609333D01*
X145760000Y-70609333D01*
X145609618Y-70600094D01*
X145439344Y-70647783D01*
X145121310Y-70848554D01*
X144904317Y-71155749D01*
X144821400Y-71522600D01*
X139225000Y-71522600D01*
X139225000Y-70395000D01*
X148037566Y-70395000D01*
X147872056Y-70427922D01*
X147488068Y-70684494D01*
X147231496Y-71068482D01*
X147141400Y-71521426D01*
X147141400Y-71878574D01*
X147231496Y-72331518D01*
X147488068Y-72715506D01*
X147872056Y-72972078D01*
X148325000Y-73062174D01*
X148777944Y-72972078D01*
X149161932Y-72715506D01*
X149418504Y-72331518D01*
X149508600Y-71878574D01*
X149508600Y-71521426D01*
X149418504Y-71068482D01*
X149161932Y-70684494D01*
X148777944Y-70427922D01*
X148612434Y-70395000D01*
X149859573Y-70395000D01*
X149773902Y-70450128D01*
X149700836Y-70557063D01*
X149675131Y-70684000D01*
X149675131Y-72716000D01*
X149697444Y-72834585D01*
X149767528Y-72943498D01*
X149874463Y-73016564D01*
X150001400Y-73042269D01*
X151728600Y-73042269D01*
X151847185Y-73019956D01*
X151956098Y-72949872D01*
X152029164Y-72842937D01*
X152054869Y-72716000D01*
X152054869Y-70684000D01*
X152032556Y-70565415D01*
X151962472Y-70456502D01*
X151872461Y-70395000D01*
X169561098Y-70395000D01*
X169597716Y-70402284D01*
X169605000Y-70438903D01*
X169605000Y-76979843D01*
X165725769Y-76950003D01*
X165686804Y-76957582D01*
X165653858Y-76979724D01*
X165632121Y-77012939D01*
X165625000Y-77050000D01*
X165625000Y-87100000D01*
X165632879Y-87138906D01*
X165655273Y-87171681D01*
X165688654Y-87193161D01*
X165725000Y-87200000D01*
X169605000Y-87200000D01*
X169605000Y-93061097D01*
X169597716Y-93097716D01*
X169586234Y-93100000D01*
X159800000Y-93100000D01*
X159761094Y-93107879D01*
X159728319Y-93130273D01*
X159706839Y-93163654D01*
X159700000Y-93200000D01*
X159700000Y-102200000D01*
X152152529Y-102200000D01*
X152152529Y-97700030D01*
X152130216Y-97581445D01*
X152071140Y-97489639D01*
X152071140Y-91471314D01*
X166229763Y-91471314D01*
X166437893Y-91975029D01*
X166822944Y-92360752D01*
X167326295Y-92569762D01*
X167871314Y-92570237D01*
X168375029Y-92362107D01*
X168760752Y-91977056D01*
X168969762Y-91473705D01*
X168970237Y-90928686D01*
X168762107Y-90424971D01*
X168377056Y-90039248D01*
X167873705Y-89830238D01*
X167328686Y-89829763D01*
X166824971Y-90037893D01*
X166439248Y-90422944D01*
X166230238Y-90926295D01*
X166229763Y-91471314D01*
X152071140Y-91471314D01*
X152071140Y-91069138D01*
X152175743Y-91025917D01*
X152350304Y-90851661D01*
X152444893Y-90623867D01*
X152445108Y-90377215D01*
X152350917Y-90149257D01*
X152176661Y-89974696D01*
X151948867Y-89880107D01*
X151702215Y-89879892D01*
X151474257Y-89974083D01*
X151324892Y-90123187D01*
X151176661Y-89974696D01*
X150948867Y-89880107D01*
X150702215Y-89879892D01*
X150474257Y-89974083D01*
X150324892Y-90123187D01*
X150176661Y-89974696D01*
X150105106Y-89944984D01*
X150247785Y-89945108D01*
X150475743Y-89850917D01*
X150650304Y-89676661D01*
X150744893Y-89448867D01*
X150745108Y-89202215D01*
X150650917Y-88974257D01*
X150476661Y-88799696D01*
X150248867Y-88705107D01*
X150002215Y-88704892D01*
X149774257Y-88799083D01*
X149599696Y-88973339D01*
X149505107Y-89201133D01*
X149504892Y-89447785D01*
X149599083Y-89675743D01*
X149773339Y-89850304D01*
X149844894Y-89880016D01*
X149702215Y-89879892D01*
X149474257Y-89974083D01*
X149299696Y-90148339D01*
X149249376Y-90269522D01*
X149096569Y-90422329D01*
X148973009Y-90607250D01*
X148929620Y-90825380D01*
X148929620Y-92900000D01*
X143545000Y-92900000D01*
X143545000Y-91973970D01*
X143721985Y-91796985D01*
X143813029Y-91660727D01*
X143845000Y-91500000D01*
X143845000Y-91497785D01*
X144204892Y-91497785D01*
X144299083Y-91725743D01*
X144473339Y-91900304D01*
X144701133Y-91994893D01*
X144947785Y-91995108D01*
X145175743Y-91900917D01*
X145350304Y-91726661D01*
X145444893Y-91498867D01*
X145445108Y-91252215D01*
X145350917Y-91024257D01*
X145176661Y-90849696D01*
X144948867Y-90755107D01*
X144702215Y-90754892D01*
X144474257Y-90849083D01*
X144299696Y-91023339D01*
X144205107Y-91251133D01*
X144204892Y-91497785D01*
X143845000Y-91497785D01*
X143845000Y-90873970D01*
X144221985Y-90496985D01*
X144313029Y-90360727D01*
X144345000Y-90200000D01*
X144345000Y-89656781D01*
X144450304Y-89551661D01*
X144544893Y-89323867D01*
X144545108Y-89077215D01*
X144450917Y-88849257D01*
X144276661Y-88674696D01*
X144048867Y-88580107D01*
X143802215Y-88579892D01*
X143574257Y-88674083D01*
X143399696Y-88848339D01*
X143344982Y-88980104D01*
X143102215Y-88979892D01*
X142874257Y-89074083D01*
X142699696Y-89248339D01*
X142685412Y-89282740D01*
X142650917Y-89199257D01*
X142476661Y-89024696D01*
X142248867Y-88930107D01*
X142144975Y-88930016D01*
X142145108Y-88777215D01*
X142050917Y-88549257D01*
X141876661Y-88374696D01*
X141648867Y-88280107D01*
X141402215Y-88279892D01*
X141174257Y-88374083D01*
X140999696Y-88548339D01*
X140905107Y-88776133D01*
X140904929Y-88979982D01*
X140802215Y-88979892D01*
X140574257Y-89074083D01*
X140443111Y-89205000D01*
X139625000Y-89205000D01*
X139473840Y-89235068D01*
X139376513Y-89300100D01*
X139345693Y-89320693D01*
X139345070Y-89321316D01*
X139345108Y-89277215D01*
X139250917Y-89049257D01*
X139076661Y-88874696D01*
X138848867Y-88780107D01*
X138602215Y-88779892D01*
X138374257Y-88874083D01*
X138199696Y-89048339D01*
X138105107Y-89276133D01*
X138104892Y-89522785D01*
X138199083Y-89750743D01*
X138373339Y-89925304D01*
X138601133Y-90019893D01*
X138646453Y-90019933D01*
X138460655Y-90205731D01*
X138193000Y-90205731D01*
X138074415Y-90228044D01*
X137965502Y-90298128D01*
X137892436Y-90405063D01*
X137866731Y-90532000D01*
X137866731Y-91319000D01*
X137889044Y-91437585D01*
X137959128Y-91546498D01*
X138066063Y-91619564D01*
X138193000Y-91645269D01*
X139057000Y-91645269D01*
X139175585Y-91622956D01*
X139284498Y-91552872D01*
X139357564Y-91445937D01*
X139383269Y-91319000D01*
X139383269Y-90532000D01*
X139362420Y-90421194D01*
X139455105Y-90328509D01*
X139454892Y-90572785D01*
X139549083Y-90800743D01*
X139655000Y-90906845D01*
X139655000Y-90950000D01*
X139686971Y-91110727D01*
X139778015Y-91246985D01*
X140028015Y-91496985D01*
X140164273Y-91588029D01*
X140325000Y-91620000D01*
X141101030Y-91620000D01*
X141355000Y-91873970D01*
X141355000Y-92900000D01*
X140183614Y-92900000D01*
X139454307Y-92170693D01*
X139383269Y-92123227D01*
X139383269Y-92081000D01*
X139360956Y-91962415D01*
X139290872Y-91853502D01*
X139183937Y-91780436D01*
X139057000Y-91754731D01*
X138193000Y-91754731D01*
X138074415Y-91777044D01*
X137965502Y-91847128D01*
X137892436Y-91954063D01*
X137866731Y-92081000D01*
X137866731Y-92868000D01*
X137872752Y-92900000D01*
X137525000Y-92900000D01*
X137525000Y-87472785D01*
X144704892Y-87472785D01*
X144799083Y-87700743D01*
X144973339Y-87875304D01*
X145201133Y-87969893D01*
X145447785Y-87970108D01*
X145675743Y-87875917D01*
X145683673Y-87868000D01*
X153930731Y-87868000D01*
X153930731Y-88732000D01*
X153953044Y-88850585D01*
X154023128Y-88959498D01*
X154130063Y-89032564D01*
X154257000Y-89058269D01*
X155044000Y-89058269D01*
X155162585Y-89035956D01*
X155271498Y-88965872D01*
X155344564Y-88858937D01*
X155370269Y-88732000D01*
X155370269Y-87868000D01*
X155347956Y-87749415D01*
X155277872Y-87640502D01*
X155223436Y-87603307D01*
X155350304Y-87476661D01*
X155444893Y-87248867D01*
X155445108Y-87002215D01*
X155350917Y-86774257D01*
X155176661Y-86599696D01*
X154948867Y-86505107D01*
X154702215Y-86504892D01*
X154474257Y-86599083D01*
X154299696Y-86773339D01*
X154205107Y-87001133D01*
X154204892Y-87247785D01*
X154282745Y-87436202D01*
X154280000Y-87450000D01*
X154280000Y-87541731D01*
X154257000Y-87541731D01*
X154138415Y-87564044D01*
X154029502Y-87634128D01*
X153956436Y-87741063D01*
X153930731Y-87868000D01*
X145683673Y-87868000D01*
X145850304Y-87701661D01*
X145944893Y-87473867D01*
X145945108Y-87227215D01*
X145850917Y-86999257D01*
X145676661Y-86824696D01*
X145448867Y-86730107D01*
X145202215Y-86729892D01*
X144974257Y-86824083D01*
X144799696Y-86998339D01*
X144705107Y-87226133D01*
X144704892Y-87472785D01*
X137525000Y-87472785D01*
X137525000Y-83900000D01*
X137517121Y-83861094D01*
X137494727Y-83828319D01*
X137461346Y-83806839D01*
X137425000Y-83800000D01*
X135913280Y-83800000D01*
X135944893Y-83723867D01*
X135945108Y-83477215D01*
X135850917Y-83249257D01*
X135676661Y-83074696D01*
X135448867Y-82980107D01*
X135202215Y-82979892D01*
X134974257Y-83074083D01*
X134799696Y-83248339D01*
X134705107Y-83476133D01*
X134704892Y-83722785D01*
X134736797Y-83800000D01*
X131250000Y-83800000D01*
X131211094Y-83807879D01*
X131178319Y-83830273D01*
X131156839Y-83863654D01*
X131150000Y-83900000D01*
X131150000Y-89775000D01*
X126575000Y-89775000D01*
X126575000Y-88550000D01*
X126774210Y-88550000D01*
X126774210Y-89319991D01*
X126789434Y-89356746D01*
X126817565Y-89384876D01*
X126854319Y-89400100D01*
X128824460Y-89400100D01*
X128849460Y-89375100D01*
X128849460Y-88525000D01*
X128899460Y-88525000D01*
X128899460Y-89375100D01*
X128924460Y-89400100D01*
X130894601Y-89400100D01*
X130931355Y-89384876D01*
X130959486Y-89356746D01*
X130974710Y-89319991D01*
X130974710Y-88550000D01*
X130949710Y-88525000D01*
X128899460Y-88525000D01*
X128849460Y-88525000D01*
X126799210Y-88525000D01*
X126774210Y-88550000D01*
X126575000Y-88550000D01*
X126575000Y-87680009D01*
X126774210Y-87680009D01*
X126774210Y-88450000D01*
X126799210Y-88475000D01*
X128849460Y-88475000D01*
X128849460Y-87624900D01*
X128899460Y-87624900D01*
X128899460Y-88475000D01*
X130949710Y-88475000D01*
X130974710Y-88450000D01*
X130974710Y-87680009D01*
X130959486Y-87643254D01*
X130931355Y-87615124D01*
X130894601Y-87599900D01*
X128924460Y-87599900D01*
X128899460Y-87624900D01*
X128849460Y-87624900D01*
X128824460Y-87599900D01*
X126854319Y-87599900D01*
X126817565Y-87615124D01*
X126789434Y-87643254D01*
X126774210Y-87680009D01*
X126575000Y-87680009D01*
X126575000Y-83900000D01*
X126567121Y-83861094D01*
X126544727Y-83828319D01*
X126511346Y-83806839D01*
X126475000Y-83800000D01*
X125395000Y-83800000D01*
X125395000Y-82122785D01*
X126504892Y-82122785D01*
X126599083Y-82350743D01*
X126773339Y-82525304D01*
X127001133Y-82619893D01*
X127247785Y-82620108D01*
X127475743Y-82525917D01*
X127650304Y-82351661D01*
X127703818Y-82222785D01*
X136204892Y-82222785D01*
X136299083Y-82450743D01*
X136473339Y-82625304D01*
X136701133Y-82719893D01*
X136947785Y-82720108D01*
X137175743Y-82625917D01*
X137350304Y-82451661D01*
X137444893Y-82223867D01*
X137445108Y-81977215D01*
X137391763Y-81848109D01*
X138157000Y-81848109D01*
X138157000Y-82250000D01*
X138182000Y-82275000D01*
X138625500Y-82275000D01*
X138625500Y-81793000D01*
X138675500Y-81793000D01*
X138675500Y-82275000D01*
X139119000Y-82275000D01*
X139144000Y-82250000D01*
X139144000Y-81848109D01*
X139128776Y-81811354D01*
X139100645Y-81783224D01*
X139063891Y-81768000D01*
X138700500Y-81768000D01*
X138675500Y-81793000D01*
X138625500Y-81793000D01*
X138600500Y-81768000D01*
X138237109Y-81768000D01*
X138200355Y-81783224D01*
X138172224Y-81811354D01*
X138157000Y-81848109D01*
X137391763Y-81848109D01*
X137350917Y-81749257D01*
X137176661Y-81574696D01*
X136948867Y-81480107D01*
X136702215Y-81479892D01*
X136474257Y-81574083D01*
X136299696Y-81748339D01*
X136205107Y-81976133D01*
X136204892Y-82222785D01*
X127703818Y-82222785D01*
X127744893Y-82123867D01*
X127745108Y-81877215D01*
X127650917Y-81649257D01*
X127624492Y-81622785D01*
X129404892Y-81622785D01*
X129499083Y-81850743D01*
X129673339Y-82025304D01*
X129901133Y-82119893D01*
X130147785Y-82120108D01*
X130375743Y-82025917D01*
X130550304Y-81851661D01*
X130644893Y-81623867D01*
X130644981Y-81522785D01*
X133404892Y-81522785D01*
X133499083Y-81750743D01*
X133673339Y-81925304D01*
X133901133Y-82019893D01*
X134147785Y-82020108D01*
X134375743Y-81925917D01*
X134550304Y-81751661D01*
X134644893Y-81523867D01*
X134645108Y-81277215D01*
X134550917Y-81049257D01*
X134376661Y-80874696D01*
X134148867Y-80780107D01*
X133902215Y-80779892D01*
X133674257Y-80874083D01*
X133499696Y-81048339D01*
X133405107Y-81276133D01*
X133404892Y-81522785D01*
X130644981Y-81522785D01*
X130645108Y-81377215D01*
X130550917Y-81149257D01*
X130376661Y-80974696D01*
X130148867Y-80880107D01*
X129902215Y-80879892D01*
X129674257Y-80974083D01*
X129499696Y-81148339D01*
X129405107Y-81376133D01*
X129404892Y-81622785D01*
X127624492Y-81622785D01*
X127476661Y-81474696D01*
X127248867Y-81380107D01*
X127002215Y-81379892D01*
X126774257Y-81474083D01*
X126599696Y-81648339D01*
X126505107Y-81876133D01*
X126504892Y-82122785D01*
X125395000Y-82122785D01*
X125395000Y-80847785D01*
X126404892Y-80847785D01*
X126499083Y-81075743D01*
X126673339Y-81250304D01*
X126901133Y-81344893D01*
X127147785Y-81345108D01*
X127375743Y-81250917D01*
X127550304Y-81076661D01*
X127644893Y-80848867D01*
X127645108Y-80602215D01*
X127550917Y-80374257D01*
X127376661Y-80199696D01*
X127372059Y-80197785D01*
X129054892Y-80197785D01*
X129149083Y-80425743D01*
X129323339Y-80600304D01*
X129551133Y-80694893D01*
X129797785Y-80695108D01*
X130025743Y-80600917D01*
X130075987Y-80550760D01*
X134474950Y-80550760D01*
X134474950Y-80920701D01*
X134490174Y-80957456D01*
X134518305Y-80985586D01*
X134555059Y-81000810D01*
X134925000Y-81000810D01*
X134950000Y-80975810D01*
X134950000Y-80525760D01*
X135000000Y-80525760D01*
X135000000Y-80975810D01*
X135025000Y-81000810D01*
X135394941Y-81000810D01*
X135431695Y-80985586D01*
X135459826Y-80957456D01*
X135475050Y-80920701D01*
X135475050Y-80550760D01*
X135450050Y-80525760D01*
X135000000Y-80525760D01*
X134950000Y-80525760D01*
X134499950Y-80525760D01*
X134474950Y-80550760D01*
X130075987Y-80550760D01*
X130200304Y-80426661D01*
X130294893Y-80198867D01*
X130294995Y-80080819D01*
X134474950Y-80080819D01*
X134474950Y-80450760D01*
X134499950Y-80475760D01*
X134950000Y-80475760D01*
X134950000Y-80025710D01*
X135000000Y-80025710D01*
X135000000Y-80475760D01*
X135450050Y-80475760D01*
X135475050Y-80450760D01*
X135475050Y-80100710D01*
X136148681Y-80100710D01*
X136148681Y-80900810D01*
X136170994Y-81019395D01*
X136241078Y-81128308D01*
X136348013Y-81201374D01*
X136474950Y-81227079D01*
X137275050Y-81227079D01*
X137393635Y-81204766D01*
X137404914Y-81197508D01*
X137404892Y-81222785D01*
X137499083Y-81450743D01*
X137673339Y-81625304D01*
X137901133Y-81719893D01*
X138147785Y-81720108D01*
X138375743Y-81625917D01*
X138550304Y-81451661D01*
X138644893Y-81223867D01*
X138645108Y-80977215D01*
X138611451Y-80895760D01*
X138612146Y-80895760D01*
X138995693Y-81279307D01*
X139123840Y-81364932D01*
X139275000Y-81395000D01*
X140143263Y-81395000D01*
X140273339Y-81525304D01*
X140312899Y-81541731D01*
X139806000Y-81541731D01*
X139687415Y-81564044D01*
X139578502Y-81634128D01*
X139505436Y-81741063D01*
X139479731Y-81868000D01*
X139479731Y-82732000D01*
X139488763Y-82780000D01*
X139132357Y-82780000D01*
X139144000Y-82751891D01*
X139144000Y-82350000D01*
X139119000Y-82325000D01*
X138675500Y-82325000D01*
X138675500Y-82345000D01*
X138625500Y-82345000D01*
X138625500Y-82325000D01*
X138182000Y-82325000D01*
X138157000Y-82350000D01*
X138157000Y-82583484D01*
X138148867Y-82580107D01*
X137902215Y-82579892D01*
X137674257Y-82674083D01*
X137499696Y-82848339D01*
X137405107Y-83076133D01*
X137404892Y-83322785D01*
X137499083Y-83550743D01*
X137673339Y-83725304D01*
X137901133Y-83819893D01*
X138147785Y-83820108D01*
X138375743Y-83725917D01*
X138481845Y-83620000D01*
X139825000Y-83620000D01*
X139985727Y-83588029D01*
X140121985Y-83496985D01*
X140471985Y-83146985D01*
X140531263Y-83058269D01*
X140593000Y-83058269D01*
X140711585Y-83035956D01*
X140820498Y-82965872D01*
X140830106Y-82951810D01*
X140829892Y-83197785D01*
X140924083Y-83425743D01*
X141098339Y-83600304D01*
X141326133Y-83694893D01*
X141519271Y-83695061D01*
X141623840Y-83764932D01*
X141692818Y-83778653D01*
X141798063Y-83850564D01*
X141925000Y-83876269D01*
X142173731Y-83876269D01*
X142173731Y-84075000D01*
X142196044Y-84193585D01*
X142231831Y-84249199D01*
X141585649Y-84895381D01*
X141548867Y-84880107D01*
X141302215Y-84879892D01*
X141074257Y-84974083D01*
X140899696Y-85148339D01*
X140805107Y-85376133D01*
X140804892Y-85622785D01*
X140899083Y-85850743D01*
X141073339Y-86025304D01*
X141301133Y-86119893D01*
X141547785Y-86120108D01*
X141775743Y-86025917D01*
X141950304Y-85851661D01*
X142044744Y-85624226D01*
X142755000Y-84913970D01*
X142755000Y-85193306D01*
X142599696Y-85348339D01*
X142505107Y-85576133D01*
X142504892Y-85822785D01*
X142599083Y-86050743D01*
X142773339Y-86225304D01*
X143001133Y-86319893D01*
X143247785Y-86320108D01*
X143475743Y-86225917D01*
X143524933Y-86176813D01*
X143573339Y-86225304D01*
X143801133Y-86319893D01*
X144047785Y-86320108D01*
X144275743Y-86225917D01*
X144450304Y-86051661D01*
X144505018Y-85919896D01*
X144747785Y-85920108D01*
X144975743Y-85825917D01*
X145109140Y-85692754D01*
X145270693Y-85854307D01*
X145398840Y-85939932D01*
X145550000Y-85970000D01*
X147249178Y-85970000D01*
X147205107Y-86076133D01*
X147204892Y-86322785D01*
X147299083Y-86550743D01*
X147473339Y-86725304D01*
X147701133Y-86819893D01*
X147947785Y-86820108D01*
X148175743Y-86725917D01*
X148240524Y-86661249D01*
X148298063Y-86700564D01*
X148425000Y-86726269D01*
X149975000Y-86726269D01*
X150093585Y-86703956D01*
X150202498Y-86633872D01*
X150275564Y-86526937D01*
X150301269Y-86400000D01*
X150301269Y-86275000D01*
X153925000Y-86275000D01*
X153925000Y-86419891D01*
X153940224Y-86456646D01*
X153968355Y-86484776D01*
X154005109Y-86500000D01*
X154750000Y-86500000D01*
X154775000Y-86475000D01*
X154775000Y-86250000D01*
X154825000Y-86250000D01*
X154825000Y-86475000D01*
X154850000Y-86500000D01*
X155594891Y-86500000D01*
X155631645Y-86484776D01*
X155659776Y-86456646D01*
X155675000Y-86419891D01*
X155675000Y-86275000D01*
X155650000Y-86250000D01*
X154825000Y-86250000D01*
X154775000Y-86250000D01*
X153950000Y-86250000D01*
X153925000Y-86275000D01*
X150301269Y-86275000D01*
X150301269Y-86050000D01*
X150278956Y-85931415D01*
X150259257Y-85900803D01*
X150275564Y-85876937D01*
X150301269Y-85750000D01*
X150301269Y-85400000D01*
X150278956Y-85281415D01*
X150259257Y-85250803D01*
X150275564Y-85226937D01*
X150301269Y-85100000D01*
X150301269Y-84750000D01*
X150278956Y-84631415D01*
X150259257Y-84600803D01*
X150275564Y-84576937D01*
X150301269Y-84450000D01*
X150301269Y-84100000D01*
X150278956Y-83981415D01*
X150259257Y-83950803D01*
X150275564Y-83926937D01*
X150301269Y-83800000D01*
X150301269Y-83450000D01*
X150278956Y-83331415D01*
X150259257Y-83300803D01*
X150275564Y-83276937D01*
X150301269Y-83150000D01*
X150301269Y-82800000D01*
X150278956Y-82681415D01*
X150259257Y-82650803D01*
X150275564Y-82626937D01*
X150301269Y-82500000D01*
X150301269Y-82150000D01*
X150278956Y-82031415D01*
X150259257Y-82000803D01*
X150275564Y-81976937D01*
X150301269Y-81850000D01*
X150301269Y-81500000D01*
X150278956Y-81381415D01*
X150259257Y-81350803D01*
X150275564Y-81326937D01*
X150301269Y-81200000D01*
X150301269Y-80850000D01*
X150278956Y-80731415D01*
X150259257Y-80700803D01*
X150275564Y-80676937D01*
X150301269Y-80550000D01*
X150301269Y-80200000D01*
X150278956Y-80081415D01*
X150259257Y-80050803D01*
X150275564Y-80026937D01*
X150301269Y-79900000D01*
X150301269Y-79550000D01*
X150278956Y-79431415D01*
X150259257Y-79400803D01*
X150266563Y-79390109D01*
X150350000Y-79390109D01*
X150350000Y-81950000D01*
X150375000Y-81975000D01*
X150599352Y-81975000D01*
X150600455Y-82025000D01*
X150375000Y-82025000D01*
X150350000Y-82050000D01*
X150350000Y-84609891D01*
X150365224Y-84646646D01*
X150393355Y-84674776D01*
X150430109Y-84690000D01*
X151950000Y-84690000D01*
X151975000Y-84665000D01*
X151975000Y-83400648D01*
X152025000Y-83399545D01*
X152025000Y-84665000D01*
X152050000Y-84690000D01*
X153569891Y-84690000D01*
X153606645Y-84674776D01*
X153634776Y-84646646D01*
X153650000Y-84609891D01*
X153650000Y-82050000D01*
X153625000Y-82025000D01*
X153400648Y-82025000D01*
X153399545Y-81975000D01*
X153625000Y-81975000D01*
X153650000Y-81950000D01*
X153650000Y-79390109D01*
X153634776Y-79353354D01*
X153606645Y-79325224D01*
X153569891Y-79310000D01*
X152050000Y-79310000D01*
X152025000Y-79335000D01*
X152025000Y-80599352D01*
X151975000Y-80600455D01*
X151975000Y-79335000D01*
X151950000Y-79310000D01*
X150430109Y-79310000D01*
X150393355Y-79325224D01*
X150365224Y-79353354D01*
X150350000Y-79390109D01*
X150266563Y-79390109D01*
X150275564Y-79376937D01*
X150301269Y-79250000D01*
X150301269Y-78978426D01*
X150401133Y-79019893D01*
X150647785Y-79020108D01*
X150875743Y-78925917D01*
X151050304Y-78751661D01*
X151144893Y-78523867D01*
X151145108Y-78277215D01*
X151050917Y-78049257D01*
X150876661Y-77874696D01*
X150648867Y-77780107D01*
X150402215Y-77779892D01*
X150174257Y-77874083D01*
X150099306Y-77948903D01*
X150075000Y-77943981D01*
X150075000Y-77825000D01*
X150050000Y-77800000D01*
X149225000Y-77800000D01*
X149225000Y-77820000D01*
X149175000Y-77820000D01*
X149175000Y-77800000D01*
X148350000Y-77800000D01*
X148325000Y-77825000D01*
X148325000Y-77942547D01*
X148306415Y-77946044D01*
X148214795Y-78005000D01*
X148200000Y-78005000D01*
X148058011Y-78033244D01*
X148075743Y-78025917D01*
X148250304Y-77851661D01*
X148325000Y-77671774D01*
X148325000Y-77725000D01*
X148350000Y-77750000D01*
X149175000Y-77750000D01*
X149175000Y-77525000D01*
X149225000Y-77525000D01*
X149225000Y-77750000D01*
X150050000Y-77750000D01*
X150075000Y-77725000D01*
X150075000Y-77600000D01*
X153698731Y-77600000D01*
X153698731Y-77950000D01*
X153721044Y-78068585D01*
X153740743Y-78099197D01*
X153724436Y-78123063D01*
X153698731Y-78250000D01*
X153698731Y-78600000D01*
X153721044Y-78718585D01*
X153740743Y-78749197D01*
X153724436Y-78773063D01*
X153698731Y-78900000D01*
X153698731Y-79250000D01*
X153721044Y-79368585D01*
X153740743Y-79399197D01*
X153724436Y-79423063D01*
X153698731Y-79550000D01*
X153698731Y-79900000D01*
X153721044Y-80018585D01*
X153740743Y-80049197D01*
X153724436Y-80073063D01*
X153698731Y-80200000D01*
X153698731Y-80550000D01*
X153721044Y-80668585D01*
X153740743Y-80699197D01*
X153724436Y-80723063D01*
X153698731Y-80850000D01*
X153698731Y-81200000D01*
X153721044Y-81318585D01*
X153740743Y-81349197D01*
X153724436Y-81373063D01*
X153698731Y-81500000D01*
X153698731Y-81850000D01*
X153721044Y-81968585D01*
X153740743Y-81999197D01*
X153724436Y-82023063D01*
X153698731Y-82150000D01*
X153698731Y-82500000D01*
X153721044Y-82618585D01*
X153740743Y-82649197D01*
X153724436Y-82673063D01*
X153698731Y-82800000D01*
X153698731Y-83150000D01*
X153721044Y-83268585D01*
X153740743Y-83299197D01*
X153724436Y-83323063D01*
X153698731Y-83450000D01*
X153698731Y-83800000D01*
X153721044Y-83918585D01*
X153740743Y-83949197D01*
X153724436Y-83973063D01*
X153698731Y-84100000D01*
X153698731Y-84450000D01*
X153721044Y-84568585D01*
X153740743Y-84599197D01*
X153724436Y-84623063D01*
X153698731Y-84750000D01*
X153698731Y-85100000D01*
X153721044Y-85218585D01*
X153740743Y-85249197D01*
X153724436Y-85273063D01*
X153698731Y-85400000D01*
X153698731Y-85750000D01*
X153721044Y-85868585D01*
X153791128Y-85977498D01*
X153898063Y-86050564D01*
X153925000Y-86056019D01*
X153925000Y-86175000D01*
X153950000Y-86200000D01*
X154775000Y-86200000D01*
X154775000Y-86180000D01*
X154825000Y-86180000D01*
X154825000Y-86200000D01*
X155650000Y-86200000D01*
X155675000Y-86175000D01*
X155675000Y-86057453D01*
X155693585Y-86053956D01*
X155780000Y-85998349D01*
X155780000Y-87546623D01*
X155687415Y-87564044D01*
X155578502Y-87634128D01*
X155505436Y-87741063D01*
X155479731Y-87868000D01*
X155479731Y-88732000D01*
X155502044Y-88850585D01*
X155572128Y-88959498D01*
X155679063Y-89032564D01*
X155806000Y-89058269D01*
X156593000Y-89058269D01*
X156711585Y-89035956D01*
X156797230Y-88980845D01*
X156866731Y-89050346D01*
X156866731Y-89268000D01*
X156889044Y-89386585D01*
X156959128Y-89495498D01*
X157066063Y-89568564D01*
X157193000Y-89594269D01*
X158057000Y-89594269D01*
X158175585Y-89571956D01*
X158284498Y-89501872D01*
X158357564Y-89394937D01*
X158383269Y-89268000D01*
X158383269Y-89150000D01*
X159300000Y-89150000D01*
X159300000Y-89619891D01*
X159315224Y-89656645D01*
X159343354Y-89684776D01*
X159380109Y-89700000D01*
X160950000Y-89700000D01*
X160975000Y-89675000D01*
X160975000Y-89125000D01*
X161025000Y-89125000D01*
X161025000Y-89675000D01*
X161050000Y-89700000D01*
X162619891Y-89700000D01*
X162656646Y-89684776D01*
X162684776Y-89656645D01*
X162700000Y-89619891D01*
X162700000Y-89150000D01*
X162675000Y-89125000D01*
X161025000Y-89125000D01*
X160975000Y-89125000D01*
X159325000Y-89125000D01*
X159300000Y-89150000D01*
X158383269Y-89150000D01*
X158383269Y-88580109D01*
X159300000Y-88580109D01*
X159300000Y-89050000D01*
X159325000Y-89075000D01*
X160975000Y-89075000D01*
X160975000Y-88525000D01*
X161025000Y-88525000D01*
X161025000Y-89075000D01*
X162675000Y-89075000D01*
X162700000Y-89050000D01*
X162700000Y-88580109D01*
X162684776Y-88543355D01*
X162656646Y-88515224D01*
X162619891Y-88500000D01*
X161050000Y-88500000D01*
X161025000Y-88525000D01*
X160975000Y-88525000D01*
X160950000Y-88500000D01*
X159380109Y-88500000D01*
X159343354Y-88515224D01*
X159315224Y-88543355D01*
X159300000Y-88580109D01*
X158383269Y-88580109D01*
X158383269Y-88481000D01*
X158360956Y-88362415D01*
X158290872Y-88253502D01*
X158183937Y-88180436D01*
X158057000Y-88154731D01*
X157193000Y-88154731D01*
X157104919Y-88171304D01*
X156954307Y-88020693D01*
X156919269Y-87997281D01*
X156919269Y-87868000D01*
X156896956Y-87749415D01*
X156826872Y-87640502D01*
X156719937Y-87567436D01*
X156593000Y-87541731D01*
X156570000Y-87541731D01*
X156570000Y-87375500D01*
X157093000Y-87375500D01*
X157093000Y-87738891D01*
X157108224Y-87775645D01*
X157136354Y-87803776D01*
X157173109Y-87819000D01*
X157575000Y-87819000D01*
X157600000Y-87794000D01*
X157600000Y-87350500D01*
X157118000Y-87350500D01*
X157093000Y-87375500D01*
X156570000Y-87375500D01*
X156570000Y-86912109D01*
X157093000Y-86912109D01*
X157093000Y-87275500D01*
X157118000Y-87300500D01*
X157600000Y-87300500D01*
X157600000Y-86857000D01*
X157575000Y-86832000D01*
X157173109Y-86832000D01*
X157136354Y-86847224D01*
X157108224Y-86875355D01*
X157093000Y-86912109D01*
X156570000Y-86912109D01*
X156570000Y-85924500D01*
X157093000Y-85924500D01*
X157093000Y-86287891D01*
X157108224Y-86324645D01*
X157136354Y-86352776D01*
X157173109Y-86368000D01*
X157575000Y-86368000D01*
X157600000Y-86343000D01*
X157600000Y-85899500D01*
X157118000Y-85899500D01*
X157093000Y-85924500D01*
X156570000Y-85924500D01*
X156570000Y-85825000D01*
X156539932Y-85673840D01*
X156454307Y-85545693D01*
X156369723Y-85461109D01*
X157093000Y-85461109D01*
X157093000Y-85824500D01*
X157118000Y-85849500D01*
X157600000Y-85849500D01*
X157600000Y-85406000D01*
X157650000Y-85406000D01*
X157650000Y-85849500D01*
X157670000Y-85849500D01*
X157670000Y-85899500D01*
X157650000Y-85899500D01*
X157650000Y-86343000D01*
X157675000Y-86368000D01*
X158029940Y-86368000D01*
X158029892Y-86422785D01*
X158124083Y-86650743D01*
X158148187Y-86674889D01*
X158124696Y-86698339D01*
X158069195Y-86832000D01*
X157675000Y-86832000D01*
X157650000Y-86857000D01*
X157650000Y-87300500D01*
X157670000Y-87300500D01*
X157670000Y-87350500D01*
X157650000Y-87350500D01*
X157650000Y-87794000D01*
X157675000Y-87819000D01*
X158076891Y-87819000D01*
X158113646Y-87803776D01*
X158141776Y-87775645D01*
X158157000Y-87738891D01*
X158157000Y-87433718D01*
X158298339Y-87575304D01*
X158526133Y-87669893D01*
X158772785Y-87670108D01*
X159000743Y-87575917D01*
X159175304Y-87401661D01*
X159269893Y-87173867D01*
X159270108Y-86927215D01*
X159175917Y-86699257D01*
X159151813Y-86675111D01*
X159175304Y-86651661D01*
X159269893Y-86423867D01*
X159270108Y-86177215D01*
X159175917Y-85949257D01*
X159139313Y-85912589D01*
X159175304Y-85876661D01*
X159269893Y-85648867D01*
X159270108Y-85402215D01*
X159175917Y-85174257D01*
X159001661Y-84999696D01*
X158773867Y-84905107D01*
X158527215Y-84904892D01*
X158299257Y-84999083D01*
X158124696Y-85173339D01*
X158038467Y-85381000D01*
X157675000Y-85381000D01*
X157650000Y-85406000D01*
X157600000Y-85406000D01*
X157575000Y-85381000D01*
X157173109Y-85381000D01*
X157136354Y-85396224D01*
X157108224Y-85424355D01*
X157093000Y-85461109D01*
X156369723Y-85461109D01*
X156204307Y-85295693D01*
X156076160Y-85210068D01*
X155925000Y-85180000D01*
X155885069Y-85180000D01*
X155901269Y-85100000D01*
X155901269Y-84750000D01*
X155900328Y-84745000D01*
X155943132Y-84745000D01*
X155998339Y-84800304D01*
X156226133Y-84894893D01*
X156472785Y-84895108D01*
X156654559Y-84820000D01*
X156885735Y-84820000D01*
X156889044Y-84837585D01*
X156959128Y-84946498D01*
X157066063Y-85019564D01*
X157193000Y-85045269D01*
X158057000Y-85045269D01*
X158175585Y-85022956D01*
X158284498Y-84952872D01*
X158357564Y-84845937D01*
X158383269Y-84719000D01*
X158383269Y-84329427D01*
X158601133Y-84419893D01*
X158847785Y-84420108D01*
X159075743Y-84325917D01*
X159250304Y-84151661D01*
X159344893Y-83923867D01*
X159345075Y-83715147D01*
X159400000Y-83726269D01*
X162600000Y-83726269D01*
X162718585Y-83703956D01*
X162827498Y-83633872D01*
X162900564Y-83526937D01*
X162926269Y-83400000D01*
X162926269Y-82400000D01*
X162903956Y-82281415D01*
X162833872Y-82172502D01*
X162726937Y-82099436D01*
X162600000Y-82073731D01*
X159400000Y-82073731D01*
X159281415Y-82096044D01*
X159172502Y-82166128D01*
X159099436Y-82273063D01*
X159073731Y-82400000D01*
X159073731Y-82630000D01*
X158994679Y-82630000D01*
X159069893Y-82448867D01*
X159070108Y-82202215D01*
X158975917Y-81974257D01*
X158871842Y-81870000D01*
X159228331Y-81870000D01*
X159273063Y-81900564D01*
X159400000Y-81926269D01*
X160819966Y-81926269D01*
X160901005Y-81980417D01*
X161100000Y-82020001D01*
X161298995Y-81980417D01*
X161380034Y-81926269D01*
X162600000Y-81926269D01*
X162718585Y-81903956D01*
X162827498Y-81833872D01*
X162900564Y-81726937D01*
X162926269Y-81600000D01*
X162926269Y-80600000D01*
X162903956Y-80481415D01*
X162833872Y-80372502D01*
X162726937Y-80299436D01*
X162600000Y-80273731D01*
X159728195Y-80273731D01*
X159750304Y-80251661D01*
X159844893Y-80023867D01*
X159845108Y-79777215D01*
X159750917Y-79549257D01*
X159576661Y-79374696D01*
X159348867Y-79280107D01*
X159102215Y-79279892D01*
X158874257Y-79374083D01*
X158699696Y-79548339D01*
X158605107Y-79776133D01*
X158605038Y-79855281D01*
X158330320Y-80130000D01*
X158219680Y-80130000D01*
X158212732Y-80123052D01*
X158284498Y-80076872D01*
X158357564Y-79969937D01*
X158383269Y-79843000D01*
X158383269Y-79056000D01*
X158360956Y-78937415D01*
X158290872Y-78828502D01*
X158183937Y-78755436D01*
X158057000Y-78729731D01*
X157193000Y-78729731D01*
X157074415Y-78752044D01*
X156965502Y-78822128D01*
X156945086Y-78852007D01*
X156945108Y-78827215D01*
X156850917Y-78599257D01*
X156676661Y-78424696D01*
X156512458Y-78356512D01*
X156596985Y-78271985D01*
X156688029Y-78135727D01*
X156720000Y-77975000D01*
X156720000Y-77950500D01*
X157093000Y-77950500D01*
X157093000Y-78313891D01*
X157108224Y-78350645D01*
X157136354Y-78378776D01*
X157173109Y-78394000D01*
X157575000Y-78394000D01*
X157600000Y-78369000D01*
X157600000Y-77925500D01*
X157650000Y-77925500D01*
X157650000Y-78369000D01*
X157675000Y-78394000D01*
X158076891Y-78394000D01*
X158113646Y-78378776D01*
X158141776Y-78350645D01*
X158157000Y-78313891D01*
X158157000Y-77950500D01*
X158132000Y-77925500D01*
X157650000Y-77925500D01*
X157600000Y-77925500D01*
X157118000Y-77925500D01*
X157093000Y-77950500D01*
X156720000Y-77950500D01*
X156720000Y-77487109D01*
X157093000Y-77487109D01*
X157093000Y-77850500D01*
X157118000Y-77875500D01*
X157600000Y-77875500D01*
X157600000Y-77432000D01*
X157650000Y-77432000D01*
X157650000Y-77875500D01*
X158132000Y-77875500D01*
X158157000Y-77850500D01*
X158157000Y-77487109D01*
X158141776Y-77450355D01*
X158113646Y-77422224D01*
X158076891Y-77407000D01*
X157675000Y-77407000D01*
X157650000Y-77432000D01*
X157600000Y-77432000D01*
X157575000Y-77407000D01*
X157173109Y-77407000D01*
X157136354Y-77422224D01*
X157108224Y-77450355D01*
X157093000Y-77487109D01*
X156720000Y-77487109D01*
X156720000Y-76958269D01*
X156793000Y-76958269D01*
X156911585Y-76935956D01*
X157020498Y-76865872D01*
X157093564Y-76758937D01*
X157119269Y-76632000D01*
X157119269Y-75768000D01*
X157096956Y-75649415D01*
X157026872Y-75540502D01*
X156919937Y-75467436D01*
X156793000Y-75441731D01*
X156006000Y-75441731D01*
X155887415Y-75464044D01*
X155778502Y-75534128D01*
X155705436Y-75641063D01*
X155679731Y-75768000D01*
X155679731Y-76632000D01*
X155702044Y-76750585D01*
X155772128Y-76859498D01*
X155879063Y-76932564D01*
X155880000Y-76932754D01*
X155880000Y-77486963D01*
X155878956Y-77481415D01*
X155808872Y-77372502D01*
X155701937Y-77299436D01*
X155575000Y-77273731D01*
X155220000Y-77273731D01*
X155220000Y-76958269D01*
X155244000Y-76958269D01*
X155362585Y-76935956D01*
X155471498Y-76865872D01*
X155544564Y-76758937D01*
X155570269Y-76632000D01*
X155570269Y-75768000D01*
X155547956Y-75649415D01*
X155477872Y-75540502D01*
X155370937Y-75467436D01*
X155244000Y-75441731D01*
X154457000Y-75441731D01*
X154338415Y-75464044D01*
X154229502Y-75534128D01*
X154156436Y-75641063D01*
X154130731Y-75768000D01*
X154130731Y-76632000D01*
X154153044Y-76750585D01*
X154223128Y-76859498D01*
X154330063Y-76932564D01*
X154380000Y-76942676D01*
X154380000Y-77273731D01*
X154025000Y-77273731D01*
X153906415Y-77296044D01*
X153797502Y-77366128D01*
X153724436Y-77473063D01*
X153698731Y-77600000D01*
X150075000Y-77600000D01*
X150075000Y-77580109D01*
X150059776Y-77543354D01*
X150031645Y-77515224D01*
X149994891Y-77500000D01*
X149250000Y-77500000D01*
X149225000Y-77525000D01*
X149175000Y-77525000D01*
X149150000Y-77500000D01*
X148405109Y-77500000D01*
X148368355Y-77515224D01*
X148344967Y-77538611D01*
X148345108Y-77377215D01*
X148250917Y-77149257D01*
X148076661Y-76974696D01*
X147848867Y-76880107D01*
X147602215Y-76879892D01*
X147374257Y-76974083D01*
X147199696Y-77148339D01*
X147105107Y-77376133D01*
X147104892Y-77622785D01*
X147199083Y-77850743D01*
X147373339Y-78025304D01*
X147601133Y-78119893D01*
X147847785Y-78120108D01*
X148023526Y-78047493D01*
X147903015Y-78128015D01*
X147703015Y-78328015D01*
X147611971Y-78464273D01*
X147580000Y-78625000D01*
X147580000Y-78806052D01*
X146456052Y-79930000D01*
X144375000Y-79930000D01*
X144214273Y-79961971D01*
X144078015Y-80053015D01*
X143974400Y-80156630D01*
X143971985Y-80153015D01*
X143621985Y-79803015D01*
X143485727Y-79711971D01*
X143325000Y-79680000D01*
X141587540Y-79680000D01*
X141485727Y-79611971D01*
X141325000Y-79580000D01*
X140498970Y-79580000D01*
X140421985Y-79503015D01*
X140285727Y-79411971D01*
X140125000Y-79380000D01*
X139781781Y-79380000D01*
X139676661Y-79274696D01*
X139637101Y-79258269D01*
X140393000Y-79258269D01*
X140511585Y-79235956D01*
X140620498Y-79165872D01*
X140693564Y-79058937D01*
X140719269Y-78932000D01*
X140719269Y-78895000D01*
X141930731Y-78895000D01*
X141930731Y-78932000D01*
X141953044Y-79050585D01*
X142023128Y-79159498D01*
X142130063Y-79232564D01*
X142257000Y-79258269D01*
X143044000Y-79258269D01*
X143162585Y-79235956D01*
X143271498Y-79165872D01*
X143344564Y-79058937D01*
X143370269Y-78932000D01*
X143370269Y-78068000D01*
X143479731Y-78068000D01*
X143479731Y-78932000D01*
X143502044Y-79050585D01*
X143572128Y-79159498D01*
X143679063Y-79232564D01*
X143806000Y-79258269D01*
X144593000Y-79258269D01*
X144711585Y-79235956D01*
X144820498Y-79165872D01*
X144893564Y-79058937D01*
X144919269Y-78932000D01*
X144919269Y-78068000D01*
X144896956Y-77949415D01*
X144872384Y-77911230D01*
X145213666Y-77569948D01*
X145397785Y-77570108D01*
X145625743Y-77475917D01*
X145800304Y-77301661D01*
X145894893Y-77073867D01*
X145895108Y-76827215D01*
X145800917Y-76599257D01*
X145626661Y-76424696D01*
X145398867Y-76330107D01*
X145152215Y-76329892D01*
X144924257Y-76424083D01*
X144749696Y-76598339D01*
X144655107Y-76826133D01*
X144654945Y-77011441D01*
X143924655Y-77741731D01*
X143806000Y-77741731D01*
X143687415Y-77764044D01*
X143578502Y-77834128D01*
X143505436Y-77941063D01*
X143479731Y-78068000D01*
X143370269Y-78068000D01*
X143347956Y-77949415D01*
X143277872Y-77840502D01*
X143170937Y-77767436D01*
X143044000Y-77741731D01*
X142870000Y-77741731D01*
X142870000Y-77356737D01*
X143000304Y-77226661D01*
X143094893Y-76998867D01*
X143095108Y-76752215D01*
X143000917Y-76524257D01*
X142826661Y-76349696D01*
X142598867Y-76255107D01*
X142352215Y-76254892D01*
X142124257Y-76349083D01*
X141949696Y-76523339D01*
X141855107Y-76751133D01*
X141854892Y-76997785D01*
X141949083Y-77225743D01*
X142080000Y-77356889D01*
X142080000Y-77801633D01*
X142029502Y-77834128D01*
X141956436Y-77941063D01*
X141930731Y-78068000D01*
X141930731Y-78105000D01*
X140719269Y-78105000D01*
X140719269Y-78068000D01*
X140696956Y-77949415D01*
X140626872Y-77840502D01*
X140519937Y-77767436D01*
X140393000Y-77741731D01*
X139606000Y-77741731D01*
X139487415Y-77764044D01*
X139378502Y-77834128D01*
X139305436Y-77941063D01*
X139279731Y-78068000D01*
X139279731Y-78932000D01*
X139302044Y-79050585D01*
X139372128Y-79159498D01*
X139402231Y-79180066D01*
X139202215Y-79179892D01*
X138974257Y-79274083D01*
X138799696Y-79448339D01*
X138705107Y-79676133D01*
X138704892Y-79922785D01*
X138780920Y-80106786D01*
X138775760Y-80105760D01*
X137601319Y-80105760D01*
X137601319Y-80100710D01*
X137579006Y-79982125D01*
X137508922Y-79873212D01*
X137401987Y-79800146D01*
X137275050Y-79774441D01*
X136474950Y-79774441D01*
X136356365Y-79796754D01*
X136247452Y-79866838D01*
X136174386Y-79973773D01*
X136148681Y-80100710D01*
X135475050Y-80100710D01*
X135475050Y-80080819D01*
X135459826Y-80044064D01*
X135431695Y-80015934D01*
X135394941Y-80000710D01*
X135025000Y-80000710D01*
X135000000Y-80025710D01*
X134950000Y-80025710D01*
X134925000Y-80000710D01*
X134555059Y-80000710D01*
X134518305Y-80015934D01*
X134490174Y-80044064D01*
X134474950Y-80080819D01*
X130294995Y-80080819D01*
X130295108Y-79952215D01*
X130200917Y-79724257D01*
X130026661Y-79549696D01*
X129798867Y-79455107D01*
X129552215Y-79454892D01*
X129324257Y-79549083D01*
X129149696Y-79723339D01*
X129055107Y-79951133D01*
X129054892Y-80197785D01*
X127372059Y-80197785D01*
X127148867Y-80105107D01*
X126902215Y-80104892D01*
X126674257Y-80199083D01*
X126499696Y-80373339D01*
X126405107Y-80601133D01*
X126404892Y-80847785D01*
X125395000Y-80847785D01*
X125395000Y-78897785D01*
X126404892Y-78897785D01*
X126499083Y-79125743D01*
X126673339Y-79300304D01*
X126901133Y-79394893D01*
X127147785Y-79395108D01*
X127375743Y-79300917D01*
X127550304Y-79126661D01*
X127644893Y-78898867D01*
X127645108Y-78652215D01*
X127550917Y-78424257D01*
X127376661Y-78249696D01*
X127148867Y-78155107D01*
X126902215Y-78154892D01*
X126674257Y-78249083D01*
X126499696Y-78423339D01*
X126405107Y-78651133D01*
X126404892Y-78897785D01*
X125395000Y-78897785D01*
X125395000Y-77622785D01*
X134704892Y-77622785D01*
X134799083Y-77850743D01*
X134973339Y-78025304D01*
X135198681Y-78118875D01*
X135198681Y-78901830D01*
X135220994Y-79020415D01*
X135291078Y-79129328D01*
X135398013Y-79202394D01*
X135524950Y-79228099D01*
X136325050Y-79228099D01*
X136443635Y-79205786D01*
X136552548Y-79135702D01*
X136625614Y-79028767D01*
X136651319Y-78901830D01*
X136651319Y-78895000D01*
X137730731Y-78895000D01*
X137730731Y-78932000D01*
X137753044Y-79050585D01*
X137823128Y-79159498D01*
X137930063Y-79232564D01*
X138057000Y-79258269D01*
X138844000Y-79258269D01*
X138962585Y-79235956D01*
X139071498Y-79165872D01*
X139144564Y-79058937D01*
X139170269Y-78932000D01*
X139170269Y-78068000D01*
X139147956Y-77949415D01*
X139077872Y-77840502D01*
X138970937Y-77767436D01*
X138844000Y-77741731D01*
X138057000Y-77741731D01*
X137938415Y-77764044D01*
X137829502Y-77834128D01*
X137756436Y-77941063D01*
X137730731Y-78068000D01*
X137730731Y-78105000D01*
X136651319Y-78105000D01*
X136651319Y-78101730D01*
X136629006Y-77983145D01*
X136558922Y-77874232D01*
X136451987Y-77801166D01*
X136325050Y-77775461D01*
X135881945Y-77775461D01*
X135944893Y-77623867D01*
X135945108Y-77377215D01*
X135850917Y-77149257D01*
X135724666Y-77022785D01*
X140104892Y-77022785D01*
X140199083Y-77250743D01*
X140373339Y-77425304D01*
X140601133Y-77519893D01*
X140847785Y-77520108D01*
X141075743Y-77425917D01*
X141250304Y-77251661D01*
X141344893Y-77023867D01*
X141345108Y-76777215D01*
X141250917Y-76549257D01*
X141076661Y-76374696D01*
X140848867Y-76280107D01*
X140602215Y-76279892D01*
X140374257Y-76374083D01*
X140199696Y-76548339D01*
X140105107Y-76776133D01*
X140104892Y-77022785D01*
X135724666Y-77022785D01*
X135676661Y-76974696D01*
X135448867Y-76880107D01*
X135202215Y-76879892D01*
X134974257Y-76974083D01*
X134799696Y-77148339D01*
X134705107Y-77376133D01*
X134704892Y-77622785D01*
X125395000Y-77622785D01*
X125395000Y-76171220D01*
X125437893Y-76275029D01*
X125822944Y-76660752D01*
X126326295Y-76869762D01*
X126871314Y-76870237D01*
X127375029Y-76662107D01*
X127704970Y-76332740D01*
X127704892Y-76422785D01*
X127799083Y-76650743D01*
X127973339Y-76825304D01*
X128201133Y-76919893D01*
X128447785Y-76920108D01*
X128675743Y-76825917D01*
X128850304Y-76651661D01*
X128944893Y-76423867D01*
X128944981Y-76322785D01*
X134204892Y-76322785D01*
X134299083Y-76550743D01*
X134473339Y-76725304D01*
X134701133Y-76819893D01*
X134947785Y-76820108D01*
X135175743Y-76725917D01*
X135350304Y-76551661D01*
X135444893Y-76323867D01*
X135445068Y-76122785D01*
X147004892Y-76122785D01*
X147099083Y-76350743D01*
X147273339Y-76525304D01*
X147501133Y-76619893D01*
X147747785Y-76620108D01*
X147975743Y-76525917D01*
X148150304Y-76351661D01*
X148244893Y-76123867D01*
X148245108Y-75877215D01*
X148150917Y-75649257D01*
X147976661Y-75474696D01*
X147748867Y-75380107D01*
X147502215Y-75379892D01*
X147274257Y-75474083D01*
X147099696Y-75648339D01*
X147005107Y-75876133D01*
X147004892Y-76122785D01*
X135445068Y-76122785D01*
X135445108Y-76077215D01*
X135350917Y-75849257D01*
X135176661Y-75674696D01*
X134948867Y-75580107D01*
X134702215Y-75579892D01*
X134474257Y-75674083D01*
X134299696Y-75848339D01*
X134205107Y-76076133D01*
X134204892Y-76322785D01*
X128944981Y-76322785D01*
X128945108Y-76177215D01*
X128850917Y-75949257D01*
X128676661Y-75774696D01*
X128448867Y-75680107D01*
X128202215Y-75679892D01*
X127974257Y-75774083D01*
X127966312Y-75782015D01*
X127969762Y-75773705D01*
X127970237Y-75228686D01*
X127905821Y-75072785D01*
X128854892Y-75072785D01*
X128949083Y-75300743D01*
X129123339Y-75475304D01*
X129351133Y-75569893D01*
X129597785Y-75570108D01*
X129825743Y-75475917D01*
X130000304Y-75301661D01*
X130094893Y-75073867D01*
X130095108Y-74827215D01*
X130000917Y-74599257D01*
X129924579Y-74522785D01*
X142704892Y-74522785D01*
X142799083Y-74750743D01*
X142973339Y-74925304D01*
X143201133Y-75019893D01*
X143447785Y-75020108D01*
X143617458Y-74950000D01*
X159300000Y-74950000D01*
X159300000Y-75419891D01*
X159315224Y-75456645D01*
X159343354Y-75484776D01*
X159380109Y-75500000D01*
X160950000Y-75500000D01*
X160975000Y-75475000D01*
X160975000Y-74925000D01*
X161025000Y-74925000D01*
X161025000Y-75475000D01*
X161050000Y-75500000D01*
X162619891Y-75500000D01*
X162656646Y-75484776D01*
X162684776Y-75456645D01*
X162700000Y-75419891D01*
X162700000Y-74950000D01*
X162675000Y-74925000D01*
X161025000Y-74925000D01*
X160975000Y-74925000D01*
X159325000Y-74925000D01*
X159300000Y-74950000D01*
X143617458Y-74950000D01*
X143675743Y-74925917D01*
X143850304Y-74751661D01*
X143944893Y-74523867D01*
X143945018Y-74380109D01*
X159300000Y-74380109D01*
X159300000Y-74850000D01*
X159325000Y-74875000D01*
X160975000Y-74875000D01*
X160975000Y-74325000D01*
X161025000Y-74325000D01*
X161025000Y-74875000D01*
X162675000Y-74875000D01*
X162700000Y-74850000D01*
X162700000Y-74380109D01*
X162684776Y-74343355D01*
X162656646Y-74315224D01*
X162619891Y-74300000D01*
X161050000Y-74300000D01*
X161025000Y-74325000D01*
X160975000Y-74325000D01*
X160950000Y-74300000D01*
X159380109Y-74300000D01*
X159343354Y-74315224D01*
X159315224Y-74343355D01*
X159300000Y-74380109D01*
X143945018Y-74380109D01*
X143945108Y-74277215D01*
X143850917Y-74049257D01*
X143676661Y-73874696D01*
X143448867Y-73780107D01*
X143202215Y-73779892D01*
X142974257Y-73874083D01*
X142799696Y-74048339D01*
X142705107Y-74276133D01*
X142704892Y-74522785D01*
X129924579Y-74522785D01*
X129826661Y-74424696D01*
X129598867Y-74330107D01*
X129352215Y-74329892D01*
X129124257Y-74424083D01*
X128949696Y-74598339D01*
X128855107Y-74826133D01*
X128854892Y-75072785D01*
X127905821Y-75072785D01*
X127762107Y-74724971D01*
X127377056Y-74339248D01*
X126873705Y-74130238D01*
X126328686Y-74129763D01*
X125824971Y-74337893D01*
X125439248Y-74722944D01*
X125395000Y-74829505D01*
X125395000Y-72038904D01*
X125524323Y-71388755D01*
X125870565Y-70870565D01*
X126388755Y-70524323D01*
X126775000Y-70447494D01*
X126775000Y-73800000D01*
X126781839Y-73836346D01*
X126803319Y-73869727D01*
X126836094Y-73892121D01*
X126875000Y-73900000D01*
X131125000Y-73900000D01*
X131161346Y-73893161D01*
X131194727Y-73871681D01*
X131217121Y-73838906D01*
X131225000Y-73800000D01*
X131225000Y-70395000D01*
X134775000Y-70395000D01*
X134775000Y-73800000D01*
G36*
X142925000Y-82943981D02*
X142917453Y-82942453D01*
X142900000Y-82925000D01*
X142831267Y-82925000D01*
X142825000Y-82923731D01*
X142330000Y-82923731D01*
X142330000Y-82876269D01*
X142825000Y-82876269D01*
X142831744Y-82875000D01*
X142900000Y-82875000D01*
X142915820Y-82859180D01*
X142925000Y-82857453D01*
X142925000Y-82943981D01*
X142925000Y-82943981D01*
G37*
X142925000Y-82943981D02*
X142917453Y-82942453D01*
X142900000Y-82925000D01*
X142831267Y-82925000D01*
X142825000Y-82923731D01*
X142330000Y-82923731D01*
X142330000Y-82876269D01*
X142825000Y-82876269D01*
X142831744Y-82875000D01*
X142900000Y-82875000D01*
X142915820Y-82859180D01*
X142925000Y-82857453D01*
X142925000Y-82943981D01*
G36*
X143950000Y-82625000D02*
X143970000Y-82625000D01*
X143970000Y-82675000D01*
X143950000Y-82675000D01*
X143950000Y-82695000D01*
X143900000Y-82695000D01*
X143900000Y-82675000D01*
X143880000Y-82675000D01*
X143880000Y-82625000D01*
X143900000Y-82625000D01*
X143900000Y-82605000D01*
X143950000Y-82605000D01*
X143950000Y-82625000D01*
X143950000Y-82625000D01*
G37*
X143950000Y-82625000D02*
X143970000Y-82625000D01*
X143970000Y-82675000D01*
X143950000Y-82675000D01*
X143950000Y-82695000D01*
X143900000Y-82695000D01*
X143900000Y-82675000D01*
X143880000Y-82675000D01*
X143880000Y-82625000D01*
X143900000Y-82625000D01*
X143900000Y-82605000D01*
X143950000Y-82605000D01*
X143950000Y-82625000D01*
G36*
X146730000Y-81951030D02*
X146701030Y-81980000D01*
X146096669Y-81980000D01*
X146051937Y-81949436D01*
X146017453Y-81942453D01*
X146000000Y-81925000D01*
X145931267Y-81925000D01*
X145925000Y-81923731D01*
X145025000Y-81923731D01*
X145018256Y-81925000D01*
X144950000Y-81925000D01*
X144934180Y-81940820D01*
X144925000Y-81942547D01*
X144925000Y-81886081D01*
X145000000Y-81901269D01*
X145350000Y-81901269D01*
X145468585Y-81878956D01*
X145500000Y-81858741D01*
X145500000Y-81875000D01*
X146000000Y-81875000D01*
X146025000Y-81850000D01*
X146025000Y-81820000D01*
X146580022Y-81820000D01*
X146730000Y-81790167D01*
X146730000Y-81951030D01*
X146730000Y-81951030D01*
G37*
X146730000Y-81951030D02*
X146701030Y-81980000D01*
X146096669Y-81980000D01*
X146051937Y-81949436D01*
X146017453Y-81942453D01*
X146000000Y-81925000D01*
X145931267Y-81925000D01*
X145925000Y-81923731D01*
X145025000Y-81923731D01*
X145018256Y-81925000D01*
X144950000Y-81925000D01*
X144934180Y-81940820D01*
X144925000Y-81942547D01*
X144925000Y-81886081D01*
X145000000Y-81901269D01*
X145350000Y-81901269D01*
X145468585Y-81878956D01*
X145500000Y-81858741D01*
X145500000Y-81875000D01*
X146000000Y-81875000D01*
X146025000Y-81850000D01*
X146025000Y-81820000D01*
X146580022Y-81820000D01*
X146730000Y-81790167D01*
X146730000Y-81951030D01*
G36*
X152025000Y-82961360D02*
X152025000Y-83038640D01*
X152014143Y-83049498D01*
X152000000Y-83035355D01*
X151985858Y-83049498D01*
X151975000Y-83038640D01*
X151975000Y-82961360D01*
X151985858Y-82950503D01*
X152000000Y-82964645D01*
X152014143Y-82950503D01*
X152025000Y-82961360D01*
X152025000Y-82961360D01*
G37*
X152025000Y-82961360D02*
X152025000Y-83038640D01*
X152014143Y-83049498D01*
X152000000Y-83035355D01*
X151985858Y-83049498D01*
X151975000Y-83038640D01*
X151975000Y-82961360D01*
X151985858Y-82950503D01*
X152000000Y-82964645D01*
X152014143Y-82950503D01*
X152025000Y-82961360D01*
G36*
X152025000Y-81975000D02*
X152599352Y-81975000D01*
X152600455Y-82025000D01*
X152025000Y-82025000D01*
X152025000Y-82599352D01*
X151975000Y-82600455D01*
X151975000Y-82025000D01*
X151400648Y-82025000D01*
X151399545Y-81975000D01*
X151975000Y-81975000D01*
X151975000Y-81400648D01*
X152025000Y-81399545D01*
X152025000Y-81975000D01*
X152025000Y-81975000D01*
G37*
X152025000Y-81975000D02*
X152599352Y-81975000D01*
X152600455Y-82025000D01*
X152025000Y-82025000D01*
X152025000Y-82599352D01*
X151975000Y-82600455D01*
X151975000Y-82025000D01*
X151400648Y-82025000D01*
X151399545Y-81975000D01*
X151975000Y-81975000D01*
X151975000Y-81400648D01*
X152025000Y-81399545D01*
X152025000Y-81975000D01*
G36*
X153049498Y-81985858D02*
X153035355Y-82000000D01*
X153049498Y-82014143D01*
X153038640Y-82025000D01*
X152961360Y-82025000D01*
X152950503Y-82014143D01*
X152964645Y-82000000D01*
X152950503Y-81985858D01*
X152961360Y-81975000D01*
X153038640Y-81975000D01*
X153049498Y-81985858D01*
X153049498Y-81985858D01*
G37*
X153049498Y-81985858D02*
X153035355Y-82000000D01*
X153049498Y-82014143D01*
X153038640Y-82025000D01*
X152961360Y-82025000D01*
X152950503Y-82014143D01*
X152964645Y-82000000D01*
X152950503Y-81985858D01*
X152961360Y-81975000D01*
X153038640Y-81975000D01*
X153049498Y-81985858D01*
G36*
X151049498Y-81985858D02*
X151035355Y-82000000D01*
X151049498Y-82014143D01*
X151038640Y-82025000D01*
X150961360Y-82025000D01*
X150950503Y-82014143D01*
X150964645Y-82000000D01*
X150950503Y-81985858D01*
X150961360Y-81975000D01*
X151038640Y-81975000D01*
X151049498Y-81985858D01*
X151049498Y-81985858D01*
G37*
X151049498Y-81985858D02*
X151035355Y-82000000D01*
X151049498Y-82014143D01*
X151038640Y-82025000D01*
X150961360Y-82025000D01*
X150950503Y-82014143D01*
X150964645Y-82000000D01*
X150950503Y-81985858D01*
X150961360Y-81975000D01*
X151038640Y-81975000D01*
X151049498Y-81985858D01*
G36*
X152025000Y-80961360D02*
X152025000Y-81038640D01*
X152014143Y-81049498D01*
X152000000Y-81035355D01*
X151985858Y-81049498D01*
X151975000Y-81038640D01*
X151975000Y-80961360D01*
X151985858Y-80950503D01*
X152000000Y-80964645D01*
X152014143Y-80950503D01*
X152025000Y-80961360D01*
X152025000Y-80961360D01*
G37*
X152025000Y-80961360D02*
X152025000Y-81038640D01*
X152014143Y-81049498D01*
X152000000Y-81035355D01*
X151985858Y-81049498D01*
X151975000Y-81038640D01*
X151975000Y-80961360D01*
X151985858Y-80950503D01*
X152000000Y-80964645D01*
X152014143Y-80950503D01*
X152025000Y-80961360D01*
M02*
