G04 #@! TF.FileFunction,Paste,Top*
%FSLAX46Y46*%
G04 Gerber Fmt 4.6, Leading zero omitted, Abs format (unit mm)*
G04 Created by KiCad (PCBNEW 4.0.6-e0-6349~53~ubuntu14.04.1) date Mon Mar 27 23:32:28 2017*
%MOMM*%
%LPD*%
G01*
G04 APERTURE LIST*
%ADD10C,0.100000*%
%ADD11R,1.700000X0.900000*%
%ADD12R,0.864000X0.787000*%
%ADD13R,0.800100X0.800100*%
%ADD14R,0.787000X0.864000*%
%ADD15R,1.200000X0.400000*%
G04 APERTURE END LIST*
D10*
D11*
X157325000Y-90950000D03*
X157325000Y-88050000D03*
D12*
X151425000Y-89474500D03*
X151425000Y-87925500D03*
D13*
X155025760Y-90450000D03*
X155025760Y-88550000D03*
X153026780Y-89500000D03*
D12*
X155125000Y-80074500D03*
X155125000Y-78525500D03*
X148025000Y-87725500D03*
X148025000Y-89274500D03*
X144625000Y-79325500D03*
X144625000Y-80874500D03*
X157625000Y-80074500D03*
X157625000Y-78525500D03*
X133525000Y-71325500D03*
X133525000Y-72874500D03*
X142925000Y-78725500D03*
X142925000Y-80274500D03*
D14*
X143350500Y-75700000D03*
X144899500Y-75700000D03*
D12*
X138625000Y-90925500D03*
X138625000Y-92474500D03*
X139525000Y-77225500D03*
X139525000Y-78774500D03*
X146325000Y-78625500D03*
X146325000Y-80174500D03*
X141225000Y-78125500D03*
X141225000Y-79674500D03*
D14*
X139050500Y-86500000D03*
X140599500Y-86500000D03*
X139050500Y-88200000D03*
X140599500Y-88200000D03*
X139050500Y-84800000D03*
X140599500Y-84800000D03*
X139050500Y-83100000D03*
X140599500Y-83100000D03*
D15*
X128375000Y-78125000D03*
X128375000Y-78775000D03*
X128375000Y-79425000D03*
X128375000Y-80075000D03*
X128375000Y-80725000D03*
X128375000Y-81375000D03*
X128375000Y-82025000D03*
X128375000Y-82675000D03*
X135275000Y-82675000D03*
X135275000Y-82025000D03*
X135275000Y-81375000D03*
X135275000Y-80725000D03*
X135275000Y-80075000D03*
X135275000Y-79425000D03*
X135275000Y-78775000D03*
X135275000Y-78125000D03*
M02*
