G04 #@! TF.FileFunction,Paste,Top*
%FSLAX46Y46*%
G04 Gerber Fmt 4.6, Leading zero omitted, Abs format (unit mm)*
G04 Created by KiCad (PCBNEW 4.0.3+e1-6302~38~ubuntu14.04.1-stable) date Fri Dec  9 13:09:20 2016*
%MOMM*%
%LPD*%
G01*
G04 APERTURE LIST*
%ADD10C,0.100000*%
%ADD11R,0.900000X0.500000*%
%ADD12R,0.750000X0.800000*%
%ADD13R,0.500000X0.900000*%
%ADD14R,1.200000X0.400000*%
%ADD15R,1.700000X0.900000*%
%ADD16R,0.864000X0.787000*%
%ADD17R,0.800100X0.800100*%
G04 APERTURE END LIST*
D10*
D11*
X157625000Y-80050000D03*
X157625000Y-78550000D03*
D12*
X155125000Y-80050000D03*
X155125000Y-78550000D03*
X148025000Y-87750000D03*
X148025000Y-89250000D03*
D11*
X144625000Y-79350000D03*
X144625000Y-80850000D03*
D13*
X143375000Y-75700000D03*
X144875000Y-75700000D03*
D11*
X146325000Y-78650000D03*
X146325000Y-80150000D03*
X133525000Y-71350000D03*
X133525000Y-72850000D03*
D14*
X128375000Y-78125000D03*
X128375000Y-78775000D03*
X128375000Y-79425000D03*
X128375000Y-80075000D03*
X128375000Y-80725000D03*
X128375000Y-81375000D03*
X128375000Y-82025000D03*
X128375000Y-82675000D03*
X135275000Y-82675000D03*
X135275000Y-82025000D03*
X135275000Y-81375000D03*
X135275000Y-80725000D03*
X135275000Y-80075000D03*
X135275000Y-79425000D03*
X135275000Y-78775000D03*
X135275000Y-78125000D03*
D11*
X142925000Y-78750000D03*
X142925000Y-80250000D03*
X139525000Y-77250000D03*
X139525000Y-78750000D03*
X141225000Y-78150000D03*
X141225000Y-79650000D03*
D13*
X139075000Y-86500000D03*
X140575000Y-86500000D03*
X139075000Y-88200000D03*
X140575000Y-88200000D03*
X139075000Y-84800000D03*
X140575000Y-84800000D03*
X139075000Y-83100000D03*
X140575000Y-83100000D03*
D11*
X138625000Y-90950000D03*
X138625000Y-92450000D03*
D15*
X157325000Y-90950000D03*
X157325000Y-88050000D03*
D16*
X151425000Y-89474500D03*
X151425000Y-87925500D03*
D17*
X155025760Y-90450000D03*
X155025760Y-88550000D03*
X153026780Y-89500000D03*
M02*
