G04 #@! TF.FileFunction,Copper,L1,Top,Plane*
%FSLAX46Y46*%
G04 Gerber Fmt 4.6, Leading zero omitted, Abs format (unit mm)*
G04 Created by KiCad (PCBNEW 4.0.6-e0-6349~53~ubuntu14.04.1) date Sat Apr 15 23:33:45 2017*
%MOMM*%
%LPD*%
G01*
G04 APERTURE LIST*
%ADD10C,0.100000*%
%ADD11C,0.600000*%
%ADD12R,0.650240X3.599180*%
%ADD13R,0.650240X4.599940*%
%ADD14O,0.650240X0.650240*%
%ADD15R,1.700000X0.900000*%
%ADD16R,0.864000X0.787000*%
%ADD17R,0.800100X0.800100*%
%ADD18R,0.787000X0.864000*%
%ADD19R,1.200000X0.400000*%
%ADD20C,1.000000*%
%ADD21R,2.032000X1.727200*%
%ADD22O,2.032000X1.727200*%
%ADD23C,1.524000*%
%ADD24C,0.200000*%
%ADD25C,0.500000*%
%ADD26C,0.150000*%
%ADD27C,1.000000*%
%ADD28C,0.400000*%
%ADD29C,1.500000*%
%ADD30C,2.000000*%
%ADD31C,0.750000*%
G04 APERTURE END LIST*
D10*
D11*
X152000000Y-83000000D03*
X152000000Y-81000000D03*
X153000000Y-84000000D03*
X151000000Y-84000000D03*
X153000000Y-82000000D03*
X151000000Y-82000000D03*
X153000000Y-80000000D03*
X151000000Y-80000000D03*
D12*
X159499600Y-99499620D03*
D13*
X158498840Y-100000000D03*
X157500620Y-100000000D03*
X156499860Y-100000000D03*
X155499100Y-100000000D03*
X154500880Y-100000000D03*
X153500120Y-100000000D03*
X152499360Y-100000000D03*
X151501140Y-100000000D03*
X150500380Y-100000000D03*
X149499620Y-100000000D03*
X144500900Y-100000000D03*
X143500140Y-100000000D03*
X142499380Y-100000000D03*
X141501160Y-100000000D03*
X140500400Y-100000000D03*
X146499880Y-100000000D03*
X145499120Y-100000000D03*
D14*
X156499860Y-102301240D03*
X155499100Y-102301240D03*
X154500880Y-102301240D03*
X153500120Y-102301240D03*
X152499360Y-102301240D03*
X151501140Y-102301240D03*
X150500380Y-102301240D03*
X144500900Y-102301240D03*
X143500140Y-102301240D03*
X157500620Y-102301240D03*
X145499120Y-102301240D03*
X142499380Y-102301240D03*
X149499620Y-102301240D03*
X146499880Y-102301240D03*
X141501160Y-102301240D03*
X140500400Y-102301240D03*
X158498840Y-102301240D03*
D11*
X143425000Y-83150000D03*
X144425000Y-82150000D03*
D15*
X157325000Y-90950000D03*
X157325000Y-88050000D03*
D16*
X151425000Y-89474500D03*
X151425000Y-87925500D03*
D17*
X155025760Y-90450000D03*
X155025760Y-88550000D03*
X153026780Y-89500000D03*
D16*
X155125000Y-80074500D03*
X155125000Y-78525500D03*
X147000000Y-87725500D03*
X147000000Y-89274500D03*
X144625000Y-79325500D03*
X144625000Y-80874500D03*
X157625000Y-80074500D03*
X157625000Y-78525500D03*
X133000000Y-71325500D03*
X133000000Y-72874500D03*
X142925000Y-78725500D03*
X142925000Y-80274500D03*
D18*
X143350500Y-75700000D03*
X144899500Y-75700000D03*
D16*
X138625000Y-90925500D03*
X138625000Y-92474500D03*
X139525000Y-77225500D03*
X139525000Y-78774500D03*
X146325000Y-78625500D03*
X146325000Y-80174500D03*
X141225000Y-78125500D03*
X141225000Y-79674500D03*
D18*
X139050500Y-86500000D03*
X140599500Y-86500000D03*
X139050500Y-88200000D03*
X140599500Y-88200000D03*
X139050500Y-84800000D03*
X140599500Y-84800000D03*
X139050500Y-83100000D03*
X140599500Y-83100000D03*
D19*
X128375000Y-78125000D03*
X128375000Y-78775000D03*
X128375000Y-79425000D03*
X128375000Y-80075000D03*
X128375000Y-80725000D03*
X128375000Y-81375000D03*
X128375000Y-82025000D03*
X128375000Y-82675000D03*
X135275000Y-82675000D03*
X135275000Y-82025000D03*
X135275000Y-81375000D03*
X135275000Y-80725000D03*
X135275000Y-80075000D03*
X135275000Y-79425000D03*
X135275000Y-78775000D03*
X135275000Y-78125000D03*
D20*
X126600000Y-75500000D03*
X173600000Y-91200000D03*
X173600000Y-72400000D03*
D21*
X167000000Y-78190000D03*
D22*
X167000000Y-80730000D03*
X167000000Y-83270000D03*
X167000000Y-85810000D03*
D23*
X148000000Y-91700000D03*
X162300000Y-91700000D03*
X132000000Y-91700000D03*
X129000000Y-91700000D03*
D16*
X149400000Y-86674500D03*
X149400000Y-85125500D03*
X149400000Y-89474500D03*
X149400000Y-87925500D03*
D18*
X134125500Y-74800000D03*
X135674500Y-74800000D03*
D20*
X138270000Y-72635000D03*
X138270000Y-71365000D03*
X137000000Y-72635000D03*
X137000000Y-71365000D03*
X135730000Y-72635000D03*
X135730000Y-71365000D03*
X130270000Y-72635000D03*
X130270000Y-71365000D03*
X129000000Y-72635000D03*
X129000000Y-71365000D03*
X127730000Y-72635000D03*
X127730000Y-71365000D03*
D11*
X129525000Y-82700000D03*
X149825000Y-90500000D03*
X143325000Y-74400000D03*
X147450000Y-84625000D03*
X135325000Y-77500000D03*
X140725000Y-76900000D03*
X138025000Y-83200000D03*
X151825000Y-90500000D03*
X150825000Y-90500000D03*
X140925000Y-90450000D03*
X139925000Y-80400000D03*
X140075000Y-90450000D03*
X139325000Y-79800000D03*
X143925000Y-89200000D03*
X143925000Y-85700000D03*
X143225000Y-89600000D03*
X143125000Y-85700000D03*
X158650000Y-85525000D03*
X158650000Y-87050000D03*
X158650000Y-86300000D03*
X134225000Y-90175000D03*
X156350000Y-84275000D03*
X156300000Y-79725000D03*
X142125000Y-89550000D03*
X141450000Y-83075000D03*
X141525000Y-88900000D03*
X141425000Y-85500000D03*
X138725000Y-89400000D03*
X141325000Y-81600000D03*
X156325000Y-78950000D03*
X147000000Y-86575000D03*
X159225000Y-79900000D03*
X157125000Y-81700000D03*
X158450000Y-82325000D03*
X158725000Y-83800000D03*
X144625000Y-85300000D03*
X154825000Y-87125000D03*
X150525000Y-78400000D03*
X147625000Y-76000000D03*
X142475000Y-76875000D03*
X146575000Y-84025000D03*
X129475000Y-74950000D03*
X138025000Y-81100000D03*
X130025000Y-81500000D03*
X136825000Y-82100000D03*
X129400000Y-75975000D03*
X132775000Y-75075000D03*
X147725000Y-83050000D03*
X135325000Y-83600000D03*
X147725000Y-82300000D03*
X127125000Y-82000000D03*
X129675000Y-80075000D03*
X147725000Y-77500000D03*
X147725000Y-81550000D03*
X140600000Y-81000000D03*
X130300000Y-92400000D03*
X140925000Y-89600000D03*
X144225000Y-94225000D03*
X127025000Y-78775000D03*
X145325000Y-87350000D03*
X134125000Y-86400000D03*
X134025000Y-81400000D03*
X144825000Y-91375000D03*
X127025000Y-80725000D03*
X146075000Y-84850000D03*
D24*
X135674500Y-74800000D02*
X135674500Y-72690500D01*
X135674500Y-72690500D02*
X135730000Y-72635000D01*
X128375000Y-82675000D02*
X129500000Y-82675000D01*
X129500000Y-82675000D02*
X129525000Y-82700000D01*
D25*
X148000000Y-91700000D02*
X149200000Y-90500000D01*
X149200000Y-90500000D02*
X149825000Y-90500000D01*
D26*
X143375000Y-75700000D02*
X143375000Y-74450000D01*
X143375000Y-74450000D02*
X143325000Y-74400000D01*
D24*
X135275000Y-77550000D02*
X135325000Y-77500000D01*
X135275000Y-78125000D02*
X135275000Y-77550000D01*
X140375000Y-77250000D02*
X140725000Y-76900000D01*
X140375000Y-77250000D02*
X139525000Y-77250000D01*
X138025000Y-83200000D02*
X138975000Y-83200000D01*
X139075000Y-88200000D02*
X139075000Y-86500000D01*
X139075000Y-86500000D02*
X139075000Y-84800000D01*
X139075000Y-84800000D02*
X139075000Y-83100000D01*
X139075000Y-83100000D02*
X138975000Y-83200000D01*
X141225000Y-78150000D02*
X140675000Y-78150000D01*
X140075000Y-77800000D02*
X139525000Y-77250000D01*
X140325000Y-77800000D02*
X140075000Y-77800000D01*
X140675000Y-78150000D02*
X140325000Y-77800000D01*
X142925000Y-78750000D02*
X141825000Y-78750000D01*
X141825000Y-78750000D02*
X141225000Y-78150000D01*
X144625000Y-79350000D02*
X143525000Y-79350000D01*
X143525000Y-79350000D02*
X142925000Y-78750000D01*
X146325000Y-78650000D02*
X145775000Y-78650000D01*
X145325000Y-79100000D02*
X144875000Y-79100000D01*
X145775000Y-78650000D02*
X145325000Y-79100000D01*
X144875000Y-79100000D02*
X144625000Y-79350000D01*
X139925000Y-80400000D02*
X140925000Y-80400000D01*
X141225000Y-80100000D02*
X141225000Y-79650000D01*
X140925000Y-80400000D02*
X141225000Y-80100000D01*
X139325000Y-78950000D02*
X139325000Y-79800000D01*
X139325000Y-78950000D02*
X139525000Y-78750000D01*
X140575000Y-88200000D02*
X141025000Y-88200000D01*
X143925000Y-86300000D02*
X143925000Y-85700000D01*
X143625000Y-86600000D02*
X143925000Y-86300000D01*
X141825000Y-86600000D02*
X143625000Y-86600000D01*
X141525000Y-86900000D02*
X141825000Y-86600000D01*
X141525000Y-87700000D02*
X141525000Y-86900000D01*
X141025000Y-88200000D02*
X141525000Y-87700000D01*
X140575000Y-86500000D02*
X141125000Y-86500000D01*
X141125000Y-86500000D02*
X141525000Y-86100000D01*
X141525000Y-86100000D02*
X142725000Y-86100000D01*
X142725000Y-86100000D02*
X143125000Y-85700000D01*
D27*
X158650000Y-87050000D02*
X158650000Y-85525000D01*
X157325000Y-85250000D02*
X157325000Y-85525000D01*
X158650000Y-85525000D02*
X157325000Y-85525000D01*
X158050000Y-87050000D02*
X157325000Y-86325000D01*
X157325000Y-86325000D02*
X157325000Y-86300000D01*
X158650000Y-87050000D02*
X158050000Y-87050000D01*
X158650000Y-86300000D02*
X157325000Y-86300000D01*
X157325000Y-86300000D02*
X157325000Y-86300000D01*
X157325000Y-86300000D02*
X157325000Y-86550000D01*
X157325000Y-88050000D02*
X157325000Y-85250000D01*
D28*
X157325000Y-85250000D02*
X157600000Y-85525000D01*
X157325000Y-87525000D02*
X157325000Y-86550000D01*
X157325000Y-86550000D02*
X157575000Y-86300000D01*
X157325000Y-88050000D02*
X157325000Y-87525000D01*
X157325000Y-87525000D02*
X157325000Y-87250000D01*
X157325000Y-87250000D02*
X157525000Y-87050000D01*
D27*
X157325000Y-85250000D02*
X156350000Y-84275000D01*
D26*
X157325000Y-88050000D02*
X155975000Y-88050000D01*
X155475000Y-88550000D02*
X155025760Y-88550000D01*
X155975000Y-88050000D02*
X155475000Y-88550000D01*
D24*
X156300000Y-79725000D02*
X156300000Y-79825000D01*
X156300000Y-79825000D02*
X156075000Y-80050000D01*
X156075000Y-80050000D02*
X155125000Y-80050000D01*
X156325000Y-79725000D02*
X156325000Y-79800000D01*
X156575000Y-80050000D02*
X157625000Y-80050000D01*
X156325000Y-79800000D02*
X156575000Y-80050000D01*
D28*
X156300000Y-79725000D02*
X156325000Y-79725000D01*
X156325000Y-79725000D02*
X156225000Y-79725000D01*
X157700000Y-80075000D02*
X157725000Y-80050000D01*
D24*
X151501140Y-100000000D02*
X150500380Y-100000000D01*
X150500380Y-100000000D02*
X149499620Y-100000000D01*
D26*
X151501140Y-100000000D02*
X151501140Y-102301240D01*
X150500380Y-100000000D02*
X150500380Y-102301240D01*
X149499620Y-100000000D02*
X149499620Y-102301240D01*
D24*
X142499380Y-100000000D02*
X142499380Y-96524380D01*
X142125000Y-96150000D02*
X142125000Y-89550000D01*
X142499380Y-96524380D02*
X142125000Y-96150000D01*
D26*
X141425000Y-83100000D02*
X140599500Y-83100000D01*
X141450000Y-83075000D02*
X141425000Y-83100000D01*
D24*
X140725000Y-83250000D02*
X140575000Y-83100000D01*
D26*
X142499380Y-102301240D02*
X142499380Y-100000000D01*
D24*
X141501160Y-88923840D02*
X141525000Y-88900000D01*
X141501160Y-100000000D02*
X141501160Y-88923840D01*
X141425000Y-85500000D02*
X140725000Y-84800000D01*
X140725000Y-84800000D02*
X140575000Y-84800000D01*
X140625000Y-84750000D02*
X140575000Y-84800000D01*
D26*
X141501160Y-102301240D02*
X141501160Y-100000000D01*
X138625000Y-90925500D02*
X137850500Y-91700000D01*
X137850500Y-91700000D02*
X132000000Y-91700000D01*
X138625000Y-90950000D02*
X138625000Y-89500000D01*
X138625000Y-89500000D02*
X138725000Y-89400000D01*
D24*
X141325000Y-81600000D02*
X143625000Y-81600000D01*
X143625000Y-81600000D02*
X144375000Y-80850000D01*
X144375000Y-80850000D02*
X144625000Y-80850000D01*
X156325000Y-78950000D02*
X156375000Y-78950000D01*
X156775000Y-78550000D02*
X157625000Y-78550000D01*
X156375000Y-78950000D02*
X156775000Y-78550000D01*
X156325000Y-78950000D02*
X156325000Y-78800000D01*
X156075000Y-78550000D02*
X155125000Y-78550000D01*
X156325000Y-78800000D02*
X156075000Y-78550000D01*
D28*
X156325000Y-78950000D02*
X156300000Y-78950000D01*
D26*
X147000000Y-86575000D02*
X147000000Y-87725500D01*
D29*
X159225000Y-79900000D02*
X160925000Y-78200000D01*
D30*
X166990000Y-78200000D02*
X161325000Y-78200000D01*
D29*
X160925000Y-78200000D02*
X161325000Y-78200000D01*
D30*
X166990000Y-78200000D02*
X167000000Y-78190000D01*
X161025000Y-81300000D02*
X161595000Y-80730000D01*
D31*
X157125000Y-81700000D02*
X157525000Y-81300000D01*
D30*
X167000000Y-80730000D02*
X161595000Y-80730000D01*
D31*
X157525000Y-81300000D02*
X161025000Y-81300000D01*
X159650000Y-83000000D02*
X158975000Y-82325000D01*
X158975000Y-82325000D02*
X158450000Y-82325000D01*
D30*
X162895000Y-83270000D02*
X167000000Y-83270000D01*
X162625000Y-83000000D02*
X162895000Y-83270000D01*
D27*
X159725000Y-83000000D02*
X159650000Y-83000000D01*
X159650000Y-83000000D02*
X159800000Y-83000000D01*
X159800000Y-83000000D02*
X162625000Y-83000000D01*
X158725000Y-83800000D02*
X159525000Y-84600000D01*
D30*
X161925000Y-85700000D02*
X166890000Y-85700000D01*
D27*
X160825000Y-84600000D02*
X161925000Y-85700000D01*
X159525000Y-84600000D02*
X160825000Y-84600000D01*
D30*
X166890000Y-85700000D02*
X167000000Y-85810000D01*
D26*
X147725000Y-75900000D02*
X145075000Y-75900000D01*
X145075000Y-75900000D02*
X144875000Y-75700000D01*
D24*
X147725000Y-75900000D02*
X147725000Y-75900000D01*
X147725000Y-75900000D02*
X147625000Y-76000000D01*
X146575000Y-84025000D02*
X146575000Y-83850000D01*
X146325000Y-83600000D02*
X146325000Y-80150000D01*
X146575000Y-83850000D02*
X146325000Y-83600000D01*
D26*
X129500000Y-79425000D02*
X129999996Y-78925004D01*
X129999996Y-78925004D02*
X129999996Y-75474996D01*
X129999996Y-75474996D02*
X129475000Y-74950000D01*
X128375000Y-79425000D02*
X129500000Y-79425000D01*
X128375000Y-81375000D02*
X129900000Y-81375000D01*
X129900000Y-81375000D02*
X130025000Y-81500000D01*
D24*
X136750000Y-82025000D02*
X136825000Y-82100000D01*
X136750000Y-82025000D02*
X135275000Y-82025000D01*
D26*
X128375000Y-78125000D02*
X129300000Y-78125000D01*
X129300000Y-78125000D02*
X129699994Y-77725006D01*
X129699994Y-77725006D02*
X129699994Y-76274994D01*
X129699994Y-76274994D02*
X129400000Y-75975000D01*
X133050000Y-74800000D02*
X134125500Y-74800000D01*
X132775000Y-75075000D02*
X133050000Y-74800000D01*
X134125500Y-74800000D02*
X134125500Y-73325500D01*
X133674500Y-72874500D02*
X133000000Y-72874500D01*
X134125500Y-73325500D02*
X133674500Y-72874500D01*
D24*
X135275000Y-83550000D02*
X135325000Y-83600000D01*
X135275000Y-83550000D02*
X135275000Y-82675000D01*
D26*
X128375000Y-82025000D02*
X129650000Y-82025000D01*
X131200000Y-72295000D02*
X130270000Y-71365000D01*
X131200000Y-73800000D02*
X131200000Y-72295000D01*
X130600000Y-74400000D02*
X131200000Y-73800000D01*
X130600000Y-81875000D02*
X130600000Y-74400000D01*
X130225000Y-82250000D02*
X130600000Y-81875000D01*
X129875000Y-82250000D02*
X130225000Y-82250000D01*
X129650000Y-82025000D02*
X129875000Y-82250000D01*
D24*
X127150000Y-82025000D02*
X127125000Y-82000000D01*
X127150000Y-82025000D02*
X128375000Y-82025000D01*
D26*
X129675000Y-80075000D02*
X129675000Y-80025000D01*
X130299998Y-79400002D02*
X130299998Y-72664998D01*
X129675000Y-80025000D02*
X130299998Y-79400002D01*
X130299998Y-72664998D02*
X130270000Y-72635000D01*
X129675000Y-80075000D02*
X129650000Y-80075000D01*
X129650000Y-80075000D02*
X128375000Y-80075000D01*
X142925000Y-80274500D02*
X142199500Y-81000000D01*
X142199500Y-81000000D02*
X140600000Y-81000000D01*
X129700000Y-92400000D02*
X129000000Y-91700000D01*
X130300000Y-92400000D02*
X129700000Y-92400000D01*
X144500900Y-96875900D02*
X144225000Y-96600000D01*
X144225000Y-96600000D02*
X144225000Y-94225000D01*
X144500900Y-100000000D02*
X144500900Y-96875900D01*
X127025000Y-78775000D02*
X128375000Y-78775000D01*
X144500900Y-100000000D02*
X144500900Y-102301240D01*
X143500140Y-102301240D02*
X143500140Y-100000000D01*
D24*
X146499880Y-96974880D02*
X146499880Y-100000000D01*
X145475000Y-87500000D02*
X145325000Y-87350000D01*
X145475000Y-95950000D02*
X145475000Y-87500000D01*
X146499880Y-96974880D02*
X145475000Y-95950000D01*
X134050000Y-81375000D02*
X134025000Y-81400000D01*
X135275000Y-81375000D02*
X134050000Y-81375000D01*
D26*
X146499880Y-100000000D02*
X146499880Y-102301240D01*
X145499120Y-96849120D02*
X144825000Y-96175000D01*
X144825000Y-96175000D02*
X144825000Y-91375000D01*
X145499120Y-100000000D02*
X145499120Y-96849120D01*
X127025000Y-80725000D02*
X128375000Y-80725000D01*
X145499120Y-100000000D02*
X145499120Y-102301240D01*
X157325000Y-90950000D02*
X155975000Y-90950000D01*
X155475000Y-90450000D02*
X155025760Y-90450000D01*
X155975000Y-90950000D02*
X155475000Y-90450000D01*
D25*
X158498840Y-100000000D02*
X157500620Y-100000000D01*
X157500620Y-100000000D02*
X156499860Y-100000000D01*
X156499860Y-100000000D02*
X155499100Y-100000000D01*
X155499100Y-100000000D02*
X154500880Y-100000000D01*
X154500880Y-100000000D02*
X153500120Y-100000000D01*
X153500120Y-100000000D02*
X152499360Y-100000000D01*
X157500620Y-102301240D02*
X157500620Y-100000000D01*
X158498840Y-102301240D02*
X158498840Y-100000000D01*
D26*
X156499860Y-100000000D02*
X156499860Y-102301240D01*
X155499100Y-100000000D02*
X155499100Y-102301240D01*
X154500880Y-100000000D02*
X154500880Y-102301240D01*
X153500120Y-100000000D02*
X153500120Y-102301240D01*
X152499360Y-100000000D02*
X152499360Y-102301240D01*
X140500400Y-100000000D02*
X140500400Y-93775400D01*
X139175000Y-92450000D02*
X138625000Y-92450000D01*
X140500400Y-93775400D02*
X139175000Y-92450000D01*
X140500400Y-100000000D02*
X140500400Y-102301240D01*
X149400000Y-86674500D02*
X148624500Y-86674500D01*
X146850000Y-85625000D02*
X146075000Y-84850000D01*
X147575000Y-85625000D02*
X146850000Y-85625000D01*
X148624500Y-86674500D02*
X147575000Y-85625000D01*
X149400000Y-87925500D02*
X149400000Y-86674500D01*
X151425000Y-89474500D02*
X149400000Y-89474500D01*
X153026780Y-89500000D02*
X151450500Y-89500000D01*
X151450500Y-89500000D02*
X151425000Y-89474500D01*
X135730000Y-71365000D02*
X133039500Y-71365000D01*
X133039500Y-71365000D02*
X133000000Y-71325500D01*
D24*
G36*
X140150650Y-69768403D02*
X140150650Y-69768404D01*
X140209631Y-69910794D01*
X140318017Y-70073005D01*
X140383405Y-70138391D01*
X140426995Y-70181982D01*
X140589206Y-70290369D01*
X140589208Y-70290370D01*
X140731598Y-70349350D01*
X140922940Y-70387410D01*
X140961843Y-70387410D01*
X141000000Y-70395000D01*
X175561098Y-70395000D01*
X175597716Y-70402284D01*
X175605000Y-70438903D01*
X175605000Y-93061097D01*
X175597716Y-93097716D01*
X175586234Y-93100000D01*
X160525000Y-93100000D01*
X160525000Y-92321209D01*
X161714146Y-92321209D01*
X161803837Y-92425442D01*
X162119220Y-92560094D01*
X162462125Y-92563804D01*
X162780348Y-92436008D01*
X162796163Y-92425442D01*
X162885854Y-92321209D01*
X162300000Y-91735355D01*
X161714146Y-92321209D01*
X160525000Y-92321209D01*
X160525000Y-91862125D01*
X161436196Y-91862125D01*
X161563992Y-92180348D01*
X161574558Y-92196163D01*
X161678791Y-92285854D01*
X162264645Y-91700000D01*
X162335355Y-91700000D01*
X162921209Y-92285854D01*
X163025442Y-92196163D01*
X163160094Y-91880780D01*
X163163804Y-91537875D01*
X163137074Y-91471314D01*
X172229763Y-91471314D01*
X172437893Y-91975029D01*
X172822944Y-92360752D01*
X173326295Y-92569762D01*
X173871314Y-92570237D01*
X174375029Y-92362107D01*
X174760752Y-91977056D01*
X174969762Y-91473705D01*
X174970237Y-90928686D01*
X174762107Y-90424971D01*
X174377056Y-90039248D01*
X173873705Y-89830238D01*
X173328686Y-89829763D01*
X172824971Y-90037893D01*
X172439248Y-90422944D01*
X172230238Y-90926295D01*
X172229763Y-91471314D01*
X163137074Y-91471314D01*
X163036008Y-91219652D01*
X163025442Y-91203837D01*
X162921209Y-91114146D01*
X162335355Y-91700000D01*
X162264645Y-91700000D01*
X161678791Y-91114146D01*
X161574558Y-91203837D01*
X161439906Y-91519220D01*
X161436196Y-91862125D01*
X160525000Y-91862125D01*
X160525000Y-91078791D01*
X161714146Y-91078791D01*
X162300000Y-91664645D01*
X162885854Y-91078791D01*
X162796163Y-90974558D01*
X162480780Y-90839906D01*
X162137875Y-90836196D01*
X161819652Y-90963992D01*
X161803837Y-90974558D01*
X161714146Y-91078791D01*
X160525000Y-91078791D01*
X160525000Y-89500000D01*
X160517121Y-89461094D01*
X160494727Y-89428319D01*
X160461346Y-89406839D01*
X160425000Y-89400000D01*
X153753099Y-89400000D01*
X153753099Y-89099950D01*
X153730786Y-88981365D01*
X153660702Y-88872452D01*
X153553767Y-88799386D01*
X153426830Y-88773681D01*
X152626730Y-88773681D01*
X152508145Y-88795994D01*
X152399232Y-88866078D01*
X152326166Y-88973013D01*
X152300461Y-89099950D01*
X152300461Y-89105000D01*
X152183269Y-89105000D01*
X152183269Y-89081000D01*
X152160956Y-88962415D01*
X152090872Y-88853502D01*
X151983937Y-88780436D01*
X151857000Y-88754731D01*
X150993000Y-88754731D01*
X150874415Y-88777044D01*
X150765502Y-88847128D01*
X150692436Y-88954063D01*
X150667035Y-89079500D01*
X150157987Y-89079500D01*
X150135956Y-88962415D01*
X150065872Y-88853502D01*
X149958937Y-88780436D01*
X149832000Y-88754731D01*
X148968000Y-88754731D01*
X148849415Y-88777044D01*
X148740502Y-88847128D01*
X148667436Y-88954063D01*
X148641731Y-89081000D01*
X148641731Y-89868000D01*
X148664044Y-89986585D01*
X148734128Y-90095498D01*
X148772311Y-90121587D01*
X148258240Y-90635658D01*
X148216167Y-90618188D01*
X147785721Y-90617812D01*
X147387897Y-90782190D01*
X147083260Y-91086296D01*
X146918188Y-91483833D01*
X146917812Y-91914279D01*
X147082190Y-92312103D01*
X147386296Y-92616740D01*
X147783833Y-92781812D01*
X148214279Y-92782188D01*
X148612103Y-92617810D01*
X148916740Y-92313704D01*
X149081812Y-91916167D01*
X149082188Y-91485721D01*
X149064117Y-91441985D01*
X149436102Y-91070000D01*
X149580978Y-91070000D01*
X149701133Y-91119893D01*
X149947785Y-91120108D01*
X150175743Y-91025917D01*
X150325108Y-90876813D01*
X150473339Y-91025304D01*
X150701133Y-91119893D01*
X150947785Y-91120108D01*
X151175743Y-91025917D01*
X151325108Y-90876813D01*
X151473339Y-91025304D01*
X151701133Y-91119893D01*
X151947785Y-91120108D01*
X152175743Y-91025917D01*
X152350304Y-90851661D01*
X152444893Y-90623867D01*
X152445108Y-90377215D01*
X152350917Y-90149257D01*
X152176661Y-89974696D01*
X152162826Y-89968951D01*
X152177801Y-89895000D01*
X152300461Y-89895000D01*
X152300461Y-89900050D01*
X152322774Y-90018635D01*
X152392858Y-90127548D01*
X152499793Y-90200614D01*
X152525000Y-90205718D01*
X152525000Y-93100000D01*
X148225000Y-93100000D01*
X148186094Y-93107879D01*
X148156169Y-93128325D01*
X148077062Y-93112590D01*
X147922939Y-93112590D01*
X147559391Y-93184904D01*
X147559390Y-93184904D01*
X147417000Y-93243884D01*
X147108798Y-93449819D01*
X147054309Y-93504309D01*
X146999819Y-93558798D01*
X146793884Y-93867000D01*
X146734904Y-94009390D01*
X146734904Y-94009391D01*
X146662590Y-94372940D01*
X146662590Y-94411843D01*
X146655000Y-94450000D01*
X146655000Y-96536030D01*
X145895000Y-95776030D01*
X145895000Y-89324500D01*
X146468000Y-89324500D01*
X146468000Y-89687891D01*
X146483224Y-89724645D01*
X146511354Y-89752776D01*
X146548109Y-89768000D01*
X146950000Y-89768000D01*
X146975000Y-89743000D01*
X146975000Y-89299500D01*
X147025000Y-89299500D01*
X147025000Y-89743000D01*
X147050000Y-89768000D01*
X147451891Y-89768000D01*
X147488646Y-89752776D01*
X147516776Y-89724645D01*
X147532000Y-89687891D01*
X147532000Y-89324500D01*
X147507000Y-89299500D01*
X147025000Y-89299500D01*
X146975000Y-89299500D01*
X146493000Y-89299500D01*
X146468000Y-89324500D01*
X145895000Y-89324500D01*
X145895000Y-88861109D01*
X146468000Y-88861109D01*
X146468000Y-89224500D01*
X146493000Y-89249500D01*
X146975000Y-89249500D01*
X146975000Y-88806000D01*
X147025000Y-88806000D01*
X147025000Y-89249500D01*
X147507000Y-89249500D01*
X147532000Y-89224500D01*
X147532000Y-88861109D01*
X147516776Y-88824355D01*
X147488646Y-88796224D01*
X147451891Y-88781000D01*
X147050000Y-88781000D01*
X147025000Y-88806000D01*
X146975000Y-88806000D01*
X146950000Y-88781000D01*
X146548109Y-88781000D01*
X146511354Y-88796224D01*
X146483224Y-88824355D01*
X146468000Y-88861109D01*
X145895000Y-88861109D01*
X145895000Y-87594022D01*
X145944893Y-87473867D01*
X145945108Y-87227215D01*
X145850917Y-86999257D01*
X145676661Y-86824696D01*
X145448867Y-86730107D01*
X145202215Y-86729892D01*
X144974257Y-86824083D01*
X144799696Y-86998339D01*
X144705107Y-87226133D01*
X144704892Y-87472785D01*
X144799083Y-87700743D01*
X144973339Y-87875304D01*
X145055000Y-87909213D01*
X145055000Y-90799178D01*
X144948867Y-90755107D01*
X144702215Y-90754892D01*
X144474257Y-90849083D01*
X144299696Y-91023339D01*
X144205107Y-91251133D01*
X144204892Y-91497785D01*
X144299083Y-91725743D01*
X144430000Y-91856889D01*
X144430000Y-93638797D01*
X144348867Y-93605107D01*
X144102215Y-93604892D01*
X143874257Y-93699083D01*
X143699696Y-93873339D01*
X143605107Y-94101133D01*
X143604892Y-94347785D01*
X143699083Y-94575743D01*
X143830000Y-94706889D01*
X143830000Y-96600000D01*
X143860068Y-96751160D01*
X143945693Y-96879307D01*
X144105900Y-97039515D01*
X144105900Y-97386910D01*
X144057195Y-97396074D01*
X144000565Y-97432515D01*
X143952197Y-97399466D01*
X143825260Y-97373761D01*
X143175020Y-97373761D01*
X143056435Y-97396074D01*
X142999805Y-97432515D01*
X142951437Y-97399466D01*
X142919380Y-97392974D01*
X142919380Y-96524380D01*
X142887409Y-96363653D01*
X142796365Y-96227395D01*
X142545000Y-95976030D01*
X142545000Y-90006781D01*
X142650304Y-89901661D01*
X142664588Y-89867260D01*
X142699083Y-89950743D01*
X142873339Y-90125304D01*
X143101133Y-90219893D01*
X143347785Y-90220108D01*
X143575743Y-90125917D01*
X143750304Y-89951661D01*
X143805018Y-89819896D01*
X144047785Y-89820108D01*
X144275743Y-89725917D01*
X144450304Y-89551661D01*
X144544893Y-89323867D01*
X144545108Y-89077215D01*
X144450917Y-88849257D01*
X144276661Y-88674696D01*
X144048867Y-88580107D01*
X143802215Y-88579892D01*
X143574257Y-88674083D01*
X143399696Y-88848339D01*
X143344982Y-88980104D01*
X143102215Y-88979892D01*
X142874257Y-89074083D01*
X142699696Y-89248339D01*
X142685412Y-89282740D01*
X142650917Y-89199257D01*
X142476661Y-89024696D01*
X142248867Y-88930107D01*
X142144975Y-88930016D01*
X142145108Y-88777215D01*
X142050917Y-88549257D01*
X141876661Y-88374696D01*
X141648867Y-88280107D01*
X141538959Y-88280011D01*
X141821985Y-87996985D01*
X141913029Y-87860727D01*
X141945000Y-87700000D01*
X141945000Y-87073970D01*
X141998970Y-87020000D01*
X143625000Y-87020000D01*
X143785727Y-86988029D01*
X143921985Y-86896985D01*
X144221985Y-86596985D01*
X144313029Y-86460727D01*
X144345000Y-86300000D01*
X144345000Y-86156781D01*
X144450304Y-86051661D01*
X144505018Y-85919896D01*
X144747785Y-85920108D01*
X144975743Y-85825917D01*
X145150304Y-85651661D01*
X145244893Y-85423867D01*
X145245108Y-85177215D01*
X145160639Y-84972785D01*
X145454892Y-84972785D01*
X145549083Y-85200743D01*
X145723339Y-85375304D01*
X145951133Y-85469893D01*
X146136440Y-85470055D01*
X146570693Y-85904308D01*
X146637965Y-85949257D01*
X146698840Y-85989932D01*
X146762004Y-86002496D01*
X146649257Y-86049083D01*
X146474696Y-86223339D01*
X146380107Y-86451133D01*
X146379892Y-86697785D01*
X146474083Y-86925743D01*
X146556156Y-87007960D01*
X146449415Y-87028044D01*
X146340502Y-87098128D01*
X146267436Y-87205063D01*
X146241731Y-87332000D01*
X146241731Y-88119000D01*
X146264044Y-88237585D01*
X146334128Y-88346498D01*
X146441063Y-88419564D01*
X146568000Y-88445269D01*
X147432000Y-88445269D01*
X147550585Y-88422956D01*
X147659498Y-88352872D01*
X147732564Y-88245937D01*
X147758269Y-88119000D01*
X147758269Y-87332000D01*
X147735956Y-87213415D01*
X147665872Y-87104502D01*
X147558937Y-87031436D01*
X147443718Y-87008104D01*
X147525304Y-86926661D01*
X147619893Y-86698867D01*
X147620108Y-86452215D01*
X147525917Y-86224257D01*
X147351661Y-86049696D01*
X147280146Y-86020000D01*
X147411386Y-86020000D01*
X148345193Y-86953807D01*
X148473340Y-87039432D01*
X148624500Y-87069500D01*
X148642013Y-87069500D01*
X148664044Y-87186585D01*
X148734128Y-87295498D01*
X148739698Y-87299304D01*
X148667436Y-87405063D01*
X148641731Y-87532000D01*
X148641731Y-88319000D01*
X148664044Y-88437585D01*
X148734128Y-88546498D01*
X148841063Y-88619564D01*
X148968000Y-88645269D01*
X149832000Y-88645269D01*
X149950585Y-88622956D01*
X150059498Y-88552872D01*
X150132564Y-88445937D01*
X150158269Y-88319000D01*
X150158269Y-87975500D01*
X150893000Y-87975500D01*
X150893000Y-88338891D01*
X150908224Y-88375645D01*
X150936354Y-88403776D01*
X150973109Y-88419000D01*
X151375000Y-88419000D01*
X151400000Y-88394000D01*
X151400000Y-87950500D01*
X151450000Y-87950500D01*
X151450000Y-88394000D01*
X151475000Y-88419000D01*
X151876891Y-88419000D01*
X151913646Y-88403776D01*
X151941776Y-88375645D01*
X151957000Y-88338891D01*
X151957000Y-88149950D01*
X154299441Y-88149950D01*
X154299441Y-88950050D01*
X154321754Y-89068635D01*
X154391838Y-89177548D01*
X154498773Y-89250614D01*
X154625710Y-89276319D01*
X155425810Y-89276319D01*
X155544395Y-89254006D01*
X155653308Y-89183922D01*
X155726374Y-89076987D01*
X155752079Y-88950050D01*
X155752079Y-88830796D01*
X155754307Y-88829307D01*
X156138614Y-88445000D01*
X156148731Y-88445000D01*
X156148731Y-88500000D01*
X156171044Y-88618585D01*
X156241128Y-88727498D01*
X156348063Y-88800564D01*
X156475000Y-88826269D01*
X157105150Y-88826269D01*
X157325000Y-88870000D01*
X157544850Y-88826269D01*
X158175000Y-88826269D01*
X158293585Y-88803956D01*
X158402498Y-88733872D01*
X158475564Y-88626937D01*
X158501269Y-88500000D01*
X158501269Y-87870000D01*
X158650000Y-87870000D01*
X158963800Y-87807581D01*
X159229828Y-87629828D01*
X159407581Y-87363800D01*
X159470000Y-87050000D01*
X159470000Y-85525000D01*
X159445988Y-85404284D01*
X159525000Y-85420001D01*
X159525005Y-85420000D01*
X160485344Y-85420000D01*
X160631603Y-85566259D01*
X160605000Y-85700000D01*
X160705479Y-86205142D01*
X160991619Y-86633381D01*
X161419858Y-86919521D01*
X161925000Y-87020000D01*
X166480608Y-87020000D01*
X166494857Y-87029521D01*
X167000000Y-87130000D01*
X167505142Y-87029521D01*
X167933381Y-86743381D01*
X167983566Y-86668273D01*
X168015506Y-86646932D01*
X168272078Y-86262944D01*
X168362174Y-85810000D01*
X168272078Y-85357056D01*
X168015506Y-84973068D01*
X167983566Y-84951727D01*
X167933381Y-84876619D01*
X167823381Y-84766619D01*
X167430804Y-84504308D01*
X167505142Y-84489521D01*
X167933381Y-84203381D01*
X167983566Y-84128273D01*
X168015506Y-84106932D01*
X168272078Y-83722944D01*
X168362174Y-83270000D01*
X168272078Y-82817056D01*
X168015506Y-82433068D01*
X167983566Y-82411727D01*
X167933381Y-82336619D01*
X167505142Y-82050479D01*
X167251367Y-82000000D01*
X167505142Y-81949521D01*
X167933381Y-81663381D01*
X167983566Y-81588273D01*
X168015506Y-81566932D01*
X168272078Y-81182944D01*
X168362174Y-80730000D01*
X168272078Y-80277056D01*
X168015506Y-79893068D01*
X167983566Y-79871727D01*
X167933381Y-79796619D01*
X167505142Y-79510479D01*
X167271504Y-79464005D01*
X167495142Y-79419521D01*
X167554485Y-79379869D01*
X168016000Y-79379869D01*
X168134585Y-79357556D01*
X168243498Y-79287472D01*
X168316564Y-79180537D01*
X168342269Y-79053600D01*
X168342269Y-77326400D01*
X168319956Y-77207815D01*
X168249872Y-77098902D01*
X168142937Y-77025836D01*
X168016000Y-77000131D01*
X167549519Y-77000131D01*
X167505142Y-76970479D01*
X167000000Y-76870000D01*
X166949727Y-76880000D01*
X161325000Y-76880000D01*
X160819858Y-76980479D01*
X160391619Y-77266619D01*
X160358274Y-77316524D01*
X160168396Y-77443396D01*
X158468396Y-79143396D01*
X158270493Y-79439578D01*
X158183937Y-79380436D01*
X158057000Y-79354731D01*
X157193000Y-79354731D01*
X157074415Y-79377044D01*
X156965502Y-79447128D01*
X156897282Y-79546971D01*
X156825917Y-79374257D01*
X156801791Y-79350089D01*
X156850304Y-79301661D01*
X156932145Y-79104566D01*
X156959128Y-79146498D01*
X157066063Y-79219564D01*
X157193000Y-79245269D01*
X158057000Y-79245269D01*
X158175585Y-79222956D01*
X158284498Y-79152872D01*
X158357564Y-79045937D01*
X158383269Y-78919000D01*
X158383269Y-78132000D01*
X158360956Y-78013415D01*
X158290872Y-77904502D01*
X158183937Y-77831436D01*
X158057000Y-77805731D01*
X157193000Y-77805731D01*
X157074415Y-77828044D01*
X156965502Y-77898128D01*
X156892436Y-78005063D01*
X156867136Y-78130000D01*
X156775000Y-78130000D01*
X156614273Y-78161971D01*
X156478015Y-78253015D01*
X156425000Y-78306030D01*
X156371985Y-78253015D01*
X156235727Y-78161971D01*
X156075000Y-78130000D01*
X155882893Y-78130000D01*
X155860956Y-78013415D01*
X155790872Y-77904502D01*
X155683937Y-77831436D01*
X155557000Y-77805731D01*
X154693000Y-77805731D01*
X154574415Y-77828044D01*
X154465502Y-77898128D01*
X154392436Y-78005063D01*
X154366731Y-78132000D01*
X154366731Y-78919000D01*
X154389044Y-79037585D01*
X154459128Y-79146498D01*
X154566063Y-79219564D01*
X154693000Y-79245269D01*
X155557000Y-79245269D01*
X155675585Y-79222956D01*
X155747753Y-79176517D01*
X155799083Y-79300743D01*
X155823209Y-79324911D01*
X155774696Y-79373339D01*
X155752341Y-79427175D01*
X155683937Y-79380436D01*
X155557000Y-79354731D01*
X154693000Y-79354731D01*
X154574415Y-79377044D01*
X154465502Y-79447128D01*
X154392436Y-79554063D01*
X154366731Y-79681000D01*
X154366731Y-80468000D01*
X154389044Y-80586585D01*
X154459128Y-80695498D01*
X154566063Y-80768564D01*
X154693000Y-80794269D01*
X155557000Y-80794269D01*
X155675585Y-80771956D01*
X155784498Y-80701872D01*
X155857564Y-80594937D01*
X155882864Y-80470000D01*
X156075000Y-80470000D01*
X156235727Y-80438029D01*
X156325000Y-80378379D01*
X156414273Y-80438029D01*
X156575000Y-80470000D01*
X156867107Y-80470000D01*
X156889044Y-80586585D01*
X156959128Y-80695498D01*
X157066063Y-80768564D01*
X157087057Y-80772815D01*
X157033560Y-80808561D01*
X156633561Y-81208561D01*
X156482904Y-81434035D01*
X156430000Y-81700000D01*
X156482904Y-81965965D01*
X156633561Y-82191439D01*
X156859035Y-82342096D01*
X157125000Y-82395000D01*
X157390965Y-82342096D01*
X157616439Y-82191439D01*
X157812878Y-81995000D01*
X157850691Y-81995000D01*
X157807904Y-82059035D01*
X157755000Y-82325000D01*
X157807904Y-82590965D01*
X157958561Y-82816439D01*
X158184035Y-82967096D01*
X158450000Y-83020000D01*
X158523905Y-83020000D01*
X158411199Y-83042419D01*
X158145172Y-83220172D01*
X157967419Y-83486199D01*
X157904999Y-83800000D01*
X157967419Y-84113801D01*
X158145172Y-84379828D01*
X158470344Y-84705000D01*
X157928099Y-84705000D01*
X157904828Y-84670172D01*
X157904825Y-84670170D01*
X156929828Y-83695172D01*
X156663801Y-83517419D01*
X156350000Y-83454999D01*
X156036199Y-83517419D01*
X155770172Y-83695172D01*
X155592419Y-83961199D01*
X155529999Y-84275000D01*
X155592419Y-84588801D01*
X155770172Y-84854828D01*
X156505000Y-85589655D01*
X156505000Y-86324995D01*
X156504999Y-86325000D01*
X156505000Y-86325005D01*
X156505000Y-87273731D01*
X156475000Y-87273731D01*
X156356415Y-87296044D01*
X156247502Y-87366128D01*
X156174436Y-87473063D01*
X156148731Y-87600000D01*
X156148731Y-87655000D01*
X155975000Y-87655000D01*
X155823840Y-87685068D01*
X155733984Y-87745108D01*
X155695693Y-87770693D01*
X155590918Y-87875468D01*
X155552747Y-87849386D01*
X155425810Y-87823681D01*
X154625710Y-87823681D01*
X154507125Y-87845994D01*
X154398212Y-87916078D01*
X154325146Y-88023013D01*
X154299441Y-88149950D01*
X151957000Y-88149950D01*
X151957000Y-87975500D01*
X151932000Y-87950500D01*
X151450000Y-87950500D01*
X151400000Y-87950500D01*
X150918000Y-87950500D01*
X150893000Y-87975500D01*
X150158269Y-87975500D01*
X150158269Y-87532000D01*
X150154527Y-87512109D01*
X150893000Y-87512109D01*
X150893000Y-87875500D01*
X150918000Y-87900500D01*
X151400000Y-87900500D01*
X151400000Y-87457000D01*
X151450000Y-87457000D01*
X151450000Y-87900500D01*
X151932000Y-87900500D01*
X151957000Y-87875500D01*
X151957000Y-87512109D01*
X151941776Y-87475355D01*
X151913646Y-87447224D01*
X151876891Y-87432000D01*
X151475000Y-87432000D01*
X151450000Y-87457000D01*
X151400000Y-87457000D01*
X151375000Y-87432000D01*
X150973109Y-87432000D01*
X150936354Y-87447224D01*
X150908224Y-87475355D01*
X150893000Y-87512109D01*
X150154527Y-87512109D01*
X150135956Y-87413415D01*
X150065872Y-87304502D01*
X150060302Y-87300696D01*
X150096454Y-87247785D01*
X154204892Y-87247785D01*
X154299083Y-87475743D01*
X154473339Y-87650304D01*
X154701133Y-87744893D01*
X154947785Y-87745108D01*
X155175743Y-87650917D01*
X155350304Y-87476661D01*
X155444893Y-87248867D01*
X155445108Y-87002215D01*
X155350917Y-86774257D01*
X155176661Y-86599696D01*
X154948867Y-86505107D01*
X154702215Y-86504892D01*
X154474257Y-86599083D01*
X154299696Y-86773339D01*
X154205107Y-87001133D01*
X154204892Y-87247785D01*
X150096454Y-87247785D01*
X150132564Y-87194937D01*
X150158269Y-87068000D01*
X150158269Y-86281000D01*
X150135956Y-86162415D01*
X150065872Y-86053502D01*
X149958937Y-85980436D01*
X149832000Y-85954731D01*
X148968000Y-85954731D01*
X148849415Y-85977044D01*
X148740502Y-86047128D01*
X148667436Y-86154063D01*
X148666635Y-86158021D01*
X147854307Y-85345693D01*
X147726160Y-85260068D01*
X147598187Y-85234612D01*
X147741247Y-85175500D01*
X148868000Y-85175500D01*
X148868000Y-85538891D01*
X148883224Y-85575645D01*
X148911354Y-85603776D01*
X148948109Y-85619000D01*
X149350000Y-85619000D01*
X149375000Y-85594000D01*
X149375000Y-85150500D01*
X149425000Y-85150500D01*
X149425000Y-85594000D01*
X149450000Y-85619000D01*
X149851891Y-85619000D01*
X149888646Y-85603776D01*
X149916776Y-85575645D01*
X149932000Y-85538891D01*
X149932000Y-85175500D01*
X149907000Y-85150500D01*
X149425000Y-85150500D01*
X149375000Y-85150500D01*
X148893000Y-85150500D01*
X148868000Y-85175500D01*
X147741247Y-85175500D01*
X147800743Y-85150917D01*
X147975304Y-84976661D01*
X148069893Y-84748867D01*
X148069925Y-84712109D01*
X148868000Y-84712109D01*
X148868000Y-85075500D01*
X148893000Y-85100500D01*
X149375000Y-85100500D01*
X149375000Y-84657000D01*
X149425000Y-84657000D01*
X149425000Y-85100500D01*
X149907000Y-85100500D01*
X149932000Y-85075500D01*
X149932000Y-84712109D01*
X149916776Y-84675355D01*
X149888646Y-84647224D01*
X149851891Y-84632000D01*
X149450000Y-84632000D01*
X149425000Y-84657000D01*
X149375000Y-84657000D01*
X149350000Y-84632000D01*
X148948109Y-84632000D01*
X148911354Y-84647224D01*
X148883224Y-84675355D01*
X148868000Y-84712109D01*
X148069925Y-84712109D01*
X148070108Y-84502215D01*
X147981516Y-84287806D01*
X150747549Y-84287806D01*
X150780957Y-84344020D01*
X150929282Y-84401657D01*
X151088372Y-84398146D01*
X151219043Y-84344020D01*
X151252451Y-84287806D01*
X152747549Y-84287806D01*
X152780957Y-84344020D01*
X152929282Y-84401657D01*
X153088372Y-84398146D01*
X153219043Y-84344020D01*
X153252451Y-84287806D01*
X153000000Y-84035355D01*
X152747549Y-84287806D01*
X151252451Y-84287806D01*
X151000000Y-84035355D01*
X150747549Y-84287806D01*
X147981516Y-84287806D01*
X147975917Y-84274257D01*
X147801661Y-84099696D01*
X147573867Y-84005107D01*
X147327215Y-84004892D01*
X147194971Y-84059535D01*
X147195084Y-83929282D01*
X150598343Y-83929282D01*
X150601854Y-84088372D01*
X150655980Y-84219043D01*
X150712194Y-84252451D01*
X150964645Y-84000000D01*
X151035355Y-84000000D01*
X151287806Y-84252451D01*
X151344020Y-84219043D01*
X151401657Y-84070718D01*
X151398536Y-83929282D01*
X152598343Y-83929282D01*
X152601854Y-84088372D01*
X152655980Y-84219043D01*
X152712194Y-84252451D01*
X152964645Y-84000000D01*
X153035355Y-84000000D01*
X153287806Y-84252451D01*
X153344020Y-84219043D01*
X153401657Y-84070718D01*
X153398146Y-83911628D01*
X153344020Y-83780957D01*
X153287806Y-83747549D01*
X153035355Y-84000000D01*
X152964645Y-84000000D01*
X152712194Y-83747549D01*
X152655980Y-83780957D01*
X152598343Y-83929282D01*
X151398536Y-83929282D01*
X151398146Y-83911628D01*
X151344020Y-83780957D01*
X151287806Y-83747549D01*
X151035355Y-84000000D01*
X150964645Y-84000000D01*
X150712194Y-83747549D01*
X150655980Y-83780957D01*
X150598343Y-83929282D01*
X147195084Y-83929282D01*
X147195108Y-83902215D01*
X147116593Y-83712194D01*
X150747549Y-83712194D01*
X151000000Y-83964645D01*
X151252451Y-83712194D01*
X152747549Y-83712194D01*
X153000000Y-83964645D01*
X153252451Y-83712194D01*
X153219043Y-83655980D01*
X153070718Y-83598343D01*
X152911628Y-83601854D01*
X152780957Y-83655980D01*
X152747549Y-83712194D01*
X151252451Y-83712194D01*
X151219043Y-83655980D01*
X151070718Y-83598343D01*
X150911628Y-83601854D01*
X150780957Y-83655980D01*
X150747549Y-83712194D01*
X147116593Y-83712194D01*
X147100917Y-83674257D01*
X146926661Y-83499696D01*
X146745000Y-83424263D01*
X146745000Y-81672785D01*
X147104892Y-81672785D01*
X147199083Y-81900743D01*
X147223187Y-81924889D01*
X147199696Y-81948339D01*
X147105107Y-82176133D01*
X147104892Y-82422785D01*
X147199083Y-82650743D01*
X147223187Y-82674889D01*
X147199696Y-82698339D01*
X147105107Y-82926133D01*
X147104892Y-83172785D01*
X147199083Y-83400743D01*
X147373339Y-83575304D01*
X147601133Y-83669893D01*
X147847785Y-83670108D01*
X148075743Y-83575917D01*
X148250304Y-83401661D01*
X148297581Y-83287806D01*
X151747549Y-83287806D01*
X151780957Y-83344020D01*
X151929282Y-83401657D01*
X152088372Y-83398146D01*
X152219043Y-83344020D01*
X152252451Y-83287806D01*
X152000000Y-83035355D01*
X151747549Y-83287806D01*
X148297581Y-83287806D01*
X148344893Y-83173867D01*
X148345106Y-82929282D01*
X151598343Y-82929282D01*
X151601854Y-83088372D01*
X151655980Y-83219043D01*
X151712194Y-83252451D01*
X151964645Y-83000000D01*
X152035355Y-83000000D01*
X152287806Y-83252451D01*
X152344020Y-83219043D01*
X152401657Y-83070718D01*
X152398146Y-82911628D01*
X152344020Y-82780957D01*
X152287806Y-82747549D01*
X152035355Y-83000000D01*
X151964645Y-83000000D01*
X151712194Y-82747549D01*
X151655980Y-82780957D01*
X151598343Y-82929282D01*
X148345106Y-82929282D01*
X148345108Y-82927215D01*
X148256263Y-82712194D01*
X151747549Y-82712194D01*
X152000000Y-82964645D01*
X152252451Y-82712194D01*
X152219043Y-82655980D01*
X152070718Y-82598343D01*
X151911628Y-82601854D01*
X151780957Y-82655980D01*
X151747549Y-82712194D01*
X148256263Y-82712194D01*
X148250917Y-82699257D01*
X148226813Y-82675111D01*
X148250304Y-82651661D01*
X148344893Y-82423867D01*
X148345011Y-82287806D01*
X150747549Y-82287806D01*
X150780957Y-82344020D01*
X150929282Y-82401657D01*
X151088372Y-82398146D01*
X151219043Y-82344020D01*
X151252451Y-82287806D01*
X152747549Y-82287806D01*
X152780957Y-82344020D01*
X152929282Y-82401657D01*
X153088372Y-82398146D01*
X153219043Y-82344020D01*
X153252451Y-82287806D01*
X153000000Y-82035355D01*
X152747549Y-82287806D01*
X151252451Y-82287806D01*
X151000000Y-82035355D01*
X150747549Y-82287806D01*
X148345011Y-82287806D01*
X148345108Y-82177215D01*
X148250917Y-81949257D01*
X148230977Y-81929282D01*
X150598343Y-81929282D01*
X150601854Y-82088372D01*
X150655980Y-82219043D01*
X150712194Y-82252451D01*
X150964645Y-82000000D01*
X151035355Y-82000000D01*
X151287806Y-82252451D01*
X151344020Y-82219043D01*
X151401657Y-82070718D01*
X151398536Y-81929282D01*
X152598343Y-81929282D01*
X152601854Y-82088372D01*
X152655980Y-82219043D01*
X152712194Y-82252451D01*
X152964645Y-82000000D01*
X153035355Y-82000000D01*
X153287806Y-82252451D01*
X153344020Y-82219043D01*
X153401657Y-82070718D01*
X153398146Y-81911628D01*
X153344020Y-81780957D01*
X153287806Y-81747549D01*
X153035355Y-82000000D01*
X152964645Y-82000000D01*
X152712194Y-81747549D01*
X152655980Y-81780957D01*
X152598343Y-81929282D01*
X151398536Y-81929282D01*
X151398146Y-81911628D01*
X151344020Y-81780957D01*
X151287806Y-81747549D01*
X151035355Y-82000000D01*
X150964645Y-82000000D01*
X150712194Y-81747549D01*
X150655980Y-81780957D01*
X150598343Y-81929282D01*
X148230977Y-81929282D01*
X148226813Y-81925111D01*
X148250304Y-81901661D01*
X148328978Y-81712194D01*
X150747549Y-81712194D01*
X151000000Y-81964645D01*
X151252451Y-81712194D01*
X152747549Y-81712194D01*
X153000000Y-81964645D01*
X153252451Y-81712194D01*
X153219043Y-81655980D01*
X153070718Y-81598343D01*
X152911628Y-81601854D01*
X152780957Y-81655980D01*
X152747549Y-81712194D01*
X151252451Y-81712194D01*
X151219043Y-81655980D01*
X151070718Y-81598343D01*
X150911628Y-81601854D01*
X150780957Y-81655980D01*
X150747549Y-81712194D01*
X148328978Y-81712194D01*
X148344893Y-81673867D01*
X148345108Y-81427215D01*
X148287505Y-81287806D01*
X151747549Y-81287806D01*
X151780957Y-81344020D01*
X151929282Y-81401657D01*
X152088372Y-81398146D01*
X152219043Y-81344020D01*
X152252451Y-81287806D01*
X152000000Y-81035355D01*
X151747549Y-81287806D01*
X148287505Y-81287806D01*
X148250917Y-81199257D01*
X148076661Y-81024696D01*
X147848867Y-80930107D01*
X147602215Y-80929892D01*
X147374257Y-81024083D01*
X147199696Y-81198339D01*
X147105107Y-81426133D01*
X147104892Y-81672785D01*
X146745000Y-81672785D01*
X146745000Y-80929282D01*
X151598343Y-80929282D01*
X151601854Y-81088372D01*
X151655980Y-81219043D01*
X151712194Y-81252451D01*
X151964645Y-81000000D01*
X152035355Y-81000000D01*
X152287806Y-81252451D01*
X152344020Y-81219043D01*
X152401657Y-81070718D01*
X152398146Y-80911628D01*
X152344020Y-80780957D01*
X152287806Y-80747549D01*
X152035355Y-81000000D01*
X151964645Y-81000000D01*
X151712194Y-80747549D01*
X151655980Y-80780957D01*
X151598343Y-80929282D01*
X146745000Y-80929282D01*
X146745000Y-80894269D01*
X146757000Y-80894269D01*
X146875585Y-80871956D01*
X146984498Y-80801872D01*
X147045772Y-80712194D01*
X151747549Y-80712194D01*
X152000000Y-80964645D01*
X152252451Y-80712194D01*
X152219043Y-80655980D01*
X152070718Y-80598343D01*
X151911628Y-80601854D01*
X151780957Y-80655980D01*
X151747549Y-80712194D01*
X147045772Y-80712194D01*
X147057564Y-80694937D01*
X147083269Y-80568000D01*
X147083269Y-80287806D01*
X150747549Y-80287806D01*
X150780957Y-80344020D01*
X150929282Y-80401657D01*
X151088372Y-80398146D01*
X151219043Y-80344020D01*
X151252451Y-80287806D01*
X152747549Y-80287806D01*
X152780957Y-80344020D01*
X152929282Y-80401657D01*
X153088372Y-80398146D01*
X153219043Y-80344020D01*
X153252451Y-80287806D01*
X153000000Y-80035355D01*
X152747549Y-80287806D01*
X151252451Y-80287806D01*
X151000000Y-80035355D01*
X150747549Y-80287806D01*
X147083269Y-80287806D01*
X147083269Y-79929282D01*
X150598343Y-79929282D01*
X150601854Y-80088372D01*
X150655980Y-80219043D01*
X150712194Y-80252451D01*
X150964645Y-80000000D01*
X151035355Y-80000000D01*
X151287806Y-80252451D01*
X151344020Y-80219043D01*
X151401657Y-80070718D01*
X151398536Y-79929282D01*
X152598343Y-79929282D01*
X152601854Y-80088372D01*
X152655980Y-80219043D01*
X152712194Y-80252451D01*
X152964645Y-80000000D01*
X153035355Y-80000000D01*
X153287806Y-80252451D01*
X153344020Y-80219043D01*
X153401657Y-80070718D01*
X153398146Y-79911628D01*
X153344020Y-79780957D01*
X153287806Y-79747549D01*
X153035355Y-80000000D01*
X152964645Y-80000000D01*
X152712194Y-79747549D01*
X152655980Y-79780957D01*
X152598343Y-79929282D01*
X151398536Y-79929282D01*
X151398146Y-79911628D01*
X151344020Y-79780957D01*
X151287806Y-79747549D01*
X151035355Y-80000000D01*
X150964645Y-80000000D01*
X150712194Y-79747549D01*
X150655980Y-79780957D01*
X150598343Y-79929282D01*
X147083269Y-79929282D01*
X147083269Y-79781000D01*
X147070323Y-79712194D01*
X150747549Y-79712194D01*
X151000000Y-79964645D01*
X151252451Y-79712194D01*
X152747549Y-79712194D01*
X153000000Y-79964645D01*
X153252451Y-79712194D01*
X153219043Y-79655980D01*
X153070718Y-79598343D01*
X152911628Y-79601854D01*
X152780957Y-79655980D01*
X152747549Y-79712194D01*
X151252451Y-79712194D01*
X151219043Y-79655980D01*
X151070718Y-79598343D01*
X150911628Y-79601854D01*
X150780957Y-79655980D01*
X150747549Y-79712194D01*
X147070323Y-79712194D01*
X147060956Y-79662415D01*
X146990872Y-79553502D01*
X146883937Y-79480436D01*
X146757000Y-79454731D01*
X145893000Y-79454731D01*
X145774415Y-79477044D01*
X145665502Y-79547128D01*
X145592436Y-79654063D01*
X145566731Y-79781000D01*
X145566731Y-80568000D01*
X145589044Y-80686585D01*
X145659128Y-80795498D01*
X145766063Y-80868564D01*
X145893000Y-80894269D01*
X145905000Y-80894269D01*
X145905000Y-83600000D01*
X145936971Y-83760727D01*
X145984113Y-83831280D01*
X145955107Y-83901133D01*
X145954892Y-84147785D01*
X145988831Y-84229924D01*
X145952215Y-84229892D01*
X145724257Y-84324083D01*
X145549696Y-84498339D01*
X145455107Y-84726133D01*
X145454892Y-84972785D01*
X145160639Y-84972785D01*
X145150917Y-84949257D01*
X144976661Y-84774696D01*
X144748867Y-84680107D01*
X144502215Y-84679892D01*
X144274257Y-84774083D01*
X144099696Y-84948339D01*
X144044982Y-85080104D01*
X143802215Y-85079892D01*
X143574257Y-85174083D01*
X143525067Y-85223187D01*
X143476661Y-85174696D01*
X143248867Y-85080107D01*
X143002215Y-85079892D01*
X142774257Y-85174083D01*
X142599696Y-85348339D01*
X142505107Y-85576133D01*
X142505016Y-85680000D01*
X142021584Y-85680000D01*
X142044893Y-85623867D01*
X142045108Y-85377215D01*
X141950917Y-85149257D01*
X141776661Y-84974696D01*
X141548867Y-84880107D01*
X141398946Y-84879976D01*
X141319269Y-84800299D01*
X141319269Y-84368000D01*
X141296956Y-84249415D01*
X141226872Y-84140502D01*
X141119937Y-84067436D01*
X140993000Y-84041731D01*
X140206000Y-84041731D01*
X140087415Y-84064044D01*
X139978502Y-84134128D01*
X139905436Y-84241063D01*
X139879731Y-84368000D01*
X139879731Y-85232000D01*
X139902044Y-85350585D01*
X139972128Y-85459498D01*
X140079063Y-85532564D01*
X140206000Y-85558269D01*
X140804948Y-85558269D01*
X140804892Y-85622785D01*
X140854040Y-85741731D01*
X140206000Y-85741731D01*
X140087415Y-85764044D01*
X139978502Y-85834128D01*
X139905436Y-85941063D01*
X139879731Y-86068000D01*
X139879731Y-86932000D01*
X139902044Y-87050585D01*
X139972128Y-87159498D01*
X140079063Y-87232564D01*
X140206000Y-87258269D01*
X140993000Y-87258269D01*
X141105000Y-87237195D01*
X141105000Y-87464411D01*
X140993000Y-87441731D01*
X140206000Y-87441731D01*
X140087415Y-87464044D01*
X139978502Y-87534128D01*
X139905436Y-87641063D01*
X139879731Y-87768000D01*
X139879731Y-88632000D01*
X139902044Y-88750585D01*
X139972128Y-88859498D01*
X140079063Y-88932564D01*
X140206000Y-88958269D01*
X140904948Y-88958269D01*
X140904929Y-88979982D01*
X140802215Y-88979892D01*
X140574257Y-89074083D01*
X140399696Y-89248339D01*
X140305107Y-89476133D01*
X140304892Y-89722785D01*
X140380380Y-89905478D01*
X140198867Y-89830107D01*
X139952215Y-89829892D01*
X139724257Y-89924083D01*
X139549696Y-90098339D01*
X139455107Y-90326133D01*
X139454892Y-90572785D01*
X139549083Y-90800743D01*
X139723339Y-90975304D01*
X139951133Y-91069893D01*
X140197785Y-91070108D01*
X140425743Y-90975917D01*
X140499977Y-90901813D01*
X140573339Y-90975304D01*
X140801133Y-91069893D01*
X141047785Y-91070108D01*
X141081160Y-91056318D01*
X141081160Y-97391614D01*
X141057455Y-97396074D01*
X141000825Y-97432515D01*
X140952457Y-97399466D01*
X140895400Y-97387912D01*
X140895400Y-93775400D01*
X140865332Y-93624240D01*
X140779707Y-93496093D01*
X139454307Y-92170693D01*
X139383269Y-92123227D01*
X139383269Y-92081000D01*
X139360956Y-91962415D01*
X139290872Y-91853502D01*
X139183937Y-91780436D01*
X139057000Y-91754731D01*
X138354383Y-91754731D01*
X138463845Y-91645269D01*
X139057000Y-91645269D01*
X139175585Y-91622956D01*
X139284498Y-91552872D01*
X139357564Y-91445937D01*
X139383269Y-91319000D01*
X139383269Y-90532000D01*
X139360956Y-90413415D01*
X139290872Y-90304502D01*
X139183937Y-90231436D01*
X139057000Y-90205731D01*
X139020000Y-90205731D01*
X139020000Y-89948950D01*
X139075743Y-89925917D01*
X139250304Y-89751661D01*
X139344893Y-89523867D01*
X139345108Y-89277215D01*
X139250917Y-89049257D01*
X139160088Y-88958269D01*
X139444000Y-88958269D01*
X139562585Y-88935956D01*
X139671498Y-88865872D01*
X139744564Y-88758937D01*
X139770269Y-88632000D01*
X139770269Y-87768000D01*
X139747956Y-87649415D01*
X139677872Y-87540502D01*
X139570937Y-87467436D01*
X139495000Y-87452059D01*
X139495000Y-87248673D01*
X139562585Y-87235956D01*
X139671498Y-87165872D01*
X139744564Y-87058937D01*
X139770269Y-86932000D01*
X139770269Y-86068000D01*
X139747956Y-85949415D01*
X139677872Y-85840502D01*
X139570937Y-85767436D01*
X139495000Y-85752059D01*
X139495000Y-85548673D01*
X139562585Y-85535956D01*
X139671498Y-85465872D01*
X139744564Y-85358937D01*
X139770269Y-85232000D01*
X139770269Y-84368000D01*
X139747956Y-84249415D01*
X139677872Y-84140502D01*
X139570937Y-84067436D01*
X139495000Y-84052059D01*
X139495000Y-83848673D01*
X139562585Y-83835956D01*
X139671498Y-83765872D01*
X139744564Y-83658937D01*
X139770269Y-83532000D01*
X139770269Y-82668000D01*
X139879731Y-82668000D01*
X139879731Y-83532000D01*
X139902044Y-83650585D01*
X139972128Y-83759498D01*
X140079063Y-83832564D01*
X140206000Y-83858269D01*
X140993000Y-83858269D01*
X141111585Y-83835956D01*
X141220498Y-83765872D01*
X141281624Y-83676411D01*
X141326133Y-83694893D01*
X141572785Y-83695108D01*
X141800743Y-83600917D01*
X141964139Y-83437806D01*
X143172549Y-83437806D01*
X143205957Y-83494020D01*
X143354282Y-83551657D01*
X143513372Y-83548146D01*
X143644043Y-83494020D01*
X143677451Y-83437806D01*
X143425000Y-83185355D01*
X143172549Y-83437806D01*
X141964139Y-83437806D01*
X141975304Y-83426661D01*
X142069893Y-83198867D01*
X142069997Y-83079282D01*
X143023343Y-83079282D01*
X143026854Y-83238372D01*
X143080980Y-83369043D01*
X143137194Y-83402451D01*
X143389645Y-83150000D01*
X143460355Y-83150000D01*
X143712806Y-83402451D01*
X143769020Y-83369043D01*
X143826657Y-83220718D01*
X143823146Y-83061628D01*
X143769020Y-82930957D01*
X143712806Y-82897549D01*
X143460355Y-83150000D01*
X143389645Y-83150000D01*
X143137194Y-82897549D01*
X143080980Y-82930957D01*
X143023343Y-83079282D01*
X142069997Y-83079282D01*
X142070108Y-82952215D01*
X142032912Y-82862194D01*
X143172549Y-82862194D01*
X143425000Y-83114645D01*
X143677451Y-82862194D01*
X143644043Y-82805980D01*
X143495718Y-82748343D01*
X143336628Y-82751854D01*
X143205957Y-82805980D01*
X143172549Y-82862194D01*
X142032912Y-82862194D01*
X141975917Y-82724257D01*
X141801661Y-82549696D01*
X141573867Y-82455107D01*
X141327215Y-82454892D01*
X141255263Y-82484622D01*
X141226872Y-82440502D01*
X141222927Y-82437806D01*
X144172549Y-82437806D01*
X144205957Y-82494020D01*
X144354282Y-82551657D01*
X144513372Y-82548146D01*
X144644043Y-82494020D01*
X144677451Y-82437806D01*
X144425000Y-82185355D01*
X144172549Y-82437806D01*
X141222927Y-82437806D01*
X141119937Y-82367436D01*
X140993000Y-82341731D01*
X140206000Y-82341731D01*
X140087415Y-82364044D01*
X139978502Y-82434128D01*
X139905436Y-82541063D01*
X139879731Y-82668000D01*
X139770269Y-82668000D01*
X139747956Y-82549415D01*
X139677872Y-82440502D01*
X139570937Y-82367436D01*
X139444000Y-82341731D01*
X138657000Y-82341731D01*
X138538415Y-82364044D01*
X138429502Y-82434128D01*
X138356436Y-82541063D01*
X138333043Y-82656584D01*
X138148867Y-82580107D01*
X137902215Y-82579892D01*
X137674257Y-82674083D01*
X137499696Y-82848339D01*
X137405107Y-83076133D01*
X137404892Y-83322785D01*
X137499083Y-83550743D01*
X137673339Y-83725304D01*
X137901133Y-83819893D01*
X138147785Y-83820108D01*
X138375743Y-83725917D01*
X138391438Y-83710250D01*
X138423128Y-83759498D01*
X138530063Y-83832564D01*
X138655000Y-83857864D01*
X138655000Y-84042107D01*
X138538415Y-84064044D01*
X138429502Y-84134128D01*
X138356436Y-84241063D01*
X138330731Y-84368000D01*
X138330731Y-85232000D01*
X138353044Y-85350585D01*
X138423128Y-85459498D01*
X138530063Y-85532564D01*
X138655000Y-85557864D01*
X138655000Y-85742107D01*
X138538415Y-85764044D01*
X138429502Y-85834128D01*
X138356436Y-85941063D01*
X138330731Y-86068000D01*
X138330731Y-86932000D01*
X138353044Y-87050585D01*
X138423128Y-87159498D01*
X138530063Y-87232564D01*
X138655000Y-87257864D01*
X138655000Y-87442107D01*
X138538415Y-87464044D01*
X138429502Y-87534128D01*
X138356436Y-87641063D01*
X138330731Y-87768000D01*
X138330731Y-88632000D01*
X138353044Y-88750585D01*
X138420277Y-88855068D01*
X138374257Y-88874083D01*
X138199696Y-89048339D01*
X138105107Y-89276133D01*
X138104892Y-89522785D01*
X138199083Y-89750743D01*
X138230000Y-89781714D01*
X138230000Y-90205731D01*
X138193000Y-90205731D01*
X138074415Y-90228044D01*
X137965502Y-90298128D01*
X137892436Y-90405063D01*
X137866731Y-90532000D01*
X137866731Y-91125155D01*
X137686886Y-91305000D01*
X133007515Y-91305000D01*
X132917810Y-91087897D01*
X132613704Y-90783260D01*
X132216167Y-90618188D01*
X131785721Y-90617812D01*
X131387897Y-90782190D01*
X131083260Y-91086296D01*
X130918188Y-91483833D01*
X130917812Y-91914279D01*
X131082190Y-92312103D01*
X131386296Y-92616740D01*
X131783833Y-92781812D01*
X132214279Y-92782188D01*
X132612103Y-92617810D01*
X132916740Y-92313704D01*
X133007554Y-92095000D01*
X137850500Y-92095000D01*
X137866731Y-92091771D01*
X137866731Y-92868000D01*
X137889044Y-92986585D01*
X137959128Y-93095498D01*
X137973035Y-93105000D01*
X127038903Y-93105000D01*
X126388755Y-92975677D01*
X125870565Y-92629435D01*
X125524323Y-92111245D01*
X125485144Y-91914279D01*
X127917812Y-91914279D01*
X128082190Y-92312103D01*
X128386296Y-92616740D01*
X128783833Y-92781812D01*
X129214279Y-92782188D01*
X129436961Y-92690177D01*
X129548840Y-92764932D01*
X129700000Y-92795000D01*
X129818263Y-92795000D01*
X129948339Y-92925304D01*
X130176133Y-93019893D01*
X130422785Y-93020108D01*
X130650743Y-92925917D01*
X130825304Y-92751661D01*
X130919893Y-92523867D01*
X130920108Y-92277215D01*
X130825917Y-92049257D01*
X130651661Y-91874696D01*
X130423867Y-91780107D01*
X130177215Y-91779892D01*
X130081897Y-91819277D01*
X130082188Y-91485721D01*
X129917810Y-91087897D01*
X129613704Y-90783260D01*
X129216167Y-90618188D01*
X128785721Y-90617812D01*
X128387897Y-90782190D01*
X128083260Y-91086296D01*
X127918188Y-91483833D01*
X127917812Y-91914279D01*
X125485144Y-91914279D01*
X125395000Y-91461096D01*
X125395000Y-90297785D01*
X133604892Y-90297785D01*
X133699083Y-90525743D01*
X133873339Y-90700304D01*
X134101133Y-90794893D01*
X134347785Y-90795108D01*
X134575743Y-90700917D01*
X134750304Y-90526661D01*
X134844893Y-90298867D01*
X134845108Y-90052215D01*
X134750917Y-89824257D01*
X134576661Y-89649696D01*
X134348867Y-89555107D01*
X134102215Y-89554892D01*
X133874257Y-89649083D01*
X133699696Y-89823339D01*
X133605107Y-90051133D01*
X133604892Y-90297785D01*
X125395000Y-90297785D01*
X125395000Y-86522785D01*
X133504892Y-86522785D01*
X133599083Y-86750743D01*
X133773339Y-86925304D01*
X134001133Y-87019893D01*
X134247785Y-87020108D01*
X134475743Y-86925917D01*
X134650304Y-86751661D01*
X134744893Y-86523867D01*
X134745108Y-86277215D01*
X134650917Y-86049257D01*
X134476661Y-85874696D01*
X134248867Y-85780107D01*
X134002215Y-85779892D01*
X133774257Y-85874083D01*
X133599696Y-86048339D01*
X133505107Y-86276133D01*
X133504892Y-86522785D01*
X125395000Y-86522785D01*
X125395000Y-82725000D01*
X127675000Y-82725000D01*
X127675000Y-82894891D01*
X127690224Y-82931646D01*
X127718355Y-82959776D01*
X127755109Y-82975000D01*
X128325000Y-82975000D01*
X128350000Y-82950000D01*
X128350000Y-82700000D01*
X128400000Y-82700000D01*
X128400000Y-82950000D01*
X128425000Y-82975000D01*
X128994891Y-82975000D01*
X129031645Y-82959776D01*
X129059776Y-82931646D01*
X129075000Y-82894891D01*
X129075000Y-82725000D01*
X129050000Y-82700000D01*
X128400000Y-82700000D01*
X128350000Y-82700000D01*
X127700000Y-82700000D01*
X127675000Y-82725000D01*
X125395000Y-82725000D01*
X125395000Y-78897785D01*
X126404892Y-78897785D01*
X126499083Y-79125743D01*
X126673339Y-79300304D01*
X126901133Y-79394893D01*
X127147785Y-79395108D01*
X127375743Y-79300917D01*
X127448731Y-79228057D01*
X127448731Y-79625000D01*
X127471044Y-79743585D01*
X127474314Y-79748666D01*
X127448731Y-79875000D01*
X127448731Y-80271892D01*
X127376661Y-80199696D01*
X127148867Y-80105107D01*
X126902215Y-80104892D01*
X126674257Y-80199083D01*
X126499696Y-80373339D01*
X126405107Y-80601133D01*
X126404892Y-80847785D01*
X126499083Y-81075743D01*
X126673339Y-81250304D01*
X126901133Y-81344893D01*
X127147785Y-81345108D01*
X127375743Y-81250917D01*
X127448731Y-81178057D01*
X127448731Y-81463098D01*
X127248867Y-81380107D01*
X127002215Y-81379892D01*
X126774257Y-81474083D01*
X126599696Y-81648339D01*
X126505107Y-81876133D01*
X126504892Y-82122785D01*
X126599083Y-82350743D01*
X126773339Y-82525304D01*
X127001133Y-82619893D01*
X127247785Y-82620108D01*
X127475743Y-82525917D01*
X127545974Y-82455809D01*
X127648063Y-82525564D01*
X127675000Y-82531019D01*
X127675000Y-82625000D01*
X127700000Y-82650000D01*
X128350000Y-82650000D01*
X128350000Y-82630000D01*
X128400000Y-82630000D01*
X128400000Y-82650000D01*
X129050000Y-82650000D01*
X129075000Y-82625000D01*
X129075000Y-82532453D01*
X129093585Y-82528956D01*
X129202498Y-82458872D01*
X129229058Y-82420000D01*
X129486386Y-82420000D01*
X129595693Y-82529307D01*
X129723840Y-82614932D01*
X129875000Y-82645000D01*
X130225000Y-82645000D01*
X130376160Y-82614932D01*
X130504307Y-82529307D01*
X130879307Y-82154307D01*
X130964932Y-82026160D01*
X130995000Y-81875000D01*
X130995000Y-81522785D01*
X133404892Y-81522785D01*
X133499083Y-81750743D01*
X133673339Y-81925304D01*
X133901133Y-82019893D01*
X134147785Y-82020108D01*
X134348731Y-81937078D01*
X134348731Y-82225000D01*
X134371044Y-82343585D01*
X134374314Y-82348666D01*
X134348731Y-82475000D01*
X134348731Y-82875000D01*
X134371044Y-82993585D01*
X134441128Y-83102498D01*
X134548063Y-83175564D01*
X134675000Y-83201269D01*
X134846848Y-83201269D01*
X134799696Y-83248339D01*
X134705107Y-83476133D01*
X134704892Y-83722785D01*
X134799083Y-83950743D01*
X134973339Y-84125304D01*
X135201133Y-84219893D01*
X135447785Y-84220108D01*
X135675743Y-84125917D01*
X135850304Y-83951661D01*
X135944893Y-83723867D01*
X135945108Y-83477215D01*
X135850917Y-83249257D01*
X135803013Y-83201269D01*
X135875000Y-83201269D01*
X135993585Y-83178956D01*
X136102498Y-83108872D01*
X136175564Y-83001937D01*
X136201269Y-82875000D01*
X136201269Y-82475000D01*
X136195624Y-82445000D01*
X136296710Y-82445000D01*
X136299083Y-82450743D01*
X136473339Y-82625304D01*
X136701133Y-82719893D01*
X136947785Y-82720108D01*
X137175743Y-82625917D01*
X137350304Y-82451661D01*
X137444893Y-82223867D01*
X137445108Y-81977215D01*
X137350917Y-81749257D01*
X137176661Y-81574696D01*
X136948867Y-81480107D01*
X136702215Y-81479892D01*
X136474257Y-81574083D01*
X136443286Y-81605000D01*
X136195194Y-81605000D01*
X136201269Y-81575000D01*
X136201269Y-81222785D01*
X137404892Y-81222785D01*
X137499083Y-81450743D01*
X137673339Y-81625304D01*
X137901133Y-81719893D01*
X138147785Y-81720108D01*
X138375743Y-81625917D01*
X138550304Y-81451661D01*
X138644893Y-81223867D01*
X138645108Y-80977215D01*
X138550917Y-80749257D01*
X138376661Y-80574696D01*
X138148867Y-80480107D01*
X137902215Y-80479892D01*
X137674257Y-80574083D01*
X137499696Y-80748339D01*
X137405107Y-80976133D01*
X137404892Y-81222785D01*
X136201269Y-81222785D01*
X136201269Y-81175000D01*
X136178956Y-81056415D01*
X136175686Y-81051334D01*
X136201269Y-80925000D01*
X136201269Y-80525000D01*
X136178956Y-80406415D01*
X136108872Y-80297502D01*
X136001937Y-80224436D01*
X135975000Y-80218981D01*
X135975000Y-80125000D01*
X135950000Y-80100000D01*
X135300000Y-80100000D01*
X135300000Y-80120000D01*
X135250000Y-80120000D01*
X135250000Y-80100000D01*
X134600000Y-80100000D01*
X134575000Y-80125000D01*
X134575000Y-80217547D01*
X134556415Y-80221044D01*
X134447502Y-80291128D01*
X134374436Y-80398063D01*
X134348731Y-80525000D01*
X134348731Y-80863098D01*
X134148867Y-80780107D01*
X133902215Y-80779892D01*
X133674257Y-80874083D01*
X133499696Y-81048339D01*
X133405107Y-81276133D01*
X133404892Y-81522785D01*
X130995000Y-81522785D01*
X130995000Y-79855109D01*
X134575000Y-79855109D01*
X134575000Y-80025000D01*
X134600000Y-80050000D01*
X135250000Y-80050000D01*
X135250000Y-79800000D01*
X135300000Y-79800000D01*
X135300000Y-80050000D01*
X135950000Y-80050000D01*
X135975000Y-80025000D01*
X135975000Y-79922785D01*
X138704892Y-79922785D01*
X138799083Y-80150743D01*
X138973339Y-80325304D01*
X139201133Y-80419893D01*
X139304982Y-80419984D01*
X139304892Y-80522785D01*
X139399083Y-80750743D01*
X139573339Y-80925304D01*
X139801133Y-81019893D01*
X139979982Y-81020049D01*
X139979892Y-81122785D01*
X140074083Y-81350743D01*
X140248339Y-81525304D01*
X140476133Y-81619893D01*
X140704982Y-81620092D01*
X140704892Y-81722785D01*
X140799083Y-81950743D01*
X140973339Y-82125304D01*
X141201133Y-82219893D01*
X141447785Y-82220108D01*
X141675743Y-82125917D01*
X141722459Y-82079282D01*
X144023343Y-82079282D01*
X144026854Y-82238372D01*
X144080980Y-82369043D01*
X144137194Y-82402451D01*
X144389645Y-82150000D01*
X144460355Y-82150000D01*
X144712806Y-82402451D01*
X144769020Y-82369043D01*
X144826657Y-82220718D01*
X144823146Y-82061628D01*
X144769020Y-81930957D01*
X144712806Y-81897549D01*
X144460355Y-82150000D01*
X144389645Y-82150000D01*
X144137194Y-81897549D01*
X144080980Y-81930957D01*
X144023343Y-82079282D01*
X141722459Y-82079282D01*
X141781845Y-82020000D01*
X143625000Y-82020000D01*
X143785727Y-81988029D01*
X143921985Y-81896985D01*
X143956776Y-81862194D01*
X144172549Y-81862194D01*
X144425000Y-82114645D01*
X144677451Y-81862194D01*
X144644043Y-81805980D01*
X144495718Y-81748343D01*
X144336628Y-81751854D01*
X144205957Y-81805980D01*
X144172549Y-81862194D01*
X143956776Y-81862194D01*
X144224701Y-81594269D01*
X145057000Y-81594269D01*
X145175585Y-81571956D01*
X145284498Y-81501872D01*
X145357564Y-81394937D01*
X145383269Y-81268000D01*
X145383269Y-80481000D01*
X145360956Y-80362415D01*
X145290872Y-80253502D01*
X145183937Y-80180436D01*
X145057000Y-80154731D01*
X144193000Y-80154731D01*
X144074415Y-80177044D01*
X143965502Y-80247128D01*
X143892436Y-80354063D01*
X143866731Y-80481000D01*
X143866731Y-80764299D01*
X143451030Y-81180000D01*
X142578114Y-81180000D01*
X142763845Y-80994269D01*
X143357000Y-80994269D01*
X143475585Y-80971956D01*
X143584498Y-80901872D01*
X143657564Y-80794937D01*
X143683269Y-80668000D01*
X143683269Y-79881000D01*
X143662383Y-79770000D01*
X143876327Y-79770000D01*
X143889044Y-79837585D01*
X143959128Y-79946498D01*
X144066063Y-80019564D01*
X144193000Y-80045269D01*
X145057000Y-80045269D01*
X145175585Y-80022956D01*
X145284498Y-79952872D01*
X145357564Y-79845937D01*
X145383269Y-79719000D01*
X145383269Y-79508409D01*
X145485727Y-79488029D01*
X145621985Y-79396985D01*
X145726463Y-79292507D01*
X145766063Y-79319564D01*
X145893000Y-79345269D01*
X146757000Y-79345269D01*
X146875585Y-79322956D01*
X146984498Y-79252872D01*
X147057564Y-79145937D01*
X147083269Y-79019000D01*
X147083269Y-78522785D01*
X149904892Y-78522785D01*
X149999083Y-78750743D01*
X150173339Y-78925304D01*
X150401133Y-79019893D01*
X150647785Y-79020108D01*
X150875743Y-78925917D01*
X151050304Y-78751661D01*
X151144893Y-78523867D01*
X151145108Y-78277215D01*
X151050917Y-78049257D01*
X150876661Y-77874696D01*
X150648867Y-77780107D01*
X150402215Y-77779892D01*
X150174257Y-77874083D01*
X149999696Y-78048339D01*
X149905107Y-78276133D01*
X149904892Y-78522785D01*
X147083269Y-78522785D01*
X147083269Y-78232000D01*
X147060956Y-78113415D01*
X146990872Y-78004502D01*
X146883937Y-77931436D01*
X146757000Y-77905731D01*
X145893000Y-77905731D01*
X145774415Y-77928044D01*
X145665502Y-77998128D01*
X145592436Y-78105063D01*
X145566731Y-78232000D01*
X145566731Y-78293737D01*
X145478015Y-78353015D01*
X145193239Y-78637791D01*
X145183937Y-78631436D01*
X145057000Y-78605731D01*
X144193000Y-78605731D01*
X144074415Y-78628044D01*
X143965502Y-78698128D01*
X143892436Y-78805063D01*
X143867136Y-78930000D01*
X143698970Y-78930000D01*
X143683269Y-78914299D01*
X143683269Y-78332000D01*
X143660956Y-78213415D01*
X143590872Y-78104502D01*
X143483937Y-78031436D01*
X143357000Y-78005731D01*
X142493000Y-78005731D01*
X142374415Y-78028044D01*
X142265502Y-78098128D01*
X142192436Y-78205063D01*
X142167136Y-78330000D01*
X141998970Y-78330000D01*
X141983269Y-78314299D01*
X141983269Y-77732000D01*
X141962720Y-77622785D01*
X147104892Y-77622785D01*
X147199083Y-77850743D01*
X147373339Y-78025304D01*
X147601133Y-78119893D01*
X147847785Y-78120108D01*
X148075743Y-78025917D01*
X148250304Y-77851661D01*
X148344893Y-77623867D01*
X148345108Y-77377215D01*
X148250917Y-77149257D01*
X148076661Y-76974696D01*
X147848867Y-76880107D01*
X147602215Y-76879892D01*
X147374257Y-76974083D01*
X147199696Y-77148339D01*
X147105107Y-77376133D01*
X147104892Y-77622785D01*
X141962720Y-77622785D01*
X141960956Y-77613415D01*
X141890872Y-77504502D01*
X141783937Y-77431436D01*
X141657000Y-77405731D01*
X141095964Y-77405731D01*
X141250304Y-77251661D01*
X141344893Y-77023867D01*
X141344915Y-76997785D01*
X141854892Y-76997785D01*
X141949083Y-77225743D01*
X142123339Y-77400304D01*
X142351133Y-77494893D01*
X142597785Y-77495108D01*
X142825743Y-77400917D01*
X143000304Y-77226661D01*
X143094893Y-76998867D01*
X143095108Y-76752215D01*
X143000917Y-76524257D01*
X142929481Y-76452696D01*
X142957000Y-76458269D01*
X143744000Y-76458269D01*
X143862585Y-76435956D01*
X143971498Y-76365872D01*
X144044564Y-76258937D01*
X144070269Y-76132000D01*
X144070269Y-75268000D01*
X144179731Y-75268000D01*
X144179731Y-76132000D01*
X144202044Y-76250585D01*
X144272128Y-76359498D01*
X144379063Y-76432564D01*
X144506000Y-76458269D01*
X145293000Y-76458269D01*
X145411585Y-76435956D01*
X145520498Y-76365872D01*
X145568923Y-76295000D01*
X147076050Y-76295000D01*
X147099083Y-76350743D01*
X147273339Y-76525304D01*
X147501133Y-76619893D01*
X147747785Y-76620108D01*
X147975743Y-76525917D01*
X148150304Y-76351661D01*
X148244893Y-76123867D01*
X148245108Y-75877215D01*
X148150917Y-75649257D01*
X147976661Y-75474696D01*
X147748867Y-75380107D01*
X147502215Y-75379892D01*
X147274257Y-75474083D01*
X147243286Y-75505000D01*
X145619269Y-75505000D01*
X145619269Y-75268000D01*
X145596956Y-75149415D01*
X145526872Y-75040502D01*
X145419937Y-74967436D01*
X145293000Y-74941731D01*
X144506000Y-74941731D01*
X144387415Y-74964044D01*
X144278502Y-75034128D01*
X144205436Y-75141063D01*
X144179731Y-75268000D01*
X144070269Y-75268000D01*
X144047956Y-75149415D01*
X143977872Y-75040502D01*
X143870937Y-74967436D01*
X143770000Y-74946996D01*
X143770000Y-74831825D01*
X143850304Y-74751661D01*
X143944893Y-74523867D01*
X143945108Y-74277215D01*
X143850917Y-74049257D01*
X143676661Y-73874696D01*
X143448867Y-73780107D01*
X143202215Y-73779892D01*
X142974257Y-73874083D01*
X142799696Y-74048339D01*
X142705107Y-74276133D01*
X142704892Y-74522785D01*
X142799083Y-74750743D01*
X142973339Y-74925304D01*
X142980000Y-74928070D01*
X142980000Y-74941731D01*
X142957000Y-74941731D01*
X142838415Y-74964044D01*
X142729502Y-75034128D01*
X142656436Y-75141063D01*
X142630731Y-75268000D01*
X142630731Y-76132000D01*
X142653044Y-76250585D01*
X142676769Y-76287455D01*
X142598867Y-76255107D01*
X142352215Y-76254892D01*
X142124257Y-76349083D01*
X141949696Y-76523339D01*
X141855107Y-76751133D01*
X141854892Y-76997785D01*
X141344915Y-76997785D01*
X141345108Y-76777215D01*
X141250917Y-76549257D01*
X141076661Y-76374696D01*
X140848867Y-76280107D01*
X140602215Y-76279892D01*
X140374257Y-76374083D01*
X140199696Y-76548339D01*
X140179579Y-76596786D01*
X140083937Y-76531436D01*
X139957000Y-76505731D01*
X139093000Y-76505731D01*
X138974415Y-76528044D01*
X138865502Y-76598128D01*
X138792436Y-76705063D01*
X138766731Y-76832000D01*
X138766731Y-77619000D01*
X138789044Y-77737585D01*
X138859128Y-77846498D01*
X138966063Y-77919564D01*
X139093000Y-77945269D01*
X139626299Y-77945269D01*
X139735761Y-78054731D01*
X139093000Y-78054731D01*
X138974415Y-78077044D01*
X138865502Y-78147128D01*
X138792436Y-78254063D01*
X138766731Y-78381000D01*
X138766731Y-79168000D01*
X138789044Y-79286585D01*
X138856586Y-79391548D01*
X138799696Y-79448339D01*
X138705107Y-79676133D01*
X138704892Y-79922785D01*
X135975000Y-79922785D01*
X135975000Y-79855109D01*
X135959776Y-79818354D01*
X135931645Y-79790224D01*
X135894891Y-79775000D01*
X135325000Y-79775000D01*
X135300000Y-79800000D01*
X135250000Y-79800000D01*
X135225000Y-79775000D01*
X134655109Y-79775000D01*
X134618355Y-79790224D01*
X134590224Y-79818354D01*
X134575000Y-79855109D01*
X130995000Y-79855109D01*
X130995000Y-79475000D01*
X134575000Y-79475000D01*
X134575000Y-79644891D01*
X134590224Y-79681646D01*
X134618355Y-79709776D01*
X134655109Y-79725000D01*
X135225000Y-79725000D01*
X135250000Y-79700000D01*
X135250000Y-79450000D01*
X135300000Y-79450000D01*
X135300000Y-79700000D01*
X135325000Y-79725000D01*
X135894891Y-79725000D01*
X135931645Y-79709776D01*
X135959776Y-79681646D01*
X135975000Y-79644891D01*
X135975000Y-79475000D01*
X135950000Y-79450000D01*
X135300000Y-79450000D01*
X135250000Y-79450000D01*
X134600000Y-79450000D01*
X134575000Y-79475000D01*
X130995000Y-79475000D01*
X130995000Y-79205109D01*
X134575000Y-79205109D01*
X134575000Y-79375000D01*
X134600000Y-79400000D01*
X135250000Y-79400000D01*
X135250000Y-79150000D01*
X135300000Y-79150000D01*
X135300000Y-79400000D01*
X135950000Y-79400000D01*
X135975000Y-79375000D01*
X135975000Y-79205109D01*
X135959776Y-79168354D01*
X135931645Y-79140224D01*
X135894891Y-79125000D01*
X135325000Y-79125000D01*
X135300000Y-79150000D01*
X135250000Y-79150000D01*
X135225000Y-79125000D01*
X134655109Y-79125000D01*
X134618355Y-79140224D01*
X134590224Y-79168354D01*
X134575000Y-79205109D01*
X130995000Y-79205109D01*
X130995000Y-78825000D01*
X134575000Y-78825000D01*
X134575000Y-78994891D01*
X134590224Y-79031646D01*
X134618355Y-79059776D01*
X134655109Y-79075000D01*
X135225000Y-79075000D01*
X135250000Y-79050000D01*
X135250000Y-78800000D01*
X135300000Y-78800000D01*
X135300000Y-79050000D01*
X135325000Y-79075000D01*
X135894891Y-79075000D01*
X135931645Y-79059776D01*
X135959776Y-79031646D01*
X135975000Y-78994891D01*
X135975000Y-78825000D01*
X135950000Y-78800000D01*
X135300000Y-78800000D01*
X135250000Y-78800000D01*
X134600000Y-78800000D01*
X134575000Y-78825000D01*
X130995000Y-78825000D01*
X130995000Y-77925000D01*
X134348731Y-77925000D01*
X134348731Y-78325000D01*
X134371044Y-78443585D01*
X134441128Y-78552498D01*
X134548063Y-78625564D01*
X134575000Y-78631019D01*
X134575000Y-78725000D01*
X134600000Y-78750000D01*
X135250000Y-78750000D01*
X135250000Y-78730000D01*
X135300000Y-78730000D01*
X135300000Y-78750000D01*
X135950000Y-78750000D01*
X135975000Y-78725000D01*
X135975000Y-78632453D01*
X135993585Y-78628956D01*
X136102498Y-78558872D01*
X136175564Y-78451937D01*
X136201269Y-78325000D01*
X136201269Y-77925000D01*
X136178956Y-77806415D01*
X136108872Y-77697502D01*
X136001937Y-77624436D01*
X135944903Y-77612886D01*
X135945108Y-77377215D01*
X135850917Y-77149257D01*
X135676661Y-76974696D01*
X135448867Y-76880107D01*
X135202215Y-76879892D01*
X134974257Y-76974083D01*
X134799696Y-77148339D01*
X134705107Y-77376133D01*
X134704913Y-77598731D01*
X134675000Y-77598731D01*
X134556415Y-77621044D01*
X134447502Y-77691128D01*
X134374436Y-77798063D01*
X134348731Y-77925000D01*
X130995000Y-77925000D01*
X130995000Y-75197785D01*
X132154892Y-75197785D01*
X132249083Y-75425743D01*
X132423339Y-75600304D01*
X132651133Y-75694893D01*
X132897785Y-75695108D01*
X133125743Y-75600917D01*
X133300304Y-75426661D01*
X133394893Y-75198867D01*
X133394896Y-75195000D01*
X133405731Y-75195000D01*
X133405731Y-75232000D01*
X133428044Y-75350585D01*
X133498128Y-75459498D01*
X133605063Y-75532564D01*
X133732000Y-75558269D01*
X134519000Y-75558269D01*
X134637585Y-75535956D01*
X134746498Y-75465872D01*
X134819564Y-75358937D01*
X134845269Y-75232000D01*
X134845269Y-74850000D01*
X135181000Y-74850000D01*
X135181000Y-75251891D01*
X135196224Y-75288646D01*
X135224355Y-75316776D01*
X135261109Y-75332000D01*
X135624500Y-75332000D01*
X135649500Y-75307000D01*
X135649500Y-74825000D01*
X135699500Y-74825000D01*
X135699500Y-75307000D01*
X135724500Y-75332000D01*
X136087891Y-75332000D01*
X136124645Y-75316776D01*
X136152776Y-75288646D01*
X136168000Y-75251891D01*
X136168000Y-74850000D01*
X136143000Y-74825000D01*
X135699500Y-74825000D01*
X135649500Y-74825000D01*
X135206000Y-74825000D01*
X135181000Y-74850000D01*
X134845269Y-74850000D01*
X134845269Y-74368000D01*
X134841527Y-74348109D01*
X135181000Y-74348109D01*
X135181000Y-74750000D01*
X135206000Y-74775000D01*
X135649500Y-74775000D01*
X135649500Y-74293000D01*
X135699500Y-74293000D01*
X135699500Y-74775000D01*
X136143000Y-74775000D01*
X136168000Y-74750000D01*
X136168000Y-74348109D01*
X136152776Y-74311354D01*
X136124645Y-74283224D01*
X136087891Y-74268000D01*
X135724500Y-74268000D01*
X135699500Y-74293000D01*
X135649500Y-74293000D01*
X135624500Y-74268000D01*
X135261109Y-74268000D01*
X135224355Y-74283224D01*
X135196224Y-74311354D01*
X135181000Y-74348109D01*
X134841527Y-74348109D01*
X134822956Y-74249415D01*
X134752872Y-74140502D01*
X134645937Y-74067436D01*
X134520500Y-74042035D01*
X134520500Y-73325500D01*
X134490432Y-73174340D01*
X134418843Y-73067199D01*
X135333156Y-73067199D01*
X135390945Y-73144202D01*
X135611617Y-73235192D01*
X135850311Y-73234808D01*
X136069055Y-73144202D01*
X136126844Y-73067199D01*
X135730000Y-72670355D01*
X135333156Y-73067199D01*
X134418843Y-73067199D01*
X134404807Y-73046193D01*
X133953807Y-72595193D01*
X133836210Y-72516617D01*
X135129808Y-72516617D01*
X135130192Y-72755311D01*
X135220798Y-72974055D01*
X135297801Y-73031844D01*
X135694645Y-72635000D01*
X135297801Y-72238156D01*
X135220798Y-72295945D01*
X135129808Y-72516617D01*
X133836210Y-72516617D01*
X133825660Y-72509568D01*
X133758269Y-72496163D01*
X133758269Y-72481000D01*
X133735956Y-72362415D01*
X133665872Y-72253502D01*
X133558937Y-72180436D01*
X133432000Y-72154731D01*
X132568000Y-72154731D01*
X132449415Y-72177044D01*
X132340502Y-72247128D01*
X132267436Y-72354063D01*
X132241731Y-72481000D01*
X132241731Y-73268000D01*
X132264044Y-73386585D01*
X132334128Y-73495498D01*
X132441063Y-73568564D01*
X132568000Y-73594269D01*
X133432000Y-73594269D01*
X133550585Y-73571956D01*
X133659498Y-73501872D01*
X133693498Y-73452112D01*
X133730500Y-73489114D01*
X133730500Y-74042013D01*
X133613415Y-74064044D01*
X133504502Y-74134128D01*
X133431436Y-74241063D01*
X133405731Y-74368000D01*
X133405731Y-74405000D01*
X133050000Y-74405000D01*
X132898840Y-74435068D01*
X132868889Y-74455081D01*
X132652215Y-74454892D01*
X132424257Y-74549083D01*
X132249696Y-74723339D01*
X132155107Y-74951133D01*
X132154892Y-75197785D01*
X130995000Y-75197785D01*
X130995000Y-74563614D01*
X131479307Y-74079307D01*
X131564932Y-73951160D01*
X131595000Y-73800000D01*
X131595000Y-72295000D01*
X131564932Y-72143840D01*
X131479307Y-72015693D01*
X131061274Y-71597660D01*
X131089858Y-71528824D01*
X131090142Y-71202607D01*
X130978330Y-70932000D01*
X132241731Y-70932000D01*
X132241731Y-71719000D01*
X132264044Y-71837585D01*
X132334128Y-71946498D01*
X132441063Y-72019564D01*
X132568000Y-72045269D01*
X133432000Y-72045269D01*
X133550585Y-72022956D01*
X133659498Y-71952872D01*
X133732564Y-71845937D01*
X133749966Y-71760000D01*
X135005969Y-71760000D01*
X135034432Y-71828886D01*
X135264901Y-72059757D01*
X135407465Y-72118955D01*
X135390945Y-72125798D01*
X135333156Y-72202801D01*
X135730000Y-72599645D01*
X136126844Y-72202801D01*
X136069055Y-72125798D01*
X136052519Y-72118980D01*
X136193886Y-72060568D01*
X136365096Y-71889656D01*
X136475344Y-72000096D01*
X136305243Y-72169901D01*
X136246045Y-72312465D01*
X136239202Y-72295945D01*
X136162199Y-72238156D01*
X135765355Y-72635000D01*
X136162199Y-73031844D01*
X136239202Y-72974055D01*
X136246020Y-72957519D01*
X136304432Y-73098886D01*
X136534901Y-73329757D01*
X136836176Y-73454858D01*
X137162393Y-73455142D01*
X137463886Y-73330568D01*
X137635096Y-73159656D01*
X137804901Y-73329757D01*
X138106176Y-73454858D01*
X138432393Y-73455142D01*
X138733886Y-73330568D01*
X138964757Y-73100099D01*
X139089858Y-72798824D01*
X139089969Y-72671314D01*
X172229763Y-72671314D01*
X172437893Y-73175029D01*
X172822944Y-73560752D01*
X173326295Y-73769762D01*
X173871314Y-73770237D01*
X174375029Y-73562107D01*
X174760752Y-73177056D01*
X174969762Y-72673705D01*
X174970237Y-72128686D01*
X174762107Y-71624971D01*
X174377056Y-71239248D01*
X173873705Y-71030238D01*
X173328686Y-71029763D01*
X172824971Y-71237893D01*
X172439248Y-71622944D01*
X172230238Y-72126295D01*
X172229763Y-72671314D01*
X139089969Y-72671314D01*
X139090142Y-72472607D01*
X138965568Y-72171114D01*
X138794656Y-71999904D01*
X138964757Y-71830099D01*
X139089858Y-71528824D01*
X139090142Y-71202607D01*
X138965568Y-70901114D01*
X138735099Y-70670243D01*
X138433824Y-70545142D01*
X138107607Y-70544858D01*
X137806114Y-70669432D01*
X137634904Y-70840344D01*
X137465099Y-70670243D01*
X137163824Y-70545142D01*
X136837607Y-70544858D01*
X136536114Y-70669432D01*
X136364904Y-70840344D01*
X136195099Y-70670243D01*
X135893824Y-70545142D01*
X135567607Y-70544858D01*
X135266114Y-70669432D01*
X135035243Y-70899901D01*
X135006135Y-70970000D01*
X133758269Y-70970000D01*
X133758269Y-70932000D01*
X133735956Y-70813415D01*
X133665872Y-70704502D01*
X133558937Y-70631436D01*
X133432000Y-70605731D01*
X132568000Y-70605731D01*
X132449415Y-70628044D01*
X132340502Y-70698128D01*
X132267436Y-70805063D01*
X132241731Y-70932000D01*
X130978330Y-70932000D01*
X130965568Y-70901114D01*
X130735099Y-70670243D01*
X130433824Y-70545142D01*
X130107607Y-70544858D01*
X129806114Y-70669432D01*
X129634904Y-70840344D01*
X129465099Y-70670243D01*
X129163824Y-70545142D01*
X128837607Y-70544858D01*
X128536114Y-70669432D01*
X128364904Y-70840344D01*
X128195099Y-70670243D01*
X127893824Y-70545142D01*
X127567607Y-70544858D01*
X127266114Y-70669432D01*
X127035243Y-70899901D01*
X126910142Y-71201176D01*
X126909858Y-71527393D01*
X127034432Y-71828886D01*
X127264901Y-72059757D01*
X127407465Y-72118955D01*
X127390945Y-72125798D01*
X127333156Y-72202801D01*
X127730000Y-72599645D01*
X128126844Y-72202801D01*
X128069055Y-72125798D01*
X128052519Y-72118980D01*
X128193886Y-72060568D01*
X128365096Y-71889656D01*
X128475344Y-72000096D01*
X128305243Y-72169901D01*
X128246045Y-72312465D01*
X128239202Y-72295945D01*
X128162199Y-72238156D01*
X127765355Y-72635000D01*
X128162199Y-73031844D01*
X128239202Y-72974055D01*
X128246020Y-72957519D01*
X128304432Y-73098886D01*
X128534901Y-73329757D01*
X128836176Y-73454858D01*
X129162393Y-73455142D01*
X129463886Y-73330568D01*
X129635096Y-73159656D01*
X129804901Y-73329757D01*
X129904998Y-73371321D01*
X129904998Y-74503170D01*
X129826661Y-74424696D01*
X129598867Y-74330107D01*
X129352215Y-74329892D01*
X129124257Y-74424083D01*
X128949696Y-74598339D01*
X128855107Y-74826133D01*
X128854892Y-75072785D01*
X128949083Y-75300743D01*
X129083174Y-75435069D01*
X129049257Y-75449083D01*
X128874696Y-75623339D01*
X128780107Y-75851133D01*
X128779892Y-76097785D01*
X128874083Y-76325743D01*
X129048339Y-76500304D01*
X129276133Y-76594893D01*
X129304994Y-76594918D01*
X129304994Y-77561392D01*
X129185116Y-77681270D01*
X129101937Y-77624436D01*
X128975000Y-77598731D01*
X127775000Y-77598731D01*
X127656415Y-77621044D01*
X127547502Y-77691128D01*
X127474436Y-77798063D01*
X127448731Y-77925000D01*
X127448731Y-78321892D01*
X127376661Y-78249696D01*
X127148867Y-78155107D01*
X126902215Y-78154892D01*
X126674257Y-78249083D01*
X126499696Y-78423339D01*
X126405107Y-78651133D01*
X126404892Y-78897785D01*
X125395000Y-78897785D01*
X125395000Y-76171220D01*
X125437893Y-76275029D01*
X125822944Y-76660752D01*
X126326295Y-76869762D01*
X126871314Y-76870237D01*
X127375029Y-76662107D01*
X127760752Y-76277056D01*
X127969762Y-75773705D01*
X127970237Y-75228686D01*
X127762107Y-74724971D01*
X127377056Y-74339248D01*
X126873705Y-74130238D01*
X126328686Y-74129763D01*
X125824971Y-74337893D01*
X125439248Y-74722944D01*
X125395000Y-74829505D01*
X125395000Y-73067199D01*
X127333156Y-73067199D01*
X127390945Y-73144202D01*
X127611617Y-73235192D01*
X127850311Y-73234808D01*
X128069055Y-73144202D01*
X128126844Y-73067199D01*
X127730000Y-72670355D01*
X127333156Y-73067199D01*
X125395000Y-73067199D01*
X125395000Y-72516617D01*
X127129808Y-72516617D01*
X127130192Y-72755311D01*
X127220798Y-72974055D01*
X127297801Y-73031844D01*
X127694645Y-72635000D01*
X127297801Y-72238156D01*
X127220798Y-72295945D01*
X127129808Y-72516617D01*
X125395000Y-72516617D01*
X125395000Y-71038904D01*
X125524323Y-70388755D01*
X125870565Y-69870565D01*
X126125835Y-69700000D01*
X140137044Y-69700000D01*
X140150650Y-69768403D01*
X140150650Y-69768403D01*
G37*
X140150650Y-69768403D02*
X140150650Y-69768404D01*
X140209631Y-69910794D01*
X140318017Y-70073005D01*
X140383405Y-70138391D01*
X140426995Y-70181982D01*
X140589206Y-70290369D01*
X140589208Y-70290370D01*
X140731598Y-70349350D01*
X140922940Y-70387410D01*
X140961843Y-70387410D01*
X141000000Y-70395000D01*
X175561098Y-70395000D01*
X175597716Y-70402284D01*
X175605000Y-70438903D01*
X175605000Y-93061097D01*
X175597716Y-93097716D01*
X175586234Y-93100000D01*
X160525000Y-93100000D01*
X160525000Y-92321209D01*
X161714146Y-92321209D01*
X161803837Y-92425442D01*
X162119220Y-92560094D01*
X162462125Y-92563804D01*
X162780348Y-92436008D01*
X162796163Y-92425442D01*
X162885854Y-92321209D01*
X162300000Y-91735355D01*
X161714146Y-92321209D01*
X160525000Y-92321209D01*
X160525000Y-91862125D01*
X161436196Y-91862125D01*
X161563992Y-92180348D01*
X161574558Y-92196163D01*
X161678791Y-92285854D01*
X162264645Y-91700000D01*
X162335355Y-91700000D01*
X162921209Y-92285854D01*
X163025442Y-92196163D01*
X163160094Y-91880780D01*
X163163804Y-91537875D01*
X163137074Y-91471314D01*
X172229763Y-91471314D01*
X172437893Y-91975029D01*
X172822944Y-92360752D01*
X173326295Y-92569762D01*
X173871314Y-92570237D01*
X174375029Y-92362107D01*
X174760752Y-91977056D01*
X174969762Y-91473705D01*
X174970237Y-90928686D01*
X174762107Y-90424971D01*
X174377056Y-90039248D01*
X173873705Y-89830238D01*
X173328686Y-89829763D01*
X172824971Y-90037893D01*
X172439248Y-90422944D01*
X172230238Y-90926295D01*
X172229763Y-91471314D01*
X163137074Y-91471314D01*
X163036008Y-91219652D01*
X163025442Y-91203837D01*
X162921209Y-91114146D01*
X162335355Y-91700000D01*
X162264645Y-91700000D01*
X161678791Y-91114146D01*
X161574558Y-91203837D01*
X161439906Y-91519220D01*
X161436196Y-91862125D01*
X160525000Y-91862125D01*
X160525000Y-91078791D01*
X161714146Y-91078791D01*
X162300000Y-91664645D01*
X162885854Y-91078791D01*
X162796163Y-90974558D01*
X162480780Y-90839906D01*
X162137875Y-90836196D01*
X161819652Y-90963992D01*
X161803837Y-90974558D01*
X161714146Y-91078791D01*
X160525000Y-91078791D01*
X160525000Y-89500000D01*
X160517121Y-89461094D01*
X160494727Y-89428319D01*
X160461346Y-89406839D01*
X160425000Y-89400000D01*
X153753099Y-89400000D01*
X153753099Y-89099950D01*
X153730786Y-88981365D01*
X153660702Y-88872452D01*
X153553767Y-88799386D01*
X153426830Y-88773681D01*
X152626730Y-88773681D01*
X152508145Y-88795994D01*
X152399232Y-88866078D01*
X152326166Y-88973013D01*
X152300461Y-89099950D01*
X152300461Y-89105000D01*
X152183269Y-89105000D01*
X152183269Y-89081000D01*
X152160956Y-88962415D01*
X152090872Y-88853502D01*
X151983937Y-88780436D01*
X151857000Y-88754731D01*
X150993000Y-88754731D01*
X150874415Y-88777044D01*
X150765502Y-88847128D01*
X150692436Y-88954063D01*
X150667035Y-89079500D01*
X150157987Y-89079500D01*
X150135956Y-88962415D01*
X150065872Y-88853502D01*
X149958937Y-88780436D01*
X149832000Y-88754731D01*
X148968000Y-88754731D01*
X148849415Y-88777044D01*
X148740502Y-88847128D01*
X148667436Y-88954063D01*
X148641731Y-89081000D01*
X148641731Y-89868000D01*
X148664044Y-89986585D01*
X148734128Y-90095498D01*
X148772311Y-90121587D01*
X148258240Y-90635658D01*
X148216167Y-90618188D01*
X147785721Y-90617812D01*
X147387897Y-90782190D01*
X147083260Y-91086296D01*
X146918188Y-91483833D01*
X146917812Y-91914279D01*
X147082190Y-92312103D01*
X147386296Y-92616740D01*
X147783833Y-92781812D01*
X148214279Y-92782188D01*
X148612103Y-92617810D01*
X148916740Y-92313704D01*
X149081812Y-91916167D01*
X149082188Y-91485721D01*
X149064117Y-91441985D01*
X149436102Y-91070000D01*
X149580978Y-91070000D01*
X149701133Y-91119893D01*
X149947785Y-91120108D01*
X150175743Y-91025917D01*
X150325108Y-90876813D01*
X150473339Y-91025304D01*
X150701133Y-91119893D01*
X150947785Y-91120108D01*
X151175743Y-91025917D01*
X151325108Y-90876813D01*
X151473339Y-91025304D01*
X151701133Y-91119893D01*
X151947785Y-91120108D01*
X152175743Y-91025917D01*
X152350304Y-90851661D01*
X152444893Y-90623867D01*
X152445108Y-90377215D01*
X152350917Y-90149257D01*
X152176661Y-89974696D01*
X152162826Y-89968951D01*
X152177801Y-89895000D01*
X152300461Y-89895000D01*
X152300461Y-89900050D01*
X152322774Y-90018635D01*
X152392858Y-90127548D01*
X152499793Y-90200614D01*
X152525000Y-90205718D01*
X152525000Y-93100000D01*
X148225000Y-93100000D01*
X148186094Y-93107879D01*
X148156169Y-93128325D01*
X148077062Y-93112590D01*
X147922939Y-93112590D01*
X147559391Y-93184904D01*
X147559390Y-93184904D01*
X147417000Y-93243884D01*
X147108798Y-93449819D01*
X147054309Y-93504309D01*
X146999819Y-93558798D01*
X146793884Y-93867000D01*
X146734904Y-94009390D01*
X146734904Y-94009391D01*
X146662590Y-94372940D01*
X146662590Y-94411843D01*
X146655000Y-94450000D01*
X146655000Y-96536030D01*
X145895000Y-95776030D01*
X145895000Y-89324500D01*
X146468000Y-89324500D01*
X146468000Y-89687891D01*
X146483224Y-89724645D01*
X146511354Y-89752776D01*
X146548109Y-89768000D01*
X146950000Y-89768000D01*
X146975000Y-89743000D01*
X146975000Y-89299500D01*
X147025000Y-89299500D01*
X147025000Y-89743000D01*
X147050000Y-89768000D01*
X147451891Y-89768000D01*
X147488646Y-89752776D01*
X147516776Y-89724645D01*
X147532000Y-89687891D01*
X147532000Y-89324500D01*
X147507000Y-89299500D01*
X147025000Y-89299500D01*
X146975000Y-89299500D01*
X146493000Y-89299500D01*
X146468000Y-89324500D01*
X145895000Y-89324500D01*
X145895000Y-88861109D01*
X146468000Y-88861109D01*
X146468000Y-89224500D01*
X146493000Y-89249500D01*
X146975000Y-89249500D01*
X146975000Y-88806000D01*
X147025000Y-88806000D01*
X147025000Y-89249500D01*
X147507000Y-89249500D01*
X147532000Y-89224500D01*
X147532000Y-88861109D01*
X147516776Y-88824355D01*
X147488646Y-88796224D01*
X147451891Y-88781000D01*
X147050000Y-88781000D01*
X147025000Y-88806000D01*
X146975000Y-88806000D01*
X146950000Y-88781000D01*
X146548109Y-88781000D01*
X146511354Y-88796224D01*
X146483224Y-88824355D01*
X146468000Y-88861109D01*
X145895000Y-88861109D01*
X145895000Y-87594022D01*
X145944893Y-87473867D01*
X145945108Y-87227215D01*
X145850917Y-86999257D01*
X145676661Y-86824696D01*
X145448867Y-86730107D01*
X145202215Y-86729892D01*
X144974257Y-86824083D01*
X144799696Y-86998339D01*
X144705107Y-87226133D01*
X144704892Y-87472785D01*
X144799083Y-87700743D01*
X144973339Y-87875304D01*
X145055000Y-87909213D01*
X145055000Y-90799178D01*
X144948867Y-90755107D01*
X144702215Y-90754892D01*
X144474257Y-90849083D01*
X144299696Y-91023339D01*
X144205107Y-91251133D01*
X144204892Y-91497785D01*
X144299083Y-91725743D01*
X144430000Y-91856889D01*
X144430000Y-93638797D01*
X144348867Y-93605107D01*
X144102215Y-93604892D01*
X143874257Y-93699083D01*
X143699696Y-93873339D01*
X143605107Y-94101133D01*
X143604892Y-94347785D01*
X143699083Y-94575743D01*
X143830000Y-94706889D01*
X143830000Y-96600000D01*
X143860068Y-96751160D01*
X143945693Y-96879307D01*
X144105900Y-97039515D01*
X144105900Y-97386910D01*
X144057195Y-97396074D01*
X144000565Y-97432515D01*
X143952197Y-97399466D01*
X143825260Y-97373761D01*
X143175020Y-97373761D01*
X143056435Y-97396074D01*
X142999805Y-97432515D01*
X142951437Y-97399466D01*
X142919380Y-97392974D01*
X142919380Y-96524380D01*
X142887409Y-96363653D01*
X142796365Y-96227395D01*
X142545000Y-95976030D01*
X142545000Y-90006781D01*
X142650304Y-89901661D01*
X142664588Y-89867260D01*
X142699083Y-89950743D01*
X142873339Y-90125304D01*
X143101133Y-90219893D01*
X143347785Y-90220108D01*
X143575743Y-90125917D01*
X143750304Y-89951661D01*
X143805018Y-89819896D01*
X144047785Y-89820108D01*
X144275743Y-89725917D01*
X144450304Y-89551661D01*
X144544893Y-89323867D01*
X144545108Y-89077215D01*
X144450917Y-88849257D01*
X144276661Y-88674696D01*
X144048867Y-88580107D01*
X143802215Y-88579892D01*
X143574257Y-88674083D01*
X143399696Y-88848339D01*
X143344982Y-88980104D01*
X143102215Y-88979892D01*
X142874257Y-89074083D01*
X142699696Y-89248339D01*
X142685412Y-89282740D01*
X142650917Y-89199257D01*
X142476661Y-89024696D01*
X142248867Y-88930107D01*
X142144975Y-88930016D01*
X142145108Y-88777215D01*
X142050917Y-88549257D01*
X141876661Y-88374696D01*
X141648867Y-88280107D01*
X141538959Y-88280011D01*
X141821985Y-87996985D01*
X141913029Y-87860727D01*
X141945000Y-87700000D01*
X141945000Y-87073970D01*
X141998970Y-87020000D01*
X143625000Y-87020000D01*
X143785727Y-86988029D01*
X143921985Y-86896985D01*
X144221985Y-86596985D01*
X144313029Y-86460727D01*
X144345000Y-86300000D01*
X144345000Y-86156781D01*
X144450304Y-86051661D01*
X144505018Y-85919896D01*
X144747785Y-85920108D01*
X144975743Y-85825917D01*
X145150304Y-85651661D01*
X145244893Y-85423867D01*
X145245108Y-85177215D01*
X145160639Y-84972785D01*
X145454892Y-84972785D01*
X145549083Y-85200743D01*
X145723339Y-85375304D01*
X145951133Y-85469893D01*
X146136440Y-85470055D01*
X146570693Y-85904308D01*
X146637965Y-85949257D01*
X146698840Y-85989932D01*
X146762004Y-86002496D01*
X146649257Y-86049083D01*
X146474696Y-86223339D01*
X146380107Y-86451133D01*
X146379892Y-86697785D01*
X146474083Y-86925743D01*
X146556156Y-87007960D01*
X146449415Y-87028044D01*
X146340502Y-87098128D01*
X146267436Y-87205063D01*
X146241731Y-87332000D01*
X146241731Y-88119000D01*
X146264044Y-88237585D01*
X146334128Y-88346498D01*
X146441063Y-88419564D01*
X146568000Y-88445269D01*
X147432000Y-88445269D01*
X147550585Y-88422956D01*
X147659498Y-88352872D01*
X147732564Y-88245937D01*
X147758269Y-88119000D01*
X147758269Y-87332000D01*
X147735956Y-87213415D01*
X147665872Y-87104502D01*
X147558937Y-87031436D01*
X147443718Y-87008104D01*
X147525304Y-86926661D01*
X147619893Y-86698867D01*
X147620108Y-86452215D01*
X147525917Y-86224257D01*
X147351661Y-86049696D01*
X147280146Y-86020000D01*
X147411386Y-86020000D01*
X148345193Y-86953807D01*
X148473340Y-87039432D01*
X148624500Y-87069500D01*
X148642013Y-87069500D01*
X148664044Y-87186585D01*
X148734128Y-87295498D01*
X148739698Y-87299304D01*
X148667436Y-87405063D01*
X148641731Y-87532000D01*
X148641731Y-88319000D01*
X148664044Y-88437585D01*
X148734128Y-88546498D01*
X148841063Y-88619564D01*
X148968000Y-88645269D01*
X149832000Y-88645269D01*
X149950585Y-88622956D01*
X150059498Y-88552872D01*
X150132564Y-88445937D01*
X150158269Y-88319000D01*
X150158269Y-87975500D01*
X150893000Y-87975500D01*
X150893000Y-88338891D01*
X150908224Y-88375645D01*
X150936354Y-88403776D01*
X150973109Y-88419000D01*
X151375000Y-88419000D01*
X151400000Y-88394000D01*
X151400000Y-87950500D01*
X151450000Y-87950500D01*
X151450000Y-88394000D01*
X151475000Y-88419000D01*
X151876891Y-88419000D01*
X151913646Y-88403776D01*
X151941776Y-88375645D01*
X151957000Y-88338891D01*
X151957000Y-88149950D01*
X154299441Y-88149950D01*
X154299441Y-88950050D01*
X154321754Y-89068635D01*
X154391838Y-89177548D01*
X154498773Y-89250614D01*
X154625710Y-89276319D01*
X155425810Y-89276319D01*
X155544395Y-89254006D01*
X155653308Y-89183922D01*
X155726374Y-89076987D01*
X155752079Y-88950050D01*
X155752079Y-88830796D01*
X155754307Y-88829307D01*
X156138614Y-88445000D01*
X156148731Y-88445000D01*
X156148731Y-88500000D01*
X156171044Y-88618585D01*
X156241128Y-88727498D01*
X156348063Y-88800564D01*
X156475000Y-88826269D01*
X157105150Y-88826269D01*
X157325000Y-88870000D01*
X157544850Y-88826269D01*
X158175000Y-88826269D01*
X158293585Y-88803956D01*
X158402498Y-88733872D01*
X158475564Y-88626937D01*
X158501269Y-88500000D01*
X158501269Y-87870000D01*
X158650000Y-87870000D01*
X158963800Y-87807581D01*
X159229828Y-87629828D01*
X159407581Y-87363800D01*
X159470000Y-87050000D01*
X159470000Y-85525000D01*
X159445988Y-85404284D01*
X159525000Y-85420001D01*
X159525005Y-85420000D01*
X160485344Y-85420000D01*
X160631603Y-85566259D01*
X160605000Y-85700000D01*
X160705479Y-86205142D01*
X160991619Y-86633381D01*
X161419858Y-86919521D01*
X161925000Y-87020000D01*
X166480608Y-87020000D01*
X166494857Y-87029521D01*
X167000000Y-87130000D01*
X167505142Y-87029521D01*
X167933381Y-86743381D01*
X167983566Y-86668273D01*
X168015506Y-86646932D01*
X168272078Y-86262944D01*
X168362174Y-85810000D01*
X168272078Y-85357056D01*
X168015506Y-84973068D01*
X167983566Y-84951727D01*
X167933381Y-84876619D01*
X167823381Y-84766619D01*
X167430804Y-84504308D01*
X167505142Y-84489521D01*
X167933381Y-84203381D01*
X167983566Y-84128273D01*
X168015506Y-84106932D01*
X168272078Y-83722944D01*
X168362174Y-83270000D01*
X168272078Y-82817056D01*
X168015506Y-82433068D01*
X167983566Y-82411727D01*
X167933381Y-82336619D01*
X167505142Y-82050479D01*
X167251367Y-82000000D01*
X167505142Y-81949521D01*
X167933381Y-81663381D01*
X167983566Y-81588273D01*
X168015506Y-81566932D01*
X168272078Y-81182944D01*
X168362174Y-80730000D01*
X168272078Y-80277056D01*
X168015506Y-79893068D01*
X167983566Y-79871727D01*
X167933381Y-79796619D01*
X167505142Y-79510479D01*
X167271504Y-79464005D01*
X167495142Y-79419521D01*
X167554485Y-79379869D01*
X168016000Y-79379869D01*
X168134585Y-79357556D01*
X168243498Y-79287472D01*
X168316564Y-79180537D01*
X168342269Y-79053600D01*
X168342269Y-77326400D01*
X168319956Y-77207815D01*
X168249872Y-77098902D01*
X168142937Y-77025836D01*
X168016000Y-77000131D01*
X167549519Y-77000131D01*
X167505142Y-76970479D01*
X167000000Y-76870000D01*
X166949727Y-76880000D01*
X161325000Y-76880000D01*
X160819858Y-76980479D01*
X160391619Y-77266619D01*
X160358274Y-77316524D01*
X160168396Y-77443396D01*
X158468396Y-79143396D01*
X158270493Y-79439578D01*
X158183937Y-79380436D01*
X158057000Y-79354731D01*
X157193000Y-79354731D01*
X157074415Y-79377044D01*
X156965502Y-79447128D01*
X156897282Y-79546971D01*
X156825917Y-79374257D01*
X156801791Y-79350089D01*
X156850304Y-79301661D01*
X156932145Y-79104566D01*
X156959128Y-79146498D01*
X157066063Y-79219564D01*
X157193000Y-79245269D01*
X158057000Y-79245269D01*
X158175585Y-79222956D01*
X158284498Y-79152872D01*
X158357564Y-79045937D01*
X158383269Y-78919000D01*
X158383269Y-78132000D01*
X158360956Y-78013415D01*
X158290872Y-77904502D01*
X158183937Y-77831436D01*
X158057000Y-77805731D01*
X157193000Y-77805731D01*
X157074415Y-77828044D01*
X156965502Y-77898128D01*
X156892436Y-78005063D01*
X156867136Y-78130000D01*
X156775000Y-78130000D01*
X156614273Y-78161971D01*
X156478015Y-78253015D01*
X156425000Y-78306030D01*
X156371985Y-78253015D01*
X156235727Y-78161971D01*
X156075000Y-78130000D01*
X155882893Y-78130000D01*
X155860956Y-78013415D01*
X155790872Y-77904502D01*
X155683937Y-77831436D01*
X155557000Y-77805731D01*
X154693000Y-77805731D01*
X154574415Y-77828044D01*
X154465502Y-77898128D01*
X154392436Y-78005063D01*
X154366731Y-78132000D01*
X154366731Y-78919000D01*
X154389044Y-79037585D01*
X154459128Y-79146498D01*
X154566063Y-79219564D01*
X154693000Y-79245269D01*
X155557000Y-79245269D01*
X155675585Y-79222956D01*
X155747753Y-79176517D01*
X155799083Y-79300743D01*
X155823209Y-79324911D01*
X155774696Y-79373339D01*
X155752341Y-79427175D01*
X155683937Y-79380436D01*
X155557000Y-79354731D01*
X154693000Y-79354731D01*
X154574415Y-79377044D01*
X154465502Y-79447128D01*
X154392436Y-79554063D01*
X154366731Y-79681000D01*
X154366731Y-80468000D01*
X154389044Y-80586585D01*
X154459128Y-80695498D01*
X154566063Y-80768564D01*
X154693000Y-80794269D01*
X155557000Y-80794269D01*
X155675585Y-80771956D01*
X155784498Y-80701872D01*
X155857564Y-80594937D01*
X155882864Y-80470000D01*
X156075000Y-80470000D01*
X156235727Y-80438029D01*
X156325000Y-80378379D01*
X156414273Y-80438029D01*
X156575000Y-80470000D01*
X156867107Y-80470000D01*
X156889044Y-80586585D01*
X156959128Y-80695498D01*
X157066063Y-80768564D01*
X157087057Y-80772815D01*
X157033560Y-80808561D01*
X156633561Y-81208561D01*
X156482904Y-81434035D01*
X156430000Y-81700000D01*
X156482904Y-81965965D01*
X156633561Y-82191439D01*
X156859035Y-82342096D01*
X157125000Y-82395000D01*
X157390965Y-82342096D01*
X157616439Y-82191439D01*
X157812878Y-81995000D01*
X157850691Y-81995000D01*
X157807904Y-82059035D01*
X157755000Y-82325000D01*
X157807904Y-82590965D01*
X157958561Y-82816439D01*
X158184035Y-82967096D01*
X158450000Y-83020000D01*
X158523905Y-83020000D01*
X158411199Y-83042419D01*
X158145172Y-83220172D01*
X157967419Y-83486199D01*
X157904999Y-83800000D01*
X157967419Y-84113801D01*
X158145172Y-84379828D01*
X158470344Y-84705000D01*
X157928099Y-84705000D01*
X157904828Y-84670172D01*
X157904825Y-84670170D01*
X156929828Y-83695172D01*
X156663801Y-83517419D01*
X156350000Y-83454999D01*
X156036199Y-83517419D01*
X155770172Y-83695172D01*
X155592419Y-83961199D01*
X155529999Y-84275000D01*
X155592419Y-84588801D01*
X155770172Y-84854828D01*
X156505000Y-85589655D01*
X156505000Y-86324995D01*
X156504999Y-86325000D01*
X156505000Y-86325005D01*
X156505000Y-87273731D01*
X156475000Y-87273731D01*
X156356415Y-87296044D01*
X156247502Y-87366128D01*
X156174436Y-87473063D01*
X156148731Y-87600000D01*
X156148731Y-87655000D01*
X155975000Y-87655000D01*
X155823840Y-87685068D01*
X155733984Y-87745108D01*
X155695693Y-87770693D01*
X155590918Y-87875468D01*
X155552747Y-87849386D01*
X155425810Y-87823681D01*
X154625710Y-87823681D01*
X154507125Y-87845994D01*
X154398212Y-87916078D01*
X154325146Y-88023013D01*
X154299441Y-88149950D01*
X151957000Y-88149950D01*
X151957000Y-87975500D01*
X151932000Y-87950500D01*
X151450000Y-87950500D01*
X151400000Y-87950500D01*
X150918000Y-87950500D01*
X150893000Y-87975500D01*
X150158269Y-87975500D01*
X150158269Y-87532000D01*
X150154527Y-87512109D01*
X150893000Y-87512109D01*
X150893000Y-87875500D01*
X150918000Y-87900500D01*
X151400000Y-87900500D01*
X151400000Y-87457000D01*
X151450000Y-87457000D01*
X151450000Y-87900500D01*
X151932000Y-87900500D01*
X151957000Y-87875500D01*
X151957000Y-87512109D01*
X151941776Y-87475355D01*
X151913646Y-87447224D01*
X151876891Y-87432000D01*
X151475000Y-87432000D01*
X151450000Y-87457000D01*
X151400000Y-87457000D01*
X151375000Y-87432000D01*
X150973109Y-87432000D01*
X150936354Y-87447224D01*
X150908224Y-87475355D01*
X150893000Y-87512109D01*
X150154527Y-87512109D01*
X150135956Y-87413415D01*
X150065872Y-87304502D01*
X150060302Y-87300696D01*
X150096454Y-87247785D01*
X154204892Y-87247785D01*
X154299083Y-87475743D01*
X154473339Y-87650304D01*
X154701133Y-87744893D01*
X154947785Y-87745108D01*
X155175743Y-87650917D01*
X155350304Y-87476661D01*
X155444893Y-87248867D01*
X155445108Y-87002215D01*
X155350917Y-86774257D01*
X155176661Y-86599696D01*
X154948867Y-86505107D01*
X154702215Y-86504892D01*
X154474257Y-86599083D01*
X154299696Y-86773339D01*
X154205107Y-87001133D01*
X154204892Y-87247785D01*
X150096454Y-87247785D01*
X150132564Y-87194937D01*
X150158269Y-87068000D01*
X150158269Y-86281000D01*
X150135956Y-86162415D01*
X150065872Y-86053502D01*
X149958937Y-85980436D01*
X149832000Y-85954731D01*
X148968000Y-85954731D01*
X148849415Y-85977044D01*
X148740502Y-86047128D01*
X148667436Y-86154063D01*
X148666635Y-86158021D01*
X147854307Y-85345693D01*
X147726160Y-85260068D01*
X147598187Y-85234612D01*
X147741247Y-85175500D01*
X148868000Y-85175500D01*
X148868000Y-85538891D01*
X148883224Y-85575645D01*
X148911354Y-85603776D01*
X148948109Y-85619000D01*
X149350000Y-85619000D01*
X149375000Y-85594000D01*
X149375000Y-85150500D01*
X149425000Y-85150500D01*
X149425000Y-85594000D01*
X149450000Y-85619000D01*
X149851891Y-85619000D01*
X149888646Y-85603776D01*
X149916776Y-85575645D01*
X149932000Y-85538891D01*
X149932000Y-85175500D01*
X149907000Y-85150500D01*
X149425000Y-85150500D01*
X149375000Y-85150500D01*
X148893000Y-85150500D01*
X148868000Y-85175500D01*
X147741247Y-85175500D01*
X147800743Y-85150917D01*
X147975304Y-84976661D01*
X148069893Y-84748867D01*
X148069925Y-84712109D01*
X148868000Y-84712109D01*
X148868000Y-85075500D01*
X148893000Y-85100500D01*
X149375000Y-85100500D01*
X149375000Y-84657000D01*
X149425000Y-84657000D01*
X149425000Y-85100500D01*
X149907000Y-85100500D01*
X149932000Y-85075500D01*
X149932000Y-84712109D01*
X149916776Y-84675355D01*
X149888646Y-84647224D01*
X149851891Y-84632000D01*
X149450000Y-84632000D01*
X149425000Y-84657000D01*
X149375000Y-84657000D01*
X149350000Y-84632000D01*
X148948109Y-84632000D01*
X148911354Y-84647224D01*
X148883224Y-84675355D01*
X148868000Y-84712109D01*
X148069925Y-84712109D01*
X148070108Y-84502215D01*
X147981516Y-84287806D01*
X150747549Y-84287806D01*
X150780957Y-84344020D01*
X150929282Y-84401657D01*
X151088372Y-84398146D01*
X151219043Y-84344020D01*
X151252451Y-84287806D01*
X152747549Y-84287806D01*
X152780957Y-84344020D01*
X152929282Y-84401657D01*
X153088372Y-84398146D01*
X153219043Y-84344020D01*
X153252451Y-84287806D01*
X153000000Y-84035355D01*
X152747549Y-84287806D01*
X151252451Y-84287806D01*
X151000000Y-84035355D01*
X150747549Y-84287806D01*
X147981516Y-84287806D01*
X147975917Y-84274257D01*
X147801661Y-84099696D01*
X147573867Y-84005107D01*
X147327215Y-84004892D01*
X147194971Y-84059535D01*
X147195084Y-83929282D01*
X150598343Y-83929282D01*
X150601854Y-84088372D01*
X150655980Y-84219043D01*
X150712194Y-84252451D01*
X150964645Y-84000000D01*
X151035355Y-84000000D01*
X151287806Y-84252451D01*
X151344020Y-84219043D01*
X151401657Y-84070718D01*
X151398536Y-83929282D01*
X152598343Y-83929282D01*
X152601854Y-84088372D01*
X152655980Y-84219043D01*
X152712194Y-84252451D01*
X152964645Y-84000000D01*
X153035355Y-84000000D01*
X153287806Y-84252451D01*
X153344020Y-84219043D01*
X153401657Y-84070718D01*
X153398146Y-83911628D01*
X153344020Y-83780957D01*
X153287806Y-83747549D01*
X153035355Y-84000000D01*
X152964645Y-84000000D01*
X152712194Y-83747549D01*
X152655980Y-83780957D01*
X152598343Y-83929282D01*
X151398536Y-83929282D01*
X151398146Y-83911628D01*
X151344020Y-83780957D01*
X151287806Y-83747549D01*
X151035355Y-84000000D01*
X150964645Y-84000000D01*
X150712194Y-83747549D01*
X150655980Y-83780957D01*
X150598343Y-83929282D01*
X147195084Y-83929282D01*
X147195108Y-83902215D01*
X147116593Y-83712194D01*
X150747549Y-83712194D01*
X151000000Y-83964645D01*
X151252451Y-83712194D01*
X152747549Y-83712194D01*
X153000000Y-83964645D01*
X153252451Y-83712194D01*
X153219043Y-83655980D01*
X153070718Y-83598343D01*
X152911628Y-83601854D01*
X152780957Y-83655980D01*
X152747549Y-83712194D01*
X151252451Y-83712194D01*
X151219043Y-83655980D01*
X151070718Y-83598343D01*
X150911628Y-83601854D01*
X150780957Y-83655980D01*
X150747549Y-83712194D01*
X147116593Y-83712194D01*
X147100917Y-83674257D01*
X146926661Y-83499696D01*
X146745000Y-83424263D01*
X146745000Y-81672785D01*
X147104892Y-81672785D01*
X147199083Y-81900743D01*
X147223187Y-81924889D01*
X147199696Y-81948339D01*
X147105107Y-82176133D01*
X147104892Y-82422785D01*
X147199083Y-82650743D01*
X147223187Y-82674889D01*
X147199696Y-82698339D01*
X147105107Y-82926133D01*
X147104892Y-83172785D01*
X147199083Y-83400743D01*
X147373339Y-83575304D01*
X147601133Y-83669893D01*
X147847785Y-83670108D01*
X148075743Y-83575917D01*
X148250304Y-83401661D01*
X148297581Y-83287806D01*
X151747549Y-83287806D01*
X151780957Y-83344020D01*
X151929282Y-83401657D01*
X152088372Y-83398146D01*
X152219043Y-83344020D01*
X152252451Y-83287806D01*
X152000000Y-83035355D01*
X151747549Y-83287806D01*
X148297581Y-83287806D01*
X148344893Y-83173867D01*
X148345106Y-82929282D01*
X151598343Y-82929282D01*
X151601854Y-83088372D01*
X151655980Y-83219043D01*
X151712194Y-83252451D01*
X151964645Y-83000000D01*
X152035355Y-83000000D01*
X152287806Y-83252451D01*
X152344020Y-83219043D01*
X152401657Y-83070718D01*
X152398146Y-82911628D01*
X152344020Y-82780957D01*
X152287806Y-82747549D01*
X152035355Y-83000000D01*
X151964645Y-83000000D01*
X151712194Y-82747549D01*
X151655980Y-82780957D01*
X151598343Y-82929282D01*
X148345106Y-82929282D01*
X148345108Y-82927215D01*
X148256263Y-82712194D01*
X151747549Y-82712194D01*
X152000000Y-82964645D01*
X152252451Y-82712194D01*
X152219043Y-82655980D01*
X152070718Y-82598343D01*
X151911628Y-82601854D01*
X151780957Y-82655980D01*
X151747549Y-82712194D01*
X148256263Y-82712194D01*
X148250917Y-82699257D01*
X148226813Y-82675111D01*
X148250304Y-82651661D01*
X148344893Y-82423867D01*
X148345011Y-82287806D01*
X150747549Y-82287806D01*
X150780957Y-82344020D01*
X150929282Y-82401657D01*
X151088372Y-82398146D01*
X151219043Y-82344020D01*
X151252451Y-82287806D01*
X152747549Y-82287806D01*
X152780957Y-82344020D01*
X152929282Y-82401657D01*
X153088372Y-82398146D01*
X153219043Y-82344020D01*
X153252451Y-82287806D01*
X153000000Y-82035355D01*
X152747549Y-82287806D01*
X151252451Y-82287806D01*
X151000000Y-82035355D01*
X150747549Y-82287806D01*
X148345011Y-82287806D01*
X148345108Y-82177215D01*
X148250917Y-81949257D01*
X148230977Y-81929282D01*
X150598343Y-81929282D01*
X150601854Y-82088372D01*
X150655980Y-82219043D01*
X150712194Y-82252451D01*
X150964645Y-82000000D01*
X151035355Y-82000000D01*
X151287806Y-82252451D01*
X151344020Y-82219043D01*
X151401657Y-82070718D01*
X151398536Y-81929282D01*
X152598343Y-81929282D01*
X152601854Y-82088372D01*
X152655980Y-82219043D01*
X152712194Y-82252451D01*
X152964645Y-82000000D01*
X153035355Y-82000000D01*
X153287806Y-82252451D01*
X153344020Y-82219043D01*
X153401657Y-82070718D01*
X153398146Y-81911628D01*
X153344020Y-81780957D01*
X153287806Y-81747549D01*
X153035355Y-82000000D01*
X152964645Y-82000000D01*
X152712194Y-81747549D01*
X152655980Y-81780957D01*
X152598343Y-81929282D01*
X151398536Y-81929282D01*
X151398146Y-81911628D01*
X151344020Y-81780957D01*
X151287806Y-81747549D01*
X151035355Y-82000000D01*
X150964645Y-82000000D01*
X150712194Y-81747549D01*
X150655980Y-81780957D01*
X150598343Y-81929282D01*
X148230977Y-81929282D01*
X148226813Y-81925111D01*
X148250304Y-81901661D01*
X148328978Y-81712194D01*
X150747549Y-81712194D01*
X151000000Y-81964645D01*
X151252451Y-81712194D01*
X152747549Y-81712194D01*
X153000000Y-81964645D01*
X153252451Y-81712194D01*
X153219043Y-81655980D01*
X153070718Y-81598343D01*
X152911628Y-81601854D01*
X152780957Y-81655980D01*
X152747549Y-81712194D01*
X151252451Y-81712194D01*
X151219043Y-81655980D01*
X151070718Y-81598343D01*
X150911628Y-81601854D01*
X150780957Y-81655980D01*
X150747549Y-81712194D01*
X148328978Y-81712194D01*
X148344893Y-81673867D01*
X148345108Y-81427215D01*
X148287505Y-81287806D01*
X151747549Y-81287806D01*
X151780957Y-81344020D01*
X151929282Y-81401657D01*
X152088372Y-81398146D01*
X152219043Y-81344020D01*
X152252451Y-81287806D01*
X152000000Y-81035355D01*
X151747549Y-81287806D01*
X148287505Y-81287806D01*
X148250917Y-81199257D01*
X148076661Y-81024696D01*
X147848867Y-80930107D01*
X147602215Y-80929892D01*
X147374257Y-81024083D01*
X147199696Y-81198339D01*
X147105107Y-81426133D01*
X147104892Y-81672785D01*
X146745000Y-81672785D01*
X146745000Y-80929282D01*
X151598343Y-80929282D01*
X151601854Y-81088372D01*
X151655980Y-81219043D01*
X151712194Y-81252451D01*
X151964645Y-81000000D01*
X152035355Y-81000000D01*
X152287806Y-81252451D01*
X152344020Y-81219043D01*
X152401657Y-81070718D01*
X152398146Y-80911628D01*
X152344020Y-80780957D01*
X152287806Y-80747549D01*
X152035355Y-81000000D01*
X151964645Y-81000000D01*
X151712194Y-80747549D01*
X151655980Y-80780957D01*
X151598343Y-80929282D01*
X146745000Y-80929282D01*
X146745000Y-80894269D01*
X146757000Y-80894269D01*
X146875585Y-80871956D01*
X146984498Y-80801872D01*
X147045772Y-80712194D01*
X151747549Y-80712194D01*
X152000000Y-80964645D01*
X152252451Y-80712194D01*
X152219043Y-80655980D01*
X152070718Y-80598343D01*
X151911628Y-80601854D01*
X151780957Y-80655980D01*
X151747549Y-80712194D01*
X147045772Y-80712194D01*
X147057564Y-80694937D01*
X147083269Y-80568000D01*
X147083269Y-80287806D01*
X150747549Y-80287806D01*
X150780957Y-80344020D01*
X150929282Y-80401657D01*
X151088372Y-80398146D01*
X151219043Y-80344020D01*
X151252451Y-80287806D01*
X152747549Y-80287806D01*
X152780957Y-80344020D01*
X152929282Y-80401657D01*
X153088372Y-80398146D01*
X153219043Y-80344020D01*
X153252451Y-80287806D01*
X153000000Y-80035355D01*
X152747549Y-80287806D01*
X151252451Y-80287806D01*
X151000000Y-80035355D01*
X150747549Y-80287806D01*
X147083269Y-80287806D01*
X147083269Y-79929282D01*
X150598343Y-79929282D01*
X150601854Y-80088372D01*
X150655980Y-80219043D01*
X150712194Y-80252451D01*
X150964645Y-80000000D01*
X151035355Y-80000000D01*
X151287806Y-80252451D01*
X151344020Y-80219043D01*
X151401657Y-80070718D01*
X151398536Y-79929282D01*
X152598343Y-79929282D01*
X152601854Y-80088372D01*
X152655980Y-80219043D01*
X152712194Y-80252451D01*
X152964645Y-80000000D01*
X153035355Y-80000000D01*
X153287806Y-80252451D01*
X153344020Y-80219043D01*
X153401657Y-80070718D01*
X153398146Y-79911628D01*
X153344020Y-79780957D01*
X153287806Y-79747549D01*
X153035355Y-80000000D01*
X152964645Y-80000000D01*
X152712194Y-79747549D01*
X152655980Y-79780957D01*
X152598343Y-79929282D01*
X151398536Y-79929282D01*
X151398146Y-79911628D01*
X151344020Y-79780957D01*
X151287806Y-79747549D01*
X151035355Y-80000000D01*
X150964645Y-80000000D01*
X150712194Y-79747549D01*
X150655980Y-79780957D01*
X150598343Y-79929282D01*
X147083269Y-79929282D01*
X147083269Y-79781000D01*
X147070323Y-79712194D01*
X150747549Y-79712194D01*
X151000000Y-79964645D01*
X151252451Y-79712194D01*
X152747549Y-79712194D01*
X153000000Y-79964645D01*
X153252451Y-79712194D01*
X153219043Y-79655980D01*
X153070718Y-79598343D01*
X152911628Y-79601854D01*
X152780957Y-79655980D01*
X152747549Y-79712194D01*
X151252451Y-79712194D01*
X151219043Y-79655980D01*
X151070718Y-79598343D01*
X150911628Y-79601854D01*
X150780957Y-79655980D01*
X150747549Y-79712194D01*
X147070323Y-79712194D01*
X147060956Y-79662415D01*
X146990872Y-79553502D01*
X146883937Y-79480436D01*
X146757000Y-79454731D01*
X145893000Y-79454731D01*
X145774415Y-79477044D01*
X145665502Y-79547128D01*
X145592436Y-79654063D01*
X145566731Y-79781000D01*
X145566731Y-80568000D01*
X145589044Y-80686585D01*
X145659128Y-80795498D01*
X145766063Y-80868564D01*
X145893000Y-80894269D01*
X145905000Y-80894269D01*
X145905000Y-83600000D01*
X145936971Y-83760727D01*
X145984113Y-83831280D01*
X145955107Y-83901133D01*
X145954892Y-84147785D01*
X145988831Y-84229924D01*
X145952215Y-84229892D01*
X145724257Y-84324083D01*
X145549696Y-84498339D01*
X145455107Y-84726133D01*
X145454892Y-84972785D01*
X145160639Y-84972785D01*
X145150917Y-84949257D01*
X144976661Y-84774696D01*
X144748867Y-84680107D01*
X144502215Y-84679892D01*
X144274257Y-84774083D01*
X144099696Y-84948339D01*
X144044982Y-85080104D01*
X143802215Y-85079892D01*
X143574257Y-85174083D01*
X143525067Y-85223187D01*
X143476661Y-85174696D01*
X143248867Y-85080107D01*
X143002215Y-85079892D01*
X142774257Y-85174083D01*
X142599696Y-85348339D01*
X142505107Y-85576133D01*
X142505016Y-85680000D01*
X142021584Y-85680000D01*
X142044893Y-85623867D01*
X142045108Y-85377215D01*
X141950917Y-85149257D01*
X141776661Y-84974696D01*
X141548867Y-84880107D01*
X141398946Y-84879976D01*
X141319269Y-84800299D01*
X141319269Y-84368000D01*
X141296956Y-84249415D01*
X141226872Y-84140502D01*
X141119937Y-84067436D01*
X140993000Y-84041731D01*
X140206000Y-84041731D01*
X140087415Y-84064044D01*
X139978502Y-84134128D01*
X139905436Y-84241063D01*
X139879731Y-84368000D01*
X139879731Y-85232000D01*
X139902044Y-85350585D01*
X139972128Y-85459498D01*
X140079063Y-85532564D01*
X140206000Y-85558269D01*
X140804948Y-85558269D01*
X140804892Y-85622785D01*
X140854040Y-85741731D01*
X140206000Y-85741731D01*
X140087415Y-85764044D01*
X139978502Y-85834128D01*
X139905436Y-85941063D01*
X139879731Y-86068000D01*
X139879731Y-86932000D01*
X139902044Y-87050585D01*
X139972128Y-87159498D01*
X140079063Y-87232564D01*
X140206000Y-87258269D01*
X140993000Y-87258269D01*
X141105000Y-87237195D01*
X141105000Y-87464411D01*
X140993000Y-87441731D01*
X140206000Y-87441731D01*
X140087415Y-87464044D01*
X139978502Y-87534128D01*
X139905436Y-87641063D01*
X139879731Y-87768000D01*
X139879731Y-88632000D01*
X139902044Y-88750585D01*
X139972128Y-88859498D01*
X140079063Y-88932564D01*
X140206000Y-88958269D01*
X140904948Y-88958269D01*
X140904929Y-88979982D01*
X140802215Y-88979892D01*
X140574257Y-89074083D01*
X140399696Y-89248339D01*
X140305107Y-89476133D01*
X140304892Y-89722785D01*
X140380380Y-89905478D01*
X140198867Y-89830107D01*
X139952215Y-89829892D01*
X139724257Y-89924083D01*
X139549696Y-90098339D01*
X139455107Y-90326133D01*
X139454892Y-90572785D01*
X139549083Y-90800743D01*
X139723339Y-90975304D01*
X139951133Y-91069893D01*
X140197785Y-91070108D01*
X140425743Y-90975917D01*
X140499977Y-90901813D01*
X140573339Y-90975304D01*
X140801133Y-91069893D01*
X141047785Y-91070108D01*
X141081160Y-91056318D01*
X141081160Y-97391614D01*
X141057455Y-97396074D01*
X141000825Y-97432515D01*
X140952457Y-97399466D01*
X140895400Y-97387912D01*
X140895400Y-93775400D01*
X140865332Y-93624240D01*
X140779707Y-93496093D01*
X139454307Y-92170693D01*
X139383269Y-92123227D01*
X139383269Y-92081000D01*
X139360956Y-91962415D01*
X139290872Y-91853502D01*
X139183937Y-91780436D01*
X139057000Y-91754731D01*
X138354383Y-91754731D01*
X138463845Y-91645269D01*
X139057000Y-91645269D01*
X139175585Y-91622956D01*
X139284498Y-91552872D01*
X139357564Y-91445937D01*
X139383269Y-91319000D01*
X139383269Y-90532000D01*
X139360956Y-90413415D01*
X139290872Y-90304502D01*
X139183937Y-90231436D01*
X139057000Y-90205731D01*
X139020000Y-90205731D01*
X139020000Y-89948950D01*
X139075743Y-89925917D01*
X139250304Y-89751661D01*
X139344893Y-89523867D01*
X139345108Y-89277215D01*
X139250917Y-89049257D01*
X139160088Y-88958269D01*
X139444000Y-88958269D01*
X139562585Y-88935956D01*
X139671498Y-88865872D01*
X139744564Y-88758937D01*
X139770269Y-88632000D01*
X139770269Y-87768000D01*
X139747956Y-87649415D01*
X139677872Y-87540502D01*
X139570937Y-87467436D01*
X139495000Y-87452059D01*
X139495000Y-87248673D01*
X139562585Y-87235956D01*
X139671498Y-87165872D01*
X139744564Y-87058937D01*
X139770269Y-86932000D01*
X139770269Y-86068000D01*
X139747956Y-85949415D01*
X139677872Y-85840502D01*
X139570937Y-85767436D01*
X139495000Y-85752059D01*
X139495000Y-85548673D01*
X139562585Y-85535956D01*
X139671498Y-85465872D01*
X139744564Y-85358937D01*
X139770269Y-85232000D01*
X139770269Y-84368000D01*
X139747956Y-84249415D01*
X139677872Y-84140502D01*
X139570937Y-84067436D01*
X139495000Y-84052059D01*
X139495000Y-83848673D01*
X139562585Y-83835956D01*
X139671498Y-83765872D01*
X139744564Y-83658937D01*
X139770269Y-83532000D01*
X139770269Y-82668000D01*
X139879731Y-82668000D01*
X139879731Y-83532000D01*
X139902044Y-83650585D01*
X139972128Y-83759498D01*
X140079063Y-83832564D01*
X140206000Y-83858269D01*
X140993000Y-83858269D01*
X141111585Y-83835956D01*
X141220498Y-83765872D01*
X141281624Y-83676411D01*
X141326133Y-83694893D01*
X141572785Y-83695108D01*
X141800743Y-83600917D01*
X141964139Y-83437806D01*
X143172549Y-83437806D01*
X143205957Y-83494020D01*
X143354282Y-83551657D01*
X143513372Y-83548146D01*
X143644043Y-83494020D01*
X143677451Y-83437806D01*
X143425000Y-83185355D01*
X143172549Y-83437806D01*
X141964139Y-83437806D01*
X141975304Y-83426661D01*
X142069893Y-83198867D01*
X142069997Y-83079282D01*
X143023343Y-83079282D01*
X143026854Y-83238372D01*
X143080980Y-83369043D01*
X143137194Y-83402451D01*
X143389645Y-83150000D01*
X143460355Y-83150000D01*
X143712806Y-83402451D01*
X143769020Y-83369043D01*
X143826657Y-83220718D01*
X143823146Y-83061628D01*
X143769020Y-82930957D01*
X143712806Y-82897549D01*
X143460355Y-83150000D01*
X143389645Y-83150000D01*
X143137194Y-82897549D01*
X143080980Y-82930957D01*
X143023343Y-83079282D01*
X142069997Y-83079282D01*
X142070108Y-82952215D01*
X142032912Y-82862194D01*
X143172549Y-82862194D01*
X143425000Y-83114645D01*
X143677451Y-82862194D01*
X143644043Y-82805980D01*
X143495718Y-82748343D01*
X143336628Y-82751854D01*
X143205957Y-82805980D01*
X143172549Y-82862194D01*
X142032912Y-82862194D01*
X141975917Y-82724257D01*
X141801661Y-82549696D01*
X141573867Y-82455107D01*
X141327215Y-82454892D01*
X141255263Y-82484622D01*
X141226872Y-82440502D01*
X141222927Y-82437806D01*
X144172549Y-82437806D01*
X144205957Y-82494020D01*
X144354282Y-82551657D01*
X144513372Y-82548146D01*
X144644043Y-82494020D01*
X144677451Y-82437806D01*
X144425000Y-82185355D01*
X144172549Y-82437806D01*
X141222927Y-82437806D01*
X141119937Y-82367436D01*
X140993000Y-82341731D01*
X140206000Y-82341731D01*
X140087415Y-82364044D01*
X139978502Y-82434128D01*
X139905436Y-82541063D01*
X139879731Y-82668000D01*
X139770269Y-82668000D01*
X139747956Y-82549415D01*
X139677872Y-82440502D01*
X139570937Y-82367436D01*
X139444000Y-82341731D01*
X138657000Y-82341731D01*
X138538415Y-82364044D01*
X138429502Y-82434128D01*
X138356436Y-82541063D01*
X138333043Y-82656584D01*
X138148867Y-82580107D01*
X137902215Y-82579892D01*
X137674257Y-82674083D01*
X137499696Y-82848339D01*
X137405107Y-83076133D01*
X137404892Y-83322785D01*
X137499083Y-83550743D01*
X137673339Y-83725304D01*
X137901133Y-83819893D01*
X138147785Y-83820108D01*
X138375743Y-83725917D01*
X138391438Y-83710250D01*
X138423128Y-83759498D01*
X138530063Y-83832564D01*
X138655000Y-83857864D01*
X138655000Y-84042107D01*
X138538415Y-84064044D01*
X138429502Y-84134128D01*
X138356436Y-84241063D01*
X138330731Y-84368000D01*
X138330731Y-85232000D01*
X138353044Y-85350585D01*
X138423128Y-85459498D01*
X138530063Y-85532564D01*
X138655000Y-85557864D01*
X138655000Y-85742107D01*
X138538415Y-85764044D01*
X138429502Y-85834128D01*
X138356436Y-85941063D01*
X138330731Y-86068000D01*
X138330731Y-86932000D01*
X138353044Y-87050585D01*
X138423128Y-87159498D01*
X138530063Y-87232564D01*
X138655000Y-87257864D01*
X138655000Y-87442107D01*
X138538415Y-87464044D01*
X138429502Y-87534128D01*
X138356436Y-87641063D01*
X138330731Y-87768000D01*
X138330731Y-88632000D01*
X138353044Y-88750585D01*
X138420277Y-88855068D01*
X138374257Y-88874083D01*
X138199696Y-89048339D01*
X138105107Y-89276133D01*
X138104892Y-89522785D01*
X138199083Y-89750743D01*
X138230000Y-89781714D01*
X138230000Y-90205731D01*
X138193000Y-90205731D01*
X138074415Y-90228044D01*
X137965502Y-90298128D01*
X137892436Y-90405063D01*
X137866731Y-90532000D01*
X137866731Y-91125155D01*
X137686886Y-91305000D01*
X133007515Y-91305000D01*
X132917810Y-91087897D01*
X132613704Y-90783260D01*
X132216167Y-90618188D01*
X131785721Y-90617812D01*
X131387897Y-90782190D01*
X131083260Y-91086296D01*
X130918188Y-91483833D01*
X130917812Y-91914279D01*
X131082190Y-92312103D01*
X131386296Y-92616740D01*
X131783833Y-92781812D01*
X132214279Y-92782188D01*
X132612103Y-92617810D01*
X132916740Y-92313704D01*
X133007554Y-92095000D01*
X137850500Y-92095000D01*
X137866731Y-92091771D01*
X137866731Y-92868000D01*
X137889044Y-92986585D01*
X137959128Y-93095498D01*
X137973035Y-93105000D01*
X127038903Y-93105000D01*
X126388755Y-92975677D01*
X125870565Y-92629435D01*
X125524323Y-92111245D01*
X125485144Y-91914279D01*
X127917812Y-91914279D01*
X128082190Y-92312103D01*
X128386296Y-92616740D01*
X128783833Y-92781812D01*
X129214279Y-92782188D01*
X129436961Y-92690177D01*
X129548840Y-92764932D01*
X129700000Y-92795000D01*
X129818263Y-92795000D01*
X129948339Y-92925304D01*
X130176133Y-93019893D01*
X130422785Y-93020108D01*
X130650743Y-92925917D01*
X130825304Y-92751661D01*
X130919893Y-92523867D01*
X130920108Y-92277215D01*
X130825917Y-92049257D01*
X130651661Y-91874696D01*
X130423867Y-91780107D01*
X130177215Y-91779892D01*
X130081897Y-91819277D01*
X130082188Y-91485721D01*
X129917810Y-91087897D01*
X129613704Y-90783260D01*
X129216167Y-90618188D01*
X128785721Y-90617812D01*
X128387897Y-90782190D01*
X128083260Y-91086296D01*
X127918188Y-91483833D01*
X127917812Y-91914279D01*
X125485144Y-91914279D01*
X125395000Y-91461096D01*
X125395000Y-90297785D01*
X133604892Y-90297785D01*
X133699083Y-90525743D01*
X133873339Y-90700304D01*
X134101133Y-90794893D01*
X134347785Y-90795108D01*
X134575743Y-90700917D01*
X134750304Y-90526661D01*
X134844893Y-90298867D01*
X134845108Y-90052215D01*
X134750917Y-89824257D01*
X134576661Y-89649696D01*
X134348867Y-89555107D01*
X134102215Y-89554892D01*
X133874257Y-89649083D01*
X133699696Y-89823339D01*
X133605107Y-90051133D01*
X133604892Y-90297785D01*
X125395000Y-90297785D01*
X125395000Y-86522785D01*
X133504892Y-86522785D01*
X133599083Y-86750743D01*
X133773339Y-86925304D01*
X134001133Y-87019893D01*
X134247785Y-87020108D01*
X134475743Y-86925917D01*
X134650304Y-86751661D01*
X134744893Y-86523867D01*
X134745108Y-86277215D01*
X134650917Y-86049257D01*
X134476661Y-85874696D01*
X134248867Y-85780107D01*
X134002215Y-85779892D01*
X133774257Y-85874083D01*
X133599696Y-86048339D01*
X133505107Y-86276133D01*
X133504892Y-86522785D01*
X125395000Y-86522785D01*
X125395000Y-82725000D01*
X127675000Y-82725000D01*
X127675000Y-82894891D01*
X127690224Y-82931646D01*
X127718355Y-82959776D01*
X127755109Y-82975000D01*
X128325000Y-82975000D01*
X128350000Y-82950000D01*
X128350000Y-82700000D01*
X128400000Y-82700000D01*
X128400000Y-82950000D01*
X128425000Y-82975000D01*
X128994891Y-82975000D01*
X129031645Y-82959776D01*
X129059776Y-82931646D01*
X129075000Y-82894891D01*
X129075000Y-82725000D01*
X129050000Y-82700000D01*
X128400000Y-82700000D01*
X128350000Y-82700000D01*
X127700000Y-82700000D01*
X127675000Y-82725000D01*
X125395000Y-82725000D01*
X125395000Y-78897785D01*
X126404892Y-78897785D01*
X126499083Y-79125743D01*
X126673339Y-79300304D01*
X126901133Y-79394893D01*
X127147785Y-79395108D01*
X127375743Y-79300917D01*
X127448731Y-79228057D01*
X127448731Y-79625000D01*
X127471044Y-79743585D01*
X127474314Y-79748666D01*
X127448731Y-79875000D01*
X127448731Y-80271892D01*
X127376661Y-80199696D01*
X127148867Y-80105107D01*
X126902215Y-80104892D01*
X126674257Y-80199083D01*
X126499696Y-80373339D01*
X126405107Y-80601133D01*
X126404892Y-80847785D01*
X126499083Y-81075743D01*
X126673339Y-81250304D01*
X126901133Y-81344893D01*
X127147785Y-81345108D01*
X127375743Y-81250917D01*
X127448731Y-81178057D01*
X127448731Y-81463098D01*
X127248867Y-81380107D01*
X127002215Y-81379892D01*
X126774257Y-81474083D01*
X126599696Y-81648339D01*
X126505107Y-81876133D01*
X126504892Y-82122785D01*
X126599083Y-82350743D01*
X126773339Y-82525304D01*
X127001133Y-82619893D01*
X127247785Y-82620108D01*
X127475743Y-82525917D01*
X127545974Y-82455809D01*
X127648063Y-82525564D01*
X127675000Y-82531019D01*
X127675000Y-82625000D01*
X127700000Y-82650000D01*
X128350000Y-82650000D01*
X128350000Y-82630000D01*
X128400000Y-82630000D01*
X128400000Y-82650000D01*
X129050000Y-82650000D01*
X129075000Y-82625000D01*
X129075000Y-82532453D01*
X129093585Y-82528956D01*
X129202498Y-82458872D01*
X129229058Y-82420000D01*
X129486386Y-82420000D01*
X129595693Y-82529307D01*
X129723840Y-82614932D01*
X129875000Y-82645000D01*
X130225000Y-82645000D01*
X130376160Y-82614932D01*
X130504307Y-82529307D01*
X130879307Y-82154307D01*
X130964932Y-82026160D01*
X130995000Y-81875000D01*
X130995000Y-81522785D01*
X133404892Y-81522785D01*
X133499083Y-81750743D01*
X133673339Y-81925304D01*
X133901133Y-82019893D01*
X134147785Y-82020108D01*
X134348731Y-81937078D01*
X134348731Y-82225000D01*
X134371044Y-82343585D01*
X134374314Y-82348666D01*
X134348731Y-82475000D01*
X134348731Y-82875000D01*
X134371044Y-82993585D01*
X134441128Y-83102498D01*
X134548063Y-83175564D01*
X134675000Y-83201269D01*
X134846848Y-83201269D01*
X134799696Y-83248339D01*
X134705107Y-83476133D01*
X134704892Y-83722785D01*
X134799083Y-83950743D01*
X134973339Y-84125304D01*
X135201133Y-84219893D01*
X135447785Y-84220108D01*
X135675743Y-84125917D01*
X135850304Y-83951661D01*
X135944893Y-83723867D01*
X135945108Y-83477215D01*
X135850917Y-83249257D01*
X135803013Y-83201269D01*
X135875000Y-83201269D01*
X135993585Y-83178956D01*
X136102498Y-83108872D01*
X136175564Y-83001937D01*
X136201269Y-82875000D01*
X136201269Y-82475000D01*
X136195624Y-82445000D01*
X136296710Y-82445000D01*
X136299083Y-82450743D01*
X136473339Y-82625304D01*
X136701133Y-82719893D01*
X136947785Y-82720108D01*
X137175743Y-82625917D01*
X137350304Y-82451661D01*
X137444893Y-82223867D01*
X137445108Y-81977215D01*
X137350917Y-81749257D01*
X137176661Y-81574696D01*
X136948867Y-81480107D01*
X136702215Y-81479892D01*
X136474257Y-81574083D01*
X136443286Y-81605000D01*
X136195194Y-81605000D01*
X136201269Y-81575000D01*
X136201269Y-81222785D01*
X137404892Y-81222785D01*
X137499083Y-81450743D01*
X137673339Y-81625304D01*
X137901133Y-81719893D01*
X138147785Y-81720108D01*
X138375743Y-81625917D01*
X138550304Y-81451661D01*
X138644893Y-81223867D01*
X138645108Y-80977215D01*
X138550917Y-80749257D01*
X138376661Y-80574696D01*
X138148867Y-80480107D01*
X137902215Y-80479892D01*
X137674257Y-80574083D01*
X137499696Y-80748339D01*
X137405107Y-80976133D01*
X137404892Y-81222785D01*
X136201269Y-81222785D01*
X136201269Y-81175000D01*
X136178956Y-81056415D01*
X136175686Y-81051334D01*
X136201269Y-80925000D01*
X136201269Y-80525000D01*
X136178956Y-80406415D01*
X136108872Y-80297502D01*
X136001937Y-80224436D01*
X135975000Y-80218981D01*
X135975000Y-80125000D01*
X135950000Y-80100000D01*
X135300000Y-80100000D01*
X135300000Y-80120000D01*
X135250000Y-80120000D01*
X135250000Y-80100000D01*
X134600000Y-80100000D01*
X134575000Y-80125000D01*
X134575000Y-80217547D01*
X134556415Y-80221044D01*
X134447502Y-80291128D01*
X134374436Y-80398063D01*
X134348731Y-80525000D01*
X134348731Y-80863098D01*
X134148867Y-80780107D01*
X133902215Y-80779892D01*
X133674257Y-80874083D01*
X133499696Y-81048339D01*
X133405107Y-81276133D01*
X133404892Y-81522785D01*
X130995000Y-81522785D01*
X130995000Y-79855109D01*
X134575000Y-79855109D01*
X134575000Y-80025000D01*
X134600000Y-80050000D01*
X135250000Y-80050000D01*
X135250000Y-79800000D01*
X135300000Y-79800000D01*
X135300000Y-80050000D01*
X135950000Y-80050000D01*
X135975000Y-80025000D01*
X135975000Y-79922785D01*
X138704892Y-79922785D01*
X138799083Y-80150743D01*
X138973339Y-80325304D01*
X139201133Y-80419893D01*
X139304982Y-80419984D01*
X139304892Y-80522785D01*
X139399083Y-80750743D01*
X139573339Y-80925304D01*
X139801133Y-81019893D01*
X139979982Y-81020049D01*
X139979892Y-81122785D01*
X140074083Y-81350743D01*
X140248339Y-81525304D01*
X140476133Y-81619893D01*
X140704982Y-81620092D01*
X140704892Y-81722785D01*
X140799083Y-81950743D01*
X140973339Y-82125304D01*
X141201133Y-82219893D01*
X141447785Y-82220108D01*
X141675743Y-82125917D01*
X141722459Y-82079282D01*
X144023343Y-82079282D01*
X144026854Y-82238372D01*
X144080980Y-82369043D01*
X144137194Y-82402451D01*
X144389645Y-82150000D01*
X144460355Y-82150000D01*
X144712806Y-82402451D01*
X144769020Y-82369043D01*
X144826657Y-82220718D01*
X144823146Y-82061628D01*
X144769020Y-81930957D01*
X144712806Y-81897549D01*
X144460355Y-82150000D01*
X144389645Y-82150000D01*
X144137194Y-81897549D01*
X144080980Y-81930957D01*
X144023343Y-82079282D01*
X141722459Y-82079282D01*
X141781845Y-82020000D01*
X143625000Y-82020000D01*
X143785727Y-81988029D01*
X143921985Y-81896985D01*
X143956776Y-81862194D01*
X144172549Y-81862194D01*
X144425000Y-82114645D01*
X144677451Y-81862194D01*
X144644043Y-81805980D01*
X144495718Y-81748343D01*
X144336628Y-81751854D01*
X144205957Y-81805980D01*
X144172549Y-81862194D01*
X143956776Y-81862194D01*
X144224701Y-81594269D01*
X145057000Y-81594269D01*
X145175585Y-81571956D01*
X145284498Y-81501872D01*
X145357564Y-81394937D01*
X145383269Y-81268000D01*
X145383269Y-80481000D01*
X145360956Y-80362415D01*
X145290872Y-80253502D01*
X145183937Y-80180436D01*
X145057000Y-80154731D01*
X144193000Y-80154731D01*
X144074415Y-80177044D01*
X143965502Y-80247128D01*
X143892436Y-80354063D01*
X143866731Y-80481000D01*
X143866731Y-80764299D01*
X143451030Y-81180000D01*
X142578114Y-81180000D01*
X142763845Y-80994269D01*
X143357000Y-80994269D01*
X143475585Y-80971956D01*
X143584498Y-80901872D01*
X143657564Y-80794937D01*
X143683269Y-80668000D01*
X143683269Y-79881000D01*
X143662383Y-79770000D01*
X143876327Y-79770000D01*
X143889044Y-79837585D01*
X143959128Y-79946498D01*
X144066063Y-80019564D01*
X144193000Y-80045269D01*
X145057000Y-80045269D01*
X145175585Y-80022956D01*
X145284498Y-79952872D01*
X145357564Y-79845937D01*
X145383269Y-79719000D01*
X145383269Y-79508409D01*
X145485727Y-79488029D01*
X145621985Y-79396985D01*
X145726463Y-79292507D01*
X145766063Y-79319564D01*
X145893000Y-79345269D01*
X146757000Y-79345269D01*
X146875585Y-79322956D01*
X146984498Y-79252872D01*
X147057564Y-79145937D01*
X147083269Y-79019000D01*
X147083269Y-78522785D01*
X149904892Y-78522785D01*
X149999083Y-78750743D01*
X150173339Y-78925304D01*
X150401133Y-79019893D01*
X150647785Y-79020108D01*
X150875743Y-78925917D01*
X151050304Y-78751661D01*
X151144893Y-78523867D01*
X151145108Y-78277215D01*
X151050917Y-78049257D01*
X150876661Y-77874696D01*
X150648867Y-77780107D01*
X150402215Y-77779892D01*
X150174257Y-77874083D01*
X149999696Y-78048339D01*
X149905107Y-78276133D01*
X149904892Y-78522785D01*
X147083269Y-78522785D01*
X147083269Y-78232000D01*
X147060956Y-78113415D01*
X146990872Y-78004502D01*
X146883937Y-77931436D01*
X146757000Y-77905731D01*
X145893000Y-77905731D01*
X145774415Y-77928044D01*
X145665502Y-77998128D01*
X145592436Y-78105063D01*
X145566731Y-78232000D01*
X145566731Y-78293737D01*
X145478015Y-78353015D01*
X145193239Y-78637791D01*
X145183937Y-78631436D01*
X145057000Y-78605731D01*
X144193000Y-78605731D01*
X144074415Y-78628044D01*
X143965502Y-78698128D01*
X143892436Y-78805063D01*
X143867136Y-78930000D01*
X143698970Y-78930000D01*
X143683269Y-78914299D01*
X143683269Y-78332000D01*
X143660956Y-78213415D01*
X143590872Y-78104502D01*
X143483937Y-78031436D01*
X143357000Y-78005731D01*
X142493000Y-78005731D01*
X142374415Y-78028044D01*
X142265502Y-78098128D01*
X142192436Y-78205063D01*
X142167136Y-78330000D01*
X141998970Y-78330000D01*
X141983269Y-78314299D01*
X141983269Y-77732000D01*
X141962720Y-77622785D01*
X147104892Y-77622785D01*
X147199083Y-77850743D01*
X147373339Y-78025304D01*
X147601133Y-78119893D01*
X147847785Y-78120108D01*
X148075743Y-78025917D01*
X148250304Y-77851661D01*
X148344893Y-77623867D01*
X148345108Y-77377215D01*
X148250917Y-77149257D01*
X148076661Y-76974696D01*
X147848867Y-76880107D01*
X147602215Y-76879892D01*
X147374257Y-76974083D01*
X147199696Y-77148339D01*
X147105107Y-77376133D01*
X147104892Y-77622785D01*
X141962720Y-77622785D01*
X141960956Y-77613415D01*
X141890872Y-77504502D01*
X141783937Y-77431436D01*
X141657000Y-77405731D01*
X141095964Y-77405731D01*
X141250304Y-77251661D01*
X141344893Y-77023867D01*
X141344915Y-76997785D01*
X141854892Y-76997785D01*
X141949083Y-77225743D01*
X142123339Y-77400304D01*
X142351133Y-77494893D01*
X142597785Y-77495108D01*
X142825743Y-77400917D01*
X143000304Y-77226661D01*
X143094893Y-76998867D01*
X143095108Y-76752215D01*
X143000917Y-76524257D01*
X142929481Y-76452696D01*
X142957000Y-76458269D01*
X143744000Y-76458269D01*
X143862585Y-76435956D01*
X143971498Y-76365872D01*
X144044564Y-76258937D01*
X144070269Y-76132000D01*
X144070269Y-75268000D01*
X144179731Y-75268000D01*
X144179731Y-76132000D01*
X144202044Y-76250585D01*
X144272128Y-76359498D01*
X144379063Y-76432564D01*
X144506000Y-76458269D01*
X145293000Y-76458269D01*
X145411585Y-76435956D01*
X145520498Y-76365872D01*
X145568923Y-76295000D01*
X147076050Y-76295000D01*
X147099083Y-76350743D01*
X147273339Y-76525304D01*
X147501133Y-76619893D01*
X147747785Y-76620108D01*
X147975743Y-76525917D01*
X148150304Y-76351661D01*
X148244893Y-76123867D01*
X148245108Y-75877215D01*
X148150917Y-75649257D01*
X147976661Y-75474696D01*
X147748867Y-75380107D01*
X147502215Y-75379892D01*
X147274257Y-75474083D01*
X147243286Y-75505000D01*
X145619269Y-75505000D01*
X145619269Y-75268000D01*
X145596956Y-75149415D01*
X145526872Y-75040502D01*
X145419937Y-74967436D01*
X145293000Y-74941731D01*
X144506000Y-74941731D01*
X144387415Y-74964044D01*
X144278502Y-75034128D01*
X144205436Y-75141063D01*
X144179731Y-75268000D01*
X144070269Y-75268000D01*
X144047956Y-75149415D01*
X143977872Y-75040502D01*
X143870937Y-74967436D01*
X143770000Y-74946996D01*
X143770000Y-74831825D01*
X143850304Y-74751661D01*
X143944893Y-74523867D01*
X143945108Y-74277215D01*
X143850917Y-74049257D01*
X143676661Y-73874696D01*
X143448867Y-73780107D01*
X143202215Y-73779892D01*
X142974257Y-73874083D01*
X142799696Y-74048339D01*
X142705107Y-74276133D01*
X142704892Y-74522785D01*
X142799083Y-74750743D01*
X142973339Y-74925304D01*
X142980000Y-74928070D01*
X142980000Y-74941731D01*
X142957000Y-74941731D01*
X142838415Y-74964044D01*
X142729502Y-75034128D01*
X142656436Y-75141063D01*
X142630731Y-75268000D01*
X142630731Y-76132000D01*
X142653044Y-76250585D01*
X142676769Y-76287455D01*
X142598867Y-76255107D01*
X142352215Y-76254892D01*
X142124257Y-76349083D01*
X141949696Y-76523339D01*
X141855107Y-76751133D01*
X141854892Y-76997785D01*
X141344915Y-76997785D01*
X141345108Y-76777215D01*
X141250917Y-76549257D01*
X141076661Y-76374696D01*
X140848867Y-76280107D01*
X140602215Y-76279892D01*
X140374257Y-76374083D01*
X140199696Y-76548339D01*
X140179579Y-76596786D01*
X140083937Y-76531436D01*
X139957000Y-76505731D01*
X139093000Y-76505731D01*
X138974415Y-76528044D01*
X138865502Y-76598128D01*
X138792436Y-76705063D01*
X138766731Y-76832000D01*
X138766731Y-77619000D01*
X138789044Y-77737585D01*
X138859128Y-77846498D01*
X138966063Y-77919564D01*
X139093000Y-77945269D01*
X139626299Y-77945269D01*
X139735761Y-78054731D01*
X139093000Y-78054731D01*
X138974415Y-78077044D01*
X138865502Y-78147128D01*
X138792436Y-78254063D01*
X138766731Y-78381000D01*
X138766731Y-79168000D01*
X138789044Y-79286585D01*
X138856586Y-79391548D01*
X138799696Y-79448339D01*
X138705107Y-79676133D01*
X138704892Y-79922785D01*
X135975000Y-79922785D01*
X135975000Y-79855109D01*
X135959776Y-79818354D01*
X135931645Y-79790224D01*
X135894891Y-79775000D01*
X135325000Y-79775000D01*
X135300000Y-79800000D01*
X135250000Y-79800000D01*
X135225000Y-79775000D01*
X134655109Y-79775000D01*
X134618355Y-79790224D01*
X134590224Y-79818354D01*
X134575000Y-79855109D01*
X130995000Y-79855109D01*
X130995000Y-79475000D01*
X134575000Y-79475000D01*
X134575000Y-79644891D01*
X134590224Y-79681646D01*
X134618355Y-79709776D01*
X134655109Y-79725000D01*
X135225000Y-79725000D01*
X135250000Y-79700000D01*
X135250000Y-79450000D01*
X135300000Y-79450000D01*
X135300000Y-79700000D01*
X135325000Y-79725000D01*
X135894891Y-79725000D01*
X135931645Y-79709776D01*
X135959776Y-79681646D01*
X135975000Y-79644891D01*
X135975000Y-79475000D01*
X135950000Y-79450000D01*
X135300000Y-79450000D01*
X135250000Y-79450000D01*
X134600000Y-79450000D01*
X134575000Y-79475000D01*
X130995000Y-79475000D01*
X130995000Y-79205109D01*
X134575000Y-79205109D01*
X134575000Y-79375000D01*
X134600000Y-79400000D01*
X135250000Y-79400000D01*
X135250000Y-79150000D01*
X135300000Y-79150000D01*
X135300000Y-79400000D01*
X135950000Y-79400000D01*
X135975000Y-79375000D01*
X135975000Y-79205109D01*
X135959776Y-79168354D01*
X135931645Y-79140224D01*
X135894891Y-79125000D01*
X135325000Y-79125000D01*
X135300000Y-79150000D01*
X135250000Y-79150000D01*
X135225000Y-79125000D01*
X134655109Y-79125000D01*
X134618355Y-79140224D01*
X134590224Y-79168354D01*
X134575000Y-79205109D01*
X130995000Y-79205109D01*
X130995000Y-78825000D01*
X134575000Y-78825000D01*
X134575000Y-78994891D01*
X134590224Y-79031646D01*
X134618355Y-79059776D01*
X134655109Y-79075000D01*
X135225000Y-79075000D01*
X135250000Y-79050000D01*
X135250000Y-78800000D01*
X135300000Y-78800000D01*
X135300000Y-79050000D01*
X135325000Y-79075000D01*
X135894891Y-79075000D01*
X135931645Y-79059776D01*
X135959776Y-79031646D01*
X135975000Y-78994891D01*
X135975000Y-78825000D01*
X135950000Y-78800000D01*
X135300000Y-78800000D01*
X135250000Y-78800000D01*
X134600000Y-78800000D01*
X134575000Y-78825000D01*
X130995000Y-78825000D01*
X130995000Y-77925000D01*
X134348731Y-77925000D01*
X134348731Y-78325000D01*
X134371044Y-78443585D01*
X134441128Y-78552498D01*
X134548063Y-78625564D01*
X134575000Y-78631019D01*
X134575000Y-78725000D01*
X134600000Y-78750000D01*
X135250000Y-78750000D01*
X135250000Y-78730000D01*
X135300000Y-78730000D01*
X135300000Y-78750000D01*
X135950000Y-78750000D01*
X135975000Y-78725000D01*
X135975000Y-78632453D01*
X135993585Y-78628956D01*
X136102498Y-78558872D01*
X136175564Y-78451937D01*
X136201269Y-78325000D01*
X136201269Y-77925000D01*
X136178956Y-77806415D01*
X136108872Y-77697502D01*
X136001937Y-77624436D01*
X135944903Y-77612886D01*
X135945108Y-77377215D01*
X135850917Y-77149257D01*
X135676661Y-76974696D01*
X135448867Y-76880107D01*
X135202215Y-76879892D01*
X134974257Y-76974083D01*
X134799696Y-77148339D01*
X134705107Y-77376133D01*
X134704913Y-77598731D01*
X134675000Y-77598731D01*
X134556415Y-77621044D01*
X134447502Y-77691128D01*
X134374436Y-77798063D01*
X134348731Y-77925000D01*
X130995000Y-77925000D01*
X130995000Y-75197785D01*
X132154892Y-75197785D01*
X132249083Y-75425743D01*
X132423339Y-75600304D01*
X132651133Y-75694893D01*
X132897785Y-75695108D01*
X133125743Y-75600917D01*
X133300304Y-75426661D01*
X133394893Y-75198867D01*
X133394896Y-75195000D01*
X133405731Y-75195000D01*
X133405731Y-75232000D01*
X133428044Y-75350585D01*
X133498128Y-75459498D01*
X133605063Y-75532564D01*
X133732000Y-75558269D01*
X134519000Y-75558269D01*
X134637585Y-75535956D01*
X134746498Y-75465872D01*
X134819564Y-75358937D01*
X134845269Y-75232000D01*
X134845269Y-74850000D01*
X135181000Y-74850000D01*
X135181000Y-75251891D01*
X135196224Y-75288646D01*
X135224355Y-75316776D01*
X135261109Y-75332000D01*
X135624500Y-75332000D01*
X135649500Y-75307000D01*
X135649500Y-74825000D01*
X135699500Y-74825000D01*
X135699500Y-75307000D01*
X135724500Y-75332000D01*
X136087891Y-75332000D01*
X136124645Y-75316776D01*
X136152776Y-75288646D01*
X136168000Y-75251891D01*
X136168000Y-74850000D01*
X136143000Y-74825000D01*
X135699500Y-74825000D01*
X135649500Y-74825000D01*
X135206000Y-74825000D01*
X135181000Y-74850000D01*
X134845269Y-74850000D01*
X134845269Y-74368000D01*
X134841527Y-74348109D01*
X135181000Y-74348109D01*
X135181000Y-74750000D01*
X135206000Y-74775000D01*
X135649500Y-74775000D01*
X135649500Y-74293000D01*
X135699500Y-74293000D01*
X135699500Y-74775000D01*
X136143000Y-74775000D01*
X136168000Y-74750000D01*
X136168000Y-74348109D01*
X136152776Y-74311354D01*
X136124645Y-74283224D01*
X136087891Y-74268000D01*
X135724500Y-74268000D01*
X135699500Y-74293000D01*
X135649500Y-74293000D01*
X135624500Y-74268000D01*
X135261109Y-74268000D01*
X135224355Y-74283224D01*
X135196224Y-74311354D01*
X135181000Y-74348109D01*
X134841527Y-74348109D01*
X134822956Y-74249415D01*
X134752872Y-74140502D01*
X134645937Y-74067436D01*
X134520500Y-74042035D01*
X134520500Y-73325500D01*
X134490432Y-73174340D01*
X134418843Y-73067199D01*
X135333156Y-73067199D01*
X135390945Y-73144202D01*
X135611617Y-73235192D01*
X135850311Y-73234808D01*
X136069055Y-73144202D01*
X136126844Y-73067199D01*
X135730000Y-72670355D01*
X135333156Y-73067199D01*
X134418843Y-73067199D01*
X134404807Y-73046193D01*
X133953807Y-72595193D01*
X133836210Y-72516617D01*
X135129808Y-72516617D01*
X135130192Y-72755311D01*
X135220798Y-72974055D01*
X135297801Y-73031844D01*
X135694645Y-72635000D01*
X135297801Y-72238156D01*
X135220798Y-72295945D01*
X135129808Y-72516617D01*
X133836210Y-72516617D01*
X133825660Y-72509568D01*
X133758269Y-72496163D01*
X133758269Y-72481000D01*
X133735956Y-72362415D01*
X133665872Y-72253502D01*
X133558937Y-72180436D01*
X133432000Y-72154731D01*
X132568000Y-72154731D01*
X132449415Y-72177044D01*
X132340502Y-72247128D01*
X132267436Y-72354063D01*
X132241731Y-72481000D01*
X132241731Y-73268000D01*
X132264044Y-73386585D01*
X132334128Y-73495498D01*
X132441063Y-73568564D01*
X132568000Y-73594269D01*
X133432000Y-73594269D01*
X133550585Y-73571956D01*
X133659498Y-73501872D01*
X133693498Y-73452112D01*
X133730500Y-73489114D01*
X133730500Y-74042013D01*
X133613415Y-74064044D01*
X133504502Y-74134128D01*
X133431436Y-74241063D01*
X133405731Y-74368000D01*
X133405731Y-74405000D01*
X133050000Y-74405000D01*
X132898840Y-74435068D01*
X132868889Y-74455081D01*
X132652215Y-74454892D01*
X132424257Y-74549083D01*
X132249696Y-74723339D01*
X132155107Y-74951133D01*
X132154892Y-75197785D01*
X130995000Y-75197785D01*
X130995000Y-74563614D01*
X131479307Y-74079307D01*
X131564932Y-73951160D01*
X131595000Y-73800000D01*
X131595000Y-72295000D01*
X131564932Y-72143840D01*
X131479307Y-72015693D01*
X131061274Y-71597660D01*
X131089858Y-71528824D01*
X131090142Y-71202607D01*
X130978330Y-70932000D01*
X132241731Y-70932000D01*
X132241731Y-71719000D01*
X132264044Y-71837585D01*
X132334128Y-71946498D01*
X132441063Y-72019564D01*
X132568000Y-72045269D01*
X133432000Y-72045269D01*
X133550585Y-72022956D01*
X133659498Y-71952872D01*
X133732564Y-71845937D01*
X133749966Y-71760000D01*
X135005969Y-71760000D01*
X135034432Y-71828886D01*
X135264901Y-72059757D01*
X135407465Y-72118955D01*
X135390945Y-72125798D01*
X135333156Y-72202801D01*
X135730000Y-72599645D01*
X136126844Y-72202801D01*
X136069055Y-72125798D01*
X136052519Y-72118980D01*
X136193886Y-72060568D01*
X136365096Y-71889656D01*
X136475344Y-72000096D01*
X136305243Y-72169901D01*
X136246045Y-72312465D01*
X136239202Y-72295945D01*
X136162199Y-72238156D01*
X135765355Y-72635000D01*
X136162199Y-73031844D01*
X136239202Y-72974055D01*
X136246020Y-72957519D01*
X136304432Y-73098886D01*
X136534901Y-73329757D01*
X136836176Y-73454858D01*
X137162393Y-73455142D01*
X137463886Y-73330568D01*
X137635096Y-73159656D01*
X137804901Y-73329757D01*
X138106176Y-73454858D01*
X138432393Y-73455142D01*
X138733886Y-73330568D01*
X138964757Y-73100099D01*
X139089858Y-72798824D01*
X139089969Y-72671314D01*
X172229763Y-72671314D01*
X172437893Y-73175029D01*
X172822944Y-73560752D01*
X173326295Y-73769762D01*
X173871314Y-73770237D01*
X174375029Y-73562107D01*
X174760752Y-73177056D01*
X174969762Y-72673705D01*
X174970237Y-72128686D01*
X174762107Y-71624971D01*
X174377056Y-71239248D01*
X173873705Y-71030238D01*
X173328686Y-71029763D01*
X172824971Y-71237893D01*
X172439248Y-71622944D01*
X172230238Y-72126295D01*
X172229763Y-72671314D01*
X139089969Y-72671314D01*
X139090142Y-72472607D01*
X138965568Y-72171114D01*
X138794656Y-71999904D01*
X138964757Y-71830099D01*
X139089858Y-71528824D01*
X139090142Y-71202607D01*
X138965568Y-70901114D01*
X138735099Y-70670243D01*
X138433824Y-70545142D01*
X138107607Y-70544858D01*
X137806114Y-70669432D01*
X137634904Y-70840344D01*
X137465099Y-70670243D01*
X137163824Y-70545142D01*
X136837607Y-70544858D01*
X136536114Y-70669432D01*
X136364904Y-70840344D01*
X136195099Y-70670243D01*
X135893824Y-70545142D01*
X135567607Y-70544858D01*
X135266114Y-70669432D01*
X135035243Y-70899901D01*
X135006135Y-70970000D01*
X133758269Y-70970000D01*
X133758269Y-70932000D01*
X133735956Y-70813415D01*
X133665872Y-70704502D01*
X133558937Y-70631436D01*
X133432000Y-70605731D01*
X132568000Y-70605731D01*
X132449415Y-70628044D01*
X132340502Y-70698128D01*
X132267436Y-70805063D01*
X132241731Y-70932000D01*
X130978330Y-70932000D01*
X130965568Y-70901114D01*
X130735099Y-70670243D01*
X130433824Y-70545142D01*
X130107607Y-70544858D01*
X129806114Y-70669432D01*
X129634904Y-70840344D01*
X129465099Y-70670243D01*
X129163824Y-70545142D01*
X128837607Y-70544858D01*
X128536114Y-70669432D01*
X128364904Y-70840344D01*
X128195099Y-70670243D01*
X127893824Y-70545142D01*
X127567607Y-70544858D01*
X127266114Y-70669432D01*
X127035243Y-70899901D01*
X126910142Y-71201176D01*
X126909858Y-71527393D01*
X127034432Y-71828886D01*
X127264901Y-72059757D01*
X127407465Y-72118955D01*
X127390945Y-72125798D01*
X127333156Y-72202801D01*
X127730000Y-72599645D01*
X128126844Y-72202801D01*
X128069055Y-72125798D01*
X128052519Y-72118980D01*
X128193886Y-72060568D01*
X128365096Y-71889656D01*
X128475344Y-72000096D01*
X128305243Y-72169901D01*
X128246045Y-72312465D01*
X128239202Y-72295945D01*
X128162199Y-72238156D01*
X127765355Y-72635000D01*
X128162199Y-73031844D01*
X128239202Y-72974055D01*
X128246020Y-72957519D01*
X128304432Y-73098886D01*
X128534901Y-73329757D01*
X128836176Y-73454858D01*
X129162393Y-73455142D01*
X129463886Y-73330568D01*
X129635096Y-73159656D01*
X129804901Y-73329757D01*
X129904998Y-73371321D01*
X129904998Y-74503170D01*
X129826661Y-74424696D01*
X129598867Y-74330107D01*
X129352215Y-74329892D01*
X129124257Y-74424083D01*
X128949696Y-74598339D01*
X128855107Y-74826133D01*
X128854892Y-75072785D01*
X128949083Y-75300743D01*
X129083174Y-75435069D01*
X129049257Y-75449083D01*
X128874696Y-75623339D01*
X128780107Y-75851133D01*
X128779892Y-76097785D01*
X128874083Y-76325743D01*
X129048339Y-76500304D01*
X129276133Y-76594893D01*
X129304994Y-76594918D01*
X129304994Y-77561392D01*
X129185116Y-77681270D01*
X129101937Y-77624436D01*
X128975000Y-77598731D01*
X127775000Y-77598731D01*
X127656415Y-77621044D01*
X127547502Y-77691128D01*
X127474436Y-77798063D01*
X127448731Y-77925000D01*
X127448731Y-78321892D01*
X127376661Y-78249696D01*
X127148867Y-78155107D01*
X126902215Y-78154892D01*
X126674257Y-78249083D01*
X126499696Y-78423339D01*
X126405107Y-78651133D01*
X126404892Y-78897785D01*
X125395000Y-78897785D01*
X125395000Y-76171220D01*
X125437893Y-76275029D01*
X125822944Y-76660752D01*
X126326295Y-76869762D01*
X126871314Y-76870237D01*
X127375029Y-76662107D01*
X127760752Y-76277056D01*
X127969762Y-75773705D01*
X127970237Y-75228686D01*
X127762107Y-74724971D01*
X127377056Y-74339248D01*
X126873705Y-74130238D01*
X126328686Y-74129763D01*
X125824971Y-74337893D01*
X125439248Y-74722944D01*
X125395000Y-74829505D01*
X125395000Y-73067199D01*
X127333156Y-73067199D01*
X127390945Y-73144202D01*
X127611617Y-73235192D01*
X127850311Y-73234808D01*
X128069055Y-73144202D01*
X128126844Y-73067199D01*
X127730000Y-72670355D01*
X127333156Y-73067199D01*
X125395000Y-73067199D01*
X125395000Y-72516617D01*
X127129808Y-72516617D01*
X127130192Y-72755311D01*
X127220798Y-72974055D01*
X127297801Y-73031844D01*
X127694645Y-72635000D01*
X127297801Y-72238156D01*
X127220798Y-72295945D01*
X127129808Y-72516617D01*
X125395000Y-72516617D01*
X125395000Y-71038904D01*
X125524323Y-70388755D01*
X125870565Y-69870565D01*
X126125835Y-69700000D01*
X140137044Y-69700000D01*
X140150650Y-69768403D01*
G36*
X154525710Y-90030059D02*
X154525710Y-90400000D01*
X154550710Y-90425000D01*
X155000760Y-90425000D01*
X155000760Y-90405000D01*
X155050760Y-90405000D01*
X155050760Y-90425000D01*
X155500810Y-90425000D01*
X155525810Y-90400000D01*
X155525810Y-90030059D01*
X155513359Y-90000000D01*
X158725000Y-90000000D01*
X158725000Y-93900000D01*
X158732879Y-93938906D01*
X158754289Y-93970711D01*
X159054289Y-94270711D01*
X159087371Y-94292650D01*
X159125000Y-94300000D01*
X159483578Y-94300000D01*
X159725000Y-94541422D01*
X159725000Y-100900000D01*
X152152529Y-100900000D01*
X152152529Y-97700030D01*
X152130216Y-97581445D01*
X152125000Y-97573339D01*
X152125000Y-94741422D01*
X152466422Y-94400000D01*
X153825000Y-94400000D01*
X153863906Y-94392121D01*
X153895711Y-94370711D01*
X154295711Y-93970711D01*
X154317650Y-93937629D01*
X154325000Y-93900000D01*
X154325000Y-91000000D01*
X156375000Y-91000000D01*
X156375000Y-91419891D01*
X156390224Y-91456645D01*
X156418354Y-91484776D01*
X156455109Y-91500000D01*
X157275000Y-91500000D01*
X157300000Y-91475000D01*
X157300000Y-90975000D01*
X157350000Y-90975000D01*
X157350000Y-91475000D01*
X157375000Y-91500000D01*
X158194891Y-91500000D01*
X158231646Y-91484776D01*
X158259776Y-91456645D01*
X158275000Y-91419891D01*
X158275000Y-91000000D01*
X158250000Y-90975000D01*
X157350000Y-90975000D01*
X157300000Y-90975000D01*
X156400000Y-90975000D01*
X156375000Y-91000000D01*
X154325000Y-91000000D01*
X154325000Y-90500000D01*
X154525710Y-90500000D01*
X154525710Y-90869941D01*
X154540934Y-90906695D01*
X154569064Y-90934826D01*
X154605819Y-90950050D01*
X154975760Y-90950050D01*
X155000760Y-90925050D01*
X155000760Y-90475000D01*
X155050760Y-90475000D01*
X155050760Y-90925050D01*
X155075760Y-90950050D01*
X155445701Y-90950050D01*
X155482456Y-90934826D01*
X155510586Y-90906695D01*
X155525810Y-90869941D01*
X155525810Y-90500000D01*
X155505919Y-90480109D01*
X156375000Y-90480109D01*
X156375000Y-90900000D01*
X156400000Y-90925000D01*
X157300000Y-90925000D01*
X157300000Y-90425000D01*
X157350000Y-90425000D01*
X157350000Y-90925000D01*
X158250000Y-90925000D01*
X158275000Y-90900000D01*
X158275000Y-90480109D01*
X158259776Y-90443355D01*
X158231646Y-90415224D01*
X158194891Y-90400000D01*
X157375000Y-90400000D01*
X157350000Y-90425000D01*
X157300000Y-90425000D01*
X157275000Y-90400000D01*
X156455109Y-90400000D01*
X156418354Y-90415224D01*
X156390224Y-90443355D01*
X156375000Y-90480109D01*
X155505919Y-90480109D01*
X155500810Y-90475000D01*
X155050760Y-90475000D01*
X155000760Y-90475000D01*
X154550710Y-90475000D01*
X154525710Y-90500000D01*
X154325000Y-90500000D01*
X154325000Y-90000000D01*
X154538161Y-90000000D01*
X154525710Y-90030059D01*
X154525710Y-90030059D01*
G37*
X154525710Y-90030059D02*
X154525710Y-90400000D01*
X154550710Y-90425000D01*
X155000760Y-90425000D01*
X155000760Y-90405000D01*
X155050760Y-90405000D01*
X155050760Y-90425000D01*
X155500810Y-90425000D01*
X155525810Y-90400000D01*
X155525810Y-90030059D01*
X155513359Y-90000000D01*
X158725000Y-90000000D01*
X158725000Y-93900000D01*
X158732879Y-93938906D01*
X158754289Y-93970711D01*
X159054289Y-94270711D01*
X159087371Y-94292650D01*
X159125000Y-94300000D01*
X159483578Y-94300000D01*
X159725000Y-94541422D01*
X159725000Y-100900000D01*
X152152529Y-100900000D01*
X152152529Y-97700030D01*
X152130216Y-97581445D01*
X152125000Y-97573339D01*
X152125000Y-94741422D01*
X152466422Y-94400000D01*
X153825000Y-94400000D01*
X153863906Y-94392121D01*
X153895711Y-94370711D01*
X154295711Y-93970711D01*
X154317650Y-93937629D01*
X154325000Y-93900000D01*
X154325000Y-91000000D01*
X156375000Y-91000000D01*
X156375000Y-91419891D01*
X156390224Y-91456645D01*
X156418354Y-91484776D01*
X156455109Y-91500000D01*
X157275000Y-91500000D01*
X157300000Y-91475000D01*
X157300000Y-90975000D01*
X157350000Y-90975000D01*
X157350000Y-91475000D01*
X157375000Y-91500000D01*
X158194891Y-91500000D01*
X158231646Y-91484776D01*
X158259776Y-91456645D01*
X158275000Y-91419891D01*
X158275000Y-91000000D01*
X158250000Y-90975000D01*
X157350000Y-90975000D01*
X157300000Y-90975000D01*
X156400000Y-90975000D01*
X156375000Y-91000000D01*
X154325000Y-91000000D01*
X154325000Y-90500000D01*
X154525710Y-90500000D01*
X154525710Y-90869941D01*
X154540934Y-90906695D01*
X154569064Y-90934826D01*
X154605819Y-90950050D01*
X154975760Y-90950050D01*
X155000760Y-90925050D01*
X155000760Y-90475000D01*
X155050760Y-90475000D01*
X155050760Y-90925050D01*
X155075760Y-90950050D01*
X155445701Y-90950050D01*
X155482456Y-90934826D01*
X155510586Y-90906695D01*
X155525810Y-90869941D01*
X155525810Y-90500000D01*
X155505919Y-90480109D01*
X156375000Y-90480109D01*
X156375000Y-90900000D01*
X156400000Y-90925000D01*
X157300000Y-90925000D01*
X157300000Y-90425000D01*
X157350000Y-90425000D01*
X157350000Y-90925000D01*
X158250000Y-90925000D01*
X158275000Y-90900000D01*
X158275000Y-90480109D01*
X158259776Y-90443355D01*
X158231646Y-90415224D01*
X158194891Y-90400000D01*
X157375000Y-90400000D01*
X157350000Y-90425000D01*
X157300000Y-90425000D01*
X157275000Y-90400000D01*
X156455109Y-90400000D01*
X156418354Y-90415224D01*
X156390224Y-90443355D01*
X156375000Y-90480109D01*
X155505919Y-90480109D01*
X155500810Y-90475000D01*
X155050760Y-90475000D01*
X155000760Y-90475000D01*
X154550710Y-90475000D01*
X154525710Y-90500000D01*
X154325000Y-90500000D01*
X154325000Y-90000000D01*
X154538161Y-90000000D01*
X154525710Y-90030059D01*
M02*
