G04 #@! TF.FileFunction,Legend,Top*
%FSLAX46Y46*%
G04 Gerber Fmt 4.6, Leading zero omitted, Abs format (unit mm)*
G04 Created by KiCad (PCBNEW 4.0.6-e0-6349~53~ubuntu14.04.1) date Mon Mar 27 23:20:43 2017*
%MOMM*%
%LPD*%
G01*
G04 APERTURE LIST*
%ADD10C,0.100000*%
%ADD11C,0.150000*%
%ADD12C,0.200000*%
%ADD13C,0.152400*%
%ADD14C,0.010000*%
G04 APERTURE END LIST*
D10*
D11*
X150791667Y-74416667D02*
X150558333Y-74083333D01*
X150391667Y-74416667D02*
X150391667Y-73716667D01*
X150658333Y-73716667D01*
X150725000Y-73750000D01*
X150758333Y-73783333D01*
X150791667Y-73850000D01*
X150791667Y-73950000D01*
X150758333Y-74016667D01*
X150725000Y-74050000D01*
X150658333Y-74083333D01*
X150391667Y-74083333D01*
X151058333Y-74383333D02*
X151158333Y-74416667D01*
X151325000Y-74416667D01*
X151391667Y-74383333D01*
X151425000Y-74350000D01*
X151458333Y-74283333D01*
X151458333Y-74216667D01*
X151425000Y-74150000D01*
X151391667Y-74116667D01*
X151325000Y-74083333D01*
X151191667Y-74050000D01*
X151125000Y-74016667D01*
X151091667Y-73983333D01*
X151058333Y-73916667D01*
X151058333Y-73850000D01*
X151091667Y-73783333D01*
X151125000Y-73750000D01*
X151191667Y-73716667D01*
X151358333Y-73716667D01*
X151458333Y-73750000D01*
X151658334Y-73716667D02*
X152058334Y-73716667D01*
X151858334Y-74416667D02*
X151858334Y-73716667D01*
X150225000Y-73596000D02*
X152125000Y-73596000D01*
X147891667Y-74250000D02*
X147858333Y-74283333D01*
X147758333Y-74316667D01*
X147691667Y-74316667D01*
X147591667Y-74283333D01*
X147525000Y-74216667D01*
X147491667Y-74150000D01*
X147458333Y-74016667D01*
X147458333Y-73916667D01*
X147491667Y-73783333D01*
X147525000Y-73716667D01*
X147591667Y-73650000D01*
X147691667Y-73616667D01*
X147758333Y-73616667D01*
X147858333Y-73650000D01*
X147891667Y-73683333D01*
X148158333Y-73683333D02*
X148191667Y-73650000D01*
X148258333Y-73616667D01*
X148425000Y-73616667D01*
X148491667Y-73650000D01*
X148525000Y-73683333D01*
X148558333Y-73750000D01*
X148558333Y-73816667D01*
X148525000Y-73916667D01*
X148125000Y-74316667D01*
X148558333Y-74316667D01*
X148858334Y-74316667D02*
X148858334Y-73616667D01*
X149025000Y-73616667D01*
X149125000Y-73650000D01*
X149191667Y-73716667D01*
X149225000Y-73783333D01*
X149258334Y-73916667D01*
X149258334Y-74016667D01*
X149225000Y-74150000D01*
X149191667Y-74216667D01*
X149125000Y-74283333D01*
X149025000Y-74316667D01*
X148858334Y-74316667D01*
X140891667Y-71116667D02*
X140891667Y-70416667D01*
X141058333Y-70416667D01*
X141158333Y-70450000D01*
X141225000Y-70516667D01*
X141258333Y-70583333D01*
X141291667Y-70716667D01*
X141291667Y-70816667D01*
X141258333Y-70950000D01*
X141225000Y-71016667D01*
X141158333Y-71083333D01*
X141058333Y-71116667D01*
X140891667Y-71116667D01*
X141858333Y-71083333D02*
X141791667Y-71116667D01*
X141658333Y-71116667D01*
X141591667Y-71083333D01*
X141558333Y-71016667D01*
X141558333Y-70750000D01*
X141591667Y-70683333D01*
X141658333Y-70650000D01*
X141791667Y-70650000D01*
X141858333Y-70683333D01*
X141891667Y-70750000D01*
X141891667Y-70816667D01*
X141558333Y-70883333D01*
X142191667Y-71116667D02*
X142191667Y-70416667D01*
X142191667Y-70683333D02*
X142258333Y-70650000D01*
X142391667Y-70650000D01*
X142458333Y-70683333D01*
X142491667Y-70716667D01*
X142525000Y-70783333D01*
X142525000Y-70983333D01*
X142491667Y-71050000D01*
X142458333Y-71083333D01*
X142391667Y-71116667D01*
X142258333Y-71116667D01*
X142191667Y-71083333D01*
X143125000Y-70650000D02*
X143125000Y-71116667D01*
X142825000Y-70650000D02*
X142825000Y-71016667D01*
X142858333Y-71083333D01*
X142925000Y-71116667D01*
X143025000Y-71116667D01*
X143091666Y-71083333D01*
X143125000Y-71050000D01*
X143758333Y-70650000D02*
X143758333Y-71216667D01*
X143724999Y-71283333D01*
X143691666Y-71316667D01*
X143624999Y-71350000D01*
X143524999Y-71350000D01*
X143458333Y-71316667D01*
X143758333Y-71083333D02*
X143691666Y-71116667D01*
X143558333Y-71116667D01*
X143491666Y-71083333D01*
X143458333Y-71050000D01*
X143424999Y-70983333D01*
X143424999Y-70783333D01*
X143458333Y-70716667D01*
X143491666Y-70683333D01*
X143558333Y-70650000D01*
X143691666Y-70650000D01*
X143758333Y-70683333D01*
D12*
X160886905Y-85728571D02*
X161029762Y-85776190D01*
X161077381Y-85823810D01*
X161125000Y-85919048D01*
X161125000Y-86061905D01*
X161077381Y-86157143D01*
X161029762Y-86204762D01*
X160934524Y-86252381D01*
X160553571Y-86252381D01*
X160553571Y-85252381D01*
X160886905Y-85252381D01*
X160982143Y-85300000D01*
X161029762Y-85347619D01*
X161077381Y-85442857D01*
X161077381Y-85538095D01*
X161029762Y-85633333D01*
X160982143Y-85680952D01*
X160886905Y-85728571D01*
X160553571Y-85728571D01*
X161744047Y-85252381D02*
X161934524Y-85252381D01*
X162029762Y-85300000D01*
X162125000Y-85395238D01*
X162172619Y-85585714D01*
X162172619Y-85919048D01*
X162125000Y-86109524D01*
X162029762Y-86204762D01*
X161934524Y-86252381D01*
X161744047Y-86252381D01*
X161648809Y-86204762D01*
X161553571Y-86109524D01*
X161505952Y-85919048D01*
X161505952Y-85585714D01*
X161553571Y-85395238D01*
X161648809Y-85300000D01*
X161744047Y-85252381D01*
X162601190Y-85252381D02*
X162601190Y-86061905D01*
X162648809Y-86157143D01*
X162696428Y-86204762D01*
X162791666Y-86252381D01*
X162982143Y-86252381D01*
X163077381Y-86204762D01*
X163125000Y-86157143D01*
X163172619Y-86061905D01*
X163172619Y-85252381D01*
X163505952Y-85252381D02*
X164077381Y-85252381D01*
X163791666Y-86252381D02*
X163791666Y-85252381D01*
X164934524Y-86252381D02*
X164363095Y-86252381D01*
X164648809Y-86252381D02*
X164648809Y-85252381D01*
X164553571Y-85395238D01*
X164458333Y-85490476D01*
X164363095Y-85538095D01*
X160886905Y-83228571D02*
X161029762Y-83276190D01*
X161077381Y-83323810D01*
X161125000Y-83419048D01*
X161125000Y-83561905D01*
X161077381Y-83657143D01*
X161029762Y-83704762D01*
X160934524Y-83752381D01*
X160553571Y-83752381D01*
X160553571Y-82752381D01*
X160886905Y-82752381D01*
X160982143Y-82800000D01*
X161029762Y-82847619D01*
X161077381Y-82942857D01*
X161077381Y-83038095D01*
X161029762Y-83133333D01*
X160982143Y-83180952D01*
X160886905Y-83228571D01*
X160553571Y-83228571D01*
X161744047Y-82752381D02*
X161934524Y-82752381D01*
X162029762Y-82800000D01*
X162125000Y-82895238D01*
X162172619Y-83085714D01*
X162172619Y-83419048D01*
X162125000Y-83609524D01*
X162029762Y-83704762D01*
X161934524Y-83752381D01*
X161744047Y-83752381D01*
X161648809Y-83704762D01*
X161553571Y-83609524D01*
X161505952Y-83419048D01*
X161505952Y-83085714D01*
X161553571Y-82895238D01*
X161648809Y-82800000D01*
X161744047Y-82752381D01*
X162601190Y-82752381D02*
X162601190Y-83561905D01*
X162648809Y-83657143D01*
X162696428Y-83704762D01*
X162791666Y-83752381D01*
X162982143Y-83752381D01*
X163077381Y-83704762D01*
X163125000Y-83657143D01*
X163172619Y-83561905D01*
X163172619Y-82752381D01*
X163505952Y-82752381D02*
X164077381Y-82752381D01*
X163791666Y-83752381D02*
X163791666Y-82752381D01*
X164363095Y-82847619D02*
X164410714Y-82800000D01*
X164505952Y-82752381D01*
X164744048Y-82752381D01*
X164839286Y-82800000D01*
X164886905Y-82847619D01*
X164934524Y-82942857D01*
X164934524Y-83038095D01*
X164886905Y-83180952D01*
X164315476Y-83752381D01*
X164934524Y-83752381D01*
X160748809Y-80866667D02*
X161225000Y-80866667D01*
X160653571Y-81152381D02*
X160986904Y-80152381D01*
X161320238Y-81152381D01*
X161844047Y-80152381D02*
X162034524Y-80152381D01*
X162129762Y-80200000D01*
X162225000Y-80295238D01*
X162272619Y-80485714D01*
X162272619Y-80819048D01*
X162225000Y-81009524D01*
X162129762Y-81104762D01*
X162034524Y-81152381D01*
X161844047Y-81152381D01*
X161748809Y-81104762D01*
X161653571Y-81009524D01*
X161605952Y-80819048D01*
X161605952Y-80485714D01*
X161653571Y-80295238D01*
X161748809Y-80200000D01*
X161844047Y-80152381D01*
X162701190Y-80152381D02*
X162701190Y-80961905D01*
X162748809Y-81057143D01*
X162796428Y-81104762D01*
X162891666Y-81152381D01*
X163082143Y-81152381D01*
X163177381Y-81104762D01*
X163225000Y-81057143D01*
X163272619Y-80961905D01*
X163272619Y-80152381D01*
X163605952Y-80152381D02*
X164177381Y-80152381D01*
X163891666Y-81152381D02*
X163891666Y-80152381D01*
X164463095Y-80247619D02*
X164510714Y-80200000D01*
X164605952Y-80152381D01*
X164844048Y-80152381D01*
X164939286Y-80200000D01*
X164986905Y-80247619D01*
X165034524Y-80342857D01*
X165034524Y-80438095D01*
X164986905Y-80580952D01*
X164415476Y-81152381D01*
X165034524Y-81152381D01*
X160648809Y-78366667D02*
X161125000Y-78366667D01*
X160553571Y-78652381D02*
X160886904Y-77652381D01*
X161220238Y-78652381D01*
X161744047Y-77652381D02*
X161934524Y-77652381D01*
X162029762Y-77700000D01*
X162125000Y-77795238D01*
X162172619Y-77985714D01*
X162172619Y-78319048D01*
X162125000Y-78509524D01*
X162029762Y-78604762D01*
X161934524Y-78652381D01*
X161744047Y-78652381D01*
X161648809Y-78604762D01*
X161553571Y-78509524D01*
X161505952Y-78319048D01*
X161505952Y-77985714D01*
X161553571Y-77795238D01*
X161648809Y-77700000D01*
X161744047Y-77652381D01*
X162601190Y-77652381D02*
X162601190Y-78461905D01*
X162648809Y-78557143D01*
X162696428Y-78604762D01*
X162791666Y-78652381D01*
X162982143Y-78652381D01*
X163077381Y-78604762D01*
X163125000Y-78557143D01*
X163172619Y-78461905D01*
X163172619Y-77652381D01*
X163505952Y-77652381D02*
X164077381Y-77652381D01*
X163791666Y-78652381D02*
X163791666Y-77652381D01*
X164934524Y-78652381D02*
X164363095Y-78652381D01*
X164648809Y-78652381D02*
X164648809Y-77652381D01*
X164553571Y-77795238D01*
X164458333Y-77890476D01*
X164363095Y-77938095D01*
D11*
X126966667Y-90550000D02*
X126966667Y-91250000D01*
X126966667Y-90583333D02*
X127033333Y-90550000D01*
X127166667Y-90550000D01*
X127233333Y-90583333D01*
X127266667Y-90616667D01*
X127300000Y-90683333D01*
X127300000Y-90883333D01*
X127266667Y-90950000D01*
X127233333Y-90983333D01*
X127166667Y-91016667D01*
X127033333Y-91016667D01*
X126966667Y-90983333D01*
X127700000Y-91016667D02*
X127633333Y-90983333D01*
X127600000Y-90916667D01*
X127600000Y-90316667D01*
X128266667Y-90550000D02*
X128266667Y-91016667D01*
X127966667Y-90550000D02*
X127966667Y-90916667D01*
X128000000Y-90983333D01*
X128066667Y-91016667D01*
X128166667Y-91016667D01*
X128233333Y-90983333D01*
X128266667Y-90950000D01*
X128900000Y-90550000D02*
X128900000Y-91116667D01*
X128866666Y-91183333D01*
X128833333Y-91216667D01*
X128766666Y-91250000D01*
X128666666Y-91250000D01*
X128600000Y-91216667D01*
X128900000Y-90983333D02*
X128833333Y-91016667D01*
X128700000Y-91016667D01*
X128633333Y-90983333D01*
X128600000Y-90950000D01*
X128566666Y-90883333D01*
X128566666Y-90683333D01*
X128600000Y-90616667D01*
X128633333Y-90583333D01*
X128700000Y-90550000D01*
X128833333Y-90550000D01*
X128900000Y-90583333D01*
X129533333Y-90550000D02*
X129533333Y-91116667D01*
X129499999Y-91183333D01*
X129466666Y-91216667D01*
X129399999Y-91250000D01*
X129299999Y-91250000D01*
X129233333Y-91216667D01*
X129533333Y-90983333D02*
X129466666Y-91016667D01*
X129333333Y-91016667D01*
X129266666Y-90983333D01*
X129233333Y-90950000D01*
X129199999Y-90883333D01*
X129199999Y-90683333D01*
X129233333Y-90616667D01*
X129266666Y-90583333D01*
X129333333Y-90550000D01*
X129466666Y-90550000D01*
X129533333Y-90583333D01*
X129866666Y-90950000D02*
X129899999Y-90983333D01*
X129866666Y-91016667D01*
X129833332Y-90983333D01*
X129866666Y-90950000D01*
X129866666Y-91016667D01*
X130466665Y-90983333D02*
X130399999Y-91016667D01*
X130266665Y-91016667D01*
X130199999Y-90983333D01*
X130166665Y-90916667D01*
X130166665Y-90650000D01*
X130199999Y-90583333D01*
X130266665Y-90550000D01*
X130399999Y-90550000D01*
X130466665Y-90583333D01*
X130499999Y-90650000D01*
X130499999Y-90716667D01*
X130166665Y-90783333D01*
X131066665Y-90983333D02*
X130999999Y-91016667D01*
X130866665Y-91016667D01*
X130799999Y-90983333D01*
X130766665Y-90916667D01*
X130766665Y-90650000D01*
X130799999Y-90583333D01*
X130866665Y-90550000D01*
X130999999Y-90550000D01*
X131066665Y-90583333D01*
X131099999Y-90650000D01*
X131099999Y-90716667D01*
X130766665Y-90783333D01*
X132266665Y-91016667D02*
X131933332Y-91016667D01*
X131933332Y-90316667D01*
X132799999Y-91016667D02*
X132799999Y-90650000D01*
X132766665Y-90583333D01*
X132699999Y-90550000D01*
X132566665Y-90550000D01*
X132499999Y-90583333D01*
X132799999Y-90983333D02*
X132733332Y-91016667D01*
X132566665Y-91016667D01*
X132499999Y-90983333D01*
X132466665Y-90916667D01*
X132466665Y-90850000D01*
X132499999Y-90783333D01*
X132566665Y-90750000D01*
X132733332Y-90750000D01*
X132799999Y-90716667D01*
X133133332Y-91016667D02*
X133133332Y-90316667D01*
X133133332Y-90583333D02*
X133199998Y-90550000D01*
X133333332Y-90550000D01*
X133399998Y-90583333D01*
X133433332Y-90616667D01*
X133466665Y-90683333D01*
X133466665Y-90883333D01*
X133433332Y-90950000D01*
X133399998Y-90983333D01*
X133333332Y-91016667D01*
X133199998Y-91016667D01*
X133133332Y-90983333D01*
X133733331Y-90983333D02*
X133799998Y-91016667D01*
X133933331Y-91016667D01*
X133999998Y-90983333D01*
X134033331Y-90916667D01*
X134033331Y-90883333D01*
X133999998Y-90816667D01*
X133933331Y-90783333D01*
X133833331Y-90783333D01*
X133766665Y-90750000D01*
X133733331Y-90683333D01*
X133733331Y-90650000D01*
X133766665Y-90583333D01*
X133833331Y-90550000D01*
X133933331Y-90550000D01*
X133999998Y-90583333D01*
X135199998Y-91016667D02*
X134866665Y-91016667D01*
X134866665Y-90316667D01*
X135766665Y-91016667D02*
X135433332Y-91016667D01*
X135433332Y-90316667D01*
X136399999Y-90950000D02*
X136366665Y-90983333D01*
X136266665Y-91016667D01*
X136199999Y-91016667D01*
X136099999Y-90983333D01*
X136033332Y-90916667D01*
X135999999Y-90850000D01*
X135966665Y-90716667D01*
X135966665Y-90616667D01*
X135999999Y-90483333D01*
X136033332Y-90416667D01*
X136099999Y-90350000D01*
X136199999Y-90316667D01*
X136266665Y-90316667D01*
X136366665Y-90350000D01*
X136399999Y-90383333D01*
X126933333Y-92183333D02*
X127033333Y-92216667D01*
X127200000Y-92216667D01*
X127266667Y-92183333D01*
X127300000Y-92150000D01*
X127333333Y-92083333D01*
X127333333Y-92016667D01*
X127300000Y-91950000D01*
X127266667Y-91916667D01*
X127200000Y-91883333D01*
X127066667Y-91850000D01*
X127000000Y-91816667D01*
X126966667Y-91783333D01*
X126933333Y-91716667D01*
X126933333Y-91650000D01*
X126966667Y-91583333D01*
X127000000Y-91550000D01*
X127066667Y-91516667D01*
X127233333Y-91516667D01*
X127333333Y-91550000D01*
X127933334Y-92216667D02*
X127933334Y-91850000D01*
X127900000Y-91783333D01*
X127833334Y-91750000D01*
X127700000Y-91750000D01*
X127633334Y-91783333D01*
X127933334Y-92183333D02*
X127866667Y-92216667D01*
X127700000Y-92216667D01*
X127633334Y-92183333D01*
X127600000Y-92116667D01*
X127600000Y-92050000D01*
X127633334Y-91983333D01*
X127700000Y-91950000D01*
X127866667Y-91950000D01*
X127933334Y-91916667D01*
X128266667Y-91750000D02*
X128266667Y-92216667D01*
X128266667Y-91816667D02*
X128300000Y-91783333D01*
X128366667Y-91750000D01*
X128466667Y-91750000D01*
X128533333Y-91783333D01*
X128566667Y-91850000D01*
X128566667Y-92216667D01*
X129633333Y-91516667D02*
X129633333Y-92016667D01*
X129599999Y-92116667D01*
X129533333Y-92183333D01*
X129433333Y-92216667D01*
X129366666Y-92216667D01*
X130066666Y-92216667D02*
X129999999Y-92183333D01*
X129966666Y-92150000D01*
X129933332Y-92083333D01*
X129933332Y-91883333D01*
X129966666Y-91816667D01*
X129999999Y-91783333D01*
X130066666Y-91750000D01*
X130166666Y-91750000D01*
X130233332Y-91783333D01*
X130266666Y-91816667D01*
X130299999Y-91883333D01*
X130299999Y-92083333D01*
X130266666Y-92150000D01*
X130233332Y-92183333D01*
X130166666Y-92216667D01*
X130066666Y-92216667D01*
X130566665Y-92183333D02*
X130633332Y-92216667D01*
X130766665Y-92216667D01*
X130833332Y-92183333D01*
X130866665Y-92116667D01*
X130866665Y-92083333D01*
X130833332Y-92016667D01*
X130766665Y-91983333D01*
X130666665Y-91983333D01*
X130599999Y-91950000D01*
X130566665Y-91883333D01*
X130566665Y-91850000D01*
X130599999Y-91783333D01*
X130666665Y-91750000D01*
X130766665Y-91750000D01*
X130833332Y-91783333D01*
X131433332Y-92183333D02*
X131366666Y-92216667D01*
X131233332Y-92216667D01*
X131166666Y-92183333D01*
X131133332Y-92116667D01*
X131133332Y-91850000D01*
X131166666Y-91783333D01*
X131233332Y-91750000D01*
X131366666Y-91750000D01*
X131433332Y-91783333D01*
X131466666Y-91850000D01*
X131466666Y-91916667D01*
X131133332Y-91983333D01*
X131799999Y-92183333D02*
X131799999Y-92216667D01*
X131766666Y-92283333D01*
X131733332Y-92316667D01*
X133033332Y-92150000D02*
X132999998Y-92183333D01*
X132899998Y-92216667D01*
X132833332Y-92216667D01*
X132733332Y-92183333D01*
X132666665Y-92116667D01*
X132633332Y-92050000D01*
X132599998Y-91916667D01*
X132599998Y-91816667D01*
X132633332Y-91683333D01*
X132666665Y-91616667D01*
X132733332Y-91550000D01*
X132833332Y-91516667D01*
X132899998Y-91516667D01*
X132999998Y-91550000D01*
X133033332Y-91583333D01*
X133299998Y-92016667D02*
X133633332Y-92016667D01*
X133233332Y-92216667D02*
X133466665Y-91516667D01*
X133699998Y-92216667D01*
X134433331Y-91583333D02*
X134466665Y-91550000D01*
X134533331Y-91516667D01*
X134699998Y-91516667D01*
X134766665Y-91550000D01*
X134799998Y-91583333D01*
X134833331Y-91650000D01*
X134833331Y-91716667D01*
X134799998Y-91816667D01*
X134399998Y-92216667D01*
X134833331Y-92216667D01*
X135266665Y-91516667D02*
X135333332Y-91516667D01*
X135399998Y-91550000D01*
X135433332Y-91583333D01*
X135466665Y-91650000D01*
X135499998Y-91783333D01*
X135499998Y-91950000D01*
X135466665Y-92083333D01*
X135433332Y-92150000D01*
X135399998Y-92183333D01*
X135333332Y-92216667D01*
X135266665Y-92216667D01*
X135199998Y-92183333D01*
X135166665Y-92150000D01*
X135133332Y-92083333D01*
X135099998Y-91950000D01*
X135099998Y-91783333D01*
X135133332Y-91650000D01*
X135166665Y-91583333D01*
X135199998Y-91550000D01*
X135266665Y-91516667D01*
X136166665Y-92216667D02*
X135766665Y-92216667D01*
X135966665Y-92216667D02*
X135966665Y-91516667D01*
X135899999Y-91616667D01*
X135833332Y-91683333D01*
X135766665Y-91716667D01*
X136399999Y-91516667D02*
X136866666Y-91516667D01*
X136566666Y-92216667D01*
X163841666Y-71441667D02*
X163608332Y-71108333D01*
X163441666Y-71441667D02*
X163441666Y-70741667D01*
X163708332Y-70741667D01*
X163774999Y-70775000D01*
X163808332Y-70808333D01*
X163841666Y-70875000D01*
X163841666Y-70975000D01*
X163808332Y-71041667D01*
X163774999Y-71075000D01*
X163708332Y-71108333D01*
X163441666Y-71108333D01*
X164508332Y-71441667D02*
X164108332Y-71441667D01*
X164308332Y-71441667D02*
X164308332Y-70741667D01*
X164241666Y-70841667D01*
X164174999Y-70908333D01*
X164108332Y-70941667D01*
X164941666Y-70741667D02*
X165008333Y-70741667D01*
X165074999Y-70775000D01*
X165108333Y-70808333D01*
X165141666Y-70875000D01*
X165174999Y-71008333D01*
X165174999Y-71175000D01*
X165141666Y-71308333D01*
X165108333Y-71375000D01*
X165074999Y-71408333D01*
X165008333Y-71441667D01*
X164941666Y-71441667D01*
X164874999Y-71408333D01*
X164841666Y-71375000D01*
X164808333Y-71308333D01*
X164774999Y-71175000D01*
X164774999Y-71008333D01*
X164808333Y-70875000D01*
X164841666Y-70808333D01*
X164874999Y-70775000D01*
X164941666Y-70741667D01*
X165608333Y-70741667D02*
X165675000Y-70741667D01*
X165741666Y-70775000D01*
X165775000Y-70808333D01*
X165808333Y-70875000D01*
X165841666Y-71008333D01*
X165841666Y-71175000D01*
X165808333Y-71308333D01*
X165775000Y-71375000D01*
X165741666Y-71408333D01*
X165675000Y-71441667D01*
X165608333Y-71441667D01*
X165541666Y-71408333D01*
X165508333Y-71375000D01*
X165475000Y-71308333D01*
X165441666Y-71175000D01*
X165441666Y-71008333D01*
X165475000Y-70875000D01*
X165508333Y-70808333D01*
X165541666Y-70775000D01*
X165608333Y-70741667D01*
X166508333Y-71441667D02*
X166108333Y-71441667D01*
X166308333Y-71441667D02*
X166308333Y-70741667D01*
X166241667Y-70841667D01*
X166175000Y-70908333D01*
X166108333Y-70941667D01*
X167275000Y-70975000D02*
X167441667Y-71441667D01*
X167608333Y-70975000D01*
X168241666Y-71441667D02*
X167841666Y-71441667D01*
X168041666Y-71441667D02*
X168041666Y-70741667D01*
X167975000Y-70841667D01*
X167908333Y-70908333D01*
X167841666Y-70941667D01*
X168541667Y-71375000D02*
X168575000Y-71408333D01*
X168541667Y-71441667D01*
X168508333Y-71408333D01*
X168541667Y-71375000D01*
X168541667Y-71441667D01*
X168808333Y-70741667D02*
X169241666Y-70741667D01*
X169008333Y-71008333D01*
X169108333Y-71008333D01*
X169175000Y-71041667D01*
X169208333Y-71075000D01*
X169241666Y-71141667D01*
X169241666Y-71308333D01*
X169208333Y-71375000D01*
X169175000Y-71408333D01*
X169108333Y-71441667D01*
X168908333Y-71441667D01*
X168841666Y-71408333D01*
X168808333Y-71375000D01*
X153375003Y-72641667D02*
X153375003Y-71941667D01*
X153541669Y-71941667D01*
X153641669Y-71975000D01*
X153708336Y-72041667D01*
X153741669Y-72108333D01*
X153775003Y-72241667D01*
X153775003Y-72341667D01*
X153741669Y-72475000D01*
X153708336Y-72541667D01*
X153641669Y-72608333D01*
X153541669Y-72641667D01*
X153375003Y-72641667D01*
X154475003Y-72641667D02*
X154241669Y-72308333D01*
X154075003Y-72641667D02*
X154075003Y-71941667D01*
X154341669Y-71941667D01*
X154408336Y-71975000D01*
X154441669Y-72008333D01*
X154475003Y-72075000D01*
X154475003Y-72175000D01*
X154441669Y-72241667D01*
X154408336Y-72275000D01*
X154341669Y-72308333D01*
X154075003Y-72308333D01*
X154675003Y-71941667D02*
X154908336Y-72641667D01*
X155141669Y-71941667D01*
X155475003Y-72241667D02*
X155408336Y-72208333D01*
X155375003Y-72175000D01*
X155341669Y-72108333D01*
X155341669Y-72075000D01*
X155375003Y-72008333D01*
X155408336Y-71975000D01*
X155475003Y-71941667D01*
X155608336Y-71941667D01*
X155675003Y-71975000D01*
X155708336Y-72008333D01*
X155741669Y-72075000D01*
X155741669Y-72108333D01*
X155708336Y-72175000D01*
X155675003Y-72208333D01*
X155608336Y-72241667D01*
X155475003Y-72241667D01*
X155408336Y-72275000D01*
X155375003Y-72308333D01*
X155341669Y-72375000D01*
X155341669Y-72508333D01*
X155375003Y-72575000D01*
X155408336Y-72608333D01*
X155475003Y-72641667D01*
X155608336Y-72641667D01*
X155675003Y-72608333D01*
X155708336Y-72575000D01*
X155741669Y-72508333D01*
X155741669Y-72375000D01*
X155708336Y-72308333D01*
X155675003Y-72275000D01*
X155608336Y-72241667D01*
X156141670Y-72241667D02*
X156075003Y-72208333D01*
X156041670Y-72175000D01*
X156008336Y-72108333D01*
X156008336Y-72075000D01*
X156041670Y-72008333D01*
X156075003Y-71975000D01*
X156141670Y-71941667D01*
X156275003Y-71941667D01*
X156341670Y-71975000D01*
X156375003Y-72008333D01*
X156408336Y-72075000D01*
X156408336Y-72108333D01*
X156375003Y-72175000D01*
X156341670Y-72208333D01*
X156275003Y-72241667D01*
X156141670Y-72241667D01*
X156075003Y-72275000D01*
X156041670Y-72308333D01*
X156008336Y-72375000D01*
X156008336Y-72508333D01*
X156041670Y-72575000D01*
X156075003Y-72608333D01*
X156141670Y-72641667D01*
X156275003Y-72641667D01*
X156341670Y-72608333D01*
X156375003Y-72575000D01*
X156408336Y-72508333D01*
X156408336Y-72375000D01*
X156375003Y-72308333D01*
X156341670Y-72275000D01*
X156275003Y-72241667D01*
X156675003Y-72008333D02*
X156708337Y-71975000D01*
X156775003Y-71941667D01*
X156941670Y-71941667D01*
X157008337Y-71975000D01*
X157041670Y-72008333D01*
X157075003Y-72075000D01*
X157075003Y-72141667D01*
X157041670Y-72241667D01*
X156641670Y-72641667D01*
X157075003Y-72641667D01*
X157708337Y-71941667D02*
X157375004Y-71941667D01*
X157341670Y-72275000D01*
X157375004Y-72241667D01*
X157441670Y-72208333D01*
X157608337Y-72208333D01*
X157675004Y-72241667D01*
X157708337Y-72275000D01*
X157741670Y-72341667D01*
X157741670Y-72508333D01*
X157708337Y-72575000D01*
X157675004Y-72608333D01*
X157608337Y-72641667D01*
X157441670Y-72641667D01*
X157375004Y-72608333D01*
X157341670Y-72575000D01*
X158541670Y-72608333D02*
X158641670Y-72641667D01*
X158808337Y-72641667D01*
X158875004Y-72608333D01*
X158908337Y-72575000D01*
X158941670Y-72508333D01*
X158941670Y-72441667D01*
X158908337Y-72375000D01*
X158875004Y-72341667D01*
X158808337Y-72308333D01*
X158675004Y-72275000D01*
X158608337Y-72241667D01*
X158575004Y-72208333D01*
X158541670Y-72141667D01*
X158541670Y-72075000D01*
X158575004Y-72008333D01*
X158608337Y-71975000D01*
X158675004Y-71941667D01*
X158841670Y-71941667D01*
X158941670Y-71975000D01*
X159141671Y-72175000D02*
X159408337Y-72175000D01*
X159241671Y-71941667D02*
X159241671Y-72541667D01*
X159275004Y-72608333D01*
X159341671Y-72641667D01*
X159408337Y-72641667D01*
X159908337Y-72608333D02*
X159841671Y-72641667D01*
X159708337Y-72641667D01*
X159641671Y-72608333D01*
X159608337Y-72541667D01*
X159608337Y-72275000D01*
X159641671Y-72208333D01*
X159708337Y-72175000D01*
X159841671Y-72175000D01*
X159908337Y-72208333D01*
X159941671Y-72275000D01*
X159941671Y-72341667D01*
X159608337Y-72408333D01*
X160241671Y-72175000D02*
X160241671Y-72875000D01*
X160241671Y-72208333D02*
X160308337Y-72175000D01*
X160441671Y-72175000D01*
X160508337Y-72208333D01*
X160541671Y-72241667D01*
X160575004Y-72308333D01*
X160575004Y-72508333D01*
X160541671Y-72575000D01*
X160508337Y-72608333D01*
X160441671Y-72641667D01*
X160308337Y-72641667D01*
X160241671Y-72608333D01*
X160875004Y-72175000D02*
X160875004Y-72875000D01*
X160875004Y-72208333D02*
X160941670Y-72175000D01*
X161075004Y-72175000D01*
X161141670Y-72208333D01*
X161175004Y-72241667D01*
X161208337Y-72308333D01*
X161208337Y-72508333D01*
X161175004Y-72575000D01*
X161141670Y-72608333D01*
X161075004Y-72641667D01*
X160941670Y-72641667D01*
X160875004Y-72608333D01*
X161775003Y-72608333D02*
X161708337Y-72641667D01*
X161575003Y-72641667D01*
X161508337Y-72608333D01*
X161475003Y-72541667D01*
X161475003Y-72275000D01*
X161508337Y-72208333D01*
X161575003Y-72175000D01*
X161708337Y-72175000D01*
X161775003Y-72208333D01*
X161808337Y-72275000D01*
X161808337Y-72341667D01*
X161475003Y-72408333D01*
X162108337Y-72641667D02*
X162108337Y-72175000D01*
X162108337Y-72308333D02*
X162141670Y-72241667D01*
X162175003Y-72208333D01*
X162241670Y-72175000D01*
X162308337Y-72175000D01*
X163075003Y-72641667D02*
X163075003Y-71941667D01*
X163308336Y-72441667D01*
X163541669Y-71941667D01*
X163541669Y-72641667D01*
X163975003Y-72641667D02*
X163908336Y-72608333D01*
X163875003Y-72575000D01*
X163841669Y-72508333D01*
X163841669Y-72308333D01*
X163875003Y-72241667D01*
X163908336Y-72208333D01*
X163975003Y-72175000D01*
X164075003Y-72175000D01*
X164141669Y-72208333D01*
X164175003Y-72241667D01*
X164208336Y-72308333D01*
X164208336Y-72508333D01*
X164175003Y-72575000D01*
X164141669Y-72608333D01*
X164075003Y-72641667D01*
X163975003Y-72641667D01*
X164408336Y-72175000D02*
X164675002Y-72175000D01*
X164508336Y-71941667D02*
X164508336Y-72541667D01*
X164541669Y-72608333D01*
X164608336Y-72641667D01*
X164675002Y-72641667D01*
X165008336Y-72641667D02*
X164941669Y-72608333D01*
X164908336Y-72575000D01*
X164875002Y-72508333D01*
X164875002Y-72308333D01*
X164908336Y-72241667D01*
X164941669Y-72208333D01*
X165008336Y-72175000D01*
X165108336Y-72175000D01*
X165175002Y-72208333D01*
X165208336Y-72241667D01*
X165241669Y-72308333D01*
X165241669Y-72508333D01*
X165208336Y-72575000D01*
X165175002Y-72608333D01*
X165108336Y-72641667D01*
X165008336Y-72641667D01*
X165541669Y-72641667D02*
X165541669Y-72175000D01*
X165541669Y-72308333D02*
X165575002Y-72241667D01*
X165608335Y-72208333D01*
X165675002Y-72175000D01*
X165741669Y-72175000D01*
X166508335Y-72641667D02*
X166508335Y-71941667D01*
X166675001Y-71941667D01*
X166775001Y-71975000D01*
X166841668Y-72041667D01*
X166875001Y-72108333D01*
X166908335Y-72241667D01*
X166908335Y-72341667D01*
X166875001Y-72475000D01*
X166841668Y-72541667D01*
X166775001Y-72608333D01*
X166675001Y-72641667D01*
X166508335Y-72641667D01*
X167208335Y-72641667D02*
X167208335Y-72175000D01*
X167208335Y-72308333D02*
X167241668Y-72241667D01*
X167275001Y-72208333D01*
X167341668Y-72175000D01*
X167408335Y-72175000D01*
X167641668Y-72641667D02*
X167641668Y-72175000D01*
X167641668Y-71941667D02*
X167608334Y-71975000D01*
X167641668Y-72008333D01*
X167675001Y-71975000D01*
X167641668Y-71941667D01*
X167641668Y-72008333D01*
X167908334Y-72175000D02*
X168075001Y-72641667D01*
X168241667Y-72175000D01*
X168775000Y-72608333D02*
X168708334Y-72641667D01*
X168575000Y-72641667D01*
X168508334Y-72608333D01*
X168475000Y-72541667D01*
X168475000Y-72275000D01*
X168508334Y-72208333D01*
X168575000Y-72175000D01*
X168708334Y-72175000D01*
X168775000Y-72208333D01*
X168808334Y-72275000D01*
X168808334Y-72341667D01*
X168475000Y-72408333D01*
X169108334Y-72641667D02*
X169108334Y-72175000D01*
X169108334Y-72308333D02*
X169141667Y-72241667D01*
X169175000Y-72208333D01*
X169241667Y-72175000D01*
X169308334Y-72175000D01*
X161241670Y-73841667D02*
X161241670Y-73141667D01*
X161541670Y-73841667D02*
X161541670Y-73475000D01*
X161508336Y-73408333D01*
X161441670Y-73375000D01*
X161341670Y-73375000D01*
X161275003Y-73408333D01*
X161241670Y-73441667D01*
X161775003Y-73375000D02*
X162041669Y-73375000D01*
X161875003Y-73141667D02*
X161875003Y-73741667D01*
X161908336Y-73808333D01*
X161975003Y-73841667D01*
X162041669Y-73841667D01*
X162175003Y-73375000D02*
X162441669Y-73375000D01*
X162275003Y-73141667D02*
X162275003Y-73741667D01*
X162308336Y-73808333D01*
X162375003Y-73841667D01*
X162441669Y-73841667D01*
X162675003Y-73375000D02*
X162675003Y-74075000D01*
X162675003Y-73408333D02*
X162741669Y-73375000D01*
X162875003Y-73375000D01*
X162941669Y-73408333D01*
X162975003Y-73441667D01*
X163008336Y-73508333D01*
X163008336Y-73708333D01*
X162975003Y-73775000D01*
X162941669Y-73808333D01*
X162875003Y-73841667D01*
X162741669Y-73841667D01*
X162675003Y-73808333D01*
X163308336Y-73775000D02*
X163341669Y-73808333D01*
X163308336Y-73841667D01*
X163275002Y-73808333D01*
X163308336Y-73775000D01*
X163308336Y-73841667D01*
X163308336Y-73408333D02*
X163341669Y-73441667D01*
X163308336Y-73475000D01*
X163275002Y-73441667D01*
X163308336Y-73408333D01*
X163308336Y-73475000D01*
X164141669Y-73108333D02*
X163541669Y-74008333D01*
X164875002Y-73108333D02*
X164275002Y-74008333D01*
X165108335Y-73375000D02*
X165108335Y-74075000D01*
X165108335Y-73408333D02*
X165175001Y-73375000D01*
X165308335Y-73375000D01*
X165375001Y-73408333D01*
X165408335Y-73441667D01*
X165441668Y-73508333D01*
X165441668Y-73708333D01*
X165408335Y-73775000D01*
X165375001Y-73808333D01*
X165308335Y-73841667D01*
X165175001Y-73841667D01*
X165108335Y-73808333D01*
X165841668Y-73841667D02*
X165775001Y-73808333D01*
X165741668Y-73741667D01*
X165741668Y-73141667D01*
X166408335Y-73375000D02*
X166408335Y-73841667D01*
X166108335Y-73375000D02*
X166108335Y-73741667D01*
X166141668Y-73808333D01*
X166208335Y-73841667D01*
X166308335Y-73841667D01*
X166375001Y-73808333D01*
X166408335Y-73775000D01*
X167041668Y-73375000D02*
X167041668Y-73941667D01*
X167008334Y-74008333D01*
X166975001Y-74041667D01*
X166908334Y-74075000D01*
X166808334Y-74075000D01*
X166741668Y-74041667D01*
X167041668Y-73808333D02*
X166975001Y-73841667D01*
X166841668Y-73841667D01*
X166775001Y-73808333D01*
X166741668Y-73775000D01*
X166708334Y-73708333D01*
X166708334Y-73508333D01*
X166741668Y-73441667D01*
X166775001Y-73408333D01*
X166841668Y-73375000D01*
X166975001Y-73375000D01*
X167041668Y-73408333D01*
X167675001Y-73375000D02*
X167675001Y-73941667D01*
X167641667Y-74008333D01*
X167608334Y-74041667D01*
X167541667Y-74075000D01*
X167441667Y-74075000D01*
X167375001Y-74041667D01*
X167675001Y-73808333D02*
X167608334Y-73841667D01*
X167475001Y-73841667D01*
X167408334Y-73808333D01*
X167375001Y-73775000D01*
X167341667Y-73708333D01*
X167341667Y-73508333D01*
X167375001Y-73441667D01*
X167408334Y-73408333D01*
X167475001Y-73375000D01*
X167608334Y-73375000D01*
X167675001Y-73408333D01*
X168008334Y-73775000D02*
X168041667Y-73808333D01*
X168008334Y-73841667D01*
X167975000Y-73808333D01*
X168008334Y-73775000D01*
X168008334Y-73841667D01*
X168608333Y-73808333D02*
X168541667Y-73841667D01*
X168408333Y-73841667D01*
X168341667Y-73808333D01*
X168308333Y-73741667D01*
X168308333Y-73475000D01*
X168341667Y-73408333D01*
X168408333Y-73375000D01*
X168541667Y-73375000D01*
X168608333Y-73408333D01*
X168641667Y-73475000D01*
X168641667Y-73541667D01*
X168308333Y-73608333D01*
X169208333Y-73808333D02*
X169141667Y-73841667D01*
X169008333Y-73841667D01*
X168941667Y-73808333D01*
X168908333Y-73741667D01*
X168908333Y-73475000D01*
X168941667Y-73408333D01*
X169008333Y-73375000D01*
X169141667Y-73375000D01*
X169208333Y-73408333D01*
X169241667Y-73475000D01*
X169241667Y-73541667D01*
X168908333Y-73608333D01*
X158400000Y-88500000D02*
X158400000Y-90500000D01*
X156250000Y-90500000D02*
X156250000Y-88500000D01*
X152100000Y-88200000D02*
X152100000Y-89200000D01*
X150750000Y-89200000D02*
X150750000Y-88200000D01*
X153374760Y-88200840D02*
X153374760Y-88249100D01*
X154075800Y-90999820D02*
X153374760Y-90999820D01*
X153374760Y-90999820D02*
X153374760Y-90750900D01*
X153374760Y-88200840D02*
X153374760Y-88000180D01*
X153374760Y-88000180D02*
X154075800Y-88000180D01*
X149595000Y-72970000D02*
X144515000Y-72970000D01*
X149595000Y-70430000D02*
X144515000Y-70430000D01*
X152415000Y-70150000D02*
X150865000Y-70150000D01*
X144515000Y-72970000D02*
X144515000Y-70430000D01*
X149595000Y-70430000D02*
X149595000Y-72970000D01*
X150865000Y-73250000D02*
X152415000Y-73250000D01*
X152415000Y-73250000D02*
X152415000Y-70150000D01*
X155800000Y-78800000D02*
X155800000Y-79800000D01*
X154450000Y-79800000D02*
X154450000Y-78800000D01*
X147350000Y-89000000D02*
X147350000Y-88000000D01*
X148700000Y-88000000D02*
X148700000Y-89000000D01*
X143950000Y-80600000D02*
X143950000Y-79600000D01*
X145300000Y-79600000D02*
X145300000Y-80600000D01*
X158300000Y-78800000D02*
X158300000Y-79800000D01*
X156950000Y-79800000D02*
X156950000Y-78800000D01*
X132850000Y-72600000D02*
X132850000Y-71600000D01*
X134200000Y-71600000D02*
X134200000Y-72600000D01*
X142250000Y-80000000D02*
X142250000Y-79000000D01*
X143600000Y-79000000D02*
X143600000Y-80000000D01*
X144625000Y-76375000D02*
X143625000Y-76375000D01*
X143625000Y-75025000D02*
X144625000Y-75025000D01*
X137950000Y-92200000D02*
X137950000Y-91200000D01*
X139300000Y-91200000D02*
X139300000Y-92200000D01*
X138850000Y-78500000D02*
X138850000Y-77500000D01*
X140200000Y-77500000D02*
X140200000Y-78500000D01*
X145650000Y-79900000D02*
X145650000Y-78900000D01*
X147000000Y-78900000D02*
X147000000Y-79900000D01*
X140550000Y-79400000D02*
X140550000Y-78400000D01*
X141900000Y-78400000D02*
X141900000Y-79400000D01*
X140325000Y-87175000D02*
X139325000Y-87175000D01*
X139325000Y-85825000D02*
X140325000Y-85825000D01*
X140325000Y-88875000D02*
X139325000Y-88875000D01*
X139325000Y-87525000D02*
X140325000Y-87525000D01*
X140325000Y-85475000D02*
X139325000Y-85475000D01*
X139325000Y-84125000D02*
X140325000Y-84125000D01*
X140325000Y-83775000D02*
X139325000Y-83775000D01*
X139325000Y-82425000D02*
X140325000Y-82425000D01*
D13*
X128685555Y-77100000D02*
G75*
G03X128685555Y-77100000I-360555J0D01*
G01*
D11*
X129050000Y-77125000D02*
X129050000Y-77700000D01*
X134600000Y-77125000D02*
X134600000Y-77700000D01*
X134600000Y-83675000D02*
X134600000Y-83100000D01*
X129050000Y-83675000D02*
X129050000Y-83100000D01*
X129050000Y-77125000D02*
X134600000Y-77125000D01*
X129050000Y-83675000D02*
X134600000Y-83675000D01*
X129050000Y-77700000D02*
X127775000Y-77700000D01*
D14*
G36*
X137391667Y-85318369D02*
X137209782Y-85542434D01*
X137027898Y-85766500D01*
X134538348Y-85766500D01*
X134495386Y-85693684D01*
X134449981Y-85636049D01*
X134388125Y-85579575D01*
X134366661Y-85564114D01*
X134311011Y-85531529D01*
X134260383Y-85516244D01*
X134196029Y-85514084D01*
X134153248Y-85516592D01*
X134027768Y-85544460D01*
X133924556Y-85605768D01*
X133848379Y-85696374D01*
X133804002Y-85812136D01*
X133802077Y-85821782D01*
X133797459Y-85941908D01*
X133826859Y-86047264D01*
X133883877Y-86135267D01*
X133962112Y-86203336D01*
X134055164Y-86248889D01*
X134156631Y-86269344D01*
X134260115Y-86262120D01*
X134359214Y-86224635D01*
X134447528Y-86154307D01*
X134490088Y-86099306D01*
X134541259Y-86020500D01*
X135692546Y-86020500D01*
X135950983Y-86020678D01*
X136169845Y-86021257D01*
X136351891Y-86022300D01*
X136499876Y-86023872D01*
X136616558Y-86026037D01*
X136704695Y-86028859D01*
X136767044Y-86032402D01*
X136806362Y-86036732D01*
X136825407Y-86041911D01*
X136827759Y-86046958D01*
X136810515Y-86070273D01*
X136770580Y-86121755D01*
X136711771Y-86196565D01*
X136637905Y-86289862D01*
X136552797Y-86396808D01*
X136485634Y-86480875D01*
X136159582Y-86888333D01*
X134801833Y-86888199D01*
X133444084Y-86888066D01*
X133408280Y-86825141D01*
X133341120Y-86747050D01*
X133248373Y-86692525D01*
X133141893Y-86665373D01*
X133033533Y-86669404D01*
X132976858Y-86686529D01*
X132861699Y-86755549D01*
X132777732Y-86852838D01*
X132743204Y-86923369D01*
X132719561Y-87036833D01*
X132731803Y-87146005D01*
X132774414Y-87245165D01*
X132841877Y-87328593D01*
X132928675Y-87390571D01*
X133029292Y-87425378D01*
X133138213Y-87427295D01*
X133210818Y-87408207D01*
X133268338Y-87377515D01*
X133331628Y-87330798D01*
X133390522Y-87277377D01*
X133434854Y-87226575D01*
X133454457Y-87187713D01*
X133454667Y-87184606D01*
X133475743Y-87179891D01*
X133538617Y-87175754D01*
X133642757Y-87172204D01*
X133787633Y-87169248D01*
X133972711Y-87166894D01*
X134197461Y-87165150D01*
X134461350Y-87164025D01*
X134763849Y-87163526D01*
X134858117Y-87163500D01*
X136261568Y-87163500D01*
X136826617Y-86430902D01*
X137391667Y-85698303D01*
X137391667Y-87751584D01*
X137153542Y-88039161D01*
X136915417Y-88326737D01*
X134071783Y-88327667D01*
X134048486Y-88257075D01*
X133997159Y-88161671D01*
X133919905Y-88092083D01*
X133824745Y-88048842D01*
X133719702Y-88032477D01*
X133612798Y-88043516D01*
X133512058Y-88082490D01*
X133425503Y-88149928D01*
X133378520Y-88212861D01*
X133333503Y-88326536D01*
X133326611Y-88440126D01*
X133354185Y-88546754D01*
X133412564Y-88639544D01*
X133498089Y-88711620D01*
X133607100Y-88756105D01*
X133672990Y-88766133D01*
X133793948Y-88754905D01*
X133900671Y-88704857D01*
X133988395Y-88618430D01*
X134003255Y-88596973D01*
X134054426Y-88518167D01*
X135541930Y-88518167D01*
X135829087Y-88518126D01*
X136076875Y-88517954D01*
X136288255Y-88517574D01*
X136466191Y-88516911D01*
X136613646Y-88515888D01*
X136733583Y-88514428D01*
X136828966Y-88512457D01*
X136902757Y-88509897D01*
X136957919Y-88506673D01*
X136997415Y-88502708D01*
X137024209Y-88497927D01*
X137041264Y-88492253D01*
X137051542Y-88485611D01*
X137057092Y-88479249D01*
X137082614Y-88447883D01*
X137129599Y-88394043D01*
X137190589Y-88326172D01*
X137238209Y-88274199D01*
X137391667Y-88108065D01*
X137391667Y-89872833D01*
X126808334Y-89872833D01*
X126808334Y-88892131D01*
X127093530Y-88518167D01*
X128345841Y-88518167D01*
X129598152Y-88518166D01*
X129641114Y-88590982D01*
X129718905Y-88685234D01*
X129817838Y-88748142D01*
X129929405Y-88777309D01*
X130045099Y-88770337D01*
X130143317Y-88732545D01*
X130242721Y-88657012D01*
X130304753Y-88562082D01*
X130330811Y-88445361D01*
X130331859Y-88409590D01*
X130327673Y-88331440D01*
X130312004Y-88275686D01*
X130278481Y-88222698D01*
X130266115Y-88207028D01*
X130179104Y-88118744D01*
X130086862Y-88067529D01*
X129979515Y-88048375D01*
X129952525Y-88047969D01*
X129831441Y-88065533D01*
X129729552Y-88112947D01*
X129653476Y-88185764D01*
X129610162Y-88278189D01*
X129597744Y-88327667D01*
X128446456Y-88327667D01*
X128230115Y-88327433D01*
X128027025Y-88326763D01*
X127841027Y-88325698D01*
X127675963Y-88324284D01*
X127535677Y-88322563D01*
X127424010Y-88320580D01*
X127344804Y-88318377D01*
X127301903Y-88315999D01*
X127295167Y-88314584D01*
X127307215Y-88294751D01*
X127341201Y-88245419D01*
X127393882Y-88171118D01*
X127462019Y-88076383D01*
X127542371Y-87965746D01*
X127631698Y-87843739D01*
X127635671Y-87838334D01*
X127976174Y-87375167D01*
X130682741Y-87375167D01*
X130706502Y-87427317D01*
X130748175Y-87482436D01*
X130817177Y-87538408D01*
X130899835Y-87585557D01*
X130964443Y-87609834D01*
X131069513Y-87618656D01*
X131171306Y-87591645D01*
X131263306Y-87535175D01*
X131338999Y-87455624D01*
X131391869Y-87359365D01*
X131415403Y-87252777D01*
X131410533Y-87173263D01*
X131370529Y-87062151D01*
X131300389Y-86969453D01*
X131208181Y-86900377D01*
X131101975Y-86860128D01*
X130989837Y-86853913D01*
X130933441Y-86865383D01*
X130860427Y-86897945D01*
X130787343Y-86947554D01*
X130727179Y-87003794D01*
X130692926Y-87056248D01*
X130692003Y-87058970D01*
X130688391Y-87067104D01*
X130681080Y-87074085D01*
X130667042Y-87080002D01*
X130643245Y-87084943D01*
X130606658Y-87088995D01*
X130554252Y-87092247D01*
X130482996Y-87094787D01*
X130389859Y-87096701D01*
X130271811Y-87098080D01*
X130125822Y-87099009D01*
X129948860Y-87099578D01*
X129737896Y-87099874D01*
X129489899Y-87099985D01*
X129278063Y-87100000D01*
X127877146Y-87100000D01*
X127369198Y-87770494D01*
X127256831Y-87918801D01*
X127151797Y-88057395D01*
X127056997Y-88182451D01*
X126975330Y-88290144D01*
X126909698Y-88376650D01*
X126863001Y-88438145D01*
X126838140Y-88470802D01*
X126835465Y-88474286D01*
X126828423Y-88475369D01*
X126822687Y-88456486D01*
X126818138Y-88414403D01*
X126814656Y-88345888D01*
X126812120Y-88247707D01*
X126810411Y-88116628D01*
X126809408Y-87949417D01*
X126809007Y-87761458D01*
X126808334Y-87015333D01*
X127207574Y-87015333D01*
X128110084Y-85958449D01*
X129542034Y-85957725D01*
X130973985Y-85957000D01*
X131016948Y-86029815D01*
X131092220Y-86120296D01*
X131190676Y-86184489D01*
X131300703Y-86215624D01*
X131338943Y-86217474D01*
X131453606Y-86199093D01*
X131553379Y-86145336D01*
X131640408Y-86058375D01*
X131697068Y-85958292D01*
X131717303Y-85850892D01*
X131704437Y-85743428D01*
X131661793Y-85643152D01*
X131592694Y-85557315D01*
X131500465Y-85493171D01*
X131388426Y-85457971D01*
X131363938Y-85455042D01*
X131256130Y-85463577D01*
X131152273Y-85503288D01*
X131066375Y-85567563D01*
X131031084Y-85612226D01*
X130988750Y-85680202D01*
X129504164Y-85681018D01*
X128019578Y-85681833D01*
X127558718Y-86221583D01*
X127097857Y-86761333D01*
X126808334Y-86761333D01*
X126808334Y-84327167D01*
X137391667Y-84327167D01*
X137391667Y-85318369D01*
X137391667Y-85318369D01*
G37*
X137391667Y-85318369D02*
X137209782Y-85542434D01*
X137027898Y-85766500D01*
X134538348Y-85766500D01*
X134495386Y-85693684D01*
X134449981Y-85636049D01*
X134388125Y-85579575D01*
X134366661Y-85564114D01*
X134311011Y-85531529D01*
X134260383Y-85516244D01*
X134196029Y-85514084D01*
X134153248Y-85516592D01*
X134027768Y-85544460D01*
X133924556Y-85605768D01*
X133848379Y-85696374D01*
X133804002Y-85812136D01*
X133802077Y-85821782D01*
X133797459Y-85941908D01*
X133826859Y-86047264D01*
X133883877Y-86135267D01*
X133962112Y-86203336D01*
X134055164Y-86248889D01*
X134156631Y-86269344D01*
X134260115Y-86262120D01*
X134359214Y-86224635D01*
X134447528Y-86154307D01*
X134490088Y-86099306D01*
X134541259Y-86020500D01*
X135692546Y-86020500D01*
X135950983Y-86020678D01*
X136169845Y-86021257D01*
X136351891Y-86022300D01*
X136499876Y-86023872D01*
X136616558Y-86026037D01*
X136704695Y-86028859D01*
X136767044Y-86032402D01*
X136806362Y-86036732D01*
X136825407Y-86041911D01*
X136827759Y-86046958D01*
X136810515Y-86070273D01*
X136770580Y-86121755D01*
X136711771Y-86196565D01*
X136637905Y-86289862D01*
X136552797Y-86396808D01*
X136485634Y-86480875D01*
X136159582Y-86888333D01*
X134801833Y-86888199D01*
X133444084Y-86888066D01*
X133408280Y-86825141D01*
X133341120Y-86747050D01*
X133248373Y-86692525D01*
X133141893Y-86665373D01*
X133033533Y-86669404D01*
X132976858Y-86686529D01*
X132861699Y-86755549D01*
X132777732Y-86852838D01*
X132743204Y-86923369D01*
X132719561Y-87036833D01*
X132731803Y-87146005D01*
X132774414Y-87245165D01*
X132841877Y-87328593D01*
X132928675Y-87390571D01*
X133029292Y-87425378D01*
X133138213Y-87427295D01*
X133210818Y-87408207D01*
X133268338Y-87377515D01*
X133331628Y-87330798D01*
X133390522Y-87277377D01*
X133434854Y-87226575D01*
X133454457Y-87187713D01*
X133454667Y-87184606D01*
X133475743Y-87179891D01*
X133538617Y-87175754D01*
X133642757Y-87172204D01*
X133787633Y-87169248D01*
X133972711Y-87166894D01*
X134197461Y-87165150D01*
X134461350Y-87164025D01*
X134763849Y-87163526D01*
X134858117Y-87163500D01*
X136261568Y-87163500D01*
X136826617Y-86430902D01*
X137391667Y-85698303D01*
X137391667Y-87751584D01*
X137153542Y-88039161D01*
X136915417Y-88326737D01*
X134071783Y-88327667D01*
X134048486Y-88257075D01*
X133997159Y-88161671D01*
X133919905Y-88092083D01*
X133824745Y-88048842D01*
X133719702Y-88032477D01*
X133612798Y-88043516D01*
X133512058Y-88082490D01*
X133425503Y-88149928D01*
X133378520Y-88212861D01*
X133333503Y-88326536D01*
X133326611Y-88440126D01*
X133354185Y-88546754D01*
X133412564Y-88639544D01*
X133498089Y-88711620D01*
X133607100Y-88756105D01*
X133672990Y-88766133D01*
X133793948Y-88754905D01*
X133900671Y-88704857D01*
X133988395Y-88618430D01*
X134003255Y-88596973D01*
X134054426Y-88518167D01*
X135541930Y-88518167D01*
X135829087Y-88518126D01*
X136076875Y-88517954D01*
X136288255Y-88517574D01*
X136466191Y-88516911D01*
X136613646Y-88515888D01*
X136733583Y-88514428D01*
X136828966Y-88512457D01*
X136902757Y-88509897D01*
X136957919Y-88506673D01*
X136997415Y-88502708D01*
X137024209Y-88497927D01*
X137041264Y-88492253D01*
X137051542Y-88485611D01*
X137057092Y-88479249D01*
X137082614Y-88447883D01*
X137129599Y-88394043D01*
X137190589Y-88326172D01*
X137238209Y-88274199D01*
X137391667Y-88108065D01*
X137391667Y-89872833D01*
X126808334Y-89872833D01*
X126808334Y-88892131D01*
X127093530Y-88518167D01*
X128345841Y-88518167D01*
X129598152Y-88518166D01*
X129641114Y-88590982D01*
X129718905Y-88685234D01*
X129817838Y-88748142D01*
X129929405Y-88777309D01*
X130045099Y-88770337D01*
X130143317Y-88732545D01*
X130242721Y-88657012D01*
X130304753Y-88562082D01*
X130330811Y-88445361D01*
X130331859Y-88409590D01*
X130327673Y-88331440D01*
X130312004Y-88275686D01*
X130278481Y-88222698D01*
X130266115Y-88207028D01*
X130179104Y-88118744D01*
X130086862Y-88067529D01*
X129979515Y-88048375D01*
X129952525Y-88047969D01*
X129831441Y-88065533D01*
X129729552Y-88112947D01*
X129653476Y-88185764D01*
X129610162Y-88278189D01*
X129597744Y-88327667D01*
X128446456Y-88327667D01*
X128230115Y-88327433D01*
X128027025Y-88326763D01*
X127841027Y-88325698D01*
X127675963Y-88324284D01*
X127535677Y-88322563D01*
X127424010Y-88320580D01*
X127344804Y-88318377D01*
X127301903Y-88315999D01*
X127295167Y-88314584D01*
X127307215Y-88294751D01*
X127341201Y-88245419D01*
X127393882Y-88171118D01*
X127462019Y-88076383D01*
X127542371Y-87965746D01*
X127631698Y-87843739D01*
X127635671Y-87838334D01*
X127976174Y-87375167D01*
X130682741Y-87375167D01*
X130706502Y-87427317D01*
X130748175Y-87482436D01*
X130817177Y-87538408D01*
X130899835Y-87585557D01*
X130964443Y-87609834D01*
X131069513Y-87618656D01*
X131171306Y-87591645D01*
X131263306Y-87535175D01*
X131338999Y-87455624D01*
X131391869Y-87359365D01*
X131415403Y-87252777D01*
X131410533Y-87173263D01*
X131370529Y-87062151D01*
X131300389Y-86969453D01*
X131208181Y-86900377D01*
X131101975Y-86860128D01*
X130989837Y-86853913D01*
X130933441Y-86865383D01*
X130860427Y-86897945D01*
X130787343Y-86947554D01*
X130727179Y-87003794D01*
X130692926Y-87056248D01*
X130692003Y-87058970D01*
X130688391Y-87067104D01*
X130681080Y-87074085D01*
X130667042Y-87080002D01*
X130643245Y-87084943D01*
X130606658Y-87088995D01*
X130554252Y-87092247D01*
X130482996Y-87094787D01*
X130389859Y-87096701D01*
X130271811Y-87098080D01*
X130125822Y-87099009D01*
X129948860Y-87099578D01*
X129737896Y-87099874D01*
X129489899Y-87099985D01*
X129278063Y-87100000D01*
X127877146Y-87100000D01*
X127369198Y-87770494D01*
X127256831Y-87918801D01*
X127151797Y-88057395D01*
X127056997Y-88182451D01*
X126975330Y-88290144D01*
X126909698Y-88376650D01*
X126863001Y-88438145D01*
X126838140Y-88470802D01*
X126835465Y-88474286D01*
X126828423Y-88475369D01*
X126822687Y-88456486D01*
X126818138Y-88414403D01*
X126814656Y-88345888D01*
X126812120Y-88247707D01*
X126810411Y-88116628D01*
X126809408Y-87949417D01*
X126809007Y-87761458D01*
X126808334Y-87015333D01*
X127207574Y-87015333D01*
X128110084Y-85958449D01*
X129542034Y-85957725D01*
X130973985Y-85957000D01*
X131016948Y-86029815D01*
X131092220Y-86120296D01*
X131190676Y-86184489D01*
X131300703Y-86215624D01*
X131338943Y-86217474D01*
X131453606Y-86199093D01*
X131553379Y-86145336D01*
X131640408Y-86058375D01*
X131697068Y-85958292D01*
X131717303Y-85850892D01*
X131704437Y-85743428D01*
X131661793Y-85643152D01*
X131592694Y-85557315D01*
X131500465Y-85493171D01*
X131388426Y-85457971D01*
X131363938Y-85455042D01*
X131256130Y-85463577D01*
X131152273Y-85503288D01*
X131066375Y-85567563D01*
X131031084Y-85612226D01*
X130988750Y-85680202D01*
X129504164Y-85681018D01*
X128019578Y-85681833D01*
X127558718Y-86221583D01*
X127097857Y-86761333D01*
X126808334Y-86761333D01*
X126808334Y-84327167D01*
X137391667Y-84327167D01*
X137391667Y-85318369D01*
D11*
X157641667Y-93350000D02*
X157308333Y-93583334D01*
X157641667Y-93750000D02*
X156941667Y-93750000D01*
X156941667Y-93483334D01*
X156975000Y-93416667D01*
X157008333Y-93383334D01*
X157075000Y-93350000D01*
X157175000Y-93350000D01*
X157241667Y-93383334D01*
X157275000Y-93416667D01*
X157308333Y-93483334D01*
X157308333Y-93750000D01*
X157641667Y-92683334D02*
X157641667Y-93083334D01*
X157641667Y-92883334D02*
X156941667Y-92883334D01*
X157041667Y-92950000D01*
X157108333Y-93016667D01*
X157141667Y-93083334D01*
X156941667Y-92050000D02*
X156941667Y-92383333D01*
X157275000Y-92416667D01*
X157241667Y-92383333D01*
X157208333Y-92316667D01*
X157208333Y-92150000D01*
X157241667Y-92083333D01*
X157275000Y-92050000D01*
X157341667Y-92016667D01*
X157508333Y-92016667D01*
X157575000Y-92050000D01*
X157608333Y-92083333D01*
X157641667Y-92150000D01*
X157641667Y-92316667D01*
X157608333Y-92383333D01*
X157575000Y-92416667D01*
X151741667Y-91550000D02*
X151408333Y-91783334D01*
X151741667Y-91950000D02*
X151041667Y-91950000D01*
X151041667Y-91683334D01*
X151075000Y-91616667D01*
X151108333Y-91583334D01*
X151175000Y-91550000D01*
X151275000Y-91550000D01*
X151341667Y-91583334D01*
X151375000Y-91616667D01*
X151408333Y-91683334D01*
X151408333Y-91950000D01*
X151741667Y-90883334D02*
X151741667Y-91283334D01*
X151741667Y-91083334D02*
X151041667Y-91083334D01*
X151141667Y-91150000D01*
X151208333Y-91216667D01*
X151241667Y-91283334D01*
X151341667Y-90483333D02*
X151308333Y-90550000D01*
X151275000Y-90583333D01*
X151208333Y-90616667D01*
X151175000Y-90616667D01*
X151108333Y-90583333D01*
X151075000Y-90550000D01*
X151041667Y-90483333D01*
X151041667Y-90350000D01*
X151075000Y-90283333D01*
X151108333Y-90250000D01*
X151175000Y-90216667D01*
X151208333Y-90216667D01*
X151275000Y-90250000D01*
X151308333Y-90283333D01*
X151341667Y-90350000D01*
X151341667Y-90483333D01*
X151375000Y-90550000D01*
X151408333Y-90583333D01*
X151475000Y-90616667D01*
X151608333Y-90616667D01*
X151675000Y-90583333D01*
X151708333Y-90550000D01*
X151741667Y-90483333D01*
X151741667Y-90350000D01*
X151708333Y-90283333D01*
X151675000Y-90250000D01*
X151608333Y-90216667D01*
X151475000Y-90216667D01*
X151408333Y-90250000D01*
X151375000Y-90283333D01*
X151341667Y-90350000D01*
X153263095Y-91452381D02*
X153263095Y-92261905D01*
X153310714Y-92357143D01*
X153358333Y-92404762D01*
X153453571Y-92452381D01*
X153644048Y-92452381D01*
X153739286Y-92404762D01*
X153786905Y-92357143D01*
X153834524Y-92261905D01*
X153834524Y-91452381D01*
X154739286Y-91785714D02*
X154739286Y-92452381D01*
X154501190Y-91404762D02*
X154263095Y-92119048D01*
X154882143Y-92119048D01*
X142991667Y-71852381D02*
X142991667Y-72566667D01*
X142944047Y-72709524D01*
X142848809Y-72804762D01*
X142705952Y-72852381D01*
X142610714Y-72852381D01*
X143372619Y-71852381D02*
X143991667Y-71852381D01*
X143658333Y-72233333D01*
X143801191Y-72233333D01*
X143896429Y-72280952D01*
X143944048Y-72328571D01*
X143991667Y-72423810D01*
X143991667Y-72661905D01*
X143944048Y-72757143D01*
X143896429Y-72804762D01*
X143801191Y-72852381D01*
X143515476Y-72852381D01*
X143420238Y-72804762D01*
X143372619Y-72757143D01*
X155350000Y-82150000D02*
X155383333Y-82183334D01*
X155416667Y-82283334D01*
X155416667Y-82350000D01*
X155383333Y-82450000D01*
X155316667Y-82516667D01*
X155250000Y-82550000D01*
X155116667Y-82583334D01*
X155016667Y-82583334D01*
X154883333Y-82550000D01*
X154816667Y-82516667D01*
X154750000Y-82450000D01*
X154716667Y-82350000D01*
X154716667Y-82283334D01*
X154750000Y-82183334D01*
X154783333Y-82150000D01*
X155416667Y-81483334D02*
X155416667Y-81883334D01*
X155416667Y-81683334D02*
X154716667Y-81683334D01*
X154816667Y-81750000D01*
X154883333Y-81816667D01*
X154916667Y-81883334D01*
X154783333Y-81216667D02*
X154750000Y-81183333D01*
X154716667Y-81116667D01*
X154716667Y-80950000D01*
X154750000Y-80883333D01*
X154783333Y-80850000D01*
X154850000Y-80816667D01*
X154916667Y-80816667D01*
X155016667Y-80850000D01*
X155416667Y-81250000D01*
X155416667Y-80816667D01*
X148250000Y-91350000D02*
X148283333Y-91383334D01*
X148316667Y-91483334D01*
X148316667Y-91550000D01*
X148283333Y-91650000D01*
X148216667Y-91716667D01*
X148150000Y-91750000D01*
X148016667Y-91783334D01*
X147916667Y-91783334D01*
X147783333Y-91750000D01*
X147716667Y-91716667D01*
X147650000Y-91650000D01*
X147616667Y-91550000D01*
X147616667Y-91483334D01*
X147650000Y-91383334D01*
X147683333Y-91350000D01*
X148316667Y-90683334D02*
X148316667Y-91083334D01*
X148316667Y-90883334D02*
X147616667Y-90883334D01*
X147716667Y-90950000D01*
X147783333Y-91016667D01*
X147816667Y-91083334D01*
X147850000Y-90083333D02*
X148316667Y-90083333D01*
X147583333Y-90250000D02*
X148083333Y-90416667D01*
X148083333Y-89983333D01*
X144941667Y-78116666D02*
X144608333Y-78350000D01*
X144941667Y-78516666D02*
X144241667Y-78516666D01*
X144241667Y-78250000D01*
X144275000Y-78183333D01*
X144308333Y-78150000D01*
X144375000Y-78116666D01*
X144475000Y-78116666D01*
X144541667Y-78150000D01*
X144575000Y-78183333D01*
X144608333Y-78250000D01*
X144608333Y-78516666D01*
X144941667Y-77450000D02*
X144941667Y-77850000D01*
X144941667Y-77650000D02*
X144241667Y-77650000D01*
X144341667Y-77716666D01*
X144408333Y-77783333D01*
X144441667Y-77850000D01*
X157916667Y-81516666D02*
X157583333Y-81750000D01*
X157916667Y-81916666D02*
X157216667Y-81916666D01*
X157216667Y-81650000D01*
X157250000Y-81583333D01*
X157283333Y-81550000D01*
X157350000Y-81516666D01*
X157450000Y-81516666D01*
X157516667Y-81550000D01*
X157550000Y-81583333D01*
X157583333Y-81650000D01*
X157583333Y-81916666D01*
X157216667Y-81283333D02*
X157216667Y-80850000D01*
X157483333Y-81083333D01*
X157483333Y-80983333D01*
X157516667Y-80916666D01*
X157550000Y-80883333D01*
X157616667Y-80850000D01*
X157783333Y-80850000D01*
X157850000Y-80883333D01*
X157883333Y-80916666D01*
X157916667Y-80983333D01*
X157916667Y-81183333D01*
X157883333Y-81250000D01*
X157850000Y-81283333D01*
X133816667Y-74316666D02*
X133483333Y-74550000D01*
X133816667Y-74716666D02*
X133116667Y-74716666D01*
X133116667Y-74450000D01*
X133150000Y-74383333D01*
X133183333Y-74350000D01*
X133250000Y-74316666D01*
X133350000Y-74316666D01*
X133416667Y-74350000D01*
X133450000Y-74383333D01*
X133483333Y-74450000D01*
X133483333Y-74716666D01*
X133350000Y-73716666D02*
X133816667Y-73716666D01*
X133083333Y-73883333D02*
X133583333Y-74050000D01*
X133583333Y-73616666D01*
X143241667Y-77516666D02*
X142908333Y-77750000D01*
X143241667Y-77916666D02*
X142541667Y-77916666D01*
X142541667Y-77650000D01*
X142575000Y-77583333D01*
X142608333Y-77550000D01*
X142675000Y-77516666D01*
X142775000Y-77516666D01*
X142841667Y-77550000D01*
X142875000Y-77583333D01*
X142908333Y-77650000D01*
X142908333Y-77916666D01*
X142541667Y-76916666D02*
X142541667Y-77050000D01*
X142575000Y-77116666D01*
X142608333Y-77150000D01*
X142708333Y-77216666D01*
X142841667Y-77250000D01*
X143108333Y-77250000D01*
X143175000Y-77216666D01*
X143208333Y-77183333D01*
X143241667Y-77116666D01*
X143241667Y-76983333D01*
X143208333Y-76916666D01*
X143175000Y-76883333D01*
X143108333Y-76850000D01*
X142941667Y-76850000D01*
X142875000Y-76883333D01*
X142841667Y-76916666D01*
X142808333Y-76983333D01*
X142808333Y-77116666D01*
X142841667Y-77183333D01*
X142875000Y-77216666D01*
X142941667Y-77250000D01*
X144008334Y-74746667D02*
X143775000Y-74413333D01*
X143608334Y-74746667D02*
X143608334Y-74046667D01*
X143875000Y-74046667D01*
X143941667Y-74080000D01*
X143975000Y-74113333D01*
X144008334Y-74180000D01*
X144008334Y-74280000D01*
X143975000Y-74346667D01*
X143941667Y-74380000D01*
X143875000Y-74413333D01*
X143608334Y-74413333D01*
X144241667Y-74046667D02*
X144708334Y-74046667D01*
X144408334Y-74746667D01*
X140211667Y-91816666D02*
X139878333Y-92050000D01*
X140211667Y-92216666D02*
X139511667Y-92216666D01*
X139511667Y-91950000D01*
X139545000Y-91883333D01*
X139578333Y-91850000D01*
X139645000Y-91816666D01*
X139745000Y-91816666D01*
X139811667Y-91850000D01*
X139845000Y-91883333D01*
X139878333Y-91950000D01*
X139878333Y-92216666D01*
X139811667Y-91416666D02*
X139778333Y-91483333D01*
X139745000Y-91516666D01*
X139678333Y-91550000D01*
X139645000Y-91550000D01*
X139578333Y-91516666D01*
X139545000Y-91483333D01*
X139511667Y-91416666D01*
X139511667Y-91283333D01*
X139545000Y-91216666D01*
X139578333Y-91183333D01*
X139645000Y-91150000D01*
X139678333Y-91150000D01*
X139745000Y-91183333D01*
X139778333Y-91216666D01*
X139811667Y-91283333D01*
X139811667Y-91416666D01*
X139845000Y-91483333D01*
X139878333Y-91516666D01*
X139945000Y-91550000D01*
X140078333Y-91550000D01*
X140145000Y-91516666D01*
X140178333Y-91483333D01*
X140211667Y-91416666D01*
X140211667Y-91283333D01*
X140178333Y-91216666D01*
X140145000Y-91183333D01*
X140078333Y-91150000D01*
X139945000Y-91150000D01*
X139878333Y-91183333D01*
X139845000Y-91216666D01*
X139811667Y-91283333D01*
X139841667Y-76050000D02*
X139508333Y-76283334D01*
X139841667Y-76450000D02*
X139141667Y-76450000D01*
X139141667Y-76183334D01*
X139175000Y-76116667D01*
X139208333Y-76083334D01*
X139275000Y-76050000D01*
X139375000Y-76050000D01*
X139441667Y-76083334D01*
X139475000Y-76116667D01*
X139508333Y-76183334D01*
X139508333Y-76450000D01*
X139841667Y-75383334D02*
X139841667Y-75783334D01*
X139841667Y-75583334D02*
X139141667Y-75583334D01*
X139241667Y-75650000D01*
X139308333Y-75716667D01*
X139341667Y-75783334D01*
X139141667Y-74950000D02*
X139141667Y-74883333D01*
X139175000Y-74816667D01*
X139208333Y-74783333D01*
X139275000Y-74750000D01*
X139408333Y-74716667D01*
X139575000Y-74716667D01*
X139708333Y-74750000D01*
X139775000Y-74783333D01*
X139808333Y-74816667D01*
X139841667Y-74883333D01*
X139841667Y-74950000D01*
X139808333Y-75016667D01*
X139775000Y-75050000D01*
X139708333Y-75083333D01*
X139575000Y-75116667D01*
X139408333Y-75116667D01*
X139275000Y-75083333D01*
X139208333Y-75050000D01*
X139175000Y-75016667D01*
X139141667Y-74950000D01*
X147911667Y-79850000D02*
X147578333Y-80083334D01*
X147911667Y-80250000D02*
X147211667Y-80250000D01*
X147211667Y-79983334D01*
X147245000Y-79916667D01*
X147278333Y-79883334D01*
X147345000Y-79850000D01*
X147445000Y-79850000D01*
X147511667Y-79883334D01*
X147545000Y-79916667D01*
X147578333Y-79983334D01*
X147578333Y-80250000D01*
X147911667Y-79183334D02*
X147911667Y-79583334D01*
X147911667Y-79383334D02*
X147211667Y-79383334D01*
X147311667Y-79450000D01*
X147378333Y-79516667D01*
X147411667Y-79583334D01*
X147911667Y-78516667D02*
X147911667Y-78916667D01*
X147911667Y-78716667D02*
X147211667Y-78716667D01*
X147311667Y-78783333D01*
X147378333Y-78850000D01*
X147411667Y-78916667D01*
X141541667Y-76850000D02*
X141208333Y-77083334D01*
X141541667Y-77250000D02*
X140841667Y-77250000D01*
X140841667Y-76983334D01*
X140875000Y-76916667D01*
X140908333Y-76883334D01*
X140975000Y-76850000D01*
X141075000Y-76850000D01*
X141141667Y-76883334D01*
X141175000Y-76916667D01*
X141208333Y-76983334D01*
X141208333Y-77250000D01*
X141541667Y-76183334D02*
X141541667Y-76583334D01*
X141541667Y-76383334D02*
X140841667Y-76383334D01*
X140941667Y-76450000D01*
X141008333Y-76516667D01*
X141041667Y-76583334D01*
X140908333Y-75916667D02*
X140875000Y-75883333D01*
X140841667Y-75816667D01*
X140841667Y-75650000D01*
X140875000Y-75583333D01*
X140908333Y-75550000D01*
X140975000Y-75516667D01*
X141041667Y-75516667D01*
X141141667Y-75550000D01*
X141541667Y-75950000D01*
X141541667Y-75516667D01*
X141750000Y-86916667D02*
X141516666Y-86583333D01*
X141350000Y-86916667D02*
X141350000Y-86216667D01*
X141616666Y-86216667D01*
X141683333Y-86250000D01*
X141716666Y-86283333D01*
X141750000Y-86350000D01*
X141750000Y-86450000D01*
X141716666Y-86516667D01*
X141683333Y-86550000D01*
X141616666Y-86583333D01*
X141350000Y-86583333D01*
X142416666Y-86916667D02*
X142016666Y-86916667D01*
X142216666Y-86916667D02*
X142216666Y-86216667D01*
X142150000Y-86316667D01*
X142083333Y-86383333D01*
X142016666Y-86416667D01*
X142650000Y-86216667D02*
X143083333Y-86216667D01*
X142850000Y-86483333D01*
X142950000Y-86483333D01*
X143016667Y-86516667D01*
X143050000Y-86550000D01*
X143083333Y-86616667D01*
X143083333Y-86783333D01*
X143050000Y-86850000D01*
X143016667Y-86883333D01*
X142950000Y-86916667D01*
X142750000Y-86916667D01*
X142683333Y-86883333D01*
X142650000Y-86850000D01*
X141750000Y-88516667D02*
X141516666Y-88183333D01*
X141350000Y-88516667D02*
X141350000Y-87816667D01*
X141616666Y-87816667D01*
X141683333Y-87850000D01*
X141716666Y-87883333D01*
X141750000Y-87950000D01*
X141750000Y-88050000D01*
X141716666Y-88116667D01*
X141683333Y-88150000D01*
X141616666Y-88183333D01*
X141350000Y-88183333D01*
X142416666Y-88516667D02*
X142016666Y-88516667D01*
X142216666Y-88516667D02*
X142216666Y-87816667D01*
X142150000Y-87916667D01*
X142083333Y-87983333D01*
X142016666Y-88016667D01*
X143016667Y-88050000D02*
X143016667Y-88516667D01*
X142850000Y-87783333D02*
X142683333Y-88283333D01*
X143116667Y-88283333D01*
X141750000Y-85116667D02*
X141516666Y-84783333D01*
X141350000Y-85116667D02*
X141350000Y-84416667D01*
X141616666Y-84416667D01*
X141683333Y-84450000D01*
X141716666Y-84483333D01*
X141750000Y-84550000D01*
X141750000Y-84650000D01*
X141716666Y-84716667D01*
X141683333Y-84750000D01*
X141616666Y-84783333D01*
X141350000Y-84783333D01*
X142416666Y-85116667D02*
X142016666Y-85116667D01*
X142216666Y-85116667D02*
X142216666Y-84416667D01*
X142150000Y-84516667D01*
X142083333Y-84583333D01*
X142016666Y-84616667D01*
X143016667Y-84416667D02*
X142883333Y-84416667D01*
X142816667Y-84450000D01*
X142783333Y-84483333D01*
X142716667Y-84583333D01*
X142683333Y-84716667D01*
X142683333Y-84983333D01*
X142716667Y-85050000D01*
X142750000Y-85083333D01*
X142816667Y-85116667D01*
X142950000Y-85116667D01*
X143016667Y-85083333D01*
X143050000Y-85050000D01*
X143083333Y-84983333D01*
X143083333Y-84816667D01*
X143050000Y-84750000D01*
X143016667Y-84716667D01*
X142950000Y-84683333D01*
X142816667Y-84683333D01*
X142750000Y-84716667D01*
X142716667Y-84750000D01*
X142683333Y-84816667D01*
X137050000Y-83416667D02*
X136816666Y-83083333D01*
X136650000Y-83416667D02*
X136650000Y-82716667D01*
X136916666Y-82716667D01*
X136983333Y-82750000D01*
X137016666Y-82783333D01*
X137050000Y-82850000D01*
X137050000Y-82950000D01*
X137016666Y-83016667D01*
X136983333Y-83050000D01*
X136916666Y-83083333D01*
X136650000Y-83083333D01*
X137716666Y-83416667D02*
X137316666Y-83416667D01*
X137516666Y-83416667D02*
X137516666Y-82716667D01*
X137450000Y-82816667D01*
X137383333Y-82883333D01*
X137316666Y-82916667D01*
X137950000Y-82716667D02*
X138416667Y-82716667D01*
X138116667Y-83416667D01*
X125738095Y-77152381D02*
X125738095Y-77961905D01*
X125785714Y-78057143D01*
X125833333Y-78104762D01*
X125928571Y-78152381D01*
X126119048Y-78152381D01*
X126214286Y-78104762D01*
X126261905Y-78057143D01*
X126309524Y-77961905D01*
X126309524Y-77152381D01*
X126738095Y-77247619D02*
X126785714Y-77200000D01*
X126880952Y-77152381D01*
X127119048Y-77152381D01*
X127214286Y-77200000D01*
X127261905Y-77247619D01*
X127309524Y-77342857D01*
X127309524Y-77438095D01*
X127261905Y-77580952D01*
X126690476Y-78152381D01*
X127309524Y-78152381D01*
M02*
