G04 #@! TF.FileFunction,Legend,Bot*
%FSLAX46Y46*%
G04 Gerber Fmt 4.6, Leading zero omitted, Abs format (unit mm)*
G04 Created by KiCad (PCBNEW 4.0.6-e0-6349~53~ubuntu14.04.1) date Fri Apr 14 13:42:04 2017*
%MOMM*%
%LPD*%
G01*
G04 APERTURE LIST*
%ADD10C,0.100000*%
%ADD11C,0.300000*%
%ADD12C,0.152400*%
%ADD13C,0.150000*%
%ADD14C,0.120000*%
%ADD15C,0.130000*%
G04 APERTURE END LIST*
D10*
D11*
X141007143Y-70485715D02*
X141078571Y-70700001D01*
X141078571Y-71057144D01*
X141007143Y-71200001D01*
X140935714Y-71271430D01*
X140792857Y-71342858D01*
X140650000Y-71342858D01*
X140507143Y-71271430D01*
X140435714Y-71200001D01*
X140364286Y-71057144D01*
X140292857Y-70771430D01*
X140221429Y-70628572D01*
X140150000Y-70557144D01*
X140007143Y-70485715D01*
X139864286Y-70485715D01*
X139721429Y-70557144D01*
X139650000Y-70628572D01*
X139578571Y-70771430D01*
X139578571Y-71128572D01*
X139650000Y-71342858D01*
X141078571Y-72200001D02*
X141007143Y-72057143D01*
X140864286Y-71985715D01*
X139578571Y-71985715D01*
X141078571Y-73414286D02*
X140292857Y-73414286D01*
X140150000Y-73342857D01*
X140078571Y-73200000D01*
X140078571Y-72914286D01*
X140150000Y-72771429D01*
X141007143Y-73414286D02*
X141078571Y-73271429D01*
X141078571Y-72914286D01*
X141007143Y-72771429D01*
X140864286Y-72700000D01*
X140721429Y-72700000D01*
X140578571Y-72771429D01*
X140507143Y-72914286D01*
X140507143Y-73271429D01*
X140435714Y-73414286D01*
X140078571Y-73985715D02*
X141078571Y-74342858D01*
X140078571Y-74700000D01*
X141007143Y-75842857D02*
X141078571Y-75700000D01*
X141078571Y-75414286D01*
X141007143Y-75271429D01*
X140864286Y-75200000D01*
X140292857Y-75200000D01*
X140150000Y-75271429D01*
X140078571Y-75414286D01*
X140078571Y-75700000D01*
X140150000Y-75842857D01*
X140292857Y-75914286D01*
X140435714Y-75914286D01*
X140578571Y-75200000D01*
X132978571Y-70578572D02*
X131478571Y-70578572D01*
X132550000Y-71078572D01*
X131478571Y-71578572D01*
X132978571Y-71578572D01*
X132978571Y-72935715D02*
X132192857Y-72935715D01*
X132050000Y-72864286D01*
X131978571Y-72721429D01*
X131978571Y-72435715D01*
X132050000Y-72292858D01*
X132907143Y-72935715D02*
X132978571Y-72792858D01*
X132978571Y-72435715D01*
X132907143Y-72292858D01*
X132764286Y-72221429D01*
X132621429Y-72221429D01*
X132478571Y-72292858D01*
X132407143Y-72435715D01*
X132407143Y-72792858D01*
X132335714Y-72935715D01*
X132907143Y-73578572D02*
X132978571Y-73721429D01*
X132978571Y-74007144D01*
X132907143Y-74150001D01*
X132764286Y-74221429D01*
X132692857Y-74221429D01*
X132550000Y-74150001D01*
X132478571Y-74007144D01*
X132478571Y-73792858D01*
X132407143Y-73650001D01*
X132264286Y-73578572D01*
X132192857Y-73578572D01*
X132050000Y-73650001D01*
X131978571Y-73792858D01*
X131978571Y-74007144D01*
X132050000Y-74150001D01*
X131978571Y-74650001D02*
X131978571Y-75221430D01*
X131478571Y-74864287D02*
X132764286Y-74864287D01*
X132907143Y-74935715D01*
X132978571Y-75078573D01*
X132978571Y-75221430D01*
X132907143Y-76292858D02*
X132978571Y-76150001D01*
X132978571Y-75864287D01*
X132907143Y-75721430D01*
X132764286Y-75650001D01*
X132192857Y-75650001D01*
X132050000Y-75721430D01*
X131978571Y-75864287D01*
X131978571Y-76150001D01*
X132050000Y-76292858D01*
X132192857Y-76364287D01*
X132335714Y-76364287D01*
X132478571Y-75650001D01*
X132978571Y-77007144D02*
X131978571Y-77007144D01*
X132264286Y-77007144D02*
X132121429Y-77078572D01*
X132050000Y-77150001D01*
X131978571Y-77292858D01*
X131978571Y-77435715D01*
D12*
X155800000Y-77800000D02*
X156300000Y-77500000D01*
X156300000Y-77500000D02*
X156300000Y-78100000D01*
X156300000Y-78100000D02*
X155800000Y-77800000D01*
D13*
X154325000Y-77025000D02*
X154325000Y-77350000D01*
X149675000Y-77025000D02*
X149675000Y-77350000D01*
X149675000Y-86975000D02*
X149675000Y-86650000D01*
X154325000Y-86975000D02*
X154325000Y-86650000D01*
X154325000Y-77025000D02*
X149675000Y-77025000D01*
X154325000Y-86975000D02*
X149675000Y-86975000D01*
X154325000Y-77350000D02*
X155400000Y-77350000D01*
X148900180Y-97500640D02*
X148900180Y-94300240D01*
X148900180Y-94300240D02*
X147099320Y-94300240D01*
X147099320Y-94300240D02*
X147099320Y-97500640D01*
X160200640Y-97500640D02*
X148900180Y-97500640D01*
X148900180Y-97500640D02*
X148900180Y-103299460D01*
X148900180Y-103299460D02*
X160200640Y-103299460D01*
X160200640Y-103299460D02*
X160200640Y-97500640D01*
X139799360Y-97500640D02*
X147099320Y-97500640D01*
X147099320Y-103299460D02*
X139799360Y-103299460D01*
X147099320Y-97500640D02*
X147099320Y-103299460D01*
X139799360Y-97500640D02*
X139799360Y-103299460D01*
D12*
X142348607Y-84450000D02*
G75*
G03X142348607Y-84450000I-223607J0D01*
G01*
D13*
X145575000Y-84300000D02*
X145575000Y-83950000D01*
X142275000Y-81000000D02*
X142275000Y-81350000D01*
X145575000Y-81000000D02*
X145575000Y-81350000D01*
X142275000Y-81000000D02*
X142625000Y-81000000D01*
X145575000Y-81000000D02*
X145225000Y-81000000D01*
X145575000Y-84300000D02*
X145225000Y-84300000D01*
X128115000Y-89516000D02*
X128115000Y-87484000D01*
X128242000Y-87103000D02*
X128242000Y-89897000D01*
X128369000Y-90151000D02*
X128369000Y-86849000D01*
X128496000Y-86595000D02*
X128496000Y-90405000D01*
X128623000Y-86468000D02*
X128623000Y-90532000D01*
X128750000Y-90786000D02*
X128750000Y-86214000D01*
X127734000Y-92691000D02*
X127734000Y-84309000D01*
X127734000Y-84309000D02*
X135354000Y-84309000D01*
X135354000Y-84309000D02*
X136116000Y-85071000D01*
X136116000Y-85071000D02*
X136116000Y-91929000D01*
X136116000Y-91929000D02*
X135354000Y-92691000D01*
X135354000Y-92691000D02*
X127734000Y-92691000D01*
X135608000Y-88500000D02*
X134846000Y-88500000D01*
X135227000Y-88881000D02*
X135227000Y-88119000D01*
X135862000Y-88500000D02*
G75*
G03X135862000Y-88500000I-3937000J0D01*
G01*
D12*
X139040000Y-70300000D02*
X139040000Y-73700000D01*
X134960000Y-70300000D02*
X134960000Y-73700000D01*
X139040000Y-73700000D02*
X134960000Y-73700000D01*
X139040000Y-70300000D02*
X134960000Y-70300000D01*
X131040000Y-70300000D02*
X131040000Y-73700000D01*
X126960000Y-70300000D02*
X126960000Y-73700000D01*
X131040000Y-73700000D02*
X126960000Y-73700000D01*
X131040000Y-70300000D02*
X126960000Y-70300000D01*
D13*
X134625840Y-78849760D02*
X134674100Y-78849760D01*
X137424820Y-79550800D02*
X137424820Y-78849760D01*
X137424820Y-78849760D02*
X137175900Y-78849760D01*
X134625840Y-78849760D02*
X134425180Y-78849760D01*
X134425180Y-78849760D02*
X134425180Y-79550800D01*
X156950000Y-78175000D02*
X156950000Y-79175000D01*
X158300000Y-79175000D02*
X158300000Y-78175000D01*
X158300000Y-85600000D02*
X158300000Y-84600000D01*
X156950000Y-84600000D02*
X156950000Y-85600000D01*
X156950000Y-87600000D02*
X156950000Y-88600000D01*
X158300000Y-88600000D02*
X158300000Y-87600000D01*
X155125000Y-76875000D02*
X156125000Y-76875000D01*
X156125000Y-75525000D02*
X155125000Y-75525000D01*
X154925000Y-88975000D02*
X155925000Y-88975000D01*
X155925000Y-87625000D02*
X154925000Y-87625000D01*
D14*
X162820000Y-88600000D02*
X162820000Y-83400000D01*
X159180000Y-83400000D02*
X159180000Y-88600000D01*
X159180000Y-75400000D02*
X159180000Y-80600000D01*
X162820000Y-80600000D02*
X162820000Y-75400000D01*
D13*
X137950000Y-91200000D02*
X137950000Y-92200000D01*
X139300000Y-92200000D02*
X139300000Y-91200000D01*
X138925000Y-82975000D02*
X139925000Y-82975000D01*
X139925000Y-81625000D02*
X138925000Y-81625000D01*
D12*
X168800000Y-76600000D02*
X178800000Y-76600000D01*
X178800000Y-76600000D02*
X178800000Y-87400000D01*
X178800000Y-87400000D02*
X168800000Y-87400000D01*
D13*
X165730000Y-79460000D02*
X165730000Y-87080000D01*
X168270000Y-79460000D02*
X168270000Y-87080000D01*
X168550000Y-76640000D02*
X168550000Y-78190000D01*
X165730000Y-87080000D02*
X168270000Y-87080000D01*
X168270000Y-79460000D02*
X165730000Y-79460000D01*
X165450000Y-78190000D02*
X165450000Y-76640000D01*
X165450000Y-76640000D02*
X168550000Y-76640000D01*
X149246429Y-76052381D02*
X149246429Y-76861905D01*
X149210714Y-76957143D01*
X149175000Y-77004762D01*
X149103571Y-77052381D01*
X148960714Y-77052381D01*
X148889286Y-77004762D01*
X148853571Y-76957143D01*
X148817857Y-76861905D01*
X148817857Y-76052381D01*
X148067857Y-77052381D02*
X148496429Y-77052381D01*
X148282143Y-77052381D02*
X148282143Y-76052381D01*
X148353572Y-76195238D01*
X148425000Y-76290476D01*
X148496429Y-76338095D01*
X159083333Y-95952381D02*
X159083333Y-96666667D01*
X159130953Y-96809524D01*
X159226191Y-96904762D01*
X159369048Y-96952381D01*
X159464286Y-96952381D01*
X158083333Y-96952381D02*
X158654762Y-96952381D01*
X158369048Y-96952381D02*
X158369048Y-95952381D01*
X158464286Y-96095238D01*
X158559524Y-96190476D01*
X158654762Y-96238095D01*
X144458333Y-84866667D02*
X144458333Y-85433333D01*
X144425000Y-85500000D01*
X144391667Y-85533333D01*
X144325000Y-85566667D01*
X144191667Y-85566667D01*
X144125000Y-85533333D01*
X144091667Y-85500000D01*
X144058333Y-85433333D01*
X144058333Y-84866667D01*
X143791667Y-84866667D02*
X143358334Y-84866667D01*
X143591667Y-85133333D01*
X143491667Y-85133333D01*
X143425000Y-85166667D01*
X143391667Y-85200000D01*
X143358334Y-85266667D01*
X143358334Y-85433333D01*
X143391667Y-85500000D01*
X143425000Y-85533333D01*
X143491667Y-85566667D01*
X143691667Y-85566667D01*
X143758334Y-85533333D01*
X143791667Y-85500000D01*
X126791666Y-91657143D02*
X126839285Y-91704762D01*
X126982142Y-91752381D01*
X127077380Y-91752381D01*
X127220238Y-91704762D01*
X127315476Y-91609524D01*
X127363095Y-91514286D01*
X127410714Y-91323810D01*
X127410714Y-91180952D01*
X127363095Y-90990476D01*
X127315476Y-90895238D01*
X127220238Y-90800000D01*
X127077380Y-90752381D01*
X126982142Y-90752381D01*
X126839285Y-90800000D01*
X126791666Y-90847619D01*
X126458333Y-90752381D02*
X125839285Y-90752381D01*
X126172619Y-91133333D01*
X126029761Y-91133333D01*
X125934523Y-91180952D01*
X125886904Y-91228571D01*
X125839285Y-91323810D01*
X125839285Y-91561905D01*
X125886904Y-91657143D01*
X125934523Y-91704762D01*
X126029761Y-91752381D01*
X126315476Y-91752381D01*
X126410714Y-91704762D01*
X126458333Y-91657143D01*
X136020238Y-77797619D02*
X136115476Y-77750000D01*
X136210714Y-77654762D01*
X136353571Y-77511905D01*
X136448810Y-77464286D01*
X136544048Y-77464286D01*
X136496429Y-77702381D02*
X136591667Y-77654762D01*
X136686905Y-77559524D01*
X136734524Y-77369048D01*
X136734524Y-77035714D01*
X136686905Y-76845238D01*
X136591667Y-76750000D01*
X136496429Y-76702381D01*
X136305952Y-76702381D01*
X136210714Y-76750000D01*
X136115476Y-76845238D01*
X136067857Y-77035714D01*
X136067857Y-77369048D01*
X136115476Y-77559524D01*
X136210714Y-77654762D01*
X136305952Y-77702381D01*
X136496429Y-77702381D01*
X135115476Y-77702381D02*
X135686905Y-77702381D01*
X135401191Y-77702381D02*
X135401191Y-76702381D01*
X135496429Y-76845238D01*
X135591667Y-76940476D01*
X135686905Y-76988095D01*
X157950000Y-76483334D02*
X157983333Y-76450000D01*
X158016667Y-76350000D01*
X158016667Y-76283334D01*
X157983333Y-76183334D01*
X157916667Y-76116667D01*
X157850000Y-76083334D01*
X157716667Y-76050000D01*
X157616667Y-76050000D01*
X157483333Y-76083334D01*
X157416667Y-76116667D01*
X157350000Y-76183334D01*
X157316667Y-76283334D01*
X157316667Y-76350000D01*
X157350000Y-76450000D01*
X157383333Y-76483334D01*
X157316667Y-77116667D02*
X157316667Y-76783334D01*
X157650000Y-76750000D01*
X157616667Y-76783334D01*
X157583333Y-76850000D01*
X157583333Y-77016667D01*
X157616667Y-77083334D01*
X157650000Y-77116667D01*
X157716667Y-77150000D01*
X157883333Y-77150000D01*
X157950000Y-77116667D01*
X157983333Y-77083334D01*
X158016667Y-77016667D01*
X158016667Y-76850000D01*
X157983333Y-76783334D01*
X157950000Y-76750000D01*
X157950000Y-82883334D02*
X157983333Y-82850000D01*
X158016667Y-82750000D01*
X158016667Y-82683334D01*
X157983333Y-82583334D01*
X157916667Y-82516667D01*
X157850000Y-82483334D01*
X157716667Y-82450000D01*
X157616667Y-82450000D01*
X157483333Y-82483334D01*
X157416667Y-82516667D01*
X157350000Y-82583334D01*
X157316667Y-82683334D01*
X157316667Y-82750000D01*
X157350000Y-82850000D01*
X157383333Y-82883334D01*
X157316667Y-83116667D02*
X157316667Y-83583334D01*
X158016667Y-83283334D01*
X157850000Y-90083334D02*
X157883333Y-90050000D01*
X157916667Y-89950000D01*
X157916667Y-89883334D01*
X157883333Y-89783334D01*
X157816667Y-89716667D01*
X157750000Y-89683334D01*
X157616667Y-89650000D01*
X157516667Y-89650000D01*
X157383333Y-89683334D01*
X157316667Y-89716667D01*
X157250000Y-89783334D01*
X157216667Y-89883334D01*
X157216667Y-89950000D01*
X157250000Y-90050000D01*
X157283333Y-90083334D01*
X157916667Y-90416667D02*
X157916667Y-90550000D01*
X157883333Y-90616667D01*
X157850000Y-90650000D01*
X157750000Y-90716667D01*
X157616667Y-90750000D01*
X157350000Y-90750000D01*
X157283333Y-90716667D01*
X157250000Y-90683334D01*
X157216667Y-90616667D01*
X157216667Y-90483334D01*
X157250000Y-90416667D01*
X157283333Y-90383334D01*
X157350000Y-90350000D01*
X157516667Y-90350000D01*
X157583333Y-90383334D01*
X157616667Y-90416667D01*
X157650000Y-90483334D01*
X157650000Y-90616667D01*
X157616667Y-90683334D01*
X157583333Y-90716667D01*
X157516667Y-90750000D01*
X153650000Y-76450000D02*
X153683334Y-76483333D01*
X153783334Y-76516667D01*
X153850000Y-76516667D01*
X153950000Y-76483333D01*
X154016667Y-76416667D01*
X154050000Y-76350000D01*
X154083334Y-76216667D01*
X154083334Y-76116667D01*
X154050000Y-75983333D01*
X154016667Y-75916667D01*
X153950000Y-75850000D01*
X153850000Y-75816667D01*
X153783334Y-75816667D01*
X153683334Y-75850000D01*
X153650000Y-75883333D01*
X152983334Y-76516667D02*
X153383334Y-76516667D01*
X153183334Y-76516667D02*
X153183334Y-75816667D01*
X153250000Y-75916667D01*
X153316667Y-75983333D01*
X153383334Y-76016667D01*
X152550000Y-75816667D02*
X152483333Y-75816667D01*
X152416667Y-75850000D01*
X152383333Y-75883333D01*
X152350000Y-75950000D01*
X152316667Y-76083333D01*
X152316667Y-76250000D01*
X152350000Y-76383333D01*
X152383333Y-76450000D01*
X152416667Y-76483333D01*
X152483333Y-76516667D01*
X152550000Y-76516667D01*
X152616667Y-76483333D01*
X152650000Y-76450000D01*
X152683333Y-76383333D01*
X152716667Y-76250000D01*
X152716667Y-76083333D01*
X152683333Y-75950000D01*
X152650000Y-75883333D01*
X152616667Y-75850000D01*
X152550000Y-75816667D01*
X153416666Y-88616667D02*
X153650000Y-88283333D01*
X153816666Y-88616667D02*
X153816666Y-87916667D01*
X153550000Y-87916667D01*
X153483333Y-87950000D01*
X153450000Y-87983333D01*
X153416666Y-88050000D01*
X153416666Y-88150000D01*
X153450000Y-88216667D01*
X153483333Y-88250000D01*
X153550000Y-88283333D01*
X153816666Y-88283333D01*
X153150000Y-87983333D02*
X153116666Y-87950000D01*
X153050000Y-87916667D01*
X152883333Y-87916667D01*
X152816666Y-87950000D01*
X152783333Y-87983333D01*
X152750000Y-88050000D01*
X152750000Y-88116667D01*
X152783333Y-88216667D01*
X153183333Y-88616667D01*
X152750000Y-88616667D01*
D15*
X163739286Y-85875000D02*
X163382143Y-85625000D01*
X163739286Y-85446428D02*
X162989286Y-85446428D01*
X162989286Y-85732143D01*
X163025000Y-85803571D01*
X163060714Y-85839286D01*
X163132143Y-85875000D01*
X163239286Y-85875000D01*
X163310714Y-85839286D01*
X163346429Y-85803571D01*
X163382143Y-85732143D01*
X163382143Y-85446428D01*
X162989286Y-86553571D02*
X162989286Y-86196428D01*
X163346429Y-86160714D01*
X163310714Y-86196428D01*
X163275000Y-86267857D01*
X163275000Y-86446428D01*
X163310714Y-86517857D01*
X163346429Y-86553571D01*
X163417857Y-86589286D01*
X163596429Y-86589286D01*
X163667857Y-86553571D01*
X163703571Y-86517857D01*
X163739286Y-86446428D01*
X163739286Y-86267857D01*
X163703571Y-86196428D01*
X163667857Y-86160714D01*
X163739286Y-77875000D02*
X163382143Y-77625000D01*
X163739286Y-77446428D02*
X162989286Y-77446428D01*
X162989286Y-77732143D01*
X163025000Y-77803571D01*
X163060714Y-77839286D01*
X163132143Y-77875000D01*
X163239286Y-77875000D01*
X163310714Y-77839286D01*
X163346429Y-77803571D01*
X163382143Y-77732143D01*
X163382143Y-77446428D01*
X163739286Y-78232143D02*
X163739286Y-78375000D01*
X163703571Y-78446428D01*
X163667857Y-78482143D01*
X163560714Y-78553571D01*
X163417857Y-78589286D01*
X163132143Y-78589286D01*
X163060714Y-78553571D01*
X163025000Y-78517857D01*
X162989286Y-78446428D01*
X162989286Y-78303571D01*
X163025000Y-78232143D01*
X163060714Y-78196428D01*
X163132143Y-78160714D01*
X163310714Y-78160714D01*
X163382143Y-78196428D01*
X163417857Y-78232143D01*
X163453571Y-78303571D01*
X163453571Y-78446428D01*
X163417857Y-78517857D01*
X163382143Y-78553571D01*
X163310714Y-78589286D01*
D13*
X140211667Y-91250000D02*
X139878333Y-91016666D01*
X140211667Y-90850000D02*
X139511667Y-90850000D01*
X139511667Y-91116666D01*
X139545000Y-91183333D01*
X139578333Y-91216666D01*
X139645000Y-91250000D01*
X139745000Y-91250000D01*
X139811667Y-91216666D01*
X139845000Y-91183333D01*
X139878333Y-91116666D01*
X139878333Y-90850000D01*
X140211667Y-91916666D02*
X140211667Y-91516666D01*
X140211667Y-91716666D02*
X139511667Y-91716666D01*
X139611667Y-91650000D01*
X139678333Y-91583333D01*
X139711667Y-91516666D01*
X140211667Y-92250000D02*
X140211667Y-92383333D01*
X140178333Y-92450000D01*
X140145000Y-92483333D01*
X140045000Y-92550000D01*
X139911667Y-92583333D01*
X139645000Y-92583333D01*
X139578333Y-92550000D01*
X139545000Y-92516667D01*
X139511667Y-92450000D01*
X139511667Y-92316667D01*
X139545000Y-92250000D01*
X139578333Y-92216667D01*
X139645000Y-92183333D01*
X139811667Y-92183333D01*
X139878333Y-92216667D01*
X139911667Y-92250000D01*
X139945000Y-92316667D01*
X139945000Y-92450000D01*
X139911667Y-92516667D01*
X139878333Y-92550000D01*
X139811667Y-92583333D01*
X139541666Y-81280000D02*
X139575000Y-81313333D01*
X139675000Y-81346667D01*
X139741666Y-81346667D01*
X139841666Y-81313333D01*
X139908333Y-81246667D01*
X139941666Y-81180000D01*
X139975000Y-81046667D01*
X139975000Y-80946667D01*
X139941666Y-80813333D01*
X139908333Y-80746667D01*
X139841666Y-80680000D01*
X139741666Y-80646667D01*
X139675000Y-80646667D01*
X139575000Y-80680000D01*
X139541666Y-80713333D01*
X138875000Y-81346667D02*
X139275000Y-81346667D01*
X139075000Y-81346667D02*
X139075000Y-80646667D01*
X139141666Y-80746667D01*
X139208333Y-80813333D01*
X139275000Y-80846667D01*
X163952381Y-81666667D02*
X164666667Y-81666667D01*
X164809524Y-81619047D01*
X164904762Y-81523809D01*
X164952381Y-81380952D01*
X164952381Y-81285714D01*
X164047619Y-82095238D02*
X164000000Y-82142857D01*
X163952381Y-82238095D01*
X163952381Y-82476191D01*
X164000000Y-82571429D01*
X164047619Y-82619048D01*
X164142857Y-82666667D01*
X164238095Y-82666667D01*
X164380952Y-82619048D01*
X164952381Y-82047619D01*
X164952381Y-82666667D01*
M02*
