G04 #@! TF.FileFunction,Soldermask,Top*
%FSLAX46Y46*%
G04 Gerber Fmt 4.6, Leading zero omitted, Abs format (unit mm)*
G04 Created by KiCad (PCBNEW 4.0.3+e1-6302~38~ubuntu14.04.1-stable) date Fri Dec  9 13:09:20 2016*
%MOMM*%
%LPD*%
G01*
G04 APERTURE LIST*
%ADD10C,0.100000*%
%ADD11R,0.900000X0.500000*%
%ADD12R,0.650240X3.599180*%
%ADD13R,0.650240X4.599940*%
%ADD14O,0.650240X0.650240*%
%ADD15R,0.750000X0.800000*%
%ADD16R,0.500000X0.900000*%
%ADD17R,1.200000X0.400000*%
%ADD18R,2.032000X1.727200*%
%ADD19O,2.032000X1.727200*%
%ADD20C,1.100000*%
%ADD21R,1.700000X0.900000*%
%ADD22R,0.864000X0.787000*%
%ADD23R,0.800100X0.800100*%
%ADD24R,1.727200X2.032000*%
%ADD25O,1.727200X2.032000*%
%ADD26C,0.254000*%
G04 APERTURE END LIST*
D10*
D11*
X157625000Y-80050000D03*
X157625000Y-78550000D03*
D12*
X159499600Y-99499620D03*
D13*
X158498840Y-100000000D03*
X157500620Y-100000000D03*
X156499860Y-100000000D03*
X155499100Y-100000000D03*
X154500880Y-100000000D03*
X153500120Y-100000000D03*
X152499360Y-100000000D03*
X151501140Y-100000000D03*
X150500380Y-100000000D03*
X149499620Y-100000000D03*
X144500900Y-100000000D03*
X143500140Y-100000000D03*
X142499380Y-100000000D03*
X141501160Y-100000000D03*
X140500400Y-100000000D03*
X146499880Y-100000000D03*
X145499120Y-100000000D03*
D14*
X156499860Y-102301240D03*
X155499100Y-102301240D03*
X154500880Y-102301240D03*
X153500120Y-102301240D03*
X152499360Y-102301240D03*
X151501140Y-102301240D03*
X150500380Y-102301240D03*
X144500900Y-102301240D03*
X143500140Y-102301240D03*
X157500620Y-102301240D03*
X145499120Y-102301240D03*
X142499380Y-102301240D03*
X149499620Y-102301240D03*
X146499880Y-102301240D03*
X141501160Y-102301240D03*
X140500400Y-102301240D03*
X158498840Y-102301240D03*
D15*
X155125000Y-80050000D03*
X155125000Y-78550000D03*
X148025000Y-87750000D03*
X148025000Y-89250000D03*
D11*
X144625000Y-79350000D03*
X144625000Y-80850000D03*
D16*
X143375000Y-75700000D03*
X144875000Y-75700000D03*
D11*
X146325000Y-78650000D03*
X146325000Y-80150000D03*
X133525000Y-71350000D03*
X133525000Y-72850000D03*
D17*
X128375000Y-78125000D03*
X128375000Y-78775000D03*
X128375000Y-79425000D03*
X128375000Y-80075000D03*
X128375000Y-80725000D03*
X128375000Y-81375000D03*
X128375000Y-82025000D03*
X128375000Y-82675000D03*
X135275000Y-82675000D03*
X135275000Y-82025000D03*
X135275000Y-81375000D03*
X135275000Y-80725000D03*
X135275000Y-80075000D03*
X135275000Y-79425000D03*
X135275000Y-78775000D03*
X135275000Y-78125000D03*
D11*
X142925000Y-78750000D03*
X142925000Y-80250000D03*
X139525000Y-77250000D03*
X139525000Y-78750000D03*
X141225000Y-78150000D03*
X141225000Y-79650000D03*
D16*
X139075000Y-86500000D03*
X140575000Y-86500000D03*
X139075000Y-88200000D03*
X140575000Y-88200000D03*
X139075000Y-84800000D03*
X140575000Y-84800000D03*
X139075000Y-83100000D03*
X140575000Y-83100000D03*
D18*
X167000000Y-78190000D03*
D19*
X167000000Y-80730000D03*
X167000000Y-83270000D03*
X167000000Y-85810000D03*
D20*
X138270000Y-72635000D03*
X138270000Y-71365000D03*
X137000000Y-72635000D03*
X137000000Y-71365000D03*
X135730000Y-72635000D03*
X135730000Y-71365000D03*
X130270000Y-72635000D03*
X130270000Y-71365000D03*
X129000000Y-72635000D03*
X129000000Y-71365000D03*
X127730000Y-72635000D03*
X127730000Y-71365000D03*
D11*
X138625000Y-90950000D03*
X138625000Y-92450000D03*
D21*
X157325000Y-90950000D03*
X157325000Y-88050000D03*
D22*
X151425000Y-89474500D03*
X151425000Y-87925500D03*
D23*
X155025760Y-90450000D03*
X155025760Y-88550000D03*
X153026780Y-89500000D03*
D24*
X150865000Y-71700000D03*
D25*
X148325000Y-71700000D03*
X145785000Y-71700000D03*
D26*
G36*
X160023000Y-103298000D02*
X139977000Y-103298000D01*
X139977000Y-97602000D01*
X160023000Y-97602000D01*
X160023000Y-103298000D01*
X160023000Y-103298000D01*
G37*
X160023000Y-103298000D02*
X139977000Y-103298000D01*
X139977000Y-97602000D01*
X160023000Y-97602000D01*
X160023000Y-103298000D01*
M02*
