G04 #@! TF.FileFunction,Copper,L3,Inr,Signal*
%FSLAX46Y46*%
G04 Gerber Fmt 4.6, Leading zero omitted, Abs format (unit mm)*
G04 Created by KiCad (PCBNEW 4.0.6-e0-6349~53~ubuntu14.04.1) date Mon Mar 27 22:54:08 2017*
%MOMM*%
%LPD*%
G01*
G04 APERTURE LIST*
%ADD10C,0.100000*%
%ADD11C,0.600000*%
%ADD12R,2.032000X1.727200*%
%ADD13O,2.032000X1.727200*%
%ADD14C,1.100000*%
%ADD15R,1.727200X2.032000*%
%ADD16O,1.727200X2.032000*%
%ADD17C,0.500000*%
%ADD18C,0.150000*%
%ADD19C,0.200000*%
G04 APERTURE END LIST*
D10*
D11*
X152000000Y-83000000D03*
X152000000Y-81000000D03*
X153000000Y-84000000D03*
X151000000Y-84000000D03*
X153000000Y-82000000D03*
X151000000Y-82000000D03*
X153000000Y-80000000D03*
X151000000Y-80000000D03*
D12*
X167000000Y-78190000D03*
D13*
X167000000Y-80730000D03*
X167000000Y-83270000D03*
X167000000Y-85810000D03*
D11*
X143425000Y-83150000D03*
X144425000Y-82150000D03*
D14*
X138270000Y-72635000D03*
X138270000Y-71365000D03*
X137000000Y-72635000D03*
X137000000Y-71365000D03*
X135730000Y-72635000D03*
X135730000Y-71365000D03*
X130270000Y-72635000D03*
X130270000Y-71365000D03*
X129000000Y-72635000D03*
X129000000Y-71365000D03*
X127730000Y-72635000D03*
X127730000Y-71365000D03*
D15*
X150865000Y-71700000D03*
D16*
X148325000Y-71700000D03*
X145785000Y-71700000D03*
D11*
X129525000Y-82700000D03*
X145275000Y-76950000D03*
X143325000Y-74400000D03*
X147450000Y-84625000D03*
X135325000Y-77500000D03*
X140725000Y-76900000D03*
X138025000Y-83200000D03*
X151825000Y-90500000D03*
X150825000Y-90500000D03*
X149825000Y-90500000D03*
X140925000Y-90450000D03*
X139925000Y-80400000D03*
X140075000Y-90450000D03*
X139325000Y-79800000D03*
X143925000Y-89200000D03*
X143925000Y-85700000D03*
X143225000Y-89600000D03*
X143125000Y-85700000D03*
X158650000Y-85525000D03*
X158650000Y-86300000D03*
X158650000Y-87050000D03*
X134225000Y-90175000D03*
X156350000Y-84275000D03*
X156300000Y-79725000D03*
X142125000Y-89550000D03*
X141450000Y-83075000D03*
X141525000Y-88900000D03*
X141425000Y-85500000D03*
X138725000Y-89400000D03*
X141325000Y-81600000D03*
X156325000Y-78950000D03*
X147825000Y-86200000D03*
X159225000Y-79900000D03*
X157125000Y-81700000D03*
X158450000Y-82325000D03*
X158725000Y-83800000D03*
X144625000Y-85300000D03*
X154825000Y-87125000D03*
X150525000Y-78400000D03*
X147625000Y-76000000D03*
X142475000Y-76875000D03*
X146575000Y-84025000D03*
X129475000Y-74950000D03*
X138025000Y-81100000D03*
X130025000Y-81500000D03*
X136825000Y-82100000D03*
X134825000Y-76200000D03*
X128325000Y-76300000D03*
X147725000Y-83050000D03*
X135325000Y-83600000D03*
X147725000Y-82300000D03*
X127125000Y-82000000D03*
X129675000Y-80075000D03*
X147725000Y-77500000D03*
X147725000Y-81550000D03*
X140925000Y-89600000D03*
X140625000Y-81000000D03*
X144225000Y-94225000D03*
X127025000Y-78775000D03*
X145325000Y-87350000D03*
X134125000Y-86400000D03*
X134025000Y-81400000D03*
X144825000Y-91375000D03*
X127025000Y-80725000D03*
X146050000Y-84775000D03*
X150125000Y-89325000D03*
D17*
X140725000Y-76900000D02*
X135925000Y-76900000D01*
X135925000Y-76900000D02*
X135325000Y-77500000D01*
D18*
X141325000Y-81600000D02*
X141325000Y-79450000D01*
X150865000Y-73035000D02*
X150865000Y-71700000D01*
X150675000Y-73225000D02*
X150865000Y-73035000D01*
X149250000Y-73225000D02*
X150675000Y-73225000D01*
X148700002Y-73774998D02*
X149250000Y-73225000D01*
X148700002Y-77799264D02*
X148700002Y-73774998D01*
X148024264Y-78475002D02*
X148700002Y-77799264D01*
X142299998Y-78475002D02*
X148024264Y-78475002D01*
X141325000Y-79450000D02*
X142299998Y-78475002D01*
X154825000Y-87125000D02*
X145950000Y-87125000D01*
X144625000Y-85800000D02*
X144625000Y-85300000D01*
X145950000Y-87125000D02*
X144625000Y-85800000D01*
X129475000Y-74950000D02*
X129475000Y-74350000D01*
X138270000Y-73655000D02*
X138270000Y-72635000D01*
X137900000Y-74025000D02*
X138270000Y-73655000D01*
X129800000Y-74025000D02*
X137900000Y-74025000D01*
X129475000Y-74350000D02*
X129800000Y-74025000D01*
X132125000Y-81500000D02*
X132625000Y-82000000D01*
X132625000Y-82000000D02*
X135625000Y-82000000D01*
X135625000Y-82000000D02*
X136225000Y-81400000D01*
X136225000Y-81400000D02*
X137725000Y-81400000D01*
X137725000Y-81400000D02*
X138025000Y-81100000D01*
X130025000Y-81500000D02*
X132125000Y-81500000D01*
X134725000Y-76300000D02*
X134825000Y-76200000D01*
X128325000Y-76300000D02*
X134725000Y-76300000D01*
X147725000Y-83050000D02*
X146575000Y-83050000D01*
X135525000Y-83800000D02*
X135325000Y-83600000D01*
X143625000Y-83800000D02*
X135525000Y-83800000D01*
X144125000Y-83300000D02*
X143625000Y-83800000D01*
X146325000Y-83300000D02*
X144125000Y-83300000D01*
X146575000Y-83050000D02*
X146325000Y-83300000D01*
X147725000Y-82300000D02*
X146625000Y-82300000D01*
X127200000Y-82075000D02*
X127125000Y-82000000D01*
X129975000Y-82075000D02*
X127200000Y-82075000D01*
X130925000Y-83025000D02*
X129975000Y-82075000D01*
X137100000Y-83025000D02*
X130925000Y-83025000D01*
X137675000Y-82450000D02*
X137100000Y-83025000D01*
X143750000Y-82450000D02*
X137675000Y-82450000D01*
X144050000Y-82750000D02*
X143750000Y-82450000D01*
X146175000Y-82750000D02*
X144050000Y-82750000D01*
X146625000Y-82300000D02*
X146175000Y-82750000D01*
X132000000Y-80075000D02*
X129675000Y-80075000D01*
X131950000Y-80075000D02*
X132000000Y-80075000D01*
X132000000Y-80075000D02*
X138025000Y-80075000D01*
X139825000Y-77500000D02*
X147725000Y-77500000D01*
X139175000Y-77500000D02*
X139825000Y-77500000D01*
X138725000Y-77950000D02*
X139175000Y-77500000D01*
X138725000Y-79375000D02*
X138725000Y-77950000D01*
X138025000Y-80075000D02*
X138725000Y-79375000D01*
X148400000Y-77675000D02*
X148400000Y-74375000D01*
X140625000Y-78725000D02*
X141175000Y-78175000D01*
X141175000Y-78175000D02*
X147900000Y-78175000D01*
X147900000Y-78175000D02*
X148400000Y-77675000D01*
X140625000Y-81000000D02*
X140625000Y-78725000D01*
X148325000Y-74300000D02*
X148325000Y-71700000D01*
X148400000Y-74375000D02*
X148325000Y-74300000D01*
X144225000Y-94225000D02*
X144225000Y-92900000D01*
X127025000Y-79700000D02*
X127025000Y-78775000D01*
X126025000Y-80700000D02*
X127025000Y-79700000D01*
X126025000Y-83125000D02*
X126025000Y-80700000D01*
X126549998Y-83649998D02*
X126025000Y-83125000D01*
X126549998Y-89849264D02*
X126549998Y-83649998D01*
X128375736Y-91675002D02*
X126549998Y-89849264D01*
X143000002Y-91675002D02*
X128375736Y-91675002D01*
X144225000Y-92900000D02*
X143000002Y-91675002D01*
X145325000Y-87350000D02*
X145325000Y-87300000D01*
X145325000Y-87300000D02*
X144975000Y-86950000D01*
X144975000Y-86950000D02*
X134225000Y-86950000D01*
X134225000Y-86950000D02*
X134125000Y-86850000D01*
X134125000Y-86850000D02*
X134125000Y-86400000D01*
X144825000Y-91375000D02*
X128500000Y-91375000D01*
X126500000Y-81250000D02*
X127025000Y-80725000D01*
X126500000Y-82750000D02*
X126500000Y-81250000D01*
X126850000Y-83100000D02*
X126500000Y-82750000D01*
X126850000Y-89725000D02*
X126850000Y-83100000D01*
X128500000Y-91375000D02*
X126850000Y-89725000D01*
D19*
G36*
X169597716Y-70402284D02*
X169605000Y-70438903D01*
X169605000Y-93061097D01*
X169597716Y-93097716D01*
X169586234Y-93100000D01*
X159800000Y-93100000D01*
X159761094Y-93107879D01*
X159728319Y-93130273D01*
X159706839Y-93163654D01*
X159700000Y-93200000D01*
X159700000Y-102200000D01*
X149500000Y-102200000D01*
X149500000Y-93000000D01*
X149492121Y-92961094D01*
X149469727Y-92928319D01*
X149436346Y-92906839D01*
X149400000Y-92900000D01*
X144620000Y-92900000D01*
X144589932Y-92748840D01*
X144504307Y-92620693D01*
X143653614Y-91770000D01*
X144343263Y-91770000D01*
X144473339Y-91900304D01*
X144701133Y-91994893D01*
X144947785Y-91995108D01*
X145175743Y-91900917D01*
X145350304Y-91726661D01*
X145444893Y-91498867D01*
X145445108Y-91252215D01*
X145350917Y-91024257D01*
X145176661Y-90849696D01*
X144948867Y-90755107D01*
X144702215Y-90754892D01*
X144474257Y-90849083D01*
X144343111Y-90980000D01*
X141265861Y-90980000D01*
X141275743Y-90975917D01*
X141450304Y-90801661D01*
X141524580Y-90622785D01*
X149204892Y-90622785D01*
X149299083Y-90850743D01*
X149473339Y-91025304D01*
X149701133Y-91119893D01*
X149947785Y-91120108D01*
X150175743Y-91025917D01*
X150325108Y-90876813D01*
X150473339Y-91025304D01*
X150701133Y-91119893D01*
X150947785Y-91120108D01*
X151175743Y-91025917D01*
X151325108Y-90876813D01*
X151473339Y-91025304D01*
X151701133Y-91119893D01*
X151947785Y-91120108D01*
X152175743Y-91025917D01*
X152350304Y-90851661D01*
X152444893Y-90623867D01*
X152445108Y-90377215D01*
X152350917Y-90149257D01*
X152176661Y-89974696D01*
X151948867Y-89880107D01*
X151702215Y-89879892D01*
X151474257Y-89974083D01*
X151324892Y-90123187D01*
X151176661Y-89974696D01*
X150948867Y-89880107D01*
X150702215Y-89879892D01*
X150474257Y-89974083D01*
X150324892Y-90123187D01*
X150176661Y-89974696D01*
X150105106Y-89944984D01*
X150247785Y-89945108D01*
X150475743Y-89850917D01*
X150650304Y-89676661D01*
X150744893Y-89448867D01*
X150745108Y-89202215D01*
X150650917Y-88974257D01*
X150476661Y-88799696D01*
X150248867Y-88705107D01*
X150002215Y-88704892D01*
X149774257Y-88799083D01*
X149599696Y-88973339D01*
X149505107Y-89201133D01*
X149504892Y-89447785D01*
X149599083Y-89675743D01*
X149773339Y-89850304D01*
X149844894Y-89880016D01*
X149702215Y-89879892D01*
X149474257Y-89974083D01*
X149299696Y-90148339D01*
X149205107Y-90376133D01*
X149204892Y-90622785D01*
X141524580Y-90622785D01*
X141544893Y-90573867D01*
X141545108Y-90327215D01*
X141450917Y-90099257D01*
X141376813Y-90025023D01*
X141450304Y-89951661D01*
X141535423Y-89746674D01*
X141599083Y-89900743D01*
X141773339Y-90075304D01*
X142001133Y-90169893D01*
X142247785Y-90170108D01*
X142475743Y-90075917D01*
X142650304Y-89901661D01*
X142664588Y-89867260D01*
X142699083Y-89950743D01*
X142873339Y-90125304D01*
X143101133Y-90219893D01*
X143347785Y-90220108D01*
X143575743Y-90125917D01*
X143750304Y-89951661D01*
X143805018Y-89819896D01*
X144047785Y-89820108D01*
X144275743Y-89725917D01*
X144450304Y-89551661D01*
X144544893Y-89323867D01*
X144545108Y-89077215D01*
X144450917Y-88849257D01*
X144276661Y-88674696D01*
X144048867Y-88580107D01*
X143802215Y-88579892D01*
X143574257Y-88674083D01*
X143399696Y-88848339D01*
X143344982Y-88980104D01*
X143102215Y-88979892D01*
X142874257Y-89074083D01*
X142699696Y-89248339D01*
X142685412Y-89282740D01*
X142650917Y-89199257D01*
X142476661Y-89024696D01*
X142248867Y-88930107D01*
X142144975Y-88930016D01*
X142145108Y-88777215D01*
X142050917Y-88549257D01*
X141876661Y-88374696D01*
X141648867Y-88280107D01*
X141402215Y-88279892D01*
X141174257Y-88374083D01*
X140999696Y-88548339D01*
X140905107Y-88776133D01*
X140904929Y-88979982D01*
X140802215Y-88979892D01*
X140574257Y-89074083D01*
X140399696Y-89248339D01*
X140305107Y-89476133D01*
X140304892Y-89722785D01*
X140380380Y-89905478D01*
X140198867Y-89830107D01*
X139952215Y-89829892D01*
X139724257Y-89924083D01*
X139549696Y-90098339D01*
X139455107Y-90326133D01*
X139454892Y-90572785D01*
X139549083Y-90800743D01*
X139723339Y-90975304D01*
X139734648Y-90980000D01*
X128663614Y-90980000D01*
X127245000Y-89561386D01*
X127245000Y-89522785D01*
X138104892Y-89522785D01*
X138199083Y-89750743D01*
X138373339Y-89925304D01*
X138601133Y-90019893D01*
X138847785Y-90020108D01*
X139075743Y-89925917D01*
X139250304Y-89751661D01*
X139344893Y-89523867D01*
X139345108Y-89277215D01*
X139250917Y-89049257D01*
X139076661Y-88874696D01*
X138848867Y-88780107D01*
X138602215Y-88779892D01*
X138374257Y-88874083D01*
X138199696Y-89048339D01*
X138105107Y-89276133D01*
X138104892Y-89522785D01*
X127245000Y-89522785D01*
X127245000Y-86522785D01*
X133504892Y-86522785D01*
X133599083Y-86750743D01*
X133737922Y-86889825D01*
X133760068Y-87001160D01*
X133845693Y-87129307D01*
X133945693Y-87229307D01*
X134073840Y-87314932D01*
X134225000Y-87345000D01*
X144705003Y-87345000D01*
X144704892Y-87472785D01*
X144799083Y-87700743D01*
X144973339Y-87875304D01*
X145201133Y-87969893D01*
X145447785Y-87970108D01*
X145675743Y-87875917D01*
X145850304Y-87701661D01*
X145927588Y-87515542D01*
X145950000Y-87520000D01*
X154343263Y-87520000D01*
X154473339Y-87650304D01*
X154701133Y-87744893D01*
X154947785Y-87745108D01*
X155175743Y-87650917D01*
X155350304Y-87476661D01*
X155444893Y-87248867D01*
X155445108Y-87002215D01*
X155350917Y-86774257D01*
X155176661Y-86599696D01*
X154948867Y-86505107D01*
X154702215Y-86504892D01*
X154474257Y-86599083D01*
X154343111Y-86730000D01*
X148165861Y-86730000D01*
X148175743Y-86725917D01*
X148350304Y-86551661D01*
X148444893Y-86323867D01*
X148445108Y-86077215D01*
X148350917Y-85849257D01*
X148311729Y-85810000D01*
X165637826Y-85810000D01*
X165727922Y-86262944D01*
X165984494Y-86646932D01*
X166368482Y-86903504D01*
X166821426Y-86993600D01*
X167178574Y-86993600D01*
X167631518Y-86903504D01*
X168015506Y-86646932D01*
X168272078Y-86262944D01*
X168362174Y-85810000D01*
X168272078Y-85357056D01*
X168015506Y-84973068D01*
X167631518Y-84716496D01*
X167178574Y-84626400D01*
X166821426Y-84626400D01*
X166368482Y-84716496D01*
X165984494Y-84973068D01*
X165727922Y-85357056D01*
X165637826Y-85810000D01*
X148311729Y-85810000D01*
X148176661Y-85674696D01*
X147948867Y-85580107D01*
X147702215Y-85579892D01*
X147474257Y-85674083D01*
X147299696Y-85848339D01*
X147205107Y-86076133D01*
X147204892Y-86322785D01*
X147299083Y-86550743D01*
X147473339Y-86725304D01*
X147484648Y-86730000D01*
X146113614Y-86730000D01*
X145092739Y-85709125D01*
X145150304Y-85651661D01*
X145244893Y-85423867D01*
X145245108Y-85177215D01*
X145150917Y-84949257D01*
X144976661Y-84774696D01*
X144748867Y-84680107D01*
X144502215Y-84679892D01*
X144274257Y-84774083D01*
X144099696Y-84948339D01*
X144044982Y-85080104D01*
X143802215Y-85079892D01*
X143574257Y-85174083D01*
X143525067Y-85223187D01*
X143476661Y-85174696D01*
X143248867Y-85080107D01*
X143002215Y-85079892D01*
X142774257Y-85174083D01*
X142599696Y-85348339D01*
X142505107Y-85576133D01*
X142504892Y-85822785D01*
X142599083Y-86050743D01*
X142773339Y-86225304D01*
X143001133Y-86319893D01*
X143247785Y-86320108D01*
X143475743Y-86225917D01*
X143524933Y-86176813D01*
X143573339Y-86225304D01*
X143801133Y-86319893D01*
X144047785Y-86320108D01*
X144275743Y-86225917D01*
X144384118Y-86117732D01*
X144821386Y-86555000D01*
X134731965Y-86555000D01*
X134744893Y-86523867D01*
X134745108Y-86277215D01*
X134650917Y-86049257D01*
X134476661Y-85874696D01*
X134248867Y-85780107D01*
X134002215Y-85779892D01*
X133774257Y-85874083D01*
X133599696Y-86048339D01*
X133505107Y-86276133D01*
X133504892Y-86522785D01*
X127245000Y-86522785D01*
X127245000Y-85622785D01*
X140804892Y-85622785D01*
X140899083Y-85850743D01*
X141073339Y-86025304D01*
X141301133Y-86119893D01*
X141547785Y-86120108D01*
X141775743Y-86025917D01*
X141950304Y-85851661D01*
X142044893Y-85623867D01*
X142045108Y-85377215D01*
X141950917Y-85149257D01*
X141776661Y-84974696D01*
X141548867Y-84880107D01*
X141302215Y-84879892D01*
X141074257Y-84974083D01*
X140899696Y-85148339D01*
X140805107Y-85376133D01*
X140804892Y-85622785D01*
X127245000Y-85622785D01*
X127245000Y-83100000D01*
X127214932Y-82948840D01*
X127129307Y-82820693D01*
X126895000Y-82586386D01*
X126895000Y-82575822D01*
X127001133Y-82619893D01*
X127247785Y-82620108D01*
X127475743Y-82525917D01*
X127531758Y-82470000D01*
X128949178Y-82470000D01*
X128905107Y-82576133D01*
X128904892Y-82822785D01*
X128999083Y-83050743D01*
X129173339Y-83225304D01*
X129401133Y-83319893D01*
X129647785Y-83320108D01*
X129875743Y-83225917D01*
X130050304Y-83051661D01*
X130144893Y-82823867D01*
X130144911Y-82803525D01*
X130645693Y-83304307D01*
X130773840Y-83389932D01*
X130925000Y-83420000D01*
X134728416Y-83420000D01*
X134705107Y-83476133D01*
X134704892Y-83722785D01*
X134799083Y-83950743D01*
X134973339Y-84125304D01*
X135201133Y-84219893D01*
X135447785Y-84220108D01*
X135513896Y-84192791D01*
X135525000Y-84195000D01*
X143625000Y-84195000D01*
X143776160Y-84164932D01*
X143904307Y-84079307D01*
X144288614Y-83695000D01*
X146040702Y-83695000D01*
X145955107Y-83901133D01*
X145954892Y-84147785D01*
X145957840Y-84154919D01*
X145927215Y-84154892D01*
X145699257Y-84249083D01*
X145524696Y-84423339D01*
X145430107Y-84651133D01*
X145429892Y-84897785D01*
X145524083Y-85125743D01*
X145698339Y-85300304D01*
X145926133Y-85394893D01*
X146172785Y-85395108D01*
X146400743Y-85300917D01*
X146575304Y-85126661D01*
X146669893Y-84898867D01*
X146670108Y-84652215D01*
X146667160Y-84645081D01*
X146697785Y-84645108D01*
X146830029Y-84590465D01*
X146829892Y-84747785D01*
X146924083Y-84975743D01*
X147098339Y-85150304D01*
X147326133Y-85244893D01*
X147572785Y-85245108D01*
X147800743Y-85150917D01*
X147975304Y-84976661D01*
X148069893Y-84748867D01*
X148070108Y-84502215D01*
X147975917Y-84274257D01*
X147824710Y-84122785D01*
X150379892Y-84122785D01*
X150474083Y-84350743D01*
X150648339Y-84525304D01*
X150876133Y-84619893D01*
X151122785Y-84620108D01*
X151350743Y-84525917D01*
X151525304Y-84351661D01*
X151619893Y-84123867D01*
X151619893Y-84122785D01*
X152379892Y-84122785D01*
X152474083Y-84350743D01*
X152648339Y-84525304D01*
X152876133Y-84619893D01*
X153122785Y-84620108D01*
X153350743Y-84525917D01*
X153525304Y-84351661D01*
X153619893Y-84123867D01*
X153620068Y-83922785D01*
X158104892Y-83922785D01*
X158199083Y-84150743D01*
X158373339Y-84325304D01*
X158601133Y-84419893D01*
X158847785Y-84420108D01*
X159075743Y-84325917D01*
X159250304Y-84151661D01*
X159344893Y-83923867D01*
X159345108Y-83677215D01*
X159250917Y-83449257D01*
X159076661Y-83274696D01*
X159065352Y-83270000D01*
X165637826Y-83270000D01*
X165727922Y-83722944D01*
X165984494Y-84106932D01*
X166368482Y-84363504D01*
X166821426Y-84453600D01*
X167178574Y-84453600D01*
X167631518Y-84363504D01*
X168015506Y-84106932D01*
X168272078Y-83722944D01*
X168362174Y-83270000D01*
X168272078Y-82817056D01*
X168015506Y-82433068D01*
X167631518Y-82176496D01*
X167178574Y-82086400D01*
X166821426Y-82086400D01*
X166368482Y-82176496D01*
X165984494Y-82433068D01*
X165727922Y-82817056D01*
X165637826Y-83270000D01*
X159065352Y-83270000D01*
X158848867Y-83180107D01*
X158602215Y-83179892D01*
X158374257Y-83274083D01*
X158199696Y-83448339D01*
X158105107Y-83676133D01*
X158104892Y-83922785D01*
X153620068Y-83922785D01*
X153620108Y-83877215D01*
X153525917Y-83649257D01*
X153351661Y-83474696D01*
X153123867Y-83380107D01*
X152877215Y-83379892D01*
X152649257Y-83474083D01*
X152474696Y-83648339D01*
X152380107Y-83876133D01*
X152379892Y-84122785D01*
X151619893Y-84122785D01*
X151620108Y-83877215D01*
X151525917Y-83649257D01*
X151351661Y-83474696D01*
X151123867Y-83380107D01*
X150877215Y-83379892D01*
X150649257Y-83474083D01*
X150474696Y-83648339D01*
X150380107Y-83876133D01*
X150379892Y-84122785D01*
X147824710Y-84122785D01*
X147801661Y-84099696D01*
X147573867Y-84005107D01*
X147327215Y-84004892D01*
X147194971Y-84059535D01*
X147195108Y-83902215D01*
X147100917Y-83674257D01*
X146926661Y-83499696D01*
X146794939Y-83445000D01*
X147243263Y-83445000D01*
X147373339Y-83575304D01*
X147601133Y-83669893D01*
X147847785Y-83670108D01*
X148075743Y-83575917D01*
X148250304Y-83401661D01*
X148344893Y-83173867D01*
X148344937Y-83122785D01*
X151379892Y-83122785D01*
X151474083Y-83350743D01*
X151648339Y-83525304D01*
X151876133Y-83619893D01*
X152122785Y-83620108D01*
X152350743Y-83525917D01*
X152525304Y-83351661D01*
X152619893Y-83123867D01*
X152620108Y-82877215D01*
X152525917Y-82649257D01*
X152351661Y-82474696D01*
X152123867Y-82380107D01*
X151877215Y-82379892D01*
X151649257Y-82474083D01*
X151474696Y-82648339D01*
X151380107Y-82876133D01*
X151379892Y-83122785D01*
X148344937Y-83122785D01*
X148345108Y-82927215D01*
X148250917Y-82699257D01*
X148226813Y-82675111D01*
X148250304Y-82651661D01*
X148344893Y-82423867D01*
X148345108Y-82177215D01*
X148322618Y-82122785D01*
X150379892Y-82122785D01*
X150474083Y-82350743D01*
X150648339Y-82525304D01*
X150876133Y-82619893D01*
X151122785Y-82620108D01*
X151350743Y-82525917D01*
X151525304Y-82351661D01*
X151619893Y-82123867D01*
X151619893Y-82122785D01*
X152379892Y-82122785D01*
X152474083Y-82350743D01*
X152648339Y-82525304D01*
X152876133Y-82619893D01*
X153122785Y-82620108D01*
X153350743Y-82525917D01*
X153429011Y-82447785D01*
X157829892Y-82447785D01*
X157924083Y-82675743D01*
X158098339Y-82850304D01*
X158326133Y-82944893D01*
X158572785Y-82945108D01*
X158800743Y-82850917D01*
X158975304Y-82676661D01*
X159069893Y-82448867D01*
X159070108Y-82202215D01*
X158975917Y-81974257D01*
X158801661Y-81799696D01*
X158573867Y-81705107D01*
X158327215Y-81704892D01*
X158099257Y-81799083D01*
X157924696Y-81973339D01*
X157830107Y-82201133D01*
X157829892Y-82447785D01*
X153429011Y-82447785D01*
X153525304Y-82351661D01*
X153619893Y-82123867D01*
X153620108Y-81877215D01*
X153597618Y-81822785D01*
X156504892Y-81822785D01*
X156599083Y-82050743D01*
X156773339Y-82225304D01*
X157001133Y-82319893D01*
X157247785Y-82320108D01*
X157475743Y-82225917D01*
X157650304Y-82051661D01*
X157744893Y-81823867D01*
X157745108Y-81577215D01*
X157650917Y-81349257D01*
X157476661Y-81174696D01*
X157248867Y-81080107D01*
X157002215Y-81079892D01*
X156774257Y-81174083D01*
X156599696Y-81348339D01*
X156505107Y-81576133D01*
X156504892Y-81822785D01*
X153597618Y-81822785D01*
X153525917Y-81649257D01*
X153351661Y-81474696D01*
X153123867Y-81380107D01*
X152877215Y-81379892D01*
X152649257Y-81474083D01*
X152474696Y-81648339D01*
X152380107Y-81876133D01*
X152379892Y-82122785D01*
X151619893Y-82122785D01*
X151620108Y-81877215D01*
X151525917Y-81649257D01*
X151351661Y-81474696D01*
X151123867Y-81380107D01*
X150877215Y-81379892D01*
X150649257Y-81474083D01*
X150474696Y-81648339D01*
X150380107Y-81876133D01*
X150379892Y-82122785D01*
X148322618Y-82122785D01*
X148250917Y-81949257D01*
X148226813Y-81925111D01*
X148250304Y-81901661D01*
X148344893Y-81673867D01*
X148345108Y-81427215D01*
X148250917Y-81199257D01*
X148174579Y-81122785D01*
X151379892Y-81122785D01*
X151474083Y-81350743D01*
X151648339Y-81525304D01*
X151876133Y-81619893D01*
X152122785Y-81620108D01*
X152350743Y-81525917D01*
X152525304Y-81351661D01*
X152619893Y-81123867D01*
X152620108Y-80877215D01*
X152559280Y-80730000D01*
X165637826Y-80730000D01*
X165727922Y-81182944D01*
X165984494Y-81566932D01*
X166368482Y-81823504D01*
X166821426Y-81913600D01*
X167178574Y-81913600D01*
X167631518Y-81823504D01*
X168015506Y-81566932D01*
X168272078Y-81182944D01*
X168362174Y-80730000D01*
X168272078Y-80277056D01*
X168015506Y-79893068D01*
X167631518Y-79636496D01*
X167178574Y-79546400D01*
X166821426Y-79546400D01*
X166368482Y-79636496D01*
X165984494Y-79893068D01*
X165727922Y-80277056D01*
X165637826Y-80730000D01*
X152559280Y-80730000D01*
X152525917Y-80649257D01*
X152351661Y-80474696D01*
X152123867Y-80380107D01*
X151877215Y-80379892D01*
X151649257Y-80474083D01*
X151474696Y-80648339D01*
X151380107Y-80876133D01*
X151379892Y-81122785D01*
X148174579Y-81122785D01*
X148076661Y-81024696D01*
X147848867Y-80930107D01*
X147602215Y-80929892D01*
X147374257Y-81024083D01*
X147199696Y-81198339D01*
X147105107Y-81426133D01*
X147104892Y-81672785D01*
X147199083Y-81900743D01*
X147203333Y-81905000D01*
X146625000Y-81905000D01*
X146473840Y-81935068D01*
X146345693Y-82020693D01*
X146011386Y-82355000D01*
X145011203Y-82355000D01*
X145044893Y-82273867D01*
X145045108Y-82027215D01*
X144950917Y-81799257D01*
X144776661Y-81624696D01*
X144548867Y-81530107D01*
X144302215Y-81529892D01*
X144074257Y-81624083D01*
X143899696Y-81798339D01*
X143805107Y-82026133D01*
X143805072Y-82065955D01*
X143750000Y-82055000D01*
X141746784Y-82055000D01*
X141850304Y-81951661D01*
X141944893Y-81723867D01*
X141945108Y-81477215D01*
X141850917Y-81249257D01*
X141720000Y-81118111D01*
X141720000Y-80122785D01*
X150379892Y-80122785D01*
X150474083Y-80350743D01*
X150648339Y-80525304D01*
X150876133Y-80619893D01*
X151122785Y-80620108D01*
X151350743Y-80525917D01*
X151525304Y-80351661D01*
X151619893Y-80123867D01*
X151619893Y-80122785D01*
X152379892Y-80122785D01*
X152474083Y-80350743D01*
X152648339Y-80525304D01*
X152876133Y-80619893D01*
X153122785Y-80620108D01*
X153350743Y-80525917D01*
X153525304Y-80351661D01*
X153619893Y-80123867D01*
X153619981Y-80022785D01*
X158604892Y-80022785D01*
X158699083Y-80250743D01*
X158873339Y-80425304D01*
X159101133Y-80519893D01*
X159347785Y-80520108D01*
X159575743Y-80425917D01*
X159750304Y-80251661D01*
X159844893Y-80023867D01*
X159845108Y-79777215D01*
X159750917Y-79549257D01*
X159576661Y-79374696D01*
X159348867Y-79280107D01*
X159102215Y-79279892D01*
X158874257Y-79374083D01*
X158699696Y-79548339D01*
X158605107Y-79776133D01*
X158604892Y-80022785D01*
X153619981Y-80022785D01*
X153620108Y-79877215D01*
X153525917Y-79649257D01*
X153351661Y-79474696D01*
X153123867Y-79380107D01*
X152877215Y-79379892D01*
X152649257Y-79474083D01*
X152474696Y-79648339D01*
X152380107Y-79876133D01*
X152379892Y-80122785D01*
X151619893Y-80122785D01*
X151620108Y-79877215D01*
X151525917Y-79649257D01*
X151351661Y-79474696D01*
X151123867Y-79380107D01*
X150877215Y-79379892D01*
X150649257Y-79474083D01*
X150474696Y-79648339D01*
X150380107Y-79876133D01*
X150379892Y-80122785D01*
X141720000Y-80122785D01*
X141720000Y-79613614D01*
X142260829Y-79072785D01*
X155704892Y-79072785D01*
X155799083Y-79300743D01*
X155973339Y-79475304D01*
X156201133Y-79569893D01*
X156447785Y-79570108D01*
X156675743Y-79475917D01*
X156850304Y-79301661D01*
X156944893Y-79073867D01*
X156945108Y-78827215D01*
X156850917Y-78599257D01*
X156676661Y-78424696D01*
X156448867Y-78330107D01*
X156202215Y-78329892D01*
X155974257Y-78424083D01*
X155799696Y-78598339D01*
X155705107Y-78826133D01*
X155704892Y-79072785D01*
X142260829Y-79072785D01*
X142463612Y-78870002D01*
X148024264Y-78870002D01*
X148175424Y-78839934D01*
X148303571Y-78754309D01*
X148535095Y-78522785D01*
X149904892Y-78522785D01*
X149999083Y-78750743D01*
X150173339Y-78925304D01*
X150401133Y-79019893D01*
X150647785Y-79020108D01*
X150875743Y-78925917D01*
X151050304Y-78751661D01*
X151144893Y-78523867D01*
X151145108Y-78277215D01*
X151050917Y-78049257D01*
X150876661Y-77874696D01*
X150648867Y-77780107D01*
X150402215Y-77779892D01*
X150174257Y-77874083D01*
X149999696Y-78048339D01*
X149905107Y-78276133D01*
X149904892Y-78522785D01*
X148535095Y-78522785D01*
X148979309Y-78078571D01*
X149064934Y-77950424D01*
X149095002Y-77799264D01*
X149095002Y-77326400D01*
X165657731Y-77326400D01*
X165657731Y-79053600D01*
X165680044Y-79172185D01*
X165750128Y-79281098D01*
X165857063Y-79354164D01*
X165984000Y-79379869D01*
X168016000Y-79379869D01*
X168134585Y-79357556D01*
X168243498Y-79287472D01*
X168316564Y-79180537D01*
X168342269Y-79053600D01*
X168342269Y-77326400D01*
X168319956Y-77207815D01*
X168249872Y-77098902D01*
X168142937Y-77025836D01*
X168016000Y-77000131D01*
X165984000Y-77000131D01*
X165865415Y-77022444D01*
X165756502Y-77092528D01*
X165683436Y-77199463D01*
X165657731Y-77326400D01*
X149095002Y-77326400D01*
X149095002Y-73938612D01*
X149413614Y-73620000D01*
X150675000Y-73620000D01*
X150826160Y-73589932D01*
X150954307Y-73504307D01*
X151144307Y-73314307D01*
X151160503Y-73290068D01*
X151229932Y-73186160D01*
X151258554Y-73042269D01*
X151728600Y-73042269D01*
X151847185Y-73019956D01*
X151956098Y-72949872D01*
X152029164Y-72842937D01*
X152054869Y-72716000D01*
X152054869Y-70684000D01*
X152032556Y-70565415D01*
X151962472Y-70456502D01*
X151872461Y-70395000D01*
X169561098Y-70395000D01*
X169597716Y-70402284D01*
X169597716Y-70402284D01*
G37*
X169597716Y-70402284D02*
X169605000Y-70438903D01*
X169605000Y-93061097D01*
X169597716Y-93097716D01*
X169586234Y-93100000D01*
X159800000Y-93100000D01*
X159761094Y-93107879D01*
X159728319Y-93130273D01*
X159706839Y-93163654D01*
X159700000Y-93200000D01*
X159700000Y-102200000D01*
X149500000Y-102200000D01*
X149500000Y-93000000D01*
X149492121Y-92961094D01*
X149469727Y-92928319D01*
X149436346Y-92906839D01*
X149400000Y-92900000D01*
X144620000Y-92900000D01*
X144589932Y-92748840D01*
X144504307Y-92620693D01*
X143653614Y-91770000D01*
X144343263Y-91770000D01*
X144473339Y-91900304D01*
X144701133Y-91994893D01*
X144947785Y-91995108D01*
X145175743Y-91900917D01*
X145350304Y-91726661D01*
X145444893Y-91498867D01*
X145445108Y-91252215D01*
X145350917Y-91024257D01*
X145176661Y-90849696D01*
X144948867Y-90755107D01*
X144702215Y-90754892D01*
X144474257Y-90849083D01*
X144343111Y-90980000D01*
X141265861Y-90980000D01*
X141275743Y-90975917D01*
X141450304Y-90801661D01*
X141524580Y-90622785D01*
X149204892Y-90622785D01*
X149299083Y-90850743D01*
X149473339Y-91025304D01*
X149701133Y-91119893D01*
X149947785Y-91120108D01*
X150175743Y-91025917D01*
X150325108Y-90876813D01*
X150473339Y-91025304D01*
X150701133Y-91119893D01*
X150947785Y-91120108D01*
X151175743Y-91025917D01*
X151325108Y-90876813D01*
X151473339Y-91025304D01*
X151701133Y-91119893D01*
X151947785Y-91120108D01*
X152175743Y-91025917D01*
X152350304Y-90851661D01*
X152444893Y-90623867D01*
X152445108Y-90377215D01*
X152350917Y-90149257D01*
X152176661Y-89974696D01*
X151948867Y-89880107D01*
X151702215Y-89879892D01*
X151474257Y-89974083D01*
X151324892Y-90123187D01*
X151176661Y-89974696D01*
X150948867Y-89880107D01*
X150702215Y-89879892D01*
X150474257Y-89974083D01*
X150324892Y-90123187D01*
X150176661Y-89974696D01*
X150105106Y-89944984D01*
X150247785Y-89945108D01*
X150475743Y-89850917D01*
X150650304Y-89676661D01*
X150744893Y-89448867D01*
X150745108Y-89202215D01*
X150650917Y-88974257D01*
X150476661Y-88799696D01*
X150248867Y-88705107D01*
X150002215Y-88704892D01*
X149774257Y-88799083D01*
X149599696Y-88973339D01*
X149505107Y-89201133D01*
X149504892Y-89447785D01*
X149599083Y-89675743D01*
X149773339Y-89850304D01*
X149844894Y-89880016D01*
X149702215Y-89879892D01*
X149474257Y-89974083D01*
X149299696Y-90148339D01*
X149205107Y-90376133D01*
X149204892Y-90622785D01*
X141524580Y-90622785D01*
X141544893Y-90573867D01*
X141545108Y-90327215D01*
X141450917Y-90099257D01*
X141376813Y-90025023D01*
X141450304Y-89951661D01*
X141535423Y-89746674D01*
X141599083Y-89900743D01*
X141773339Y-90075304D01*
X142001133Y-90169893D01*
X142247785Y-90170108D01*
X142475743Y-90075917D01*
X142650304Y-89901661D01*
X142664588Y-89867260D01*
X142699083Y-89950743D01*
X142873339Y-90125304D01*
X143101133Y-90219893D01*
X143347785Y-90220108D01*
X143575743Y-90125917D01*
X143750304Y-89951661D01*
X143805018Y-89819896D01*
X144047785Y-89820108D01*
X144275743Y-89725917D01*
X144450304Y-89551661D01*
X144544893Y-89323867D01*
X144545108Y-89077215D01*
X144450917Y-88849257D01*
X144276661Y-88674696D01*
X144048867Y-88580107D01*
X143802215Y-88579892D01*
X143574257Y-88674083D01*
X143399696Y-88848339D01*
X143344982Y-88980104D01*
X143102215Y-88979892D01*
X142874257Y-89074083D01*
X142699696Y-89248339D01*
X142685412Y-89282740D01*
X142650917Y-89199257D01*
X142476661Y-89024696D01*
X142248867Y-88930107D01*
X142144975Y-88930016D01*
X142145108Y-88777215D01*
X142050917Y-88549257D01*
X141876661Y-88374696D01*
X141648867Y-88280107D01*
X141402215Y-88279892D01*
X141174257Y-88374083D01*
X140999696Y-88548339D01*
X140905107Y-88776133D01*
X140904929Y-88979982D01*
X140802215Y-88979892D01*
X140574257Y-89074083D01*
X140399696Y-89248339D01*
X140305107Y-89476133D01*
X140304892Y-89722785D01*
X140380380Y-89905478D01*
X140198867Y-89830107D01*
X139952215Y-89829892D01*
X139724257Y-89924083D01*
X139549696Y-90098339D01*
X139455107Y-90326133D01*
X139454892Y-90572785D01*
X139549083Y-90800743D01*
X139723339Y-90975304D01*
X139734648Y-90980000D01*
X128663614Y-90980000D01*
X127245000Y-89561386D01*
X127245000Y-89522785D01*
X138104892Y-89522785D01*
X138199083Y-89750743D01*
X138373339Y-89925304D01*
X138601133Y-90019893D01*
X138847785Y-90020108D01*
X139075743Y-89925917D01*
X139250304Y-89751661D01*
X139344893Y-89523867D01*
X139345108Y-89277215D01*
X139250917Y-89049257D01*
X139076661Y-88874696D01*
X138848867Y-88780107D01*
X138602215Y-88779892D01*
X138374257Y-88874083D01*
X138199696Y-89048339D01*
X138105107Y-89276133D01*
X138104892Y-89522785D01*
X127245000Y-89522785D01*
X127245000Y-86522785D01*
X133504892Y-86522785D01*
X133599083Y-86750743D01*
X133737922Y-86889825D01*
X133760068Y-87001160D01*
X133845693Y-87129307D01*
X133945693Y-87229307D01*
X134073840Y-87314932D01*
X134225000Y-87345000D01*
X144705003Y-87345000D01*
X144704892Y-87472785D01*
X144799083Y-87700743D01*
X144973339Y-87875304D01*
X145201133Y-87969893D01*
X145447785Y-87970108D01*
X145675743Y-87875917D01*
X145850304Y-87701661D01*
X145927588Y-87515542D01*
X145950000Y-87520000D01*
X154343263Y-87520000D01*
X154473339Y-87650304D01*
X154701133Y-87744893D01*
X154947785Y-87745108D01*
X155175743Y-87650917D01*
X155350304Y-87476661D01*
X155444893Y-87248867D01*
X155445108Y-87002215D01*
X155350917Y-86774257D01*
X155176661Y-86599696D01*
X154948867Y-86505107D01*
X154702215Y-86504892D01*
X154474257Y-86599083D01*
X154343111Y-86730000D01*
X148165861Y-86730000D01*
X148175743Y-86725917D01*
X148350304Y-86551661D01*
X148444893Y-86323867D01*
X148445108Y-86077215D01*
X148350917Y-85849257D01*
X148311729Y-85810000D01*
X165637826Y-85810000D01*
X165727922Y-86262944D01*
X165984494Y-86646932D01*
X166368482Y-86903504D01*
X166821426Y-86993600D01*
X167178574Y-86993600D01*
X167631518Y-86903504D01*
X168015506Y-86646932D01*
X168272078Y-86262944D01*
X168362174Y-85810000D01*
X168272078Y-85357056D01*
X168015506Y-84973068D01*
X167631518Y-84716496D01*
X167178574Y-84626400D01*
X166821426Y-84626400D01*
X166368482Y-84716496D01*
X165984494Y-84973068D01*
X165727922Y-85357056D01*
X165637826Y-85810000D01*
X148311729Y-85810000D01*
X148176661Y-85674696D01*
X147948867Y-85580107D01*
X147702215Y-85579892D01*
X147474257Y-85674083D01*
X147299696Y-85848339D01*
X147205107Y-86076133D01*
X147204892Y-86322785D01*
X147299083Y-86550743D01*
X147473339Y-86725304D01*
X147484648Y-86730000D01*
X146113614Y-86730000D01*
X145092739Y-85709125D01*
X145150304Y-85651661D01*
X145244893Y-85423867D01*
X145245108Y-85177215D01*
X145150917Y-84949257D01*
X144976661Y-84774696D01*
X144748867Y-84680107D01*
X144502215Y-84679892D01*
X144274257Y-84774083D01*
X144099696Y-84948339D01*
X144044982Y-85080104D01*
X143802215Y-85079892D01*
X143574257Y-85174083D01*
X143525067Y-85223187D01*
X143476661Y-85174696D01*
X143248867Y-85080107D01*
X143002215Y-85079892D01*
X142774257Y-85174083D01*
X142599696Y-85348339D01*
X142505107Y-85576133D01*
X142504892Y-85822785D01*
X142599083Y-86050743D01*
X142773339Y-86225304D01*
X143001133Y-86319893D01*
X143247785Y-86320108D01*
X143475743Y-86225917D01*
X143524933Y-86176813D01*
X143573339Y-86225304D01*
X143801133Y-86319893D01*
X144047785Y-86320108D01*
X144275743Y-86225917D01*
X144384118Y-86117732D01*
X144821386Y-86555000D01*
X134731965Y-86555000D01*
X134744893Y-86523867D01*
X134745108Y-86277215D01*
X134650917Y-86049257D01*
X134476661Y-85874696D01*
X134248867Y-85780107D01*
X134002215Y-85779892D01*
X133774257Y-85874083D01*
X133599696Y-86048339D01*
X133505107Y-86276133D01*
X133504892Y-86522785D01*
X127245000Y-86522785D01*
X127245000Y-85622785D01*
X140804892Y-85622785D01*
X140899083Y-85850743D01*
X141073339Y-86025304D01*
X141301133Y-86119893D01*
X141547785Y-86120108D01*
X141775743Y-86025917D01*
X141950304Y-85851661D01*
X142044893Y-85623867D01*
X142045108Y-85377215D01*
X141950917Y-85149257D01*
X141776661Y-84974696D01*
X141548867Y-84880107D01*
X141302215Y-84879892D01*
X141074257Y-84974083D01*
X140899696Y-85148339D01*
X140805107Y-85376133D01*
X140804892Y-85622785D01*
X127245000Y-85622785D01*
X127245000Y-83100000D01*
X127214932Y-82948840D01*
X127129307Y-82820693D01*
X126895000Y-82586386D01*
X126895000Y-82575822D01*
X127001133Y-82619893D01*
X127247785Y-82620108D01*
X127475743Y-82525917D01*
X127531758Y-82470000D01*
X128949178Y-82470000D01*
X128905107Y-82576133D01*
X128904892Y-82822785D01*
X128999083Y-83050743D01*
X129173339Y-83225304D01*
X129401133Y-83319893D01*
X129647785Y-83320108D01*
X129875743Y-83225917D01*
X130050304Y-83051661D01*
X130144893Y-82823867D01*
X130144911Y-82803525D01*
X130645693Y-83304307D01*
X130773840Y-83389932D01*
X130925000Y-83420000D01*
X134728416Y-83420000D01*
X134705107Y-83476133D01*
X134704892Y-83722785D01*
X134799083Y-83950743D01*
X134973339Y-84125304D01*
X135201133Y-84219893D01*
X135447785Y-84220108D01*
X135513896Y-84192791D01*
X135525000Y-84195000D01*
X143625000Y-84195000D01*
X143776160Y-84164932D01*
X143904307Y-84079307D01*
X144288614Y-83695000D01*
X146040702Y-83695000D01*
X145955107Y-83901133D01*
X145954892Y-84147785D01*
X145957840Y-84154919D01*
X145927215Y-84154892D01*
X145699257Y-84249083D01*
X145524696Y-84423339D01*
X145430107Y-84651133D01*
X145429892Y-84897785D01*
X145524083Y-85125743D01*
X145698339Y-85300304D01*
X145926133Y-85394893D01*
X146172785Y-85395108D01*
X146400743Y-85300917D01*
X146575304Y-85126661D01*
X146669893Y-84898867D01*
X146670108Y-84652215D01*
X146667160Y-84645081D01*
X146697785Y-84645108D01*
X146830029Y-84590465D01*
X146829892Y-84747785D01*
X146924083Y-84975743D01*
X147098339Y-85150304D01*
X147326133Y-85244893D01*
X147572785Y-85245108D01*
X147800743Y-85150917D01*
X147975304Y-84976661D01*
X148069893Y-84748867D01*
X148070108Y-84502215D01*
X147975917Y-84274257D01*
X147824710Y-84122785D01*
X150379892Y-84122785D01*
X150474083Y-84350743D01*
X150648339Y-84525304D01*
X150876133Y-84619893D01*
X151122785Y-84620108D01*
X151350743Y-84525917D01*
X151525304Y-84351661D01*
X151619893Y-84123867D01*
X151619893Y-84122785D01*
X152379892Y-84122785D01*
X152474083Y-84350743D01*
X152648339Y-84525304D01*
X152876133Y-84619893D01*
X153122785Y-84620108D01*
X153350743Y-84525917D01*
X153525304Y-84351661D01*
X153619893Y-84123867D01*
X153620068Y-83922785D01*
X158104892Y-83922785D01*
X158199083Y-84150743D01*
X158373339Y-84325304D01*
X158601133Y-84419893D01*
X158847785Y-84420108D01*
X159075743Y-84325917D01*
X159250304Y-84151661D01*
X159344893Y-83923867D01*
X159345108Y-83677215D01*
X159250917Y-83449257D01*
X159076661Y-83274696D01*
X159065352Y-83270000D01*
X165637826Y-83270000D01*
X165727922Y-83722944D01*
X165984494Y-84106932D01*
X166368482Y-84363504D01*
X166821426Y-84453600D01*
X167178574Y-84453600D01*
X167631518Y-84363504D01*
X168015506Y-84106932D01*
X168272078Y-83722944D01*
X168362174Y-83270000D01*
X168272078Y-82817056D01*
X168015506Y-82433068D01*
X167631518Y-82176496D01*
X167178574Y-82086400D01*
X166821426Y-82086400D01*
X166368482Y-82176496D01*
X165984494Y-82433068D01*
X165727922Y-82817056D01*
X165637826Y-83270000D01*
X159065352Y-83270000D01*
X158848867Y-83180107D01*
X158602215Y-83179892D01*
X158374257Y-83274083D01*
X158199696Y-83448339D01*
X158105107Y-83676133D01*
X158104892Y-83922785D01*
X153620068Y-83922785D01*
X153620108Y-83877215D01*
X153525917Y-83649257D01*
X153351661Y-83474696D01*
X153123867Y-83380107D01*
X152877215Y-83379892D01*
X152649257Y-83474083D01*
X152474696Y-83648339D01*
X152380107Y-83876133D01*
X152379892Y-84122785D01*
X151619893Y-84122785D01*
X151620108Y-83877215D01*
X151525917Y-83649257D01*
X151351661Y-83474696D01*
X151123867Y-83380107D01*
X150877215Y-83379892D01*
X150649257Y-83474083D01*
X150474696Y-83648339D01*
X150380107Y-83876133D01*
X150379892Y-84122785D01*
X147824710Y-84122785D01*
X147801661Y-84099696D01*
X147573867Y-84005107D01*
X147327215Y-84004892D01*
X147194971Y-84059535D01*
X147195108Y-83902215D01*
X147100917Y-83674257D01*
X146926661Y-83499696D01*
X146794939Y-83445000D01*
X147243263Y-83445000D01*
X147373339Y-83575304D01*
X147601133Y-83669893D01*
X147847785Y-83670108D01*
X148075743Y-83575917D01*
X148250304Y-83401661D01*
X148344893Y-83173867D01*
X148344937Y-83122785D01*
X151379892Y-83122785D01*
X151474083Y-83350743D01*
X151648339Y-83525304D01*
X151876133Y-83619893D01*
X152122785Y-83620108D01*
X152350743Y-83525917D01*
X152525304Y-83351661D01*
X152619893Y-83123867D01*
X152620108Y-82877215D01*
X152525917Y-82649257D01*
X152351661Y-82474696D01*
X152123867Y-82380107D01*
X151877215Y-82379892D01*
X151649257Y-82474083D01*
X151474696Y-82648339D01*
X151380107Y-82876133D01*
X151379892Y-83122785D01*
X148344937Y-83122785D01*
X148345108Y-82927215D01*
X148250917Y-82699257D01*
X148226813Y-82675111D01*
X148250304Y-82651661D01*
X148344893Y-82423867D01*
X148345108Y-82177215D01*
X148322618Y-82122785D01*
X150379892Y-82122785D01*
X150474083Y-82350743D01*
X150648339Y-82525304D01*
X150876133Y-82619893D01*
X151122785Y-82620108D01*
X151350743Y-82525917D01*
X151525304Y-82351661D01*
X151619893Y-82123867D01*
X151619893Y-82122785D01*
X152379892Y-82122785D01*
X152474083Y-82350743D01*
X152648339Y-82525304D01*
X152876133Y-82619893D01*
X153122785Y-82620108D01*
X153350743Y-82525917D01*
X153429011Y-82447785D01*
X157829892Y-82447785D01*
X157924083Y-82675743D01*
X158098339Y-82850304D01*
X158326133Y-82944893D01*
X158572785Y-82945108D01*
X158800743Y-82850917D01*
X158975304Y-82676661D01*
X159069893Y-82448867D01*
X159070108Y-82202215D01*
X158975917Y-81974257D01*
X158801661Y-81799696D01*
X158573867Y-81705107D01*
X158327215Y-81704892D01*
X158099257Y-81799083D01*
X157924696Y-81973339D01*
X157830107Y-82201133D01*
X157829892Y-82447785D01*
X153429011Y-82447785D01*
X153525304Y-82351661D01*
X153619893Y-82123867D01*
X153620108Y-81877215D01*
X153597618Y-81822785D01*
X156504892Y-81822785D01*
X156599083Y-82050743D01*
X156773339Y-82225304D01*
X157001133Y-82319893D01*
X157247785Y-82320108D01*
X157475743Y-82225917D01*
X157650304Y-82051661D01*
X157744893Y-81823867D01*
X157745108Y-81577215D01*
X157650917Y-81349257D01*
X157476661Y-81174696D01*
X157248867Y-81080107D01*
X157002215Y-81079892D01*
X156774257Y-81174083D01*
X156599696Y-81348339D01*
X156505107Y-81576133D01*
X156504892Y-81822785D01*
X153597618Y-81822785D01*
X153525917Y-81649257D01*
X153351661Y-81474696D01*
X153123867Y-81380107D01*
X152877215Y-81379892D01*
X152649257Y-81474083D01*
X152474696Y-81648339D01*
X152380107Y-81876133D01*
X152379892Y-82122785D01*
X151619893Y-82122785D01*
X151620108Y-81877215D01*
X151525917Y-81649257D01*
X151351661Y-81474696D01*
X151123867Y-81380107D01*
X150877215Y-81379892D01*
X150649257Y-81474083D01*
X150474696Y-81648339D01*
X150380107Y-81876133D01*
X150379892Y-82122785D01*
X148322618Y-82122785D01*
X148250917Y-81949257D01*
X148226813Y-81925111D01*
X148250304Y-81901661D01*
X148344893Y-81673867D01*
X148345108Y-81427215D01*
X148250917Y-81199257D01*
X148174579Y-81122785D01*
X151379892Y-81122785D01*
X151474083Y-81350743D01*
X151648339Y-81525304D01*
X151876133Y-81619893D01*
X152122785Y-81620108D01*
X152350743Y-81525917D01*
X152525304Y-81351661D01*
X152619893Y-81123867D01*
X152620108Y-80877215D01*
X152559280Y-80730000D01*
X165637826Y-80730000D01*
X165727922Y-81182944D01*
X165984494Y-81566932D01*
X166368482Y-81823504D01*
X166821426Y-81913600D01*
X167178574Y-81913600D01*
X167631518Y-81823504D01*
X168015506Y-81566932D01*
X168272078Y-81182944D01*
X168362174Y-80730000D01*
X168272078Y-80277056D01*
X168015506Y-79893068D01*
X167631518Y-79636496D01*
X167178574Y-79546400D01*
X166821426Y-79546400D01*
X166368482Y-79636496D01*
X165984494Y-79893068D01*
X165727922Y-80277056D01*
X165637826Y-80730000D01*
X152559280Y-80730000D01*
X152525917Y-80649257D01*
X152351661Y-80474696D01*
X152123867Y-80380107D01*
X151877215Y-80379892D01*
X151649257Y-80474083D01*
X151474696Y-80648339D01*
X151380107Y-80876133D01*
X151379892Y-81122785D01*
X148174579Y-81122785D01*
X148076661Y-81024696D01*
X147848867Y-80930107D01*
X147602215Y-80929892D01*
X147374257Y-81024083D01*
X147199696Y-81198339D01*
X147105107Y-81426133D01*
X147104892Y-81672785D01*
X147199083Y-81900743D01*
X147203333Y-81905000D01*
X146625000Y-81905000D01*
X146473840Y-81935068D01*
X146345693Y-82020693D01*
X146011386Y-82355000D01*
X145011203Y-82355000D01*
X145044893Y-82273867D01*
X145045108Y-82027215D01*
X144950917Y-81799257D01*
X144776661Y-81624696D01*
X144548867Y-81530107D01*
X144302215Y-81529892D01*
X144074257Y-81624083D01*
X143899696Y-81798339D01*
X143805107Y-82026133D01*
X143805072Y-82065955D01*
X143750000Y-82055000D01*
X141746784Y-82055000D01*
X141850304Y-81951661D01*
X141944893Y-81723867D01*
X141945108Y-81477215D01*
X141850917Y-81249257D01*
X141720000Y-81118111D01*
X141720000Y-80122785D01*
X150379892Y-80122785D01*
X150474083Y-80350743D01*
X150648339Y-80525304D01*
X150876133Y-80619893D01*
X151122785Y-80620108D01*
X151350743Y-80525917D01*
X151525304Y-80351661D01*
X151619893Y-80123867D01*
X151619893Y-80122785D01*
X152379892Y-80122785D01*
X152474083Y-80350743D01*
X152648339Y-80525304D01*
X152876133Y-80619893D01*
X153122785Y-80620108D01*
X153350743Y-80525917D01*
X153525304Y-80351661D01*
X153619893Y-80123867D01*
X153619981Y-80022785D01*
X158604892Y-80022785D01*
X158699083Y-80250743D01*
X158873339Y-80425304D01*
X159101133Y-80519893D01*
X159347785Y-80520108D01*
X159575743Y-80425917D01*
X159750304Y-80251661D01*
X159844893Y-80023867D01*
X159845108Y-79777215D01*
X159750917Y-79549257D01*
X159576661Y-79374696D01*
X159348867Y-79280107D01*
X159102215Y-79279892D01*
X158874257Y-79374083D01*
X158699696Y-79548339D01*
X158605107Y-79776133D01*
X158604892Y-80022785D01*
X153619981Y-80022785D01*
X153620108Y-79877215D01*
X153525917Y-79649257D01*
X153351661Y-79474696D01*
X153123867Y-79380107D01*
X152877215Y-79379892D01*
X152649257Y-79474083D01*
X152474696Y-79648339D01*
X152380107Y-79876133D01*
X152379892Y-80122785D01*
X151619893Y-80122785D01*
X151620108Y-79877215D01*
X151525917Y-79649257D01*
X151351661Y-79474696D01*
X151123867Y-79380107D01*
X150877215Y-79379892D01*
X150649257Y-79474083D01*
X150474696Y-79648339D01*
X150380107Y-79876133D01*
X150379892Y-80122785D01*
X141720000Y-80122785D01*
X141720000Y-79613614D01*
X142260829Y-79072785D01*
X155704892Y-79072785D01*
X155799083Y-79300743D01*
X155973339Y-79475304D01*
X156201133Y-79569893D01*
X156447785Y-79570108D01*
X156675743Y-79475917D01*
X156850304Y-79301661D01*
X156944893Y-79073867D01*
X156945108Y-78827215D01*
X156850917Y-78599257D01*
X156676661Y-78424696D01*
X156448867Y-78330107D01*
X156202215Y-78329892D01*
X155974257Y-78424083D01*
X155799696Y-78598339D01*
X155705107Y-78826133D01*
X155704892Y-79072785D01*
X142260829Y-79072785D01*
X142463612Y-78870002D01*
X148024264Y-78870002D01*
X148175424Y-78839934D01*
X148303571Y-78754309D01*
X148535095Y-78522785D01*
X149904892Y-78522785D01*
X149999083Y-78750743D01*
X150173339Y-78925304D01*
X150401133Y-79019893D01*
X150647785Y-79020108D01*
X150875743Y-78925917D01*
X151050304Y-78751661D01*
X151144893Y-78523867D01*
X151145108Y-78277215D01*
X151050917Y-78049257D01*
X150876661Y-77874696D01*
X150648867Y-77780107D01*
X150402215Y-77779892D01*
X150174257Y-77874083D01*
X149999696Y-78048339D01*
X149905107Y-78276133D01*
X149904892Y-78522785D01*
X148535095Y-78522785D01*
X148979309Y-78078571D01*
X149064934Y-77950424D01*
X149095002Y-77799264D01*
X149095002Y-77326400D01*
X165657731Y-77326400D01*
X165657731Y-79053600D01*
X165680044Y-79172185D01*
X165750128Y-79281098D01*
X165857063Y-79354164D01*
X165984000Y-79379869D01*
X168016000Y-79379869D01*
X168134585Y-79357556D01*
X168243498Y-79287472D01*
X168316564Y-79180537D01*
X168342269Y-79053600D01*
X168342269Y-77326400D01*
X168319956Y-77207815D01*
X168249872Y-77098902D01*
X168142937Y-77025836D01*
X168016000Y-77000131D01*
X165984000Y-77000131D01*
X165865415Y-77022444D01*
X165756502Y-77092528D01*
X165683436Y-77199463D01*
X165657731Y-77326400D01*
X149095002Y-77326400D01*
X149095002Y-73938612D01*
X149413614Y-73620000D01*
X150675000Y-73620000D01*
X150826160Y-73589932D01*
X150954307Y-73504307D01*
X151144307Y-73314307D01*
X151160503Y-73290068D01*
X151229932Y-73186160D01*
X151258554Y-73042269D01*
X151728600Y-73042269D01*
X151847185Y-73019956D01*
X151956098Y-72949872D01*
X152029164Y-72842937D01*
X152054869Y-72716000D01*
X152054869Y-70684000D01*
X152032556Y-70565415D01*
X151962472Y-70456502D01*
X151872461Y-70395000D01*
X169561098Y-70395000D01*
X169597716Y-70402284D01*
M02*
