G04 #@! TF.FileFunction,Copper,L3,Inr,Signal*
%FSLAX46Y46*%
G04 Gerber Fmt 4.6, Leading zero omitted, Abs format (unit mm)*
G04 Created by KiCad (PCBNEW 4.0.6-e0-6349~53~ubuntu14.04.1) date Sat Apr 15 23:33:45 2017*
%MOMM*%
%LPD*%
G01*
G04 APERTURE LIST*
%ADD10C,0.100000*%
%ADD11C,0.600000*%
%ADD12R,2.032000X1.727200*%
%ADD13O,2.032000X1.727200*%
%ADD14C,1.000000*%
%ADD15C,0.500000*%
%ADD16C,0.150000*%
%ADD17C,0.200000*%
G04 APERTURE END LIST*
D10*
D11*
X152000000Y-83000000D03*
X152000000Y-81000000D03*
X153000000Y-84000000D03*
X151000000Y-84000000D03*
X153000000Y-82000000D03*
X151000000Y-82000000D03*
X153000000Y-80000000D03*
X151000000Y-80000000D03*
X143425000Y-83150000D03*
X144425000Y-82150000D03*
D12*
X167000000Y-78190000D03*
D13*
X167000000Y-80730000D03*
X167000000Y-83270000D03*
X167000000Y-85810000D03*
D14*
X138270000Y-72635000D03*
X138270000Y-71365000D03*
X137000000Y-72635000D03*
X137000000Y-71365000D03*
X135730000Y-72635000D03*
X135730000Y-71365000D03*
X130270000Y-72635000D03*
X130270000Y-71365000D03*
X129000000Y-72635000D03*
X129000000Y-71365000D03*
X127730000Y-72635000D03*
X127730000Y-71365000D03*
D11*
X129525000Y-82700000D03*
X149825000Y-90500000D03*
X143325000Y-74400000D03*
X147450000Y-84625000D03*
X135325000Y-77500000D03*
X140725000Y-76900000D03*
X138025000Y-83200000D03*
X151825000Y-90500000D03*
X150825000Y-90500000D03*
X140925000Y-90450000D03*
X139925000Y-80400000D03*
X140075000Y-90450000D03*
X139325000Y-79800000D03*
X143925000Y-89200000D03*
X143925000Y-85700000D03*
X143225000Y-89600000D03*
X143125000Y-85700000D03*
X158650000Y-85525000D03*
X158650000Y-87050000D03*
X158650000Y-86300000D03*
X134225000Y-90175000D03*
X156350000Y-84275000D03*
X156300000Y-79725000D03*
X142125000Y-89550000D03*
X141450000Y-83075000D03*
X141525000Y-88900000D03*
X141425000Y-85500000D03*
X138725000Y-89400000D03*
X141325000Y-81600000D03*
X156325000Y-78950000D03*
X147000000Y-86575000D03*
X159225000Y-79900000D03*
X157125000Y-81700000D03*
X158450000Y-82325000D03*
X158725000Y-83800000D03*
X144625000Y-85300000D03*
X154825000Y-87125000D03*
X150525000Y-78400000D03*
X147625000Y-76000000D03*
X142475000Y-76875000D03*
X146575000Y-84025000D03*
X129475000Y-74950000D03*
X138025000Y-81100000D03*
X130025000Y-81500000D03*
X136825000Y-82100000D03*
X129400000Y-75975000D03*
X132775000Y-75075000D03*
X147725000Y-83050000D03*
X135325000Y-83600000D03*
X147725000Y-82300000D03*
X127125000Y-82000000D03*
X129675000Y-80075000D03*
X147725000Y-77500000D03*
X147725000Y-81550000D03*
X140600000Y-81000000D03*
X130300000Y-92400000D03*
X140925000Y-89600000D03*
X144225000Y-94225000D03*
X127025000Y-78775000D03*
X145325000Y-87350000D03*
X134125000Y-86400000D03*
X134025000Y-81400000D03*
X144825000Y-91375000D03*
X127025000Y-80725000D03*
X146075000Y-84850000D03*
D15*
X140725000Y-76900000D02*
X135925000Y-76900000D01*
X135925000Y-76900000D02*
X135325000Y-77500000D01*
D16*
X154825000Y-87125000D02*
X145950000Y-87125000D01*
X144625000Y-85800000D02*
X144625000Y-85300000D01*
X145950000Y-87125000D02*
X144625000Y-85800000D01*
X129475000Y-74950000D02*
X129475000Y-74350000D01*
X138270000Y-73655000D02*
X138270000Y-72635000D01*
X137900000Y-74025000D02*
X138270000Y-73655000D01*
X129800000Y-74025000D02*
X137900000Y-74025000D01*
X129475000Y-74350000D02*
X129800000Y-74025000D01*
X132125000Y-81500000D02*
X132625000Y-82000000D01*
X132625000Y-82000000D02*
X135625000Y-82000000D01*
X135625000Y-82000000D02*
X136225000Y-81400000D01*
X136225000Y-81400000D02*
X137725000Y-81400000D01*
X137725000Y-81400000D02*
X138025000Y-81100000D01*
X130025000Y-81500000D02*
X132125000Y-81500000D01*
X147725000Y-83050000D02*
X146575000Y-83050000D01*
X135525000Y-83800000D02*
X135325000Y-83600000D01*
X143625000Y-83800000D02*
X135525000Y-83800000D01*
X144125000Y-83300000D02*
X143625000Y-83800000D01*
X146325000Y-83300000D02*
X144125000Y-83300000D01*
X146575000Y-83050000D02*
X146325000Y-83300000D01*
X147725000Y-82300000D02*
X146625000Y-82300000D01*
X127200000Y-82075000D02*
X127125000Y-82000000D01*
X129975000Y-82075000D02*
X127200000Y-82075000D01*
X130925000Y-83025000D02*
X129975000Y-82075000D01*
X137100000Y-83025000D02*
X130925000Y-83025000D01*
X137675000Y-82450000D02*
X137100000Y-83025000D01*
X143750000Y-82450000D02*
X137675000Y-82450000D01*
X144050000Y-82750000D02*
X143750000Y-82450000D01*
X146175000Y-82750000D02*
X144050000Y-82750000D01*
X146625000Y-82300000D02*
X146175000Y-82750000D01*
X132000000Y-80075000D02*
X129675000Y-80075000D01*
X131950000Y-80075000D02*
X132000000Y-80075000D01*
X132000000Y-80075000D02*
X138025000Y-80075000D01*
X139825000Y-77500000D02*
X147725000Y-77500000D01*
X139175000Y-77500000D02*
X139825000Y-77500000D01*
X138725000Y-77950000D02*
X139175000Y-77500000D01*
X138725000Y-79375000D02*
X138725000Y-77950000D01*
X138025000Y-80075000D02*
X138725000Y-79375000D01*
X144225000Y-94225000D02*
X144225000Y-92900000D01*
X127025000Y-79700000D02*
X127025000Y-78775000D01*
X126025000Y-80700000D02*
X127025000Y-79700000D01*
X126025000Y-83125000D02*
X126025000Y-80700000D01*
X126549998Y-83649998D02*
X126025000Y-83125000D01*
X126549998Y-89849264D02*
X126549998Y-83649998D01*
X128375736Y-91675002D02*
X126549998Y-89849264D01*
X143000002Y-91675002D02*
X128375736Y-91675002D01*
X144225000Y-92900000D02*
X143000002Y-91675002D01*
X145325000Y-87350000D02*
X145325000Y-87300000D01*
X145325000Y-87300000D02*
X144975000Y-86950000D01*
X144975000Y-86950000D02*
X134225000Y-86950000D01*
X134225000Y-86950000D02*
X134125000Y-86850000D01*
X134125000Y-86850000D02*
X134125000Y-86400000D01*
X144825000Y-91375000D02*
X128500000Y-91375000D01*
X126500000Y-81250000D02*
X127025000Y-80725000D01*
X126500000Y-82750000D02*
X126500000Y-81250000D01*
X126850000Y-83100000D02*
X126500000Y-82750000D01*
X126850000Y-89725000D02*
X126850000Y-83100000D01*
X128500000Y-91375000D02*
X126850000Y-89725000D01*
D17*
G36*
X140112590Y-69577060D02*
X140150650Y-69768403D01*
X140150650Y-69768404D01*
X140209631Y-69910794D01*
X140318017Y-70073005D01*
X140383405Y-70138391D01*
X140426995Y-70181982D01*
X140589206Y-70290369D01*
X140589208Y-70290370D01*
X140731598Y-70349350D01*
X140922940Y-70387410D01*
X140961843Y-70387410D01*
X141000000Y-70395000D01*
X175561098Y-70395000D01*
X175597716Y-70402284D01*
X175605000Y-70438903D01*
X175605000Y-93061097D01*
X175597716Y-93097716D01*
X175586234Y-93100000D01*
X159800000Y-93100000D01*
X159761094Y-93107879D01*
X159728319Y-93130273D01*
X159706839Y-93163654D01*
X159700000Y-93200000D01*
X159700000Y-102200000D01*
X149500000Y-102200000D01*
X149500000Y-93000000D01*
X149492121Y-92961094D01*
X149469727Y-92928319D01*
X149436346Y-92906839D01*
X149400000Y-92900000D01*
X144620000Y-92900000D01*
X144589932Y-92748840D01*
X144504307Y-92620693D01*
X143653614Y-91770000D01*
X144343263Y-91770000D01*
X144473339Y-91900304D01*
X144701133Y-91994893D01*
X144947785Y-91995108D01*
X145175743Y-91900917D01*
X145350304Y-91726661D01*
X145444893Y-91498867D01*
X145445108Y-91252215D01*
X145350917Y-91024257D01*
X145176661Y-90849696D01*
X144948867Y-90755107D01*
X144702215Y-90754892D01*
X144474257Y-90849083D01*
X144343111Y-90980000D01*
X141265861Y-90980000D01*
X141275743Y-90975917D01*
X141450304Y-90801661D01*
X141524580Y-90622785D01*
X149204892Y-90622785D01*
X149299083Y-90850743D01*
X149473339Y-91025304D01*
X149701133Y-91119893D01*
X149947785Y-91120108D01*
X150175743Y-91025917D01*
X150325108Y-90876813D01*
X150473339Y-91025304D01*
X150701133Y-91119893D01*
X150947785Y-91120108D01*
X151175743Y-91025917D01*
X151325108Y-90876813D01*
X151473339Y-91025304D01*
X151701133Y-91119893D01*
X151947785Y-91120108D01*
X152175743Y-91025917D01*
X152350304Y-90851661D01*
X152444893Y-90623867D01*
X152445108Y-90377215D01*
X152350917Y-90149257D01*
X152176661Y-89974696D01*
X151948867Y-89880107D01*
X151702215Y-89879892D01*
X151474257Y-89974083D01*
X151324892Y-90123187D01*
X151176661Y-89974696D01*
X150948867Y-89880107D01*
X150702215Y-89879892D01*
X150474257Y-89974083D01*
X150324892Y-90123187D01*
X150176661Y-89974696D01*
X149948867Y-89880107D01*
X149702215Y-89879892D01*
X149474257Y-89974083D01*
X149299696Y-90148339D01*
X149205107Y-90376133D01*
X149204892Y-90622785D01*
X141524580Y-90622785D01*
X141544893Y-90573867D01*
X141545108Y-90327215D01*
X141450917Y-90099257D01*
X141376813Y-90025023D01*
X141450304Y-89951661D01*
X141535423Y-89746674D01*
X141599083Y-89900743D01*
X141773339Y-90075304D01*
X142001133Y-90169893D01*
X142247785Y-90170108D01*
X142475743Y-90075917D01*
X142650304Y-89901661D01*
X142664588Y-89867260D01*
X142699083Y-89950743D01*
X142873339Y-90125304D01*
X143101133Y-90219893D01*
X143347785Y-90220108D01*
X143575743Y-90125917D01*
X143750304Y-89951661D01*
X143805018Y-89819896D01*
X144047785Y-89820108D01*
X144275743Y-89725917D01*
X144450304Y-89551661D01*
X144544893Y-89323867D01*
X144545108Y-89077215D01*
X144450917Y-88849257D01*
X144276661Y-88674696D01*
X144048867Y-88580107D01*
X143802215Y-88579892D01*
X143574257Y-88674083D01*
X143399696Y-88848339D01*
X143344982Y-88980104D01*
X143102215Y-88979892D01*
X142874257Y-89074083D01*
X142699696Y-89248339D01*
X142685412Y-89282740D01*
X142650917Y-89199257D01*
X142476661Y-89024696D01*
X142248867Y-88930107D01*
X142144975Y-88930016D01*
X142145108Y-88777215D01*
X142050917Y-88549257D01*
X141876661Y-88374696D01*
X141648867Y-88280107D01*
X141402215Y-88279892D01*
X141174257Y-88374083D01*
X140999696Y-88548339D01*
X140905107Y-88776133D01*
X140904929Y-88979982D01*
X140802215Y-88979892D01*
X140574257Y-89074083D01*
X140399696Y-89248339D01*
X140305107Y-89476133D01*
X140304892Y-89722785D01*
X140380380Y-89905478D01*
X140198867Y-89830107D01*
X139952215Y-89829892D01*
X139724257Y-89924083D01*
X139549696Y-90098339D01*
X139455107Y-90326133D01*
X139454892Y-90572785D01*
X139549083Y-90800743D01*
X139723339Y-90975304D01*
X139734648Y-90980000D01*
X128663614Y-90980000D01*
X127245000Y-89561386D01*
X127245000Y-89522785D01*
X138104892Y-89522785D01*
X138199083Y-89750743D01*
X138373339Y-89925304D01*
X138601133Y-90019893D01*
X138847785Y-90020108D01*
X139075743Y-89925917D01*
X139250304Y-89751661D01*
X139344893Y-89523867D01*
X139345108Y-89277215D01*
X139250917Y-89049257D01*
X139076661Y-88874696D01*
X138848867Y-88780107D01*
X138602215Y-88779892D01*
X138374257Y-88874083D01*
X138199696Y-89048339D01*
X138105107Y-89276133D01*
X138104892Y-89522785D01*
X127245000Y-89522785D01*
X127245000Y-86522785D01*
X133504892Y-86522785D01*
X133599083Y-86750743D01*
X133737922Y-86889825D01*
X133760068Y-87001160D01*
X133845693Y-87129307D01*
X133945693Y-87229307D01*
X134073840Y-87314932D01*
X134225000Y-87345000D01*
X144705003Y-87345000D01*
X144704892Y-87472785D01*
X144799083Y-87700743D01*
X144973339Y-87875304D01*
X145201133Y-87969893D01*
X145447785Y-87970108D01*
X145675743Y-87875917D01*
X145850304Y-87701661D01*
X145927588Y-87515542D01*
X145950000Y-87520000D01*
X154343263Y-87520000D01*
X154473339Y-87650304D01*
X154701133Y-87744893D01*
X154947785Y-87745108D01*
X155175743Y-87650917D01*
X155350304Y-87476661D01*
X155444893Y-87248867D01*
X155445108Y-87002215D01*
X155350917Y-86774257D01*
X155176661Y-86599696D01*
X154948867Y-86505107D01*
X154702215Y-86504892D01*
X154474257Y-86599083D01*
X154343111Y-86730000D01*
X147606965Y-86730000D01*
X147619893Y-86698867D01*
X147620108Y-86452215D01*
X147525917Y-86224257D01*
X147351661Y-86049696D01*
X147123867Y-85955107D01*
X146877215Y-85954892D01*
X146649257Y-86049083D01*
X146474696Y-86223339D01*
X146380107Y-86451133D01*
X146379892Y-86697785D01*
X146393203Y-86730000D01*
X146113614Y-86730000D01*
X145193614Y-85810000D01*
X165637826Y-85810000D01*
X165727922Y-86262944D01*
X165984494Y-86646932D01*
X166368482Y-86903504D01*
X166821426Y-86993600D01*
X167178574Y-86993600D01*
X167631518Y-86903504D01*
X168015506Y-86646932D01*
X168272078Y-86262944D01*
X168362174Y-85810000D01*
X168272078Y-85357056D01*
X168015506Y-84973068D01*
X167631518Y-84716496D01*
X167178574Y-84626400D01*
X166821426Y-84626400D01*
X166368482Y-84716496D01*
X165984494Y-84973068D01*
X165727922Y-85357056D01*
X165637826Y-85810000D01*
X145193614Y-85810000D01*
X145092739Y-85709125D01*
X145150304Y-85651661D01*
X145244893Y-85423867D01*
X145245108Y-85177215D01*
X145150917Y-84949257D01*
X144976661Y-84774696D01*
X144748867Y-84680107D01*
X144502215Y-84679892D01*
X144274257Y-84774083D01*
X144099696Y-84948339D01*
X144044982Y-85080104D01*
X143802215Y-85079892D01*
X143574257Y-85174083D01*
X143525067Y-85223187D01*
X143476661Y-85174696D01*
X143248867Y-85080107D01*
X143002215Y-85079892D01*
X142774257Y-85174083D01*
X142599696Y-85348339D01*
X142505107Y-85576133D01*
X142504892Y-85822785D01*
X142599083Y-86050743D01*
X142773339Y-86225304D01*
X143001133Y-86319893D01*
X143247785Y-86320108D01*
X143475743Y-86225917D01*
X143524933Y-86176813D01*
X143573339Y-86225304D01*
X143801133Y-86319893D01*
X144047785Y-86320108D01*
X144275743Y-86225917D01*
X144384118Y-86117732D01*
X144821386Y-86555000D01*
X134731965Y-86555000D01*
X134744893Y-86523867D01*
X134745108Y-86277215D01*
X134650917Y-86049257D01*
X134476661Y-85874696D01*
X134248867Y-85780107D01*
X134002215Y-85779892D01*
X133774257Y-85874083D01*
X133599696Y-86048339D01*
X133505107Y-86276133D01*
X133504892Y-86522785D01*
X127245000Y-86522785D01*
X127245000Y-85622785D01*
X140804892Y-85622785D01*
X140899083Y-85850743D01*
X141073339Y-86025304D01*
X141301133Y-86119893D01*
X141547785Y-86120108D01*
X141775743Y-86025917D01*
X141950304Y-85851661D01*
X142044893Y-85623867D01*
X142045108Y-85377215D01*
X141950917Y-85149257D01*
X141776661Y-84974696D01*
X141548867Y-84880107D01*
X141302215Y-84879892D01*
X141074257Y-84974083D01*
X140899696Y-85148339D01*
X140805107Y-85376133D01*
X140804892Y-85622785D01*
X127245000Y-85622785D01*
X127245000Y-83100000D01*
X127214932Y-82948840D01*
X127129307Y-82820693D01*
X126895000Y-82586386D01*
X126895000Y-82575822D01*
X127001133Y-82619893D01*
X127247785Y-82620108D01*
X127475743Y-82525917D01*
X127531758Y-82470000D01*
X128949178Y-82470000D01*
X128905107Y-82576133D01*
X128904892Y-82822785D01*
X128999083Y-83050743D01*
X129173339Y-83225304D01*
X129401133Y-83319893D01*
X129647785Y-83320108D01*
X129875743Y-83225917D01*
X130050304Y-83051661D01*
X130144893Y-82823867D01*
X130144911Y-82803525D01*
X130645693Y-83304307D01*
X130773840Y-83389932D01*
X130925000Y-83420000D01*
X134728416Y-83420000D01*
X134705107Y-83476133D01*
X134704892Y-83722785D01*
X134799083Y-83950743D01*
X134973339Y-84125304D01*
X135201133Y-84219893D01*
X135447785Y-84220108D01*
X135513896Y-84192791D01*
X135525000Y-84195000D01*
X143625000Y-84195000D01*
X143776160Y-84164932D01*
X143904307Y-84079307D01*
X144288614Y-83695000D01*
X146040702Y-83695000D01*
X145955107Y-83901133D01*
X145954892Y-84147785D01*
X145988831Y-84229924D01*
X145952215Y-84229892D01*
X145724257Y-84324083D01*
X145549696Y-84498339D01*
X145455107Y-84726133D01*
X145454892Y-84972785D01*
X145549083Y-85200743D01*
X145723339Y-85375304D01*
X145951133Y-85469893D01*
X146197785Y-85470108D01*
X146425743Y-85375917D01*
X146600304Y-85201661D01*
X146694893Y-84973867D01*
X146695108Y-84727215D01*
X146661169Y-84645076D01*
X146697785Y-84645108D01*
X146830029Y-84590465D01*
X146829892Y-84747785D01*
X146924083Y-84975743D01*
X147098339Y-85150304D01*
X147326133Y-85244893D01*
X147572785Y-85245108D01*
X147800743Y-85150917D01*
X147975304Y-84976661D01*
X148069893Y-84748867D01*
X148070108Y-84502215D01*
X147975917Y-84274257D01*
X147824710Y-84122785D01*
X150379892Y-84122785D01*
X150474083Y-84350743D01*
X150648339Y-84525304D01*
X150876133Y-84619893D01*
X151122785Y-84620108D01*
X151350743Y-84525917D01*
X151525304Y-84351661D01*
X151619893Y-84123867D01*
X151619893Y-84122785D01*
X152379892Y-84122785D01*
X152474083Y-84350743D01*
X152648339Y-84525304D01*
X152876133Y-84619893D01*
X153122785Y-84620108D01*
X153350743Y-84525917D01*
X153525304Y-84351661D01*
X153619893Y-84123867D01*
X153620068Y-83922785D01*
X158104892Y-83922785D01*
X158199083Y-84150743D01*
X158373339Y-84325304D01*
X158601133Y-84419893D01*
X158847785Y-84420108D01*
X159075743Y-84325917D01*
X159250304Y-84151661D01*
X159344893Y-83923867D01*
X159345108Y-83677215D01*
X159250917Y-83449257D01*
X159076661Y-83274696D01*
X159065352Y-83270000D01*
X165637826Y-83270000D01*
X165727922Y-83722944D01*
X165984494Y-84106932D01*
X166368482Y-84363504D01*
X166821426Y-84453600D01*
X167178574Y-84453600D01*
X167631518Y-84363504D01*
X168015506Y-84106932D01*
X168272078Y-83722944D01*
X168362174Y-83270000D01*
X168272078Y-82817056D01*
X168015506Y-82433068D01*
X167631518Y-82176496D01*
X167178574Y-82086400D01*
X166821426Y-82086400D01*
X166368482Y-82176496D01*
X165984494Y-82433068D01*
X165727922Y-82817056D01*
X165637826Y-83270000D01*
X159065352Y-83270000D01*
X158848867Y-83180107D01*
X158602215Y-83179892D01*
X158374257Y-83274083D01*
X158199696Y-83448339D01*
X158105107Y-83676133D01*
X158104892Y-83922785D01*
X153620068Y-83922785D01*
X153620108Y-83877215D01*
X153525917Y-83649257D01*
X153351661Y-83474696D01*
X153123867Y-83380107D01*
X152877215Y-83379892D01*
X152649257Y-83474083D01*
X152474696Y-83648339D01*
X152380107Y-83876133D01*
X152379892Y-84122785D01*
X151619893Y-84122785D01*
X151620108Y-83877215D01*
X151525917Y-83649257D01*
X151351661Y-83474696D01*
X151123867Y-83380107D01*
X150877215Y-83379892D01*
X150649257Y-83474083D01*
X150474696Y-83648339D01*
X150380107Y-83876133D01*
X150379892Y-84122785D01*
X147824710Y-84122785D01*
X147801661Y-84099696D01*
X147573867Y-84005107D01*
X147327215Y-84004892D01*
X147194971Y-84059535D01*
X147195108Y-83902215D01*
X147100917Y-83674257D01*
X146926661Y-83499696D01*
X146794939Y-83445000D01*
X147243263Y-83445000D01*
X147373339Y-83575304D01*
X147601133Y-83669893D01*
X147847785Y-83670108D01*
X148075743Y-83575917D01*
X148250304Y-83401661D01*
X148344893Y-83173867D01*
X148344937Y-83122785D01*
X151379892Y-83122785D01*
X151474083Y-83350743D01*
X151648339Y-83525304D01*
X151876133Y-83619893D01*
X152122785Y-83620108D01*
X152350743Y-83525917D01*
X152525304Y-83351661D01*
X152619893Y-83123867D01*
X152620108Y-82877215D01*
X152525917Y-82649257D01*
X152351661Y-82474696D01*
X152123867Y-82380107D01*
X151877215Y-82379892D01*
X151649257Y-82474083D01*
X151474696Y-82648339D01*
X151380107Y-82876133D01*
X151379892Y-83122785D01*
X148344937Y-83122785D01*
X148345108Y-82927215D01*
X148250917Y-82699257D01*
X148226813Y-82675111D01*
X148250304Y-82651661D01*
X148344893Y-82423867D01*
X148345108Y-82177215D01*
X148322618Y-82122785D01*
X150379892Y-82122785D01*
X150474083Y-82350743D01*
X150648339Y-82525304D01*
X150876133Y-82619893D01*
X151122785Y-82620108D01*
X151350743Y-82525917D01*
X151525304Y-82351661D01*
X151619893Y-82123867D01*
X151619893Y-82122785D01*
X152379892Y-82122785D01*
X152474083Y-82350743D01*
X152648339Y-82525304D01*
X152876133Y-82619893D01*
X153122785Y-82620108D01*
X153350743Y-82525917D01*
X153429011Y-82447785D01*
X157829892Y-82447785D01*
X157924083Y-82675743D01*
X158098339Y-82850304D01*
X158326133Y-82944893D01*
X158572785Y-82945108D01*
X158800743Y-82850917D01*
X158975304Y-82676661D01*
X159069893Y-82448867D01*
X159070108Y-82202215D01*
X158975917Y-81974257D01*
X158801661Y-81799696D01*
X158573867Y-81705107D01*
X158327215Y-81704892D01*
X158099257Y-81799083D01*
X157924696Y-81973339D01*
X157830107Y-82201133D01*
X157829892Y-82447785D01*
X153429011Y-82447785D01*
X153525304Y-82351661D01*
X153619893Y-82123867D01*
X153620108Y-81877215D01*
X153597618Y-81822785D01*
X156504892Y-81822785D01*
X156599083Y-82050743D01*
X156773339Y-82225304D01*
X157001133Y-82319893D01*
X157247785Y-82320108D01*
X157475743Y-82225917D01*
X157650304Y-82051661D01*
X157744893Y-81823867D01*
X157745108Y-81577215D01*
X157650917Y-81349257D01*
X157476661Y-81174696D01*
X157248867Y-81080107D01*
X157002215Y-81079892D01*
X156774257Y-81174083D01*
X156599696Y-81348339D01*
X156505107Y-81576133D01*
X156504892Y-81822785D01*
X153597618Y-81822785D01*
X153525917Y-81649257D01*
X153351661Y-81474696D01*
X153123867Y-81380107D01*
X152877215Y-81379892D01*
X152649257Y-81474083D01*
X152474696Y-81648339D01*
X152380107Y-81876133D01*
X152379892Y-82122785D01*
X151619893Y-82122785D01*
X151620108Y-81877215D01*
X151525917Y-81649257D01*
X151351661Y-81474696D01*
X151123867Y-81380107D01*
X150877215Y-81379892D01*
X150649257Y-81474083D01*
X150474696Y-81648339D01*
X150380107Y-81876133D01*
X150379892Y-82122785D01*
X148322618Y-82122785D01*
X148250917Y-81949257D01*
X148226813Y-81925111D01*
X148250304Y-81901661D01*
X148344893Y-81673867D01*
X148345108Y-81427215D01*
X148250917Y-81199257D01*
X148174579Y-81122785D01*
X151379892Y-81122785D01*
X151474083Y-81350743D01*
X151648339Y-81525304D01*
X151876133Y-81619893D01*
X152122785Y-81620108D01*
X152350743Y-81525917D01*
X152525304Y-81351661D01*
X152619893Y-81123867D01*
X152620108Y-80877215D01*
X152559280Y-80730000D01*
X165637826Y-80730000D01*
X165727922Y-81182944D01*
X165984494Y-81566932D01*
X166368482Y-81823504D01*
X166821426Y-81913600D01*
X167178574Y-81913600D01*
X167631518Y-81823504D01*
X168015506Y-81566932D01*
X168272078Y-81182944D01*
X168362174Y-80730000D01*
X168272078Y-80277056D01*
X168015506Y-79893068D01*
X167631518Y-79636496D01*
X167178574Y-79546400D01*
X166821426Y-79546400D01*
X166368482Y-79636496D01*
X165984494Y-79893068D01*
X165727922Y-80277056D01*
X165637826Y-80730000D01*
X152559280Y-80730000D01*
X152525917Y-80649257D01*
X152351661Y-80474696D01*
X152123867Y-80380107D01*
X151877215Y-80379892D01*
X151649257Y-80474083D01*
X151474696Y-80648339D01*
X151380107Y-80876133D01*
X151379892Y-81122785D01*
X148174579Y-81122785D01*
X148076661Y-81024696D01*
X147848867Y-80930107D01*
X147602215Y-80929892D01*
X147374257Y-81024083D01*
X147199696Y-81198339D01*
X147105107Y-81426133D01*
X147104892Y-81672785D01*
X147199083Y-81900743D01*
X147203333Y-81905000D01*
X146625000Y-81905000D01*
X146473840Y-81935068D01*
X146345693Y-82020693D01*
X146011386Y-82355000D01*
X145011203Y-82355000D01*
X145044893Y-82273867D01*
X145045108Y-82027215D01*
X144950917Y-81799257D01*
X144776661Y-81624696D01*
X144548867Y-81530107D01*
X144302215Y-81529892D01*
X144074257Y-81624083D01*
X143899696Y-81798339D01*
X143805107Y-82026133D01*
X143805072Y-82065955D01*
X143750000Y-82055000D01*
X141746784Y-82055000D01*
X141850304Y-81951661D01*
X141944893Y-81723867D01*
X141945108Y-81477215D01*
X141850917Y-81249257D01*
X141676661Y-81074696D01*
X141448867Y-80980107D01*
X141220018Y-80979908D01*
X141220108Y-80877215D01*
X141125917Y-80649257D01*
X140951661Y-80474696D01*
X140723867Y-80380107D01*
X140545018Y-80379951D01*
X140545108Y-80277215D01*
X140481299Y-80122785D01*
X150379892Y-80122785D01*
X150474083Y-80350743D01*
X150648339Y-80525304D01*
X150876133Y-80619893D01*
X151122785Y-80620108D01*
X151350743Y-80525917D01*
X151525304Y-80351661D01*
X151619893Y-80123867D01*
X151619893Y-80122785D01*
X152379892Y-80122785D01*
X152474083Y-80350743D01*
X152648339Y-80525304D01*
X152876133Y-80619893D01*
X153122785Y-80620108D01*
X153350743Y-80525917D01*
X153525304Y-80351661D01*
X153619893Y-80123867D01*
X153619981Y-80022785D01*
X158604892Y-80022785D01*
X158699083Y-80250743D01*
X158873339Y-80425304D01*
X159101133Y-80519893D01*
X159347785Y-80520108D01*
X159575743Y-80425917D01*
X159750304Y-80251661D01*
X159844893Y-80023867D01*
X159845108Y-79777215D01*
X159750917Y-79549257D01*
X159576661Y-79374696D01*
X159348867Y-79280107D01*
X159102215Y-79279892D01*
X158874257Y-79374083D01*
X158699696Y-79548339D01*
X158605107Y-79776133D01*
X158604892Y-80022785D01*
X153619981Y-80022785D01*
X153620108Y-79877215D01*
X153525917Y-79649257D01*
X153351661Y-79474696D01*
X153123867Y-79380107D01*
X152877215Y-79379892D01*
X152649257Y-79474083D01*
X152474696Y-79648339D01*
X152380107Y-79876133D01*
X152379892Y-80122785D01*
X151619893Y-80122785D01*
X151620108Y-79877215D01*
X151525917Y-79649257D01*
X151351661Y-79474696D01*
X151123867Y-79380107D01*
X150877215Y-79379892D01*
X150649257Y-79474083D01*
X150474696Y-79648339D01*
X150380107Y-79876133D01*
X150379892Y-80122785D01*
X140481299Y-80122785D01*
X140450917Y-80049257D01*
X140276661Y-79874696D01*
X140048867Y-79780107D01*
X139945018Y-79780016D01*
X139945108Y-79677215D01*
X139850917Y-79449257D01*
X139676661Y-79274696D01*
X139448867Y-79180107D01*
X139202215Y-79179892D01*
X139120000Y-79213863D01*
X139120000Y-79072785D01*
X155704892Y-79072785D01*
X155799083Y-79300743D01*
X155973339Y-79475304D01*
X156201133Y-79569893D01*
X156447785Y-79570108D01*
X156675743Y-79475917D01*
X156850304Y-79301661D01*
X156944893Y-79073867D01*
X156945108Y-78827215D01*
X156850917Y-78599257D01*
X156676661Y-78424696D01*
X156448867Y-78330107D01*
X156202215Y-78329892D01*
X155974257Y-78424083D01*
X155799696Y-78598339D01*
X155705107Y-78826133D01*
X155704892Y-79072785D01*
X139120000Y-79072785D01*
X139120000Y-78522785D01*
X149904892Y-78522785D01*
X149999083Y-78750743D01*
X150173339Y-78925304D01*
X150401133Y-79019893D01*
X150647785Y-79020108D01*
X150875743Y-78925917D01*
X151050304Y-78751661D01*
X151144893Y-78523867D01*
X151145108Y-78277215D01*
X151050917Y-78049257D01*
X150876661Y-77874696D01*
X150648867Y-77780107D01*
X150402215Y-77779892D01*
X150174257Y-77874083D01*
X149999696Y-78048339D01*
X149905107Y-78276133D01*
X149904892Y-78522785D01*
X139120000Y-78522785D01*
X139120000Y-78113614D01*
X139338614Y-77895000D01*
X147243263Y-77895000D01*
X147373339Y-78025304D01*
X147601133Y-78119893D01*
X147847785Y-78120108D01*
X148075743Y-78025917D01*
X148250304Y-77851661D01*
X148344893Y-77623867D01*
X148345108Y-77377215D01*
X148324112Y-77326400D01*
X165657731Y-77326400D01*
X165657731Y-79053600D01*
X165680044Y-79172185D01*
X165750128Y-79281098D01*
X165857063Y-79354164D01*
X165984000Y-79379869D01*
X168016000Y-79379869D01*
X168134585Y-79357556D01*
X168243498Y-79287472D01*
X168316564Y-79180537D01*
X168342269Y-79053600D01*
X168342269Y-77326400D01*
X168319956Y-77207815D01*
X168249872Y-77098902D01*
X168142937Y-77025836D01*
X168016000Y-77000131D01*
X165984000Y-77000131D01*
X165865415Y-77022444D01*
X165756502Y-77092528D01*
X165683436Y-77199463D01*
X165657731Y-77326400D01*
X148324112Y-77326400D01*
X148250917Y-77149257D01*
X148076661Y-76974696D01*
X147848867Y-76880107D01*
X147602215Y-76879892D01*
X147374257Y-76974083D01*
X147243111Y-77105000D01*
X143050822Y-77105000D01*
X143094893Y-76998867D01*
X143095108Y-76752215D01*
X143000917Y-76524257D01*
X142826661Y-76349696D01*
X142598867Y-76255107D01*
X142352215Y-76254892D01*
X142124257Y-76349083D01*
X141949696Y-76523339D01*
X141855107Y-76751133D01*
X141854892Y-76997785D01*
X141899193Y-77105000D01*
X141311203Y-77105000D01*
X141344893Y-77023867D01*
X141345108Y-76777215D01*
X141250917Y-76549257D01*
X141076661Y-76374696D01*
X140848867Y-76280107D01*
X140602215Y-76279892D01*
X140480945Y-76330000D01*
X135925000Y-76330000D01*
X135706870Y-76373389D01*
X135521949Y-76496949D01*
X135094498Y-76924400D01*
X134974257Y-76974083D01*
X134799696Y-77148339D01*
X134705107Y-77376133D01*
X134704892Y-77622785D01*
X134799083Y-77850743D01*
X134973339Y-78025304D01*
X135201133Y-78119893D01*
X135447785Y-78120108D01*
X135675743Y-78025917D01*
X135850304Y-77851661D01*
X135900624Y-77730478D01*
X136161102Y-77470000D01*
X138646386Y-77470000D01*
X138445693Y-77670693D01*
X138360068Y-77798840D01*
X138330000Y-77950000D01*
X138330000Y-79211385D01*
X137861386Y-79680000D01*
X130156737Y-79680000D01*
X130026661Y-79549696D01*
X129798867Y-79455107D01*
X129552215Y-79454892D01*
X129324257Y-79549083D01*
X129149696Y-79723339D01*
X129055107Y-79951133D01*
X129054892Y-80197785D01*
X129149083Y-80425743D01*
X129323339Y-80600304D01*
X129551133Y-80694893D01*
X129797785Y-80695108D01*
X130025743Y-80600917D01*
X130156889Y-80470000D01*
X138025000Y-80470000D01*
X138176160Y-80439932D01*
X138304307Y-80354307D01*
X138713938Y-79944677D01*
X138799083Y-80150743D01*
X138973339Y-80325304D01*
X139201133Y-80419893D01*
X139304982Y-80419984D01*
X139304892Y-80522785D01*
X139399083Y-80750743D01*
X139573339Y-80925304D01*
X139801133Y-81019893D01*
X139979982Y-81020049D01*
X139979892Y-81122785D01*
X140074083Y-81350743D01*
X140248339Y-81525304D01*
X140476133Y-81619893D01*
X140704982Y-81620092D01*
X140704892Y-81722785D01*
X140799083Y-81950743D01*
X140903158Y-82055000D01*
X137675000Y-82055000D01*
X137523840Y-82085068D01*
X137444968Y-82137768D01*
X137445108Y-81977215D01*
X137369818Y-81795000D01*
X137725000Y-81795000D01*
X137876160Y-81764932D01*
X137943510Y-81719930D01*
X138147785Y-81720108D01*
X138375743Y-81625917D01*
X138550304Y-81451661D01*
X138644893Y-81223867D01*
X138645108Y-80977215D01*
X138550917Y-80749257D01*
X138376661Y-80574696D01*
X138148867Y-80480107D01*
X137902215Y-80479892D01*
X137674257Y-80574083D01*
X137499696Y-80748339D01*
X137405107Y-80976133D01*
X137405082Y-81005000D01*
X136225000Y-81005000D01*
X136073840Y-81035068D01*
X135945693Y-81120693D01*
X135461386Y-81605000D01*
X134611203Y-81605000D01*
X134644893Y-81523867D01*
X134645108Y-81277215D01*
X134550917Y-81049257D01*
X134376661Y-80874696D01*
X134148867Y-80780107D01*
X133902215Y-80779892D01*
X133674257Y-80874083D01*
X133499696Y-81048339D01*
X133405107Y-81276133D01*
X133404892Y-81522785D01*
X133438863Y-81605000D01*
X132788614Y-81605000D01*
X132404307Y-81220693D01*
X132276160Y-81135068D01*
X132125000Y-81105000D01*
X130506737Y-81105000D01*
X130376661Y-80974696D01*
X130148867Y-80880107D01*
X129902215Y-80879892D01*
X129674257Y-80974083D01*
X129499696Y-81148339D01*
X129405107Y-81376133D01*
X129404892Y-81622785D01*
X129428533Y-81680000D01*
X127663620Y-81680000D01*
X127650917Y-81649257D01*
X127476661Y-81474696D01*
X127248867Y-81380107D01*
X127002215Y-81379892D01*
X126895000Y-81424193D01*
X126895000Y-81413614D01*
X126963666Y-81344948D01*
X127147785Y-81345108D01*
X127375743Y-81250917D01*
X127550304Y-81076661D01*
X127644893Y-80848867D01*
X127645108Y-80602215D01*
X127550917Y-80374257D01*
X127376661Y-80199696D01*
X127169810Y-80113804D01*
X127304307Y-79979307D01*
X127323132Y-79951133D01*
X127389932Y-79851160D01*
X127420000Y-79700000D01*
X127420000Y-79256737D01*
X127550304Y-79126661D01*
X127644893Y-78898867D01*
X127645108Y-78652215D01*
X127550917Y-78424257D01*
X127376661Y-78249696D01*
X127148867Y-78155107D01*
X126902215Y-78154892D01*
X126674257Y-78249083D01*
X126499696Y-78423339D01*
X126405107Y-78651133D01*
X126404892Y-78897785D01*
X126499083Y-79125743D01*
X126630000Y-79256889D01*
X126630000Y-79536386D01*
X125745693Y-80420693D01*
X125660068Y-80548840D01*
X125630000Y-80700000D01*
X125630000Y-83125000D01*
X125660068Y-83276160D01*
X125745693Y-83404307D01*
X126154998Y-83813612D01*
X126154998Y-89849264D01*
X126185066Y-90000424D01*
X126270691Y-90128571D01*
X128096429Y-91954309D01*
X128224576Y-92039934D01*
X128375736Y-92070002D01*
X129765701Y-92070002D01*
X129680107Y-92276133D01*
X129679892Y-92522785D01*
X129774083Y-92750743D01*
X129923079Y-92900000D01*
X126275496Y-92900000D01*
X125870565Y-92629435D01*
X125524323Y-92111245D01*
X125395000Y-91461096D01*
X125395000Y-76097785D01*
X128779892Y-76097785D01*
X128874083Y-76325743D01*
X129048339Y-76500304D01*
X129276133Y-76594893D01*
X129522785Y-76595108D01*
X129750743Y-76500917D01*
X129925304Y-76326661D01*
X130009961Y-76122785D01*
X147004892Y-76122785D01*
X147099083Y-76350743D01*
X147273339Y-76525304D01*
X147501133Y-76619893D01*
X147747785Y-76620108D01*
X147975743Y-76525917D01*
X148150304Y-76351661D01*
X148244893Y-76123867D01*
X148245108Y-75877215D01*
X148150917Y-75649257D01*
X147976661Y-75474696D01*
X147748867Y-75380107D01*
X147502215Y-75379892D01*
X147274257Y-75474083D01*
X147099696Y-75648339D01*
X147005107Y-75876133D01*
X147004892Y-76122785D01*
X130009961Y-76122785D01*
X130019893Y-76098867D01*
X130020108Y-75852215D01*
X129925917Y-75624257D01*
X129791826Y-75489931D01*
X129825743Y-75475917D01*
X130000304Y-75301661D01*
X130043437Y-75197785D01*
X132154892Y-75197785D01*
X132249083Y-75425743D01*
X132423339Y-75600304D01*
X132651133Y-75694893D01*
X132897785Y-75695108D01*
X133125743Y-75600917D01*
X133300304Y-75426661D01*
X133394893Y-75198867D01*
X133395108Y-74952215D01*
X133300917Y-74724257D01*
X133126661Y-74549696D01*
X133061853Y-74522785D01*
X142704892Y-74522785D01*
X142799083Y-74750743D01*
X142973339Y-74925304D01*
X143201133Y-75019893D01*
X143447785Y-75020108D01*
X143675743Y-74925917D01*
X143850304Y-74751661D01*
X143944893Y-74523867D01*
X143945108Y-74277215D01*
X143850917Y-74049257D01*
X143676661Y-73874696D01*
X143448867Y-73780107D01*
X143202215Y-73779892D01*
X142974257Y-73874083D01*
X142799696Y-74048339D01*
X142705107Y-74276133D01*
X142704892Y-74522785D01*
X133061853Y-74522785D01*
X132898867Y-74455107D01*
X132652215Y-74454892D01*
X132424257Y-74549083D01*
X132249696Y-74723339D01*
X132155107Y-74951133D01*
X132154892Y-75197785D01*
X130043437Y-75197785D01*
X130094893Y-75073867D01*
X130095108Y-74827215D01*
X130000917Y-74599257D01*
X129892732Y-74490882D01*
X129963614Y-74420000D01*
X137900000Y-74420000D01*
X138051160Y-74389932D01*
X138179307Y-74304307D01*
X138549307Y-73934307D01*
X138634932Y-73806160D01*
X138665000Y-73655000D01*
X138665000Y-73359031D01*
X138733886Y-73330568D01*
X138964757Y-73100099D01*
X139089858Y-72798824D01*
X139090142Y-72472607D01*
X138965568Y-72171114D01*
X138794656Y-71999904D01*
X138964757Y-71830099D01*
X139089858Y-71528824D01*
X139090142Y-71202607D01*
X138965568Y-70901114D01*
X138735099Y-70670243D01*
X138433824Y-70545142D01*
X138107607Y-70544858D01*
X137806114Y-70669432D01*
X137634904Y-70840344D01*
X137465099Y-70670243D01*
X137163824Y-70545142D01*
X136837607Y-70544858D01*
X136536114Y-70669432D01*
X136364904Y-70840344D01*
X136195099Y-70670243D01*
X135893824Y-70545142D01*
X135567607Y-70544858D01*
X135266114Y-70669432D01*
X135035243Y-70899901D01*
X134910142Y-71201176D01*
X134909858Y-71527393D01*
X135034432Y-71828886D01*
X135205344Y-72000096D01*
X135035243Y-72169901D01*
X134910142Y-72471176D01*
X134909858Y-72797393D01*
X135034432Y-73098886D01*
X135264901Y-73329757D01*
X135566176Y-73454858D01*
X135892393Y-73455142D01*
X136193886Y-73330568D01*
X136365096Y-73159656D01*
X136534901Y-73329757D01*
X136836176Y-73454858D01*
X137162393Y-73455142D01*
X137463886Y-73330568D01*
X137635096Y-73159656D01*
X137804901Y-73329757D01*
X137875000Y-73358865D01*
X137875000Y-73491386D01*
X137736386Y-73630000D01*
X129800000Y-73630000D01*
X129648840Y-73660068D01*
X129520693Y-73745693D01*
X129195693Y-74070693D01*
X129110068Y-74198840D01*
X129080000Y-74350000D01*
X129080000Y-74468263D01*
X128949696Y-74598339D01*
X128855107Y-74826133D01*
X128854892Y-75072785D01*
X128949083Y-75300743D01*
X129083174Y-75435069D01*
X129049257Y-75449083D01*
X128874696Y-75623339D01*
X128780107Y-75851133D01*
X128779892Y-76097785D01*
X125395000Y-76097785D01*
X125395000Y-71527393D01*
X126909858Y-71527393D01*
X127034432Y-71828886D01*
X127205344Y-72000096D01*
X127035243Y-72169901D01*
X126910142Y-72471176D01*
X126909858Y-72797393D01*
X127034432Y-73098886D01*
X127264901Y-73329757D01*
X127566176Y-73454858D01*
X127892393Y-73455142D01*
X128193886Y-73330568D01*
X128365096Y-73159656D01*
X128534901Y-73329757D01*
X128836176Y-73454858D01*
X129162393Y-73455142D01*
X129463886Y-73330568D01*
X129635096Y-73159656D01*
X129804901Y-73329757D01*
X130106176Y-73454858D01*
X130432393Y-73455142D01*
X130733886Y-73330568D01*
X130964757Y-73100099D01*
X131089858Y-72798824D01*
X131090142Y-72472607D01*
X130965568Y-72171114D01*
X130794656Y-71999904D01*
X130964757Y-71830099D01*
X131089858Y-71528824D01*
X131090142Y-71202607D01*
X130965568Y-70901114D01*
X130735099Y-70670243D01*
X130433824Y-70545142D01*
X130107607Y-70544858D01*
X129806114Y-70669432D01*
X129634904Y-70840344D01*
X129465099Y-70670243D01*
X129163824Y-70545142D01*
X128837607Y-70544858D01*
X128536114Y-70669432D01*
X128364904Y-70840344D01*
X128195099Y-70670243D01*
X127893824Y-70545142D01*
X127567607Y-70544858D01*
X127266114Y-70669432D01*
X127035243Y-70899901D01*
X126910142Y-71201176D01*
X126909858Y-71527393D01*
X125395000Y-71527393D01*
X125395000Y-71038904D01*
X125524323Y-70388755D01*
X125870565Y-69870565D01*
X126388755Y-69524323D01*
X126511034Y-69500000D01*
X140097262Y-69500000D01*
X140112590Y-69577060D01*
X140112590Y-69577060D01*
G37*
X140112590Y-69577060D02*
X140150650Y-69768403D01*
X140150650Y-69768404D01*
X140209631Y-69910794D01*
X140318017Y-70073005D01*
X140383405Y-70138391D01*
X140426995Y-70181982D01*
X140589206Y-70290369D01*
X140589208Y-70290370D01*
X140731598Y-70349350D01*
X140922940Y-70387410D01*
X140961843Y-70387410D01*
X141000000Y-70395000D01*
X175561098Y-70395000D01*
X175597716Y-70402284D01*
X175605000Y-70438903D01*
X175605000Y-93061097D01*
X175597716Y-93097716D01*
X175586234Y-93100000D01*
X159800000Y-93100000D01*
X159761094Y-93107879D01*
X159728319Y-93130273D01*
X159706839Y-93163654D01*
X159700000Y-93200000D01*
X159700000Y-102200000D01*
X149500000Y-102200000D01*
X149500000Y-93000000D01*
X149492121Y-92961094D01*
X149469727Y-92928319D01*
X149436346Y-92906839D01*
X149400000Y-92900000D01*
X144620000Y-92900000D01*
X144589932Y-92748840D01*
X144504307Y-92620693D01*
X143653614Y-91770000D01*
X144343263Y-91770000D01*
X144473339Y-91900304D01*
X144701133Y-91994893D01*
X144947785Y-91995108D01*
X145175743Y-91900917D01*
X145350304Y-91726661D01*
X145444893Y-91498867D01*
X145445108Y-91252215D01*
X145350917Y-91024257D01*
X145176661Y-90849696D01*
X144948867Y-90755107D01*
X144702215Y-90754892D01*
X144474257Y-90849083D01*
X144343111Y-90980000D01*
X141265861Y-90980000D01*
X141275743Y-90975917D01*
X141450304Y-90801661D01*
X141524580Y-90622785D01*
X149204892Y-90622785D01*
X149299083Y-90850743D01*
X149473339Y-91025304D01*
X149701133Y-91119893D01*
X149947785Y-91120108D01*
X150175743Y-91025917D01*
X150325108Y-90876813D01*
X150473339Y-91025304D01*
X150701133Y-91119893D01*
X150947785Y-91120108D01*
X151175743Y-91025917D01*
X151325108Y-90876813D01*
X151473339Y-91025304D01*
X151701133Y-91119893D01*
X151947785Y-91120108D01*
X152175743Y-91025917D01*
X152350304Y-90851661D01*
X152444893Y-90623867D01*
X152445108Y-90377215D01*
X152350917Y-90149257D01*
X152176661Y-89974696D01*
X151948867Y-89880107D01*
X151702215Y-89879892D01*
X151474257Y-89974083D01*
X151324892Y-90123187D01*
X151176661Y-89974696D01*
X150948867Y-89880107D01*
X150702215Y-89879892D01*
X150474257Y-89974083D01*
X150324892Y-90123187D01*
X150176661Y-89974696D01*
X149948867Y-89880107D01*
X149702215Y-89879892D01*
X149474257Y-89974083D01*
X149299696Y-90148339D01*
X149205107Y-90376133D01*
X149204892Y-90622785D01*
X141524580Y-90622785D01*
X141544893Y-90573867D01*
X141545108Y-90327215D01*
X141450917Y-90099257D01*
X141376813Y-90025023D01*
X141450304Y-89951661D01*
X141535423Y-89746674D01*
X141599083Y-89900743D01*
X141773339Y-90075304D01*
X142001133Y-90169893D01*
X142247785Y-90170108D01*
X142475743Y-90075917D01*
X142650304Y-89901661D01*
X142664588Y-89867260D01*
X142699083Y-89950743D01*
X142873339Y-90125304D01*
X143101133Y-90219893D01*
X143347785Y-90220108D01*
X143575743Y-90125917D01*
X143750304Y-89951661D01*
X143805018Y-89819896D01*
X144047785Y-89820108D01*
X144275743Y-89725917D01*
X144450304Y-89551661D01*
X144544893Y-89323867D01*
X144545108Y-89077215D01*
X144450917Y-88849257D01*
X144276661Y-88674696D01*
X144048867Y-88580107D01*
X143802215Y-88579892D01*
X143574257Y-88674083D01*
X143399696Y-88848339D01*
X143344982Y-88980104D01*
X143102215Y-88979892D01*
X142874257Y-89074083D01*
X142699696Y-89248339D01*
X142685412Y-89282740D01*
X142650917Y-89199257D01*
X142476661Y-89024696D01*
X142248867Y-88930107D01*
X142144975Y-88930016D01*
X142145108Y-88777215D01*
X142050917Y-88549257D01*
X141876661Y-88374696D01*
X141648867Y-88280107D01*
X141402215Y-88279892D01*
X141174257Y-88374083D01*
X140999696Y-88548339D01*
X140905107Y-88776133D01*
X140904929Y-88979982D01*
X140802215Y-88979892D01*
X140574257Y-89074083D01*
X140399696Y-89248339D01*
X140305107Y-89476133D01*
X140304892Y-89722785D01*
X140380380Y-89905478D01*
X140198867Y-89830107D01*
X139952215Y-89829892D01*
X139724257Y-89924083D01*
X139549696Y-90098339D01*
X139455107Y-90326133D01*
X139454892Y-90572785D01*
X139549083Y-90800743D01*
X139723339Y-90975304D01*
X139734648Y-90980000D01*
X128663614Y-90980000D01*
X127245000Y-89561386D01*
X127245000Y-89522785D01*
X138104892Y-89522785D01*
X138199083Y-89750743D01*
X138373339Y-89925304D01*
X138601133Y-90019893D01*
X138847785Y-90020108D01*
X139075743Y-89925917D01*
X139250304Y-89751661D01*
X139344893Y-89523867D01*
X139345108Y-89277215D01*
X139250917Y-89049257D01*
X139076661Y-88874696D01*
X138848867Y-88780107D01*
X138602215Y-88779892D01*
X138374257Y-88874083D01*
X138199696Y-89048339D01*
X138105107Y-89276133D01*
X138104892Y-89522785D01*
X127245000Y-89522785D01*
X127245000Y-86522785D01*
X133504892Y-86522785D01*
X133599083Y-86750743D01*
X133737922Y-86889825D01*
X133760068Y-87001160D01*
X133845693Y-87129307D01*
X133945693Y-87229307D01*
X134073840Y-87314932D01*
X134225000Y-87345000D01*
X144705003Y-87345000D01*
X144704892Y-87472785D01*
X144799083Y-87700743D01*
X144973339Y-87875304D01*
X145201133Y-87969893D01*
X145447785Y-87970108D01*
X145675743Y-87875917D01*
X145850304Y-87701661D01*
X145927588Y-87515542D01*
X145950000Y-87520000D01*
X154343263Y-87520000D01*
X154473339Y-87650304D01*
X154701133Y-87744893D01*
X154947785Y-87745108D01*
X155175743Y-87650917D01*
X155350304Y-87476661D01*
X155444893Y-87248867D01*
X155445108Y-87002215D01*
X155350917Y-86774257D01*
X155176661Y-86599696D01*
X154948867Y-86505107D01*
X154702215Y-86504892D01*
X154474257Y-86599083D01*
X154343111Y-86730000D01*
X147606965Y-86730000D01*
X147619893Y-86698867D01*
X147620108Y-86452215D01*
X147525917Y-86224257D01*
X147351661Y-86049696D01*
X147123867Y-85955107D01*
X146877215Y-85954892D01*
X146649257Y-86049083D01*
X146474696Y-86223339D01*
X146380107Y-86451133D01*
X146379892Y-86697785D01*
X146393203Y-86730000D01*
X146113614Y-86730000D01*
X145193614Y-85810000D01*
X165637826Y-85810000D01*
X165727922Y-86262944D01*
X165984494Y-86646932D01*
X166368482Y-86903504D01*
X166821426Y-86993600D01*
X167178574Y-86993600D01*
X167631518Y-86903504D01*
X168015506Y-86646932D01*
X168272078Y-86262944D01*
X168362174Y-85810000D01*
X168272078Y-85357056D01*
X168015506Y-84973068D01*
X167631518Y-84716496D01*
X167178574Y-84626400D01*
X166821426Y-84626400D01*
X166368482Y-84716496D01*
X165984494Y-84973068D01*
X165727922Y-85357056D01*
X165637826Y-85810000D01*
X145193614Y-85810000D01*
X145092739Y-85709125D01*
X145150304Y-85651661D01*
X145244893Y-85423867D01*
X145245108Y-85177215D01*
X145150917Y-84949257D01*
X144976661Y-84774696D01*
X144748867Y-84680107D01*
X144502215Y-84679892D01*
X144274257Y-84774083D01*
X144099696Y-84948339D01*
X144044982Y-85080104D01*
X143802215Y-85079892D01*
X143574257Y-85174083D01*
X143525067Y-85223187D01*
X143476661Y-85174696D01*
X143248867Y-85080107D01*
X143002215Y-85079892D01*
X142774257Y-85174083D01*
X142599696Y-85348339D01*
X142505107Y-85576133D01*
X142504892Y-85822785D01*
X142599083Y-86050743D01*
X142773339Y-86225304D01*
X143001133Y-86319893D01*
X143247785Y-86320108D01*
X143475743Y-86225917D01*
X143524933Y-86176813D01*
X143573339Y-86225304D01*
X143801133Y-86319893D01*
X144047785Y-86320108D01*
X144275743Y-86225917D01*
X144384118Y-86117732D01*
X144821386Y-86555000D01*
X134731965Y-86555000D01*
X134744893Y-86523867D01*
X134745108Y-86277215D01*
X134650917Y-86049257D01*
X134476661Y-85874696D01*
X134248867Y-85780107D01*
X134002215Y-85779892D01*
X133774257Y-85874083D01*
X133599696Y-86048339D01*
X133505107Y-86276133D01*
X133504892Y-86522785D01*
X127245000Y-86522785D01*
X127245000Y-85622785D01*
X140804892Y-85622785D01*
X140899083Y-85850743D01*
X141073339Y-86025304D01*
X141301133Y-86119893D01*
X141547785Y-86120108D01*
X141775743Y-86025917D01*
X141950304Y-85851661D01*
X142044893Y-85623867D01*
X142045108Y-85377215D01*
X141950917Y-85149257D01*
X141776661Y-84974696D01*
X141548867Y-84880107D01*
X141302215Y-84879892D01*
X141074257Y-84974083D01*
X140899696Y-85148339D01*
X140805107Y-85376133D01*
X140804892Y-85622785D01*
X127245000Y-85622785D01*
X127245000Y-83100000D01*
X127214932Y-82948840D01*
X127129307Y-82820693D01*
X126895000Y-82586386D01*
X126895000Y-82575822D01*
X127001133Y-82619893D01*
X127247785Y-82620108D01*
X127475743Y-82525917D01*
X127531758Y-82470000D01*
X128949178Y-82470000D01*
X128905107Y-82576133D01*
X128904892Y-82822785D01*
X128999083Y-83050743D01*
X129173339Y-83225304D01*
X129401133Y-83319893D01*
X129647785Y-83320108D01*
X129875743Y-83225917D01*
X130050304Y-83051661D01*
X130144893Y-82823867D01*
X130144911Y-82803525D01*
X130645693Y-83304307D01*
X130773840Y-83389932D01*
X130925000Y-83420000D01*
X134728416Y-83420000D01*
X134705107Y-83476133D01*
X134704892Y-83722785D01*
X134799083Y-83950743D01*
X134973339Y-84125304D01*
X135201133Y-84219893D01*
X135447785Y-84220108D01*
X135513896Y-84192791D01*
X135525000Y-84195000D01*
X143625000Y-84195000D01*
X143776160Y-84164932D01*
X143904307Y-84079307D01*
X144288614Y-83695000D01*
X146040702Y-83695000D01*
X145955107Y-83901133D01*
X145954892Y-84147785D01*
X145988831Y-84229924D01*
X145952215Y-84229892D01*
X145724257Y-84324083D01*
X145549696Y-84498339D01*
X145455107Y-84726133D01*
X145454892Y-84972785D01*
X145549083Y-85200743D01*
X145723339Y-85375304D01*
X145951133Y-85469893D01*
X146197785Y-85470108D01*
X146425743Y-85375917D01*
X146600304Y-85201661D01*
X146694893Y-84973867D01*
X146695108Y-84727215D01*
X146661169Y-84645076D01*
X146697785Y-84645108D01*
X146830029Y-84590465D01*
X146829892Y-84747785D01*
X146924083Y-84975743D01*
X147098339Y-85150304D01*
X147326133Y-85244893D01*
X147572785Y-85245108D01*
X147800743Y-85150917D01*
X147975304Y-84976661D01*
X148069893Y-84748867D01*
X148070108Y-84502215D01*
X147975917Y-84274257D01*
X147824710Y-84122785D01*
X150379892Y-84122785D01*
X150474083Y-84350743D01*
X150648339Y-84525304D01*
X150876133Y-84619893D01*
X151122785Y-84620108D01*
X151350743Y-84525917D01*
X151525304Y-84351661D01*
X151619893Y-84123867D01*
X151619893Y-84122785D01*
X152379892Y-84122785D01*
X152474083Y-84350743D01*
X152648339Y-84525304D01*
X152876133Y-84619893D01*
X153122785Y-84620108D01*
X153350743Y-84525917D01*
X153525304Y-84351661D01*
X153619893Y-84123867D01*
X153620068Y-83922785D01*
X158104892Y-83922785D01*
X158199083Y-84150743D01*
X158373339Y-84325304D01*
X158601133Y-84419893D01*
X158847785Y-84420108D01*
X159075743Y-84325917D01*
X159250304Y-84151661D01*
X159344893Y-83923867D01*
X159345108Y-83677215D01*
X159250917Y-83449257D01*
X159076661Y-83274696D01*
X159065352Y-83270000D01*
X165637826Y-83270000D01*
X165727922Y-83722944D01*
X165984494Y-84106932D01*
X166368482Y-84363504D01*
X166821426Y-84453600D01*
X167178574Y-84453600D01*
X167631518Y-84363504D01*
X168015506Y-84106932D01*
X168272078Y-83722944D01*
X168362174Y-83270000D01*
X168272078Y-82817056D01*
X168015506Y-82433068D01*
X167631518Y-82176496D01*
X167178574Y-82086400D01*
X166821426Y-82086400D01*
X166368482Y-82176496D01*
X165984494Y-82433068D01*
X165727922Y-82817056D01*
X165637826Y-83270000D01*
X159065352Y-83270000D01*
X158848867Y-83180107D01*
X158602215Y-83179892D01*
X158374257Y-83274083D01*
X158199696Y-83448339D01*
X158105107Y-83676133D01*
X158104892Y-83922785D01*
X153620068Y-83922785D01*
X153620108Y-83877215D01*
X153525917Y-83649257D01*
X153351661Y-83474696D01*
X153123867Y-83380107D01*
X152877215Y-83379892D01*
X152649257Y-83474083D01*
X152474696Y-83648339D01*
X152380107Y-83876133D01*
X152379892Y-84122785D01*
X151619893Y-84122785D01*
X151620108Y-83877215D01*
X151525917Y-83649257D01*
X151351661Y-83474696D01*
X151123867Y-83380107D01*
X150877215Y-83379892D01*
X150649257Y-83474083D01*
X150474696Y-83648339D01*
X150380107Y-83876133D01*
X150379892Y-84122785D01*
X147824710Y-84122785D01*
X147801661Y-84099696D01*
X147573867Y-84005107D01*
X147327215Y-84004892D01*
X147194971Y-84059535D01*
X147195108Y-83902215D01*
X147100917Y-83674257D01*
X146926661Y-83499696D01*
X146794939Y-83445000D01*
X147243263Y-83445000D01*
X147373339Y-83575304D01*
X147601133Y-83669893D01*
X147847785Y-83670108D01*
X148075743Y-83575917D01*
X148250304Y-83401661D01*
X148344893Y-83173867D01*
X148344937Y-83122785D01*
X151379892Y-83122785D01*
X151474083Y-83350743D01*
X151648339Y-83525304D01*
X151876133Y-83619893D01*
X152122785Y-83620108D01*
X152350743Y-83525917D01*
X152525304Y-83351661D01*
X152619893Y-83123867D01*
X152620108Y-82877215D01*
X152525917Y-82649257D01*
X152351661Y-82474696D01*
X152123867Y-82380107D01*
X151877215Y-82379892D01*
X151649257Y-82474083D01*
X151474696Y-82648339D01*
X151380107Y-82876133D01*
X151379892Y-83122785D01*
X148344937Y-83122785D01*
X148345108Y-82927215D01*
X148250917Y-82699257D01*
X148226813Y-82675111D01*
X148250304Y-82651661D01*
X148344893Y-82423867D01*
X148345108Y-82177215D01*
X148322618Y-82122785D01*
X150379892Y-82122785D01*
X150474083Y-82350743D01*
X150648339Y-82525304D01*
X150876133Y-82619893D01*
X151122785Y-82620108D01*
X151350743Y-82525917D01*
X151525304Y-82351661D01*
X151619893Y-82123867D01*
X151619893Y-82122785D01*
X152379892Y-82122785D01*
X152474083Y-82350743D01*
X152648339Y-82525304D01*
X152876133Y-82619893D01*
X153122785Y-82620108D01*
X153350743Y-82525917D01*
X153429011Y-82447785D01*
X157829892Y-82447785D01*
X157924083Y-82675743D01*
X158098339Y-82850304D01*
X158326133Y-82944893D01*
X158572785Y-82945108D01*
X158800743Y-82850917D01*
X158975304Y-82676661D01*
X159069893Y-82448867D01*
X159070108Y-82202215D01*
X158975917Y-81974257D01*
X158801661Y-81799696D01*
X158573867Y-81705107D01*
X158327215Y-81704892D01*
X158099257Y-81799083D01*
X157924696Y-81973339D01*
X157830107Y-82201133D01*
X157829892Y-82447785D01*
X153429011Y-82447785D01*
X153525304Y-82351661D01*
X153619893Y-82123867D01*
X153620108Y-81877215D01*
X153597618Y-81822785D01*
X156504892Y-81822785D01*
X156599083Y-82050743D01*
X156773339Y-82225304D01*
X157001133Y-82319893D01*
X157247785Y-82320108D01*
X157475743Y-82225917D01*
X157650304Y-82051661D01*
X157744893Y-81823867D01*
X157745108Y-81577215D01*
X157650917Y-81349257D01*
X157476661Y-81174696D01*
X157248867Y-81080107D01*
X157002215Y-81079892D01*
X156774257Y-81174083D01*
X156599696Y-81348339D01*
X156505107Y-81576133D01*
X156504892Y-81822785D01*
X153597618Y-81822785D01*
X153525917Y-81649257D01*
X153351661Y-81474696D01*
X153123867Y-81380107D01*
X152877215Y-81379892D01*
X152649257Y-81474083D01*
X152474696Y-81648339D01*
X152380107Y-81876133D01*
X152379892Y-82122785D01*
X151619893Y-82122785D01*
X151620108Y-81877215D01*
X151525917Y-81649257D01*
X151351661Y-81474696D01*
X151123867Y-81380107D01*
X150877215Y-81379892D01*
X150649257Y-81474083D01*
X150474696Y-81648339D01*
X150380107Y-81876133D01*
X150379892Y-82122785D01*
X148322618Y-82122785D01*
X148250917Y-81949257D01*
X148226813Y-81925111D01*
X148250304Y-81901661D01*
X148344893Y-81673867D01*
X148345108Y-81427215D01*
X148250917Y-81199257D01*
X148174579Y-81122785D01*
X151379892Y-81122785D01*
X151474083Y-81350743D01*
X151648339Y-81525304D01*
X151876133Y-81619893D01*
X152122785Y-81620108D01*
X152350743Y-81525917D01*
X152525304Y-81351661D01*
X152619893Y-81123867D01*
X152620108Y-80877215D01*
X152559280Y-80730000D01*
X165637826Y-80730000D01*
X165727922Y-81182944D01*
X165984494Y-81566932D01*
X166368482Y-81823504D01*
X166821426Y-81913600D01*
X167178574Y-81913600D01*
X167631518Y-81823504D01*
X168015506Y-81566932D01*
X168272078Y-81182944D01*
X168362174Y-80730000D01*
X168272078Y-80277056D01*
X168015506Y-79893068D01*
X167631518Y-79636496D01*
X167178574Y-79546400D01*
X166821426Y-79546400D01*
X166368482Y-79636496D01*
X165984494Y-79893068D01*
X165727922Y-80277056D01*
X165637826Y-80730000D01*
X152559280Y-80730000D01*
X152525917Y-80649257D01*
X152351661Y-80474696D01*
X152123867Y-80380107D01*
X151877215Y-80379892D01*
X151649257Y-80474083D01*
X151474696Y-80648339D01*
X151380107Y-80876133D01*
X151379892Y-81122785D01*
X148174579Y-81122785D01*
X148076661Y-81024696D01*
X147848867Y-80930107D01*
X147602215Y-80929892D01*
X147374257Y-81024083D01*
X147199696Y-81198339D01*
X147105107Y-81426133D01*
X147104892Y-81672785D01*
X147199083Y-81900743D01*
X147203333Y-81905000D01*
X146625000Y-81905000D01*
X146473840Y-81935068D01*
X146345693Y-82020693D01*
X146011386Y-82355000D01*
X145011203Y-82355000D01*
X145044893Y-82273867D01*
X145045108Y-82027215D01*
X144950917Y-81799257D01*
X144776661Y-81624696D01*
X144548867Y-81530107D01*
X144302215Y-81529892D01*
X144074257Y-81624083D01*
X143899696Y-81798339D01*
X143805107Y-82026133D01*
X143805072Y-82065955D01*
X143750000Y-82055000D01*
X141746784Y-82055000D01*
X141850304Y-81951661D01*
X141944893Y-81723867D01*
X141945108Y-81477215D01*
X141850917Y-81249257D01*
X141676661Y-81074696D01*
X141448867Y-80980107D01*
X141220018Y-80979908D01*
X141220108Y-80877215D01*
X141125917Y-80649257D01*
X140951661Y-80474696D01*
X140723867Y-80380107D01*
X140545018Y-80379951D01*
X140545108Y-80277215D01*
X140481299Y-80122785D01*
X150379892Y-80122785D01*
X150474083Y-80350743D01*
X150648339Y-80525304D01*
X150876133Y-80619893D01*
X151122785Y-80620108D01*
X151350743Y-80525917D01*
X151525304Y-80351661D01*
X151619893Y-80123867D01*
X151619893Y-80122785D01*
X152379892Y-80122785D01*
X152474083Y-80350743D01*
X152648339Y-80525304D01*
X152876133Y-80619893D01*
X153122785Y-80620108D01*
X153350743Y-80525917D01*
X153525304Y-80351661D01*
X153619893Y-80123867D01*
X153619981Y-80022785D01*
X158604892Y-80022785D01*
X158699083Y-80250743D01*
X158873339Y-80425304D01*
X159101133Y-80519893D01*
X159347785Y-80520108D01*
X159575743Y-80425917D01*
X159750304Y-80251661D01*
X159844893Y-80023867D01*
X159845108Y-79777215D01*
X159750917Y-79549257D01*
X159576661Y-79374696D01*
X159348867Y-79280107D01*
X159102215Y-79279892D01*
X158874257Y-79374083D01*
X158699696Y-79548339D01*
X158605107Y-79776133D01*
X158604892Y-80022785D01*
X153619981Y-80022785D01*
X153620108Y-79877215D01*
X153525917Y-79649257D01*
X153351661Y-79474696D01*
X153123867Y-79380107D01*
X152877215Y-79379892D01*
X152649257Y-79474083D01*
X152474696Y-79648339D01*
X152380107Y-79876133D01*
X152379892Y-80122785D01*
X151619893Y-80122785D01*
X151620108Y-79877215D01*
X151525917Y-79649257D01*
X151351661Y-79474696D01*
X151123867Y-79380107D01*
X150877215Y-79379892D01*
X150649257Y-79474083D01*
X150474696Y-79648339D01*
X150380107Y-79876133D01*
X150379892Y-80122785D01*
X140481299Y-80122785D01*
X140450917Y-80049257D01*
X140276661Y-79874696D01*
X140048867Y-79780107D01*
X139945018Y-79780016D01*
X139945108Y-79677215D01*
X139850917Y-79449257D01*
X139676661Y-79274696D01*
X139448867Y-79180107D01*
X139202215Y-79179892D01*
X139120000Y-79213863D01*
X139120000Y-79072785D01*
X155704892Y-79072785D01*
X155799083Y-79300743D01*
X155973339Y-79475304D01*
X156201133Y-79569893D01*
X156447785Y-79570108D01*
X156675743Y-79475917D01*
X156850304Y-79301661D01*
X156944893Y-79073867D01*
X156945108Y-78827215D01*
X156850917Y-78599257D01*
X156676661Y-78424696D01*
X156448867Y-78330107D01*
X156202215Y-78329892D01*
X155974257Y-78424083D01*
X155799696Y-78598339D01*
X155705107Y-78826133D01*
X155704892Y-79072785D01*
X139120000Y-79072785D01*
X139120000Y-78522785D01*
X149904892Y-78522785D01*
X149999083Y-78750743D01*
X150173339Y-78925304D01*
X150401133Y-79019893D01*
X150647785Y-79020108D01*
X150875743Y-78925917D01*
X151050304Y-78751661D01*
X151144893Y-78523867D01*
X151145108Y-78277215D01*
X151050917Y-78049257D01*
X150876661Y-77874696D01*
X150648867Y-77780107D01*
X150402215Y-77779892D01*
X150174257Y-77874083D01*
X149999696Y-78048339D01*
X149905107Y-78276133D01*
X149904892Y-78522785D01*
X139120000Y-78522785D01*
X139120000Y-78113614D01*
X139338614Y-77895000D01*
X147243263Y-77895000D01*
X147373339Y-78025304D01*
X147601133Y-78119893D01*
X147847785Y-78120108D01*
X148075743Y-78025917D01*
X148250304Y-77851661D01*
X148344893Y-77623867D01*
X148345108Y-77377215D01*
X148324112Y-77326400D01*
X165657731Y-77326400D01*
X165657731Y-79053600D01*
X165680044Y-79172185D01*
X165750128Y-79281098D01*
X165857063Y-79354164D01*
X165984000Y-79379869D01*
X168016000Y-79379869D01*
X168134585Y-79357556D01*
X168243498Y-79287472D01*
X168316564Y-79180537D01*
X168342269Y-79053600D01*
X168342269Y-77326400D01*
X168319956Y-77207815D01*
X168249872Y-77098902D01*
X168142937Y-77025836D01*
X168016000Y-77000131D01*
X165984000Y-77000131D01*
X165865415Y-77022444D01*
X165756502Y-77092528D01*
X165683436Y-77199463D01*
X165657731Y-77326400D01*
X148324112Y-77326400D01*
X148250917Y-77149257D01*
X148076661Y-76974696D01*
X147848867Y-76880107D01*
X147602215Y-76879892D01*
X147374257Y-76974083D01*
X147243111Y-77105000D01*
X143050822Y-77105000D01*
X143094893Y-76998867D01*
X143095108Y-76752215D01*
X143000917Y-76524257D01*
X142826661Y-76349696D01*
X142598867Y-76255107D01*
X142352215Y-76254892D01*
X142124257Y-76349083D01*
X141949696Y-76523339D01*
X141855107Y-76751133D01*
X141854892Y-76997785D01*
X141899193Y-77105000D01*
X141311203Y-77105000D01*
X141344893Y-77023867D01*
X141345108Y-76777215D01*
X141250917Y-76549257D01*
X141076661Y-76374696D01*
X140848867Y-76280107D01*
X140602215Y-76279892D01*
X140480945Y-76330000D01*
X135925000Y-76330000D01*
X135706870Y-76373389D01*
X135521949Y-76496949D01*
X135094498Y-76924400D01*
X134974257Y-76974083D01*
X134799696Y-77148339D01*
X134705107Y-77376133D01*
X134704892Y-77622785D01*
X134799083Y-77850743D01*
X134973339Y-78025304D01*
X135201133Y-78119893D01*
X135447785Y-78120108D01*
X135675743Y-78025917D01*
X135850304Y-77851661D01*
X135900624Y-77730478D01*
X136161102Y-77470000D01*
X138646386Y-77470000D01*
X138445693Y-77670693D01*
X138360068Y-77798840D01*
X138330000Y-77950000D01*
X138330000Y-79211385D01*
X137861386Y-79680000D01*
X130156737Y-79680000D01*
X130026661Y-79549696D01*
X129798867Y-79455107D01*
X129552215Y-79454892D01*
X129324257Y-79549083D01*
X129149696Y-79723339D01*
X129055107Y-79951133D01*
X129054892Y-80197785D01*
X129149083Y-80425743D01*
X129323339Y-80600304D01*
X129551133Y-80694893D01*
X129797785Y-80695108D01*
X130025743Y-80600917D01*
X130156889Y-80470000D01*
X138025000Y-80470000D01*
X138176160Y-80439932D01*
X138304307Y-80354307D01*
X138713938Y-79944677D01*
X138799083Y-80150743D01*
X138973339Y-80325304D01*
X139201133Y-80419893D01*
X139304982Y-80419984D01*
X139304892Y-80522785D01*
X139399083Y-80750743D01*
X139573339Y-80925304D01*
X139801133Y-81019893D01*
X139979982Y-81020049D01*
X139979892Y-81122785D01*
X140074083Y-81350743D01*
X140248339Y-81525304D01*
X140476133Y-81619893D01*
X140704982Y-81620092D01*
X140704892Y-81722785D01*
X140799083Y-81950743D01*
X140903158Y-82055000D01*
X137675000Y-82055000D01*
X137523840Y-82085068D01*
X137444968Y-82137768D01*
X137445108Y-81977215D01*
X137369818Y-81795000D01*
X137725000Y-81795000D01*
X137876160Y-81764932D01*
X137943510Y-81719930D01*
X138147785Y-81720108D01*
X138375743Y-81625917D01*
X138550304Y-81451661D01*
X138644893Y-81223867D01*
X138645108Y-80977215D01*
X138550917Y-80749257D01*
X138376661Y-80574696D01*
X138148867Y-80480107D01*
X137902215Y-80479892D01*
X137674257Y-80574083D01*
X137499696Y-80748339D01*
X137405107Y-80976133D01*
X137405082Y-81005000D01*
X136225000Y-81005000D01*
X136073840Y-81035068D01*
X135945693Y-81120693D01*
X135461386Y-81605000D01*
X134611203Y-81605000D01*
X134644893Y-81523867D01*
X134645108Y-81277215D01*
X134550917Y-81049257D01*
X134376661Y-80874696D01*
X134148867Y-80780107D01*
X133902215Y-80779892D01*
X133674257Y-80874083D01*
X133499696Y-81048339D01*
X133405107Y-81276133D01*
X133404892Y-81522785D01*
X133438863Y-81605000D01*
X132788614Y-81605000D01*
X132404307Y-81220693D01*
X132276160Y-81135068D01*
X132125000Y-81105000D01*
X130506737Y-81105000D01*
X130376661Y-80974696D01*
X130148867Y-80880107D01*
X129902215Y-80879892D01*
X129674257Y-80974083D01*
X129499696Y-81148339D01*
X129405107Y-81376133D01*
X129404892Y-81622785D01*
X129428533Y-81680000D01*
X127663620Y-81680000D01*
X127650917Y-81649257D01*
X127476661Y-81474696D01*
X127248867Y-81380107D01*
X127002215Y-81379892D01*
X126895000Y-81424193D01*
X126895000Y-81413614D01*
X126963666Y-81344948D01*
X127147785Y-81345108D01*
X127375743Y-81250917D01*
X127550304Y-81076661D01*
X127644893Y-80848867D01*
X127645108Y-80602215D01*
X127550917Y-80374257D01*
X127376661Y-80199696D01*
X127169810Y-80113804D01*
X127304307Y-79979307D01*
X127323132Y-79951133D01*
X127389932Y-79851160D01*
X127420000Y-79700000D01*
X127420000Y-79256737D01*
X127550304Y-79126661D01*
X127644893Y-78898867D01*
X127645108Y-78652215D01*
X127550917Y-78424257D01*
X127376661Y-78249696D01*
X127148867Y-78155107D01*
X126902215Y-78154892D01*
X126674257Y-78249083D01*
X126499696Y-78423339D01*
X126405107Y-78651133D01*
X126404892Y-78897785D01*
X126499083Y-79125743D01*
X126630000Y-79256889D01*
X126630000Y-79536386D01*
X125745693Y-80420693D01*
X125660068Y-80548840D01*
X125630000Y-80700000D01*
X125630000Y-83125000D01*
X125660068Y-83276160D01*
X125745693Y-83404307D01*
X126154998Y-83813612D01*
X126154998Y-89849264D01*
X126185066Y-90000424D01*
X126270691Y-90128571D01*
X128096429Y-91954309D01*
X128224576Y-92039934D01*
X128375736Y-92070002D01*
X129765701Y-92070002D01*
X129680107Y-92276133D01*
X129679892Y-92522785D01*
X129774083Y-92750743D01*
X129923079Y-92900000D01*
X126275496Y-92900000D01*
X125870565Y-92629435D01*
X125524323Y-92111245D01*
X125395000Y-91461096D01*
X125395000Y-76097785D01*
X128779892Y-76097785D01*
X128874083Y-76325743D01*
X129048339Y-76500304D01*
X129276133Y-76594893D01*
X129522785Y-76595108D01*
X129750743Y-76500917D01*
X129925304Y-76326661D01*
X130009961Y-76122785D01*
X147004892Y-76122785D01*
X147099083Y-76350743D01*
X147273339Y-76525304D01*
X147501133Y-76619893D01*
X147747785Y-76620108D01*
X147975743Y-76525917D01*
X148150304Y-76351661D01*
X148244893Y-76123867D01*
X148245108Y-75877215D01*
X148150917Y-75649257D01*
X147976661Y-75474696D01*
X147748867Y-75380107D01*
X147502215Y-75379892D01*
X147274257Y-75474083D01*
X147099696Y-75648339D01*
X147005107Y-75876133D01*
X147004892Y-76122785D01*
X130009961Y-76122785D01*
X130019893Y-76098867D01*
X130020108Y-75852215D01*
X129925917Y-75624257D01*
X129791826Y-75489931D01*
X129825743Y-75475917D01*
X130000304Y-75301661D01*
X130043437Y-75197785D01*
X132154892Y-75197785D01*
X132249083Y-75425743D01*
X132423339Y-75600304D01*
X132651133Y-75694893D01*
X132897785Y-75695108D01*
X133125743Y-75600917D01*
X133300304Y-75426661D01*
X133394893Y-75198867D01*
X133395108Y-74952215D01*
X133300917Y-74724257D01*
X133126661Y-74549696D01*
X133061853Y-74522785D01*
X142704892Y-74522785D01*
X142799083Y-74750743D01*
X142973339Y-74925304D01*
X143201133Y-75019893D01*
X143447785Y-75020108D01*
X143675743Y-74925917D01*
X143850304Y-74751661D01*
X143944893Y-74523867D01*
X143945108Y-74277215D01*
X143850917Y-74049257D01*
X143676661Y-73874696D01*
X143448867Y-73780107D01*
X143202215Y-73779892D01*
X142974257Y-73874083D01*
X142799696Y-74048339D01*
X142705107Y-74276133D01*
X142704892Y-74522785D01*
X133061853Y-74522785D01*
X132898867Y-74455107D01*
X132652215Y-74454892D01*
X132424257Y-74549083D01*
X132249696Y-74723339D01*
X132155107Y-74951133D01*
X132154892Y-75197785D01*
X130043437Y-75197785D01*
X130094893Y-75073867D01*
X130095108Y-74827215D01*
X130000917Y-74599257D01*
X129892732Y-74490882D01*
X129963614Y-74420000D01*
X137900000Y-74420000D01*
X138051160Y-74389932D01*
X138179307Y-74304307D01*
X138549307Y-73934307D01*
X138634932Y-73806160D01*
X138665000Y-73655000D01*
X138665000Y-73359031D01*
X138733886Y-73330568D01*
X138964757Y-73100099D01*
X139089858Y-72798824D01*
X139090142Y-72472607D01*
X138965568Y-72171114D01*
X138794656Y-71999904D01*
X138964757Y-71830099D01*
X139089858Y-71528824D01*
X139090142Y-71202607D01*
X138965568Y-70901114D01*
X138735099Y-70670243D01*
X138433824Y-70545142D01*
X138107607Y-70544858D01*
X137806114Y-70669432D01*
X137634904Y-70840344D01*
X137465099Y-70670243D01*
X137163824Y-70545142D01*
X136837607Y-70544858D01*
X136536114Y-70669432D01*
X136364904Y-70840344D01*
X136195099Y-70670243D01*
X135893824Y-70545142D01*
X135567607Y-70544858D01*
X135266114Y-70669432D01*
X135035243Y-70899901D01*
X134910142Y-71201176D01*
X134909858Y-71527393D01*
X135034432Y-71828886D01*
X135205344Y-72000096D01*
X135035243Y-72169901D01*
X134910142Y-72471176D01*
X134909858Y-72797393D01*
X135034432Y-73098886D01*
X135264901Y-73329757D01*
X135566176Y-73454858D01*
X135892393Y-73455142D01*
X136193886Y-73330568D01*
X136365096Y-73159656D01*
X136534901Y-73329757D01*
X136836176Y-73454858D01*
X137162393Y-73455142D01*
X137463886Y-73330568D01*
X137635096Y-73159656D01*
X137804901Y-73329757D01*
X137875000Y-73358865D01*
X137875000Y-73491386D01*
X137736386Y-73630000D01*
X129800000Y-73630000D01*
X129648840Y-73660068D01*
X129520693Y-73745693D01*
X129195693Y-74070693D01*
X129110068Y-74198840D01*
X129080000Y-74350000D01*
X129080000Y-74468263D01*
X128949696Y-74598339D01*
X128855107Y-74826133D01*
X128854892Y-75072785D01*
X128949083Y-75300743D01*
X129083174Y-75435069D01*
X129049257Y-75449083D01*
X128874696Y-75623339D01*
X128780107Y-75851133D01*
X128779892Y-76097785D01*
X125395000Y-76097785D01*
X125395000Y-71527393D01*
X126909858Y-71527393D01*
X127034432Y-71828886D01*
X127205344Y-72000096D01*
X127035243Y-72169901D01*
X126910142Y-72471176D01*
X126909858Y-72797393D01*
X127034432Y-73098886D01*
X127264901Y-73329757D01*
X127566176Y-73454858D01*
X127892393Y-73455142D01*
X128193886Y-73330568D01*
X128365096Y-73159656D01*
X128534901Y-73329757D01*
X128836176Y-73454858D01*
X129162393Y-73455142D01*
X129463886Y-73330568D01*
X129635096Y-73159656D01*
X129804901Y-73329757D01*
X130106176Y-73454858D01*
X130432393Y-73455142D01*
X130733886Y-73330568D01*
X130964757Y-73100099D01*
X131089858Y-72798824D01*
X131090142Y-72472607D01*
X130965568Y-72171114D01*
X130794656Y-71999904D01*
X130964757Y-71830099D01*
X131089858Y-71528824D01*
X131090142Y-71202607D01*
X130965568Y-70901114D01*
X130735099Y-70670243D01*
X130433824Y-70545142D01*
X130107607Y-70544858D01*
X129806114Y-70669432D01*
X129634904Y-70840344D01*
X129465099Y-70670243D01*
X129163824Y-70545142D01*
X128837607Y-70544858D01*
X128536114Y-70669432D01*
X128364904Y-70840344D01*
X128195099Y-70670243D01*
X127893824Y-70545142D01*
X127567607Y-70544858D01*
X127266114Y-70669432D01*
X127035243Y-70899901D01*
X126910142Y-71201176D01*
X126909858Y-71527393D01*
X125395000Y-71527393D01*
X125395000Y-71038904D01*
X125524323Y-70388755D01*
X125870565Y-69870565D01*
X126388755Y-69524323D01*
X126511034Y-69500000D01*
X140097262Y-69500000D01*
X140112590Y-69577060D01*
M02*
