G04 #@! TF.FileFunction,Soldermask,Bot*
%FSLAX46Y46*%
G04 Gerber Fmt 4.6, Leading zero omitted, Abs format (unit mm)*
G04 Created by KiCad (PCBNEW 4.0.2+e4-6225~38~ubuntu14.04.1-stable) date Sat 23 Jul 2016 00:32:59 PDT*
%MOMM*%
G01*
G04 APERTURE LIST*
%ADD10C,0.100000*%
%ADD11R,1.550000X0.350000*%
%ADD12R,3.100000X5.180000*%
%ADD13C,0.600000*%
%ADD14R,0.750000X0.800000*%
%ADD15C,0.650240*%
%ADD16R,0.650240X4.599940*%
%ADD17R,0.650240X3.599180*%
%ADD18R,0.800000X0.750000*%
%ADD19R,3.200000X1.000000*%
%ADD20R,2.032000X1.727200*%
%ADD21O,2.032000X1.727200*%
%ADD22R,0.350000X0.350000*%
%ADD23R,0.900000X0.300000*%
%ADD24R,0.300000X0.900000*%
%ADD25R,1.800000X1.800000*%
%ADD26R,4.000500X1.600200*%
%ADD27C,1.100000*%
%ADD28C,0.254000*%
G04 APERTURE END LIST*
D10*
D11*
X154800000Y-77775000D03*
X154800000Y-78425000D03*
X154800000Y-79075000D03*
X154800000Y-79725000D03*
X154800000Y-80375000D03*
X154800000Y-81025000D03*
X154800000Y-81675000D03*
X154800000Y-82325000D03*
X154800000Y-82975000D03*
X154800000Y-83625000D03*
X154800000Y-84275000D03*
X154800000Y-84925000D03*
X154800000Y-85575000D03*
X154800000Y-86225000D03*
X149200000Y-86225000D03*
X149200000Y-85575000D03*
X149200000Y-84925000D03*
X149200000Y-84275000D03*
X149200000Y-83625000D03*
X149200000Y-82975000D03*
X149200000Y-82325000D03*
X149200000Y-81675000D03*
X149200000Y-81025000D03*
X149200000Y-80375000D03*
X149200000Y-79725000D03*
X149200000Y-79075000D03*
X149200000Y-78425000D03*
X149200000Y-77775000D03*
D12*
X152000000Y-82000000D03*
D13*
X152000000Y-83000000D03*
X152000000Y-81000000D03*
X153000000Y-84000000D03*
X151000000Y-84000000D03*
X153000000Y-82000000D03*
X151000000Y-82000000D03*
X153000000Y-80000000D03*
X151000000Y-80000000D03*
D14*
X157625000Y-84350000D03*
X157625000Y-85850000D03*
D15*
X140500400Y-102301240D03*
D16*
X159499600Y-100000000D03*
X158498840Y-100000000D03*
X157500620Y-100000000D03*
X156499860Y-100000000D03*
X155499100Y-100000000D03*
X154500880Y-100000000D03*
X153500120Y-100000000D03*
X152499360Y-100000000D03*
X151501140Y-100000000D03*
X150500380Y-100000000D03*
X149499620Y-100000000D03*
X144500900Y-100000000D03*
X143500140Y-100000000D03*
X142499380Y-100000000D03*
D17*
X141501160Y-99499620D03*
D16*
X140500400Y-100000000D03*
X146499880Y-100000000D03*
X145499120Y-100000000D03*
D15*
X157500620Y-102301240D03*
X156499860Y-102301240D03*
X155499100Y-102301240D03*
X154500880Y-102301240D03*
X153500120Y-102301240D03*
X152499360Y-102301240D03*
X151501140Y-102301240D03*
X150500380Y-102301240D03*
X149499620Y-102301240D03*
X159499600Y-102301240D03*
X146499880Y-102301240D03*
X145499120Y-102301240D03*
X144500900Y-102301240D03*
X143500140Y-102301240D03*
X142499380Y-102301240D03*
X158498840Y-102301240D03*
D18*
X140175000Y-82300000D03*
X138675000Y-82300000D03*
D14*
X157625000Y-79425000D03*
X157625000Y-77925000D03*
D18*
X156375000Y-76200000D03*
X154875000Y-76200000D03*
D19*
X162000000Y-82900000D03*
X162000000Y-89100000D03*
X162000000Y-81100000D03*
X162000000Y-74900000D03*
D20*
X167000000Y-78190000D03*
D21*
X167000000Y-80730000D03*
X167000000Y-83270000D03*
X167000000Y-85810000D03*
D22*
X142675000Y-83900000D03*
D23*
X142375000Y-83400000D03*
X142375000Y-82900000D03*
X142375000Y-82400000D03*
X142375000Y-81900000D03*
D22*
X142675000Y-81400000D03*
D24*
X143175000Y-81100000D03*
X143675000Y-81100000D03*
X144175000Y-81100000D03*
X144675000Y-81100000D03*
D22*
X145175000Y-81400000D03*
D23*
X145475000Y-81900000D03*
X145475000Y-82400000D03*
X145475000Y-82900000D03*
X145475000Y-83400000D03*
D22*
X145175000Y-83900000D03*
D24*
X144675000Y-84200000D03*
X144175000Y-84200000D03*
X143675000Y-84200000D03*
X143175000Y-84200000D03*
D25*
X143925000Y-82650000D03*
D13*
X143425000Y-83150000D03*
X144425000Y-82150000D03*
D26*
X134975540Y-88500000D03*
X128874460Y-88500000D03*
D27*
X138270000Y-72635000D03*
X138270000Y-71365000D03*
X137000000Y-72635000D03*
X137000000Y-71365000D03*
X135730000Y-72635000D03*
X135730000Y-71365000D03*
X130270000Y-72635000D03*
X130270000Y-71365000D03*
X129000000Y-72635000D03*
X129000000Y-71365000D03*
X127730000Y-72635000D03*
X127730000Y-71365000D03*
D28*
G36*
X160023000Y-103298000D02*
X139977000Y-103298000D01*
X139977000Y-97602000D01*
X160023000Y-97602000D01*
X160023000Y-103298000D01*
X160023000Y-103298000D01*
G37*
X160023000Y-103298000D02*
X139977000Y-103298000D01*
X139977000Y-97602000D01*
X160023000Y-97602000D01*
X160023000Y-103298000D01*
G36*
X134775000Y-73800000D02*
X134781839Y-73836346D01*
X134803319Y-73869727D01*
X134836094Y-73892121D01*
X134875000Y-73900000D01*
X139125000Y-73900000D01*
X139161346Y-73893161D01*
X139194727Y-73871681D01*
X139217121Y-73838906D01*
X139220385Y-73822785D01*
X148404892Y-73822785D01*
X148499083Y-74050743D01*
X148673339Y-74225304D01*
X148901133Y-74319893D01*
X149147785Y-74320108D01*
X149375743Y-74225917D01*
X149550304Y-74051661D01*
X149644893Y-73823867D01*
X149645108Y-73577215D01*
X149550917Y-73349257D01*
X149376661Y-73174696D01*
X149148867Y-73080107D01*
X148902215Y-73079892D01*
X148674257Y-73174083D01*
X148499696Y-73348339D01*
X148405107Y-73576133D01*
X148404892Y-73822785D01*
X139220385Y-73822785D01*
X139225000Y-73800000D01*
X139225000Y-70395000D01*
X169561098Y-70395000D01*
X169597716Y-70402284D01*
X169605000Y-70438903D01*
X169605000Y-76979843D01*
X165725769Y-76950003D01*
X165686804Y-76957582D01*
X165653858Y-76979724D01*
X165632121Y-77012939D01*
X165625000Y-77050000D01*
X165625000Y-87100000D01*
X165632879Y-87138906D01*
X165655273Y-87171681D01*
X165688654Y-87193161D01*
X165725000Y-87200000D01*
X169605000Y-87200000D01*
X169605000Y-93061097D01*
X169597716Y-93097716D01*
X169586234Y-93100000D01*
X159800000Y-93100000D01*
X159761094Y-93107879D01*
X159728319Y-93130273D01*
X159706839Y-93163654D01*
X159700000Y-93200000D01*
X159700000Y-102200000D01*
X152152529Y-102200000D01*
X152152529Y-97700030D01*
X152130216Y-97581445D01*
X152071140Y-97489639D01*
X152071140Y-93822785D01*
X154904892Y-93822785D01*
X154999083Y-94050743D01*
X155123187Y-94175064D01*
X154999696Y-94298339D01*
X154905107Y-94526133D01*
X154904892Y-94772785D01*
X154999083Y-95000743D01*
X155173187Y-95175151D01*
X154999696Y-95348339D01*
X154905107Y-95576133D01*
X154904892Y-95822785D01*
X154999083Y-96050743D01*
X155173187Y-96225151D01*
X154999696Y-96398339D01*
X154905107Y-96626133D01*
X154904892Y-96872785D01*
X154999083Y-97100743D01*
X155173339Y-97275304D01*
X155401133Y-97369893D01*
X155647785Y-97370108D01*
X155875743Y-97275917D01*
X156000064Y-97151813D01*
X156123339Y-97275304D01*
X156351133Y-97369893D01*
X156597785Y-97370108D01*
X156825743Y-97275917D01*
X157000304Y-97101661D01*
X157094893Y-96873867D01*
X157095108Y-96627215D01*
X157000917Y-96399257D01*
X156826813Y-96224849D01*
X157000304Y-96051661D01*
X157094893Y-95823867D01*
X157095108Y-95577215D01*
X157000917Y-95349257D01*
X156826813Y-95174849D01*
X157000304Y-95001661D01*
X157094893Y-94773867D01*
X157095108Y-94527215D01*
X157000917Y-94299257D01*
X156901770Y-94199936D01*
X157050304Y-94051661D01*
X157144893Y-93823867D01*
X157145108Y-93577215D01*
X157050917Y-93349257D01*
X156876661Y-93174696D01*
X156648867Y-93080107D01*
X156402215Y-93079892D01*
X156174257Y-93174083D01*
X156024892Y-93323187D01*
X155876661Y-93174696D01*
X155648867Y-93080107D01*
X155402215Y-93079892D01*
X155174257Y-93174083D01*
X154999696Y-93348339D01*
X154905107Y-93576133D01*
X154904892Y-93822785D01*
X152071140Y-93822785D01*
X152071140Y-91069138D01*
X152175743Y-91025917D01*
X152350304Y-90851661D01*
X152444893Y-90623867D01*
X152445108Y-90377215D01*
X152350917Y-90149257D01*
X152176661Y-89974696D01*
X151948867Y-89880107D01*
X151702215Y-89879892D01*
X151474257Y-89974083D01*
X151324892Y-90123187D01*
X151176661Y-89974696D01*
X150948867Y-89880107D01*
X150702215Y-89879892D01*
X150474257Y-89974083D01*
X150324892Y-90123187D01*
X150176661Y-89974696D01*
X149948867Y-89880107D01*
X149702215Y-89879892D01*
X149474257Y-89974083D01*
X149299696Y-90148339D01*
X149249376Y-90269522D01*
X149096569Y-90422329D01*
X148973009Y-90607250D01*
X148929620Y-90825380D01*
X148929620Y-92900000D01*
X143545000Y-92900000D01*
X143545000Y-91973970D01*
X143721985Y-91796985D01*
X143813029Y-91660727D01*
X143845000Y-91500000D01*
X143845000Y-90873970D01*
X144221985Y-90496985D01*
X144313029Y-90360727D01*
X144345000Y-90200000D01*
X144345000Y-89656781D01*
X144450304Y-89551661D01*
X144544893Y-89323867D01*
X144545044Y-89150000D01*
X160300000Y-89150000D01*
X160300000Y-89619891D01*
X160315224Y-89656645D01*
X160343354Y-89684776D01*
X160380109Y-89700000D01*
X161950000Y-89700000D01*
X161975000Y-89675000D01*
X161975000Y-89125000D01*
X162025000Y-89125000D01*
X162025000Y-89675000D01*
X162050000Y-89700000D01*
X163619891Y-89700000D01*
X163656646Y-89684776D01*
X163684776Y-89656645D01*
X163700000Y-89619891D01*
X163700000Y-89150000D01*
X163675000Y-89125000D01*
X162025000Y-89125000D01*
X161975000Y-89125000D01*
X160325000Y-89125000D01*
X160300000Y-89150000D01*
X144545044Y-89150000D01*
X144545108Y-89077215D01*
X144480150Y-88920005D01*
X144597785Y-88920108D01*
X144825743Y-88825917D01*
X145000304Y-88651661D01*
X145030015Y-88580109D01*
X160300000Y-88580109D01*
X160300000Y-89050000D01*
X160325000Y-89075000D01*
X161975000Y-89075000D01*
X161975000Y-88525000D01*
X162025000Y-88525000D01*
X162025000Y-89075000D01*
X163675000Y-89075000D01*
X163700000Y-89050000D01*
X163700000Y-88580109D01*
X163684776Y-88543355D01*
X163656646Y-88515224D01*
X163619891Y-88500000D01*
X162050000Y-88500000D01*
X162025000Y-88525000D01*
X161975000Y-88525000D01*
X161950000Y-88500000D01*
X160380109Y-88500000D01*
X160343354Y-88515224D01*
X160315224Y-88543355D01*
X160300000Y-88580109D01*
X145030015Y-88580109D01*
X145094893Y-88423867D01*
X145095108Y-88177215D01*
X145000917Y-87949257D01*
X144951813Y-87900067D01*
X144975656Y-87876266D01*
X145201133Y-87969893D01*
X145447785Y-87970108D01*
X145675743Y-87875917D01*
X145728967Y-87822785D01*
X154204892Y-87822785D01*
X154299083Y-88050743D01*
X154473339Y-88225304D01*
X154701133Y-88319893D01*
X154947785Y-88320108D01*
X155175743Y-88225917D01*
X155350304Y-88051661D01*
X155444893Y-87823867D01*
X155445108Y-87577215D01*
X155350917Y-87349257D01*
X155176661Y-87174696D01*
X154948867Y-87080107D01*
X154702215Y-87079892D01*
X154474257Y-87174083D01*
X154299696Y-87348339D01*
X154205107Y-87576133D01*
X154204892Y-87822785D01*
X145728967Y-87822785D01*
X145850304Y-87701661D01*
X145944893Y-87473867D01*
X145945108Y-87227215D01*
X145850917Y-86999257D01*
X145676661Y-86824696D01*
X145448867Y-86730107D01*
X145202215Y-86729892D01*
X144974257Y-86824083D01*
X144824344Y-86973734D01*
X144598867Y-86880107D01*
X144352215Y-86879892D01*
X144124257Y-86974083D01*
X143949696Y-87148339D01*
X143855107Y-87376133D01*
X143854892Y-87622785D01*
X143949083Y-87850743D01*
X143998187Y-87899933D01*
X143949696Y-87948339D01*
X143855107Y-88176133D01*
X143854892Y-88422785D01*
X143919850Y-88579995D01*
X143802215Y-88579892D01*
X143574257Y-88674083D01*
X143399696Y-88848339D01*
X143344982Y-88980104D01*
X143102215Y-88979892D01*
X142874257Y-89074083D01*
X142699696Y-89248339D01*
X142605107Y-89476133D01*
X142605104Y-89480069D01*
X142402215Y-89479892D01*
X142174257Y-89574083D01*
X141999696Y-89748339D01*
X141905107Y-89976133D01*
X141905016Y-90079982D01*
X141802215Y-90079892D01*
X141574257Y-90174083D01*
X141399696Y-90348339D01*
X141305107Y-90576133D01*
X141304892Y-90822785D01*
X141399083Y-91050743D01*
X141505000Y-91156845D01*
X141505000Y-92900000D01*
X140920400Y-92900000D01*
X140920400Y-90090104D01*
X141075743Y-90025917D01*
X141250304Y-89851661D01*
X141344893Y-89623867D01*
X141345108Y-89377215D01*
X141250917Y-89149257D01*
X141076661Y-88974696D01*
X140848867Y-88880107D01*
X140602215Y-88879892D01*
X140374257Y-88974083D01*
X140199696Y-89148339D01*
X140105107Y-89376133D01*
X140104911Y-89601378D01*
X140080400Y-89724600D01*
X140080400Y-89993201D01*
X140048867Y-89980107D01*
X139945018Y-89980016D01*
X139945108Y-89877215D01*
X139850917Y-89649257D01*
X139676661Y-89474696D01*
X139448867Y-89380107D01*
X139345018Y-89380016D01*
X139345108Y-89277215D01*
X139250917Y-89049257D01*
X139076661Y-88874696D01*
X138848867Y-88780107D01*
X138602215Y-88779892D01*
X138374257Y-88874083D01*
X138199696Y-89048339D01*
X138105107Y-89276133D01*
X138104892Y-89522785D01*
X138199083Y-89750743D01*
X138373339Y-89925304D01*
X138601133Y-90019893D01*
X138704982Y-90019984D01*
X138704892Y-90122785D01*
X138799083Y-90350743D01*
X138973339Y-90525304D01*
X139201133Y-90619893D01*
X139304982Y-90619984D01*
X139304892Y-90722785D01*
X139399083Y-90950743D01*
X139573339Y-91125304D01*
X139801133Y-91219893D01*
X140047785Y-91220108D01*
X140080400Y-91206632D01*
X140080400Y-92900000D01*
X137525000Y-92900000D01*
X137525000Y-83900000D01*
X137517121Y-83861094D01*
X137494727Y-83828319D01*
X137461346Y-83806839D01*
X137425000Y-83800000D01*
X135913280Y-83800000D01*
X135944893Y-83723867D01*
X135945108Y-83477215D01*
X135881299Y-83322785D01*
X137404892Y-83322785D01*
X137499083Y-83550743D01*
X137673339Y-83725304D01*
X137901133Y-83819893D01*
X138147785Y-83820108D01*
X138375743Y-83725917D01*
X138481845Y-83620000D01*
X139825000Y-83620000D01*
X139985727Y-83588029D01*
X140121985Y-83496985D01*
X140471985Y-83146985D01*
X140563029Y-83010727D01*
X140564910Y-83001269D01*
X140575000Y-83001269D01*
X140693585Y-82978956D01*
X140802498Y-82908872D01*
X140863222Y-82820000D01*
X141753331Y-82820000D01*
X141798063Y-82850564D01*
X141832547Y-82857547D01*
X141850000Y-82875000D01*
X141918733Y-82875000D01*
X141925000Y-82876269D01*
X142825000Y-82876269D01*
X142831744Y-82875000D01*
X142900000Y-82875000D01*
X142915820Y-82859180D01*
X142925000Y-82857453D01*
X142925000Y-82943981D01*
X142917453Y-82942453D01*
X142900000Y-82925000D01*
X142831267Y-82925000D01*
X142825000Y-82923731D01*
X141925000Y-82923731D01*
X141918256Y-82925000D01*
X141850000Y-82925000D01*
X141834180Y-82940820D01*
X141806415Y-82946044D01*
X141697502Y-83016128D01*
X141624436Y-83123063D01*
X141598731Y-83250000D01*
X141598731Y-83550000D01*
X141621044Y-83668585D01*
X141628756Y-83680570D01*
X141605000Y-83800000D01*
X141605000Y-84143219D01*
X141499696Y-84248339D01*
X141405107Y-84476133D01*
X141404892Y-84722785D01*
X141499083Y-84950743D01*
X141673339Y-85125304D01*
X141805104Y-85180018D01*
X141804892Y-85422785D01*
X141899083Y-85650743D01*
X142073339Y-85825304D01*
X142301133Y-85919893D01*
X142545104Y-85920106D01*
X142599083Y-86050743D01*
X142773339Y-86225304D01*
X143001133Y-86319893D01*
X143247785Y-86320108D01*
X143475743Y-86225917D01*
X143524933Y-86176813D01*
X143573339Y-86225304D01*
X143801133Y-86319893D01*
X144047785Y-86320108D01*
X144275743Y-86225917D01*
X144450304Y-86051661D01*
X144505018Y-85919896D01*
X144747785Y-85920108D01*
X144975743Y-85825917D01*
X145150304Y-85651661D01*
X145244893Y-85423867D01*
X145245108Y-85177215D01*
X145150917Y-84949257D01*
X145146667Y-84945000D01*
X145276030Y-84945000D01*
X146203015Y-85871985D01*
X146339273Y-85963029D01*
X146500000Y-85995000D01*
X147238797Y-85995000D01*
X147205107Y-86076133D01*
X147204892Y-86322785D01*
X147299083Y-86550743D01*
X147473339Y-86725304D01*
X147701133Y-86819893D01*
X147947785Y-86820108D01*
X148175743Y-86725917D01*
X148240524Y-86661249D01*
X148298063Y-86700564D01*
X148425000Y-86726269D01*
X149975000Y-86726269D01*
X150093585Y-86703956D01*
X150202498Y-86633872D01*
X150275564Y-86526937D01*
X150301269Y-86400000D01*
X150301269Y-86275000D01*
X153925000Y-86275000D01*
X153925000Y-86419891D01*
X153940224Y-86456646D01*
X153968355Y-86484776D01*
X154005109Y-86500000D01*
X154750000Y-86500000D01*
X154775000Y-86475000D01*
X154775000Y-86250000D01*
X154825000Y-86250000D01*
X154825000Y-86475000D01*
X154850000Y-86500000D01*
X155594891Y-86500000D01*
X155631645Y-86484776D01*
X155659776Y-86456646D01*
X155675000Y-86419891D01*
X155675000Y-86275000D01*
X155650000Y-86250000D01*
X154825000Y-86250000D01*
X154775000Y-86250000D01*
X153950000Y-86250000D01*
X153925000Y-86275000D01*
X150301269Y-86275000D01*
X150301269Y-86050000D01*
X150278956Y-85931415D01*
X150259257Y-85900803D01*
X150275564Y-85876937D01*
X150301269Y-85750000D01*
X150301269Y-85400000D01*
X150278956Y-85281415D01*
X150259257Y-85250803D01*
X150275564Y-85226937D01*
X150301269Y-85100000D01*
X150301269Y-84750000D01*
X150278956Y-84631415D01*
X150259257Y-84600803D01*
X150275564Y-84576937D01*
X150301269Y-84450000D01*
X150301269Y-84100000D01*
X150278956Y-83981415D01*
X150259257Y-83950803D01*
X150275564Y-83926937D01*
X150301269Y-83800000D01*
X150301269Y-83450000D01*
X150278956Y-83331415D01*
X150259257Y-83300803D01*
X150275564Y-83276937D01*
X150301269Y-83150000D01*
X150301269Y-82800000D01*
X150278956Y-82681415D01*
X150259257Y-82650803D01*
X150275564Y-82626937D01*
X150301269Y-82500000D01*
X150301269Y-82150000D01*
X150278956Y-82031415D01*
X150259257Y-82000803D01*
X150275564Y-81976937D01*
X150301269Y-81850000D01*
X150301269Y-81500000D01*
X150278956Y-81381415D01*
X150259257Y-81350803D01*
X150275564Y-81326937D01*
X150301269Y-81200000D01*
X150301269Y-80850000D01*
X150278956Y-80731415D01*
X150259257Y-80700803D01*
X150275564Y-80676937D01*
X150301269Y-80550000D01*
X150301269Y-80200000D01*
X150278956Y-80081415D01*
X150259257Y-80050803D01*
X150275564Y-80026937D01*
X150301269Y-79900000D01*
X150301269Y-79550000D01*
X150278956Y-79431415D01*
X150259257Y-79400803D01*
X150266563Y-79390109D01*
X150350000Y-79390109D01*
X150350000Y-81950000D01*
X150375000Y-81975000D01*
X150599352Y-81975000D01*
X150600455Y-82025000D01*
X150375000Y-82025000D01*
X150350000Y-82050000D01*
X150350000Y-84609891D01*
X150365224Y-84646646D01*
X150393355Y-84674776D01*
X150430109Y-84690000D01*
X151950000Y-84690000D01*
X151975000Y-84665000D01*
X151975000Y-83400648D01*
X152025000Y-83399545D01*
X152025000Y-84665000D01*
X152050000Y-84690000D01*
X153569891Y-84690000D01*
X153606645Y-84674776D01*
X153634776Y-84646646D01*
X153650000Y-84609891D01*
X153650000Y-82050000D01*
X153625000Y-82025000D01*
X153400648Y-82025000D01*
X153399545Y-81975000D01*
X153625000Y-81975000D01*
X153650000Y-81950000D01*
X153650000Y-79390109D01*
X153634776Y-79353354D01*
X153606645Y-79325224D01*
X153569891Y-79310000D01*
X152050000Y-79310000D01*
X152025000Y-79335000D01*
X152025000Y-80599352D01*
X151975000Y-80600455D01*
X151975000Y-79335000D01*
X151950000Y-79310000D01*
X150430109Y-79310000D01*
X150393355Y-79325224D01*
X150365224Y-79353354D01*
X150350000Y-79390109D01*
X150266563Y-79390109D01*
X150275564Y-79376937D01*
X150301269Y-79250000D01*
X150301269Y-78978426D01*
X150401133Y-79019893D01*
X150647785Y-79020108D01*
X150875743Y-78925917D01*
X151050304Y-78751661D01*
X151144893Y-78523867D01*
X151145108Y-78277215D01*
X151050917Y-78049257D01*
X150876661Y-77874696D01*
X150648867Y-77780107D01*
X150402215Y-77779892D01*
X150174257Y-77874083D01*
X150099306Y-77948903D01*
X150075000Y-77943981D01*
X150075000Y-77825000D01*
X150050000Y-77800000D01*
X149225000Y-77800000D01*
X149225000Y-77820000D01*
X149175000Y-77820000D01*
X149175000Y-77800000D01*
X148350000Y-77800000D01*
X148325000Y-77825000D01*
X148325000Y-77942547D01*
X148306415Y-77946044D01*
X148214795Y-78005000D01*
X148200000Y-78005000D01*
X148058011Y-78033244D01*
X148075743Y-78025917D01*
X148250304Y-77851661D01*
X148325000Y-77671774D01*
X148325000Y-77725000D01*
X148350000Y-77750000D01*
X149175000Y-77750000D01*
X149175000Y-77525000D01*
X149225000Y-77525000D01*
X149225000Y-77750000D01*
X150050000Y-77750000D01*
X150075000Y-77725000D01*
X150075000Y-77600000D01*
X153698731Y-77600000D01*
X153698731Y-77950000D01*
X153721044Y-78068585D01*
X153740743Y-78099197D01*
X153724436Y-78123063D01*
X153698731Y-78250000D01*
X153698731Y-78600000D01*
X153721044Y-78718585D01*
X153740743Y-78749197D01*
X153724436Y-78773063D01*
X153698731Y-78900000D01*
X153698731Y-79250000D01*
X153721044Y-79368585D01*
X153740743Y-79399197D01*
X153724436Y-79423063D01*
X153698731Y-79550000D01*
X153698731Y-79900000D01*
X153721044Y-80018585D01*
X153740743Y-80049197D01*
X153724436Y-80073063D01*
X153698731Y-80200000D01*
X153698731Y-80550000D01*
X153721044Y-80668585D01*
X153740743Y-80699197D01*
X153724436Y-80723063D01*
X153698731Y-80850000D01*
X153698731Y-81200000D01*
X153721044Y-81318585D01*
X153740743Y-81349197D01*
X153724436Y-81373063D01*
X153698731Y-81500000D01*
X153698731Y-81850000D01*
X153721044Y-81968585D01*
X153740743Y-81999197D01*
X153724436Y-82023063D01*
X153698731Y-82150000D01*
X153698731Y-82500000D01*
X153721044Y-82618585D01*
X153740743Y-82649197D01*
X153724436Y-82673063D01*
X153698731Y-82800000D01*
X153698731Y-83150000D01*
X153721044Y-83268585D01*
X153740743Y-83299197D01*
X153724436Y-83323063D01*
X153698731Y-83450000D01*
X153698731Y-83800000D01*
X153721044Y-83918585D01*
X153740743Y-83949197D01*
X153724436Y-83973063D01*
X153698731Y-84100000D01*
X153698731Y-84450000D01*
X153721044Y-84568585D01*
X153740743Y-84599197D01*
X153724436Y-84623063D01*
X153698731Y-84750000D01*
X153698731Y-85100000D01*
X153721044Y-85218585D01*
X153740743Y-85249197D01*
X153724436Y-85273063D01*
X153698731Y-85400000D01*
X153698731Y-85750000D01*
X153721044Y-85868585D01*
X153791128Y-85977498D01*
X153898063Y-86050564D01*
X153925000Y-86056019D01*
X153925000Y-86175000D01*
X153950000Y-86200000D01*
X154775000Y-86200000D01*
X154775000Y-86180000D01*
X154825000Y-86180000D01*
X154825000Y-86200000D01*
X155650000Y-86200000D01*
X155675000Y-86175000D01*
X155675000Y-86057453D01*
X155693585Y-86053956D01*
X155802498Y-85983872D01*
X155875564Y-85876937D01*
X155875696Y-85876283D01*
X156101133Y-85969893D01*
X156347785Y-85970108D01*
X156517458Y-85900000D01*
X157150000Y-85900000D01*
X157150000Y-86269891D01*
X157165224Y-86306645D01*
X157193354Y-86334776D01*
X157230109Y-86350000D01*
X157575000Y-86350000D01*
X157600000Y-86325000D01*
X157600000Y-85875000D01*
X157650000Y-85875000D01*
X157650000Y-86325000D01*
X157675000Y-86350000D01*
X158019891Y-86350000D01*
X158056646Y-86334776D01*
X158084776Y-86306645D01*
X158100000Y-86269891D01*
X158100000Y-85900000D01*
X158075000Y-85875000D01*
X157650000Y-85875000D01*
X157600000Y-85875000D01*
X157175000Y-85875000D01*
X157150000Y-85900000D01*
X156517458Y-85900000D01*
X156575743Y-85875917D01*
X156750304Y-85701661D01*
X156844893Y-85473867D01*
X156844931Y-85430109D01*
X157150000Y-85430109D01*
X157150000Y-85800000D01*
X157175000Y-85825000D01*
X157600000Y-85825000D01*
X157600000Y-85375000D01*
X157650000Y-85375000D01*
X157650000Y-85825000D01*
X158075000Y-85825000D01*
X158100000Y-85800000D01*
X158100000Y-85430109D01*
X158084776Y-85393355D01*
X158056646Y-85365224D01*
X158019891Y-85350000D01*
X157675000Y-85350000D01*
X157650000Y-85375000D01*
X157600000Y-85375000D01*
X157575000Y-85350000D01*
X157230109Y-85350000D01*
X157193354Y-85365224D01*
X157165224Y-85393355D01*
X157150000Y-85430109D01*
X156844931Y-85430109D01*
X156845108Y-85227215D01*
X156750917Y-84999257D01*
X156596090Y-84844159D01*
X156654559Y-84820000D01*
X156936902Y-84820000D01*
X156946044Y-84868585D01*
X157016128Y-84977498D01*
X157123063Y-85050564D01*
X157250000Y-85076269D01*
X158000000Y-85076269D01*
X158118585Y-85053956D01*
X158227498Y-84983872D01*
X158300564Y-84876937D01*
X158326269Y-84750000D01*
X158326269Y-84278152D01*
X158373339Y-84325304D01*
X158601133Y-84419893D01*
X158847785Y-84420108D01*
X159075743Y-84325917D01*
X159250304Y-84151661D01*
X159344893Y-83923867D01*
X159345108Y-83677215D01*
X159250917Y-83449257D01*
X159246667Y-83445000D01*
X160082198Y-83445000D01*
X160096044Y-83518585D01*
X160166128Y-83627498D01*
X160273063Y-83700564D01*
X160400000Y-83726269D01*
X163600000Y-83726269D01*
X163718585Y-83703956D01*
X163827498Y-83633872D01*
X163900564Y-83526937D01*
X163926269Y-83400000D01*
X163926269Y-82400000D01*
X163903956Y-82281415D01*
X163833872Y-82172502D01*
X163726937Y-82099436D01*
X163600000Y-82073731D01*
X160400000Y-82073731D01*
X160281415Y-82096044D01*
X160172502Y-82166128D01*
X160099436Y-82273063D01*
X160073731Y-82400000D01*
X160073731Y-82505000D01*
X159611203Y-82505000D01*
X159644893Y-82423867D01*
X159645108Y-82177215D01*
X159550917Y-81949257D01*
X159376661Y-81774696D01*
X159148867Y-81680107D01*
X158902215Y-81679892D01*
X158674257Y-81774083D01*
X158593198Y-81855000D01*
X157731965Y-81855000D01*
X157744893Y-81823867D01*
X157745108Y-81577215D01*
X157711137Y-81495000D01*
X160073731Y-81495000D01*
X160073731Y-81600000D01*
X160096044Y-81718585D01*
X160166128Y-81827498D01*
X160273063Y-81900564D01*
X160400000Y-81926269D01*
X163600000Y-81926269D01*
X163718585Y-81903956D01*
X163827498Y-81833872D01*
X163900564Y-81726937D01*
X163926269Y-81600000D01*
X163926269Y-80600000D01*
X163903956Y-80481415D01*
X163833872Y-80372502D01*
X163726937Y-80299436D01*
X163600000Y-80273731D01*
X160400000Y-80273731D01*
X160281415Y-80296044D01*
X160172502Y-80366128D01*
X160099436Y-80473063D01*
X160082844Y-80555000D01*
X159846959Y-80555000D01*
X159850304Y-80551661D01*
X159944893Y-80323867D01*
X159945108Y-80077215D01*
X159850917Y-79849257D01*
X159676661Y-79674696D01*
X159448867Y-79580107D01*
X159202215Y-79579892D01*
X158974257Y-79674083D01*
X158799696Y-79848339D01*
X158776168Y-79905000D01*
X158310069Y-79905000D01*
X158326269Y-79825000D01*
X158326269Y-79025000D01*
X158303956Y-78906415D01*
X158233872Y-78797502D01*
X158126937Y-78724436D01*
X158000000Y-78698731D01*
X157250000Y-78698731D01*
X157131415Y-78721044D01*
X157022502Y-78791128D01*
X156949436Y-78898063D01*
X156945027Y-78919834D01*
X156945108Y-78827215D01*
X156850917Y-78599257D01*
X156676661Y-78424696D01*
X156512458Y-78356512D01*
X156596985Y-78271985D01*
X156688029Y-78135727D01*
X156720000Y-77975000D01*
X157150000Y-77975000D01*
X157150000Y-78344891D01*
X157165224Y-78381645D01*
X157193354Y-78409776D01*
X157230109Y-78425000D01*
X157575000Y-78425000D01*
X157600000Y-78400000D01*
X157600000Y-77950000D01*
X157650000Y-77950000D01*
X157650000Y-78400000D01*
X157675000Y-78425000D01*
X158019891Y-78425000D01*
X158056646Y-78409776D01*
X158084776Y-78381645D01*
X158100000Y-78344891D01*
X158100000Y-77975000D01*
X158075000Y-77950000D01*
X157650000Y-77950000D01*
X157600000Y-77950000D01*
X157175000Y-77950000D01*
X157150000Y-77975000D01*
X156720000Y-77975000D01*
X156720000Y-77505109D01*
X157150000Y-77505109D01*
X157150000Y-77875000D01*
X157175000Y-77900000D01*
X157600000Y-77900000D01*
X157600000Y-77450000D01*
X157650000Y-77450000D01*
X157650000Y-77900000D01*
X158075000Y-77900000D01*
X158100000Y-77875000D01*
X158100000Y-77505109D01*
X158084776Y-77468355D01*
X158056646Y-77440224D01*
X158019891Y-77425000D01*
X157675000Y-77425000D01*
X157650000Y-77450000D01*
X157600000Y-77450000D01*
X157575000Y-77425000D01*
X157230109Y-77425000D01*
X157193354Y-77440224D01*
X157165224Y-77468355D01*
X157150000Y-77505109D01*
X156720000Y-77505109D01*
X156720000Y-76901269D01*
X156775000Y-76901269D01*
X156893585Y-76878956D01*
X157002498Y-76808872D01*
X157075564Y-76701937D01*
X157101269Y-76575000D01*
X157101269Y-75825000D01*
X157078956Y-75706415D01*
X157008872Y-75597502D01*
X156901937Y-75524436D01*
X156775000Y-75498731D01*
X155975000Y-75498731D01*
X155856415Y-75521044D01*
X155747502Y-75591128D01*
X155674436Y-75698063D01*
X155648731Y-75825000D01*
X155648731Y-76575000D01*
X155671044Y-76693585D01*
X155741128Y-76802498D01*
X155848063Y-76875564D01*
X155880000Y-76882031D01*
X155880000Y-77486963D01*
X155878956Y-77481415D01*
X155808872Y-77372502D01*
X155701937Y-77299436D01*
X155575000Y-77273731D01*
X155220000Y-77273731D01*
X155220000Y-76901269D01*
X155275000Y-76901269D01*
X155393585Y-76878956D01*
X155502498Y-76808872D01*
X155575564Y-76701937D01*
X155601269Y-76575000D01*
X155601269Y-75825000D01*
X155578956Y-75706415D01*
X155508872Y-75597502D01*
X155401937Y-75524436D01*
X155275000Y-75498731D01*
X154475000Y-75498731D01*
X154356415Y-75521044D01*
X154247502Y-75591128D01*
X154174436Y-75698063D01*
X154148731Y-75825000D01*
X154148731Y-76575000D01*
X154171044Y-76693585D01*
X154241128Y-76802498D01*
X154348063Y-76875564D01*
X154380000Y-76882031D01*
X154380000Y-77273731D01*
X154025000Y-77273731D01*
X153906415Y-77296044D01*
X153797502Y-77366128D01*
X153724436Y-77473063D01*
X153698731Y-77600000D01*
X150075000Y-77600000D01*
X150075000Y-77580109D01*
X150059776Y-77543354D01*
X150031645Y-77515224D01*
X149994891Y-77500000D01*
X149250000Y-77500000D01*
X149225000Y-77525000D01*
X149175000Y-77525000D01*
X149150000Y-77500000D01*
X148405109Y-77500000D01*
X148368355Y-77515224D01*
X148344967Y-77538611D01*
X148345108Y-77377215D01*
X148250917Y-77149257D01*
X148076661Y-76974696D01*
X147848867Y-76880107D01*
X147602215Y-76879892D01*
X147374257Y-76974083D01*
X147199696Y-77148339D01*
X147105107Y-77376133D01*
X147104892Y-77622785D01*
X147199083Y-77850743D01*
X147373339Y-78025304D01*
X147601133Y-78119893D01*
X147847785Y-78120108D01*
X148023526Y-78047493D01*
X147903015Y-78128015D01*
X147703015Y-78328015D01*
X147611971Y-78464273D01*
X147580000Y-78625000D01*
X147580000Y-78806052D01*
X146456052Y-79930000D01*
X144375000Y-79930000D01*
X144214273Y-79961971D01*
X144078015Y-80053015D01*
X143974400Y-80156630D01*
X143971985Y-80153015D01*
X143621985Y-79803015D01*
X143485727Y-79711971D01*
X143325000Y-79680000D01*
X141587540Y-79680000D01*
X141485727Y-79611971D01*
X141325000Y-79580000D01*
X140498970Y-79580000D01*
X140421985Y-79503015D01*
X140285727Y-79411971D01*
X140125000Y-79380000D01*
X139781781Y-79380000D01*
X139676661Y-79274696D01*
X139448867Y-79180107D01*
X139202215Y-79179892D01*
X138974257Y-79274083D01*
X138799696Y-79448339D01*
X138705107Y-79676133D01*
X138704892Y-79922785D01*
X138799083Y-80150743D01*
X138973339Y-80325304D01*
X139201133Y-80419893D01*
X139304982Y-80419984D01*
X139304892Y-80522785D01*
X139399083Y-80750743D01*
X139573339Y-80925304D01*
X139801133Y-81019893D01*
X140004982Y-81020071D01*
X140004892Y-81122785D01*
X140099083Y-81350743D01*
X140273339Y-81525304D01*
X140450170Y-81598731D01*
X139775000Y-81598731D01*
X139656415Y-81621044D01*
X139547502Y-81691128D01*
X139474436Y-81798063D01*
X139448731Y-81925000D01*
X139448731Y-82675000D01*
X139468488Y-82780000D01*
X138481781Y-82780000D01*
X138476790Y-82775000D01*
X138625000Y-82775000D01*
X138650000Y-82750000D01*
X138650000Y-82325000D01*
X138700000Y-82325000D01*
X138700000Y-82750000D01*
X138725000Y-82775000D01*
X139094891Y-82775000D01*
X139131645Y-82759776D01*
X139159776Y-82731646D01*
X139175000Y-82694891D01*
X139175000Y-82350000D01*
X139150000Y-82325000D01*
X138700000Y-82325000D01*
X138650000Y-82325000D01*
X138200000Y-82325000D01*
X138175000Y-82350000D01*
X138175000Y-82590958D01*
X138148867Y-82580107D01*
X137902215Y-82579892D01*
X137674257Y-82674083D01*
X137499696Y-82848339D01*
X137405107Y-83076133D01*
X137404892Y-83322785D01*
X135881299Y-83322785D01*
X135850917Y-83249257D01*
X135676661Y-83074696D01*
X135448867Y-82980107D01*
X135202215Y-82979892D01*
X134974257Y-83074083D01*
X134799696Y-83248339D01*
X134705107Y-83476133D01*
X134704892Y-83722785D01*
X134736797Y-83800000D01*
X125395000Y-83800000D01*
X125395000Y-82122785D01*
X126504892Y-82122785D01*
X126599083Y-82350743D01*
X126773339Y-82525304D01*
X127001133Y-82619893D01*
X127247785Y-82620108D01*
X127475743Y-82525917D01*
X127650304Y-82351661D01*
X127703818Y-82222785D01*
X136204892Y-82222785D01*
X136299083Y-82450743D01*
X136473339Y-82625304D01*
X136701133Y-82719893D01*
X136947785Y-82720108D01*
X137175743Y-82625917D01*
X137350304Y-82451661D01*
X137444893Y-82223867D01*
X137445108Y-81977215D01*
X137415315Y-81905109D01*
X138175000Y-81905109D01*
X138175000Y-82250000D01*
X138200000Y-82275000D01*
X138650000Y-82275000D01*
X138650000Y-81850000D01*
X138700000Y-81850000D01*
X138700000Y-82275000D01*
X139150000Y-82275000D01*
X139175000Y-82250000D01*
X139175000Y-81905109D01*
X139159776Y-81868354D01*
X139131645Y-81840224D01*
X139094891Y-81825000D01*
X138725000Y-81825000D01*
X138700000Y-81850000D01*
X138650000Y-81850000D01*
X138625000Y-81825000D01*
X138255109Y-81825000D01*
X138218355Y-81840224D01*
X138190224Y-81868354D01*
X138175000Y-81905109D01*
X137415315Y-81905109D01*
X137350917Y-81749257D01*
X137176661Y-81574696D01*
X136948867Y-81480107D01*
X136702215Y-81479892D01*
X136474257Y-81574083D01*
X136299696Y-81748339D01*
X136205107Y-81976133D01*
X136204892Y-82222785D01*
X127703818Y-82222785D01*
X127744893Y-82123867D01*
X127745108Y-81877215D01*
X127650917Y-81649257D01*
X127624492Y-81622785D01*
X129404892Y-81622785D01*
X129499083Y-81850743D01*
X129673339Y-82025304D01*
X129901133Y-82119893D01*
X130147785Y-82120108D01*
X130375743Y-82025917D01*
X130550304Y-81851661D01*
X130644893Y-81623867D01*
X130644981Y-81522785D01*
X133404892Y-81522785D01*
X133499083Y-81750743D01*
X133673339Y-81925304D01*
X133901133Y-82019893D01*
X134147785Y-82020108D01*
X134375743Y-81925917D01*
X134550304Y-81751661D01*
X134644893Y-81523867D01*
X134645108Y-81277215D01*
X134622618Y-81222785D01*
X137404892Y-81222785D01*
X137499083Y-81450743D01*
X137673339Y-81625304D01*
X137901133Y-81719893D01*
X138147785Y-81720108D01*
X138375743Y-81625917D01*
X138550304Y-81451661D01*
X138644893Y-81223867D01*
X138645108Y-80977215D01*
X138550917Y-80749257D01*
X138376661Y-80574696D01*
X138148867Y-80480107D01*
X137902215Y-80479892D01*
X137674257Y-80574083D01*
X137499696Y-80748339D01*
X137405107Y-80976133D01*
X137404892Y-81222785D01*
X134622618Y-81222785D01*
X134550917Y-81049257D01*
X134376661Y-80874696D01*
X134148867Y-80780107D01*
X133902215Y-80779892D01*
X133674257Y-80874083D01*
X133499696Y-81048339D01*
X133405107Y-81276133D01*
X133404892Y-81522785D01*
X130644981Y-81522785D01*
X130645108Y-81377215D01*
X130621430Y-81319911D01*
X130847785Y-81320108D01*
X131075743Y-81225917D01*
X131250304Y-81051661D01*
X131344893Y-80823867D01*
X131345108Y-80577215D01*
X131250917Y-80349257D01*
X131099710Y-80197785D01*
X131329892Y-80197785D01*
X131424083Y-80425743D01*
X131598339Y-80600304D01*
X131826133Y-80694893D01*
X132072785Y-80695108D01*
X132300743Y-80600917D01*
X132475304Y-80426661D01*
X132569893Y-80198867D01*
X132570108Y-79952215D01*
X132475917Y-79724257D01*
X132301661Y-79549696D01*
X132073867Y-79455107D01*
X131827215Y-79454892D01*
X131599257Y-79549083D01*
X131424696Y-79723339D01*
X131330107Y-79951133D01*
X131329892Y-80197785D01*
X131099710Y-80197785D01*
X131076661Y-80174696D01*
X130848867Y-80080107D01*
X130602215Y-80079892D01*
X130374257Y-80174083D01*
X130199696Y-80348339D01*
X130105107Y-80576133D01*
X130104892Y-80822785D01*
X130128570Y-80880089D01*
X129902215Y-80879892D01*
X129674257Y-80974083D01*
X129499696Y-81148339D01*
X129405107Y-81376133D01*
X129404892Y-81622785D01*
X127624492Y-81622785D01*
X127476661Y-81474696D01*
X127248867Y-81380107D01*
X127002215Y-81379892D01*
X126774257Y-81474083D01*
X126599696Y-81648339D01*
X126505107Y-81876133D01*
X126504892Y-82122785D01*
X125395000Y-82122785D01*
X125395000Y-79522785D01*
X129004892Y-79522785D01*
X129099083Y-79750743D01*
X129273339Y-79925304D01*
X129501133Y-80019893D01*
X129747785Y-80020108D01*
X129975743Y-79925917D01*
X130150304Y-79751661D01*
X130244893Y-79523867D01*
X130244984Y-79420018D01*
X130347785Y-79420108D01*
X130575743Y-79325917D01*
X130750304Y-79151661D01*
X130844893Y-78923867D01*
X130845108Y-78677215D01*
X130750917Y-78449257D01*
X130576661Y-78274696D01*
X130348867Y-78180107D01*
X130102215Y-78179892D01*
X129874257Y-78274083D01*
X129699696Y-78448339D01*
X129605107Y-78676133D01*
X129605016Y-78779982D01*
X129502215Y-78779892D01*
X129274257Y-78874083D01*
X129099696Y-79048339D01*
X129005107Y-79276133D01*
X129004892Y-79522785D01*
X125395000Y-79522785D01*
X125395000Y-77622785D01*
X134704892Y-77622785D01*
X134799083Y-77850743D01*
X134973339Y-78025304D01*
X135201133Y-78119893D01*
X135447785Y-78120108D01*
X135675743Y-78025917D01*
X135850304Y-77851661D01*
X135944893Y-77623867D01*
X135945108Y-77377215D01*
X135850917Y-77149257D01*
X135724666Y-77022785D01*
X140104892Y-77022785D01*
X140199083Y-77250743D01*
X140373339Y-77425304D01*
X140601133Y-77519893D01*
X140847785Y-77520108D01*
X141075743Y-77425917D01*
X141250304Y-77251661D01*
X141344893Y-77023867D01*
X141345108Y-76777215D01*
X141250917Y-76549257D01*
X141076661Y-76374696D01*
X140848867Y-76280107D01*
X140602215Y-76279892D01*
X140374257Y-76374083D01*
X140199696Y-76548339D01*
X140105107Y-76776133D01*
X140104892Y-77022785D01*
X135724666Y-77022785D01*
X135676661Y-76974696D01*
X135448867Y-76880107D01*
X135202215Y-76879892D01*
X134974257Y-76974083D01*
X134799696Y-77148339D01*
X134705107Y-77376133D01*
X134704892Y-77622785D01*
X125395000Y-77622785D01*
X125395000Y-76422785D01*
X127704892Y-76422785D01*
X127799083Y-76650743D01*
X127973339Y-76825304D01*
X128201133Y-76919893D01*
X128447785Y-76920108D01*
X128675743Y-76825917D01*
X128850304Y-76651661D01*
X128944893Y-76423867D01*
X128945108Y-76177215D01*
X128850917Y-75949257D01*
X128676661Y-75774696D01*
X128551647Y-75722785D01*
X133504892Y-75722785D01*
X133599083Y-75950743D01*
X133773339Y-76125304D01*
X134001133Y-76219893D01*
X134204982Y-76220071D01*
X134204892Y-76322785D01*
X134299083Y-76550743D01*
X134473339Y-76725304D01*
X134701133Y-76819893D01*
X134947785Y-76820108D01*
X135175743Y-76725917D01*
X135350304Y-76551661D01*
X135444893Y-76323867D01*
X135445068Y-76122785D01*
X147004892Y-76122785D01*
X147099083Y-76350743D01*
X147273339Y-76525304D01*
X147501133Y-76619893D01*
X147747785Y-76620108D01*
X147975743Y-76525917D01*
X148150304Y-76351661D01*
X148244893Y-76123867D01*
X148245108Y-75877215D01*
X148150917Y-75649257D01*
X147976661Y-75474696D01*
X147748867Y-75380107D01*
X147502215Y-75379892D01*
X147274257Y-75474083D01*
X147099696Y-75648339D01*
X147005107Y-75876133D01*
X147004892Y-76122785D01*
X135445068Y-76122785D01*
X135445108Y-76077215D01*
X135350917Y-75849257D01*
X135176661Y-75674696D01*
X134948867Y-75580107D01*
X134745018Y-75579929D01*
X134745108Y-75477215D01*
X134650917Y-75249257D01*
X134476661Y-75074696D01*
X134248867Y-74980107D01*
X134002215Y-74979892D01*
X133774257Y-75074083D01*
X133599696Y-75248339D01*
X133505107Y-75476133D01*
X133504892Y-75722785D01*
X128551647Y-75722785D01*
X128448867Y-75680107D01*
X128202215Y-75679892D01*
X127974257Y-75774083D01*
X127799696Y-75948339D01*
X127705107Y-76176133D01*
X127704892Y-76422785D01*
X125395000Y-76422785D01*
X125395000Y-72038904D01*
X125524323Y-71388755D01*
X125870565Y-70870565D01*
X126388755Y-70524323D01*
X126775000Y-70447494D01*
X126775000Y-73800000D01*
X126781839Y-73836346D01*
X126803319Y-73869727D01*
X126836094Y-73892121D01*
X126875000Y-73900000D01*
X129248295Y-73900000D01*
X129099696Y-74048339D01*
X129005107Y-74276133D01*
X129004892Y-74522785D01*
X129099083Y-74750743D01*
X129273339Y-74925304D01*
X129501133Y-75019893D01*
X129747785Y-75020108D01*
X129917458Y-74950000D01*
X160300000Y-74950000D01*
X160300000Y-75419891D01*
X160315224Y-75456645D01*
X160343354Y-75484776D01*
X160380109Y-75500000D01*
X161950000Y-75500000D01*
X161975000Y-75475000D01*
X161975000Y-74925000D01*
X162025000Y-74925000D01*
X162025000Y-75475000D01*
X162050000Y-75500000D01*
X163619891Y-75500000D01*
X163656646Y-75484776D01*
X163684776Y-75456645D01*
X163700000Y-75419891D01*
X163700000Y-74950000D01*
X163675000Y-74925000D01*
X162025000Y-74925000D01*
X161975000Y-74925000D01*
X160325000Y-74925000D01*
X160300000Y-74950000D01*
X129917458Y-74950000D01*
X129975743Y-74925917D01*
X130150304Y-74751661D01*
X130244893Y-74523867D01*
X130245018Y-74380109D01*
X160300000Y-74380109D01*
X160300000Y-74850000D01*
X160325000Y-74875000D01*
X161975000Y-74875000D01*
X161975000Y-74325000D01*
X162025000Y-74325000D01*
X162025000Y-74875000D01*
X163675000Y-74875000D01*
X163700000Y-74850000D01*
X163700000Y-74380109D01*
X163684776Y-74343355D01*
X163656646Y-74315224D01*
X163619891Y-74300000D01*
X162050000Y-74300000D01*
X162025000Y-74325000D01*
X161975000Y-74325000D01*
X161950000Y-74300000D01*
X160380109Y-74300000D01*
X160343354Y-74315224D01*
X160315224Y-74343355D01*
X160300000Y-74380109D01*
X130245018Y-74380109D01*
X130245108Y-74277215D01*
X130150917Y-74049257D01*
X130001921Y-73900000D01*
X131125000Y-73900000D01*
X131161346Y-73893161D01*
X131194727Y-73871681D01*
X131217121Y-73838906D01*
X131225000Y-73800000D01*
X131225000Y-70395000D01*
X134775000Y-70395000D01*
X134775000Y-73800000D01*
X134775000Y-73800000D01*
G37*
X134775000Y-73800000D02*
X134781839Y-73836346D01*
X134803319Y-73869727D01*
X134836094Y-73892121D01*
X134875000Y-73900000D01*
X139125000Y-73900000D01*
X139161346Y-73893161D01*
X139194727Y-73871681D01*
X139217121Y-73838906D01*
X139220385Y-73822785D01*
X148404892Y-73822785D01*
X148499083Y-74050743D01*
X148673339Y-74225304D01*
X148901133Y-74319893D01*
X149147785Y-74320108D01*
X149375743Y-74225917D01*
X149550304Y-74051661D01*
X149644893Y-73823867D01*
X149645108Y-73577215D01*
X149550917Y-73349257D01*
X149376661Y-73174696D01*
X149148867Y-73080107D01*
X148902215Y-73079892D01*
X148674257Y-73174083D01*
X148499696Y-73348339D01*
X148405107Y-73576133D01*
X148404892Y-73822785D01*
X139220385Y-73822785D01*
X139225000Y-73800000D01*
X139225000Y-70395000D01*
X169561098Y-70395000D01*
X169597716Y-70402284D01*
X169605000Y-70438903D01*
X169605000Y-76979843D01*
X165725769Y-76950003D01*
X165686804Y-76957582D01*
X165653858Y-76979724D01*
X165632121Y-77012939D01*
X165625000Y-77050000D01*
X165625000Y-87100000D01*
X165632879Y-87138906D01*
X165655273Y-87171681D01*
X165688654Y-87193161D01*
X165725000Y-87200000D01*
X169605000Y-87200000D01*
X169605000Y-93061097D01*
X169597716Y-93097716D01*
X169586234Y-93100000D01*
X159800000Y-93100000D01*
X159761094Y-93107879D01*
X159728319Y-93130273D01*
X159706839Y-93163654D01*
X159700000Y-93200000D01*
X159700000Y-102200000D01*
X152152529Y-102200000D01*
X152152529Y-97700030D01*
X152130216Y-97581445D01*
X152071140Y-97489639D01*
X152071140Y-93822785D01*
X154904892Y-93822785D01*
X154999083Y-94050743D01*
X155123187Y-94175064D01*
X154999696Y-94298339D01*
X154905107Y-94526133D01*
X154904892Y-94772785D01*
X154999083Y-95000743D01*
X155173187Y-95175151D01*
X154999696Y-95348339D01*
X154905107Y-95576133D01*
X154904892Y-95822785D01*
X154999083Y-96050743D01*
X155173187Y-96225151D01*
X154999696Y-96398339D01*
X154905107Y-96626133D01*
X154904892Y-96872785D01*
X154999083Y-97100743D01*
X155173339Y-97275304D01*
X155401133Y-97369893D01*
X155647785Y-97370108D01*
X155875743Y-97275917D01*
X156000064Y-97151813D01*
X156123339Y-97275304D01*
X156351133Y-97369893D01*
X156597785Y-97370108D01*
X156825743Y-97275917D01*
X157000304Y-97101661D01*
X157094893Y-96873867D01*
X157095108Y-96627215D01*
X157000917Y-96399257D01*
X156826813Y-96224849D01*
X157000304Y-96051661D01*
X157094893Y-95823867D01*
X157095108Y-95577215D01*
X157000917Y-95349257D01*
X156826813Y-95174849D01*
X157000304Y-95001661D01*
X157094893Y-94773867D01*
X157095108Y-94527215D01*
X157000917Y-94299257D01*
X156901770Y-94199936D01*
X157050304Y-94051661D01*
X157144893Y-93823867D01*
X157145108Y-93577215D01*
X157050917Y-93349257D01*
X156876661Y-93174696D01*
X156648867Y-93080107D01*
X156402215Y-93079892D01*
X156174257Y-93174083D01*
X156024892Y-93323187D01*
X155876661Y-93174696D01*
X155648867Y-93080107D01*
X155402215Y-93079892D01*
X155174257Y-93174083D01*
X154999696Y-93348339D01*
X154905107Y-93576133D01*
X154904892Y-93822785D01*
X152071140Y-93822785D01*
X152071140Y-91069138D01*
X152175743Y-91025917D01*
X152350304Y-90851661D01*
X152444893Y-90623867D01*
X152445108Y-90377215D01*
X152350917Y-90149257D01*
X152176661Y-89974696D01*
X151948867Y-89880107D01*
X151702215Y-89879892D01*
X151474257Y-89974083D01*
X151324892Y-90123187D01*
X151176661Y-89974696D01*
X150948867Y-89880107D01*
X150702215Y-89879892D01*
X150474257Y-89974083D01*
X150324892Y-90123187D01*
X150176661Y-89974696D01*
X149948867Y-89880107D01*
X149702215Y-89879892D01*
X149474257Y-89974083D01*
X149299696Y-90148339D01*
X149249376Y-90269522D01*
X149096569Y-90422329D01*
X148973009Y-90607250D01*
X148929620Y-90825380D01*
X148929620Y-92900000D01*
X143545000Y-92900000D01*
X143545000Y-91973970D01*
X143721985Y-91796985D01*
X143813029Y-91660727D01*
X143845000Y-91500000D01*
X143845000Y-90873970D01*
X144221985Y-90496985D01*
X144313029Y-90360727D01*
X144345000Y-90200000D01*
X144345000Y-89656781D01*
X144450304Y-89551661D01*
X144544893Y-89323867D01*
X144545044Y-89150000D01*
X160300000Y-89150000D01*
X160300000Y-89619891D01*
X160315224Y-89656645D01*
X160343354Y-89684776D01*
X160380109Y-89700000D01*
X161950000Y-89700000D01*
X161975000Y-89675000D01*
X161975000Y-89125000D01*
X162025000Y-89125000D01*
X162025000Y-89675000D01*
X162050000Y-89700000D01*
X163619891Y-89700000D01*
X163656646Y-89684776D01*
X163684776Y-89656645D01*
X163700000Y-89619891D01*
X163700000Y-89150000D01*
X163675000Y-89125000D01*
X162025000Y-89125000D01*
X161975000Y-89125000D01*
X160325000Y-89125000D01*
X160300000Y-89150000D01*
X144545044Y-89150000D01*
X144545108Y-89077215D01*
X144480150Y-88920005D01*
X144597785Y-88920108D01*
X144825743Y-88825917D01*
X145000304Y-88651661D01*
X145030015Y-88580109D01*
X160300000Y-88580109D01*
X160300000Y-89050000D01*
X160325000Y-89075000D01*
X161975000Y-89075000D01*
X161975000Y-88525000D01*
X162025000Y-88525000D01*
X162025000Y-89075000D01*
X163675000Y-89075000D01*
X163700000Y-89050000D01*
X163700000Y-88580109D01*
X163684776Y-88543355D01*
X163656646Y-88515224D01*
X163619891Y-88500000D01*
X162050000Y-88500000D01*
X162025000Y-88525000D01*
X161975000Y-88525000D01*
X161950000Y-88500000D01*
X160380109Y-88500000D01*
X160343354Y-88515224D01*
X160315224Y-88543355D01*
X160300000Y-88580109D01*
X145030015Y-88580109D01*
X145094893Y-88423867D01*
X145095108Y-88177215D01*
X145000917Y-87949257D01*
X144951813Y-87900067D01*
X144975656Y-87876266D01*
X145201133Y-87969893D01*
X145447785Y-87970108D01*
X145675743Y-87875917D01*
X145728967Y-87822785D01*
X154204892Y-87822785D01*
X154299083Y-88050743D01*
X154473339Y-88225304D01*
X154701133Y-88319893D01*
X154947785Y-88320108D01*
X155175743Y-88225917D01*
X155350304Y-88051661D01*
X155444893Y-87823867D01*
X155445108Y-87577215D01*
X155350917Y-87349257D01*
X155176661Y-87174696D01*
X154948867Y-87080107D01*
X154702215Y-87079892D01*
X154474257Y-87174083D01*
X154299696Y-87348339D01*
X154205107Y-87576133D01*
X154204892Y-87822785D01*
X145728967Y-87822785D01*
X145850304Y-87701661D01*
X145944893Y-87473867D01*
X145945108Y-87227215D01*
X145850917Y-86999257D01*
X145676661Y-86824696D01*
X145448867Y-86730107D01*
X145202215Y-86729892D01*
X144974257Y-86824083D01*
X144824344Y-86973734D01*
X144598867Y-86880107D01*
X144352215Y-86879892D01*
X144124257Y-86974083D01*
X143949696Y-87148339D01*
X143855107Y-87376133D01*
X143854892Y-87622785D01*
X143949083Y-87850743D01*
X143998187Y-87899933D01*
X143949696Y-87948339D01*
X143855107Y-88176133D01*
X143854892Y-88422785D01*
X143919850Y-88579995D01*
X143802215Y-88579892D01*
X143574257Y-88674083D01*
X143399696Y-88848339D01*
X143344982Y-88980104D01*
X143102215Y-88979892D01*
X142874257Y-89074083D01*
X142699696Y-89248339D01*
X142605107Y-89476133D01*
X142605104Y-89480069D01*
X142402215Y-89479892D01*
X142174257Y-89574083D01*
X141999696Y-89748339D01*
X141905107Y-89976133D01*
X141905016Y-90079982D01*
X141802215Y-90079892D01*
X141574257Y-90174083D01*
X141399696Y-90348339D01*
X141305107Y-90576133D01*
X141304892Y-90822785D01*
X141399083Y-91050743D01*
X141505000Y-91156845D01*
X141505000Y-92900000D01*
X140920400Y-92900000D01*
X140920400Y-90090104D01*
X141075743Y-90025917D01*
X141250304Y-89851661D01*
X141344893Y-89623867D01*
X141345108Y-89377215D01*
X141250917Y-89149257D01*
X141076661Y-88974696D01*
X140848867Y-88880107D01*
X140602215Y-88879892D01*
X140374257Y-88974083D01*
X140199696Y-89148339D01*
X140105107Y-89376133D01*
X140104911Y-89601378D01*
X140080400Y-89724600D01*
X140080400Y-89993201D01*
X140048867Y-89980107D01*
X139945018Y-89980016D01*
X139945108Y-89877215D01*
X139850917Y-89649257D01*
X139676661Y-89474696D01*
X139448867Y-89380107D01*
X139345018Y-89380016D01*
X139345108Y-89277215D01*
X139250917Y-89049257D01*
X139076661Y-88874696D01*
X138848867Y-88780107D01*
X138602215Y-88779892D01*
X138374257Y-88874083D01*
X138199696Y-89048339D01*
X138105107Y-89276133D01*
X138104892Y-89522785D01*
X138199083Y-89750743D01*
X138373339Y-89925304D01*
X138601133Y-90019893D01*
X138704982Y-90019984D01*
X138704892Y-90122785D01*
X138799083Y-90350743D01*
X138973339Y-90525304D01*
X139201133Y-90619893D01*
X139304982Y-90619984D01*
X139304892Y-90722785D01*
X139399083Y-90950743D01*
X139573339Y-91125304D01*
X139801133Y-91219893D01*
X140047785Y-91220108D01*
X140080400Y-91206632D01*
X140080400Y-92900000D01*
X137525000Y-92900000D01*
X137525000Y-83900000D01*
X137517121Y-83861094D01*
X137494727Y-83828319D01*
X137461346Y-83806839D01*
X137425000Y-83800000D01*
X135913280Y-83800000D01*
X135944893Y-83723867D01*
X135945108Y-83477215D01*
X135881299Y-83322785D01*
X137404892Y-83322785D01*
X137499083Y-83550743D01*
X137673339Y-83725304D01*
X137901133Y-83819893D01*
X138147785Y-83820108D01*
X138375743Y-83725917D01*
X138481845Y-83620000D01*
X139825000Y-83620000D01*
X139985727Y-83588029D01*
X140121985Y-83496985D01*
X140471985Y-83146985D01*
X140563029Y-83010727D01*
X140564910Y-83001269D01*
X140575000Y-83001269D01*
X140693585Y-82978956D01*
X140802498Y-82908872D01*
X140863222Y-82820000D01*
X141753331Y-82820000D01*
X141798063Y-82850564D01*
X141832547Y-82857547D01*
X141850000Y-82875000D01*
X141918733Y-82875000D01*
X141925000Y-82876269D01*
X142825000Y-82876269D01*
X142831744Y-82875000D01*
X142900000Y-82875000D01*
X142915820Y-82859180D01*
X142925000Y-82857453D01*
X142925000Y-82943981D01*
X142917453Y-82942453D01*
X142900000Y-82925000D01*
X142831267Y-82925000D01*
X142825000Y-82923731D01*
X141925000Y-82923731D01*
X141918256Y-82925000D01*
X141850000Y-82925000D01*
X141834180Y-82940820D01*
X141806415Y-82946044D01*
X141697502Y-83016128D01*
X141624436Y-83123063D01*
X141598731Y-83250000D01*
X141598731Y-83550000D01*
X141621044Y-83668585D01*
X141628756Y-83680570D01*
X141605000Y-83800000D01*
X141605000Y-84143219D01*
X141499696Y-84248339D01*
X141405107Y-84476133D01*
X141404892Y-84722785D01*
X141499083Y-84950743D01*
X141673339Y-85125304D01*
X141805104Y-85180018D01*
X141804892Y-85422785D01*
X141899083Y-85650743D01*
X142073339Y-85825304D01*
X142301133Y-85919893D01*
X142545104Y-85920106D01*
X142599083Y-86050743D01*
X142773339Y-86225304D01*
X143001133Y-86319893D01*
X143247785Y-86320108D01*
X143475743Y-86225917D01*
X143524933Y-86176813D01*
X143573339Y-86225304D01*
X143801133Y-86319893D01*
X144047785Y-86320108D01*
X144275743Y-86225917D01*
X144450304Y-86051661D01*
X144505018Y-85919896D01*
X144747785Y-85920108D01*
X144975743Y-85825917D01*
X145150304Y-85651661D01*
X145244893Y-85423867D01*
X145245108Y-85177215D01*
X145150917Y-84949257D01*
X145146667Y-84945000D01*
X145276030Y-84945000D01*
X146203015Y-85871985D01*
X146339273Y-85963029D01*
X146500000Y-85995000D01*
X147238797Y-85995000D01*
X147205107Y-86076133D01*
X147204892Y-86322785D01*
X147299083Y-86550743D01*
X147473339Y-86725304D01*
X147701133Y-86819893D01*
X147947785Y-86820108D01*
X148175743Y-86725917D01*
X148240524Y-86661249D01*
X148298063Y-86700564D01*
X148425000Y-86726269D01*
X149975000Y-86726269D01*
X150093585Y-86703956D01*
X150202498Y-86633872D01*
X150275564Y-86526937D01*
X150301269Y-86400000D01*
X150301269Y-86275000D01*
X153925000Y-86275000D01*
X153925000Y-86419891D01*
X153940224Y-86456646D01*
X153968355Y-86484776D01*
X154005109Y-86500000D01*
X154750000Y-86500000D01*
X154775000Y-86475000D01*
X154775000Y-86250000D01*
X154825000Y-86250000D01*
X154825000Y-86475000D01*
X154850000Y-86500000D01*
X155594891Y-86500000D01*
X155631645Y-86484776D01*
X155659776Y-86456646D01*
X155675000Y-86419891D01*
X155675000Y-86275000D01*
X155650000Y-86250000D01*
X154825000Y-86250000D01*
X154775000Y-86250000D01*
X153950000Y-86250000D01*
X153925000Y-86275000D01*
X150301269Y-86275000D01*
X150301269Y-86050000D01*
X150278956Y-85931415D01*
X150259257Y-85900803D01*
X150275564Y-85876937D01*
X150301269Y-85750000D01*
X150301269Y-85400000D01*
X150278956Y-85281415D01*
X150259257Y-85250803D01*
X150275564Y-85226937D01*
X150301269Y-85100000D01*
X150301269Y-84750000D01*
X150278956Y-84631415D01*
X150259257Y-84600803D01*
X150275564Y-84576937D01*
X150301269Y-84450000D01*
X150301269Y-84100000D01*
X150278956Y-83981415D01*
X150259257Y-83950803D01*
X150275564Y-83926937D01*
X150301269Y-83800000D01*
X150301269Y-83450000D01*
X150278956Y-83331415D01*
X150259257Y-83300803D01*
X150275564Y-83276937D01*
X150301269Y-83150000D01*
X150301269Y-82800000D01*
X150278956Y-82681415D01*
X150259257Y-82650803D01*
X150275564Y-82626937D01*
X150301269Y-82500000D01*
X150301269Y-82150000D01*
X150278956Y-82031415D01*
X150259257Y-82000803D01*
X150275564Y-81976937D01*
X150301269Y-81850000D01*
X150301269Y-81500000D01*
X150278956Y-81381415D01*
X150259257Y-81350803D01*
X150275564Y-81326937D01*
X150301269Y-81200000D01*
X150301269Y-80850000D01*
X150278956Y-80731415D01*
X150259257Y-80700803D01*
X150275564Y-80676937D01*
X150301269Y-80550000D01*
X150301269Y-80200000D01*
X150278956Y-80081415D01*
X150259257Y-80050803D01*
X150275564Y-80026937D01*
X150301269Y-79900000D01*
X150301269Y-79550000D01*
X150278956Y-79431415D01*
X150259257Y-79400803D01*
X150266563Y-79390109D01*
X150350000Y-79390109D01*
X150350000Y-81950000D01*
X150375000Y-81975000D01*
X150599352Y-81975000D01*
X150600455Y-82025000D01*
X150375000Y-82025000D01*
X150350000Y-82050000D01*
X150350000Y-84609891D01*
X150365224Y-84646646D01*
X150393355Y-84674776D01*
X150430109Y-84690000D01*
X151950000Y-84690000D01*
X151975000Y-84665000D01*
X151975000Y-83400648D01*
X152025000Y-83399545D01*
X152025000Y-84665000D01*
X152050000Y-84690000D01*
X153569891Y-84690000D01*
X153606645Y-84674776D01*
X153634776Y-84646646D01*
X153650000Y-84609891D01*
X153650000Y-82050000D01*
X153625000Y-82025000D01*
X153400648Y-82025000D01*
X153399545Y-81975000D01*
X153625000Y-81975000D01*
X153650000Y-81950000D01*
X153650000Y-79390109D01*
X153634776Y-79353354D01*
X153606645Y-79325224D01*
X153569891Y-79310000D01*
X152050000Y-79310000D01*
X152025000Y-79335000D01*
X152025000Y-80599352D01*
X151975000Y-80600455D01*
X151975000Y-79335000D01*
X151950000Y-79310000D01*
X150430109Y-79310000D01*
X150393355Y-79325224D01*
X150365224Y-79353354D01*
X150350000Y-79390109D01*
X150266563Y-79390109D01*
X150275564Y-79376937D01*
X150301269Y-79250000D01*
X150301269Y-78978426D01*
X150401133Y-79019893D01*
X150647785Y-79020108D01*
X150875743Y-78925917D01*
X151050304Y-78751661D01*
X151144893Y-78523867D01*
X151145108Y-78277215D01*
X151050917Y-78049257D01*
X150876661Y-77874696D01*
X150648867Y-77780107D01*
X150402215Y-77779892D01*
X150174257Y-77874083D01*
X150099306Y-77948903D01*
X150075000Y-77943981D01*
X150075000Y-77825000D01*
X150050000Y-77800000D01*
X149225000Y-77800000D01*
X149225000Y-77820000D01*
X149175000Y-77820000D01*
X149175000Y-77800000D01*
X148350000Y-77800000D01*
X148325000Y-77825000D01*
X148325000Y-77942547D01*
X148306415Y-77946044D01*
X148214795Y-78005000D01*
X148200000Y-78005000D01*
X148058011Y-78033244D01*
X148075743Y-78025917D01*
X148250304Y-77851661D01*
X148325000Y-77671774D01*
X148325000Y-77725000D01*
X148350000Y-77750000D01*
X149175000Y-77750000D01*
X149175000Y-77525000D01*
X149225000Y-77525000D01*
X149225000Y-77750000D01*
X150050000Y-77750000D01*
X150075000Y-77725000D01*
X150075000Y-77600000D01*
X153698731Y-77600000D01*
X153698731Y-77950000D01*
X153721044Y-78068585D01*
X153740743Y-78099197D01*
X153724436Y-78123063D01*
X153698731Y-78250000D01*
X153698731Y-78600000D01*
X153721044Y-78718585D01*
X153740743Y-78749197D01*
X153724436Y-78773063D01*
X153698731Y-78900000D01*
X153698731Y-79250000D01*
X153721044Y-79368585D01*
X153740743Y-79399197D01*
X153724436Y-79423063D01*
X153698731Y-79550000D01*
X153698731Y-79900000D01*
X153721044Y-80018585D01*
X153740743Y-80049197D01*
X153724436Y-80073063D01*
X153698731Y-80200000D01*
X153698731Y-80550000D01*
X153721044Y-80668585D01*
X153740743Y-80699197D01*
X153724436Y-80723063D01*
X153698731Y-80850000D01*
X153698731Y-81200000D01*
X153721044Y-81318585D01*
X153740743Y-81349197D01*
X153724436Y-81373063D01*
X153698731Y-81500000D01*
X153698731Y-81850000D01*
X153721044Y-81968585D01*
X153740743Y-81999197D01*
X153724436Y-82023063D01*
X153698731Y-82150000D01*
X153698731Y-82500000D01*
X153721044Y-82618585D01*
X153740743Y-82649197D01*
X153724436Y-82673063D01*
X153698731Y-82800000D01*
X153698731Y-83150000D01*
X153721044Y-83268585D01*
X153740743Y-83299197D01*
X153724436Y-83323063D01*
X153698731Y-83450000D01*
X153698731Y-83800000D01*
X153721044Y-83918585D01*
X153740743Y-83949197D01*
X153724436Y-83973063D01*
X153698731Y-84100000D01*
X153698731Y-84450000D01*
X153721044Y-84568585D01*
X153740743Y-84599197D01*
X153724436Y-84623063D01*
X153698731Y-84750000D01*
X153698731Y-85100000D01*
X153721044Y-85218585D01*
X153740743Y-85249197D01*
X153724436Y-85273063D01*
X153698731Y-85400000D01*
X153698731Y-85750000D01*
X153721044Y-85868585D01*
X153791128Y-85977498D01*
X153898063Y-86050564D01*
X153925000Y-86056019D01*
X153925000Y-86175000D01*
X153950000Y-86200000D01*
X154775000Y-86200000D01*
X154775000Y-86180000D01*
X154825000Y-86180000D01*
X154825000Y-86200000D01*
X155650000Y-86200000D01*
X155675000Y-86175000D01*
X155675000Y-86057453D01*
X155693585Y-86053956D01*
X155802498Y-85983872D01*
X155875564Y-85876937D01*
X155875696Y-85876283D01*
X156101133Y-85969893D01*
X156347785Y-85970108D01*
X156517458Y-85900000D01*
X157150000Y-85900000D01*
X157150000Y-86269891D01*
X157165224Y-86306645D01*
X157193354Y-86334776D01*
X157230109Y-86350000D01*
X157575000Y-86350000D01*
X157600000Y-86325000D01*
X157600000Y-85875000D01*
X157650000Y-85875000D01*
X157650000Y-86325000D01*
X157675000Y-86350000D01*
X158019891Y-86350000D01*
X158056646Y-86334776D01*
X158084776Y-86306645D01*
X158100000Y-86269891D01*
X158100000Y-85900000D01*
X158075000Y-85875000D01*
X157650000Y-85875000D01*
X157600000Y-85875000D01*
X157175000Y-85875000D01*
X157150000Y-85900000D01*
X156517458Y-85900000D01*
X156575743Y-85875917D01*
X156750304Y-85701661D01*
X156844893Y-85473867D01*
X156844931Y-85430109D01*
X157150000Y-85430109D01*
X157150000Y-85800000D01*
X157175000Y-85825000D01*
X157600000Y-85825000D01*
X157600000Y-85375000D01*
X157650000Y-85375000D01*
X157650000Y-85825000D01*
X158075000Y-85825000D01*
X158100000Y-85800000D01*
X158100000Y-85430109D01*
X158084776Y-85393355D01*
X158056646Y-85365224D01*
X158019891Y-85350000D01*
X157675000Y-85350000D01*
X157650000Y-85375000D01*
X157600000Y-85375000D01*
X157575000Y-85350000D01*
X157230109Y-85350000D01*
X157193354Y-85365224D01*
X157165224Y-85393355D01*
X157150000Y-85430109D01*
X156844931Y-85430109D01*
X156845108Y-85227215D01*
X156750917Y-84999257D01*
X156596090Y-84844159D01*
X156654559Y-84820000D01*
X156936902Y-84820000D01*
X156946044Y-84868585D01*
X157016128Y-84977498D01*
X157123063Y-85050564D01*
X157250000Y-85076269D01*
X158000000Y-85076269D01*
X158118585Y-85053956D01*
X158227498Y-84983872D01*
X158300564Y-84876937D01*
X158326269Y-84750000D01*
X158326269Y-84278152D01*
X158373339Y-84325304D01*
X158601133Y-84419893D01*
X158847785Y-84420108D01*
X159075743Y-84325917D01*
X159250304Y-84151661D01*
X159344893Y-83923867D01*
X159345108Y-83677215D01*
X159250917Y-83449257D01*
X159246667Y-83445000D01*
X160082198Y-83445000D01*
X160096044Y-83518585D01*
X160166128Y-83627498D01*
X160273063Y-83700564D01*
X160400000Y-83726269D01*
X163600000Y-83726269D01*
X163718585Y-83703956D01*
X163827498Y-83633872D01*
X163900564Y-83526937D01*
X163926269Y-83400000D01*
X163926269Y-82400000D01*
X163903956Y-82281415D01*
X163833872Y-82172502D01*
X163726937Y-82099436D01*
X163600000Y-82073731D01*
X160400000Y-82073731D01*
X160281415Y-82096044D01*
X160172502Y-82166128D01*
X160099436Y-82273063D01*
X160073731Y-82400000D01*
X160073731Y-82505000D01*
X159611203Y-82505000D01*
X159644893Y-82423867D01*
X159645108Y-82177215D01*
X159550917Y-81949257D01*
X159376661Y-81774696D01*
X159148867Y-81680107D01*
X158902215Y-81679892D01*
X158674257Y-81774083D01*
X158593198Y-81855000D01*
X157731965Y-81855000D01*
X157744893Y-81823867D01*
X157745108Y-81577215D01*
X157711137Y-81495000D01*
X160073731Y-81495000D01*
X160073731Y-81600000D01*
X160096044Y-81718585D01*
X160166128Y-81827498D01*
X160273063Y-81900564D01*
X160400000Y-81926269D01*
X163600000Y-81926269D01*
X163718585Y-81903956D01*
X163827498Y-81833872D01*
X163900564Y-81726937D01*
X163926269Y-81600000D01*
X163926269Y-80600000D01*
X163903956Y-80481415D01*
X163833872Y-80372502D01*
X163726937Y-80299436D01*
X163600000Y-80273731D01*
X160400000Y-80273731D01*
X160281415Y-80296044D01*
X160172502Y-80366128D01*
X160099436Y-80473063D01*
X160082844Y-80555000D01*
X159846959Y-80555000D01*
X159850304Y-80551661D01*
X159944893Y-80323867D01*
X159945108Y-80077215D01*
X159850917Y-79849257D01*
X159676661Y-79674696D01*
X159448867Y-79580107D01*
X159202215Y-79579892D01*
X158974257Y-79674083D01*
X158799696Y-79848339D01*
X158776168Y-79905000D01*
X158310069Y-79905000D01*
X158326269Y-79825000D01*
X158326269Y-79025000D01*
X158303956Y-78906415D01*
X158233872Y-78797502D01*
X158126937Y-78724436D01*
X158000000Y-78698731D01*
X157250000Y-78698731D01*
X157131415Y-78721044D01*
X157022502Y-78791128D01*
X156949436Y-78898063D01*
X156945027Y-78919834D01*
X156945108Y-78827215D01*
X156850917Y-78599257D01*
X156676661Y-78424696D01*
X156512458Y-78356512D01*
X156596985Y-78271985D01*
X156688029Y-78135727D01*
X156720000Y-77975000D01*
X157150000Y-77975000D01*
X157150000Y-78344891D01*
X157165224Y-78381645D01*
X157193354Y-78409776D01*
X157230109Y-78425000D01*
X157575000Y-78425000D01*
X157600000Y-78400000D01*
X157600000Y-77950000D01*
X157650000Y-77950000D01*
X157650000Y-78400000D01*
X157675000Y-78425000D01*
X158019891Y-78425000D01*
X158056646Y-78409776D01*
X158084776Y-78381645D01*
X158100000Y-78344891D01*
X158100000Y-77975000D01*
X158075000Y-77950000D01*
X157650000Y-77950000D01*
X157600000Y-77950000D01*
X157175000Y-77950000D01*
X157150000Y-77975000D01*
X156720000Y-77975000D01*
X156720000Y-77505109D01*
X157150000Y-77505109D01*
X157150000Y-77875000D01*
X157175000Y-77900000D01*
X157600000Y-77900000D01*
X157600000Y-77450000D01*
X157650000Y-77450000D01*
X157650000Y-77900000D01*
X158075000Y-77900000D01*
X158100000Y-77875000D01*
X158100000Y-77505109D01*
X158084776Y-77468355D01*
X158056646Y-77440224D01*
X158019891Y-77425000D01*
X157675000Y-77425000D01*
X157650000Y-77450000D01*
X157600000Y-77450000D01*
X157575000Y-77425000D01*
X157230109Y-77425000D01*
X157193354Y-77440224D01*
X157165224Y-77468355D01*
X157150000Y-77505109D01*
X156720000Y-77505109D01*
X156720000Y-76901269D01*
X156775000Y-76901269D01*
X156893585Y-76878956D01*
X157002498Y-76808872D01*
X157075564Y-76701937D01*
X157101269Y-76575000D01*
X157101269Y-75825000D01*
X157078956Y-75706415D01*
X157008872Y-75597502D01*
X156901937Y-75524436D01*
X156775000Y-75498731D01*
X155975000Y-75498731D01*
X155856415Y-75521044D01*
X155747502Y-75591128D01*
X155674436Y-75698063D01*
X155648731Y-75825000D01*
X155648731Y-76575000D01*
X155671044Y-76693585D01*
X155741128Y-76802498D01*
X155848063Y-76875564D01*
X155880000Y-76882031D01*
X155880000Y-77486963D01*
X155878956Y-77481415D01*
X155808872Y-77372502D01*
X155701937Y-77299436D01*
X155575000Y-77273731D01*
X155220000Y-77273731D01*
X155220000Y-76901269D01*
X155275000Y-76901269D01*
X155393585Y-76878956D01*
X155502498Y-76808872D01*
X155575564Y-76701937D01*
X155601269Y-76575000D01*
X155601269Y-75825000D01*
X155578956Y-75706415D01*
X155508872Y-75597502D01*
X155401937Y-75524436D01*
X155275000Y-75498731D01*
X154475000Y-75498731D01*
X154356415Y-75521044D01*
X154247502Y-75591128D01*
X154174436Y-75698063D01*
X154148731Y-75825000D01*
X154148731Y-76575000D01*
X154171044Y-76693585D01*
X154241128Y-76802498D01*
X154348063Y-76875564D01*
X154380000Y-76882031D01*
X154380000Y-77273731D01*
X154025000Y-77273731D01*
X153906415Y-77296044D01*
X153797502Y-77366128D01*
X153724436Y-77473063D01*
X153698731Y-77600000D01*
X150075000Y-77600000D01*
X150075000Y-77580109D01*
X150059776Y-77543354D01*
X150031645Y-77515224D01*
X149994891Y-77500000D01*
X149250000Y-77500000D01*
X149225000Y-77525000D01*
X149175000Y-77525000D01*
X149150000Y-77500000D01*
X148405109Y-77500000D01*
X148368355Y-77515224D01*
X148344967Y-77538611D01*
X148345108Y-77377215D01*
X148250917Y-77149257D01*
X148076661Y-76974696D01*
X147848867Y-76880107D01*
X147602215Y-76879892D01*
X147374257Y-76974083D01*
X147199696Y-77148339D01*
X147105107Y-77376133D01*
X147104892Y-77622785D01*
X147199083Y-77850743D01*
X147373339Y-78025304D01*
X147601133Y-78119893D01*
X147847785Y-78120108D01*
X148023526Y-78047493D01*
X147903015Y-78128015D01*
X147703015Y-78328015D01*
X147611971Y-78464273D01*
X147580000Y-78625000D01*
X147580000Y-78806052D01*
X146456052Y-79930000D01*
X144375000Y-79930000D01*
X144214273Y-79961971D01*
X144078015Y-80053015D01*
X143974400Y-80156630D01*
X143971985Y-80153015D01*
X143621985Y-79803015D01*
X143485727Y-79711971D01*
X143325000Y-79680000D01*
X141587540Y-79680000D01*
X141485727Y-79611971D01*
X141325000Y-79580000D01*
X140498970Y-79580000D01*
X140421985Y-79503015D01*
X140285727Y-79411971D01*
X140125000Y-79380000D01*
X139781781Y-79380000D01*
X139676661Y-79274696D01*
X139448867Y-79180107D01*
X139202215Y-79179892D01*
X138974257Y-79274083D01*
X138799696Y-79448339D01*
X138705107Y-79676133D01*
X138704892Y-79922785D01*
X138799083Y-80150743D01*
X138973339Y-80325304D01*
X139201133Y-80419893D01*
X139304982Y-80419984D01*
X139304892Y-80522785D01*
X139399083Y-80750743D01*
X139573339Y-80925304D01*
X139801133Y-81019893D01*
X140004982Y-81020071D01*
X140004892Y-81122785D01*
X140099083Y-81350743D01*
X140273339Y-81525304D01*
X140450170Y-81598731D01*
X139775000Y-81598731D01*
X139656415Y-81621044D01*
X139547502Y-81691128D01*
X139474436Y-81798063D01*
X139448731Y-81925000D01*
X139448731Y-82675000D01*
X139468488Y-82780000D01*
X138481781Y-82780000D01*
X138476790Y-82775000D01*
X138625000Y-82775000D01*
X138650000Y-82750000D01*
X138650000Y-82325000D01*
X138700000Y-82325000D01*
X138700000Y-82750000D01*
X138725000Y-82775000D01*
X139094891Y-82775000D01*
X139131645Y-82759776D01*
X139159776Y-82731646D01*
X139175000Y-82694891D01*
X139175000Y-82350000D01*
X139150000Y-82325000D01*
X138700000Y-82325000D01*
X138650000Y-82325000D01*
X138200000Y-82325000D01*
X138175000Y-82350000D01*
X138175000Y-82590958D01*
X138148867Y-82580107D01*
X137902215Y-82579892D01*
X137674257Y-82674083D01*
X137499696Y-82848339D01*
X137405107Y-83076133D01*
X137404892Y-83322785D01*
X135881299Y-83322785D01*
X135850917Y-83249257D01*
X135676661Y-83074696D01*
X135448867Y-82980107D01*
X135202215Y-82979892D01*
X134974257Y-83074083D01*
X134799696Y-83248339D01*
X134705107Y-83476133D01*
X134704892Y-83722785D01*
X134736797Y-83800000D01*
X125395000Y-83800000D01*
X125395000Y-82122785D01*
X126504892Y-82122785D01*
X126599083Y-82350743D01*
X126773339Y-82525304D01*
X127001133Y-82619893D01*
X127247785Y-82620108D01*
X127475743Y-82525917D01*
X127650304Y-82351661D01*
X127703818Y-82222785D01*
X136204892Y-82222785D01*
X136299083Y-82450743D01*
X136473339Y-82625304D01*
X136701133Y-82719893D01*
X136947785Y-82720108D01*
X137175743Y-82625917D01*
X137350304Y-82451661D01*
X137444893Y-82223867D01*
X137445108Y-81977215D01*
X137415315Y-81905109D01*
X138175000Y-81905109D01*
X138175000Y-82250000D01*
X138200000Y-82275000D01*
X138650000Y-82275000D01*
X138650000Y-81850000D01*
X138700000Y-81850000D01*
X138700000Y-82275000D01*
X139150000Y-82275000D01*
X139175000Y-82250000D01*
X139175000Y-81905109D01*
X139159776Y-81868354D01*
X139131645Y-81840224D01*
X139094891Y-81825000D01*
X138725000Y-81825000D01*
X138700000Y-81850000D01*
X138650000Y-81850000D01*
X138625000Y-81825000D01*
X138255109Y-81825000D01*
X138218355Y-81840224D01*
X138190224Y-81868354D01*
X138175000Y-81905109D01*
X137415315Y-81905109D01*
X137350917Y-81749257D01*
X137176661Y-81574696D01*
X136948867Y-81480107D01*
X136702215Y-81479892D01*
X136474257Y-81574083D01*
X136299696Y-81748339D01*
X136205107Y-81976133D01*
X136204892Y-82222785D01*
X127703818Y-82222785D01*
X127744893Y-82123867D01*
X127745108Y-81877215D01*
X127650917Y-81649257D01*
X127624492Y-81622785D01*
X129404892Y-81622785D01*
X129499083Y-81850743D01*
X129673339Y-82025304D01*
X129901133Y-82119893D01*
X130147785Y-82120108D01*
X130375743Y-82025917D01*
X130550304Y-81851661D01*
X130644893Y-81623867D01*
X130644981Y-81522785D01*
X133404892Y-81522785D01*
X133499083Y-81750743D01*
X133673339Y-81925304D01*
X133901133Y-82019893D01*
X134147785Y-82020108D01*
X134375743Y-81925917D01*
X134550304Y-81751661D01*
X134644893Y-81523867D01*
X134645108Y-81277215D01*
X134622618Y-81222785D01*
X137404892Y-81222785D01*
X137499083Y-81450743D01*
X137673339Y-81625304D01*
X137901133Y-81719893D01*
X138147785Y-81720108D01*
X138375743Y-81625917D01*
X138550304Y-81451661D01*
X138644893Y-81223867D01*
X138645108Y-80977215D01*
X138550917Y-80749257D01*
X138376661Y-80574696D01*
X138148867Y-80480107D01*
X137902215Y-80479892D01*
X137674257Y-80574083D01*
X137499696Y-80748339D01*
X137405107Y-80976133D01*
X137404892Y-81222785D01*
X134622618Y-81222785D01*
X134550917Y-81049257D01*
X134376661Y-80874696D01*
X134148867Y-80780107D01*
X133902215Y-80779892D01*
X133674257Y-80874083D01*
X133499696Y-81048339D01*
X133405107Y-81276133D01*
X133404892Y-81522785D01*
X130644981Y-81522785D01*
X130645108Y-81377215D01*
X130621430Y-81319911D01*
X130847785Y-81320108D01*
X131075743Y-81225917D01*
X131250304Y-81051661D01*
X131344893Y-80823867D01*
X131345108Y-80577215D01*
X131250917Y-80349257D01*
X131099710Y-80197785D01*
X131329892Y-80197785D01*
X131424083Y-80425743D01*
X131598339Y-80600304D01*
X131826133Y-80694893D01*
X132072785Y-80695108D01*
X132300743Y-80600917D01*
X132475304Y-80426661D01*
X132569893Y-80198867D01*
X132570108Y-79952215D01*
X132475917Y-79724257D01*
X132301661Y-79549696D01*
X132073867Y-79455107D01*
X131827215Y-79454892D01*
X131599257Y-79549083D01*
X131424696Y-79723339D01*
X131330107Y-79951133D01*
X131329892Y-80197785D01*
X131099710Y-80197785D01*
X131076661Y-80174696D01*
X130848867Y-80080107D01*
X130602215Y-80079892D01*
X130374257Y-80174083D01*
X130199696Y-80348339D01*
X130105107Y-80576133D01*
X130104892Y-80822785D01*
X130128570Y-80880089D01*
X129902215Y-80879892D01*
X129674257Y-80974083D01*
X129499696Y-81148339D01*
X129405107Y-81376133D01*
X129404892Y-81622785D01*
X127624492Y-81622785D01*
X127476661Y-81474696D01*
X127248867Y-81380107D01*
X127002215Y-81379892D01*
X126774257Y-81474083D01*
X126599696Y-81648339D01*
X126505107Y-81876133D01*
X126504892Y-82122785D01*
X125395000Y-82122785D01*
X125395000Y-79522785D01*
X129004892Y-79522785D01*
X129099083Y-79750743D01*
X129273339Y-79925304D01*
X129501133Y-80019893D01*
X129747785Y-80020108D01*
X129975743Y-79925917D01*
X130150304Y-79751661D01*
X130244893Y-79523867D01*
X130244984Y-79420018D01*
X130347785Y-79420108D01*
X130575743Y-79325917D01*
X130750304Y-79151661D01*
X130844893Y-78923867D01*
X130845108Y-78677215D01*
X130750917Y-78449257D01*
X130576661Y-78274696D01*
X130348867Y-78180107D01*
X130102215Y-78179892D01*
X129874257Y-78274083D01*
X129699696Y-78448339D01*
X129605107Y-78676133D01*
X129605016Y-78779982D01*
X129502215Y-78779892D01*
X129274257Y-78874083D01*
X129099696Y-79048339D01*
X129005107Y-79276133D01*
X129004892Y-79522785D01*
X125395000Y-79522785D01*
X125395000Y-77622785D01*
X134704892Y-77622785D01*
X134799083Y-77850743D01*
X134973339Y-78025304D01*
X135201133Y-78119893D01*
X135447785Y-78120108D01*
X135675743Y-78025917D01*
X135850304Y-77851661D01*
X135944893Y-77623867D01*
X135945108Y-77377215D01*
X135850917Y-77149257D01*
X135724666Y-77022785D01*
X140104892Y-77022785D01*
X140199083Y-77250743D01*
X140373339Y-77425304D01*
X140601133Y-77519893D01*
X140847785Y-77520108D01*
X141075743Y-77425917D01*
X141250304Y-77251661D01*
X141344893Y-77023867D01*
X141345108Y-76777215D01*
X141250917Y-76549257D01*
X141076661Y-76374696D01*
X140848867Y-76280107D01*
X140602215Y-76279892D01*
X140374257Y-76374083D01*
X140199696Y-76548339D01*
X140105107Y-76776133D01*
X140104892Y-77022785D01*
X135724666Y-77022785D01*
X135676661Y-76974696D01*
X135448867Y-76880107D01*
X135202215Y-76879892D01*
X134974257Y-76974083D01*
X134799696Y-77148339D01*
X134705107Y-77376133D01*
X134704892Y-77622785D01*
X125395000Y-77622785D01*
X125395000Y-76422785D01*
X127704892Y-76422785D01*
X127799083Y-76650743D01*
X127973339Y-76825304D01*
X128201133Y-76919893D01*
X128447785Y-76920108D01*
X128675743Y-76825917D01*
X128850304Y-76651661D01*
X128944893Y-76423867D01*
X128945108Y-76177215D01*
X128850917Y-75949257D01*
X128676661Y-75774696D01*
X128551647Y-75722785D01*
X133504892Y-75722785D01*
X133599083Y-75950743D01*
X133773339Y-76125304D01*
X134001133Y-76219893D01*
X134204982Y-76220071D01*
X134204892Y-76322785D01*
X134299083Y-76550743D01*
X134473339Y-76725304D01*
X134701133Y-76819893D01*
X134947785Y-76820108D01*
X135175743Y-76725917D01*
X135350304Y-76551661D01*
X135444893Y-76323867D01*
X135445068Y-76122785D01*
X147004892Y-76122785D01*
X147099083Y-76350743D01*
X147273339Y-76525304D01*
X147501133Y-76619893D01*
X147747785Y-76620108D01*
X147975743Y-76525917D01*
X148150304Y-76351661D01*
X148244893Y-76123867D01*
X148245108Y-75877215D01*
X148150917Y-75649257D01*
X147976661Y-75474696D01*
X147748867Y-75380107D01*
X147502215Y-75379892D01*
X147274257Y-75474083D01*
X147099696Y-75648339D01*
X147005107Y-75876133D01*
X147004892Y-76122785D01*
X135445068Y-76122785D01*
X135445108Y-76077215D01*
X135350917Y-75849257D01*
X135176661Y-75674696D01*
X134948867Y-75580107D01*
X134745018Y-75579929D01*
X134745108Y-75477215D01*
X134650917Y-75249257D01*
X134476661Y-75074696D01*
X134248867Y-74980107D01*
X134002215Y-74979892D01*
X133774257Y-75074083D01*
X133599696Y-75248339D01*
X133505107Y-75476133D01*
X133504892Y-75722785D01*
X128551647Y-75722785D01*
X128448867Y-75680107D01*
X128202215Y-75679892D01*
X127974257Y-75774083D01*
X127799696Y-75948339D01*
X127705107Y-76176133D01*
X127704892Y-76422785D01*
X125395000Y-76422785D01*
X125395000Y-72038904D01*
X125524323Y-71388755D01*
X125870565Y-70870565D01*
X126388755Y-70524323D01*
X126775000Y-70447494D01*
X126775000Y-73800000D01*
X126781839Y-73836346D01*
X126803319Y-73869727D01*
X126836094Y-73892121D01*
X126875000Y-73900000D01*
X129248295Y-73900000D01*
X129099696Y-74048339D01*
X129005107Y-74276133D01*
X129004892Y-74522785D01*
X129099083Y-74750743D01*
X129273339Y-74925304D01*
X129501133Y-75019893D01*
X129747785Y-75020108D01*
X129917458Y-74950000D01*
X160300000Y-74950000D01*
X160300000Y-75419891D01*
X160315224Y-75456645D01*
X160343354Y-75484776D01*
X160380109Y-75500000D01*
X161950000Y-75500000D01*
X161975000Y-75475000D01*
X161975000Y-74925000D01*
X162025000Y-74925000D01*
X162025000Y-75475000D01*
X162050000Y-75500000D01*
X163619891Y-75500000D01*
X163656646Y-75484776D01*
X163684776Y-75456645D01*
X163700000Y-75419891D01*
X163700000Y-74950000D01*
X163675000Y-74925000D01*
X162025000Y-74925000D01*
X161975000Y-74925000D01*
X160325000Y-74925000D01*
X160300000Y-74950000D01*
X129917458Y-74950000D01*
X129975743Y-74925917D01*
X130150304Y-74751661D01*
X130244893Y-74523867D01*
X130245018Y-74380109D01*
X160300000Y-74380109D01*
X160300000Y-74850000D01*
X160325000Y-74875000D01*
X161975000Y-74875000D01*
X161975000Y-74325000D01*
X162025000Y-74325000D01*
X162025000Y-74875000D01*
X163675000Y-74875000D01*
X163700000Y-74850000D01*
X163700000Y-74380109D01*
X163684776Y-74343355D01*
X163656646Y-74315224D01*
X163619891Y-74300000D01*
X162050000Y-74300000D01*
X162025000Y-74325000D01*
X161975000Y-74325000D01*
X161950000Y-74300000D01*
X160380109Y-74300000D01*
X160343354Y-74315224D01*
X160315224Y-74343355D01*
X160300000Y-74380109D01*
X130245018Y-74380109D01*
X130245108Y-74277215D01*
X130150917Y-74049257D01*
X130001921Y-73900000D01*
X131125000Y-73900000D01*
X131161346Y-73893161D01*
X131194727Y-73871681D01*
X131217121Y-73838906D01*
X131225000Y-73800000D01*
X131225000Y-70395000D01*
X134775000Y-70395000D01*
X134775000Y-73800000D01*
G36*
X143950000Y-82625000D02*
X143970000Y-82625000D01*
X143970000Y-82675000D01*
X143950000Y-82675000D01*
X143950000Y-82695000D01*
X143900000Y-82695000D01*
X143900000Y-82675000D01*
X143880000Y-82675000D01*
X143880000Y-82625000D01*
X143900000Y-82625000D01*
X143900000Y-82605000D01*
X143950000Y-82605000D01*
X143950000Y-82625000D01*
X143950000Y-82625000D01*
G37*
X143950000Y-82625000D02*
X143970000Y-82625000D01*
X143970000Y-82675000D01*
X143950000Y-82675000D01*
X143950000Y-82695000D01*
X143900000Y-82695000D01*
X143900000Y-82675000D01*
X143880000Y-82675000D01*
X143880000Y-82625000D01*
X143900000Y-82625000D01*
X143900000Y-82605000D01*
X143950000Y-82605000D01*
X143950000Y-82625000D01*
G36*
X146730000Y-81951030D02*
X146701030Y-81980000D01*
X146096669Y-81980000D01*
X146051937Y-81949436D01*
X146017453Y-81942453D01*
X146000000Y-81925000D01*
X145931267Y-81925000D01*
X145925000Y-81923731D01*
X145025000Y-81923731D01*
X145018256Y-81925000D01*
X144950000Y-81925000D01*
X144934180Y-81940820D01*
X144925000Y-81942547D01*
X144925000Y-81886081D01*
X145000000Y-81901269D01*
X145350000Y-81901269D01*
X145468585Y-81878956D01*
X145500000Y-81858741D01*
X145500000Y-81875000D01*
X146000000Y-81875000D01*
X146025000Y-81850000D01*
X146025000Y-81820000D01*
X146580022Y-81820000D01*
X146730000Y-81790167D01*
X146730000Y-81951030D01*
X146730000Y-81951030D01*
G37*
X146730000Y-81951030D02*
X146701030Y-81980000D01*
X146096669Y-81980000D01*
X146051937Y-81949436D01*
X146017453Y-81942453D01*
X146000000Y-81925000D01*
X145931267Y-81925000D01*
X145925000Y-81923731D01*
X145025000Y-81923731D01*
X145018256Y-81925000D01*
X144950000Y-81925000D01*
X144934180Y-81940820D01*
X144925000Y-81942547D01*
X144925000Y-81886081D01*
X145000000Y-81901269D01*
X145350000Y-81901269D01*
X145468585Y-81878956D01*
X145500000Y-81858741D01*
X145500000Y-81875000D01*
X146000000Y-81875000D01*
X146025000Y-81850000D01*
X146025000Y-81820000D01*
X146580022Y-81820000D01*
X146730000Y-81790167D01*
X146730000Y-81951030D01*
G36*
X152025000Y-82961360D02*
X152025000Y-83038640D01*
X152014143Y-83049498D01*
X152000000Y-83035355D01*
X151985858Y-83049498D01*
X151975000Y-83038640D01*
X151975000Y-82961360D01*
X151985858Y-82950503D01*
X152000000Y-82964645D01*
X152014143Y-82950503D01*
X152025000Y-82961360D01*
X152025000Y-82961360D01*
G37*
X152025000Y-82961360D02*
X152025000Y-83038640D01*
X152014143Y-83049498D01*
X152000000Y-83035355D01*
X151985858Y-83049498D01*
X151975000Y-83038640D01*
X151975000Y-82961360D01*
X151985858Y-82950503D01*
X152000000Y-82964645D01*
X152014143Y-82950503D01*
X152025000Y-82961360D01*
G36*
X152025000Y-81975000D02*
X152599352Y-81975000D01*
X152600455Y-82025000D01*
X152025000Y-82025000D01*
X152025000Y-82599352D01*
X151975000Y-82600455D01*
X151975000Y-82025000D01*
X151400648Y-82025000D01*
X151399545Y-81975000D01*
X151975000Y-81975000D01*
X151975000Y-81400648D01*
X152025000Y-81399545D01*
X152025000Y-81975000D01*
X152025000Y-81975000D01*
G37*
X152025000Y-81975000D02*
X152599352Y-81975000D01*
X152600455Y-82025000D01*
X152025000Y-82025000D01*
X152025000Y-82599352D01*
X151975000Y-82600455D01*
X151975000Y-82025000D01*
X151400648Y-82025000D01*
X151399545Y-81975000D01*
X151975000Y-81975000D01*
X151975000Y-81400648D01*
X152025000Y-81399545D01*
X152025000Y-81975000D01*
G36*
X153049498Y-81985858D02*
X153035355Y-82000000D01*
X153049498Y-82014143D01*
X153038640Y-82025000D01*
X152961360Y-82025000D01*
X152950503Y-82014143D01*
X152964645Y-82000000D01*
X152950503Y-81985858D01*
X152961360Y-81975000D01*
X153038640Y-81975000D01*
X153049498Y-81985858D01*
X153049498Y-81985858D01*
G37*
X153049498Y-81985858D02*
X153035355Y-82000000D01*
X153049498Y-82014143D01*
X153038640Y-82025000D01*
X152961360Y-82025000D01*
X152950503Y-82014143D01*
X152964645Y-82000000D01*
X152950503Y-81985858D01*
X152961360Y-81975000D01*
X153038640Y-81975000D01*
X153049498Y-81985858D01*
G36*
X151049498Y-81985858D02*
X151035355Y-82000000D01*
X151049498Y-82014143D01*
X151038640Y-82025000D01*
X150961360Y-82025000D01*
X150950503Y-82014143D01*
X150964645Y-82000000D01*
X150950503Y-81985858D01*
X150961360Y-81975000D01*
X151038640Y-81975000D01*
X151049498Y-81985858D01*
X151049498Y-81985858D01*
G37*
X151049498Y-81985858D02*
X151035355Y-82000000D01*
X151049498Y-82014143D01*
X151038640Y-82025000D01*
X150961360Y-82025000D01*
X150950503Y-82014143D01*
X150964645Y-82000000D01*
X150950503Y-81985858D01*
X150961360Y-81975000D01*
X151038640Y-81975000D01*
X151049498Y-81985858D01*
G36*
X152025000Y-80961360D02*
X152025000Y-81038640D01*
X152014143Y-81049498D01*
X152000000Y-81035355D01*
X151985858Y-81049498D01*
X151975000Y-81038640D01*
X151975000Y-80961360D01*
X151985858Y-80950503D01*
X152000000Y-80964645D01*
X152014143Y-80950503D01*
X152025000Y-80961360D01*
X152025000Y-80961360D01*
G37*
X152025000Y-80961360D02*
X152025000Y-81038640D01*
X152014143Y-81049498D01*
X152000000Y-81035355D01*
X151985858Y-81049498D01*
X151975000Y-81038640D01*
X151975000Y-80961360D01*
X151985858Y-80950503D01*
X152000000Y-80964645D01*
X152014143Y-80950503D01*
X152025000Y-80961360D01*
M02*
